%TF.GenerationSoftware,KiCad,Pcbnew,10.0.6-10.0.6~ubuntu24.04.1*%
%TF.CreationDate,2026-09-06T21:39:31-03:00*%
%TF.ProjectId,simut PCB,73696d75-7420-4504-9342-2e6b69636164,rev?*%
%TF.SameCoordinates,Original*%
%TF.FileFunction,Legend,Top*%
%TF.FilePolarity,Positive*%
%FSLAX46Y46*%
G04 Gerber Fmt 4.6, Leading zero omitted, Abs format (unit mm)*
G04 Created by KiCad (PCBNEW 10.0.6-10.0.6~ubuntu24.04.1) date 2026-09-06 21:39:31*
%MOMM*%
%LPD*%
G01*
G04 APERTURE LIST*
%ADD10C,0.000000*%
%ADD11C,0.200000*%
%ADD12C,0.300000*%
%ADD13C,0.150000*%
%ADD14C,0.120000*%
G04 APERTURE END LIST*
D10*
G36*
X190705230Y-88521720D02*
G01*
X189435487Y-88521720D01*
X189435487Y-83597761D01*
X190705230Y-83597761D01*
X190705230Y-88521720D01*
G37*
G36*
X208105532Y-84557487D02*
G01*
X206473007Y-84557487D01*
X206473007Y-88521720D01*
X205203263Y-88521720D01*
X205203263Y-84557487D01*
X203567440Y-84557487D01*
X203567440Y-83597761D01*
X208105532Y-83597761D01*
X208105532Y-84557487D01*
G37*
G36*
X194685853Y-86232887D02*
G01*
X195813785Y-83597761D01*
X197426522Y-83597761D01*
X197426522Y-88521720D01*
X196226038Y-88521720D01*
X196226038Y-84920269D01*
X195091513Y-87575189D01*
X194286792Y-87575189D01*
X193152265Y-84920269D01*
X193152265Y-88521720D01*
X191948490Y-88521720D01*
X191948490Y-83597761D01*
X193564527Y-83597761D01*
X194685853Y-86232887D01*
G37*
G36*
X199939630Y-86549499D02*
G01*
X199940411Y-86624407D01*
X199942752Y-86696590D01*
X199946648Y-86766068D01*
X199952105Y-86832823D01*
X199959120Y-86896853D01*
X199967692Y-86958176D01*
X199977827Y-87016773D01*
X199989520Y-87072653D01*
X200002769Y-87125813D01*
X200017577Y-87176254D01*
X200033942Y-87223974D01*
X200051870Y-87268986D01*
X200071357Y-87311275D01*
X200092403Y-87350843D01*
X200115004Y-87387696D01*
X200139169Y-87421829D01*
X200151887Y-87437961D01*
X200165092Y-87453578D01*
X200178793Y-87468683D01*
X200192995Y-87483280D01*
X200207682Y-87497367D01*
X200222858Y-87510933D01*
X200238534Y-87523991D01*
X200254699Y-87536538D01*
X200271365Y-87548572D01*
X200288516Y-87560089D01*
X200324290Y-87581603D01*
X200362047Y-87601063D01*
X200401771Y-87618473D01*
X200443470Y-87633835D01*
X200487134Y-87647152D01*
X200532774Y-87658418D01*
X200580384Y-87667638D01*
X200629961Y-87674804D01*
X200681509Y-87679929D01*
X200735032Y-87683001D01*
X200790528Y-87684022D01*
X200846422Y-87683001D01*
X200900322Y-87679929D01*
X200952212Y-87674804D01*
X201002118Y-87667638D01*
X201050019Y-87658418D01*
X201095934Y-87647152D01*
X201139841Y-87633835D01*
X201181760Y-87618473D01*
X201221675Y-87601063D01*
X201259597Y-87581603D01*
X201295517Y-87560089D01*
X201329442Y-87536538D01*
X201361374Y-87510933D01*
X201391305Y-87483280D01*
X201419245Y-87453578D01*
X201445186Y-87421829D01*
X201469350Y-87387696D01*
X201491953Y-87350843D01*
X201512998Y-87311275D01*
X201532478Y-87268986D01*
X201550408Y-87223974D01*
X201566772Y-87176254D01*
X201581587Y-87125813D01*
X201594838Y-87072653D01*
X201606525Y-87016773D01*
X201616655Y-86958176D01*
X201625232Y-86896853D01*
X201632248Y-86832823D01*
X201637706Y-86766068D01*
X201641602Y-86696590D01*
X201643935Y-86624407D01*
X201644716Y-86549499D01*
X201644716Y-83597761D01*
X202914461Y-83597761D01*
X202914461Y-86549499D01*
X202912412Y-86678092D01*
X202906264Y-86802518D01*
X202896022Y-86922770D01*
X202881686Y-87038846D01*
X202863253Y-87150743D01*
X202840722Y-87258474D01*
X202814091Y-87362027D01*
X202783364Y-87461405D01*
X202748544Y-87556611D01*
X202709625Y-87647638D01*
X202666607Y-87734499D01*
X202619499Y-87817180D01*
X202568285Y-87895687D01*
X202512980Y-87970023D01*
X202453574Y-88040183D01*
X202390076Y-88106173D01*
X202322377Y-88168074D01*
X202250371Y-88225981D01*
X202174068Y-88279893D01*
X202093461Y-88329818D01*
X202008548Y-88375741D01*
X201919331Y-88417681D01*
X201825820Y-88455620D01*
X201727994Y-88489566D01*
X201625877Y-88519520D01*
X201519449Y-88545481D01*
X201408713Y-88567449D01*
X201293685Y-88585415D01*
X201174348Y-88599396D01*
X201050712Y-88609375D01*
X200922769Y-88615368D01*
X200790528Y-88617363D01*
X200658678Y-88615368D01*
X200531117Y-88609375D01*
X200407825Y-88599396D01*
X200288812Y-88585415D01*
X200174081Y-88567449D01*
X200063621Y-88545481D01*
X199957440Y-88519520D01*
X199855540Y-88489566D01*
X199757909Y-88455620D01*
X199664556Y-88417681D01*
X199575486Y-88375741D01*
X199490691Y-88329818D01*
X199410170Y-88279893D01*
X199333935Y-88225981D01*
X199261965Y-88168074D01*
X199194282Y-88106173D01*
X199130781Y-88040183D01*
X199071378Y-87970023D01*
X199016068Y-87895687D01*
X198964858Y-87817180D01*
X198917748Y-87734499D01*
X198874733Y-87647638D01*
X198835812Y-87556611D01*
X198800991Y-87461405D01*
X198770265Y-87362027D01*
X198743634Y-87258474D01*
X198721099Y-87150743D01*
X198702664Y-87038846D01*
X198688324Y-86922770D01*
X198678084Y-86802518D01*
X198671941Y-86678092D01*
X198669895Y-86549499D01*
X198669895Y-83597761D01*
X199939630Y-83597761D01*
X199939630Y-86549499D01*
G37*
G36*
X186377723Y-83509665D02*
G01*
X186480214Y-83512525D01*
X186583435Y-83517291D01*
X186687368Y-83523963D01*
X186792030Y-83532544D01*
X186897415Y-83543033D01*
X187003518Y-83555425D01*
X187110343Y-83569728D01*
X187217995Y-83585932D01*
X187326571Y-83604043D01*
X187436074Y-83624067D01*
X187546510Y-83645994D01*
X187657867Y-83669827D01*
X187770156Y-83695564D01*
X187883371Y-83723215D01*
X187997517Y-83752765D01*
X187997517Y-84794945D01*
X187896411Y-84750990D01*
X187795924Y-84709815D01*
X187696054Y-84671424D01*
X187596800Y-84635813D01*
X187498169Y-84602993D01*
X187400160Y-84572945D01*
X187302764Y-84545688D01*
X187205983Y-84521210D01*
X187110190Y-84499565D01*
X187015732Y-84480809D01*
X186922608Y-84464938D01*
X186830836Y-84451946D01*
X186740396Y-84441851D01*
X186651300Y-84434638D01*
X186563540Y-84430305D01*
X186477122Y-84428863D01*
X186367045Y-84430825D01*
X186314796Y-84433271D01*
X186264399Y-84436698D01*
X186215855Y-84441103D01*
X186169170Y-84446487D01*
X186124335Y-84452851D01*
X186081356Y-84460190D01*
X186040234Y-84468515D01*
X186000966Y-84477817D01*
X185963557Y-84488097D01*
X185928000Y-84499360D01*
X185894296Y-84511595D01*
X185862446Y-84524818D01*
X185832459Y-84539013D01*
X185804320Y-84554188D01*
X185790932Y-84562155D01*
X185777964Y-84570394D01*
X185765419Y-84578905D01*
X185753305Y-84587685D01*
X185741611Y-84596735D01*
X185730348Y-84606050D01*
X185719508Y-84615646D01*
X185709092Y-84625508D01*
X185699102Y-84635639D01*
X185689535Y-84646039D01*
X185680401Y-84656716D01*
X185671684Y-84667661D01*
X185663389Y-84678878D01*
X185655525Y-84690360D01*
X185648082Y-84702115D01*
X185641071Y-84714138D01*
X185634480Y-84726439D01*
X185628315Y-84739009D01*
X185622579Y-84751843D01*
X185617266Y-84764956D01*
X185612371Y-84778336D01*
X185607909Y-84791985D01*
X185603874Y-84805903D01*
X185600255Y-84820093D01*
X185597069Y-84834558D01*
X185594303Y-84849284D01*
X185591966Y-84864289D01*
X185590054Y-84879559D01*
X185588568Y-84895104D01*
X185587500Y-84910916D01*
X185586650Y-84943355D01*
X185587225Y-84967749D01*
X185588944Y-84991459D01*
X185591807Y-85014487D01*
X185595824Y-85036835D01*
X185600987Y-85058493D01*
X185607290Y-85079475D01*
X185614742Y-85099775D01*
X185623343Y-85119391D01*
X185633091Y-85138320D01*
X185643981Y-85156569D01*
X185656021Y-85174134D01*
X185669206Y-85191015D01*
X185683536Y-85207219D01*
X185699014Y-85222737D01*
X185715644Y-85237568D01*
X185733418Y-85251717D01*
X185752697Y-85265411D01*
X185773842Y-85278851D01*
X185796858Y-85292054D01*
X185821736Y-85305007D01*
X185848489Y-85317714D01*
X185877109Y-85330178D01*
X185907596Y-85342400D01*
X185939952Y-85354373D01*
X185974178Y-85366105D01*
X186010267Y-85377590D01*
X186048224Y-85388829D01*
X186088056Y-85399823D01*
X186129749Y-85410575D01*
X186173316Y-85421084D01*
X186218744Y-85431338D01*
X186266044Y-85441357D01*
X186806925Y-85550195D01*
X186907717Y-85571477D01*
X187004805Y-85594100D01*
X187098182Y-85618062D01*
X187187846Y-85643363D01*
X187273800Y-85670007D01*
X187356049Y-85697989D01*
X187434585Y-85727308D01*
X187509406Y-85757970D01*
X187580520Y-85789972D01*
X187647925Y-85823314D01*
X187711617Y-85857996D01*
X187771603Y-85894010D01*
X187827872Y-85931376D01*
X187880431Y-85970076D01*
X187929289Y-86010115D01*
X187974425Y-86051494D01*
X188016363Y-86094659D01*
X188055589Y-86140027D01*
X188092116Y-86187621D01*
X188125932Y-86237422D01*
X188157043Y-86289445D01*
X188185451Y-86343677D01*
X188211150Y-86400137D01*
X188234153Y-86458797D01*
X188254439Y-86519686D01*
X188272029Y-86582788D01*
X188286905Y-86648108D01*
X188299080Y-86715640D01*
X188308552Y-86785388D01*
X188315307Y-86857351D01*
X188319374Y-86931532D01*
X188320720Y-87007926D01*
X188318834Y-87108121D01*
X188313171Y-87205061D01*
X188303734Y-87298739D01*
X188290525Y-87389161D01*
X188273537Y-87476315D01*
X188252781Y-87560214D01*
X188228243Y-87640859D01*
X188199936Y-87718239D01*
X188167847Y-87792358D01*
X188131988Y-87863228D01*
X188092355Y-87930832D01*
X188048944Y-87995170D01*
X188001760Y-88056253D01*
X187950803Y-88114081D01*
X187896069Y-88168647D01*
X187837561Y-88219952D01*
X187775173Y-88268079D01*
X187708806Y-88313094D01*
X187638461Y-88355010D01*
X187564133Y-88393822D01*
X187485821Y-88429524D01*
X187403534Y-88462126D01*
X187317266Y-88491624D01*
X187227012Y-88518011D01*
X187132780Y-88541303D01*
X187034562Y-88561478D01*
X186932372Y-88578555D01*
X186826198Y-88592528D01*
X186716040Y-88603396D01*
X186601907Y-88611156D01*
X186483789Y-88615815D01*
X186361691Y-88617363D01*
X186244559Y-88615972D01*
X186127325Y-88611801D01*
X186009984Y-88604844D01*
X185892544Y-88595103D01*
X185775002Y-88582584D01*
X185657354Y-88567277D01*
X185539604Y-88549191D01*
X185421754Y-88528322D01*
X185303849Y-88504716D01*
X185185940Y-88478436D01*
X185068040Y-88449472D01*
X184950129Y-88417840D01*
X184832229Y-88383513D01*
X184714329Y-88346513D01*
X184596419Y-88306833D01*
X184478513Y-88264475D01*
X184478513Y-87192616D01*
X184595928Y-87253344D01*
X184712364Y-87310205D01*
X184827818Y-87363211D01*
X184942301Y-87412343D01*
X185055798Y-87457614D01*
X185168316Y-87499023D01*
X185279860Y-87536563D01*
X185390420Y-87570241D01*
X185500000Y-87600000D01*
X185608603Y-87625792D01*
X185716231Y-87647612D01*
X185822874Y-87665472D01*
X185928537Y-87679360D01*
X186033226Y-87689280D01*
X186136933Y-87695235D01*
X186239661Y-87697213D01*
X186290848Y-87696674D01*
X186340510Y-87695049D01*
X186388654Y-87692342D01*
X186435277Y-87688559D01*
X186480379Y-87683687D01*
X186523961Y-87677740D01*
X186566027Y-87670703D01*
X186606568Y-87662586D01*
X186645590Y-87653385D01*
X186683093Y-87643107D01*
X186719079Y-87631744D01*
X186753541Y-87619297D01*
X186786477Y-87605774D01*
X186817900Y-87591165D01*
X186847804Y-87575469D01*
X186876186Y-87558700D01*
X186902941Y-87540919D01*
X186927973Y-87522211D01*
X186939839Y-87512509D01*
X186951275Y-87502579D01*
X186962283Y-87492411D01*
X186972856Y-87482018D01*
X186983000Y-87471392D01*
X186992712Y-87460532D01*
X187001987Y-87449437D01*
X187010835Y-87438113D01*
X187019254Y-87426556D01*
X187027236Y-87414771D01*
X187034790Y-87402751D01*
X187041915Y-87390497D01*
X187048599Y-87378013D01*
X187054860Y-87365298D01*
X187060686Y-87352350D01*
X187066079Y-87339169D01*
X187071043Y-87325760D01*
X187075572Y-87312122D01*
X187079673Y-87298242D01*
X187083341Y-87284136D01*
X187086578Y-87269798D01*
X187089385Y-87255229D01*
X187091760Y-87240424D01*
X187093702Y-87225388D01*
X187095208Y-87210122D01*
X187096291Y-87194624D01*
X187097150Y-87162934D01*
X187096563Y-87134488D01*
X187094812Y-87106865D01*
X187091873Y-87080070D01*
X187087775Y-87054099D01*
X187082501Y-87028950D01*
X187076052Y-87004628D01*
X187068426Y-86981132D01*
X187059637Y-86958455D01*
X187049670Y-86936603D01*
X187038536Y-86915582D01*
X187026225Y-86895380D01*
X187012742Y-86876002D01*
X186998089Y-86857454D01*
X186982259Y-86839730D01*
X186965263Y-86822823D01*
X186947090Y-86806745D01*
X186927165Y-86791180D01*
X186904911Y-86775831D01*
X186880321Y-86760677D01*
X186853405Y-86745729D01*
X186824154Y-86730991D01*
X186792572Y-86716461D01*
X186758662Y-86702134D01*
X186722415Y-86688018D01*
X186683834Y-86674102D01*
X186642927Y-86660395D01*
X186599689Y-86646893D01*
X186554111Y-86633599D01*
X186506206Y-86620505D01*
X186455969Y-86607627D01*
X186403397Y-86594951D01*
X186348498Y-86582478D01*
X185857093Y-86473645D01*
X185766298Y-86453121D01*
X185678611Y-86431128D01*
X185594029Y-86407670D01*
X185512551Y-86382737D01*
X185434177Y-86356349D01*
X185358908Y-86328477D01*
X185286744Y-86299144D01*
X185217686Y-86268342D01*
X185151731Y-86236071D01*
X185088880Y-86202331D01*
X185029138Y-86167121D01*
X184972499Y-86130444D01*
X184918959Y-86092299D01*
X184868530Y-86052681D01*
X184821203Y-86011599D01*
X184776982Y-85969044D01*
X184735651Y-85924821D01*
X184696985Y-85878711D01*
X184660979Y-85830723D01*
X184627647Y-85780853D01*
X184596974Y-85729101D01*
X184568980Y-85675469D01*
X184543644Y-85619957D01*
X184520972Y-85562565D01*
X184500972Y-85503282D01*
X184483638Y-85442131D01*
X184468975Y-85379093D01*
X184456971Y-85314178D01*
X184447639Y-85247382D01*
X184440975Y-85178703D01*
X184436969Y-85108142D01*
X184435639Y-85035702D01*
X184437493Y-84945093D01*
X184443056Y-84857146D01*
X184452331Y-84771845D01*
X184465323Y-84689203D01*
X184482017Y-84609210D01*
X184502420Y-84531875D01*
X184526538Y-84457193D01*
X184554369Y-84385163D01*
X184585900Y-84315791D01*
X184621151Y-84249070D01*
X184660110Y-84185005D01*
X184702779Y-84123588D01*
X184749159Y-84064833D01*
X184799247Y-84008727D01*
X184853046Y-83955275D01*
X184910556Y-83904480D01*
X184971540Y-83856549D01*
X185035778Y-83811717D01*
X185103260Y-83769975D01*
X185173982Y-83731328D01*
X185247958Y-83695773D01*
X185325182Y-83663310D01*
X185405649Y-83633936D01*
X185489358Y-83607650D01*
X185576322Y-83584461D01*
X185666529Y-83564366D01*
X185759977Y-83547358D01*
X185856680Y-83533448D01*
X185956624Y-83522625D01*
X186059821Y-83514895D01*
X186166255Y-83510258D01*
X186275944Y-83508710D01*
X186377723Y-83509665D01*
G37*
D11*
X96000000Y-74500000D02*
G75*
G02*
X90000000Y-74500000I-3000000J0D01*
G01*
X90000000Y-74500000D02*
G75*
G02*
X96000000Y-74500000I3000000J0D01*
G01*
X96000000Y-123500000D02*
G75*
G02*
X90000000Y-123500000I-3000000J0D01*
G01*
X90000000Y-123500000D02*
G75*
G02*
X96000000Y-123500000I3000000J0D01*
G01*
D12*
X145920000Y-78840900D02*
X145920000Y-77340900D01*
X145920000Y-78840900D02*
X156670000Y-78840900D01*
D11*
X148904761Y-102550000D02*
X148904761Y-103650000D01*
X148919047Y-93900000D02*
X148919047Y-102200000D01*
X153154761Y-93900000D02*
X153154761Y-102200000D01*
X157004761Y-103650000D02*
X148904761Y-103650000D01*
X157390476Y-93900000D02*
X157390476Y-102200000D01*
D12*
X160170000Y-78840900D02*
X171170000Y-78840900D01*
D11*
X161626190Y-93900000D02*
X161626190Y-102200000D01*
X165861904Y-93900000D02*
X165861904Y-102200000D01*
X170097618Y-93900000D02*
X170097618Y-102200000D01*
X170104761Y-102550000D02*
X170104761Y-103650000D01*
X170104761Y-103650000D02*
X162004761Y-103650000D01*
D12*
X171170000Y-78840900D02*
X171170000Y-77340900D01*
D11*
X174333333Y-93900000D02*
X174333333Y-102200000D01*
X178569047Y-93900000D02*
X178569047Y-102200000D01*
X182804761Y-93900000D02*
X182804761Y-102200000D01*
X187040476Y-93900000D02*
X187040476Y-102200000D01*
X191276190Y-93900000D02*
X191276190Y-102200000D01*
X195511904Y-93900000D02*
X195511904Y-102200000D01*
X199747618Y-93900000D02*
X199747618Y-102200000D01*
X205000000Y-64500000D02*
G75*
G02*
X199000000Y-64500000I-3000000J0D01*
G01*
X199000000Y-64500000D02*
G75*
G02*
X205000000Y-64500000I3000000J0D01*
G01*
X205000000Y-123500000D02*
G75*
G02*
X199000000Y-123500000I-3000000J0D01*
G01*
X199000000Y-123500000D02*
G75*
G02*
X205000000Y-123500000I3000000J0D01*
G01*
X203983333Y-93900000D02*
X203983333Y-102200000D01*
X208219047Y-93900000D02*
X148919047Y-93900000D01*
X208219047Y-93900000D02*
X208219047Y-102200000D01*
X208219047Y-96666667D02*
X148919047Y-96700000D01*
X208219047Y-99433333D02*
X148919047Y-99433333D01*
X208219047Y-102200000D02*
X148919047Y-102200000D01*
D13*
X159873866Y-81780951D02*
X159873866Y-81019047D01*
X160254819Y-81399999D02*
X159492914Y-81399999D01*
D11*
X150088720Y-101267219D02*
X150088720Y-100267219D01*
X151136338Y-101267219D02*
X150803005Y-100791028D01*
X150564910Y-101267219D02*
X150564910Y-100267219D01*
X150564910Y-100267219D02*
X150945862Y-100267219D01*
X150945862Y-100267219D02*
X151041100Y-100314838D01*
X151041100Y-100314838D02*
X151088719Y-100362457D01*
X151088719Y-100362457D02*
X151136338Y-100457695D01*
X151136338Y-100457695D02*
X151136338Y-100600552D01*
X151136338Y-100600552D02*
X151088719Y-100695790D01*
X151088719Y-100695790D02*
X151041100Y-100743409D01*
X151041100Y-100743409D02*
X150945862Y-100791028D01*
X150945862Y-100791028D02*
X150564910Y-100791028D01*
X152231576Y-101362457D02*
X152136338Y-101314838D01*
X152136338Y-101314838D02*
X152041100Y-101219600D01*
X152041100Y-101219600D02*
X151898243Y-101076742D01*
X151898243Y-101076742D02*
X151803005Y-101029123D01*
X151803005Y-101029123D02*
X151707767Y-101029123D01*
X151755386Y-101267219D02*
X151660148Y-101219600D01*
X151660148Y-101219600D02*
X151564910Y-101124361D01*
X151564910Y-101124361D02*
X151517291Y-100933885D01*
X151517291Y-100933885D02*
X151517291Y-100600552D01*
X151517291Y-100600552D02*
X151564910Y-100410076D01*
X151564910Y-100410076D02*
X151660148Y-100314838D01*
X151660148Y-100314838D02*
X151755386Y-100267219D01*
X151755386Y-100267219D02*
X151945862Y-100267219D01*
X151945862Y-100267219D02*
X152041100Y-100314838D01*
X152041100Y-100314838D02*
X152136338Y-100410076D01*
X152136338Y-100410076D02*
X152183957Y-100600552D01*
X152183957Y-100600552D02*
X152183957Y-100933885D01*
X152183957Y-100933885D02*
X152136338Y-101124361D01*
X152136338Y-101124361D02*
X152041100Y-101219600D01*
X152041100Y-101219600D02*
X151945862Y-101267219D01*
X151945862Y-101267219D02*
X151755386Y-101267219D01*
X150922052Y-95667219D02*
X150350624Y-95667219D01*
X150636338Y-95667219D02*
X150636338Y-94667219D01*
X150636338Y-94667219D02*
X150541100Y-94810076D01*
X150541100Y-94810076D02*
X150445862Y-94905314D01*
X150445862Y-94905314D02*
X150350624Y-94952933D01*
X151779195Y-95000552D02*
X151779195Y-95667219D01*
X151541100Y-94619600D02*
X151303005Y-95333885D01*
X151303005Y-95333885D02*
X151922052Y-95333885D01*
X154388720Y-101267219D02*
X154388720Y-100267219D01*
X154388720Y-100267219D02*
X154626815Y-100267219D01*
X154626815Y-100267219D02*
X154769672Y-100314838D01*
X154769672Y-100314838D02*
X154864910Y-100410076D01*
X154864910Y-100410076D02*
X154912529Y-100505314D01*
X154912529Y-100505314D02*
X154960148Y-100695790D01*
X154960148Y-100695790D02*
X154960148Y-100838647D01*
X154960148Y-100838647D02*
X154912529Y-101029123D01*
X154912529Y-101029123D02*
X154864910Y-101124361D01*
X154864910Y-101124361D02*
X154769672Y-101219600D01*
X154769672Y-101219600D02*
X154626815Y-101267219D01*
X154626815Y-101267219D02*
X154388720Y-101267219D01*
X155579196Y-100267219D02*
X155769672Y-100267219D01*
X155769672Y-100267219D02*
X155864910Y-100314838D01*
X155864910Y-100314838D02*
X155960148Y-100410076D01*
X155960148Y-100410076D02*
X156007767Y-100600552D01*
X156007767Y-100600552D02*
X156007767Y-100933885D01*
X156007767Y-100933885D02*
X155960148Y-101124361D01*
X155960148Y-101124361D02*
X155864910Y-101219600D01*
X155864910Y-101219600D02*
X155769672Y-101267219D01*
X155769672Y-101267219D02*
X155579196Y-101267219D01*
X155579196Y-101267219D02*
X155483958Y-101219600D01*
X155483958Y-101219600D02*
X155388720Y-101124361D01*
X155388720Y-101124361D02*
X155341101Y-100933885D01*
X155341101Y-100933885D02*
X155341101Y-100600552D01*
X155341101Y-100600552D02*
X155388720Y-100410076D01*
X155388720Y-100410076D02*
X155483958Y-100314838D01*
X155483958Y-100314838D02*
X155579196Y-100267219D01*
X154983957Y-95667219D02*
X154412529Y-95667219D01*
X154698243Y-95667219D02*
X154698243Y-94667219D01*
X154698243Y-94667219D02*
X154603005Y-94810076D01*
X154603005Y-94810076D02*
X154507767Y-94905314D01*
X154507767Y-94905314D02*
X154412529Y-94952933D01*
X155317291Y-94667219D02*
X155936338Y-94667219D01*
X155936338Y-94667219D02*
X155603005Y-95048171D01*
X155603005Y-95048171D02*
X155745862Y-95048171D01*
X155745862Y-95048171D02*
X155841100Y-95095790D01*
X155841100Y-95095790D02*
X155888719Y-95143409D01*
X155888719Y-95143409D02*
X155936338Y-95238647D01*
X155936338Y-95238647D02*
X155936338Y-95476742D01*
X155936338Y-95476742D02*
X155888719Y-95571980D01*
X155888719Y-95571980D02*
X155841100Y-95619600D01*
X155841100Y-95619600D02*
X155745862Y-95667219D01*
X155745862Y-95667219D02*
X155460148Y-95667219D01*
X155460148Y-95667219D02*
X155364910Y-95619600D01*
X155364910Y-95619600D02*
X155317291Y-95571980D01*
X157231577Y-103167219D02*
X157803005Y-103167219D01*
X157517291Y-104167219D02*
X157517291Y-103167219D01*
X158326815Y-103167219D02*
X158517291Y-103167219D01*
X158517291Y-103167219D02*
X158612529Y-103214838D01*
X158612529Y-103214838D02*
X158707767Y-103310076D01*
X158707767Y-103310076D02*
X158755386Y-103500552D01*
X158755386Y-103500552D02*
X158755386Y-103833885D01*
X158755386Y-103833885D02*
X158707767Y-104024361D01*
X158707767Y-104024361D02*
X158612529Y-104119600D01*
X158612529Y-104119600D02*
X158517291Y-104167219D01*
X158517291Y-104167219D02*
X158326815Y-104167219D01*
X158326815Y-104167219D02*
X158231577Y-104119600D01*
X158231577Y-104119600D02*
X158136339Y-104024361D01*
X158136339Y-104024361D02*
X158088720Y-103833885D01*
X158088720Y-103833885D02*
X158088720Y-103500552D01*
X158088720Y-103500552D02*
X158136339Y-103310076D01*
X158136339Y-103310076D02*
X158231577Y-103214838D01*
X158231577Y-103214838D02*
X158326815Y-103167219D01*
X159183958Y-103167219D02*
X159183958Y-103976742D01*
X159183958Y-103976742D02*
X159231577Y-104071980D01*
X159231577Y-104071980D02*
X159279196Y-104119600D01*
X159279196Y-104119600D02*
X159374434Y-104167219D01*
X159374434Y-104167219D02*
X159564910Y-104167219D01*
X159564910Y-104167219D02*
X159660148Y-104119600D01*
X159660148Y-104119600D02*
X159707767Y-104071980D01*
X159707767Y-104071980D02*
X159755386Y-103976742D01*
X159755386Y-103976742D02*
X159755386Y-103167219D01*
X160803005Y-104071980D02*
X160755386Y-104119600D01*
X160755386Y-104119600D02*
X160612529Y-104167219D01*
X160612529Y-104167219D02*
X160517291Y-104167219D01*
X160517291Y-104167219D02*
X160374434Y-104119600D01*
X160374434Y-104119600D02*
X160279196Y-104024361D01*
X160279196Y-104024361D02*
X160231577Y-103929123D01*
X160231577Y-103929123D02*
X160183958Y-103738647D01*
X160183958Y-103738647D02*
X160183958Y-103595790D01*
X160183958Y-103595790D02*
X160231577Y-103405314D01*
X160231577Y-103405314D02*
X160279196Y-103310076D01*
X160279196Y-103310076D02*
X160374434Y-103214838D01*
X160374434Y-103214838D02*
X160517291Y-103167219D01*
X160517291Y-103167219D02*
X160612529Y-103167219D01*
X160612529Y-103167219D02*
X160755386Y-103214838D01*
X160755386Y-103214838D02*
X160803005Y-103262457D01*
X161231577Y-104167219D02*
X161231577Y-103167219D01*
X161231577Y-103643409D02*
X161803005Y-103643409D01*
X161803005Y-104167219D02*
X161803005Y-103167219D01*
X158326815Y-97567219D02*
X158660148Y-98567219D01*
X158660148Y-98567219D02*
X158993481Y-97567219D01*
X159279196Y-98519600D02*
X159422053Y-98567219D01*
X159422053Y-98567219D02*
X159660148Y-98567219D01*
X159660148Y-98567219D02*
X159755386Y-98519600D01*
X159755386Y-98519600D02*
X159803005Y-98471980D01*
X159803005Y-98471980D02*
X159850624Y-98376742D01*
X159850624Y-98376742D02*
X159850624Y-98281504D01*
X159850624Y-98281504D02*
X159803005Y-98186266D01*
X159803005Y-98186266D02*
X159755386Y-98138647D01*
X159755386Y-98138647D02*
X159660148Y-98091028D01*
X159660148Y-98091028D02*
X159469672Y-98043409D01*
X159469672Y-98043409D02*
X159374434Y-97995790D01*
X159374434Y-97995790D02*
X159326815Y-97948171D01*
X159326815Y-97948171D02*
X159279196Y-97852933D01*
X159279196Y-97852933D02*
X159279196Y-97757695D01*
X159279196Y-97757695D02*
X159326815Y-97662457D01*
X159326815Y-97662457D02*
X159374434Y-97614838D01*
X159374434Y-97614838D02*
X159469672Y-97567219D01*
X159469672Y-97567219D02*
X159707767Y-97567219D01*
X159707767Y-97567219D02*
X159850624Y-97614838D01*
X160231577Y-98519600D02*
X160374434Y-98567219D01*
X160374434Y-98567219D02*
X160612529Y-98567219D01*
X160612529Y-98567219D02*
X160707767Y-98519600D01*
X160707767Y-98519600D02*
X160755386Y-98471980D01*
X160755386Y-98471980D02*
X160803005Y-98376742D01*
X160803005Y-98376742D02*
X160803005Y-98281504D01*
X160803005Y-98281504D02*
X160755386Y-98186266D01*
X160755386Y-98186266D02*
X160707767Y-98138647D01*
X160707767Y-98138647D02*
X160612529Y-98091028D01*
X160612529Y-98091028D02*
X160422053Y-98043409D01*
X160422053Y-98043409D02*
X160326815Y-97995790D01*
X160326815Y-97995790D02*
X160279196Y-97948171D01*
X160279196Y-97948171D02*
X160231577Y-97852933D01*
X160231577Y-97852933D02*
X160231577Y-97757695D01*
X160231577Y-97757695D02*
X160279196Y-97662457D01*
X160279196Y-97662457D02*
X160326815Y-97614838D01*
X160326815Y-97614838D02*
X160422053Y-97567219D01*
X160422053Y-97567219D02*
X160660148Y-97567219D01*
X160660148Y-97567219D02*
X160803005Y-97614838D01*
X158588720Y-101267219D02*
X158588720Y-100267219D01*
X158588720Y-100267219D02*
X158826815Y-100267219D01*
X158826815Y-100267219D02*
X158969672Y-100314838D01*
X158969672Y-100314838D02*
X159064910Y-100410076D01*
X159064910Y-100410076D02*
X159112529Y-100505314D01*
X159112529Y-100505314D02*
X159160148Y-100695790D01*
X159160148Y-100695790D02*
X159160148Y-100838647D01*
X159160148Y-100838647D02*
X159112529Y-101029123D01*
X159112529Y-101029123D02*
X159064910Y-101124361D01*
X159064910Y-101124361D02*
X158969672Y-101219600D01*
X158969672Y-101219600D02*
X158826815Y-101267219D01*
X158826815Y-101267219D02*
X158588720Y-101267219D01*
X159588720Y-101267219D02*
X159588720Y-100267219D01*
X160064910Y-101267219D02*
X160064910Y-100267219D01*
X160064910Y-100267219D02*
X160636338Y-101267219D01*
X160636338Y-101267219D02*
X160636338Y-100267219D01*
X159422052Y-95667219D02*
X158850624Y-95667219D01*
X159136338Y-95667219D02*
X159136338Y-94667219D01*
X159136338Y-94667219D02*
X159041100Y-94810076D01*
X159041100Y-94810076D02*
X158945862Y-94905314D01*
X158945862Y-94905314D02*
X158850624Y-94952933D01*
X159803005Y-94762457D02*
X159850624Y-94714838D01*
X159850624Y-94714838D02*
X159945862Y-94667219D01*
X159945862Y-94667219D02*
X160183957Y-94667219D01*
X160183957Y-94667219D02*
X160279195Y-94714838D01*
X160279195Y-94714838D02*
X160326814Y-94762457D01*
X160326814Y-94762457D02*
X160374433Y-94857695D01*
X160374433Y-94857695D02*
X160374433Y-94952933D01*
X160374433Y-94952933D02*
X160326814Y-95095790D01*
X160326814Y-95095790D02*
X159755386Y-95667219D01*
X159755386Y-95667219D02*
X160374433Y-95667219D01*
X162493482Y-97567219D02*
X162826815Y-98567219D01*
X162826815Y-98567219D02*
X163160148Y-97567219D01*
X163493482Y-98567219D02*
X163493482Y-97567219D01*
X163493482Y-97567219D02*
X163731577Y-97567219D01*
X163731577Y-97567219D02*
X163874434Y-97614838D01*
X163874434Y-97614838D02*
X163969672Y-97710076D01*
X163969672Y-97710076D02*
X164017291Y-97805314D01*
X164017291Y-97805314D02*
X164064910Y-97995790D01*
X164064910Y-97995790D02*
X164064910Y-98138647D01*
X164064910Y-98138647D02*
X164017291Y-98329123D01*
X164017291Y-98329123D02*
X163969672Y-98424361D01*
X163969672Y-98424361D02*
X163874434Y-98519600D01*
X163874434Y-98519600D02*
X163731577Y-98567219D01*
X163731577Y-98567219D02*
X163493482Y-98567219D01*
X164493482Y-98567219D02*
X164493482Y-97567219D01*
X164493482Y-97567219D02*
X164731577Y-97567219D01*
X164731577Y-97567219D02*
X164874434Y-97614838D01*
X164874434Y-97614838D02*
X164969672Y-97710076D01*
X164969672Y-97710076D02*
X165017291Y-97805314D01*
X165017291Y-97805314D02*
X165064910Y-97995790D01*
X165064910Y-97995790D02*
X165064910Y-98138647D01*
X165064910Y-98138647D02*
X165017291Y-98329123D01*
X165017291Y-98329123D02*
X164969672Y-98424361D01*
X164969672Y-98424361D02*
X164874434Y-98519600D01*
X164874434Y-98519600D02*
X164731577Y-98567219D01*
X164731577Y-98567219D02*
X164493482Y-98567219D01*
X163660148Y-101171980D02*
X163612529Y-101219600D01*
X163612529Y-101219600D02*
X163469672Y-101267219D01*
X163469672Y-101267219D02*
X163374434Y-101267219D01*
X163374434Y-101267219D02*
X163231577Y-101219600D01*
X163231577Y-101219600D02*
X163136339Y-101124361D01*
X163136339Y-101124361D02*
X163088720Y-101029123D01*
X163088720Y-101029123D02*
X163041101Y-100838647D01*
X163041101Y-100838647D02*
X163041101Y-100695790D01*
X163041101Y-100695790D02*
X163088720Y-100505314D01*
X163088720Y-100505314D02*
X163136339Y-100410076D01*
X163136339Y-100410076D02*
X163231577Y-100314838D01*
X163231577Y-100314838D02*
X163374434Y-100267219D01*
X163374434Y-100267219D02*
X163469672Y-100267219D01*
X163469672Y-100267219D02*
X163612529Y-100314838D01*
X163612529Y-100314838D02*
X163660148Y-100362457D01*
X164041101Y-101219600D02*
X164183958Y-101267219D01*
X164183958Y-101267219D02*
X164422053Y-101267219D01*
X164422053Y-101267219D02*
X164517291Y-101219600D01*
X164517291Y-101219600D02*
X164564910Y-101171980D01*
X164564910Y-101171980D02*
X164612529Y-101076742D01*
X164612529Y-101076742D02*
X164612529Y-100981504D01*
X164612529Y-100981504D02*
X164564910Y-100886266D01*
X164564910Y-100886266D02*
X164517291Y-100838647D01*
X164517291Y-100838647D02*
X164422053Y-100791028D01*
X164422053Y-100791028D02*
X164231577Y-100743409D01*
X164231577Y-100743409D02*
X164136339Y-100695790D01*
X164136339Y-100695790D02*
X164088720Y-100648171D01*
X164088720Y-100648171D02*
X164041101Y-100552933D01*
X164041101Y-100552933D02*
X164041101Y-100457695D01*
X164041101Y-100457695D02*
X164088720Y-100362457D01*
X164088720Y-100362457D02*
X164136339Y-100314838D01*
X164136339Y-100314838D02*
X164231577Y-100267219D01*
X164231577Y-100267219D02*
X164469672Y-100267219D01*
X164469672Y-100267219D02*
X164612529Y-100314838D01*
X163636338Y-95667219D02*
X163064910Y-95667219D01*
X163350624Y-95667219D02*
X163350624Y-94667219D01*
X163350624Y-94667219D02*
X163255386Y-94810076D01*
X163255386Y-94810076D02*
X163160148Y-94905314D01*
X163160148Y-94905314D02*
X163064910Y-94952933D01*
X164588719Y-95667219D02*
X164017291Y-95667219D01*
X164303005Y-95667219D02*
X164303005Y-94667219D01*
X164303005Y-94667219D02*
X164207767Y-94810076D01*
X164207767Y-94810076D02*
X164112529Y-94905314D01*
X164112529Y-94905314D02*
X164017291Y-94952933D01*
X167460148Y-101171980D02*
X167412529Y-101219600D01*
X167412529Y-101219600D02*
X167269672Y-101267219D01*
X167269672Y-101267219D02*
X167174434Y-101267219D01*
X167174434Y-101267219D02*
X167031577Y-101219600D01*
X167031577Y-101219600D02*
X166936339Y-101124361D01*
X166936339Y-101124361D02*
X166888720Y-101029123D01*
X166888720Y-101029123D02*
X166841101Y-100838647D01*
X166841101Y-100838647D02*
X166841101Y-100695790D01*
X166841101Y-100695790D02*
X166888720Y-100505314D01*
X166888720Y-100505314D02*
X166936339Y-100410076D01*
X166936339Y-100410076D02*
X167031577Y-100314838D01*
X167031577Y-100314838D02*
X167174434Y-100267219D01*
X167174434Y-100267219D02*
X167269672Y-100267219D01*
X167269672Y-100267219D02*
X167412529Y-100314838D01*
X167412529Y-100314838D02*
X167460148Y-100362457D01*
X168364910Y-101267219D02*
X167888720Y-101267219D01*
X167888720Y-101267219D02*
X167888720Y-100267219D01*
X168698244Y-101267219D02*
X168698244Y-100267219D01*
X169269672Y-101267219D02*
X168841101Y-100695790D01*
X169269672Y-100267219D02*
X168698244Y-100838647D01*
X167864910Y-95667219D02*
X167293482Y-95667219D01*
X167579196Y-95667219D02*
X167579196Y-94667219D01*
X167579196Y-94667219D02*
X167483958Y-94810076D01*
X167483958Y-94810076D02*
X167388720Y-94905314D01*
X167388720Y-94905314D02*
X167293482Y-94952933D01*
X168483958Y-94667219D02*
X168579196Y-94667219D01*
X168579196Y-94667219D02*
X168674434Y-94714838D01*
X168674434Y-94714838D02*
X168722053Y-94762457D01*
X168722053Y-94762457D02*
X168769672Y-94857695D01*
X168769672Y-94857695D02*
X168817291Y-95048171D01*
X168817291Y-95048171D02*
X168817291Y-95286266D01*
X168817291Y-95286266D02*
X168769672Y-95476742D01*
X168769672Y-95476742D02*
X168722053Y-95571980D01*
X168722053Y-95571980D02*
X168674434Y-95619600D01*
X168674434Y-95619600D02*
X168579196Y-95667219D01*
X168579196Y-95667219D02*
X168483958Y-95667219D01*
X168483958Y-95667219D02*
X168388720Y-95619600D01*
X168388720Y-95619600D02*
X168341101Y-95571980D01*
X168341101Y-95571980D02*
X168293482Y-95476742D01*
X168293482Y-95476742D02*
X168245863Y-95286266D01*
X168245863Y-95286266D02*
X168245863Y-95048171D01*
X168245863Y-95048171D02*
X168293482Y-94857695D01*
X168293482Y-94857695D02*
X168341101Y-94762457D01*
X168341101Y-94762457D02*
X168388720Y-94714838D01*
X168388720Y-94714838D02*
X168483958Y-94667219D01*
X167198244Y-97567219D02*
X167531577Y-98567219D01*
X167531577Y-98567219D02*
X167864910Y-97567219D01*
X168388720Y-97567219D02*
X168579196Y-97567219D01*
X168579196Y-97567219D02*
X168674434Y-97614838D01*
X168674434Y-97614838D02*
X168769672Y-97710076D01*
X168769672Y-97710076D02*
X168817291Y-97900552D01*
X168817291Y-97900552D02*
X168817291Y-98233885D01*
X168817291Y-98233885D02*
X168769672Y-98424361D01*
X168769672Y-98424361D02*
X168674434Y-98519600D01*
X168674434Y-98519600D02*
X168579196Y-98567219D01*
X168579196Y-98567219D02*
X168388720Y-98567219D01*
X168388720Y-98567219D02*
X168293482Y-98519600D01*
X168293482Y-98519600D02*
X168198244Y-98424361D01*
X168198244Y-98424361D02*
X168150625Y-98233885D01*
X168150625Y-98233885D02*
X168150625Y-97900552D01*
X168150625Y-97900552D02*
X168198244Y-97710076D01*
X168198244Y-97710076D02*
X168293482Y-97614838D01*
X168293482Y-97614838D02*
X168388720Y-97567219D01*
X171041101Y-101219600D02*
X171183958Y-101267219D01*
X171183958Y-101267219D02*
X171422053Y-101267219D01*
X171422053Y-101267219D02*
X171517291Y-101219600D01*
X171517291Y-101219600D02*
X171564910Y-101171980D01*
X171564910Y-101171980D02*
X171612529Y-101076742D01*
X171612529Y-101076742D02*
X171612529Y-100981504D01*
X171612529Y-100981504D02*
X171564910Y-100886266D01*
X171564910Y-100886266D02*
X171517291Y-100838647D01*
X171517291Y-100838647D02*
X171422053Y-100791028D01*
X171422053Y-100791028D02*
X171231577Y-100743409D01*
X171231577Y-100743409D02*
X171136339Y-100695790D01*
X171136339Y-100695790D02*
X171088720Y-100648171D01*
X171088720Y-100648171D02*
X171041101Y-100552933D01*
X171041101Y-100552933D02*
X171041101Y-100457695D01*
X171041101Y-100457695D02*
X171088720Y-100362457D01*
X171088720Y-100362457D02*
X171136339Y-100314838D01*
X171136339Y-100314838D02*
X171231577Y-100267219D01*
X171231577Y-100267219D02*
X171469672Y-100267219D01*
X171469672Y-100267219D02*
X171612529Y-100314838D01*
X172041101Y-101267219D02*
X172041101Y-100267219D01*
X172041101Y-100267219D02*
X172279196Y-100267219D01*
X172279196Y-100267219D02*
X172422053Y-100314838D01*
X172422053Y-100314838D02*
X172517291Y-100410076D01*
X172517291Y-100410076D02*
X172564910Y-100505314D01*
X172564910Y-100505314D02*
X172612529Y-100695790D01*
X172612529Y-100695790D02*
X172612529Y-100838647D01*
X172612529Y-100838647D02*
X172564910Y-101029123D01*
X172564910Y-101029123D02*
X172517291Y-101124361D01*
X172517291Y-101124361D02*
X172422053Y-101219600D01*
X172422053Y-101219600D02*
X172279196Y-101267219D01*
X172279196Y-101267219D02*
X172041101Y-101267219D01*
X173231577Y-100267219D02*
X173422053Y-100267219D01*
X173422053Y-100267219D02*
X173517291Y-100314838D01*
X173517291Y-100314838D02*
X173612529Y-100410076D01*
X173612529Y-100410076D02*
X173660148Y-100600552D01*
X173660148Y-100600552D02*
X173660148Y-100933885D01*
X173660148Y-100933885D02*
X173612529Y-101124361D01*
X173612529Y-101124361D02*
X173517291Y-101219600D01*
X173517291Y-101219600D02*
X173422053Y-101267219D01*
X173422053Y-101267219D02*
X173231577Y-101267219D01*
X173231577Y-101267219D02*
X173136339Y-101219600D01*
X173136339Y-101219600D02*
X173041101Y-101124361D01*
X173041101Y-101124361D02*
X172993482Y-100933885D01*
X172993482Y-100933885D02*
X172993482Y-100600552D01*
X172993482Y-100600552D02*
X173041101Y-100410076D01*
X173041101Y-100410076D02*
X173136339Y-100314838D01*
X173136339Y-100314838D02*
X173231577Y-100267219D01*
X172183958Y-98567219D02*
X171850625Y-98091028D01*
X171612530Y-98567219D02*
X171612530Y-97567219D01*
X171612530Y-97567219D02*
X171993482Y-97567219D01*
X171993482Y-97567219D02*
X172088720Y-97614838D01*
X172088720Y-97614838D02*
X172136339Y-97662457D01*
X172136339Y-97662457D02*
X172183958Y-97757695D01*
X172183958Y-97757695D02*
X172183958Y-97900552D01*
X172183958Y-97900552D02*
X172136339Y-97995790D01*
X172136339Y-97995790D02*
X172088720Y-98043409D01*
X172088720Y-98043409D02*
X171993482Y-98091028D01*
X171993482Y-98091028D02*
X171612530Y-98091028D01*
X172564911Y-98519600D02*
X172707768Y-98567219D01*
X172707768Y-98567219D02*
X172945863Y-98567219D01*
X172945863Y-98567219D02*
X173041101Y-98519600D01*
X173041101Y-98519600D02*
X173088720Y-98471980D01*
X173088720Y-98471980D02*
X173136339Y-98376742D01*
X173136339Y-98376742D02*
X173136339Y-98281504D01*
X173136339Y-98281504D02*
X173088720Y-98186266D01*
X173088720Y-98186266D02*
X173041101Y-98138647D01*
X173041101Y-98138647D02*
X172945863Y-98091028D01*
X172945863Y-98091028D02*
X172755387Y-98043409D01*
X172755387Y-98043409D02*
X172660149Y-97995790D01*
X172660149Y-97995790D02*
X172612530Y-97948171D01*
X172612530Y-97948171D02*
X172564911Y-97852933D01*
X172564911Y-97852933D02*
X172564911Y-97757695D01*
X172564911Y-97757695D02*
X172612530Y-97662457D01*
X172612530Y-97662457D02*
X172660149Y-97614838D01*
X172660149Y-97614838D02*
X172755387Y-97567219D01*
X172755387Y-97567219D02*
X172993482Y-97567219D01*
X172993482Y-97567219D02*
X173136339Y-97614838D01*
X172160149Y-95667219D02*
X172350625Y-95667219D01*
X172350625Y-95667219D02*
X172445863Y-95619600D01*
X172445863Y-95619600D02*
X172493482Y-95571980D01*
X172493482Y-95571980D02*
X172588720Y-95429123D01*
X172588720Y-95429123D02*
X172636339Y-95238647D01*
X172636339Y-95238647D02*
X172636339Y-94857695D01*
X172636339Y-94857695D02*
X172588720Y-94762457D01*
X172588720Y-94762457D02*
X172541101Y-94714838D01*
X172541101Y-94714838D02*
X172445863Y-94667219D01*
X172445863Y-94667219D02*
X172255387Y-94667219D01*
X172255387Y-94667219D02*
X172160149Y-94714838D01*
X172160149Y-94714838D02*
X172112530Y-94762457D01*
X172112530Y-94762457D02*
X172064911Y-94857695D01*
X172064911Y-94857695D02*
X172064911Y-95095790D01*
X172064911Y-95095790D02*
X172112530Y-95191028D01*
X172112530Y-95191028D02*
X172160149Y-95238647D01*
X172160149Y-95238647D02*
X172255387Y-95286266D01*
X172255387Y-95286266D02*
X172445863Y-95286266D01*
X172445863Y-95286266D02*
X172541101Y-95238647D01*
X172541101Y-95238647D02*
X172588720Y-95191028D01*
X172588720Y-95191028D02*
X172636339Y-95095790D01*
X175964910Y-101267219D02*
X175488720Y-101267219D01*
X175488720Y-101267219D02*
X175488720Y-100267219D01*
X176298244Y-100743409D02*
X176631577Y-100743409D01*
X176774434Y-101267219D02*
X176298244Y-101267219D01*
X176298244Y-101267219D02*
X176298244Y-100267219D01*
X176298244Y-100267219D02*
X176774434Y-100267219D01*
X177203006Y-101267219D02*
X177203006Y-100267219D01*
X177203006Y-100267219D02*
X177441101Y-100267219D01*
X177441101Y-100267219D02*
X177583958Y-100314838D01*
X177583958Y-100314838D02*
X177679196Y-100410076D01*
X177679196Y-100410076D02*
X177726815Y-100505314D01*
X177726815Y-100505314D02*
X177774434Y-100695790D01*
X177774434Y-100695790D02*
X177774434Y-100838647D01*
X177774434Y-100838647D02*
X177726815Y-101029123D01*
X177726815Y-101029123D02*
X177679196Y-101124361D01*
X177679196Y-101124361D02*
X177583958Y-101219600D01*
X177583958Y-101219600D02*
X177441101Y-101267219D01*
X177441101Y-101267219D02*
X177203006Y-101267219D01*
X176345863Y-98567219D02*
X176012530Y-98091028D01*
X175774435Y-98567219D02*
X175774435Y-97567219D01*
X175774435Y-97567219D02*
X176155387Y-97567219D01*
X176155387Y-97567219D02*
X176250625Y-97614838D01*
X176250625Y-97614838D02*
X176298244Y-97662457D01*
X176298244Y-97662457D02*
X176345863Y-97757695D01*
X176345863Y-97757695D02*
X176345863Y-97900552D01*
X176345863Y-97900552D02*
X176298244Y-97995790D01*
X176298244Y-97995790D02*
X176250625Y-98043409D01*
X176250625Y-98043409D02*
X176155387Y-98091028D01*
X176155387Y-98091028D02*
X175774435Y-98091028D01*
X176679197Y-97567219D02*
X176917292Y-98567219D01*
X176917292Y-98567219D02*
X177107768Y-97852933D01*
X177107768Y-97852933D02*
X177298244Y-98567219D01*
X177298244Y-98567219D02*
X177536340Y-97567219D01*
X176512530Y-95095790D02*
X176417292Y-95048171D01*
X176417292Y-95048171D02*
X176369673Y-95000552D01*
X176369673Y-95000552D02*
X176322054Y-94905314D01*
X176322054Y-94905314D02*
X176322054Y-94857695D01*
X176322054Y-94857695D02*
X176369673Y-94762457D01*
X176369673Y-94762457D02*
X176417292Y-94714838D01*
X176417292Y-94714838D02*
X176512530Y-94667219D01*
X176512530Y-94667219D02*
X176703006Y-94667219D01*
X176703006Y-94667219D02*
X176798244Y-94714838D01*
X176798244Y-94714838D02*
X176845863Y-94762457D01*
X176845863Y-94762457D02*
X176893482Y-94857695D01*
X176893482Y-94857695D02*
X176893482Y-94905314D01*
X176893482Y-94905314D02*
X176845863Y-95000552D01*
X176845863Y-95000552D02*
X176798244Y-95048171D01*
X176798244Y-95048171D02*
X176703006Y-95095790D01*
X176703006Y-95095790D02*
X176512530Y-95095790D01*
X176512530Y-95095790D02*
X176417292Y-95143409D01*
X176417292Y-95143409D02*
X176369673Y-95191028D01*
X176369673Y-95191028D02*
X176322054Y-95286266D01*
X176322054Y-95286266D02*
X176322054Y-95476742D01*
X176322054Y-95476742D02*
X176369673Y-95571980D01*
X176369673Y-95571980D02*
X176417292Y-95619600D01*
X176417292Y-95619600D02*
X176512530Y-95667219D01*
X176512530Y-95667219D02*
X176703006Y-95667219D01*
X176703006Y-95667219D02*
X176798244Y-95619600D01*
X176798244Y-95619600D02*
X176845863Y-95571980D01*
X176845863Y-95571980D02*
X176893482Y-95476742D01*
X176893482Y-95476742D02*
X176893482Y-95286266D01*
X176893482Y-95286266D02*
X176845863Y-95191028D01*
X176845863Y-95191028D02*
X176798244Y-95143409D01*
X176798244Y-95143409D02*
X176703006Y-95095790D01*
X179441101Y-101219600D02*
X179583958Y-101267219D01*
X179583958Y-101267219D02*
X179822053Y-101267219D01*
X179822053Y-101267219D02*
X179917291Y-101219600D01*
X179917291Y-101219600D02*
X179964910Y-101171980D01*
X179964910Y-101171980D02*
X180012529Y-101076742D01*
X180012529Y-101076742D02*
X180012529Y-100981504D01*
X180012529Y-100981504D02*
X179964910Y-100886266D01*
X179964910Y-100886266D02*
X179917291Y-100838647D01*
X179917291Y-100838647D02*
X179822053Y-100791028D01*
X179822053Y-100791028D02*
X179631577Y-100743409D01*
X179631577Y-100743409D02*
X179536339Y-100695790D01*
X179536339Y-100695790D02*
X179488720Y-100648171D01*
X179488720Y-100648171D02*
X179441101Y-100552933D01*
X179441101Y-100552933D02*
X179441101Y-100457695D01*
X179441101Y-100457695D02*
X179488720Y-100362457D01*
X179488720Y-100362457D02*
X179536339Y-100314838D01*
X179536339Y-100314838D02*
X179631577Y-100267219D01*
X179631577Y-100267219D02*
X179869672Y-100267219D01*
X179869672Y-100267219D02*
X180012529Y-100314838D01*
X181012529Y-101171980D02*
X180964910Y-101219600D01*
X180964910Y-101219600D02*
X180822053Y-101267219D01*
X180822053Y-101267219D02*
X180726815Y-101267219D01*
X180726815Y-101267219D02*
X180583958Y-101219600D01*
X180583958Y-101219600D02*
X180488720Y-101124361D01*
X180488720Y-101124361D02*
X180441101Y-101029123D01*
X180441101Y-101029123D02*
X180393482Y-100838647D01*
X180393482Y-100838647D02*
X180393482Y-100695790D01*
X180393482Y-100695790D02*
X180441101Y-100505314D01*
X180441101Y-100505314D02*
X180488720Y-100410076D01*
X180488720Y-100410076D02*
X180583958Y-100314838D01*
X180583958Y-100314838D02*
X180726815Y-100267219D01*
X180726815Y-100267219D02*
X180822053Y-100267219D01*
X180822053Y-100267219D02*
X180964910Y-100314838D01*
X180964910Y-100314838D02*
X181012529Y-100362457D01*
X181441101Y-101267219D02*
X181441101Y-100267219D01*
X182012529Y-101267219D02*
X181583958Y-100695790D01*
X182012529Y-100267219D02*
X181441101Y-100838647D01*
X180393482Y-94667219D02*
X181060148Y-94667219D01*
X181060148Y-94667219D02*
X180631577Y-95667219D01*
X180512529Y-98043409D02*
X180845862Y-98043409D01*
X180988719Y-98567219D02*
X180512529Y-98567219D01*
X180512529Y-98567219D02*
X180512529Y-97567219D01*
X180512529Y-97567219D02*
X180988719Y-97567219D01*
X184041101Y-101219600D02*
X184183958Y-101267219D01*
X184183958Y-101267219D02*
X184422053Y-101267219D01*
X184422053Y-101267219D02*
X184517291Y-101219600D01*
X184517291Y-101219600D02*
X184564910Y-101171980D01*
X184564910Y-101171980D02*
X184612529Y-101076742D01*
X184612529Y-101076742D02*
X184612529Y-100981504D01*
X184612529Y-100981504D02*
X184564910Y-100886266D01*
X184564910Y-100886266D02*
X184517291Y-100838647D01*
X184517291Y-100838647D02*
X184422053Y-100791028D01*
X184422053Y-100791028D02*
X184231577Y-100743409D01*
X184231577Y-100743409D02*
X184136339Y-100695790D01*
X184136339Y-100695790D02*
X184088720Y-100648171D01*
X184088720Y-100648171D02*
X184041101Y-100552933D01*
X184041101Y-100552933D02*
X184041101Y-100457695D01*
X184041101Y-100457695D02*
X184088720Y-100362457D01*
X184088720Y-100362457D02*
X184136339Y-100314838D01*
X184136339Y-100314838D02*
X184231577Y-100267219D01*
X184231577Y-100267219D02*
X184469672Y-100267219D01*
X184469672Y-100267219D02*
X184612529Y-100314838D01*
X185041101Y-101267219D02*
X185041101Y-100267219D01*
X185041101Y-100267219D02*
X185279196Y-100267219D01*
X185279196Y-100267219D02*
X185422053Y-100314838D01*
X185422053Y-100314838D02*
X185517291Y-100410076D01*
X185517291Y-100410076D02*
X185564910Y-100505314D01*
X185564910Y-100505314D02*
X185612529Y-100695790D01*
X185612529Y-100695790D02*
X185612529Y-100838647D01*
X185612529Y-100838647D02*
X185564910Y-101029123D01*
X185564910Y-101029123D02*
X185517291Y-101124361D01*
X185517291Y-101124361D02*
X185422053Y-101219600D01*
X185422053Y-101219600D02*
X185279196Y-101267219D01*
X185279196Y-101267219D02*
X185041101Y-101267219D01*
X186041101Y-101267219D02*
X186041101Y-100267219D01*
X184326815Y-98567219D02*
X184326815Y-97567219D01*
X184326815Y-97567219D02*
X184564910Y-97567219D01*
X184564910Y-97567219D02*
X184707767Y-97614838D01*
X184707767Y-97614838D02*
X184803005Y-97710076D01*
X184803005Y-97710076D02*
X184850624Y-97805314D01*
X184850624Y-97805314D02*
X184898243Y-97995790D01*
X184898243Y-97995790D02*
X184898243Y-98138647D01*
X184898243Y-98138647D02*
X184850624Y-98329123D01*
X184850624Y-98329123D02*
X184803005Y-98424361D01*
X184803005Y-98424361D02*
X184707767Y-98519600D01*
X184707767Y-98519600D02*
X184564910Y-98567219D01*
X184564910Y-98567219D02*
X184326815Y-98567219D01*
X185755386Y-97900552D02*
X185755386Y-98567219D01*
X185517291Y-97519600D02*
X185279196Y-98233885D01*
X185279196Y-98233885D02*
X185898243Y-98233885D01*
X185255386Y-94667219D02*
X185064910Y-94667219D01*
X185064910Y-94667219D02*
X184969672Y-94714838D01*
X184969672Y-94714838D02*
X184922053Y-94762457D01*
X184922053Y-94762457D02*
X184826815Y-94905314D01*
X184826815Y-94905314D02*
X184779196Y-95095790D01*
X184779196Y-95095790D02*
X184779196Y-95476742D01*
X184779196Y-95476742D02*
X184826815Y-95571980D01*
X184826815Y-95571980D02*
X184874434Y-95619600D01*
X184874434Y-95619600D02*
X184969672Y-95667219D01*
X184969672Y-95667219D02*
X185160148Y-95667219D01*
X185160148Y-95667219D02*
X185255386Y-95619600D01*
X185255386Y-95619600D02*
X185303005Y-95571980D01*
X185303005Y-95571980D02*
X185350624Y-95476742D01*
X185350624Y-95476742D02*
X185350624Y-95238647D01*
X185350624Y-95238647D02*
X185303005Y-95143409D01*
X185303005Y-95143409D02*
X185255386Y-95095790D01*
X185255386Y-95095790D02*
X185160148Y-95048171D01*
X185160148Y-95048171D02*
X184969672Y-95048171D01*
X184969672Y-95048171D02*
X184874434Y-95095790D01*
X184874434Y-95095790D02*
X184826815Y-95143409D01*
X184826815Y-95143409D02*
X184779196Y-95238647D01*
X188388720Y-101267219D02*
X188388720Y-100267219D01*
X188388720Y-100267219D02*
X188626815Y-100267219D01*
X188626815Y-100267219D02*
X188769672Y-100314838D01*
X188769672Y-100314838D02*
X188864910Y-100410076D01*
X188864910Y-100410076D02*
X188912529Y-100505314D01*
X188912529Y-100505314D02*
X188960148Y-100695790D01*
X188960148Y-100695790D02*
X188960148Y-100838647D01*
X188960148Y-100838647D02*
X188912529Y-101029123D01*
X188912529Y-101029123D02*
X188864910Y-101124361D01*
X188864910Y-101124361D02*
X188769672Y-101219600D01*
X188769672Y-101219600D02*
X188626815Y-101267219D01*
X188626815Y-101267219D02*
X188388720Y-101267219D01*
X189960148Y-101171980D02*
X189912529Y-101219600D01*
X189912529Y-101219600D02*
X189769672Y-101267219D01*
X189769672Y-101267219D02*
X189674434Y-101267219D01*
X189674434Y-101267219D02*
X189531577Y-101219600D01*
X189531577Y-101219600D02*
X189436339Y-101124361D01*
X189436339Y-101124361D02*
X189388720Y-101029123D01*
X189388720Y-101029123D02*
X189341101Y-100838647D01*
X189341101Y-100838647D02*
X189341101Y-100695790D01*
X189341101Y-100695790D02*
X189388720Y-100505314D01*
X189388720Y-100505314D02*
X189436339Y-100410076D01*
X189436339Y-100410076D02*
X189531577Y-100314838D01*
X189531577Y-100314838D02*
X189674434Y-100267219D01*
X189674434Y-100267219D02*
X189769672Y-100267219D01*
X189769672Y-100267219D02*
X189912529Y-100314838D01*
X189912529Y-100314838D02*
X189960148Y-100362457D01*
X188412530Y-98567219D02*
X188412530Y-97567219D01*
X188412530Y-97567219D02*
X188650625Y-97567219D01*
X188650625Y-97567219D02*
X188793482Y-97614838D01*
X188793482Y-97614838D02*
X188888720Y-97710076D01*
X188888720Y-97710076D02*
X188936339Y-97805314D01*
X188936339Y-97805314D02*
X188983958Y-97995790D01*
X188983958Y-97995790D02*
X188983958Y-98138647D01*
X188983958Y-98138647D02*
X188936339Y-98329123D01*
X188936339Y-98329123D02*
X188888720Y-98424361D01*
X188888720Y-98424361D02*
X188793482Y-98519600D01*
X188793482Y-98519600D02*
X188650625Y-98567219D01*
X188650625Y-98567219D02*
X188412530Y-98567219D01*
X189888720Y-97567219D02*
X189412530Y-97567219D01*
X189412530Y-97567219D02*
X189364911Y-98043409D01*
X189364911Y-98043409D02*
X189412530Y-97995790D01*
X189412530Y-97995790D02*
X189507768Y-97948171D01*
X189507768Y-97948171D02*
X189745863Y-97948171D01*
X189745863Y-97948171D02*
X189841101Y-97995790D01*
X189841101Y-97995790D02*
X189888720Y-98043409D01*
X189888720Y-98043409D02*
X189936339Y-98138647D01*
X189936339Y-98138647D02*
X189936339Y-98376742D01*
X189936339Y-98376742D02*
X189888720Y-98471980D01*
X189888720Y-98471980D02*
X189841101Y-98519600D01*
X189841101Y-98519600D02*
X189745863Y-98567219D01*
X189745863Y-98567219D02*
X189507768Y-98567219D01*
X189507768Y-98567219D02*
X189412530Y-98519600D01*
X189412530Y-98519600D02*
X189364911Y-98471980D01*
X189388720Y-94667219D02*
X188912530Y-94667219D01*
X188912530Y-94667219D02*
X188864911Y-95143409D01*
X188864911Y-95143409D02*
X188912530Y-95095790D01*
X188912530Y-95095790D02*
X189007768Y-95048171D01*
X189007768Y-95048171D02*
X189245863Y-95048171D01*
X189245863Y-95048171D02*
X189341101Y-95095790D01*
X189341101Y-95095790D02*
X189388720Y-95143409D01*
X189388720Y-95143409D02*
X189436339Y-95238647D01*
X189436339Y-95238647D02*
X189436339Y-95476742D01*
X189436339Y-95476742D02*
X189388720Y-95571980D01*
X189388720Y-95571980D02*
X189341101Y-95619600D01*
X189341101Y-95619600D02*
X189245863Y-95667219D01*
X189245863Y-95667219D02*
X189007768Y-95667219D01*
X189007768Y-95667219D02*
X188912530Y-95619600D01*
X188912530Y-95619600D02*
X188864911Y-95571980D01*
X193060148Y-101267219D02*
X192726815Y-100791028D01*
X192488720Y-101267219D02*
X192488720Y-100267219D01*
X192488720Y-100267219D02*
X192869672Y-100267219D01*
X192869672Y-100267219D02*
X192964910Y-100314838D01*
X192964910Y-100314838D02*
X193012529Y-100362457D01*
X193012529Y-100362457D02*
X193060148Y-100457695D01*
X193060148Y-100457695D02*
X193060148Y-100600552D01*
X193060148Y-100600552D02*
X193012529Y-100695790D01*
X193012529Y-100695790D02*
X192964910Y-100743409D01*
X192964910Y-100743409D02*
X192869672Y-100791028D01*
X192869672Y-100791028D02*
X192488720Y-100791028D01*
X193441101Y-101219600D02*
X193583958Y-101267219D01*
X193583958Y-101267219D02*
X193822053Y-101267219D01*
X193822053Y-101267219D02*
X193917291Y-101219600D01*
X193917291Y-101219600D02*
X193964910Y-101171980D01*
X193964910Y-101171980D02*
X194012529Y-101076742D01*
X194012529Y-101076742D02*
X194012529Y-100981504D01*
X194012529Y-100981504D02*
X193964910Y-100886266D01*
X193964910Y-100886266D02*
X193917291Y-100838647D01*
X193917291Y-100838647D02*
X193822053Y-100791028D01*
X193822053Y-100791028D02*
X193631577Y-100743409D01*
X193631577Y-100743409D02*
X193536339Y-100695790D01*
X193536339Y-100695790D02*
X193488720Y-100648171D01*
X193488720Y-100648171D02*
X193441101Y-100552933D01*
X193441101Y-100552933D02*
X193441101Y-100457695D01*
X193441101Y-100457695D02*
X193488720Y-100362457D01*
X193488720Y-100362457D02*
X193536339Y-100314838D01*
X193536339Y-100314838D02*
X193631577Y-100267219D01*
X193631577Y-100267219D02*
X193869672Y-100267219D01*
X193869672Y-100267219D02*
X194012529Y-100314838D01*
X194298244Y-100267219D02*
X194869672Y-100267219D01*
X194583958Y-101267219D02*
X194583958Y-100267219D01*
X192869673Y-98567219D02*
X192869673Y-97567219D01*
X192869673Y-97567219D02*
X193107768Y-97567219D01*
X193107768Y-97567219D02*
X193250625Y-97614838D01*
X193250625Y-97614838D02*
X193345863Y-97710076D01*
X193345863Y-97710076D02*
X193393482Y-97805314D01*
X193393482Y-97805314D02*
X193441101Y-97995790D01*
X193441101Y-97995790D02*
X193441101Y-98138647D01*
X193441101Y-98138647D02*
X193393482Y-98329123D01*
X193393482Y-98329123D02*
X193345863Y-98424361D01*
X193345863Y-98424361D02*
X193250625Y-98519600D01*
X193250625Y-98519600D02*
X193107768Y-98567219D01*
X193107768Y-98567219D02*
X192869673Y-98567219D01*
X194298244Y-97567219D02*
X194107768Y-97567219D01*
X194107768Y-97567219D02*
X194012530Y-97614838D01*
X194012530Y-97614838D02*
X193964911Y-97662457D01*
X193964911Y-97662457D02*
X193869673Y-97805314D01*
X193869673Y-97805314D02*
X193822054Y-97995790D01*
X193822054Y-97995790D02*
X193822054Y-98376742D01*
X193822054Y-98376742D02*
X193869673Y-98471980D01*
X193869673Y-98471980D02*
X193917292Y-98519600D01*
X193917292Y-98519600D02*
X194012530Y-98567219D01*
X194012530Y-98567219D02*
X194203006Y-98567219D01*
X194203006Y-98567219D02*
X194298244Y-98519600D01*
X194298244Y-98519600D02*
X194345863Y-98471980D01*
X194345863Y-98471980D02*
X194393482Y-98376742D01*
X194393482Y-98376742D02*
X194393482Y-98138647D01*
X194393482Y-98138647D02*
X194345863Y-98043409D01*
X194345863Y-98043409D02*
X194298244Y-97995790D01*
X194298244Y-97995790D02*
X194203006Y-97948171D01*
X194203006Y-97948171D02*
X194012530Y-97948171D01*
X194012530Y-97948171D02*
X193917292Y-97995790D01*
X193917292Y-97995790D02*
X193869673Y-98043409D01*
X193869673Y-98043409D02*
X193822054Y-98138647D01*
X193798244Y-95000552D02*
X193798244Y-95667219D01*
X193560149Y-94619600D02*
X193322054Y-95333885D01*
X193322054Y-95333885D02*
X193941101Y-95333885D01*
X196988720Y-98567219D02*
X196988720Y-97567219D01*
X196988720Y-97567219D02*
X197226815Y-97567219D01*
X197226815Y-97567219D02*
X197369672Y-97614838D01*
X197369672Y-97614838D02*
X197464910Y-97710076D01*
X197464910Y-97710076D02*
X197512529Y-97805314D01*
X197512529Y-97805314D02*
X197560148Y-97995790D01*
X197560148Y-97995790D02*
X197560148Y-98138647D01*
X197560148Y-98138647D02*
X197512529Y-98329123D01*
X197512529Y-98329123D02*
X197464910Y-98424361D01*
X197464910Y-98424361D02*
X197369672Y-98519600D01*
X197369672Y-98519600D02*
X197226815Y-98567219D01*
X197226815Y-98567219D02*
X196988720Y-98567219D01*
X197893482Y-97567219D02*
X198560148Y-97567219D01*
X198560148Y-97567219D02*
X198131577Y-98567219D01*
X197560148Y-101171980D02*
X197512529Y-101219600D01*
X197512529Y-101219600D02*
X197369672Y-101267219D01*
X197369672Y-101267219D02*
X197274434Y-101267219D01*
X197274434Y-101267219D02*
X197131577Y-101219600D01*
X197131577Y-101219600D02*
X197036339Y-101124361D01*
X197036339Y-101124361D02*
X196988720Y-101029123D01*
X196988720Y-101029123D02*
X196941101Y-100838647D01*
X196941101Y-100838647D02*
X196941101Y-100695790D01*
X196941101Y-100695790D02*
X196988720Y-100505314D01*
X196988720Y-100505314D02*
X197036339Y-100410076D01*
X197036339Y-100410076D02*
X197131577Y-100314838D01*
X197131577Y-100314838D02*
X197274434Y-100267219D01*
X197274434Y-100267219D02*
X197369672Y-100267219D01*
X197369672Y-100267219D02*
X197512529Y-100314838D01*
X197512529Y-100314838D02*
X197560148Y-100362457D01*
X197941101Y-101219600D02*
X198083958Y-101267219D01*
X198083958Y-101267219D02*
X198322053Y-101267219D01*
X198322053Y-101267219D02*
X198417291Y-101219600D01*
X198417291Y-101219600D02*
X198464910Y-101171980D01*
X198464910Y-101171980D02*
X198512529Y-101076742D01*
X198512529Y-101076742D02*
X198512529Y-100981504D01*
X198512529Y-100981504D02*
X198464910Y-100886266D01*
X198464910Y-100886266D02*
X198417291Y-100838647D01*
X198417291Y-100838647D02*
X198322053Y-100791028D01*
X198322053Y-100791028D02*
X198131577Y-100743409D01*
X198131577Y-100743409D02*
X198036339Y-100695790D01*
X198036339Y-100695790D02*
X197988720Y-100648171D01*
X197988720Y-100648171D02*
X197941101Y-100552933D01*
X197941101Y-100552933D02*
X197941101Y-100457695D01*
X197941101Y-100457695D02*
X197988720Y-100362457D01*
X197988720Y-100362457D02*
X198036339Y-100314838D01*
X198036339Y-100314838D02*
X198131577Y-100267219D01*
X198131577Y-100267219D02*
X198369672Y-100267219D01*
X198369672Y-100267219D02*
X198512529Y-100314838D01*
X197393482Y-94667219D02*
X198012529Y-94667219D01*
X198012529Y-94667219D02*
X197679196Y-95048171D01*
X197679196Y-95048171D02*
X197822053Y-95048171D01*
X197822053Y-95048171D02*
X197917291Y-95095790D01*
X197917291Y-95095790D02*
X197964910Y-95143409D01*
X197964910Y-95143409D02*
X198012529Y-95238647D01*
X198012529Y-95238647D02*
X198012529Y-95476742D01*
X198012529Y-95476742D02*
X197964910Y-95571980D01*
X197964910Y-95571980D02*
X197917291Y-95619600D01*
X197917291Y-95619600D02*
X197822053Y-95667219D01*
X197822053Y-95667219D02*
X197536339Y-95667219D01*
X197536339Y-95667219D02*
X197441101Y-95619600D01*
X197441101Y-95619600D02*
X197393482Y-95571980D01*
X201312529Y-100314838D02*
X201217291Y-100267219D01*
X201217291Y-100267219D02*
X201074434Y-100267219D01*
X201074434Y-100267219D02*
X200931577Y-100314838D01*
X200931577Y-100314838D02*
X200836339Y-100410076D01*
X200836339Y-100410076D02*
X200788720Y-100505314D01*
X200788720Y-100505314D02*
X200741101Y-100695790D01*
X200741101Y-100695790D02*
X200741101Y-100838647D01*
X200741101Y-100838647D02*
X200788720Y-101029123D01*
X200788720Y-101029123D02*
X200836339Y-101124361D01*
X200836339Y-101124361D02*
X200931577Y-101219600D01*
X200931577Y-101219600D02*
X201074434Y-101267219D01*
X201074434Y-101267219D02*
X201169672Y-101267219D01*
X201169672Y-101267219D02*
X201312529Y-101219600D01*
X201312529Y-101219600D02*
X201360148Y-101171980D01*
X201360148Y-101171980D02*
X201360148Y-100838647D01*
X201360148Y-100838647D02*
X201169672Y-100838647D01*
X201788720Y-101267219D02*
X201788720Y-100267219D01*
X201788720Y-100267219D02*
X202360148Y-101267219D01*
X202360148Y-101267219D02*
X202360148Y-100267219D01*
X202836339Y-101267219D02*
X202836339Y-100267219D01*
X202836339Y-100267219D02*
X203074434Y-100267219D01*
X203074434Y-100267219D02*
X203217291Y-100314838D01*
X203217291Y-100314838D02*
X203312529Y-100410076D01*
X203312529Y-100410076D02*
X203360148Y-100505314D01*
X203360148Y-100505314D02*
X203407767Y-100695790D01*
X203407767Y-100695790D02*
X203407767Y-100838647D01*
X203407767Y-100838647D02*
X203360148Y-101029123D01*
X203360148Y-101029123D02*
X203312529Y-101124361D01*
X203312529Y-101124361D02*
X203217291Y-101219600D01*
X203217291Y-101219600D02*
X203074434Y-101267219D01*
X203074434Y-101267219D02*
X202836339Y-101267219D01*
X201788720Y-94762457D02*
X201836339Y-94714838D01*
X201836339Y-94714838D02*
X201931577Y-94667219D01*
X201931577Y-94667219D02*
X202169672Y-94667219D01*
X202169672Y-94667219D02*
X202264910Y-94714838D01*
X202264910Y-94714838D02*
X202312529Y-94762457D01*
X202312529Y-94762457D02*
X202360148Y-94857695D01*
X202360148Y-94857695D02*
X202360148Y-94952933D01*
X202360148Y-94952933D02*
X202312529Y-95095790D01*
X202312529Y-95095790D02*
X201741101Y-95667219D01*
X201741101Y-95667219D02*
X202360148Y-95667219D01*
X201836339Y-98281504D02*
X202312529Y-98281504D01*
X201741101Y-98567219D02*
X202074434Y-97567219D01*
X202074434Y-97567219D02*
X202407767Y-98567219D01*
X204945863Y-100267219D02*
X205279196Y-101267219D01*
X205279196Y-101267219D02*
X205612529Y-100267219D01*
X206517291Y-101171980D02*
X206469672Y-101219600D01*
X206469672Y-101219600D02*
X206326815Y-101267219D01*
X206326815Y-101267219D02*
X206231577Y-101267219D01*
X206231577Y-101267219D02*
X206088720Y-101219600D01*
X206088720Y-101219600D02*
X205993482Y-101124361D01*
X205993482Y-101124361D02*
X205945863Y-101029123D01*
X205945863Y-101029123D02*
X205898244Y-100838647D01*
X205898244Y-100838647D02*
X205898244Y-100695790D01*
X205898244Y-100695790D02*
X205945863Y-100505314D01*
X205945863Y-100505314D02*
X205993482Y-100410076D01*
X205993482Y-100410076D02*
X206088720Y-100314838D01*
X206088720Y-100314838D02*
X206231577Y-100267219D01*
X206231577Y-100267219D02*
X206326815Y-100267219D01*
X206326815Y-100267219D02*
X206469672Y-100314838D01*
X206469672Y-100314838D02*
X206517291Y-100362457D01*
X207517291Y-101171980D02*
X207469672Y-101219600D01*
X207469672Y-101219600D02*
X207326815Y-101267219D01*
X207326815Y-101267219D02*
X207231577Y-101267219D01*
X207231577Y-101267219D02*
X207088720Y-101219600D01*
X207088720Y-101219600D02*
X206993482Y-101124361D01*
X206993482Y-101124361D02*
X206945863Y-101029123D01*
X206945863Y-101029123D02*
X206898244Y-100838647D01*
X206898244Y-100838647D02*
X206898244Y-100695790D01*
X206898244Y-100695790D02*
X206945863Y-100505314D01*
X206945863Y-100505314D02*
X206993482Y-100410076D01*
X206993482Y-100410076D02*
X207088720Y-100314838D01*
X207088720Y-100314838D02*
X207231577Y-100267219D01*
X207231577Y-100267219D02*
X207326815Y-100267219D01*
X207326815Y-100267219D02*
X207469672Y-100314838D01*
X207469672Y-100314838D02*
X207517291Y-100362457D01*
X206017291Y-98567219D02*
X206017291Y-97567219D01*
X206588719Y-98567219D02*
X206160148Y-97995790D01*
X206588719Y-97567219D02*
X206017291Y-98138647D01*
X206564910Y-95667219D02*
X205993482Y-95667219D01*
X206279196Y-95667219D02*
X206279196Y-94667219D01*
X206279196Y-94667219D02*
X206183958Y-94810076D01*
X206183958Y-94810076D02*
X206088720Y-94905314D01*
X206088720Y-94905314D02*
X205993482Y-94952933D01*
D12*
X91010225Y-127141728D02*
X91867368Y-127141728D01*
X91438796Y-128641728D02*
X91438796Y-127141728D01*
X92867367Y-127856014D02*
X92367367Y-127856014D01*
X92367367Y-128641728D02*
X92367367Y-127141728D01*
X92367367Y-127141728D02*
X93081653Y-127141728D01*
X93438796Y-127141728D02*
X94295939Y-127141728D01*
X93867367Y-128641728D02*
X93867367Y-127141728D01*
X94795938Y-128070300D02*
X95938796Y-128070300D01*
X96438796Y-127141728D02*
X97295939Y-127141728D01*
X96867367Y-128641728D02*
X96867367Y-127141728D01*
X98010224Y-128641728D02*
X97867367Y-128570300D01*
X97867367Y-128570300D02*
X97795938Y-128498871D01*
X97795938Y-128498871D02*
X97724510Y-128356014D01*
X97724510Y-128356014D02*
X97724510Y-127927442D01*
X97724510Y-127927442D02*
X97795938Y-127784585D01*
X97795938Y-127784585D02*
X97867367Y-127713157D01*
X97867367Y-127713157D02*
X98010224Y-127641728D01*
X98010224Y-127641728D02*
X98224510Y-127641728D01*
X98224510Y-127641728D02*
X98367367Y-127713157D01*
X98367367Y-127713157D02*
X98438796Y-127784585D01*
X98438796Y-127784585D02*
X98510224Y-127927442D01*
X98510224Y-127927442D02*
X98510224Y-128356014D01*
X98510224Y-128356014D02*
X98438796Y-128498871D01*
X98438796Y-128498871D02*
X98367367Y-128570300D01*
X98367367Y-128570300D02*
X98224510Y-128641728D01*
X98224510Y-128641728D02*
X98010224Y-128641728D01*
X99795939Y-127641728D02*
X99795939Y-128641728D01*
X99153081Y-127641728D02*
X99153081Y-128427442D01*
X99153081Y-128427442D02*
X99224510Y-128570300D01*
X99224510Y-128570300D02*
X99367367Y-128641728D01*
X99367367Y-128641728D02*
X99581653Y-128641728D01*
X99581653Y-128641728D02*
X99724510Y-128570300D01*
X99724510Y-128570300D02*
X99795939Y-128498871D01*
X101153082Y-128570300D02*
X101010224Y-128641728D01*
X101010224Y-128641728D02*
X100724510Y-128641728D01*
X100724510Y-128641728D02*
X100581653Y-128570300D01*
X100581653Y-128570300D02*
X100510224Y-128498871D01*
X100510224Y-128498871D02*
X100438796Y-128356014D01*
X100438796Y-128356014D02*
X100438796Y-127927442D01*
X100438796Y-127927442D02*
X100510224Y-127784585D01*
X100510224Y-127784585D02*
X100581653Y-127713157D01*
X100581653Y-127713157D02*
X100724510Y-127641728D01*
X100724510Y-127641728D02*
X101010224Y-127641728D01*
X101010224Y-127641728D02*
X101153082Y-127713157D01*
X101795938Y-128641728D02*
X101795938Y-127141728D01*
X102438796Y-128641728D02*
X102438796Y-127856014D01*
X102438796Y-127856014D02*
X102367367Y-127713157D01*
X102367367Y-127713157D02*
X102224510Y-127641728D01*
X102224510Y-127641728D02*
X102010224Y-127641728D01*
X102010224Y-127641728D02*
X101867367Y-127713157D01*
X101867367Y-127713157D02*
X101795938Y-127784585D01*
X95510225Y-69141728D02*
X95795939Y-69141728D01*
X95795939Y-69141728D02*
X95938796Y-69213157D01*
X95938796Y-69213157D02*
X96081653Y-69356014D01*
X96081653Y-69356014D02*
X96153082Y-69641728D01*
X96153082Y-69641728D02*
X96153082Y-70141728D01*
X96153082Y-70141728D02*
X96081653Y-70427442D01*
X96081653Y-70427442D02*
X95938796Y-70570300D01*
X95938796Y-70570300D02*
X95795939Y-70641728D01*
X95795939Y-70641728D02*
X95510225Y-70641728D01*
X95510225Y-70641728D02*
X95367368Y-70570300D01*
X95367368Y-70570300D02*
X95224510Y-70427442D01*
X95224510Y-70427442D02*
X95153082Y-70141728D01*
X95153082Y-70141728D02*
X95153082Y-69641728D01*
X95153082Y-69641728D02*
X95224510Y-69356014D01*
X95224510Y-69356014D02*
X95367368Y-69213157D01*
X95367368Y-69213157D02*
X95510225Y-69141728D01*
X96795939Y-69641728D02*
X96795939Y-70641728D01*
X96795939Y-69784585D02*
X96867368Y-69713157D01*
X96867368Y-69713157D02*
X97010225Y-69641728D01*
X97010225Y-69641728D02*
X97224511Y-69641728D01*
X97224511Y-69641728D02*
X97367368Y-69713157D01*
X97367368Y-69713157D02*
X97438797Y-69856014D01*
X97438797Y-69856014D02*
X97438797Y-70641728D01*
X98153082Y-70641728D02*
X98153082Y-69141728D01*
X98153082Y-69713157D02*
X98295940Y-69641728D01*
X98295940Y-69641728D02*
X98581654Y-69641728D01*
X98581654Y-69641728D02*
X98724511Y-69713157D01*
X98724511Y-69713157D02*
X98795940Y-69784585D01*
X98795940Y-69784585D02*
X98867368Y-69927442D01*
X98867368Y-69927442D02*
X98867368Y-70356014D01*
X98867368Y-70356014D02*
X98795940Y-70498871D01*
X98795940Y-70498871D02*
X98724511Y-70570300D01*
X98724511Y-70570300D02*
X98581654Y-70641728D01*
X98581654Y-70641728D02*
X98295940Y-70641728D01*
X98295940Y-70641728D02*
X98153082Y-70570300D01*
X99724511Y-70641728D02*
X99581654Y-70570300D01*
X99581654Y-70570300D02*
X99510225Y-70498871D01*
X99510225Y-70498871D02*
X99438797Y-70356014D01*
X99438797Y-70356014D02*
X99438797Y-69927442D01*
X99438797Y-69927442D02*
X99510225Y-69784585D01*
X99510225Y-69784585D02*
X99581654Y-69713157D01*
X99581654Y-69713157D02*
X99724511Y-69641728D01*
X99724511Y-69641728D02*
X99938797Y-69641728D01*
X99938797Y-69641728D02*
X100081654Y-69713157D01*
X100081654Y-69713157D02*
X100153083Y-69784585D01*
X100153083Y-69784585D02*
X100224511Y-69927442D01*
X100224511Y-69927442D02*
X100224511Y-70356014D01*
X100224511Y-70356014D02*
X100153083Y-70498871D01*
X100153083Y-70498871D02*
X100081654Y-70570300D01*
X100081654Y-70570300D02*
X99938797Y-70641728D01*
X99938797Y-70641728D02*
X99724511Y-70641728D01*
X101510226Y-70641728D02*
X101510226Y-69856014D01*
X101510226Y-69856014D02*
X101438797Y-69713157D01*
X101438797Y-69713157D02*
X101295940Y-69641728D01*
X101295940Y-69641728D02*
X101010226Y-69641728D01*
X101010226Y-69641728D02*
X100867368Y-69713157D01*
X101510226Y-70570300D02*
X101367368Y-70641728D01*
X101367368Y-70641728D02*
X101010226Y-70641728D01*
X101010226Y-70641728D02*
X100867368Y-70570300D01*
X100867368Y-70570300D02*
X100795940Y-70427442D01*
X100795940Y-70427442D02*
X100795940Y-70284585D01*
X100795940Y-70284585D02*
X100867368Y-70141728D01*
X100867368Y-70141728D02*
X101010226Y-70070300D01*
X101010226Y-70070300D02*
X101367368Y-70070300D01*
X101367368Y-70070300D02*
X101510226Y-69998871D01*
X102224511Y-70641728D02*
X102224511Y-69641728D01*
X102224511Y-69927442D02*
X102295940Y-69784585D01*
X102295940Y-69784585D02*
X102367369Y-69713157D01*
X102367369Y-69713157D02*
X102510226Y-69641728D01*
X102510226Y-69641728D02*
X102653083Y-69641728D01*
X103795940Y-70641728D02*
X103795940Y-69141728D01*
X103795940Y-70570300D02*
X103653082Y-70641728D01*
X103653082Y-70641728D02*
X103367368Y-70641728D01*
X103367368Y-70641728D02*
X103224511Y-70570300D01*
X103224511Y-70570300D02*
X103153082Y-70498871D01*
X103153082Y-70498871D02*
X103081654Y-70356014D01*
X103081654Y-70356014D02*
X103081654Y-69927442D01*
X103081654Y-69927442D02*
X103153082Y-69784585D01*
X103153082Y-69784585D02*
X103224511Y-69713157D01*
X103224511Y-69713157D02*
X103367368Y-69641728D01*
X103367368Y-69641728D02*
X103653082Y-69641728D01*
X103653082Y-69641728D02*
X103795940Y-69713157D01*
X102510225Y-112641728D02*
X103010225Y-114141728D01*
X103010225Y-114141728D02*
X103510225Y-112641728D01*
X104295939Y-112641728D02*
X104581653Y-112641728D01*
X104581653Y-112641728D02*
X104724510Y-112713157D01*
X104724510Y-112713157D02*
X104867367Y-112856014D01*
X104867367Y-112856014D02*
X104938796Y-113141728D01*
X104938796Y-113141728D02*
X104938796Y-113641728D01*
X104938796Y-113641728D02*
X104867367Y-113927442D01*
X104867367Y-113927442D02*
X104724510Y-114070300D01*
X104724510Y-114070300D02*
X104581653Y-114141728D01*
X104581653Y-114141728D02*
X104295939Y-114141728D01*
X104295939Y-114141728D02*
X104153082Y-114070300D01*
X104153082Y-114070300D02*
X104010224Y-113927442D01*
X104010224Y-113927442D02*
X103938796Y-113641728D01*
X103938796Y-113641728D02*
X103938796Y-113141728D01*
X103938796Y-113141728D02*
X104010224Y-112856014D01*
X104010224Y-112856014D02*
X104153082Y-112713157D01*
X104153082Y-112713157D02*
X104295939Y-112641728D01*
X109153082Y-114713157D02*
X109867368Y-114713157D01*
X109010225Y-115141728D02*
X109510225Y-113641728D01*
X109510225Y-113641728D02*
X110010225Y-115141728D01*
X110724510Y-115141728D02*
X110581653Y-115070300D01*
X110581653Y-115070300D02*
X110510224Y-114927442D01*
X110510224Y-114927442D02*
X110510224Y-113641728D01*
X111295938Y-114141728D02*
X111295938Y-115641728D01*
X111295938Y-114213157D02*
X111438796Y-114141728D01*
X111438796Y-114141728D02*
X111724510Y-114141728D01*
X111724510Y-114141728D02*
X111867367Y-114213157D01*
X111867367Y-114213157D02*
X111938796Y-114284585D01*
X111938796Y-114284585D02*
X112010224Y-114427442D01*
X112010224Y-114427442D02*
X112010224Y-114856014D01*
X112010224Y-114856014D02*
X111938796Y-114998871D01*
X111938796Y-114998871D02*
X111867367Y-115070300D01*
X111867367Y-115070300D02*
X111724510Y-115141728D01*
X111724510Y-115141728D02*
X111438796Y-115141728D01*
X111438796Y-115141728D02*
X111295938Y-115070300D01*
X112653081Y-115141728D02*
X112653081Y-113641728D01*
X113295939Y-115141728D02*
X113295939Y-114356014D01*
X113295939Y-114356014D02*
X113224510Y-114213157D01*
X113224510Y-114213157D02*
X113081653Y-114141728D01*
X113081653Y-114141728D02*
X112867367Y-114141728D01*
X112867367Y-114141728D02*
X112724510Y-114213157D01*
X112724510Y-114213157D02*
X112653081Y-114284585D01*
X114653082Y-115141728D02*
X114653082Y-114356014D01*
X114653082Y-114356014D02*
X114581653Y-114213157D01*
X114581653Y-114213157D02*
X114438796Y-114141728D01*
X114438796Y-114141728D02*
X114153082Y-114141728D01*
X114153082Y-114141728D02*
X114010224Y-114213157D01*
X114653082Y-115070300D02*
X114510224Y-115141728D01*
X114510224Y-115141728D02*
X114153082Y-115141728D01*
X114153082Y-115141728D02*
X114010224Y-115070300D01*
X114010224Y-115070300D02*
X113938796Y-114927442D01*
X113938796Y-114927442D02*
X113938796Y-114784585D01*
X113938796Y-114784585D02*
X114010224Y-114641728D01*
X114010224Y-114641728D02*
X114153082Y-114570300D01*
X114153082Y-114570300D02*
X114510224Y-114570300D01*
X114510224Y-114570300D02*
X114653082Y-114498871D01*
X115367367Y-114141728D02*
X115367367Y-115141728D01*
X115367367Y-114284585D02*
X115438796Y-114213157D01*
X115438796Y-114213157D02*
X115581653Y-114141728D01*
X115581653Y-114141728D02*
X115795939Y-114141728D01*
X115795939Y-114141728D02*
X115938796Y-114213157D01*
X115938796Y-114213157D02*
X116010225Y-114356014D01*
X116010225Y-114356014D02*
X116010225Y-115141728D01*
X117367368Y-114141728D02*
X117367368Y-115141728D01*
X116724510Y-114141728D02*
X116724510Y-114927442D01*
X116724510Y-114927442D02*
X116795939Y-115070300D01*
X116795939Y-115070300D02*
X116938796Y-115141728D01*
X116938796Y-115141728D02*
X117153082Y-115141728D01*
X117153082Y-115141728D02*
X117295939Y-115070300D01*
X117295939Y-115070300D02*
X117367368Y-114998871D01*
X118081653Y-115141728D02*
X118081653Y-114141728D01*
X118081653Y-114284585D02*
X118153082Y-114213157D01*
X118153082Y-114213157D02*
X118295939Y-114141728D01*
X118295939Y-114141728D02*
X118510225Y-114141728D01*
X118510225Y-114141728D02*
X118653082Y-114213157D01*
X118653082Y-114213157D02*
X118724511Y-114356014D01*
X118724511Y-114356014D02*
X118724511Y-115141728D01*
X118724511Y-114356014D02*
X118795939Y-114213157D01*
X118795939Y-114213157D02*
X118938796Y-114141728D01*
X118938796Y-114141728D02*
X119153082Y-114141728D01*
X119153082Y-114141728D02*
X119295939Y-114213157D01*
X119295939Y-114213157D02*
X119367368Y-114356014D01*
X119367368Y-114356014D02*
X119367368Y-115141728D01*
X120653082Y-115070300D02*
X120510225Y-115141728D01*
X120510225Y-115141728D02*
X120224511Y-115141728D01*
X120224511Y-115141728D02*
X120081653Y-115070300D01*
X120081653Y-115070300D02*
X120010225Y-114927442D01*
X120010225Y-114927442D02*
X120010225Y-114356014D01*
X120010225Y-114356014D02*
X120081653Y-114213157D01*
X120081653Y-114213157D02*
X120224511Y-114141728D01*
X120224511Y-114141728D02*
X120510225Y-114141728D01*
X120510225Y-114141728D02*
X120653082Y-114213157D01*
X120653082Y-114213157D02*
X120724511Y-114356014D01*
X120724511Y-114356014D02*
X120724511Y-114498871D01*
X120724511Y-114498871D02*
X120010225Y-114641728D01*
X121367367Y-115141728D02*
X121367367Y-114141728D01*
X121367367Y-114427442D02*
X121438796Y-114284585D01*
X121438796Y-114284585D02*
X121510225Y-114213157D01*
X121510225Y-114213157D02*
X121653082Y-114141728D01*
X121653082Y-114141728D02*
X121795939Y-114141728D01*
X122295938Y-115141728D02*
X122295938Y-114141728D01*
X122295938Y-113641728D02*
X122224510Y-113713157D01*
X122224510Y-113713157D02*
X122295938Y-113784585D01*
X122295938Y-113784585D02*
X122367367Y-113713157D01*
X122367367Y-113713157D02*
X122295938Y-113641728D01*
X122295938Y-113641728D02*
X122295938Y-113784585D01*
X123653082Y-115070300D02*
X123510224Y-115141728D01*
X123510224Y-115141728D02*
X123224510Y-115141728D01*
X123224510Y-115141728D02*
X123081653Y-115070300D01*
X123081653Y-115070300D02*
X123010224Y-114998871D01*
X123010224Y-114998871D02*
X122938796Y-114856014D01*
X122938796Y-114856014D02*
X122938796Y-114427442D01*
X122938796Y-114427442D02*
X123010224Y-114284585D01*
X123010224Y-114284585D02*
X123081653Y-114213157D01*
X123081653Y-114213157D02*
X123224510Y-114141728D01*
X123224510Y-114141728D02*
X123510224Y-114141728D01*
X123510224Y-114141728D02*
X123653082Y-114213157D01*
X110724510Y-74070300D02*
X111867368Y-74070300D01*
X111295939Y-74641728D02*
X111295939Y-73498871D01*
X157100225Y-79070300D02*
X157314511Y-79141728D01*
X157314511Y-79141728D02*
X157671653Y-79141728D01*
X157671653Y-79141728D02*
X157814511Y-79070300D01*
X157814511Y-79070300D02*
X157885939Y-78998871D01*
X157885939Y-78998871D02*
X157957368Y-78856014D01*
X157957368Y-78856014D02*
X157957368Y-78713157D01*
X157957368Y-78713157D02*
X157885939Y-78570300D01*
X157885939Y-78570300D02*
X157814511Y-78498871D01*
X157814511Y-78498871D02*
X157671653Y-78427442D01*
X157671653Y-78427442D02*
X157385939Y-78356014D01*
X157385939Y-78356014D02*
X157243082Y-78284585D01*
X157243082Y-78284585D02*
X157171653Y-78213157D01*
X157171653Y-78213157D02*
X157100225Y-78070300D01*
X157100225Y-78070300D02*
X157100225Y-77927442D01*
X157100225Y-77927442D02*
X157171653Y-77784585D01*
X157171653Y-77784585D02*
X157243082Y-77713157D01*
X157243082Y-77713157D02*
X157385939Y-77641728D01*
X157385939Y-77641728D02*
X157743082Y-77641728D01*
X157743082Y-77641728D02*
X157957368Y-77713157D01*
X158600224Y-78570300D02*
X159743082Y-78570300D01*
X159171653Y-79141728D02*
X159171653Y-77998871D01*
X175597368Y-90433715D02*
X175597368Y-91648001D01*
X175597368Y-91648001D02*
X175525939Y-91790858D01*
X175525939Y-91790858D02*
X175454510Y-91862287D01*
X175454510Y-91862287D02*
X175311653Y-91933715D01*
X175311653Y-91933715D02*
X175097368Y-91933715D01*
X175097368Y-91933715D02*
X174954510Y-91862287D01*
X175597368Y-91362287D02*
X175454510Y-91433715D01*
X175454510Y-91433715D02*
X175168796Y-91433715D01*
X175168796Y-91433715D02*
X175025939Y-91362287D01*
X175025939Y-91362287D02*
X174954510Y-91290858D01*
X174954510Y-91290858D02*
X174883082Y-91148001D01*
X174883082Y-91148001D02*
X174883082Y-90719429D01*
X174883082Y-90719429D02*
X174954510Y-90576572D01*
X174954510Y-90576572D02*
X175025939Y-90505144D01*
X175025939Y-90505144D02*
X175168796Y-90433715D01*
X175168796Y-90433715D02*
X175454510Y-90433715D01*
X175454510Y-90433715D02*
X175597368Y-90505144D01*
X176311653Y-91433715D02*
X176311653Y-90433715D01*
X176311653Y-89933715D02*
X176240225Y-90005144D01*
X176240225Y-90005144D02*
X176311653Y-90076572D01*
X176311653Y-90076572D02*
X176383082Y-90005144D01*
X176383082Y-90005144D02*
X176311653Y-89933715D01*
X176311653Y-89933715D02*
X176311653Y-90076572D01*
X176811654Y-90433715D02*
X177383082Y-90433715D01*
X177025939Y-89933715D02*
X177025939Y-91219429D01*
X177025939Y-91219429D02*
X177097368Y-91362287D01*
X177097368Y-91362287D02*
X177240225Y-91433715D01*
X177240225Y-91433715D02*
X177383082Y-91433715D01*
X177883082Y-91433715D02*
X177883082Y-89933715D01*
X178525940Y-91433715D02*
X178525940Y-90648001D01*
X178525940Y-90648001D02*
X178454511Y-90505144D01*
X178454511Y-90505144D02*
X178311654Y-90433715D01*
X178311654Y-90433715D02*
X178097368Y-90433715D01*
X178097368Y-90433715D02*
X177954511Y-90505144D01*
X177954511Y-90505144D02*
X177883082Y-90576572D01*
X179883083Y-90433715D02*
X179883083Y-91433715D01*
X179240225Y-90433715D02*
X179240225Y-91219429D01*
X179240225Y-91219429D02*
X179311654Y-91362287D01*
X179311654Y-91362287D02*
X179454511Y-91433715D01*
X179454511Y-91433715D02*
X179668797Y-91433715D01*
X179668797Y-91433715D02*
X179811654Y-91362287D01*
X179811654Y-91362287D02*
X179883083Y-91290858D01*
X180597368Y-91433715D02*
X180597368Y-89933715D01*
X180597368Y-90505144D02*
X180740226Y-90433715D01*
X180740226Y-90433715D02*
X181025940Y-90433715D01*
X181025940Y-90433715D02*
X181168797Y-90505144D01*
X181168797Y-90505144D02*
X181240226Y-90576572D01*
X181240226Y-90576572D02*
X181311654Y-90719429D01*
X181311654Y-90719429D02*
X181311654Y-91148001D01*
X181311654Y-91148001D02*
X181240226Y-91290858D01*
X181240226Y-91290858D02*
X181168797Y-91362287D01*
X181168797Y-91362287D02*
X181025940Y-91433715D01*
X181025940Y-91433715D02*
X180740226Y-91433715D01*
X180740226Y-91433715D02*
X180597368Y-91362287D01*
X181954511Y-91290858D02*
X182025940Y-91362287D01*
X182025940Y-91362287D02*
X181954511Y-91433715D01*
X181954511Y-91433715D02*
X181883083Y-91362287D01*
X181883083Y-91362287D02*
X181954511Y-91290858D01*
X181954511Y-91290858D02*
X181954511Y-91433715D01*
X183311655Y-91362287D02*
X183168797Y-91433715D01*
X183168797Y-91433715D02*
X182883083Y-91433715D01*
X182883083Y-91433715D02*
X182740226Y-91362287D01*
X182740226Y-91362287D02*
X182668797Y-91290858D01*
X182668797Y-91290858D02*
X182597369Y-91148001D01*
X182597369Y-91148001D02*
X182597369Y-90719429D01*
X182597369Y-90719429D02*
X182668797Y-90576572D01*
X182668797Y-90576572D02*
X182740226Y-90505144D01*
X182740226Y-90505144D02*
X182883083Y-90433715D01*
X182883083Y-90433715D02*
X183168797Y-90433715D01*
X183168797Y-90433715D02*
X183311655Y-90505144D01*
X184168797Y-91433715D02*
X184025940Y-91362287D01*
X184025940Y-91362287D02*
X183954511Y-91290858D01*
X183954511Y-91290858D02*
X183883083Y-91148001D01*
X183883083Y-91148001D02*
X183883083Y-90719429D01*
X183883083Y-90719429D02*
X183954511Y-90576572D01*
X183954511Y-90576572D02*
X184025940Y-90505144D01*
X184025940Y-90505144D02*
X184168797Y-90433715D01*
X184168797Y-90433715D02*
X184383083Y-90433715D01*
X184383083Y-90433715D02*
X184525940Y-90505144D01*
X184525940Y-90505144D02*
X184597369Y-90576572D01*
X184597369Y-90576572D02*
X184668797Y-90719429D01*
X184668797Y-90719429D02*
X184668797Y-91148001D01*
X184668797Y-91148001D02*
X184597369Y-91290858D01*
X184597369Y-91290858D02*
X184525940Y-91362287D01*
X184525940Y-91362287D02*
X184383083Y-91433715D01*
X184383083Y-91433715D02*
X184168797Y-91433715D01*
X185311654Y-91433715D02*
X185311654Y-90433715D01*
X185311654Y-90576572D02*
X185383083Y-90505144D01*
X185383083Y-90505144D02*
X185525940Y-90433715D01*
X185525940Y-90433715D02*
X185740226Y-90433715D01*
X185740226Y-90433715D02*
X185883083Y-90505144D01*
X185883083Y-90505144D02*
X185954512Y-90648001D01*
X185954512Y-90648001D02*
X185954512Y-91433715D01*
X185954512Y-90648001D02*
X186025940Y-90505144D01*
X186025940Y-90505144D02*
X186168797Y-90433715D01*
X186168797Y-90433715D02*
X186383083Y-90433715D01*
X186383083Y-90433715D02*
X186525940Y-90505144D01*
X186525940Y-90505144D02*
X186597369Y-90648001D01*
X186597369Y-90648001D02*
X186597369Y-91433715D01*
X188383083Y-89862287D02*
X187097369Y-91790858D01*
X189525941Y-91433715D02*
X189525941Y-90648001D01*
X189525941Y-90648001D02*
X189454512Y-90505144D01*
X189454512Y-90505144D02*
X189311655Y-90433715D01*
X189311655Y-90433715D02*
X189025941Y-90433715D01*
X189025941Y-90433715D02*
X188883083Y-90505144D01*
X189525941Y-91362287D02*
X189383083Y-91433715D01*
X189383083Y-91433715D02*
X189025941Y-91433715D01*
X189025941Y-91433715D02*
X188883083Y-91362287D01*
X188883083Y-91362287D02*
X188811655Y-91219429D01*
X188811655Y-91219429D02*
X188811655Y-91076572D01*
X188811655Y-91076572D02*
X188883083Y-90933715D01*
X188883083Y-90933715D02*
X189025941Y-90862287D01*
X189025941Y-90862287D02*
X189383083Y-90862287D01*
X189383083Y-90862287D02*
X189525941Y-90790858D01*
X190240226Y-90433715D02*
X190240226Y-91433715D01*
X190240226Y-90576572D02*
X190311655Y-90505144D01*
X190311655Y-90505144D02*
X190454512Y-90433715D01*
X190454512Y-90433715D02*
X190668798Y-90433715D01*
X190668798Y-90433715D02*
X190811655Y-90505144D01*
X190811655Y-90505144D02*
X190883084Y-90648001D01*
X190883084Y-90648001D02*
X190883084Y-91433715D01*
X192240227Y-90433715D02*
X192240227Y-91648001D01*
X192240227Y-91648001D02*
X192168798Y-91790858D01*
X192168798Y-91790858D02*
X192097369Y-91862287D01*
X192097369Y-91862287D02*
X191954512Y-91933715D01*
X191954512Y-91933715D02*
X191740227Y-91933715D01*
X191740227Y-91933715D02*
X191597369Y-91862287D01*
X192240227Y-91362287D02*
X192097369Y-91433715D01*
X192097369Y-91433715D02*
X191811655Y-91433715D01*
X191811655Y-91433715D02*
X191668798Y-91362287D01*
X191668798Y-91362287D02*
X191597369Y-91290858D01*
X191597369Y-91290858D02*
X191525941Y-91148001D01*
X191525941Y-91148001D02*
X191525941Y-90719429D01*
X191525941Y-90719429D02*
X191597369Y-90576572D01*
X191597369Y-90576572D02*
X191668798Y-90505144D01*
X191668798Y-90505144D02*
X191811655Y-90433715D01*
X191811655Y-90433715D02*
X192097369Y-90433715D01*
X192097369Y-90433715D02*
X192240227Y-90505144D01*
X193525941Y-91362287D02*
X193383084Y-91433715D01*
X193383084Y-91433715D02*
X193097370Y-91433715D01*
X193097370Y-91433715D02*
X192954512Y-91362287D01*
X192954512Y-91362287D02*
X192883084Y-91219429D01*
X192883084Y-91219429D02*
X192883084Y-90648001D01*
X192883084Y-90648001D02*
X192954512Y-90505144D01*
X192954512Y-90505144D02*
X193097370Y-90433715D01*
X193097370Y-90433715D02*
X193383084Y-90433715D01*
X193383084Y-90433715D02*
X193525941Y-90505144D01*
X193525941Y-90505144D02*
X193597370Y-90648001D01*
X193597370Y-90648001D02*
X193597370Y-90790858D01*
X193597370Y-90790858D02*
X192883084Y-90933715D01*
X194454512Y-91433715D02*
X194311655Y-91362287D01*
X194311655Y-91362287D02*
X194240226Y-91219429D01*
X194240226Y-91219429D02*
X194240226Y-89933715D01*
X195240226Y-91433715D02*
X195097369Y-91362287D01*
X195097369Y-91362287D02*
X195025940Y-91290858D01*
X195025940Y-91290858D02*
X194954512Y-91148001D01*
X194954512Y-91148001D02*
X194954512Y-90719429D01*
X194954512Y-90719429D02*
X195025940Y-90576572D01*
X195025940Y-90576572D02*
X195097369Y-90505144D01*
X195097369Y-90505144D02*
X195240226Y-90433715D01*
X195240226Y-90433715D02*
X195454512Y-90433715D01*
X195454512Y-90433715D02*
X195597369Y-90505144D01*
X195597369Y-90505144D02*
X195668798Y-90576572D01*
X195668798Y-90576572D02*
X195740226Y-90719429D01*
X195740226Y-90719429D02*
X195740226Y-91148001D01*
X195740226Y-91148001D02*
X195668798Y-91290858D01*
X195668798Y-91290858D02*
X195597369Y-91362287D01*
X195597369Y-91362287D02*
X195454512Y-91433715D01*
X195454512Y-91433715D02*
X195240226Y-91433715D01*
X196383083Y-91433715D02*
X196383083Y-89933715D01*
X197097369Y-91433715D02*
X197097369Y-89933715D01*
X197097369Y-89933715D02*
X197954512Y-91433715D01*
X197954512Y-91433715D02*
X197954512Y-89933715D01*
X198454513Y-89933715D02*
X199311656Y-89933715D01*
X198883084Y-91433715D02*
X198883084Y-89933715D01*
X200240227Y-89933715D02*
X200240227Y-91005144D01*
X200240227Y-91005144D02*
X200168798Y-91219429D01*
X200168798Y-91219429D02*
X200025941Y-91362287D01*
X200025941Y-91362287D02*
X199811655Y-91433715D01*
X199811655Y-91433715D02*
X199668798Y-91433715D01*
X202025941Y-89862287D02*
X200740227Y-91790858D01*
X202454513Y-91362287D02*
X202597370Y-91433715D01*
X202597370Y-91433715D02*
X202883084Y-91433715D01*
X202883084Y-91433715D02*
X203025941Y-91362287D01*
X203025941Y-91362287D02*
X203097370Y-91219429D01*
X203097370Y-91219429D02*
X203097370Y-91148001D01*
X203097370Y-91148001D02*
X203025941Y-91005144D01*
X203025941Y-91005144D02*
X202883084Y-90933715D01*
X202883084Y-90933715D02*
X202668799Y-90933715D01*
X202668799Y-90933715D02*
X202525941Y-90862287D01*
X202525941Y-90862287D02*
X202454513Y-90719429D01*
X202454513Y-90719429D02*
X202454513Y-90648001D01*
X202454513Y-90648001D02*
X202525941Y-90505144D01*
X202525941Y-90505144D02*
X202668799Y-90433715D01*
X202668799Y-90433715D02*
X202883084Y-90433715D01*
X202883084Y-90433715D02*
X203025941Y-90505144D01*
X203740227Y-91433715D02*
X203740227Y-90433715D01*
X203740227Y-89933715D02*
X203668799Y-90005144D01*
X203668799Y-90005144D02*
X203740227Y-90076572D01*
X203740227Y-90076572D02*
X203811656Y-90005144D01*
X203811656Y-90005144D02*
X203740227Y-89933715D01*
X203740227Y-89933715D02*
X203740227Y-90076572D01*
X204454513Y-91433715D02*
X204454513Y-90433715D01*
X204454513Y-90576572D02*
X204525942Y-90505144D01*
X204525942Y-90505144D02*
X204668799Y-90433715D01*
X204668799Y-90433715D02*
X204883085Y-90433715D01*
X204883085Y-90433715D02*
X205025942Y-90505144D01*
X205025942Y-90505144D02*
X205097371Y-90648001D01*
X205097371Y-90648001D02*
X205097371Y-91433715D01*
X205097371Y-90648001D02*
X205168799Y-90505144D01*
X205168799Y-90505144D02*
X205311656Y-90433715D01*
X205311656Y-90433715D02*
X205525942Y-90433715D01*
X205525942Y-90433715D02*
X205668799Y-90505144D01*
X205668799Y-90505144D02*
X205740228Y-90648001D01*
X205740228Y-90648001D02*
X205740228Y-91433715D01*
X207097371Y-90433715D02*
X207097371Y-91433715D01*
X206454513Y-90433715D02*
X206454513Y-91219429D01*
X206454513Y-91219429D02*
X206525942Y-91362287D01*
X206525942Y-91362287D02*
X206668799Y-91433715D01*
X206668799Y-91433715D02*
X206883085Y-91433715D01*
X206883085Y-91433715D02*
X207025942Y-91362287D01*
X207025942Y-91362287D02*
X207097371Y-91290858D01*
X207597371Y-90433715D02*
X208168799Y-90433715D01*
X207811656Y-89933715D02*
X207811656Y-91219429D01*
X207811656Y-91219429D02*
X207883085Y-91362287D01*
X207883085Y-91362287D02*
X208025942Y-91433715D01*
X208025942Y-91433715D02*
X208168799Y-91433715D01*
X184510225Y-63713157D02*
X184367368Y-63641728D01*
X184367368Y-63641728D02*
X184153082Y-63641728D01*
X184153082Y-63641728D02*
X183938796Y-63713157D01*
X183938796Y-63713157D02*
X183795939Y-63856014D01*
X183795939Y-63856014D02*
X183724510Y-63998871D01*
X183724510Y-63998871D02*
X183653082Y-64284585D01*
X183653082Y-64284585D02*
X183653082Y-64498871D01*
X183653082Y-64498871D02*
X183724510Y-64784585D01*
X183724510Y-64784585D02*
X183795939Y-64927442D01*
X183795939Y-64927442D02*
X183938796Y-65070300D01*
X183938796Y-65070300D02*
X184153082Y-65141728D01*
X184153082Y-65141728D02*
X184295939Y-65141728D01*
X184295939Y-65141728D02*
X184510225Y-65070300D01*
X184510225Y-65070300D02*
X184581653Y-64998871D01*
X184581653Y-64998871D02*
X184581653Y-64498871D01*
X184581653Y-64498871D02*
X184295939Y-64498871D01*
X185224510Y-65141728D02*
X185224510Y-63641728D01*
X185224510Y-63641728D02*
X186081653Y-65141728D01*
X186081653Y-65141728D02*
X186081653Y-63641728D01*
X186795939Y-65141728D02*
X186795939Y-63641728D01*
X186795939Y-63641728D02*
X187153082Y-63641728D01*
X187153082Y-63641728D02*
X187367368Y-63713157D01*
X187367368Y-63713157D02*
X187510225Y-63856014D01*
X187510225Y-63856014D02*
X187581654Y-63998871D01*
X187581654Y-63998871D02*
X187653082Y-64284585D01*
X187653082Y-64284585D02*
X187653082Y-64498871D01*
X187653082Y-64498871D02*
X187581654Y-64784585D01*
X187581654Y-64784585D02*
X187510225Y-64927442D01*
X187510225Y-64927442D02*
X187367368Y-65070300D01*
X187367368Y-65070300D02*
X187153082Y-65141728D01*
X187153082Y-65141728D02*
X186795939Y-65141728D01*
X184795939Y-118141728D02*
X185081653Y-118141728D01*
X185081653Y-118141728D02*
X185224510Y-118070300D01*
X185224510Y-118070300D02*
X185295939Y-117998871D01*
X185295939Y-117998871D02*
X185438796Y-117784585D01*
X185438796Y-117784585D02*
X185510225Y-117498871D01*
X185510225Y-117498871D02*
X185510225Y-116927442D01*
X185510225Y-116927442D02*
X185438796Y-116784585D01*
X185438796Y-116784585D02*
X185367368Y-116713157D01*
X185367368Y-116713157D02*
X185224510Y-116641728D01*
X185224510Y-116641728D02*
X184938796Y-116641728D01*
X184938796Y-116641728D02*
X184795939Y-116713157D01*
X184795939Y-116713157D02*
X184724510Y-116784585D01*
X184724510Y-116784585D02*
X184653082Y-116927442D01*
X184653082Y-116927442D02*
X184653082Y-117284585D01*
X184653082Y-117284585D02*
X184724510Y-117427442D01*
X184724510Y-117427442D02*
X184795939Y-117498871D01*
X184795939Y-117498871D02*
X184938796Y-117570300D01*
X184938796Y-117570300D02*
X185224510Y-117570300D01*
X185224510Y-117570300D02*
X185367368Y-117498871D01*
X185367368Y-117498871D02*
X185438796Y-117427442D01*
X185438796Y-117427442D02*
X185510225Y-117284585D01*
X186438796Y-116641728D02*
X186581653Y-116641728D01*
X186581653Y-116641728D02*
X186724510Y-116713157D01*
X186724510Y-116713157D02*
X186795939Y-116784585D01*
X186795939Y-116784585D02*
X186867367Y-116927442D01*
X186867367Y-116927442D02*
X186938796Y-117213157D01*
X186938796Y-117213157D02*
X186938796Y-117570300D01*
X186938796Y-117570300D02*
X186867367Y-117856014D01*
X186867367Y-117856014D02*
X186795939Y-117998871D01*
X186795939Y-117998871D02*
X186724510Y-118070300D01*
X186724510Y-118070300D02*
X186581653Y-118141728D01*
X186581653Y-118141728D02*
X186438796Y-118141728D01*
X186438796Y-118141728D02*
X186295939Y-118070300D01*
X186295939Y-118070300D02*
X186224510Y-117998871D01*
X186224510Y-117998871D02*
X186153081Y-117856014D01*
X186153081Y-117856014D02*
X186081653Y-117570300D01*
X186081653Y-117570300D02*
X186081653Y-117213157D01*
X186081653Y-117213157D02*
X186153081Y-116927442D01*
X186153081Y-116927442D02*
X186224510Y-116784585D01*
X186224510Y-116784585D02*
X186295939Y-116713157D01*
X186295939Y-116713157D02*
X186438796Y-116641728D01*
X187581652Y-117570300D02*
X188724510Y-117570300D01*
X189367367Y-116784585D02*
X189438795Y-116713157D01*
X189438795Y-116713157D02*
X189581653Y-116641728D01*
X189581653Y-116641728D02*
X189938795Y-116641728D01*
X189938795Y-116641728D02*
X190081653Y-116713157D01*
X190081653Y-116713157D02*
X190153081Y-116784585D01*
X190153081Y-116784585D02*
X190224510Y-116927442D01*
X190224510Y-116927442D02*
X190224510Y-117070300D01*
X190224510Y-117070300D02*
X190153081Y-117284585D01*
X190153081Y-117284585D02*
X189295938Y-118141728D01*
X189295938Y-118141728D02*
X190224510Y-118141728D01*
X191510224Y-117141728D02*
X191510224Y-118141728D01*
X191153081Y-116570300D02*
X190795938Y-117641728D01*
X190795938Y-117641728D02*
X191724509Y-117641728D01*
X192581652Y-116641728D02*
X192724509Y-116641728D01*
X192724509Y-116641728D02*
X192867366Y-116713157D01*
X192867366Y-116713157D02*
X192938795Y-116784585D01*
X192938795Y-116784585D02*
X193010223Y-116927442D01*
X193010223Y-116927442D02*
X193081652Y-117213157D01*
X193081652Y-117213157D02*
X193081652Y-117570300D01*
X193081652Y-117570300D02*
X193010223Y-117856014D01*
X193010223Y-117856014D02*
X192938795Y-117998871D01*
X192938795Y-117998871D02*
X192867366Y-118070300D01*
X192867366Y-118070300D02*
X192724509Y-118141728D01*
X192724509Y-118141728D02*
X192581652Y-118141728D01*
X192581652Y-118141728D02*
X192438795Y-118070300D01*
X192438795Y-118070300D02*
X192367366Y-117998871D01*
X192367366Y-117998871D02*
X192295937Y-117856014D01*
X192295937Y-117856014D02*
X192224509Y-117570300D01*
X192224509Y-117570300D02*
X192224509Y-117213157D01*
X192224509Y-117213157D02*
X192295937Y-116927442D01*
X192295937Y-116927442D02*
X192367366Y-116784585D01*
X192367366Y-116784585D02*
X192438795Y-116713157D01*
X192438795Y-116713157D02*
X192581652Y-116641728D01*
X193510223Y-116641728D02*
X194010223Y-118141728D01*
X194010223Y-118141728D02*
X194510223Y-116641728D01*
X195653080Y-118141728D02*
X195653080Y-117356014D01*
X195653080Y-117356014D02*
X195581651Y-117213157D01*
X195581651Y-117213157D02*
X195438794Y-117141728D01*
X195438794Y-117141728D02*
X195153080Y-117141728D01*
X195153080Y-117141728D02*
X195010222Y-117213157D01*
X195653080Y-118070300D02*
X195510222Y-118141728D01*
X195510222Y-118141728D02*
X195153080Y-118141728D01*
X195153080Y-118141728D02*
X195010222Y-118070300D01*
X195010222Y-118070300D02*
X194938794Y-117927442D01*
X194938794Y-117927442D02*
X194938794Y-117784585D01*
X194938794Y-117784585D02*
X195010222Y-117641728D01*
X195010222Y-117641728D02*
X195153080Y-117570300D01*
X195153080Y-117570300D02*
X195510222Y-117570300D01*
X195510222Y-117570300D02*
X195653080Y-117498871D01*
X197010223Y-118070300D02*
X196867365Y-118141728D01*
X196867365Y-118141728D02*
X196581651Y-118141728D01*
X196581651Y-118141728D02*
X196438794Y-118070300D01*
X196438794Y-118070300D02*
X196367365Y-117998871D01*
X196367365Y-117998871D02*
X196295937Y-117856014D01*
X196295937Y-117856014D02*
X196295937Y-117427442D01*
X196295937Y-117427442D02*
X196367365Y-117284585D01*
X196367365Y-117284585D02*
X196438794Y-117213157D01*
X196438794Y-117213157D02*
X196581651Y-117141728D01*
X196581651Y-117141728D02*
X196867365Y-117141728D01*
X196867365Y-117141728D02*
X197010223Y-117213157D01*
X199724510Y-79856014D02*
X199938796Y-79927442D01*
X199938796Y-79927442D02*
X200010225Y-79998871D01*
X200010225Y-79998871D02*
X200081653Y-80141728D01*
X200081653Y-80141728D02*
X200081653Y-80356014D01*
X200081653Y-80356014D02*
X200010225Y-80498871D01*
X200010225Y-80498871D02*
X199938796Y-80570300D01*
X199938796Y-80570300D02*
X199795939Y-80641728D01*
X199795939Y-80641728D02*
X199224510Y-80641728D01*
X199224510Y-80641728D02*
X199224510Y-79141728D01*
X199224510Y-79141728D02*
X199724510Y-79141728D01*
X199724510Y-79141728D02*
X199867368Y-79213157D01*
X199867368Y-79213157D02*
X199938796Y-79284585D01*
X199938796Y-79284585D02*
X200010225Y-79427442D01*
X200010225Y-79427442D02*
X200010225Y-79570300D01*
X200010225Y-79570300D02*
X199938796Y-79713157D01*
X199938796Y-79713157D02*
X199867368Y-79784585D01*
X199867368Y-79784585D02*
X199724510Y-79856014D01*
X199724510Y-79856014D02*
X199224510Y-79856014D01*
X201367368Y-79641728D02*
X201367368Y-80641728D01*
X200724510Y-79641728D02*
X200724510Y-80427442D01*
X200724510Y-80427442D02*
X200795939Y-80570300D01*
X200795939Y-80570300D02*
X200938796Y-80641728D01*
X200938796Y-80641728D02*
X201153082Y-80641728D01*
X201153082Y-80641728D02*
X201295939Y-80570300D01*
X201295939Y-80570300D02*
X201367368Y-80498871D01*
X201938796Y-79641728D02*
X202724511Y-79641728D01*
X202724511Y-79641728D02*
X201938796Y-80641728D01*
X201938796Y-80641728D02*
X202724511Y-80641728D01*
X203153082Y-79641728D02*
X203938797Y-79641728D01*
X203938797Y-79641728D02*
X203153082Y-80641728D01*
X203153082Y-80641728D02*
X203938797Y-80641728D01*
X205010225Y-71213157D02*
X204867368Y-71141728D01*
X204867368Y-71141728D02*
X204653082Y-71141728D01*
X204653082Y-71141728D02*
X204438796Y-71213157D01*
X204438796Y-71213157D02*
X204295939Y-71356014D01*
X204295939Y-71356014D02*
X204224510Y-71498871D01*
X204224510Y-71498871D02*
X204153082Y-71784585D01*
X204153082Y-71784585D02*
X204153082Y-71998871D01*
X204153082Y-71998871D02*
X204224510Y-72284585D01*
X204224510Y-72284585D02*
X204295939Y-72427442D01*
X204295939Y-72427442D02*
X204438796Y-72570300D01*
X204438796Y-72570300D02*
X204653082Y-72641728D01*
X204653082Y-72641728D02*
X204795939Y-72641728D01*
X204795939Y-72641728D02*
X205010225Y-72570300D01*
X205010225Y-72570300D02*
X205081653Y-72498871D01*
X205081653Y-72498871D02*
X205081653Y-71998871D01*
X205081653Y-71998871D02*
X204795939Y-71998871D01*
X205724510Y-72641728D02*
X205724510Y-71141728D01*
X205724510Y-71141728D02*
X206581653Y-72641728D01*
X206581653Y-72641728D02*
X206581653Y-71141728D01*
X207295939Y-72641728D02*
X207295939Y-71141728D01*
X207295939Y-71141728D02*
X207653082Y-71141728D01*
X207653082Y-71141728D02*
X207867368Y-71213157D01*
X207867368Y-71213157D02*
X208010225Y-71356014D01*
X208010225Y-71356014D02*
X208081654Y-71498871D01*
X208081654Y-71498871D02*
X208153082Y-71784585D01*
X208153082Y-71784585D02*
X208153082Y-71998871D01*
X208153082Y-71998871D02*
X208081654Y-72284585D01*
X208081654Y-72284585D02*
X208010225Y-72427442D01*
X208010225Y-72427442D02*
X207867368Y-72570300D01*
X207867368Y-72570300D02*
X207653082Y-72641728D01*
X207653082Y-72641728D02*
X207295939Y-72641728D01*
X205081653Y-74998871D02*
X205010225Y-75070300D01*
X205010225Y-75070300D02*
X204795939Y-75141728D01*
X204795939Y-75141728D02*
X204653082Y-75141728D01*
X204653082Y-75141728D02*
X204438796Y-75070300D01*
X204438796Y-75070300D02*
X204295939Y-74927442D01*
X204295939Y-74927442D02*
X204224510Y-74784585D01*
X204224510Y-74784585D02*
X204153082Y-74498871D01*
X204153082Y-74498871D02*
X204153082Y-74284585D01*
X204153082Y-74284585D02*
X204224510Y-73998871D01*
X204224510Y-73998871D02*
X204295939Y-73856014D01*
X204295939Y-73856014D02*
X204438796Y-73713157D01*
X204438796Y-73713157D02*
X204653082Y-73641728D01*
X204653082Y-73641728D02*
X204795939Y-73641728D01*
X204795939Y-73641728D02*
X205010225Y-73713157D01*
X205010225Y-73713157D02*
X205081653Y-73784585D01*
X206010225Y-73641728D02*
X206295939Y-73641728D01*
X206295939Y-73641728D02*
X206438796Y-73713157D01*
X206438796Y-73713157D02*
X206581653Y-73856014D01*
X206581653Y-73856014D02*
X206653082Y-74141728D01*
X206653082Y-74141728D02*
X206653082Y-74641728D01*
X206653082Y-74641728D02*
X206581653Y-74927442D01*
X206581653Y-74927442D02*
X206438796Y-75070300D01*
X206438796Y-75070300D02*
X206295939Y-75141728D01*
X206295939Y-75141728D02*
X206010225Y-75141728D01*
X206010225Y-75141728D02*
X205867368Y-75070300D01*
X205867368Y-75070300D02*
X205724510Y-74927442D01*
X205724510Y-74927442D02*
X205653082Y-74641728D01*
X205653082Y-74641728D02*
X205653082Y-74141728D01*
X205653082Y-74141728D02*
X205724510Y-73856014D01*
X205724510Y-73856014D02*
X205867368Y-73713157D01*
X205867368Y-73713157D02*
X206010225Y-73641728D01*
X208010225Y-75141728D02*
X207295939Y-75141728D01*
X207295939Y-75141728D02*
X207295939Y-73641728D01*
X204224510Y-77070300D02*
X205367368Y-77070300D01*
X204795939Y-77641728D02*
X204795939Y-76498871D01*
X104369171Y-121966839D02*
X104369171Y-121109696D01*
X104369171Y-121538267D02*
X105869171Y-121538267D01*
X105869171Y-121538267D02*
X105654885Y-121395410D01*
X105654885Y-121395410D02*
X105512028Y-121252553D01*
X105512028Y-121252553D02*
X105440600Y-121109696D01*
X105369171Y-123252553D02*
X104369171Y-123252553D01*
X105940600Y-122895410D02*
X104869171Y-122538267D01*
X104869171Y-122538267D02*
X104869171Y-123466838D01*
X106797742Y-74681125D02*
X106869171Y-74538268D01*
X106869171Y-74538268D02*
X106869171Y-74323982D01*
X106869171Y-74323982D02*
X106797742Y-74109696D01*
X106797742Y-74109696D02*
X106654885Y-73966839D01*
X106654885Y-73966839D02*
X106512028Y-73895410D01*
X106512028Y-73895410D02*
X106226314Y-73823982D01*
X106226314Y-73823982D02*
X106012028Y-73823982D01*
X106012028Y-73823982D02*
X105726314Y-73895410D01*
X105726314Y-73895410D02*
X105583457Y-73966839D01*
X105583457Y-73966839D02*
X105440600Y-74109696D01*
X105440600Y-74109696D02*
X105369171Y-74323982D01*
X105369171Y-74323982D02*
X105369171Y-74466839D01*
X105369171Y-74466839D02*
X105440600Y-74681125D01*
X105440600Y-74681125D02*
X105512028Y-74752553D01*
X105512028Y-74752553D02*
X106012028Y-74752553D01*
X106012028Y-74752553D02*
X106012028Y-74466839D01*
X105369171Y-75395410D02*
X106869171Y-75395410D01*
X106869171Y-75395410D02*
X105369171Y-76252553D01*
X105369171Y-76252553D02*
X106869171Y-76252553D01*
X105369171Y-76966839D02*
X106869171Y-76966839D01*
X106869171Y-76966839D02*
X106869171Y-77323982D01*
X106869171Y-77323982D02*
X106797742Y-77538268D01*
X106797742Y-77538268D02*
X106654885Y-77681125D01*
X106654885Y-77681125D02*
X106512028Y-77752554D01*
X106512028Y-77752554D02*
X106226314Y-77823982D01*
X106226314Y-77823982D02*
X106012028Y-77823982D01*
X106012028Y-77823982D02*
X105726314Y-77752554D01*
X105726314Y-77752554D02*
X105583457Y-77681125D01*
X105583457Y-77681125D02*
X105440600Y-77538268D01*
X105440600Y-77538268D02*
X105369171Y-77323982D01*
X105369171Y-77323982D02*
X105369171Y-76966839D01*
X106907633Y-121966839D02*
X106907633Y-121109696D01*
X106907633Y-121538267D02*
X108407633Y-121538267D01*
X108407633Y-121538267D02*
X108193347Y-121395410D01*
X108193347Y-121395410D02*
X108050490Y-121252553D01*
X108050490Y-121252553D02*
X107979062Y-121109696D01*
X108407633Y-122466838D02*
X108407633Y-123395410D01*
X108407633Y-123395410D02*
X107836204Y-122895410D01*
X107836204Y-122895410D02*
X107836204Y-123109695D01*
X107836204Y-123109695D02*
X107764776Y-123252553D01*
X107764776Y-123252553D02*
X107693347Y-123323981D01*
X107693347Y-123323981D02*
X107550490Y-123395410D01*
X107550490Y-123395410D02*
X107193347Y-123395410D01*
X107193347Y-123395410D02*
X107050490Y-123323981D01*
X107050490Y-123323981D02*
X106979062Y-123252553D01*
X106979062Y-123252553D02*
X106907633Y-123109695D01*
X106907633Y-123109695D02*
X106907633Y-122681124D01*
X106907633Y-122681124D02*
X106979062Y-122538267D01*
X106979062Y-122538267D02*
X107050490Y-122466838D01*
X107940600Y-73823982D02*
X107869171Y-74038268D01*
X107869171Y-74038268D02*
X107869171Y-74395410D01*
X107869171Y-74395410D02*
X107940600Y-74538268D01*
X107940600Y-74538268D02*
X108012028Y-74609696D01*
X108012028Y-74609696D02*
X108154885Y-74681125D01*
X108154885Y-74681125D02*
X108297742Y-74681125D01*
X108297742Y-74681125D02*
X108440600Y-74609696D01*
X108440600Y-74609696D02*
X108512028Y-74538268D01*
X108512028Y-74538268D02*
X108583457Y-74395410D01*
X108583457Y-74395410D02*
X108654885Y-74109696D01*
X108654885Y-74109696D02*
X108726314Y-73966839D01*
X108726314Y-73966839D02*
X108797742Y-73895410D01*
X108797742Y-73895410D02*
X108940600Y-73823982D01*
X108940600Y-73823982D02*
X109083457Y-73823982D01*
X109083457Y-73823982D02*
X109226314Y-73895410D01*
X109226314Y-73895410D02*
X109297742Y-73966839D01*
X109297742Y-73966839D02*
X109369171Y-74109696D01*
X109369171Y-74109696D02*
X109369171Y-74466839D01*
X109369171Y-74466839D02*
X109297742Y-74681125D01*
X107869171Y-76109696D02*
X107869171Y-75252553D01*
X107869171Y-75681124D02*
X109369171Y-75681124D01*
X109369171Y-75681124D02*
X109154885Y-75538267D01*
X109154885Y-75538267D02*
X109012028Y-75395410D01*
X109012028Y-75395410D02*
X108940600Y-75252553D01*
X109369171Y-77038267D02*
X109369171Y-77181124D01*
X109369171Y-77181124D02*
X109297742Y-77323981D01*
X109297742Y-77323981D02*
X109226314Y-77395410D01*
X109226314Y-77395410D02*
X109083457Y-77466838D01*
X109083457Y-77466838D02*
X108797742Y-77538267D01*
X108797742Y-77538267D02*
X108440600Y-77538267D01*
X108440600Y-77538267D02*
X108154885Y-77466838D01*
X108154885Y-77466838D02*
X108012028Y-77395410D01*
X108012028Y-77395410D02*
X107940600Y-77323981D01*
X107940600Y-77323981D02*
X107869171Y-77181124D01*
X107869171Y-77181124D02*
X107869171Y-77038267D01*
X107869171Y-77038267D02*
X107940600Y-76895410D01*
X107940600Y-76895410D02*
X108012028Y-76823981D01*
X108012028Y-76823981D02*
X108154885Y-76752552D01*
X108154885Y-76752552D02*
X108440600Y-76681124D01*
X108440600Y-76681124D02*
X108797742Y-76681124D01*
X108797742Y-76681124D02*
X109083457Y-76752552D01*
X109083457Y-76752552D02*
X109226314Y-76823981D01*
X109226314Y-76823981D02*
X109297742Y-76895410D01*
X109297742Y-76895410D02*
X109369171Y-77038267D01*
X109446094Y-121966839D02*
X109446094Y-121109696D01*
X109446094Y-121538267D02*
X110946094Y-121538267D01*
X110946094Y-121538267D02*
X110731808Y-121395410D01*
X110731808Y-121395410D02*
X110588951Y-121252553D01*
X110588951Y-121252553D02*
X110517523Y-121109696D01*
X110803237Y-122538267D02*
X110874665Y-122609695D01*
X110874665Y-122609695D02*
X110946094Y-122752553D01*
X110946094Y-122752553D02*
X110946094Y-123109695D01*
X110946094Y-123109695D02*
X110874665Y-123252553D01*
X110874665Y-123252553D02*
X110803237Y-123323981D01*
X110803237Y-123323981D02*
X110660380Y-123395410D01*
X110660380Y-123395410D02*
X110517523Y-123395410D01*
X110517523Y-123395410D02*
X110303237Y-123323981D01*
X110303237Y-123323981D02*
X109446094Y-122466838D01*
X109446094Y-122466838D02*
X109446094Y-123395410D01*
X111984556Y-121966839D02*
X111984556Y-121109696D01*
X111984556Y-121538267D02*
X113484556Y-121538267D01*
X113484556Y-121538267D02*
X113270270Y-121395410D01*
X113270270Y-121395410D02*
X113127413Y-121252553D01*
X113127413Y-121252553D02*
X113055985Y-121109696D01*
X111984556Y-123395410D02*
X111984556Y-122538267D01*
X111984556Y-122966838D02*
X113484556Y-122966838D01*
X113484556Y-122966838D02*
X113270270Y-122823981D01*
X113270270Y-122823981D02*
X113127413Y-122681124D01*
X113127413Y-122681124D02*
X113055985Y-122538267D01*
X114523017Y-121966839D02*
X114523017Y-121109696D01*
X114523017Y-121538267D02*
X116023017Y-121538267D01*
X116023017Y-121538267D02*
X115808731Y-121395410D01*
X115808731Y-121395410D02*
X115665874Y-121252553D01*
X115665874Y-121252553D02*
X115594446Y-121109696D01*
X116023017Y-122895410D02*
X116023017Y-123038267D01*
X116023017Y-123038267D02*
X115951588Y-123181124D01*
X115951588Y-123181124D02*
X115880160Y-123252553D01*
X115880160Y-123252553D02*
X115737303Y-123323981D01*
X115737303Y-123323981D02*
X115451588Y-123395410D01*
X115451588Y-123395410D02*
X115094446Y-123395410D01*
X115094446Y-123395410D02*
X114808731Y-123323981D01*
X114808731Y-123323981D02*
X114665874Y-123252553D01*
X114665874Y-123252553D02*
X114594446Y-123181124D01*
X114594446Y-123181124D02*
X114523017Y-123038267D01*
X114523017Y-123038267D02*
X114523017Y-122895410D01*
X114523017Y-122895410D02*
X114594446Y-122752553D01*
X114594446Y-122752553D02*
X114665874Y-122681124D01*
X114665874Y-122681124D02*
X114808731Y-122609695D01*
X114808731Y-122609695D02*
X115094446Y-122538267D01*
X115094446Y-122538267D02*
X115451588Y-122538267D01*
X115451588Y-122538267D02*
X115737303Y-122609695D01*
X115737303Y-122609695D02*
X115880160Y-122681124D01*
X115880160Y-122681124D02*
X115951588Y-122752553D01*
X115951588Y-122752553D02*
X116023017Y-122895410D01*
X116940600Y-77323982D02*
X116869171Y-77538268D01*
X116869171Y-77538268D02*
X116869171Y-77895410D01*
X116869171Y-77895410D02*
X116940600Y-78038268D01*
X116940600Y-78038268D02*
X117012028Y-78109696D01*
X117012028Y-78109696D02*
X117154885Y-78181125D01*
X117154885Y-78181125D02*
X117297742Y-78181125D01*
X117297742Y-78181125D02*
X117440600Y-78109696D01*
X117440600Y-78109696D02*
X117512028Y-78038268D01*
X117512028Y-78038268D02*
X117583457Y-77895410D01*
X117583457Y-77895410D02*
X117654885Y-77609696D01*
X117654885Y-77609696D02*
X117726314Y-77466839D01*
X117726314Y-77466839D02*
X117797742Y-77395410D01*
X117797742Y-77395410D02*
X117940600Y-77323982D01*
X117940600Y-77323982D02*
X118083457Y-77323982D01*
X118083457Y-77323982D02*
X118226314Y-77395410D01*
X118226314Y-77395410D02*
X118297742Y-77466839D01*
X118297742Y-77466839D02*
X118369171Y-77609696D01*
X118369171Y-77609696D02*
X118369171Y-77966839D01*
X118369171Y-77966839D02*
X118297742Y-78181125D01*
X116869171Y-78895410D02*
X116869171Y-79181124D01*
X116869171Y-79181124D02*
X116940600Y-79323981D01*
X116940600Y-79323981D02*
X117012028Y-79395410D01*
X117012028Y-79395410D02*
X117226314Y-79538267D01*
X117226314Y-79538267D02*
X117512028Y-79609696D01*
X117512028Y-79609696D02*
X118083457Y-79609696D01*
X118083457Y-79609696D02*
X118226314Y-79538267D01*
X118226314Y-79538267D02*
X118297742Y-79466839D01*
X118297742Y-79466839D02*
X118369171Y-79323981D01*
X118369171Y-79323981D02*
X118369171Y-79038267D01*
X118369171Y-79038267D02*
X118297742Y-78895410D01*
X118297742Y-78895410D02*
X118226314Y-78823981D01*
X118226314Y-78823981D02*
X118083457Y-78752553D01*
X118083457Y-78752553D02*
X117726314Y-78752553D01*
X117726314Y-78752553D02*
X117583457Y-78823981D01*
X117583457Y-78823981D02*
X117512028Y-78895410D01*
X117512028Y-78895410D02*
X117440600Y-79038267D01*
X117440600Y-79038267D02*
X117440600Y-79323981D01*
X117440600Y-79323981D02*
X117512028Y-79466839D01*
X117512028Y-79466839D02*
X117583457Y-79538267D01*
X117583457Y-79538267D02*
X117726314Y-79609696D01*
X117061479Y-121966839D02*
X117061479Y-122252553D01*
X117061479Y-122252553D02*
X117132908Y-122395410D01*
X117132908Y-122395410D02*
X117204336Y-122466839D01*
X117204336Y-122466839D02*
X117418622Y-122609696D01*
X117418622Y-122609696D02*
X117704336Y-122681125D01*
X117704336Y-122681125D02*
X118275765Y-122681125D01*
X118275765Y-122681125D02*
X118418622Y-122609696D01*
X118418622Y-122609696D02*
X118490050Y-122538268D01*
X118490050Y-122538268D02*
X118561479Y-122395410D01*
X118561479Y-122395410D02*
X118561479Y-122109696D01*
X118561479Y-122109696D02*
X118490050Y-121966839D01*
X118490050Y-121966839D02*
X118418622Y-121895410D01*
X118418622Y-121895410D02*
X118275765Y-121823982D01*
X118275765Y-121823982D02*
X117918622Y-121823982D01*
X117918622Y-121823982D02*
X117775765Y-121895410D01*
X117775765Y-121895410D02*
X117704336Y-121966839D01*
X117704336Y-121966839D02*
X117632908Y-122109696D01*
X117632908Y-122109696D02*
X117632908Y-122395410D01*
X117632908Y-122395410D02*
X117704336Y-122538268D01*
X117704336Y-122538268D02*
X117775765Y-122609696D01*
X117775765Y-122609696D02*
X117918622Y-122681125D01*
X119496156Y-77323982D02*
X119424727Y-77538268D01*
X119424727Y-77538268D02*
X119424727Y-77895410D01*
X119424727Y-77895410D02*
X119496156Y-78038268D01*
X119496156Y-78038268D02*
X119567584Y-78109696D01*
X119567584Y-78109696D02*
X119710441Y-78181125D01*
X119710441Y-78181125D02*
X119853298Y-78181125D01*
X119853298Y-78181125D02*
X119996156Y-78109696D01*
X119996156Y-78109696D02*
X120067584Y-78038268D01*
X120067584Y-78038268D02*
X120139013Y-77895410D01*
X120139013Y-77895410D02*
X120210441Y-77609696D01*
X120210441Y-77609696D02*
X120281870Y-77466839D01*
X120281870Y-77466839D02*
X120353298Y-77395410D01*
X120353298Y-77395410D02*
X120496156Y-77323982D01*
X120496156Y-77323982D02*
X120639013Y-77323982D01*
X120639013Y-77323982D02*
X120781870Y-77395410D01*
X120781870Y-77395410D02*
X120853298Y-77466839D01*
X120853298Y-77466839D02*
X120924727Y-77609696D01*
X120924727Y-77609696D02*
X120924727Y-77966839D01*
X120924727Y-77966839D02*
X120853298Y-78181125D01*
X120281870Y-79038267D02*
X120353298Y-78895410D01*
X120353298Y-78895410D02*
X120424727Y-78823981D01*
X120424727Y-78823981D02*
X120567584Y-78752553D01*
X120567584Y-78752553D02*
X120639013Y-78752553D01*
X120639013Y-78752553D02*
X120781870Y-78823981D01*
X120781870Y-78823981D02*
X120853298Y-78895410D01*
X120853298Y-78895410D02*
X120924727Y-79038267D01*
X120924727Y-79038267D02*
X120924727Y-79323981D01*
X120924727Y-79323981D02*
X120853298Y-79466839D01*
X120853298Y-79466839D02*
X120781870Y-79538267D01*
X120781870Y-79538267D02*
X120639013Y-79609696D01*
X120639013Y-79609696D02*
X120567584Y-79609696D01*
X120567584Y-79609696D02*
X120424727Y-79538267D01*
X120424727Y-79538267D02*
X120353298Y-79466839D01*
X120353298Y-79466839D02*
X120281870Y-79323981D01*
X120281870Y-79323981D02*
X120281870Y-79038267D01*
X120281870Y-79038267D02*
X120210441Y-78895410D01*
X120210441Y-78895410D02*
X120139013Y-78823981D01*
X120139013Y-78823981D02*
X119996156Y-78752553D01*
X119996156Y-78752553D02*
X119710441Y-78752553D01*
X119710441Y-78752553D02*
X119567584Y-78823981D01*
X119567584Y-78823981D02*
X119496156Y-78895410D01*
X119496156Y-78895410D02*
X119424727Y-79038267D01*
X119424727Y-79038267D02*
X119424727Y-79323981D01*
X119424727Y-79323981D02*
X119496156Y-79466839D01*
X119496156Y-79466839D02*
X119567584Y-79538267D01*
X119567584Y-79538267D02*
X119710441Y-79609696D01*
X119710441Y-79609696D02*
X119996156Y-79609696D01*
X119996156Y-79609696D02*
X120139013Y-79538267D01*
X120139013Y-79538267D02*
X120210441Y-79466839D01*
X120210441Y-79466839D02*
X120281870Y-79323981D01*
X120457083Y-122109696D02*
X120528511Y-121966839D01*
X120528511Y-121966839D02*
X120599940Y-121895410D01*
X120599940Y-121895410D02*
X120742797Y-121823982D01*
X120742797Y-121823982D02*
X120814226Y-121823982D01*
X120814226Y-121823982D02*
X120957083Y-121895410D01*
X120957083Y-121895410D02*
X121028511Y-121966839D01*
X121028511Y-121966839D02*
X121099940Y-122109696D01*
X121099940Y-122109696D02*
X121099940Y-122395410D01*
X121099940Y-122395410D02*
X121028511Y-122538268D01*
X121028511Y-122538268D02*
X120957083Y-122609696D01*
X120957083Y-122609696D02*
X120814226Y-122681125D01*
X120814226Y-122681125D02*
X120742797Y-122681125D01*
X120742797Y-122681125D02*
X120599940Y-122609696D01*
X120599940Y-122609696D02*
X120528511Y-122538268D01*
X120528511Y-122538268D02*
X120457083Y-122395410D01*
X120457083Y-122395410D02*
X120457083Y-122109696D01*
X120457083Y-122109696D02*
X120385654Y-121966839D01*
X120385654Y-121966839D02*
X120314226Y-121895410D01*
X120314226Y-121895410D02*
X120171369Y-121823982D01*
X120171369Y-121823982D02*
X119885654Y-121823982D01*
X119885654Y-121823982D02*
X119742797Y-121895410D01*
X119742797Y-121895410D02*
X119671369Y-121966839D01*
X119671369Y-121966839D02*
X119599940Y-122109696D01*
X119599940Y-122109696D02*
X119599940Y-122395410D01*
X119599940Y-122395410D02*
X119671369Y-122538268D01*
X119671369Y-122538268D02*
X119742797Y-122609696D01*
X119742797Y-122609696D02*
X119885654Y-122681125D01*
X119885654Y-122681125D02*
X120171369Y-122681125D01*
X120171369Y-122681125D02*
X120314226Y-122609696D01*
X120314226Y-122609696D02*
X120385654Y-122538268D01*
X120385654Y-122538268D02*
X120457083Y-122395410D01*
X122051711Y-77323982D02*
X121980282Y-77538268D01*
X121980282Y-77538268D02*
X121980282Y-77895410D01*
X121980282Y-77895410D02*
X122051711Y-78038268D01*
X122051711Y-78038268D02*
X122123139Y-78109696D01*
X122123139Y-78109696D02*
X122265996Y-78181125D01*
X122265996Y-78181125D02*
X122408853Y-78181125D01*
X122408853Y-78181125D02*
X122551711Y-78109696D01*
X122551711Y-78109696D02*
X122623139Y-78038268D01*
X122623139Y-78038268D02*
X122694568Y-77895410D01*
X122694568Y-77895410D02*
X122765996Y-77609696D01*
X122765996Y-77609696D02*
X122837425Y-77466839D01*
X122837425Y-77466839D02*
X122908853Y-77395410D01*
X122908853Y-77395410D02*
X123051711Y-77323982D01*
X123051711Y-77323982D02*
X123194568Y-77323982D01*
X123194568Y-77323982D02*
X123337425Y-77395410D01*
X123337425Y-77395410D02*
X123408853Y-77466839D01*
X123408853Y-77466839D02*
X123480282Y-77609696D01*
X123480282Y-77609696D02*
X123480282Y-77966839D01*
X123480282Y-77966839D02*
X123408853Y-78181125D01*
X123480282Y-78681124D02*
X123480282Y-79681124D01*
X123480282Y-79681124D02*
X121980282Y-79038267D01*
X123638402Y-121752553D02*
X123638402Y-122752553D01*
X123638402Y-122752553D02*
X122138402Y-122109696D01*
X124607267Y-77323982D02*
X124535838Y-77538268D01*
X124535838Y-77538268D02*
X124535838Y-77895410D01*
X124535838Y-77895410D02*
X124607267Y-78038268D01*
X124607267Y-78038268D02*
X124678695Y-78109696D01*
X124678695Y-78109696D02*
X124821552Y-78181125D01*
X124821552Y-78181125D02*
X124964409Y-78181125D01*
X124964409Y-78181125D02*
X125107267Y-78109696D01*
X125107267Y-78109696D02*
X125178695Y-78038268D01*
X125178695Y-78038268D02*
X125250124Y-77895410D01*
X125250124Y-77895410D02*
X125321552Y-77609696D01*
X125321552Y-77609696D02*
X125392981Y-77466839D01*
X125392981Y-77466839D02*
X125464409Y-77395410D01*
X125464409Y-77395410D02*
X125607267Y-77323982D01*
X125607267Y-77323982D02*
X125750124Y-77323982D01*
X125750124Y-77323982D02*
X125892981Y-77395410D01*
X125892981Y-77395410D02*
X125964409Y-77466839D01*
X125964409Y-77466839D02*
X126035838Y-77609696D01*
X126035838Y-77609696D02*
X126035838Y-77966839D01*
X126035838Y-77966839D02*
X125964409Y-78181125D01*
X126035838Y-79466839D02*
X126035838Y-79181124D01*
X126035838Y-79181124D02*
X125964409Y-79038267D01*
X125964409Y-79038267D02*
X125892981Y-78966839D01*
X125892981Y-78966839D02*
X125678695Y-78823981D01*
X125678695Y-78823981D02*
X125392981Y-78752553D01*
X125392981Y-78752553D02*
X124821552Y-78752553D01*
X124821552Y-78752553D02*
X124678695Y-78823981D01*
X124678695Y-78823981D02*
X124607267Y-78895410D01*
X124607267Y-78895410D02*
X124535838Y-79038267D01*
X124535838Y-79038267D02*
X124535838Y-79323981D01*
X124535838Y-79323981D02*
X124607267Y-79466839D01*
X124607267Y-79466839D02*
X124678695Y-79538267D01*
X124678695Y-79538267D02*
X124821552Y-79609696D01*
X124821552Y-79609696D02*
X125178695Y-79609696D01*
X125178695Y-79609696D02*
X125321552Y-79538267D01*
X125321552Y-79538267D02*
X125392981Y-79466839D01*
X125392981Y-79466839D02*
X125464409Y-79323981D01*
X125464409Y-79323981D02*
X125464409Y-79038267D01*
X125464409Y-79038267D02*
X125392981Y-78895410D01*
X125392981Y-78895410D02*
X125321552Y-78823981D01*
X125321552Y-78823981D02*
X125178695Y-78752553D01*
X126176863Y-122538268D02*
X126176863Y-122252553D01*
X126176863Y-122252553D02*
X126105434Y-122109696D01*
X126105434Y-122109696D02*
X126034006Y-122038268D01*
X126034006Y-122038268D02*
X125819720Y-121895410D01*
X125819720Y-121895410D02*
X125534006Y-121823982D01*
X125534006Y-121823982D02*
X124962577Y-121823982D01*
X124962577Y-121823982D02*
X124819720Y-121895410D01*
X124819720Y-121895410D02*
X124748292Y-121966839D01*
X124748292Y-121966839D02*
X124676863Y-122109696D01*
X124676863Y-122109696D02*
X124676863Y-122395410D01*
X124676863Y-122395410D02*
X124748292Y-122538268D01*
X124748292Y-122538268D02*
X124819720Y-122609696D01*
X124819720Y-122609696D02*
X124962577Y-122681125D01*
X124962577Y-122681125D02*
X125319720Y-122681125D01*
X125319720Y-122681125D02*
X125462577Y-122609696D01*
X125462577Y-122609696D02*
X125534006Y-122538268D01*
X125534006Y-122538268D02*
X125605434Y-122395410D01*
X125605434Y-122395410D02*
X125605434Y-122109696D01*
X125605434Y-122109696D02*
X125534006Y-121966839D01*
X125534006Y-121966839D02*
X125462577Y-121895410D01*
X125462577Y-121895410D02*
X125319720Y-121823982D01*
X127162822Y-77323982D02*
X127091393Y-77538268D01*
X127091393Y-77538268D02*
X127091393Y-77895410D01*
X127091393Y-77895410D02*
X127162822Y-78038268D01*
X127162822Y-78038268D02*
X127234250Y-78109696D01*
X127234250Y-78109696D02*
X127377107Y-78181125D01*
X127377107Y-78181125D02*
X127519964Y-78181125D01*
X127519964Y-78181125D02*
X127662822Y-78109696D01*
X127662822Y-78109696D02*
X127734250Y-78038268D01*
X127734250Y-78038268D02*
X127805679Y-77895410D01*
X127805679Y-77895410D02*
X127877107Y-77609696D01*
X127877107Y-77609696D02*
X127948536Y-77466839D01*
X127948536Y-77466839D02*
X128019964Y-77395410D01*
X128019964Y-77395410D02*
X128162822Y-77323982D01*
X128162822Y-77323982D02*
X128305679Y-77323982D01*
X128305679Y-77323982D02*
X128448536Y-77395410D01*
X128448536Y-77395410D02*
X128519964Y-77466839D01*
X128519964Y-77466839D02*
X128591393Y-77609696D01*
X128591393Y-77609696D02*
X128591393Y-77966839D01*
X128591393Y-77966839D02*
X128519964Y-78181125D01*
X128591393Y-79538267D02*
X128591393Y-78823981D01*
X128591393Y-78823981D02*
X127877107Y-78752553D01*
X127877107Y-78752553D02*
X127948536Y-78823981D01*
X127948536Y-78823981D02*
X128019964Y-78966839D01*
X128019964Y-78966839D02*
X128019964Y-79323981D01*
X128019964Y-79323981D02*
X127948536Y-79466839D01*
X127948536Y-79466839D02*
X127877107Y-79538267D01*
X127877107Y-79538267D02*
X127734250Y-79609696D01*
X127734250Y-79609696D02*
X127377107Y-79609696D01*
X127377107Y-79609696D02*
X127234250Y-79538267D01*
X127234250Y-79538267D02*
X127162822Y-79466839D01*
X127162822Y-79466839D02*
X127091393Y-79323981D01*
X127091393Y-79323981D02*
X127091393Y-78966839D01*
X127091393Y-78966839D02*
X127162822Y-78823981D01*
X127162822Y-78823981D02*
X127234250Y-78752553D01*
X128715325Y-122609696D02*
X128715325Y-121895410D01*
X128715325Y-121895410D02*
X128001039Y-121823982D01*
X128001039Y-121823982D02*
X128072468Y-121895410D01*
X128072468Y-121895410D02*
X128143896Y-122038268D01*
X128143896Y-122038268D02*
X128143896Y-122395410D01*
X128143896Y-122395410D02*
X128072468Y-122538268D01*
X128072468Y-122538268D02*
X128001039Y-122609696D01*
X128001039Y-122609696D02*
X127858182Y-122681125D01*
X127858182Y-122681125D02*
X127501039Y-122681125D01*
X127501039Y-122681125D02*
X127358182Y-122609696D01*
X127358182Y-122609696D02*
X127286754Y-122538268D01*
X127286754Y-122538268D02*
X127215325Y-122395410D01*
X127215325Y-122395410D02*
X127215325Y-122038268D01*
X127215325Y-122038268D02*
X127286754Y-121895410D01*
X127286754Y-121895410D02*
X127358182Y-121823982D01*
X129718378Y-77323982D02*
X129646949Y-77538268D01*
X129646949Y-77538268D02*
X129646949Y-77895410D01*
X129646949Y-77895410D02*
X129718378Y-78038268D01*
X129718378Y-78038268D02*
X129789806Y-78109696D01*
X129789806Y-78109696D02*
X129932663Y-78181125D01*
X129932663Y-78181125D02*
X130075520Y-78181125D01*
X130075520Y-78181125D02*
X130218378Y-78109696D01*
X130218378Y-78109696D02*
X130289806Y-78038268D01*
X130289806Y-78038268D02*
X130361235Y-77895410D01*
X130361235Y-77895410D02*
X130432663Y-77609696D01*
X130432663Y-77609696D02*
X130504092Y-77466839D01*
X130504092Y-77466839D02*
X130575520Y-77395410D01*
X130575520Y-77395410D02*
X130718378Y-77323982D01*
X130718378Y-77323982D02*
X130861235Y-77323982D01*
X130861235Y-77323982D02*
X131004092Y-77395410D01*
X131004092Y-77395410D02*
X131075520Y-77466839D01*
X131075520Y-77466839D02*
X131146949Y-77609696D01*
X131146949Y-77609696D02*
X131146949Y-77966839D01*
X131146949Y-77966839D02*
X131075520Y-78181125D01*
X130646949Y-79466839D02*
X129646949Y-79466839D01*
X131218378Y-79109696D02*
X130146949Y-78752553D01*
X130146949Y-78752553D02*
X130146949Y-79681124D01*
X130753786Y-122538268D02*
X129753786Y-122538268D01*
X131325215Y-122181125D02*
X130253786Y-121823982D01*
X130253786Y-121823982D02*
X130253786Y-122752553D01*
X132273933Y-77323982D02*
X132202504Y-77538268D01*
X132202504Y-77538268D02*
X132202504Y-77895410D01*
X132202504Y-77895410D02*
X132273933Y-78038268D01*
X132273933Y-78038268D02*
X132345361Y-78109696D01*
X132345361Y-78109696D02*
X132488218Y-78181125D01*
X132488218Y-78181125D02*
X132631075Y-78181125D01*
X132631075Y-78181125D02*
X132773933Y-78109696D01*
X132773933Y-78109696D02*
X132845361Y-78038268D01*
X132845361Y-78038268D02*
X132916790Y-77895410D01*
X132916790Y-77895410D02*
X132988218Y-77609696D01*
X132988218Y-77609696D02*
X133059647Y-77466839D01*
X133059647Y-77466839D02*
X133131075Y-77395410D01*
X133131075Y-77395410D02*
X133273933Y-77323982D01*
X133273933Y-77323982D02*
X133416790Y-77323982D01*
X133416790Y-77323982D02*
X133559647Y-77395410D01*
X133559647Y-77395410D02*
X133631075Y-77466839D01*
X133631075Y-77466839D02*
X133702504Y-77609696D01*
X133702504Y-77609696D02*
X133702504Y-77966839D01*
X133702504Y-77966839D02*
X133631075Y-78181125D01*
X133702504Y-78681124D02*
X133702504Y-79609696D01*
X133702504Y-79609696D02*
X133131075Y-79109696D01*
X133131075Y-79109696D02*
X133131075Y-79323981D01*
X133131075Y-79323981D02*
X133059647Y-79466839D01*
X133059647Y-79466839D02*
X132988218Y-79538267D01*
X132988218Y-79538267D02*
X132845361Y-79609696D01*
X132845361Y-79609696D02*
X132488218Y-79609696D01*
X132488218Y-79609696D02*
X132345361Y-79538267D01*
X132345361Y-79538267D02*
X132273933Y-79466839D01*
X132273933Y-79466839D02*
X132202504Y-79323981D01*
X132202504Y-79323981D02*
X132202504Y-78895410D01*
X132202504Y-78895410D02*
X132273933Y-78752553D01*
X132273933Y-78752553D02*
X132345361Y-78681124D01*
X133792248Y-121752553D02*
X133792248Y-122681125D01*
X133792248Y-122681125D02*
X133220819Y-122181125D01*
X133220819Y-122181125D02*
X133220819Y-122395410D01*
X133220819Y-122395410D02*
X133149391Y-122538268D01*
X133149391Y-122538268D02*
X133077962Y-122609696D01*
X133077962Y-122609696D02*
X132935105Y-122681125D01*
X132935105Y-122681125D02*
X132577962Y-122681125D01*
X132577962Y-122681125D02*
X132435105Y-122609696D01*
X132435105Y-122609696D02*
X132363677Y-122538268D01*
X132363677Y-122538268D02*
X132292248Y-122395410D01*
X132292248Y-122395410D02*
X132292248Y-121966839D01*
X132292248Y-121966839D02*
X132363677Y-121823982D01*
X132363677Y-121823982D02*
X132435105Y-121752553D01*
X134829489Y-77323982D02*
X134758060Y-77538268D01*
X134758060Y-77538268D02*
X134758060Y-77895410D01*
X134758060Y-77895410D02*
X134829489Y-78038268D01*
X134829489Y-78038268D02*
X134900917Y-78109696D01*
X134900917Y-78109696D02*
X135043774Y-78181125D01*
X135043774Y-78181125D02*
X135186631Y-78181125D01*
X135186631Y-78181125D02*
X135329489Y-78109696D01*
X135329489Y-78109696D02*
X135400917Y-78038268D01*
X135400917Y-78038268D02*
X135472346Y-77895410D01*
X135472346Y-77895410D02*
X135543774Y-77609696D01*
X135543774Y-77609696D02*
X135615203Y-77466839D01*
X135615203Y-77466839D02*
X135686631Y-77395410D01*
X135686631Y-77395410D02*
X135829489Y-77323982D01*
X135829489Y-77323982D02*
X135972346Y-77323982D01*
X135972346Y-77323982D02*
X136115203Y-77395410D01*
X136115203Y-77395410D02*
X136186631Y-77466839D01*
X136186631Y-77466839D02*
X136258060Y-77609696D01*
X136258060Y-77609696D02*
X136258060Y-77966839D01*
X136258060Y-77966839D02*
X136186631Y-78181125D01*
X136115203Y-78752553D02*
X136186631Y-78823981D01*
X136186631Y-78823981D02*
X136258060Y-78966839D01*
X136258060Y-78966839D02*
X136258060Y-79323981D01*
X136258060Y-79323981D02*
X136186631Y-79466839D01*
X136186631Y-79466839D02*
X136115203Y-79538267D01*
X136115203Y-79538267D02*
X135972346Y-79609696D01*
X135972346Y-79609696D02*
X135829489Y-79609696D01*
X135829489Y-79609696D02*
X135615203Y-79538267D01*
X135615203Y-79538267D02*
X134758060Y-78681124D01*
X134758060Y-78681124D02*
X134758060Y-79609696D01*
X136187852Y-121823982D02*
X136259280Y-121895410D01*
X136259280Y-121895410D02*
X136330709Y-122038268D01*
X136330709Y-122038268D02*
X136330709Y-122395410D01*
X136330709Y-122395410D02*
X136259280Y-122538268D01*
X136259280Y-122538268D02*
X136187852Y-122609696D01*
X136187852Y-122609696D02*
X136044995Y-122681125D01*
X136044995Y-122681125D02*
X135902138Y-122681125D01*
X135902138Y-122681125D02*
X135687852Y-122609696D01*
X135687852Y-122609696D02*
X134830709Y-121752553D01*
X134830709Y-121752553D02*
X134830709Y-122681125D01*
X137385044Y-77323982D02*
X137313615Y-77538268D01*
X137313615Y-77538268D02*
X137313615Y-77895410D01*
X137313615Y-77895410D02*
X137385044Y-78038268D01*
X137385044Y-78038268D02*
X137456472Y-78109696D01*
X137456472Y-78109696D02*
X137599329Y-78181125D01*
X137599329Y-78181125D02*
X137742186Y-78181125D01*
X137742186Y-78181125D02*
X137885044Y-78109696D01*
X137885044Y-78109696D02*
X137956472Y-78038268D01*
X137956472Y-78038268D02*
X138027901Y-77895410D01*
X138027901Y-77895410D02*
X138099329Y-77609696D01*
X138099329Y-77609696D02*
X138170758Y-77466839D01*
X138170758Y-77466839D02*
X138242186Y-77395410D01*
X138242186Y-77395410D02*
X138385044Y-77323982D01*
X138385044Y-77323982D02*
X138527901Y-77323982D01*
X138527901Y-77323982D02*
X138670758Y-77395410D01*
X138670758Y-77395410D02*
X138742186Y-77466839D01*
X138742186Y-77466839D02*
X138813615Y-77609696D01*
X138813615Y-77609696D02*
X138813615Y-77966839D01*
X138813615Y-77966839D02*
X138742186Y-78181125D01*
X137313615Y-79609696D02*
X137313615Y-78752553D01*
X137313615Y-79181124D02*
X138813615Y-79181124D01*
X138813615Y-79181124D02*
X138599329Y-79038267D01*
X138599329Y-79038267D02*
X138456472Y-78895410D01*
X138456472Y-78895410D02*
X138385044Y-78752553D01*
X137369171Y-122681125D02*
X137369171Y-121823982D01*
X137369171Y-122252553D02*
X138869171Y-122252553D01*
X138869171Y-122252553D02*
X138654885Y-122109696D01*
X138654885Y-122109696D02*
X138512028Y-121966839D01*
X138512028Y-121966839D02*
X138440600Y-121823982D01*
X139940600Y-77323982D02*
X139869171Y-77538268D01*
X139869171Y-77538268D02*
X139869171Y-77895410D01*
X139869171Y-77895410D02*
X139940600Y-78038268D01*
X139940600Y-78038268D02*
X140012028Y-78109696D01*
X140012028Y-78109696D02*
X140154885Y-78181125D01*
X140154885Y-78181125D02*
X140297742Y-78181125D01*
X140297742Y-78181125D02*
X140440600Y-78109696D01*
X140440600Y-78109696D02*
X140512028Y-78038268D01*
X140512028Y-78038268D02*
X140583457Y-77895410D01*
X140583457Y-77895410D02*
X140654885Y-77609696D01*
X140654885Y-77609696D02*
X140726314Y-77466839D01*
X140726314Y-77466839D02*
X140797742Y-77395410D01*
X140797742Y-77395410D02*
X140940600Y-77323982D01*
X140940600Y-77323982D02*
X141083457Y-77323982D01*
X141083457Y-77323982D02*
X141226314Y-77395410D01*
X141226314Y-77395410D02*
X141297742Y-77466839D01*
X141297742Y-77466839D02*
X141369171Y-77609696D01*
X141369171Y-77609696D02*
X141369171Y-77966839D01*
X141369171Y-77966839D02*
X141297742Y-78181125D01*
X141369171Y-79109696D02*
X141369171Y-79252553D01*
X141369171Y-79252553D02*
X141297742Y-79395410D01*
X141297742Y-79395410D02*
X141226314Y-79466839D01*
X141226314Y-79466839D02*
X141083457Y-79538267D01*
X141083457Y-79538267D02*
X140797742Y-79609696D01*
X140797742Y-79609696D02*
X140440600Y-79609696D01*
X140440600Y-79609696D02*
X140154885Y-79538267D01*
X140154885Y-79538267D02*
X140012028Y-79466839D01*
X140012028Y-79466839D02*
X139940600Y-79395410D01*
X139940600Y-79395410D02*
X139869171Y-79252553D01*
X139869171Y-79252553D02*
X139869171Y-79109696D01*
X139869171Y-79109696D02*
X139940600Y-78966839D01*
X139940600Y-78966839D02*
X140012028Y-78895410D01*
X140012028Y-78895410D02*
X140154885Y-78823981D01*
X140154885Y-78823981D02*
X140440600Y-78752553D01*
X140440600Y-78752553D02*
X140797742Y-78752553D01*
X140797742Y-78752553D02*
X141083457Y-78823981D01*
X141083457Y-78823981D02*
X141226314Y-78895410D01*
X141226314Y-78895410D02*
X141297742Y-78966839D01*
X141297742Y-78966839D02*
X141369171Y-79109696D01*
D13*
X140086666Y-117454819D02*
X140086666Y-118169104D01*
X140086666Y-118169104D02*
X140039047Y-118311961D01*
X140039047Y-118311961D02*
X139943809Y-118407200D01*
X139943809Y-118407200D02*
X139800952Y-118454819D01*
X139800952Y-118454819D02*
X139705714Y-118454819D01*
X140991428Y-117454819D02*
X140800952Y-117454819D01*
X140800952Y-117454819D02*
X140705714Y-117502438D01*
X140705714Y-117502438D02*
X140658095Y-117550057D01*
X140658095Y-117550057D02*
X140562857Y-117692914D01*
X140562857Y-117692914D02*
X140515238Y-117883390D01*
X140515238Y-117883390D02*
X140515238Y-118264342D01*
X140515238Y-118264342D02*
X140562857Y-118359580D01*
X140562857Y-118359580D02*
X140610476Y-118407200D01*
X140610476Y-118407200D02*
X140705714Y-118454819D01*
X140705714Y-118454819D02*
X140896190Y-118454819D01*
X140896190Y-118454819D02*
X140991428Y-118407200D01*
X140991428Y-118407200D02*
X141039047Y-118359580D01*
X141039047Y-118359580D02*
X141086666Y-118264342D01*
X141086666Y-118264342D02*
X141086666Y-118026247D01*
X141086666Y-118026247D02*
X141039047Y-117931009D01*
X141039047Y-117931009D02*
X140991428Y-117883390D01*
X140991428Y-117883390D02*
X140896190Y-117835771D01*
X140896190Y-117835771D02*
X140705714Y-117835771D01*
X140705714Y-117835771D02*
X140610476Y-117883390D01*
X140610476Y-117883390D02*
X140562857Y-117931009D01*
X140562857Y-117931009D02*
X140515238Y-118026247D01*
X188703866Y-78731851D02*
X188703866Y-77969947D01*
X189084819Y-78350899D02*
X188322914Y-78350899D01*
X190536666Y-60795719D02*
X190536666Y-61510004D01*
X190536666Y-61510004D02*
X190489047Y-61652861D01*
X190489047Y-61652861D02*
X190393809Y-61748100D01*
X190393809Y-61748100D02*
X190250952Y-61795719D01*
X190250952Y-61795719D02*
X190155714Y-61795719D01*
X191441428Y-61129052D02*
X191441428Y-61795719D01*
X191203333Y-60748100D02*
X190965238Y-61462385D01*
X190965238Y-61462385D02*
X191584285Y-61462385D01*
X140216666Y-125795719D02*
X140216666Y-126510004D01*
X140216666Y-126510004D02*
X140169047Y-126652861D01*
X140169047Y-126652861D02*
X140073809Y-126748100D01*
X140073809Y-126748100D02*
X139930952Y-126795719D01*
X139930952Y-126795719D02*
X139835714Y-126795719D01*
X140597619Y-125795719D02*
X141264285Y-125795719D01*
X141264285Y-125795719D02*
X140835714Y-126795719D01*
X110744819Y-81460423D02*
X110744819Y-80841376D01*
X110744819Y-80841376D02*
X111125771Y-81174709D01*
X111125771Y-81174709D02*
X111125771Y-81031852D01*
X111125771Y-81031852D02*
X111173390Y-80936614D01*
X111173390Y-80936614D02*
X111221009Y-80888995D01*
X111221009Y-80888995D02*
X111316247Y-80841376D01*
X111316247Y-80841376D02*
X111554342Y-80841376D01*
X111554342Y-80841376D02*
X111649580Y-80888995D01*
X111649580Y-80888995D02*
X111697200Y-80936614D01*
X111697200Y-80936614D02*
X111744819Y-81031852D01*
X111744819Y-81031852D02*
X111744819Y-81317566D01*
X111744819Y-81317566D02*
X111697200Y-81412804D01*
X111697200Y-81412804D02*
X111649580Y-81460423D01*
X111744819Y-80412804D02*
X110744819Y-80412804D01*
X111744819Y-79841376D02*
X111173390Y-80269947D01*
X110744819Y-79841376D02*
X111316247Y-80412804D01*
X110744819Y-79508042D02*
X110744819Y-78888995D01*
X110744819Y-78888995D02*
X111125771Y-79222328D01*
X111125771Y-79222328D02*
X111125771Y-79079471D01*
X111125771Y-79079471D02*
X111173390Y-78984233D01*
X111173390Y-78984233D02*
X111221009Y-78936614D01*
X111221009Y-78936614D02*
X111316247Y-78888995D01*
X111316247Y-78888995D02*
X111554342Y-78888995D01*
X111554342Y-78888995D02*
X111649580Y-78936614D01*
X111649580Y-78936614D02*
X111697200Y-78984233D01*
X111697200Y-78984233D02*
X111744819Y-79079471D01*
X111744819Y-79079471D02*
X111744819Y-79365185D01*
X111744819Y-79365185D02*
X111697200Y-79460423D01*
X111697200Y-79460423D02*
X111649580Y-79508042D01*
X164312857Y-88831009D02*
X164455714Y-88878628D01*
X164455714Y-88878628D02*
X164503333Y-88926247D01*
X164503333Y-88926247D02*
X164550952Y-89021485D01*
X164550952Y-89021485D02*
X164550952Y-89164342D01*
X164550952Y-89164342D02*
X164503333Y-89259580D01*
X164503333Y-89259580D02*
X164455714Y-89307200D01*
X164455714Y-89307200D02*
X164360476Y-89354819D01*
X164360476Y-89354819D02*
X163979524Y-89354819D01*
X163979524Y-89354819D02*
X163979524Y-88354819D01*
X163979524Y-88354819D02*
X164312857Y-88354819D01*
X164312857Y-88354819D02*
X164408095Y-88402438D01*
X164408095Y-88402438D02*
X164455714Y-88450057D01*
X164455714Y-88450057D02*
X164503333Y-88545295D01*
X164503333Y-88545295D02*
X164503333Y-88640533D01*
X164503333Y-88640533D02*
X164455714Y-88735771D01*
X164455714Y-88735771D02*
X164408095Y-88783390D01*
X164408095Y-88783390D02*
X164312857Y-88831009D01*
X164312857Y-88831009D02*
X163979524Y-88831009D01*
X165550952Y-89259580D02*
X165503333Y-89307200D01*
X165503333Y-89307200D02*
X165360476Y-89354819D01*
X165360476Y-89354819D02*
X165265238Y-89354819D01*
X165265238Y-89354819D02*
X165122381Y-89307200D01*
X165122381Y-89307200D02*
X165027143Y-89211961D01*
X165027143Y-89211961D02*
X164979524Y-89116723D01*
X164979524Y-89116723D02*
X164931905Y-88926247D01*
X164931905Y-88926247D02*
X164931905Y-88783390D01*
X164931905Y-88783390D02*
X164979524Y-88592914D01*
X164979524Y-88592914D02*
X165027143Y-88497676D01*
X165027143Y-88497676D02*
X165122381Y-88402438D01*
X165122381Y-88402438D02*
X165265238Y-88354819D01*
X165265238Y-88354819D02*
X165360476Y-88354819D01*
X165360476Y-88354819D02*
X165503333Y-88402438D01*
X165503333Y-88402438D02*
X165550952Y-88450057D01*
X165884286Y-88354819D02*
X166503333Y-88354819D01*
X166503333Y-88354819D02*
X166170000Y-88735771D01*
X166170000Y-88735771D02*
X166312857Y-88735771D01*
X166312857Y-88735771D02*
X166408095Y-88783390D01*
X166408095Y-88783390D02*
X166455714Y-88831009D01*
X166455714Y-88831009D02*
X166503333Y-88926247D01*
X166503333Y-88926247D02*
X166503333Y-89164342D01*
X166503333Y-89164342D02*
X166455714Y-89259580D01*
X166455714Y-89259580D02*
X166408095Y-89307200D01*
X166408095Y-89307200D02*
X166312857Y-89354819D01*
X166312857Y-89354819D02*
X166027143Y-89354819D01*
X166027143Y-89354819D02*
X165931905Y-89307200D01*
X165931905Y-89307200D02*
X165884286Y-89259580D01*
X166836667Y-88354819D02*
X167455714Y-88354819D01*
X167455714Y-88354819D02*
X167122381Y-88735771D01*
X167122381Y-88735771D02*
X167265238Y-88735771D01*
X167265238Y-88735771D02*
X167360476Y-88783390D01*
X167360476Y-88783390D02*
X167408095Y-88831009D01*
X167408095Y-88831009D02*
X167455714Y-88926247D01*
X167455714Y-88926247D02*
X167455714Y-89164342D01*
X167455714Y-89164342D02*
X167408095Y-89259580D01*
X167408095Y-89259580D02*
X167360476Y-89307200D01*
X167360476Y-89307200D02*
X167265238Y-89354819D01*
X167265238Y-89354819D02*
X166979524Y-89354819D01*
X166979524Y-89354819D02*
X166884286Y-89307200D01*
X166884286Y-89307200D02*
X166836667Y-89259580D01*
X167789048Y-88354819D02*
X168455714Y-88354819D01*
X168455714Y-88354819D02*
X168027143Y-89354819D01*
X145479523Y-85795719D02*
X145146190Y-85319528D01*
X144908095Y-85795719D02*
X144908095Y-84795719D01*
X144908095Y-84795719D02*
X145289047Y-84795719D01*
X145289047Y-84795719D02*
X145384285Y-84843338D01*
X145384285Y-84843338D02*
X145431904Y-84890957D01*
X145431904Y-84890957D02*
X145479523Y-84986195D01*
X145479523Y-84986195D02*
X145479523Y-85129052D01*
X145479523Y-85129052D02*
X145431904Y-85224290D01*
X145431904Y-85224290D02*
X145384285Y-85271909D01*
X145384285Y-85271909D02*
X145289047Y-85319528D01*
X145289047Y-85319528D02*
X144908095Y-85319528D01*
X145908095Y-85795719D02*
X145908095Y-84795719D01*
X145908095Y-84795719D02*
X146479523Y-85795719D01*
X146479523Y-85795719D02*
X146479523Y-84795719D01*
X147479523Y-85795719D02*
X146908095Y-85795719D01*
X147193809Y-85795719D02*
X147193809Y-84795719D01*
X147193809Y-84795719D02*
X147098571Y-84938576D01*
X147098571Y-84938576D02*
X147003333Y-85033814D01*
X147003333Y-85033814D02*
X146908095Y-85081433D01*
X163952380Y-85554819D02*
X163380952Y-85554819D01*
X163666666Y-85554819D02*
X163666666Y-84554819D01*
X163666666Y-84554819D02*
X163571428Y-84697676D01*
X163571428Y-84697676D02*
X163476190Y-84792914D01*
X163476190Y-84792914D02*
X163380952Y-84840533D01*
X164571428Y-84554819D02*
X164666666Y-84554819D01*
X164666666Y-84554819D02*
X164761904Y-84602438D01*
X164761904Y-84602438D02*
X164809523Y-84650057D01*
X164809523Y-84650057D02*
X164857142Y-84745295D01*
X164857142Y-84745295D02*
X164904761Y-84935771D01*
X164904761Y-84935771D02*
X164904761Y-85173866D01*
X164904761Y-85173866D02*
X164857142Y-85364342D01*
X164857142Y-85364342D02*
X164809523Y-85459580D01*
X164809523Y-85459580D02*
X164761904Y-85507200D01*
X164761904Y-85507200D02*
X164666666Y-85554819D01*
X164666666Y-85554819D02*
X164571428Y-85554819D01*
X164571428Y-85554819D02*
X164476190Y-85507200D01*
X164476190Y-85507200D02*
X164428571Y-85459580D01*
X164428571Y-85459580D02*
X164380952Y-85364342D01*
X164380952Y-85364342D02*
X164333333Y-85173866D01*
X164333333Y-85173866D02*
X164333333Y-84935771D01*
X164333333Y-84935771D02*
X164380952Y-84745295D01*
X164380952Y-84745295D02*
X164428571Y-84650057D01*
X164428571Y-84650057D02*
X164476190Y-84602438D01*
X164476190Y-84602438D02*
X164571428Y-84554819D01*
X165523809Y-84554819D02*
X165619047Y-84554819D01*
X165619047Y-84554819D02*
X165714285Y-84602438D01*
X165714285Y-84602438D02*
X165761904Y-84650057D01*
X165761904Y-84650057D02*
X165809523Y-84745295D01*
X165809523Y-84745295D02*
X165857142Y-84935771D01*
X165857142Y-84935771D02*
X165857142Y-85173866D01*
X165857142Y-85173866D02*
X165809523Y-85364342D01*
X165809523Y-85364342D02*
X165761904Y-85459580D01*
X165761904Y-85459580D02*
X165714285Y-85507200D01*
X165714285Y-85507200D02*
X165619047Y-85554819D01*
X165619047Y-85554819D02*
X165523809Y-85554819D01*
X165523809Y-85554819D02*
X165428571Y-85507200D01*
X165428571Y-85507200D02*
X165380952Y-85459580D01*
X165380952Y-85459580D02*
X165333333Y-85364342D01*
X165333333Y-85364342D02*
X165285714Y-85173866D01*
X165285714Y-85173866D02*
X165285714Y-84935771D01*
X165285714Y-84935771D02*
X165333333Y-84745295D01*
X165333333Y-84745295D02*
X165380952Y-84650057D01*
X165380952Y-84650057D02*
X165428571Y-84602438D01*
X165428571Y-84602438D02*
X165523809Y-84554819D01*
X166714285Y-84888152D02*
X166714285Y-85554819D01*
X166285714Y-84888152D02*
X166285714Y-85411961D01*
X166285714Y-85411961D02*
X166333333Y-85507200D01*
X166333333Y-85507200D02*
X166428571Y-85554819D01*
X166428571Y-85554819D02*
X166571428Y-85554819D01*
X166571428Y-85554819D02*
X166666666Y-85507200D01*
X166666666Y-85507200D02*
X166714285Y-85459580D01*
X167523809Y-85031009D02*
X167190476Y-85031009D01*
X167190476Y-85554819D02*
X167190476Y-84554819D01*
X167190476Y-84554819D02*
X167666666Y-84554819D01*
X172336666Y-70795719D02*
X172336666Y-71510004D01*
X172336666Y-71510004D02*
X172289047Y-71652861D01*
X172289047Y-71652861D02*
X172193809Y-71748100D01*
X172193809Y-71748100D02*
X172050952Y-71795719D01*
X172050952Y-71795719D02*
X171955714Y-71795719D01*
X172717619Y-70795719D02*
X173336666Y-70795719D01*
X173336666Y-70795719D02*
X173003333Y-71176671D01*
X173003333Y-71176671D02*
X173146190Y-71176671D01*
X173146190Y-71176671D02*
X173241428Y-71224290D01*
X173241428Y-71224290D02*
X173289047Y-71271909D01*
X173289047Y-71271909D02*
X173336666Y-71367147D01*
X173336666Y-71367147D02*
X173336666Y-71605242D01*
X173336666Y-71605242D02*
X173289047Y-71700480D01*
X173289047Y-71700480D02*
X173241428Y-71748100D01*
X173241428Y-71748100D02*
X173146190Y-71795719D01*
X173146190Y-71795719D02*
X172860476Y-71795719D01*
X172860476Y-71795719D02*
X172765238Y-71748100D01*
X172765238Y-71748100D02*
X172717619Y-71700480D01*
X151359523Y-82795719D02*
X150788095Y-82795719D01*
X151073809Y-82795719D02*
X151073809Y-81795719D01*
X151073809Y-81795719D02*
X150978571Y-81938576D01*
X150978571Y-81938576D02*
X150883333Y-82033814D01*
X150883333Y-82033814D02*
X150788095Y-82081433D01*
X151978571Y-81795719D02*
X152073809Y-81795719D01*
X152073809Y-81795719D02*
X152169047Y-81843338D01*
X152169047Y-81843338D02*
X152216666Y-81890957D01*
X152216666Y-81890957D02*
X152264285Y-81986195D01*
X152264285Y-81986195D02*
X152311904Y-82176671D01*
X152311904Y-82176671D02*
X152311904Y-82414766D01*
X152311904Y-82414766D02*
X152264285Y-82605242D01*
X152264285Y-82605242D02*
X152216666Y-82700480D01*
X152216666Y-82700480D02*
X152169047Y-82748100D01*
X152169047Y-82748100D02*
X152073809Y-82795719D01*
X152073809Y-82795719D02*
X151978571Y-82795719D01*
X151978571Y-82795719D02*
X151883333Y-82748100D01*
X151883333Y-82748100D02*
X151835714Y-82700480D01*
X151835714Y-82700480D02*
X151788095Y-82605242D01*
X151788095Y-82605242D02*
X151740476Y-82414766D01*
X151740476Y-82414766D02*
X151740476Y-82176671D01*
X151740476Y-82176671D02*
X151788095Y-81986195D01*
X151788095Y-81986195D02*
X151835714Y-81890957D01*
X151835714Y-81890957D02*
X151883333Y-81843338D01*
X151883333Y-81843338D02*
X151978571Y-81795719D01*
X152740476Y-82795719D02*
X152740476Y-81795719D01*
X153311904Y-82795719D02*
X152883333Y-82224290D01*
X153311904Y-81795719D02*
X152740476Y-82367147D01*
X146459160Y-93510004D02*
X146935350Y-93510004D01*
X146363922Y-93795719D02*
X146697255Y-92795719D01*
X146697255Y-92795719D02*
X147030588Y-93795719D01*
X147887731Y-93795719D02*
X147316303Y-93795719D01*
X147602017Y-93795719D02*
X147602017Y-92795719D01*
X147602017Y-92795719D02*
X147506779Y-92938576D01*
X147506779Y-92938576D02*
X147411541Y-93033814D01*
X147411541Y-93033814D02*
X147316303Y-93081433D01*
X169527619Y-81795719D02*
X169527619Y-82510004D01*
X169527619Y-82510004D02*
X169480000Y-82652861D01*
X169480000Y-82652861D02*
X169384762Y-82748100D01*
X169384762Y-82748100D02*
X169241905Y-82795719D01*
X169241905Y-82795719D02*
X169146667Y-82795719D01*
X170003810Y-81795719D02*
X170003810Y-82605242D01*
X170003810Y-82605242D02*
X170051429Y-82700480D01*
X170051429Y-82700480D02*
X170099048Y-82748100D01*
X170099048Y-82748100D02*
X170194286Y-82795719D01*
X170194286Y-82795719D02*
X170384762Y-82795719D01*
X170384762Y-82795719D02*
X170480000Y-82748100D01*
X170480000Y-82748100D02*
X170527619Y-82700480D01*
X170527619Y-82700480D02*
X170575238Y-82605242D01*
X170575238Y-82605242D02*
X170575238Y-81795719D01*
X171051429Y-82795719D02*
X171051429Y-81795719D01*
X171051429Y-81795719D02*
X171384762Y-82510004D01*
X171384762Y-82510004D02*
X171718095Y-81795719D01*
X171718095Y-81795719D02*
X171718095Y-82795719D01*
X172194286Y-82795719D02*
X172194286Y-81795719D01*
X172194286Y-81795719D02*
X172575238Y-81795719D01*
X172575238Y-81795719D02*
X172670476Y-81843338D01*
X172670476Y-81843338D02*
X172718095Y-81890957D01*
X172718095Y-81890957D02*
X172765714Y-81986195D01*
X172765714Y-81986195D02*
X172765714Y-82129052D01*
X172765714Y-82129052D02*
X172718095Y-82224290D01*
X172718095Y-82224290D02*
X172670476Y-82271909D01*
X172670476Y-82271909D02*
X172575238Y-82319528D01*
X172575238Y-82319528D02*
X172194286Y-82319528D01*
G36*
X201349859Y-68901965D02*
G01*
X201349859Y-69402908D01*
X201347851Y-69468766D01*
X201341615Y-69526433D01*
X201333080Y-69567791D01*
X201321282Y-69603642D01*
X201308353Y-69630150D01*
X201292751Y-69652595D01*
X201276159Y-69669478D01*
X201257178Y-69683027D01*
X201213019Y-69699890D01*
X201167837Y-69704364D01*
X201118866Y-69698808D01*
X201099266Y-69680612D01*
X201065682Y-69504818D01*
X200987280Y-69504818D01*
X200987280Y-69737948D01*
X201037701Y-69753418D01*
X201086674Y-69764146D01*
X201170646Y-69771531D01*
X201215713Y-69769573D01*
X201256895Y-69763686D01*
X201291395Y-69754786D01*
X201322733Y-69742527D01*
X201349508Y-69727835D01*
X201373559Y-69710111D01*
X201413066Y-69666417D01*
X201443213Y-69609423D01*
X201464260Y-69535328D01*
X201474960Y-69438682D01*
X201475827Y-69397351D01*
X201475827Y-68901965D01*
X201499641Y-68882426D01*
X201586469Y-68874061D01*
X201586469Y-68818007D01*
X201232256Y-68818007D01*
X201232256Y-68874061D01*
X201326045Y-68882426D01*
X201349859Y-68901965D01*
G37*
G36*
X201733198Y-68818007D02*
G01*
X201733198Y-69279687D01*
X201821927Y-69271781D01*
X201856418Y-69271322D01*
X201911705Y-69273288D01*
X201961154Y-69279236D01*
X202000085Y-69287890D01*
X202034449Y-69299777D01*
X202061544Y-69313323D01*
X202084929Y-69329582D01*
X202103430Y-69347258D01*
X202118699Y-69367368D01*
X202139303Y-69414095D01*
X202147524Y-69472701D01*
X202147617Y-69480333D01*
X202145692Y-69512642D01*
X202140037Y-69543161D01*
X202130868Y-69571579D01*
X202118345Y-69597798D01*
X202102740Y-69621482D01*
X202084165Y-69642577D01*
X202062929Y-69660774D01*
X202039099Y-69676006D01*
X202012966Y-69688022D01*
X201984596Y-69696698D01*
X201926394Y-69703265D01*
X201862056Y-69695430D01*
X201832605Y-69686535D01*
X201776612Y-69566733D01*
X201743029Y-69562520D01*
X201723157Y-69564418D01*
X201705438Y-69569888D01*
X201690344Y-69578515D01*
X201678082Y-69590000D01*
X201669155Y-69603714D01*
X201663623Y-69619549D01*
X201661818Y-69636404D01*
X201669416Y-69668868D01*
X201693178Y-69701097D01*
X201735476Y-69731159D01*
X201797077Y-69754740D01*
X201834398Y-69762501D01*
X201875261Y-69766835D01*
X201902580Y-69767623D01*
X201949104Y-69765700D01*
X201993045Y-69760051D01*
X202034043Y-69750924D01*
X202072257Y-69738477D01*
X202107306Y-69723021D01*
X202139388Y-69704647D01*
X202168154Y-69683723D01*
X202193784Y-69660273D01*
X202216009Y-69634675D01*
X202234929Y-69606924D01*
X202250371Y-69577339D01*
X202262329Y-69545951D01*
X202270693Y-69512958D01*
X202275369Y-69478493D01*
X202276394Y-69452489D01*
X202274460Y-69418081D01*
X202268742Y-69385450D01*
X202259501Y-69355116D01*
X202246808Y-69326794D01*
X202230881Y-69300764D01*
X202211772Y-69276996D01*
X202164291Y-69236673D01*
X202104636Y-69206834D01*
X202032992Y-69188975D01*
X201969808Y-69184554D01*
X201927351Y-69186546D01*
X201882029Y-69192674D01*
X201820026Y-69206964D01*
X201820026Y-68927245D01*
X202234384Y-68927245D01*
X202234384Y-68818007D01*
X201733198Y-68818007D01*
G37*
X142836666Y-70795719D02*
X142836666Y-71510004D01*
X142836666Y-71510004D02*
X142789047Y-71652861D01*
X142789047Y-71652861D02*
X142693809Y-71748100D01*
X142693809Y-71748100D02*
X142550952Y-71795719D01*
X142550952Y-71795719D02*
X142455714Y-71795719D01*
X143265238Y-70890957D02*
X143312857Y-70843338D01*
X143312857Y-70843338D02*
X143408095Y-70795719D01*
X143408095Y-70795719D02*
X143646190Y-70795719D01*
X143646190Y-70795719D02*
X143741428Y-70843338D01*
X143741428Y-70843338D02*
X143789047Y-70890957D01*
X143789047Y-70890957D02*
X143836666Y-70986195D01*
X143836666Y-70986195D02*
X143836666Y-71081433D01*
X143836666Y-71081433D02*
X143789047Y-71224290D01*
X143789047Y-71224290D02*
X143217619Y-71795719D01*
X143217619Y-71795719D02*
X143836666Y-71795719D01*
X143274819Y-79341376D02*
X142798628Y-79674709D01*
X143274819Y-79912804D02*
X142274819Y-79912804D01*
X142274819Y-79912804D02*
X142274819Y-79531852D01*
X142274819Y-79531852D02*
X142322438Y-79436614D01*
X142322438Y-79436614D02*
X142370057Y-79388995D01*
X142370057Y-79388995D02*
X142465295Y-79341376D01*
X142465295Y-79341376D02*
X142608152Y-79341376D01*
X142608152Y-79341376D02*
X142703390Y-79388995D01*
X142703390Y-79388995D02*
X142751009Y-79436614D01*
X142751009Y-79436614D02*
X142798628Y-79531852D01*
X142798628Y-79531852D02*
X142798628Y-79912804D01*
X143274819Y-78912804D02*
X142274819Y-78912804D01*
X142274819Y-78912804D02*
X143274819Y-78341376D01*
X143274819Y-78341376D02*
X142274819Y-78341376D01*
X142274819Y-77960423D02*
X142274819Y-77341376D01*
X142274819Y-77341376D02*
X142655771Y-77674709D01*
X142655771Y-77674709D02*
X142655771Y-77531852D01*
X142655771Y-77531852D02*
X142703390Y-77436614D01*
X142703390Y-77436614D02*
X142751009Y-77388995D01*
X142751009Y-77388995D02*
X142846247Y-77341376D01*
X142846247Y-77341376D02*
X143084342Y-77341376D01*
X143084342Y-77341376D02*
X143179580Y-77388995D01*
X143179580Y-77388995D02*
X143227200Y-77436614D01*
X143227200Y-77436614D02*
X143274819Y-77531852D01*
X143274819Y-77531852D02*
X143274819Y-77817566D01*
X143274819Y-77817566D02*
X143227200Y-77912804D01*
X143227200Y-77912804D02*
X143179580Y-77960423D01*
X152145714Y-89295719D02*
X151574286Y-89295719D01*
X151860000Y-89295719D02*
X151860000Y-88295719D01*
X151860000Y-88295719D02*
X151764762Y-88438576D01*
X151764762Y-88438576D02*
X151669524Y-88533814D01*
X151669524Y-88533814D02*
X151574286Y-88581433D01*
X152574286Y-89295719D02*
X152574286Y-88295719D01*
X153145714Y-89295719D02*
X152717143Y-88724290D01*
X153145714Y-88295719D02*
X152574286Y-88867147D01*
X174979523Y-75795719D02*
X174646190Y-75319528D01*
X174408095Y-75795719D02*
X174408095Y-74795719D01*
X174408095Y-74795719D02*
X174789047Y-74795719D01*
X174789047Y-74795719D02*
X174884285Y-74843338D01*
X174884285Y-74843338D02*
X174931904Y-74890957D01*
X174931904Y-74890957D02*
X174979523Y-74986195D01*
X174979523Y-74986195D02*
X174979523Y-75129052D01*
X174979523Y-75129052D02*
X174931904Y-75224290D01*
X174931904Y-75224290D02*
X174884285Y-75271909D01*
X174884285Y-75271909D02*
X174789047Y-75319528D01*
X174789047Y-75319528D02*
X174408095Y-75319528D01*
X175408095Y-75795719D02*
X175408095Y-74795719D01*
X175408095Y-74795719D02*
X175979523Y-75795719D01*
X175979523Y-75795719D02*
X175979523Y-74795719D01*
X176408095Y-74890957D02*
X176455714Y-74843338D01*
X176455714Y-74843338D02*
X176550952Y-74795719D01*
X176550952Y-74795719D02*
X176789047Y-74795719D01*
X176789047Y-74795719D02*
X176884285Y-74843338D01*
X176884285Y-74843338D02*
X176931904Y-74890957D01*
X176931904Y-74890957D02*
X176979523Y-74986195D01*
X176979523Y-74986195D02*
X176979523Y-75081433D01*
X176979523Y-75081433D02*
X176931904Y-75224290D01*
X176931904Y-75224290D02*
X176360476Y-75795719D01*
X176360476Y-75795719D02*
X176979523Y-75795719D01*
X197836666Y-119295719D02*
X197836666Y-120010004D01*
X197836666Y-120010004D02*
X197789047Y-120152861D01*
X197789047Y-120152861D02*
X197693809Y-120248100D01*
X197693809Y-120248100D02*
X197550952Y-120295719D01*
X197550952Y-120295719D02*
X197455714Y-120295719D01*
X198455714Y-119724290D02*
X198360476Y-119676671D01*
X198360476Y-119676671D02*
X198312857Y-119629052D01*
X198312857Y-119629052D02*
X198265238Y-119533814D01*
X198265238Y-119533814D02*
X198265238Y-119486195D01*
X198265238Y-119486195D02*
X198312857Y-119390957D01*
X198312857Y-119390957D02*
X198360476Y-119343338D01*
X198360476Y-119343338D02*
X198455714Y-119295719D01*
X198455714Y-119295719D02*
X198646190Y-119295719D01*
X198646190Y-119295719D02*
X198741428Y-119343338D01*
X198741428Y-119343338D02*
X198789047Y-119390957D01*
X198789047Y-119390957D02*
X198836666Y-119486195D01*
X198836666Y-119486195D02*
X198836666Y-119533814D01*
X198836666Y-119533814D02*
X198789047Y-119629052D01*
X198789047Y-119629052D02*
X198741428Y-119676671D01*
X198741428Y-119676671D02*
X198646190Y-119724290D01*
X198646190Y-119724290D02*
X198455714Y-119724290D01*
X198455714Y-119724290D02*
X198360476Y-119771909D01*
X198360476Y-119771909D02*
X198312857Y-119819528D01*
X198312857Y-119819528D02*
X198265238Y-119914766D01*
X198265238Y-119914766D02*
X198265238Y-120105242D01*
X198265238Y-120105242D02*
X198312857Y-120200480D01*
X198312857Y-120200480D02*
X198360476Y-120248100D01*
X198360476Y-120248100D02*
X198455714Y-120295719D01*
X198455714Y-120295719D02*
X198646190Y-120295719D01*
X198646190Y-120295719D02*
X198741428Y-120248100D01*
X198741428Y-120248100D02*
X198789047Y-120200480D01*
X198789047Y-120200480D02*
X198836666Y-120105242D01*
X198836666Y-120105242D02*
X198836666Y-119914766D01*
X198836666Y-119914766D02*
X198789047Y-119819528D01*
X198789047Y-119819528D02*
X198741428Y-119771909D01*
X198741428Y-119771909D02*
X198646190Y-119724290D01*
X137717619Y-112795719D02*
X137717619Y-113510004D01*
X137717619Y-113510004D02*
X137670000Y-113652861D01*
X137670000Y-113652861D02*
X137574762Y-113748100D01*
X137574762Y-113748100D02*
X137431905Y-113795719D01*
X137431905Y-113795719D02*
X137336667Y-113795719D01*
X138193810Y-112795719D02*
X138193810Y-113605242D01*
X138193810Y-113605242D02*
X138241429Y-113700480D01*
X138241429Y-113700480D02*
X138289048Y-113748100D01*
X138289048Y-113748100D02*
X138384286Y-113795719D01*
X138384286Y-113795719D02*
X138574762Y-113795719D01*
X138574762Y-113795719D02*
X138670000Y-113748100D01*
X138670000Y-113748100D02*
X138717619Y-113700480D01*
X138717619Y-113700480D02*
X138765238Y-113605242D01*
X138765238Y-113605242D02*
X138765238Y-112795719D01*
X139241429Y-113795719D02*
X139241429Y-112795719D01*
X139241429Y-112795719D02*
X139574762Y-113510004D01*
X139574762Y-113510004D02*
X139908095Y-112795719D01*
X139908095Y-112795719D02*
X139908095Y-113795719D01*
X140384286Y-113795719D02*
X140384286Y-112795719D01*
X140384286Y-112795719D02*
X140765238Y-112795719D01*
X140765238Y-112795719D02*
X140860476Y-112843338D01*
X140860476Y-112843338D02*
X140908095Y-112890957D01*
X140908095Y-112890957D02*
X140955714Y-112986195D01*
X140955714Y-112986195D02*
X140955714Y-113129052D01*
X140955714Y-113129052D02*
X140908095Y-113224290D01*
X140908095Y-113224290D02*
X140860476Y-113271909D01*
X140860476Y-113271909D02*
X140765238Y-113319528D01*
X140765238Y-113319528D02*
X140384286Y-113319528D01*
X113836666Y-70795719D02*
X113836666Y-71510004D01*
X113836666Y-71510004D02*
X113789047Y-71652861D01*
X113789047Y-71652861D02*
X113693809Y-71748100D01*
X113693809Y-71748100D02*
X113550952Y-71795719D01*
X113550952Y-71795719D02*
X113455714Y-71795719D01*
X114836666Y-71795719D02*
X114265238Y-71795719D01*
X114550952Y-71795719D02*
X114550952Y-70795719D01*
X114550952Y-70795719D02*
X114455714Y-70938576D01*
X114455714Y-70938576D02*
X114360476Y-71033814D01*
X114360476Y-71033814D02*
X114265238Y-71081433D01*
X97124819Y-124698042D02*
X98124819Y-124364709D01*
X98124819Y-124364709D02*
X97124819Y-124031376D01*
X97124819Y-123507566D02*
X97124819Y-123317090D01*
X97124819Y-123317090D02*
X97172438Y-123221852D01*
X97172438Y-123221852D02*
X97267676Y-123126614D01*
X97267676Y-123126614D02*
X97458152Y-123078995D01*
X97458152Y-123078995D02*
X97791485Y-123078995D01*
X97791485Y-123078995D02*
X97981961Y-123126614D01*
X97981961Y-123126614D02*
X98077200Y-123221852D01*
X98077200Y-123221852D02*
X98124819Y-123317090D01*
X98124819Y-123317090D02*
X98124819Y-123507566D01*
X98124819Y-123507566D02*
X98077200Y-123602804D01*
X98077200Y-123602804D02*
X97981961Y-123698042D01*
X97981961Y-123698042D02*
X97791485Y-123745661D01*
X97791485Y-123745661D02*
X97458152Y-123745661D01*
X97458152Y-123745661D02*
X97267676Y-123698042D01*
X97267676Y-123698042D02*
X97172438Y-123602804D01*
X97172438Y-123602804D02*
X97124819Y-123507566D01*
%TO.C,J6*%
D14*
X139420000Y-116620000D02*
X139420000Y-118000000D01*
X138040000Y-116620000D02*
X139420000Y-116620000D01*
X136770000Y-119380000D02*
X108720000Y-119380000D01*
X136770000Y-116620000D02*
X136770000Y-119380000D01*
X136770000Y-116620000D02*
X108720000Y-116620000D01*
X108720000Y-116620000D02*
X108720000Y-119380000D01*
%TO.C,BZ1*%
X198770000Y-74540900D02*
G75*
G02*
X183570000Y-74540900I-7600000J0D01*
G01*
X183570000Y-74540900D02*
G75*
G02*
X198770000Y-74540900I7600000J0D01*
G01*
%TO.C,J4*%
X181750000Y-62720900D02*
X181750000Y-61340900D01*
X183130000Y-62720900D02*
X181750000Y-62720900D01*
X184400000Y-59960900D02*
X189590000Y-59960900D01*
X184400000Y-62720900D02*
X184400000Y-59960900D01*
X184400000Y-62720900D02*
X189590000Y-62720900D01*
X189590000Y-62720900D02*
X189590000Y-59960900D01*
%TO.C,J7*%
X103770000Y-124960900D02*
X103770000Y-127720900D01*
X136900000Y-124960900D02*
X103770000Y-124960900D01*
X136900000Y-124960900D02*
X136900000Y-127720900D01*
X136900000Y-127720900D02*
X103770000Y-127720900D01*
X138170000Y-124960900D02*
X139550000Y-124960900D01*
X139550000Y-124960900D02*
X139550000Y-126340900D01*
%TO.C,R31*%
X109920000Y-76880900D02*
X109920000Y-83420900D01*
X109920000Y-83420900D02*
X110250000Y-83420900D01*
X110250000Y-76880900D02*
X109920000Y-76880900D01*
X112330000Y-76880900D02*
X112660000Y-76880900D01*
X112660000Y-76880900D02*
X112660000Y-83420900D01*
X112660000Y-83420900D02*
X112330000Y-83420900D01*
%TO.C,BC337*%
X163520000Y-90640900D02*
X163520000Y-87040900D01*
X159070000Y-88840900D02*
G75*
G02*
X163508478Y-87002422I2600000J0D01*
G01*
X163508478Y-90679378D02*
G75*
G02*
X159069999Y-88840900I-1838478J1838478D01*
G01*
%TO.C,RN1*%
X141760000Y-86650900D02*
X141760000Y-84030900D01*
X116280000Y-84030900D02*
X144380000Y-84030900D01*
X144380000Y-86650900D01*
X116280000Y-86650900D01*
X116280000Y-84030900D01*
%TO.C,100uF*%
X164290000Y-82340900D02*
G75*
G02*
X159050000Y-82340900I-2620000J0D01*
G01*
X159050000Y-82340900D02*
G75*
G02*
X164290000Y-82340900I2620000J0D01*
G01*
%TO.C,J3*%
X145750000Y-69960900D02*
X145750000Y-72720900D01*
X168720000Y-69960900D02*
X145750000Y-69960900D01*
X168720000Y-69960900D02*
X168720000Y-72720900D01*
X168720000Y-72720900D02*
X145750000Y-72720900D01*
X169990000Y-69960900D02*
X171370000Y-69960900D01*
X171370000Y-69960900D02*
X171370000Y-71340900D01*
%TO.C,R34*%
X149090000Y-80970900D02*
X155630000Y-80970900D01*
X149090000Y-81300900D02*
X149090000Y-80970900D01*
X149090000Y-83380900D02*
X149090000Y-83710900D01*
X149090000Y-83710900D02*
X155630000Y-83710900D01*
X155630000Y-80970900D02*
X155630000Y-81300900D01*
X155630000Y-83710900D02*
X155630000Y-83380900D01*
%TO.C,U2*%
X146700000Y-105480900D02*
X183720000Y-105480900D01*
X146700000Y-128200900D02*
X146700000Y-105480900D01*
X183720000Y-105480900D02*
X183720000Y-119044900D01*
X183720000Y-119636900D02*
X183720000Y-128200900D01*
X183720000Y-128200900D02*
X146700000Y-128200900D01*
X183720000Y-119340900D02*
X184330000Y-118900900D01*
X184330000Y-119780900D01*
X183720000Y-119340900D01*
G36*
X184330000Y-119780900D02*
G01*
X183720000Y-119340900D01*
X184330000Y-118900900D01*
X184330000Y-119780900D01*
G37*
%TO.C,A1*%
X97530000Y-88305900D02*
X97110000Y-88305900D01*
X97530000Y-109525900D02*
X97110000Y-109525900D01*
X100070000Y-88305900D02*
X99650000Y-88305900D01*
X100070000Y-109525900D02*
X99650000Y-109525900D01*
X102610000Y-88305900D02*
X102190000Y-88305900D01*
X102610000Y-109525900D02*
X102190000Y-109525900D01*
X105150000Y-88305900D02*
X104730000Y-88305900D01*
X105150000Y-109525900D02*
X104730000Y-109525900D01*
X107690000Y-88305900D02*
X107270000Y-88305900D01*
X107690000Y-109525900D02*
X107270000Y-109525900D01*
X110230000Y-88305900D02*
X109810000Y-88305900D01*
X110230000Y-109525900D02*
X109810000Y-109525900D01*
X112770000Y-88305900D02*
X112350000Y-88305900D01*
X112770000Y-109525900D02*
X112350000Y-109525900D01*
X115310000Y-88305900D02*
X114890000Y-88305900D01*
X115310000Y-109525900D02*
X114890000Y-109525900D01*
X117850000Y-88305900D02*
X117430000Y-88305900D01*
X117850000Y-109525900D02*
X117430000Y-109525900D01*
X120390000Y-88305900D02*
X119970000Y-88305900D01*
X120390000Y-109525900D02*
X119970000Y-109525900D01*
X122930000Y-88305900D02*
X122510000Y-88305900D01*
X122930000Y-109525900D02*
X122510000Y-109525900D01*
X125470000Y-88305900D02*
X125050000Y-88305900D01*
X125470000Y-109525900D02*
X125050000Y-109525900D01*
X128010000Y-88305900D02*
X127590000Y-88305900D01*
X128010000Y-109525900D02*
X127590000Y-109525900D01*
X130550000Y-88305900D02*
X130130000Y-88305900D01*
X130550000Y-109525900D02*
X130130000Y-109525900D01*
X133090000Y-88305900D02*
X132670000Y-88305900D01*
X133090000Y-109525900D02*
X132670000Y-109525900D01*
X135630000Y-88305900D02*
X135210000Y-88305900D01*
X135630000Y-109525900D02*
X135210000Y-109525900D01*
X138170000Y-88305900D02*
X137750000Y-88305900D01*
X138170000Y-109525900D02*
X137750000Y-109525900D01*
X140710000Y-88305900D02*
X140290000Y-88305900D01*
X140710000Y-109525900D02*
X140290000Y-109525900D01*
X141270000Y-95015900D02*
X141270000Y-95311990D01*
X141270000Y-97669810D02*
X141270000Y-100161990D01*
X141270000Y-102519810D02*
X141270000Y-102815900D01*
X142486000Y-95015900D02*
X141270000Y-95015900D01*
X142486000Y-102815900D02*
X141270000Y-102815900D01*
X143250000Y-88305900D02*
X142830000Y-88305900D01*
X143250000Y-88305900D02*
X143250000Y-87825900D01*
X143250000Y-109525900D02*
X142830000Y-109525900D01*
X145370000Y-88336224D02*
X145370000Y-87825900D01*
X145790000Y-88915900D02*
X145790000Y-91405900D01*
X145790000Y-91405900D02*
X145790000Y-92753840D01*
X145790000Y-93677961D02*
X145790000Y-94680900D01*
X145790000Y-94680900D02*
X145790000Y-103150900D01*
X145790000Y-95015900D02*
X144874000Y-95015900D01*
X145790000Y-102815900D02*
X144874000Y-102815900D01*
X145790000Y-103150900D02*
X145790000Y-104153839D01*
X145790000Y-105077961D02*
X145790000Y-106425900D01*
X145790000Y-108915900D02*
X145790000Y-106425900D01*
X94690000Y-88552582D02*
G75*
G02*
X94990063Y-88336224I490008J-363328D01*
G01*
X94990063Y-109495576D02*
G75*
G02*
X94689978Y-109279235I189737J579476D01*
G01*
X145370000Y-88336224D02*
G75*
G02*
X145790000Y-88915900I-190051J-579692D01*
G01*
X145790000Y-108915900D02*
G75*
G02*
X145369937Y-109495576I-610000J0D01*
G01*
%TO.C,R35*%
X167710000Y-80970900D02*
X174250000Y-80970900D01*
X167710000Y-81300900D02*
X167710000Y-80970900D01*
X167710000Y-83380900D02*
X167710000Y-83710900D01*
X167710000Y-83710900D02*
X174250000Y-83710900D01*
X174250000Y-80970900D02*
X174250000Y-81300900D01*
X174250000Y-83710900D02*
X174250000Y-83380900D01*
%TO.C,J5*%
X200290000Y-75810900D02*
X200290000Y-70620900D01*
X203050000Y-70620900D02*
X200290000Y-70620900D01*
X203050000Y-75810900D02*
X200290000Y-75810900D01*
X203050000Y-75810900D02*
X203050000Y-70620900D01*
X203050000Y-77080900D02*
X203050000Y-78460900D01*
X203050000Y-78460900D02*
X201670000Y-78460900D01*
%TO.C,C2*%
X179800000Y-69420900D02*
X182540000Y-69420900D01*
X179800000Y-79660900D02*
X179800000Y-69420900D01*
X182540000Y-69420900D02*
X182540000Y-79660900D01*
X182540000Y-79660900D02*
X179800000Y-79660900D01*
%TO.C,J2*%
X116250000Y-69960900D02*
X116250000Y-72720900D01*
X139220000Y-69960900D02*
X116250000Y-69960900D01*
X139220000Y-69960900D02*
X139220000Y-72720900D01*
X139220000Y-72720900D02*
X116250000Y-72720900D01*
X140490000Y-69960900D02*
X141870000Y-69960900D01*
X141870000Y-69960900D02*
X141870000Y-71340900D01*
%TO.C,R33*%
X149090000Y-87470900D02*
X155630000Y-87470900D01*
X149090000Y-87800900D02*
X149090000Y-87470900D01*
X149090000Y-89880900D02*
X149090000Y-90210900D01*
X149090000Y-90210900D02*
X155630000Y-90210900D01*
X155630000Y-87470900D02*
X155630000Y-87800900D01*
X155630000Y-90210900D02*
X155630000Y-89880900D01*
%TO.C,RN2*%
X171260000Y-76650900D02*
X171260000Y-74030900D01*
X145780000Y-74030900D02*
X173880000Y-74030900D01*
X173880000Y-76650900D01*
X145780000Y-76650900D01*
X145780000Y-74030900D01*
%TO.C,J8*%
X183810000Y-123040900D02*
X184410000Y-123340900D01*
X183810000Y-123640900D02*
X183810000Y-123040900D01*
X184410000Y-123340900D02*
X183810000Y-123640900D01*
X184610000Y-121230900D02*
X185810000Y-121230900D01*
X184610000Y-128250900D02*
X184610000Y-121230900D01*
X185810000Y-119530900D02*
X195450000Y-119530900D01*
X185810000Y-121230900D02*
X185810000Y-119530900D01*
X195450000Y-119530900D02*
X195450000Y-121230900D01*
X195450000Y-121230900D02*
X196650000Y-121230900D01*
X196650000Y-121230900D02*
X196650000Y-128250900D01*
X196650000Y-128250900D02*
X184610000Y-128250900D01*
%TO.C,R32*%
X135900000Y-111970900D02*
X135900000Y-112300900D01*
X135900000Y-114710900D02*
X135900000Y-114380900D01*
X142440000Y-111970900D02*
X135900000Y-111970900D01*
X142440000Y-112300900D02*
X142440000Y-111970900D01*
X142440000Y-114380900D02*
X142440000Y-114710900D01*
X142440000Y-114710900D02*
X135900000Y-114710900D01*
%TO.C,J1*%
X104830000Y-69960900D02*
X104830000Y-72720900D01*
X110020000Y-69960900D02*
X104830000Y-69960900D01*
X110020000Y-69960900D02*
X110020000Y-72720900D01*
X110020000Y-72720900D02*
X104830000Y-72720900D01*
X111290000Y-69960900D02*
X112670000Y-69960900D01*
X112670000Y-69960900D02*
X112670000Y-71340900D01*
%TO.C,VO*%
X96970000Y-112585000D02*
X102020000Y-112585000D01*
X96970000Y-122335000D02*
X96970000Y-112585000D01*
X102020000Y-112585000D02*
X102020000Y-122335000D01*
X102020000Y-122335000D02*
X96970000Y-122335000D01*
%TD*%
M02*
