M48
; DRILL file KiCad 10.0.6-10.0.6~ubuntu24.04.1 date 2026-09-06T21:39:05
; FORMAT={-:-/ absolute / metric / decimal}
; #@! TF.CreationDate,2026-09-06T21:39:05-03:00
; #@! TF.GenerationSoftware,Kicad,Pcbnew,10.0.6-10.0.6~ubuntu24.04.1
; #@! TF.FileFunction,Plated,1,2,PTH
FMAT,2
METRIC
; #@! TA.AperFunction,Plated,PTH,ComponentDrill
T1C0.750
; #@! TA.AperFunction,Plated,PTH,ComponentDrill
T2C0.800
; #@! TA.AperFunction,Plated,PTH,ComponentDrill
T3C1.000
; #@! TA.AperFunction,Plated,PTH,ComponentDrill
T4C1.700
; #@! TA.AperFunction,Plated,PTH,ComponentDrill
T5C2.700
%
G90
G05
T1
X161.67Y-87.571
X161.67Y-88.841
X161.67Y-90.111
T2
X96.05Y-90.026
X96.05Y-107.806
X98.59Y-90.026
X98.59Y-107.806
X99.5Y-114.92
X99.5Y-117.46
X99.5Y-120.0
X101.13Y-90.026
X101.13Y-107.806
X103.67Y-90.026
X103.67Y-107.806
X106.21Y-90.026
X106.21Y-107.806
X108.75Y-90.026
X108.75Y-107.806
X111.29Y-76.341
X111.29Y-83.961
X111.29Y-90.026
X111.29Y-107.806
X113.83Y-90.026
X113.83Y-107.806
X116.37Y-90.026
X116.37Y-107.806
X117.63Y-74.841
X117.63Y-82.461
X117.63Y-85.341
X118.91Y-90.026
X118.91Y-107.806
X120.17Y-74.841
X120.17Y-82.461
X120.17Y-85.341
X121.45Y-90.026
X121.45Y-107.806
X122.71Y-74.841
X122.71Y-82.461
X122.71Y-85.341
X123.99Y-90.026
X123.99Y-107.806
X125.25Y-74.841
X125.25Y-82.461
X125.25Y-85.341
X126.53Y-90.026
X126.53Y-107.806
X127.79Y-74.841
X127.79Y-82.461
X127.79Y-85.341
X129.07Y-90.026
X129.07Y-107.806
X130.33Y-74.841
X130.33Y-82.461
X130.33Y-85.341
X131.61Y-90.026
X131.61Y-107.806
X132.87Y-74.841
X132.87Y-82.461
X132.87Y-85.341
X134.15Y-90.026
X134.15Y-107.806
X135.36Y-113.341
X135.41Y-74.841
X135.41Y-82.461
X135.41Y-85.341
X136.69Y-90.026
X136.69Y-107.806
X137.95Y-74.841
X137.95Y-82.461
X137.95Y-85.341
X139.23Y-90.026
X139.23Y-107.806
X140.49Y-74.841
X140.49Y-82.461
X140.49Y-85.341
X141.77Y-90.026
X141.77Y-107.806
X142.98Y-113.341
X143.03Y-85.341
X144.31Y-90.026
X144.31Y-107.806
X147.13Y-75.341
X148.55Y-82.341
X148.55Y-88.841
X149.67Y-75.341
X152.21Y-75.341
X154.75Y-75.341
X156.17Y-82.341
X156.17Y-88.841
X157.29Y-75.341
X159.83Y-75.341
X161.67Y-81.341
X161.67Y-83.341
X162.37Y-75.341
X164.91Y-75.341
X167.17Y-82.341
X167.45Y-75.341
X169.99Y-75.341
X172.53Y-75.341
X174.79Y-82.341
X181.17Y-72.041
X181.17Y-77.041
T3
X105.15Y-126.341
X106.21Y-71.341
X107.69Y-126.341
X108.75Y-71.341
X110.1Y-118.0
X110.23Y-126.341
X111.29Y-71.341
X112.64Y-118.0
X112.77Y-126.341
X114.48Y-99.5
X114.48Y-102.04
X114.48Y-104.58
X115.18Y-118.0
X115.31Y-126.341
X117.63Y-71.341
X117.72Y-118.0
X117.85Y-126.341
X120.17Y-71.341
X120.26Y-118.0
X120.39Y-126.341
X122.71Y-71.341
X122.8Y-118.0
X122.93Y-126.341
X125.25Y-71.341
X125.34Y-118.0
X125.47Y-126.341
X127.79Y-71.341
X127.88Y-118.0
X128.01Y-126.341
X130.33Y-71.341
X130.42Y-118.0
X130.55Y-126.341
X132.87Y-71.341
X132.96Y-118.0
X133.09Y-126.341
X135.41Y-71.341
X135.5Y-118.0
X135.63Y-126.341
X137.95Y-71.341
X138.04Y-118.0
X138.17Y-126.341
X140.49Y-71.341
X147.13Y-71.341
X149.67Y-71.341
X150.67Y-109.341
X150.67Y-124.341
X152.21Y-71.341
X154.75Y-71.341
X157.29Y-71.341
X159.83Y-71.341
X162.37Y-71.341
X164.91Y-71.341
X167.45Y-71.341
X169.99Y-71.341
X179.75Y-114.341
X179.75Y-119.341
X183.13Y-61.341
X185.67Y-61.341
X188.21Y-61.341
X191.17Y-70.741
X191.17Y-78.341
X201.67Y-72.001
X201.67Y-74.541
X201.67Y-77.081
T4
X186.67Y-123.341
X190.63Y-123.341
X194.59Y-123.341
T5
X93.0Y-74.5
X93.0Y-123.5
X202.0Y-64.5
X202.0Y-123.5
M30
