%TF.GenerationSoftware,KiCad,Pcbnew,10.0.6-10.0.6~ubuntu24.04.1*%
%TF.CreationDate,2026-09-05T18:16:57-03:00*%
%TF.ProjectId,simut PCB,73696d75-7420-4504-9342-2e6b69636164,rev?*%
%TF.SameCoordinates,Original*%
%TF.FileFunction,Legend,Top*%
%TF.FilePolarity,Positive*%
%FSLAX46Y46*%
G04 Gerber Fmt 4.6, Leading zero omitted, Abs format (unit mm)*
G04 Created by KiCad (PCBNEW 10.0.6-10.0.6~ubuntu24.04.1) date 2026-09-05 18:16:57*
%MOMM*%
%LPD*%
G01*
G04 APERTURE LIST*
%ADD10C,0.300000*%
%ADD11C,0.000000*%
%ADD12C,0.200000*%
%ADD13C,0.150000*%
%ADD14C,0.120000*%
G04 APERTURE END LIST*
D10*
X175697368Y-92400828D02*
X175697368Y-93615114D01*
X175697368Y-93615114D02*
X175625939Y-93757971D01*
X175625939Y-93757971D02*
X175554510Y-93829400D01*
X175554510Y-93829400D02*
X175411653Y-93900828D01*
X175411653Y-93900828D02*
X175197368Y-93900828D01*
X175197368Y-93900828D02*
X175054510Y-93829400D01*
X175697368Y-93329400D02*
X175554510Y-93400828D01*
X175554510Y-93400828D02*
X175268796Y-93400828D01*
X175268796Y-93400828D02*
X175125939Y-93329400D01*
X175125939Y-93329400D02*
X175054510Y-93257971D01*
X175054510Y-93257971D02*
X174983082Y-93115114D01*
X174983082Y-93115114D02*
X174983082Y-92686542D01*
X174983082Y-92686542D02*
X175054510Y-92543685D01*
X175054510Y-92543685D02*
X175125939Y-92472257D01*
X175125939Y-92472257D02*
X175268796Y-92400828D01*
X175268796Y-92400828D02*
X175554510Y-92400828D01*
X175554510Y-92400828D02*
X175697368Y-92472257D01*
X176411653Y-93400828D02*
X176411653Y-92400828D01*
X176411653Y-91900828D02*
X176340225Y-91972257D01*
X176340225Y-91972257D02*
X176411653Y-92043685D01*
X176411653Y-92043685D02*
X176483082Y-91972257D01*
X176483082Y-91972257D02*
X176411653Y-91900828D01*
X176411653Y-91900828D02*
X176411653Y-92043685D01*
X176911654Y-92400828D02*
X177483082Y-92400828D01*
X177125939Y-91900828D02*
X177125939Y-93186542D01*
X177125939Y-93186542D02*
X177197368Y-93329400D01*
X177197368Y-93329400D02*
X177340225Y-93400828D01*
X177340225Y-93400828D02*
X177483082Y-93400828D01*
X177983082Y-93400828D02*
X177983082Y-91900828D01*
X178625940Y-93400828D02*
X178625940Y-92615114D01*
X178625940Y-92615114D02*
X178554511Y-92472257D01*
X178554511Y-92472257D02*
X178411654Y-92400828D01*
X178411654Y-92400828D02*
X178197368Y-92400828D01*
X178197368Y-92400828D02*
X178054511Y-92472257D01*
X178054511Y-92472257D02*
X177983082Y-92543685D01*
X179983083Y-92400828D02*
X179983083Y-93400828D01*
X179340225Y-92400828D02*
X179340225Y-93186542D01*
X179340225Y-93186542D02*
X179411654Y-93329400D01*
X179411654Y-93329400D02*
X179554511Y-93400828D01*
X179554511Y-93400828D02*
X179768797Y-93400828D01*
X179768797Y-93400828D02*
X179911654Y-93329400D01*
X179911654Y-93329400D02*
X179983083Y-93257971D01*
X180697368Y-93400828D02*
X180697368Y-91900828D01*
X180697368Y-92472257D02*
X180840226Y-92400828D01*
X180840226Y-92400828D02*
X181125940Y-92400828D01*
X181125940Y-92400828D02*
X181268797Y-92472257D01*
X181268797Y-92472257D02*
X181340226Y-92543685D01*
X181340226Y-92543685D02*
X181411654Y-92686542D01*
X181411654Y-92686542D02*
X181411654Y-93115114D01*
X181411654Y-93115114D02*
X181340226Y-93257971D01*
X181340226Y-93257971D02*
X181268797Y-93329400D01*
X181268797Y-93329400D02*
X181125940Y-93400828D01*
X181125940Y-93400828D02*
X180840226Y-93400828D01*
X180840226Y-93400828D02*
X180697368Y-93329400D01*
X182054511Y-93257971D02*
X182125940Y-93329400D01*
X182125940Y-93329400D02*
X182054511Y-93400828D01*
X182054511Y-93400828D02*
X181983083Y-93329400D01*
X181983083Y-93329400D02*
X182054511Y-93257971D01*
X182054511Y-93257971D02*
X182054511Y-93400828D01*
X183411655Y-93329400D02*
X183268797Y-93400828D01*
X183268797Y-93400828D02*
X182983083Y-93400828D01*
X182983083Y-93400828D02*
X182840226Y-93329400D01*
X182840226Y-93329400D02*
X182768797Y-93257971D01*
X182768797Y-93257971D02*
X182697369Y-93115114D01*
X182697369Y-93115114D02*
X182697369Y-92686542D01*
X182697369Y-92686542D02*
X182768797Y-92543685D01*
X182768797Y-92543685D02*
X182840226Y-92472257D01*
X182840226Y-92472257D02*
X182983083Y-92400828D01*
X182983083Y-92400828D02*
X183268797Y-92400828D01*
X183268797Y-92400828D02*
X183411655Y-92472257D01*
X184268797Y-93400828D02*
X184125940Y-93329400D01*
X184125940Y-93329400D02*
X184054511Y-93257971D01*
X184054511Y-93257971D02*
X183983083Y-93115114D01*
X183983083Y-93115114D02*
X183983083Y-92686542D01*
X183983083Y-92686542D02*
X184054511Y-92543685D01*
X184054511Y-92543685D02*
X184125940Y-92472257D01*
X184125940Y-92472257D02*
X184268797Y-92400828D01*
X184268797Y-92400828D02*
X184483083Y-92400828D01*
X184483083Y-92400828D02*
X184625940Y-92472257D01*
X184625940Y-92472257D02*
X184697369Y-92543685D01*
X184697369Y-92543685D02*
X184768797Y-92686542D01*
X184768797Y-92686542D02*
X184768797Y-93115114D01*
X184768797Y-93115114D02*
X184697369Y-93257971D01*
X184697369Y-93257971D02*
X184625940Y-93329400D01*
X184625940Y-93329400D02*
X184483083Y-93400828D01*
X184483083Y-93400828D02*
X184268797Y-93400828D01*
X185411654Y-93400828D02*
X185411654Y-92400828D01*
X185411654Y-92543685D02*
X185483083Y-92472257D01*
X185483083Y-92472257D02*
X185625940Y-92400828D01*
X185625940Y-92400828D02*
X185840226Y-92400828D01*
X185840226Y-92400828D02*
X185983083Y-92472257D01*
X185983083Y-92472257D02*
X186054512Y-92615114D01*
X186054512Y-92615114D02*
X186054512Y-93400828D01*
X186054512Y-92615114D02*
X186125940Y-92472257D01*
X186125940Y-92472257D02*
X186268797Y-92400828D01*
X186268797Y-92400828D02*
X186483083Y-92400828D01*
X186483083Y-92400828D02*
X186625940Y-92472257D01*
X186625940Y-92472257D02*
X186697369Y-92615114D01*
X186697369Y-92615114D02*
X186697369Y-93400828D01*
X188483083Y-91829400D02*
X187197369Y-93757971D01*
X189625941Y-93400828D02*
X189625941Y-92615114D01*
X189625941Y-92615114D02*
X189554512Y-92472257D01*
X189554512Y-92472257D02*
X189411655Y-92400828D01*
X189411655Y-92400828D02*
X189125941Y-92400828D01*
X189125941Y-92400828D02*
X188983083Y-92472257D01*
X189625941Y-93329400D02*
X189483083Y-93400828D01*
X189483083Y-93400828D02*
X189125941Y-93400828D01*
X189125941Y-93400828D02*
X188983083Y-93329400D01*
X188983083Y-93329400D02*
X188911655Y-93186542D01*
X188911655Y-93186542D02*
X188911655Y-93043685D01*
X188911655Y-93043685D02*
X188983083Y-92900828D01*
X188983083Y-92900828D02*
X189125941Y-92829400D01*
X189125941Y-92829400D02*
X189483083Y-92829400D01*
X189483083Y-92829400D02*
X189625941Y-92757971D01*
X190340226Y-92400828D02*
X190340226Y-93400828D01*
X190340226Y-92543685D02*
X190411655Y-92472257D01*
X190411655Y-92472257D02*
X190554512Y-92400828D01*
X190554512Y-92400828D02*
X190768798Y-92400828D01*
X190768798Y-92400828D02*
X190911655Y-92472257D01*
X190911655Y-92472257D02*
X190983084Y-92615114D01*
X190983084Y-92615114D02*
X190983084Y-93400828D01*
X192340227Y-92400828D02*
X192340227Y-93615114D01*
X192340227Y-93615114D02*
X192268798Y-93757971D01*
X192268798Y-93757971D02*
X192197369Y-93829400D01*
X192197369Y-93829400D02*
X192054512Y-93900828D01*
X192054512Y-93900828D02*
X191840227Y-93900828D01*
X191840227Y-93900828D02*
X191697369Y-93829400D01*
X192340227Y-93329400D02*
X192197369Y-93400828D01*
X192197369Y-93400828D02*
X191911655Y-93400828D01*
X191911655Y-93400828D02*
X191768798Y-93329400D01*
X191768798Y-93329400D02*
X191697369Y-93257971D01*
X191697369Y-93257971D02*
X191625941Y-93115114D01*
X191625941Y-93115114D02*
X191625941Y-92686542D01*
X191625941Y-92686542D02*
X191697369Y-92543685D01*
X191697369Y-92543685D02*
X191768798Y-92472257D01*
X191768798Y-92472257D02*
X191911655Y-92400828D01*
X191911655Y-92400828D02*
X192197369Y-92400828D01*
X192197369Y-92400828D02*
X192340227Y-92472257D01*
X193625941Y-93329400D02*
X193483084Y-93400828D01*
X193483084Y-93400828D02*
X193197370Y-93400828D01*
X193197370Y-93400828D02*
X193054512Y-93329400D01*
X193054512Y-93329400D02*
X192983084Y-93186542D01*
X192983084Y-93186542D02*
X192983084Y-92615114D01*
X192983084Y-92615114D02*
X193054512Y-92472257D01*
X193054512Y-92472257D02*
X193197370Y-92400828D01*
X193197370Y-92400828D02*
X193483084Y-92400828D01*
X193483084Y-92400828D02*
X193625941Y-92472257D01*
X193625941Y-92472257D02*
X193697370Y-92615114D01*
X193697370Y-92615114D02*
X193697370Y-92757971D01*
X193697370Y-92757971D02*
X192983084Y-92900828D01*
X194554512Y-93400828D02*
X194411655Y-93329400D01*
X194411655Y-93329400D02*
X194340226Y-93186542D01*
X194340226Y-93186542D02*
X194340226Y-91900828D01*
X195340226Y-93400828D02*
X195197369Y-93329400D01*
X195197369Y-93329400D02*
X195125940Y-93257971D01*
X195125940Y-93257971D02*
X195054512Y-93115114D01*
X195054512Y-93115114D02*
X195054512Y-92686542D01*
X195054512Y-92686542D02*
X195125940Y-92543685D01*
X195125940Y-92543685D02*
X195197369Y-92472257D01*
X195197369Y-92472257D02*
X195340226Y-92400828D01*
X195340226Y-92400828D02*
X195554512Y-92400828D01*
X195554512Y-92400828D02*
X195697369Y-92472257D01*
X195697369Y-92472257D02*
X195768798Y-92543685D01*
X195768798Y-92543685D02*
X195840226Y-92686542D01*
X195840226Y-92686542D02*
X195840226Y-93115114D01*
X195840226Y-93115114D02*
X195768798Y-93257971D01*
X195768798Y-93257971D02*
X195697369Y-93329400D01*
X195697369Y-93329400D02*
X195554512Y-93400828D01*
X195554512Y-93400828D02*
X195340226Y-93400828D01*
X196483083Y-93400828D02*
X196483083Y-91900828D01*
X197197369Y-93400828D02*
X197197369Y-91900828D01*
X197197369Y-91900828D02*
X198054512Y-93400828D01*
X198054512Y-93400828D02*
X198054512Y-91900828D01*
X198554513Y-91900828D02*
X199411656Y-91900828D01*
X198983084Y-93400828D02*
X198983084Y-91900828D01*
X200340227Y-91900828D02*
X200340227Y-92972257D01*
X200340227Y-92972257D02*
X200268798Y-93186542D01*
X200268798Y-93186542D02*
X200125941Y-93329400D01*
X200125941Y-93329400D02*
X199911655Y-93400828D01*
X199911655Y-93400828D02*
X199768798Y-93400828D01*
X202125941Y-91829400D02*
X200840227Y-93757971D01*
X202554513Y-93329400D02*
X202697370Y-93400828D01*
X202697370Y-93400828D02*
X202983084Y-93400828D01*
X202983084Y-93400828D02*
X203125941Y-93329400D01*
X203125941Y-93329400D02*
X203197370Y-93186542D01*
X203197370Y-93186542D02*
X203197370Y-93115114D01*
X203197370Y-93115114D02*
X203125941Y-92972257D01*
X203125941Y-92972257D02*
X202983084Y-92900828D01*
X202983084Y-92900828D02*
X202768799Y-92900828D01*
X202768799Y-92900828D02*
X202625941Y-92829400D01*
X202625941Y-92829400D02*
X202554513Y-92686542D01*
X202554513Y-92686542D02*
X202554513Y-92615114D01*
X202554513Y-92615114D02*
X202625941Y-92472257D01*
X202625941Y-92472257D02*
X202768799Y-92400828D01*
X202768799Y-92400828D02*
X202983084Y-92400828D01*
X202983084Y-92400828D02*
X203125941Y-92472257D01*
X203840227Y-93400828D02*
X203840227Y-92400828D01*
X203840227Y-91900828D02*
X203768799Y-91972257D01*
X203768799Y-91972257D02*
X203840227Y-92043685D01*
X203840227Y-92043685D02*
X203911656Y-91972257D01*
X203911656Y-91972257D02*
X203840227Y-91900828D01*
X203840227Y-91900828D02*
X203840227Y-92043685D01*
X204554513Y-93400828D02*
X204554513Y-92400828D01*
X204554513Y-92543685D02*
X204625942Y-92472257D01*
X204625942Y-92472257D02*
X204768799Y-92400828D01*
X204768799Y-92400828D02*
X204983085Y-92400828D01*
X204983085Y-92400828D02*
X205125942Y-92472257D01*
X205125942Y-92472257D02*
X205197371Y-92615114D01*
X205197371Y-92615114D02*
X205197371Y-93400828D01*
X205197371Y-92615114D02*
X205268799Y-92472257D01*
X205268799Y-92472257D02*
X205411656Y-92400828D01*
X205411656Y-92400828D02*
X205625942Y-92400828D01*
X205625942Y-92400828D02*
X205768799Y-92472257D01*
X205768799Y-92472257D02*
X205840228Y-92615114D01*
X205840228Y-92615114D02*
X205840228Y-93400828D01*
X207197371Y-92400828D02*
X207197371Y-93400828D01*
X206554513Y-92400828D02*
X206554513Y-93186542D01*
X206554513Y-93186542D02*
X206625942Y-93329400D01*
X206625942Y-93329400D02*
X206768799Y-93400828D01*
X206768799Y-93400828D02*
X206983085Y-93400828D01*
X206983085Y-93400828D02*
X207125942Y-93329400D01*
X207125942Y-93329400D02*
X207197371Y-93257971D01*
X207697371Y-92400828D02*
X208268799Y-92400828D01*
X207911656Y-91900828D02*
X207911656Y-93186542D01*
X207911656Y-93186542D02*
X207983085Y-93329400D01*
X207983085Y-93329400D02*
X208125942Y-93400828D01*
X208125942Y-93400828D02*
X208268799Y-93400828D01*
D11*
G36*
X208519679Y-86324600D02*
G01*
X206887154Y-86324600D01*
X206887154Y-90288833D01*
X205617410Y-90288833D01*
X205617410Y-86324600D01*
X203981587Y-86324600D01*
X203981587Y-85364874D01*
X208519679Y-85364874D01*
X208519679Y-86324600D01*
G37*
G36*
X200353777Y-88316612D02*
G01*
X200354558Y-88391520D01*
X200356899Y-88463703D01*
X200360795Y-88533181D01*
X200366252Y-88599936D01*
X200373267Y-88663966D01*
X200381839Y-88725289D01*
X200391974Y-88783886D01*
X200403667Y-88839766D01*
X200416916Y-88892926D01*
X200431724Y-88943367D01*
X200448089Y-88991087D01*
X200466017Y-89036099D01*
X200485504Y-89078388D01*
X200506550Y-89117956D01*
X200529151Y-89154809D01*
X200553316Y-89188942D01*
X200566034Y-89205074D01*
X200579239Y-89220691D01*
X200592940Y-89235796D01*
X200607142Y-89250393D01*
X200621829Y-89264480D01*
X200637005Y-89278046D01*
X200652681Y-89291104D01*
X200668846Y-89303651D01*
X200685512Y-89315685D01*
X200702663Y-89327202D01*
X200738437Y-89348716D01*
X200776194Y-89368176D01*
X200815918Y-89385586D01*
X200857617Y-89400948D01*
X200901281Y-89414265D01*
X200946921Y-89425531D01*
X200994531Y-89434751D01*
X201044108Y-89441917D01*
X201095656Y-89447042D01*
X201149179Y-89450114D01*
X201204675Y-89451135D01*
X201260569Y-89450114D01*
X201314469Y-89447042D01*
X201366359Y-89441917D01*
X201416265Y-89434751D01*
X201464166Y-89425531D01*
X201510081Y-89414265D01*
X201553988Y-89400948D01*
X201595907Y-89385586D01*
X201635822Y-89368176D01*
X201673744Y-89348716D01*
X201709664Y-89327202D01*
X201743589Y-89303651D01*
X201775521Y-89278046D01*
X201805452Y-89250393D01*
X201833392Y-89220691D01*
X201859333Y-89188942D01*
X201883497Y-89154809D01*
X201906100Y-89117956D01*
X201927145Y-89078388D01*
X201946625Y-89036099D01*
X201964555Y-88991087D01*
X201980919Y-88943367D01*
X201995734Y-88892926D01*
X202008985Y-88839766D01*
X202020672Y-88783886D01*
X202030802Y-88725289D01*
X202039379Y-88663966D01*
X202046395Y-88599936D01*
X202051853Y-88533181D01*
X202055749Y-88463703D01*
X202058082Y-88391520D01*
X202058863Y-88316612D01*
X202058863Y-85364874D01*
X203328608Y-85364874D01*
X203328608Y-88316612D01*
X203326559Y-88445205D01*
X203320411Y-88569631D01*
X203310169Y-88689883D01*
X203295833Y-88805959D01*
X203277400Y-88917856D01*
X203254869Y-89025587D01*
X203228238Y-89129140D01*
X203197511Y-89228518D01*
X203162691Y-89323724D01*
X203123772Y-89414751D01*
X203080754Y-89501612D01*
X203033646Y-89584293D01*
X202982432Y-89662800D01*
X202927127Y-89737136D01*
X202867721Y-89807296D01*
X202804223Y-89873286D01*
X202736524Y-89935187D01*
X202664518Y-89993094D01*
X202588215Y-90047006D01*
X202507608Y-90096931D01*
X202422695Y-90142854D01*
X202333478Y-90184794D01*
X202239967Y-90222733D01*
X202142141Y-90256679D01*
X202040024Y-90286633D01*
X201933596Y-90312594D01*
X201822860Y-90334562D01*
X201707832Y-90352528D01*
X201588495Y-90366509D01*
X201464859Y-90376488D01*
X201336916Y-90382481D01*
X201204675Y-90384476D01*
X201072825Y-90382481D01*
X200945264Y-90376488D01*
X200821972Y-90366509D01*
X200702959Y-90352528D01*
X200588228Y-90334562D01*
X200477768Y-90312594D01*
X200371587Y-90286633D01*
X200269687Y-90256679D01*
X200172056Y-90222733D01*
X200078703Y-90184794D01*
X199989633Y-90142854D01*
X199904838Y-90096931D01*
X199824317Y-90047006D01*
X199748082Y-89993094D01*
X199676112Y-89935187D01*
X199608429Y-89873286D01*
X199544928Y-89807296D01*
X199485525Y-89737136D01*
X199430215Y-89662800D01*
X199379005Y-89584293D01*
X199331895Y-89501612D01*
X199288880Y-89414751D01*
X199249959Y-89323724D01*
X199215138Y-89228518D01*
X199184412Y-89129140D01*
X199157781Y-89025587D01*
X199135246Y-88917856D01*
X199116811Y-88805959D01*
X199102471Y-88689883D01*
X199092231Y-88569631D01*
X199086088Y-88445205D01*
X199084042Y-88316612D01*
X199084042Y-85364874D01*
X200353777Y-85364874D01*
X200353777Y-88316612D01*
G37*
G36*
X195100000Y-88000000D02*
G01*
X196227932Y-85364874D01*
X197840669Y-85364874D01*
X197840669Y-90288833D01*
X196640185Y-90288833D01*
X196640185Y-86687382D01*
X195505660Y-89342302D01*
X194700939Y-89342302D01*
X193566412Y-86687382D01*
X193566412Y-90288833D01*
X192362637Y-90288833D01*
X192362637Y-85364874D01*
X193978674Y-85364874D01*
X195100000Y-88000000D01*
G37*
G36*
X191119377Y-90288833D02*
G01*
X189849634Y-90288833D01*
X189849634Y-85364874D01*
X191119377Y-85364874D01*
X191119377Y-90288833D01*
G37*
G36*
X186791870Y-85276778D02*
G01*
X186894361Y-85279638D01*
X186997582Y-85284404D01*
X187101515Y-85291076D01*
X187206177Y-85299657D01*
X187311562Y-85310146D01*
X187417665Y-85322538D01*
X187524490Y-85336841D01*
X187632142Y-85353045D01*
X187740718Y-85371156D01*
X187850221Y-85391180D01*
X187960657Y-85413107D01*
X188072014Y-85436940D01*
X188184303Y-85462677D01*
X188297518Y-85490328D01*
X188411664Y-85519878D01*
X188411664Y-86562058D01*
X188310558Y-86518103D01*
X188210071Y-86476928D01*
X188110201Y-86438537D01*
X188010947Y-86402926D01*
X187912316Y-86370106D01*
X187814307Y-86340058D01*
X187716911Y-86312801D01*
X187620130Y-86288323D01*
X187524337Y-86266678D01*
X187429879Y-86247922D01*
X187336755Y-86232051D01*
X187244983Y-86219059D01*
X187154543Y-86208964D01*
X187065447Y-86201751D01*
X186977687Y-86197418D01*
X186891269Y-86195976D01*
X186781192Y-86197938D01*
X186728943Y-86200384D01*
X186678546Y-86203811D01*
X186630002Y-86208216D01*
X186583317Y-86213600D01*
X186538482Y-86219964D01*
X186495503Y-86227303D01*
X186454381Y-86235628D01*
X186415113Y-86244930D01*
X186377704Y-86255210D01*
X186342147Y-86266473D01*
X186308443Y-86278708D01*
X186276593Y-86291931D01*
X186246606Y-86306126D01*
X186218467Y-86321301D01*
X186205079Y-86329268D01*
X186192111Y-86337507D01*
X186179566Y-86346018D01*
X186167452Y-86354798D01*
X186155758Y-86363848D01*
X186144495Y-86373163D01*
X186133655Y-86382759D01*
X186123239Y-86392621D01*
X186113249Y-86402752D01*
X186103682Y-86413152D01*
X186094548Y-86423829D01*
X186085831Y-86434774D01*
X186077536Y-86445991D01*
X186069672Y-86457473D01*
X186062229Y-86469228D01*
X186055218Y-86481251D01*
X186048627Y-86493552D01*
X186042462Y-86506122D01*
X186036726Y-86518956D01*
X186031413Y-86532069D01*
X186026518Y-86545449D01*
X186022056Y-86559098D01*
X186018021Y-86573016D01*
X186014402Y-86587206D01*
X186011216Y-86601671D01*
X186008450Y-86616397D01*
X186006113Y-86631402D01*
X186004201Y-86646672D01*
X186002715Y-86662217D01*
X186001647Y-86678029D01*
X186000797Y-86710468D01*
X186001372Y-86734862D01*
X186003091Y-86758572D01*
X186005954Y-86781600D01*
X186009971Y-86803948D01*
X186015134Y-86825606D01*
X186021437Y-86846588D01*
X186028889Y-86866888D01*
X186037490Y-86886504D01*
X186047238Y-86905433D01*
X186058128Y-86923682D01*
X186070168Y-86941247D01*
X186083353Y-86958128D01*
X186097683Y-86974332D01*
X186113161Y-86989850D01*
X186129791Y-87004681D01*
X186147565Y-87018830D01*
X186166844Y-87032524D01*
X186187989Y-87045964D01*
X186211005Y-87059167D01*
X186235883Y-87072120D01*
X186262636Y-87084827D01*
X186291256Y-87097291D01*
X186321743Y-87109513D01*
X186354099Y-87121486D01*
X186388325Y-87133218D01*
X186424414Y-87144703D01*
X186462371Y-87155942D01*
X186502203Y-87166936D01*
X186543896Y-87177688D01*
X186587463Y-87188197D01*
X186632891Y-87198451D01*
X186680191Y-87208470D01*
X187221072Y-87317308D01*
X187321864Y-87338590D01*
X187418952Y-87361213D01*
X187512329Y-87385175D01*
X187601993Y-87410476D01*
X187687947Y-87437120D01*
X187770196Y-87465102D01*
X187848732Y-87494421D01*
X187923553Y-87525083D01*
X187994667Y-87557085D01*
X188062072Y-87590427D01*
X188125764Y-87625109D01*
X188185750Y-87661123D01*
X188242019Y-87698489D01*
X188294578Y-87737189D01*
X188343436Y-87777228D01*
X188388572Y-87818607D01*
X188430510Y-87861772D01*
X188469736Y-87907140D01*
X188506263Y-87954734D01*
X188540079Y-88004535D01*
X188571190Y-88056558D01*
X188599598Y-88110790D01*
X188625297Y-88167250D01*
X188648300Y-88225910D01*
X188668586Y-88286799D01*
X188686176Y-88349901D01*
X188701052Y-88415221D01*
X188713227Y-88482753D01*
X188722699Y-88552501D01*
X188729454Y-88624464D01*
X188733521Y-88698645D01*
X188734867Y-88775039D01*
X188732981Y-88875234D01*
X188727318Y-88972174D01*
X188717881Y-89065852D01*
X188704672Y-89156274D01*
X188687684Y-89243428D01*
X188666928Y-89327327D01*
X188642390Y-89407972D01*
X188614083Y-89485352D01*
X188581994Y-89559471D01*
X188546135Y-89630341D01*
X188506502Y-89697945D01*
X188463091Y-89762283D01*
X188415907Y-89823366D01*
X188364950Y-89881194D01*
X188310216Y-89935760D01*
X188251708Y-89987065D01*
X188189320Y-90035192D01*
X188122953Y-90080207D01*
X188052608Y-90122123D01*
X187978280Y-90160935D01*
X187899968Y-90196637D01*
X187817681Y-90229239D01*
X187731413Y-90258737D01*
X187641159Y-90285124D01*
X187546927Y-90308416D01*
X187448709Y-90328591D01*
X187346519Y-90345668D01*
X187240345Y-90359641D01*
X187130187Y-90370509D01*
X187016054Y-90378269D01*
X186897936Y-90382928D01*
X186775838Y-90384476D01*
X186658706Y-90383085D01*
X186541472Y-90378914D01*
X186424131Y-90371957D01*
X186306691Y-90362216D01*
X186189149Y-90349697D01*
X186071501Y-90334390D01*
X185953751Y-90316304D01*
X185835901Y-90295435D01*
X185717996Y-90271829D01*
X185600087Y-90245549D01*
X185482187Y-90216585D01*
X185364276Y-90184953D01*
X185246376Y-90150626D01*
X185128476Y-90113626D01*
X185010566Y-90073946D01*
X184892660Y-90031588D01*
X184892660Y-88959729D01*
X185010075Y-89020457D01*
X185126511Y-89077318D01*
X185241965Y-89130324D01*
X185356448Y-89179456D01*
X185469945Y-89224727D01*
X185582463Y-89266136D01*
X185694007Y-89303676D01*
X185804567Y-89337354D01*
X185914147Y-89367113D01*
X186022750Y-89392905D01*
X186130378Y-89414725D01*
X186237021Y-89432585D01*
X186342684Y-89446473D01*
X186447373Y-89456393D01*
X186551080Y-89462348D01*
X186653808Y-89464326D01*
X186704995Y-89463787D01*
X186754657Y-89462162D01*
X186802801Y-89459455D01*
X186849424Y-89455672D01*
X186894526Y-89450800D01*
X186938108Y-89444853D01*
X186980174Y-89437816D01*
X187020715Y-89429699D01*
X187059737Y-89420498D01*
X187097240Y-89410220D01*
X187133226Y-89398857D01*
X187167688Y-89386410D01*
X187200624Y-89372887D01*
X187232047Y-89358278D01*
X187261951Y-89342582D01*
X187290333Y-89325813D01*
X187317088Y-89308032D01*
X187342120Y-89289324D01*
X187353986Y-89279622D01*
X187365422Y-89269692D01*
X187376430Y-89259524D01*
X187387003Y-89249131D01*
X187397147Y-89238505D01*
X187406859Y-89227645D01*
X187416134Y-89216550D01*
X187424982Y-89205226D01*
X187433401Y-89193669D01*
X187441383Y-89181884D01*
X187448937Y-89169864D01*
X187456062Y-89157610D01*
X187462746Y-89145126D01*
X187469007Y-89132411D01*
X187474833Y-89119463D01*
X187480226Y-89106282D01*
X187485190Y-89092873D01*
X187489719Y-89079235D01*
X187493820Y-89065355D01*
X187497488Y-89051249D01*
X187500725Y-89036911D01*
X187503532Y-89022342D01*
X187505907Y-89007537D01*
X187507849Y-88992501D01*
X187509355Y-88977235D01*
X187510438Y-88961737D01*
X187511297Y-88930047D01*
X187510710Y-88901601D01*
X187508959Y-88873978D01*
X187506020Y-88847183D01*
X187501922Y-88821212D01*
X187496648Y-88796063D01*
X187490199Y-88771741D01*
X187482573Y-88748245D01*
X187473784Y-88725568D01*
X187463817Y-88703716D01*
X187452683Y-88682695D01*
X187440372Y-88662493D01*
X187426889Y-88643115D01*
X187412236Y-88624567D01*
X187396406Y-88606843D01*
X187379410Y-88589936D01*
X187361237Y-88573858D01*
X187341312Y-88558293D01*
X187319058Y-88542944D01*
X187294468Y-88527790D01*
X187267552Y-88512842D01*
X187238301Y-88498104D01*
X187206719Y-88483574D01*
X187172809Y-88469247D01*
X187136562Y-88455131D01*
X187097981Y-88441215D01*
X187057074Y-88427508D01*
X187013836Y-88414006D01*
X186968258Y-88400712D01*
X186920353Y-88387618D01*
X186870116Y-88374740D01*
X186817544Y-88362064D01*
X186762645Y-88349591D01*
X186271240Y-88240758D01*
X186180445Y-88220234D01*
X186092758Y-88198241D01*
X186008176Y-88174783D01*
X185926698Y-88149850D01*
X185848324Y-88123462D01*
X185773055Y-88095590D01*
X185700891Y-88066257D01*
X185631833Y-88035455D01*
X185565878Y-88003184D01*
X185503027Y-87969444D01*
X185443285Y-87934234D01*
X185386646Y-87897557D01*
X185333106Y-87859412D01*
X185282677Y-87819794D01*
X185235350Y-87778712D01*
X185191129Y-87736157D01*
X185149798Y-87691934D01*
X185111132Y-87645824D01*
X185075126Y-87597836D01*
X185041794Y-87547966D01*
X185011121Y-87496214D01*
X184983127Y-87442582D01*
X184957791Y-87387070D01*
X184935119Y-87329678D01*
X184915119Y-87270395D01*
X184897785Y-87209244D01*
X184883122Y-87146206D01*
X184871118Y-87081291D01*
X184861786Y-87014495D01*
X184855122Y-86945816D01*
X184851116Y-86875255D01*
X184849786Y-86802815D01*
X184851640Y-86712206D01*
X184857203Y-86624259D01*
X184866478Y-86538958D01*
X184879470Y-86456316D01*
X184896164Y-86376323D01*
X184916567Y-86298988D01*
X184940685Y-86224306D01*
X184968516Y-86152276D01*
X185000047Y-86082904D01*
X185035298Y-86016183D01*
X185074257Y-85952118D01*
X185116926Y-85890701D01*
X185163306Y-85831946D01*
X185213394Y-85775840D01*
X185267193Y-85722388D01*
X185324703Y-85671593D01*
X185385687Y-85623662D01*
X185449925Y-85578830D01*
X185517407Y-85537088D01*
X185588129Y-85498441D01*
X185662105Y-85462886D01*
X185739329Y-85430423D01*
X185819796Y-85401049D01*
X185903505Y-85374763D01*
X185990469Y-85351574D01*
X186080676Y-85331479D01*
X186174124Y-85314471D01*
X186270827Y-85300561D01*
X186370771Y-85289738D01*
X186473968Y-85282008D01*
X186580402Y-85277371D01*
X186690091Y-85275823D01*
X186791870Y-85276778D01*
G37*
D12*
X96000000Y-74500000D02*
G75*
G02*
X90000000Y-74500000I-3000000J0D01*
G01*
X90000000Y-74500000D02*
G75*
G02*
X96000000Y-74500000I3000000J0D01*
G01*
X96000000Y-123500000D02*
G75*
G02*
X90000000Y-123500000I-3000000J0D01*
G01*
X90000000Y-123500000D02*
G75*
G02*
X96000000Y-123500000I3000000J0D01*
G01*
X205000000Y-123500000D02*
G75*
G02*
X199000000Y-123500000I-3000000J0D01*
G01*
X199000000Y-123500000D02*
G75*
G02*
X205000000Y-123500000I3000000J0D01*
G01*
X205000000Y-64500000D02*
G75*
G02*
X199000000Y-64500000I-3000000J0D01*
G01*
X199000000Y-64500000D02*
G75*
G02*
X205000000Y-64500000I3000000J0D01*
G01*
D10*
X184510225Y-63713157D02*
X184367368Y-63641728D01*
X184367368Y-63641728D02*
X184153082Y-63641728D01*
X184153082Y-63641728D02*
X183938796Y-63713157D01*
X183938796Y-63713157D02*
X183795939Y-63856014D01*
X183795939Y-63856014D02*
X183724510Y-63998871D01*
X183724510Y-63998871D02*
X183653082Y-64284585D01*
X183653082Y-64284585D02*
X183653082Y-64498871D01*
X183653082Y-64498871D02*
X183724510Y-64784585D01*
X183724510Y-64784585D02*
X183795939Y-64927442D01*
X183795939Y-64927442D02*
X183938796Y-65070300D01*
X183938796Y-65070300D02*
X184153082Y-65141728D01*
X184153082Y-65141728D02*
X184295939Y-65141728D01*
X184295939Y-65141728D02*
X184510225Y-65070300D01*
X184510225Y-65070300D02*
X184581653Y-64998871D01*
X184581653Y-64998871D02*
X184581653Y-64498871D01*
X184581653Y-64498871D02*
X184295939Y-64498871D01*
X185224510Y-65141728D02*
X185224510Y-63641728D01*
X185224510Y-63641728D02*
X186081653Y-65141728D01*
X186081653Y-65141728D02*
X186081653Y-63641728D01*
X186795939Y-65141728D02*
X186795939Y-63641728D01*
X186795939Y-63641728D02*
X187153082Y-63641728D01*
X187153082Y-63641728D02*
X187367368Y-63713157D01*
X187367368Y-63713157D02*
X187510225Y-63856014D01*
X187510225Y-63856014D02*
X187581654Y-63998871D01*
X187581654Y-63998871D02*
X187653082Y-64284585D01*
X187653082Y-64284585D02*
X187653082Y-64498871D01*
X187653082Y-64498871D02*
X187581654Y-64784585D01*
X187581654Y-64784585D02*
X187510225Y-64927442D01*
X187510225Y-64927442D02*
X187367368Y-65070300D01*
X187367368Y-65070300D02*
X187153082Y-65141728D01*
X187153082Y-65141728D02*
X186795939Y-65141728D01*
X145920000Y-78840900D02*
X145920000Y-77340900D01*
X145920000Y-78840900D02*
X156670000Y-78840900D01*
X171170000Y-78840900D02*
X171170000Y-77340900D01*
X160170000Y-78840900D02*
X171170000Y-78840900D01*
X157100225Y-79070300D02*
X157314511Y-79141728D01*
X157314511Y-79141728D02*
X157671653Y-79141728D01*
X157671653Y-79141728D02*
X157814511Y-79070300D01*
X157814511Y-79070300D02*
X157885939Y-78998871D01*
X157885939Y-78998871D02*
X157957368Y-78856014D01*
X157957368Y-78856014D02*
X157957368Y-78713157D01*
X157957368Y-78713157D02*
X157885939Y-78570300D01*
X157885939Y-78570300D02*
X157814511Y-78498871D01*
X157814511Y-78498871D02*
X157671653Y-78427442D01*
X157671653Y-78427442D02*
X157385939Y-78356014D01*
X157385939Y-78356014D02*
X157243082Y-78284585D01*
X157243082Y-78284585D02*
X157171653Y-78213157D01*
X157171653Y-78213157D02*
X157100225Y-78070300D01*
X157100225Y-78070300D02*
X157100225Y-77927442D01*
X157100225Y-77927442D02*
X157171653Y-77784585D01*
X157171653Y-77784585D02*
X157243082Y-77713157D01*
X157243082Y-77713157D02*
X157385939Y-77641728D01*
X157385939Y-77641728D02*
X157743082Y-77641728D01*
X157743082Y-77641728D02*
X157957368Y-77713157D01*
X158600224Y-78570300D02*
X159743082Y-78570300D01*
X159171653Y-79141728D02*
X159171653Y-77998871D01*
X116940600Y-77323982D02*
X116869171Y-77538268D01*
X116869171Y-77538268D02*
X116869171Y-77895410D01*
X116869171Y-77895410D02*
X116940600Y-78038268D01*
X116940600Y-78038268D02*
X117012028Y-78109696D01*
X117012028Y-78109696D02*
X117154885Y-78181125D01*
X117154885Y-78181125D02*
X117297742Y-78181125D01*
X117297742Y-78181125D02*
X117440600Y-78109696D01*
X117440600Y-78109696D02*
X117512028Y-78038268D01*
X117512028Y-78038268D02*
X117583457Y-77895410D01*
X117583457Y-77895410D02*
X117654885Y-77609696D01*
X117654885Y-77609696D02*
X117726314Y-77466839D01*
X117726314Y-77466839D02*
X117797742Y-77395410D01*
X117797742Y-77395410D02*
X117940600Y-77323982D01*
X117940600Y-77323982D02*
X118083457Y-77323982D01*
X118083457Y-77323982D02*
X118226314Y-77395410D01*
X118226314Y-77395410D02*
X118297742Y-77466839D01*
X118297742Y-77466839D02*
X118369171Y-77609696D01*
X118369171Y-77609696D02*
X118369171Y-77966839D01*
X118369171Y-77966839D02*
X118297742Y-78181125D01*
X116869171Y-78895410D02*
X116869171Y-79181124D01*
X116869171Y-79181124D02*
X116940600Y-79323981D01*
X116940600Y-79323981D02*
X117012028Y-79395410D01*
X117012028Y-79395410D02*
X117226314Y-79538267D01*
X117226314Y-79538267D02*
X117512028Y-79609696D01*
X117512028Y-79609696D02*
X118083457Y-79609696D01*
X118083457Y-79609696D02*
X118226314Y-79538267D01*
X118226314Y-79538267D02*
X118297742Y-79466839D01*
X118297742Y-79466839D02*
X118369171Y-79323981D01*
X118369171Y-79323981D02*
X118369171Y-79038267D01*
X118369171Y-79038267D02*
X118297742Y-78895410D01*
X118297742Y-78895410D02*
X118226314Y-78823981D01*
X118226314Y-78823981D02*
X118083457Y-78752553D01*
X118083457Y-78752553D02*
X117726314Y-78752553D01*
X117726314Y-78752553D02*
X117583457Y-78823981D01*
X117583457Y-78823981D02*
X117512028Y-78895410D01*
X117512028Y-78895410D02*
X117440600Y-79038267D01*
X117440600Y-79038267D02*
X117440600Y-79323981D01*
X117440600Y-79323981D02*
X117512028Y-79466839D01*
X117512028Y-79466839D02*
X117583457Y-79538267D01*
X117583457Y-79538267D02*
X117726314Y-79609696D01*
X119496156Y-77323982D02*
X119424727Y-77538268D01*
X119424727Y-77538268D02*
X119424727Y-77895410D01*
X119424727Y-77895410D02*
X119496156Y-78038268D01*
X119496156Y-78038268D02*
X119567584Y-78109696D01*
X119567584Y-78109696D02*
X119710441Y-78181125D01*
X119710441Y-78181125D02*
X119853298Y-78181125D01*
X119853298Y-78181125D02*
X119996156Y-78109696D01*
X119996156Y-78109696D02*
X120067584Y-78038268D01*
X120067584Y-78038268D02*
X120139013Y-77895410D01*
X120139013Y-77895410D02*
X120210441Y-77609696D01*
X120210441Y-77609696D02*
X120281870Y-77466839D01*
X120281870Y-77466839D02*
X120353298Y-77395410D01*
X120353298Y-77395410D02*
X120496156Y-77323982D01*
X120496156Y-77323982D02*
X120639013Y-77323982D01*
X120639013Y-77323982D02*
X120781870Y-77395410D01*
X120781870Y-77395410D02*
X120853298Y-77466839D01*
X120853298Y-77466839D02*
X120924727Y-77609696D01*
X120924727Y-77609696D02*
X120924727Y-77966839D01*
X120924727Y-77966839D02*
X120853298Y-78181125D01*
X120281870Y-79038267D02*
X120353298Y-78895410D01*
X120353298Y-78895410D02*
X120424727Y-78823981D01*
X120424727Y-78823981D02*
X120567584Y-78752553D01*
X120567584Y-78752553D02*
X120639013Y-78752553D01*
X120639013Y-78752553D02*
X120781870Y-78823981D01*
X120781870Y-78823981D02*
X120853298Y-78895410D01*
X120853298Y-78895410D02*
X120924727Y-79038267D01*
X120924727Y-79038267D02*
X120924727Y-79323981D01*
X120924727Y-79323981D02*
X120853298Y-79466839D01*
X120853298Y-79466839D02*
X120781870Y-79538267D01*
X120781870Y-79538267D02*
X120639013Y-79609696D01*
X120639013Y-79609696D02*
X120567584Y-79609696D01*
X120567584Y-79609696D02*
X120424727Y-79538267D01*
X120424727Y-79538267D02*
X120353298Y-79466839D01*
X120353298Y-79466839D02*
X120281870Y-79323981D01*
X120281870Y-79323981D02*
X120281870Y-79038267D01*
X120281870Y-79038267D02*
X120210441Y-78895410D01*
X120210441Y-78895410D02*
X120139013Y-78823981D01*
X120139013Y-78823981D02*
X119996156Y-78752553D01*
X119996156Y-78752553D02*
X119710441Y-78752553D01*
X119710441Y-78752553D02*
X119567584Y-78823981D01*
X119567584Y-78823981D02*
X119496156Y-78895410D01*
X119496156Y-78895410D02*
X119424727Y-79038267D01*
X119424727Y-79038267D02*
X119424727Y-79323981D01*
X119424727Y-79323981D02*
X119496156Y-79466839D01*
X119496156Y-79466839D02*
X119567584Y-79538267D01*
X119567584Y-79538267D02*
X119710441Y-79609696D01*
X119710441Y-79609696D02*
X119996156Y-79609696D01*
X119996156Y-79609696D02*
X120139013Y-79538267D01*
X120139013Y-79538267D02*
X120210441Y-79466839D01*
X120210441Y-79466839D02*
X120281870Y-79323981D01*
X122051711Y-77323982D02*
X121980282Y-77538268D01*
X121980282Y-77538268D02*
X121980282Y-77895410D01*
X121980282Y-77895410D02*
X122051711Y-78038268D01*
X122051711Y-78038268D02*
X122123139Y-78109696D01*
X122123139Y-78109696D02*
X122265996Y-78181125D01*
X122265996Y-78181125D02*
X122408853Y-78181125D01*
X122408853Y-78181125D02*
X122551711Y-78109696D01*
X122551711Y-78109696D02*
X122623139Y-78038268D01*
X122623139Y-78038268D02*
X122694568Y-77895410D01*
X122694568Y-77895410D02*
X122765996Y-77609696D01*
X122765996Y-77609696D02*
X122837425Y-77466839D01*
X122837425Y-77466839D02*
X122908853Y-77395410D01*
X122908853Y-77395410D02*
X123051711Y-77323982D01*
X123051711Y-77323982D02*
X123194568Y-77323982D01*
X123194568Y-77323982D02*
X123337425Y-77395410D01*
X123337425Y-77395410D02*
X123408853Y-77466839D01*
X123408853Y-77466839D02*
X123480282Y-77609696D01*
X123480282Y-77609696D02*
X123480282Y-77966839D01*
X123480282Y-77966839D02*
X123408853Y-78181125D01*
X123480282Y-78681124D02*
X123480282Y-79681124D01*
X123480282Y-79681124D02*
X121980282Y-79038267D01*
X124607267Y-77323982D02*
X124535838Y-77538268D01*
X124535838Y-77538268D02*
X124535838Y-77895410D01*
X124535838Y-77895410D02*
X124607267Y-78038268D01*
X124607267Y-78038268D02*
X124678695Y-78109696D01*
X124678695Y-78109696D02*
X124821552Y-78181125D01*
X124821552Y-78181125D02*
X124964409Y-78181125D01*
X124964409Y-78181125D02*
X125107267Y-78109696D01*
X125107267Y-78109696D02*
X125178695Y-78038268D01*
X125178695Y-78038268D02*
X125250124Y-77895410D01*
X125250124Y-77895410D02*
X125321552Y-77609696D01*
X125321552Y-77609696D02*
X125392981Y-77466839D01*
X125392981Y-77466839D02*
X125464409Y-77395410D01*
X125464409Y-77395410D02*
X125607267Y-77323982D01*
X125607267Y-77323982D02*
X125750124Y-77323982D01*
X125750124Y-77323982D02*
X125892981Y-77395410D01*
X125892981Y-77395410D02*
X125964409Y-77466839D01*
X125964409Y-77466839D02*
X126035838Y-77609696D01*
X126035838Y-77609696D02*
X126035838Y-77966839D01*
X126035838Y-77966839D02*
X125964409Y-78181125D01*
X126035838Y-79466839D02*
X126035838Y-79181124D01*
X126035838Y-79181124D02*
X125964409Y-79038267D01*
X125964409Y-79038267D02*
X125892981Y-78966839D01*
X125892981Y-78966839D02*
X125678695Y-78823981D01*
X125678695Y-78823981D02*
X125392981Y-78752553D01*
X125392981Y-78752553D02*
X124821552Y-78752553D01*
X124821552Y-78752553D02*
X124678695Y-78823981D01*
X124678695Y-78823981D02*
X124607267Y-78895410D01*
X124607267Y-78895410D02*
X124535838Y-79038267D01*
X124535838Y-79038267D02*
X124535838Y-79323981D01*
X124535838Y-79323981D02*
X124607267Y-79466839D01*
X124607267Y-79466839D02*
X124678695Y-79538267D01*
X124678695Y-79538267D02*
X124821552Y-79609696D01*
X124821552Y-79609696D02*
X125178695Y-79609696D01*
X125178695Y-79609696D02*
X125321552Y-79538267D01*
X125321552Y-79538267D02*
X125392981Y-79466839D01*
X125392981Y-79466839D02*
X125464409Y-79323981D01*
X125464409Y-79323981D02*
X125464409Y-79038267D01*
X125464409Y-79038267D02*
X125392981Y-78895410D01*
X125392981Y-78895410D02*
X125321552Y-78823981D01*
X125321552Y-78823981D02*
X125178695Y-78752553D01*
X127162822Y-77323982D02*
X127091393Y-77538268D01*
X127091393Y-77538268D02*
X127091393Y-77895410D01*
X127091393Y-77895410D02*
X127162822Y-78038268D01*
X127162822Y-78038268D02*
X127234250Y-78109696D01*
X127234250Y-78109696D02*
X127377107Y-78181125D01*
X127377107Y-78181125D02*
X127519964Y-78181125D01*
X127519964Y-78181125D02*
X127662822Y-78109696D01*
X127662822Y-78109696D02*
X127734250Y-78038268D01*
X127734250Y-78038268D02*
X127805679Y-77895410D01*
X127805679Y-77895410D02*
X127877107Y-77609696D01*
X127877107Y-77609696D02*
X127948536Y-77466839D01*
X127948536Y-77466839D02*
X128019964Y-77395410D01*
X128019964Y-77395410D02*
X128162822Y-77323982D01*
X128162822Y-77323982D02*
X128305679Y-77323982D01*
X128305679Y-77323982D02*
X128448536Y-77395410D01*
X128448536Y-77395410D02*
X128519964Y-77466839D01*
X128519964Y-77466839D02*
X128591393Y-77609696D01*
X128591393Y-77609696D02*
X128591393Y-77966839D01*
X128591393Y-77966839D02*
X128519964Y-78181125D01*
X128591393Y-79538267D02*
X128591393Y-78823981D01*
X128591393Y-78823981D02*
X127877107Y-78752553D01*
X127877107Y-78752553D02*
X127948536Y-78823981D01*
X127948536Y-78823981D02*
X128019964Y-78966839D01*
X128019964Y-78966839D02*
X128019964Y-79323981D01*
X128019964Y-79323981D02*
X127948536Y-79466839D01*
X127948536Y-79466839D02*
X127877107Y-79538267D01*
X127877107Y-79538267D02*
X127734250Y-79609696D01*
X127734250Y-79609696D02*
X127377107Y-79609696D01*
X127377107Y-79609696D02*
X127234250Y-79538267D01*
X127234250Y-79538267D02*
X127162822Y-79466839D01*
X127162822Y-79466839D02*
X127091393Y-79323981D01*
X127091393Y-79323981D02*
X127091393Y-78966839D01*
X127091393Y-78966839D02*
X127162822Y-78823981D01*
X127162822Y-78823981D02*
X127234250Y-78752553D01*
X129718378Y-77323982D02*
X129646949Y-77538268D01*
X129646949Y-77538268D02*
X129646949Y-77895410D01*
X129646949Y-77895410D02*
X129718378Y-78038268D01*
X129718378Y-78038268D02*
X129789806Y-78109696D01*
X129789806Y-78109696D02*
X129932663Y-78181125D01*
X129932663Y-78181125D02*
X130075520Y-78181125D01*
X130075520Y-78181125D02*
X130218378Y-78109696D01*
X130218378Y-78109696D02*
X130289806Y-78038268D01*
X130289806Y-78038268D02*
X130361235Y-77895410D01*
X130361235Y-77895410D02*
X130432663Y-77609696D01*
X130432663Y-77609696D02*
X130504092Y-77466839D01*
X130504092Y-77466839D02*
X130575520Y-77395410D01*
X130575520Y-77395410D02*
X130718378Y-77323982D01*
X130718378Y-77323982D02*
X130861235Y-77323982D01*
X130861235Y-77323982D02*
X131004092Y-77395410D01*
X131004092Y-77395410D02*
X131075520Y-77466839D01*
X131075520Y-77466839D02*
X131146949Y-77609696D01*
X131146949Y-77609696D02*
X131146949Y-77966839D01*
X131146949Y-77966839D02*
X131075520Y-78181125D01*
X130646949Y-79466839D02*
X129646949Y-79466839D01*
X131218378Y-79109696D02*
X130146949Y-78752553D01*
X130146949Y-78752553D02*
X130146949Y-79681124D01*
X132273933Y-77323982D02*
X132202504Y-77538268D01*
X132202504Y-77538268D02*
X132202504Y-77895410D01*
X132202504Y-77895410D02*
X132273933Y-78038268D01*
X132273933Y-78038268D02*
X132345361Y-78109696D01*
X132345361Y-78109696D02*
X132488218Y-78181125D01*
X132488218Y-78181125D02*
X132631075Y-78181125D01*
X132631075Y-78181125D02*
X132773933Y-78109696D01*
X132773933Y-78109696D02*
X132845361Y-78038268D01*
X132845361Y-78038268D02*
X132916790Y-77895410D01*
X132916790Y-77895410D02*
X132988218Y-77609696D01*
X132988218Y-77609696D02*
X133059647Y-77466839D01*
X133059647Y-77466839D02*
X133131075Y-77395410D01*
X133131075Y-77395410D02*
X133273933Y-77323982D01*
X133273933Y-77323982D02*
X133416790Y-77323982D01*
X133416790Y-77323982D02*
X133559647Y-77395410D01*
X133559647Y-77395410D02*
X133631075Y-77466839D01*
X133631075Y-77466839D02*
X133702504Y-77609696D01*
X133702504Y-77609696D02*
X133702504Y-77966839D01*
X133702504Y-77966839D02*
X133631075Y-78181125D01*
X133702504Y-78681124D02*
X133702504Y-79609696D01*
X133702504Y-79609696D02*
X133131075Y-79109696D01*
X133131075Y-79109696D02*
X133131075Y-79323981D01*
X133131075Y-79323981D02*
X133059647Y-79466839D01*
X133059647Y-79466839D02*
X132988218Y-79538267D01*
X132988218Y-79538267D02*
X132845361Y-79609696D01*
X132845361Y-79609696D02*
X132488218Y-79609696D01*
X132488218Y-79609696D02*
X132345361Y-79538267D01*
X132345361Y-79538267D02*
X132273933Y-79466839D01*
X132273933Y-79466839D02*
X132202504Y-79323981D01*
X132202504Y-79323981D02*
X132202504Y-78895410D01*
X132202504Y-78895410D02*
X132273933Y-78752553D01*
X132273933Y-78752553D02*
X132345361Y-78681124D01*
X134829489Y-77323982D02*
X134758060Y-77538268D01*
X134758060Y-77538268D02*
X134758060Y-77895410D01*
X134758060Y-77895410D02*
X134829489Y-78038268D01*
X134829489Y-78038268D02*
X134900917Y-78109696D01*
X134900917Y-78109696D02*
X135043774Y-78181125D01*
X135043774Y-78181125D02*
X135186631Y-78181125D01*
X135186631Y-78181125D02*
X135329489Y-78109696D01*
X135329489Y-78109696D02*
X135400917Y-78038268D01*
X135400917Y-78038268D02*
X135472346Y-77895410D01*
X135472346Y-77895410D02*
X135543774Y-77609696D01*
X135543774Y-77609696D02*
X135615203Y-77466839D01*
X135615203Y-77466839D02*
X135686631Y-77395410D01*
X135686631Y-77395410D02*
X135829489Y-77323982D01*
X135829489Y-77323982D02*
X135972346Y-77323982D01*
X135972346Y-77323982D02*
X136115203Y-77395410D01*
X136115203Y-77395410D02*
X136186631Y-77466839D01*
X136186631Y-77466839D02*
X136258060Y-77609696D01*
X136258060Y-77609696D02*
X136258060Y-77966839D01*
X136258060Y-77966839D02*
X136186631Y-78181125D01*
X136115203Y-78752553D02*
X136186631Y-78823981D01*
X136186631Y-78823981D02*
X136258060Y-78966839D01*
X136258060Y-78966839D02*
X136258060Y-79323981D01*
X136258060Y-79323981D02*
X136186631Y-79466839D01*
X136186631Y-79466839D02*
X136115203Y-79538267D01*
X136115203Y-79538267D02*
X135972346Y-79609696D01*
X135972346Y-79609696D02*
X135829489Y-79609696D01*
X135829489Y-79609696D02*
X135615203Y-79538267D01*
X135615203Y-79538267D02*
X134758060Y-78681124D01*
X134758060Y-78681124D02*
X134758060Y-79609696D01*
X137385044Y-77323982D02*
X137313615Y-77538268D01*
X137313615Y-77538268D02*
X137313615Y-77895410D01*
X137313615Y-77895410D02*
X137385044Y-78038268D01*
X137385044Y-78038268D02*
X137456472Y-78109696D01*
X137456472Y-78109696D02*
X137599329Y-78181125D01*
X137599329Y-78181125D02*
X137742186Y-78181125D01*
X137742186Y-78181125D02*
X137885044Y-78109696D01*
X137885044Y-78109696D02*
X137956472Y-78038268D01*
X137956472Y-78038268D02*
X138027901Y-77895410D01*
X138027901Y-77895410D02*
X138099329Y-77609696D01*
X138099329Y-77609696D02*
X138170758Y-77466839D01*
X138170758Y-77466839D02*
X138242186Y-77395410D01*
X138242186Y-77395410D02*
X138385044Y-77323982D01*
X138385044Y-77323982D02*
X138527901Y-77323982D01*
X138527901Y-77323982D02*
X138670758Y-77395410D01*
X138670758Y-77395410D02*
X138742186Y-77466839D01*
X138742186Y-77466839D02*
X138813615Y-77609696D01*
X138813615Y-77609696D02*
X138813615Y-77966839D01*
X138813615Y-77966839D02*
X138742186Y-78181125D01*
X137313615Y-79609696D02*
X137313615Y-78752553D01*
X137313615Y-79181124D02*
X138813615Y-79181124D01*
X138813615Y-79181124D02*
X138599329Y-79038267D01*
X138599329Y-79038267D02*
X138456472Y-78895410D01*
X138456472Y-78895410D02*
X138385044Y-78752553D01*
X139940600Y-77323982D02*
X139869171Y-77538268D01*
X139869171Y-77538268D02*
X139869171Y-77895410D01*
X139869171Y-77895410D02*
X139940600Y-78038268D01*
X139940600Y-78038268D02*
X140012028Y-78109696D01*
X140012028Y-78109696D02*
X140154885Y-78181125D01*
X140154885Y-78181125D02*
X140297742Y-78181125D01*
X140297742Y-78181125D02*
X140440600Y-78109696D01*
X140440600Y-78109696D02*
X140512028Y-78038268D01*
X140512028Y-78038268D02*
X140583457Y-77895410D01*
X140583457Y-77895410D02*
X140654885Y-77609696D01*
X140654885Y-77609696D02*
X140726314Y-77466839D01*
X140726314Y-77466839D02*
X140797742Y-77395410D01*
X140797742Y-77395410D02*
X140940600Y-77323982D01*
X140940600Y-77323982D02*
X141083457Y-77323982D01*
X141083457Y-77323982D02*
X141226314Y-77395410D01*
X141226314Y-77395410D02*
X141297742Y-77466839D01*
X141297742Y-77466839D02*
X141369171Y-77609696D01*
X141369171Y-77609696D02*
X141369171Y-77966839D01*
X141369171Y-77966839D02*
X141297742Y-78181125D01*
X141369171Y-79109696D02*
X141369171Y-79252553D01*
X141369171Y-79252553D02*
X141297742Y-79395410D01*
X141297742Y-79395410D02*
X141226314Y-79466839D01*
X141226314Y-79466839D02*
X141083457Y-79538267D01*
X141083457Y-79538267D02*
X140797742Y-79609696D01*
X140797742Y-79609696D02*
X140440600Y-79609696D01*
X140440600Y-79609696D02*
X140154885Y-79538267D01*
X140154885Y-79538267D02*
X140012028Y-79466839D01*
X140012028Y-79466839D02*
X139940600Y-79395410D01*
X139940600Y-79395410D02*
X139869171Y-79252553D01*
X139869171Y-79252553D02*
X139869171Y-79109696D01*
X139869171Y-79109696D02*
X139940600Y-78966839D01*
X139940600Y-78966839D02*
X140012028Y-78895410D01*
X140012028Y-78895410D02*
X140154885Y-78823981D01*
X140154885Y-78823981D02*
X140440600Y-78752553D01*
X140440600Y-78752553D02*
X140797742Y-78752553D01*
X140797742Y-78752553D02*
X141083457Y-78823981D01*
X141083457Y-78823981D02*
X141226314Y-78895410D01*
X141226314Y-78895410D02*
X141297742Y-78966839D01*
X141297742Y-78966839D02*
X141369171Y-79109696D01*
X204224510Y-77070300D02*
X205367368Y-77070300D01*
X204795939Y-77641728D02*
X204795939Y-76498871D01*
X205081653Y-74998871D02*
X205010225Y-75070300D01*
X205010225Y-75070300D02*
X204795939Y-75141728D01*
X204795939Y-75141728D02*
X204653082Y-75141728D01*
X204653082Y-75141728D02*
X204438796Y-75070300D01*
X204438796Y-75070300D02*
X204295939Y-74927442D01*
X204295939Y-74927442D02*
X204224510Y-74784585D01*
X204224510Y-74784585D02*
X204153082Y-74498871D01*
X204153082Y-74498871D02*
X204153082Y-74284585D01*
X204153082Y-74284585D02*
X204224510Y-73998871D01*
X204224510Y-73998871D02*
X204295939Y-73856014D01*
X204295939Y-73856014D02*
X204438796Y-73713157D01*
X204438796Y-73713157D02*
X204653082Y-73641728D01*
X204653082Y-73641728D02*
X204795939Y-73641728D01*
X204795939Y-73641728D02*
X205010225Y-73713157D01*
X205010225Y-73713157D02*
X205081653Y-73784585D01*
X206010225Y-73641728D02*
X206295939Y-73641728D01*
X206295939Y-73641728D02*
X206438796Y-73713157D01*
X206438796Y-73713157D02*
X206581653Y-73856014D01*
X206581653Y-73856014D02*
X206653082Y-74141728D01*
X206653082Y-74141728D02*
X206653082Y-74641728D01*
X206653082Y-74641728D02*
X206581653Y-74927442D01*
X206581653Y-74927442D02*
X206438796Y-75070300D01*
X206438796Y-75070300D02*
X206295939Y-75141728D01*
X206295939Y-75141728D02*
X206010225Y-75141728D01*
X206010225Y-75141728D02*
X205867368Y-75070300D01*
X205867368Y-75070300D02*
X205724510Y-74927442D01*
X205724510Y-74927442D02*
X205653082Y-74641728D01*
X205653082Y-74641728D02*
X205653082Y-74141728D01*
X205653082Y-74141728D02*
X205724510Y-73856014D01*
X205724510Y-73856014D02*
X205867368Y-73713157D01*
X205867368Y-73713157D02*
X206010225Y-73641728D01*
X208010225Y-75141728D02*
X207295939Y-75141728D01*
X207295939Y-75141728D02*
X207295939Y-73641728D01*
X205010225Y-71213157D02*
X204867368Y-71141728D01*
X204867368Y-71141728D02*
X204653082Y-71141728D01*
X204653082Y-71141728D02*
X204438796Y-71213157D01*
X204438796Y-71213157D02*
X204295939Y-71356014D01*
X204295939Y-71356014D02*
X204224510Y-71498871D01*
X204224510Y-71498871D02*
X204153082Y-71784585D01*
X204153082Y-71784585D02*
X204153082Y-71998871D01*
X204153082Y-71998871D02*
X204224510Y-72284585D01*
X204224510Y-72284585D02*
X204295939Y-72427442D01*
X204295939Y-72427442D02*
X204438796Y-72570300D01*
X204438796Y-72570300D02*
X204653082Y-72641728D01*
X204653082Y-72641728D02*
X204795939Y-72641728D01*
X204795939Y-72641728D02*
X205010225Y-72570300D01*
X205010225Y-72570300D02*
X205081653Y-72498871D01*
X205081653Y-72498871D02*
X205081653Y-71998871D01*
X205081653Y-71998871D02*
X204795939Y-71998871D01*
X205724510Y-72641728D02*
X205724510Y-71141728D01*
X205724510Y-71141728D02*
X206581653Y-72641728D01*
X206581653Y-72641728D02*
X206581653Y-71141728D01*
X207295939Y-72641728D02*
X207295939Y-71141728D01*
X207295939Y-71141728D02*
X207653082Y-71141728D01*
X207653082Y-71141728D02*
X207867368Y-71213157D01*
X207867368Y-71213157D02*
X208010225Y-71356014D01*
X208010225Y-71356014D02*
X208081654Y-71498871D01*
X208081654Y-71498871D02*
X208153082Y-71784585D01*
X208153082Y-71784585D02*
X208153082Y-71998871D01*
X208153082Y-71998871D02*
X208081654Y-72284585D01*
X208081654Y-72284585D02*
X208010225Y-72427442D01*
X208010225Y-72427442D02*
X207867368Y-72570300D01*
X207867368Y-72570300D02*
X207653082Y-72641728D01*
X207653082Y-72641728D02*
X207295939Y-72641728D01*
X110724510Y-74070300D02*
X111867368Y-74070300D01*
X111295939Y-74641728D02*
X111295939Y-73498871D01*
X107940600Y-73823982D02*
X107869171Y-74038268D01*
X107869171Y-74038268D02*
X107869171Y-74395410D01*
X107869171Y-74395410D02*
X107940600Y-74538268D01*
X107940600Y-74538268D02*
X108012028Y-74609696D01*
X108012028Y-74609696D02*
X108154885Y-74681125D01*
X108154885Y-74681125D02*
X108297742Y-74681125D01*
X108297742Y-74681125D02*
X108440600Y-74609696D01*
X108440600Y-74609696D02*
X108512028Y-74538268D01*
X108512028Y-74538268D02*
X108583457Y-74395410D01*
X108583457Y-74395410D02*
X108654885Y-74109696D01*
X108654885Y-74109696D02*
X108726314Y-73966839D01*
X108726314Y-73966839D02*
X108797742Y-73895410D01*
X108797742Y-73895410D02*
X108940600Y-73823982D01*
X108940600Y-73823982D02*
X109083457Y-73823982D01*
X109083457Y-73823982D02*
X109226314Y-73895410D01*
X109226314Y-73895410D02*
X109297742Y-73966839D01*
X109297742Y-73966839D02*
X109369171Y-74109696D01*
X109369171Y-74109696D02*
X109369171Y-74466839D01*
X109369171Y-74466839D02*
X109297742Y-74681125D01*
X107869171Y-76109696D02*
X107869171Y-75252553D01*
X107869171Y-75681124D02*
X109369171Y-75681124D01*
X109369171Y-75681124D02*
X109154885Y-75538267D01*
X109154885Y-75538267D02*
X109012028Y-75395410D01*
X109012028Y-75395410D02*
X108940600Y-75252553D01*
X109369171Y-77038267D02*
X109369171Y-77181124D01*
X109369171Y-77181124D02*
X109297742Y-77323981D01*
X109297742Y-77323981D02*
X109226314Y-77395410D01*
X109226314Y-77395410D02*
X109083457Y-77466838D01*
X109083457Y-77466838D02*
X108797742Y-77538267D01*
X108797742Y-77538267D02*
X108440600Y-77538267D01*
X108440600Y-77538267D02*
X108154885Y-77466838D01*
X108154885Y-77466838D02*
X108012028Y-77395410D01*
X108012028Y-77395410D02*
X107940600Y-77323981D01*
X107940600Y-77323981D02*
X107869171Y-77181124D01*
X107869171Y-77181124D02*
X107869171Y-77038267D01*
X107869171Y-77038267D02*
X107940600Y-76895410D01*
X107940600Y-76895410D02*
X108012028Y-76823981D01*
X108012028Y-76823981D02*
X108154885Y-76752552D01*
X108154885Y-76752552D02*
X108440600Y-76681124D01*
X108440600Y-76681124D02*
X108797742Y-76681124D01*
X108797742Y-76681124D02*
X109083457Y-76752552D01*
X109083457Y-76752552D02*
X109226314Y-76823981D01*
X109226314Y-76823981D02*
X109297742Y-76895410D01*
X109297742Y-76895410D02*
X109369171Y-77038267D01*
X106797742Y-74681125D02*
X106869171Y-74538268D01*
X106869171Y-74538268D02*
X106869171Y-74323982D01*
X106869171Y-74323982D02*
X106797742Y-74109696D01*
X106797742Y-74109696D02*
X106654885Y-73966839D01*
X106654885Y-73966839D02*
X106512028Y-73895410D01*
X106512028Y-73895410D02*
X106226314Y-73823982D01*
X106226314Y-73823982D02*
X106012028Y-73823982D01*
X106012028Y-73823982D02*
X105726314Y-73895410D01*
X105726314Y-73895410D02*
X105583457Y-73966839D01*
X105583457Y-73966839D02*
X105440600Y-74109696D01*
X105440600Y-74109696D02*
X105369171Y-74323982D01*
X105369171Y-74323982D02*
X105369171Y-74466839D01*
X105369171Y-74466839D02*
X105440600Y-74681125D01*
X105440600Y-74681125D02*
X105512028Y-74752553D01*
X105512028Y-74752553D02*
X106012028Y-74752553D01*
X106012028Y-74752553D02*
X106012028Y-74466839D01*
X105369171Y-75395410D02*
X106869171Y-75395410D01*
X106869171Y-75395410D02*
X105369171Y-76252553D01*
X105369171Y-76252553D02*
X106869171Y-76252553D01*
X105369171Y-76966839D02*
X106869171Y-76966839D01*
X106869171Y-76966839D02*
X106869171Y-77323982D01*
X106869171Y-77323982D02*
X106797742Y-77538268D01*
X106797742Y-77538268D02*
X106654885Y-77681125D01*
X106654885Y-77681125D02*
X106512028Y-77752554D01*
X106512028Y-77752554D02*
X106226314Y-77823982D01*
X106226314Y-77823982D02*
X106012028Y-77823982D01*
X106012028Y-77823982D02*
X105726314Y-77752554D01*
X105726314Y-77752554D02*
X105583457Y-77681125D01*
X105583457Y-77681125D02*
X105440600Y-77538268D01*
X105440600Y-77538268D02*
X105369171Y-77323982D01*
X105369171Y-77323982D02*
X105369171Y-76966839D01*
X102510225Y-112641728D02*
X103010225Y-114141728D01*
X103010225Y-114141728D02*
X103510225Y-112641728D01*
X104295939Y-112641728D02*
X104581653Y-112641728D01*
X104581653Y-112641728D02*
X104724510Y-112713157D01*
X104724510Y-112713157D02*
X104867367Y-112856014D01*
X104867367Y-112856014D02*
X104938796Y-113141728D01*
X104938796Y-113141728D02*
X104938796Y-113641728D01*
X104938796Y-113641728D02*
X104867367Y-113927442D01*
X104867367Y-113927442D02*
X104724510Y-114070300D01*
X104724510Y-114070300D02*
X104581653Y-114141728D01*
X104581653Y-114141728D02*
X104295939Y-114141728D01*
X104295939Y-114141728D02*
X104153082Y-114070300D01*
X104153082Y-114070300D02*
X104010224Y-113927442D01*
X104010224Y-113927442D02*
X103938796Y-113641728D01*
X103938796Y-113641728D02*
X103938796Y-113141728D01*
X103938796Y-113141728D02*
X104010224Y-112856014D01*
X104010224Y-112856014D02*
X104153082Y-112713157D01*
X104153082Y-112713157D02*
X104295939Y-112641728D01*
X199724510Y-79856014D02*
X199938796Y-79927442D01*
X199938796Y-79927442D02*
X200010225Y-79998871D01*
X200010225Y-79998871D02*
X200081653Y-80141728D01*
X200081653Y-80141728D02*
X200081653Y-80356014D01*
X200081653Y-80356014D02*
X200010225Y-80498871D01*
X200010225Y-80498871D02*
X199938796Y-80570300D01*
X199938796Y-80570300D02*
X199795939Y-80641728D01*
X199795939Y-80641728D02*
X199224510Y-80641728D01*
X199224510Y-80641728D02*
X199224510Y-79141728D01*
X199224510Y-79141728D02*
X199724510Y-79141728D01*
X199724510Y-79141728D02*
X199867368Y-79213157D01*
X199867368Y-79213157D02*
X199938796Y-79284585D01*
X199938796Y-79284585D02*
X200010225Y-79427442D01*
X200010225Y-79427442D02*
X200010225Y-79570300D01*
X200010225Y-79570300D02*
X199938796Y-79713157D01*
X199938796Y-79713157D02*
X199867368Y-79784585D01*
X199867368Y-79784585D02*
X199724510Y-79856014D01*
X199724510Y-79856014D02*
X199224510Y-79856014D01*
X201367368Y-79641728D02*
X201367368Y-80641728D01*
X200724510Y-79641728D02*
X200724510Y-80427442D01*
X200724510Y-80427442D02*
X200795939Y-80570300D01*
X200795939Y-80570300D02*
X200938796Y-80641728D01*
X200938796Y-80641728D02*
X201153082Y-80641728D01*
X201153082Y-80641728D02*
X201295939Y-80570300D01*
X201295939Y-80570300D02*
X201367368Y-80498871D01*
X201938796Y-79641728D02*
X202724511Y-79641728D01*
X202724511Y-79641728D02*
X201938796Y-80641728D01*
X201938796Y-80641728D02*
X202724511Y-80641728D01*
X203153082Y-79641728D02*
X203938797Y-79641728D01*
X203938797Y-79641728D02*
X203153082Y-80641728D01*
X203153082Y-80641728D02*
X203938797Y-80641728D01*
X95510225Y-69141728D02*
X95795939Y-69141728D01*
X95795939Y-69141728D02*
X95938796Y-69213157D01*
X95938796Y-69213157D02*
X96081653Y-69356014D01*
X96081653Y-69356014D02*
X96153082Y-69641728D01*
X96153082Y-69641728D02*
X96153082Y-70141728D01*
X96153082Y-70141728D02*
X96081653Y-70427442D01*
X96081653Y-70427442D02*
X95938796Y-70570300D01*
X95938796Y-70570300D02*
X95795939Y-70641728D01*
X95795939Y-70641728D02*
X95510225Y-70641728D01*
X95510225Y-70641728D02*
X95367368Y-70570300D01*
X95367368Y-70570300D02*
X95224510Y-70427442D01*
X95224510Y-70427442D02*
X95153082Y-70141728D01*
X95153082Y-70141728D02*
X95153082Y-69641728D01*
X95153082Y-69641728D02*
X95224510Y-69356014D01*
X95224510Y-69356014D02*
X95367368Y-69213157D01*
X95367368Y-69213157D02*
X95510225Y-69141728D01*
X96795939Y-69641728D02*
X96795939Y-70641728D01*
X96795939Y-69784585D02*
X96867368Y-69713157D01*
X96867368Y-69713157D02*
X97010225Y-69641728D01*
X97010225Y-69641728D02*
X97224511Y-69641728D01*
X97224511Y-69641728D02*
X97367368Y-69713157D01*
X97367368Y-69713157D02*
X97438797Y-69856014D01*
X97438797Y-69856014D02*
X97438797Y-70641728D01*
X98153082Y-70641728D02*
X98153082Y-69141728D01*
X98153082Y-69713157D02*
X98295940Y-69641728D01*
X98295940Y-69641728D02*
X98581654Y-69641728D01*
X98581654Y-69641728D02*
X98724511Y-69713157D01*
X98724511Y-69713157D02*
X98795940Y-69784585D01*
X98795940Y-69784585D02*
X98867368Y-69927442D01*
X98867368Y-69927442D02*
X98867368Y-70356014D01*
X98867368Y-70356014D02*
X98795940Y-70498871D01*
X98795940Y-70498871D02*
X98724511Y-70570300D01*
X98724511Y-70570300D02*
X98581654Y-70641728D01*
X98581654Y-70641728D02*
X98295940Y-70641728D01*
X98295940Y-70641728D02*
X98153082Y-70570300D01*
X99724511Y-70641728D02*
X99581654Y-70570300D01*
X99581654Y-70570300D02*
X99510225Y-70498871D01*
X99510225Y-70498871D02*
X99438797Y-70356014D01*
X99438797Y-70356014D02*
X99438797Y-69927442D01*
X99438797Y-69927442D02*
X99510225Y-69784585D01*
X99510225Y-69784585D02*
X99581654Y-69713157D01*
X99581654Y-69713157D02*
X99724511Y-69641728D01*
X99724511Y-69641728D02*
X99938797Y-69641728D01*
X99938797Y-69641728D02*
X100081654Y-69713157D01*
X100081654Y-69713157D02*
X100153083Y-69784585D01*
X100153083Y-69784585D02*
X100224511Y-69927442D01*
X100224511Y-69927442D02*
X100224511Y-70356014D01*
X100224511Y-70356014D02*
X100153083Y-70498871D01*
X100153083Y-70498871D02*
X100081654Y-70570300D01*
X100081654Y-70570300D02*
X99938797Y-70641728D01*
X99938797Y-70641728D02*
X99724511Y-70641728D01*
X101510226Y-70641728D02*
X101510226Y-69856014D01*
X101510226Y-69856014D02*
X101438797Y-69713157D01*
X101438797Y-69713157D02*
X101295940Y-69641728D01*
X101295940Y-69641728D02*
X101010226Y-69641728D01*
X101010226Y-69641728D02*
X100867368Y-69713157D01*
X101510226Y-70570300D02*
X101367368Y-70641728D01*
X101367368Y-70641728D02*
X101010226Y-70641728D01*
X101010226Y-70641728D02*
X100867368Y-70570300D01*
X100867368Y-70570300D02*
X100795940Y-70427442D01*
X100795940Y-70427442D02*
X100795940Y-70284585D01*
X100795940Y-70284585D02*
X100867368Y-70141728D01*
X100867368Y-70141728D02*
X101010226Y-70070300D01*
X101010226Y-70070300D02*
X101367368Y-70070300D01*
X101367368Y-70070300D02*
X101510226Y-69998871D01*
X102224511Y-70641728D02*
X102224511Y-69641728D01*
X102224511Y-69927442D02*
X102295940Y-69784585D01*
X102295940Y-69784585D02*
X102367369Y-69713157D01*
X102367369Y-69713157D02*
X102510226Y-69641728D01*
X102510226Y-69641728D02*
X102653083Y-69641728D01*
X103795940Y-70641728D02*
X103795940Y-69141728D01*
X103795940Y-70570300D02*
X103653082Y-70641728D01*
X103653082Y-70641728D02*
X103367368Y-70641728D01*
X103367368Y-70641728D02*
X103224511Y-70570300D01*
X103224511Y-70570300D02*
X103153082Y-70498871D01*
X103153082Y-70498871D02*
X103081654Y-70356014D01*
X103081654Y-70356014D02*
X103081654Y-69927442D01*
X103081654Y-69927442D02*
X103153082Y-69784585D01*
X103153082Y-69784585D02*
X103224511Y-69713157D01*
X103224511Y-69713157D02*
X103367368Y-69641728D01*
X103367368Y-69641728D02*
X103653082Y-69641728D01*
X103653082Y-69641728D02*
X103795940Y-69713157D01*
X109153082Y-114713157D02*
X109867368Y-114713157D01*
X109010225Y-115141728D02*
X109510225Y-113641728D01*
X109510225Y-113641728D02*
X110010225Y-115141728D01*
X110724510Y-115141728D02*
X110581653Y-115070300D01*
X110581653Y-115070300D02*
X110510224Y-114927442D01*
X110510224Y-114927442D02*
X110510224Y-113641728D01*
X111295938Y-114141728D02*
X111295938Y-115641728D01*
X111295938Y-114213157D02*
X111438796Y-114141728D01*
X111438796Y-114141728D02*
X111724510Y-114141728D01*
X111724510Y-114141728D02*
X111867367Y-114213157D01*
X111867367Y-114213157D02*
X111938796Y-114284585D01*
X111938796Y-114284585D02*
X112010224Y-114427442D01*
X112010224Y-114427442D02*
X112010224Y-114856014D01*
X112010224Y-114856014D02*
X111938796Y-114998871D01*
X111938796Y-114998871D02*
X111867367Y-115070300D01*
X111867367Y-115070300D02*
X111724510Y-115141728D01*
X111724510Y-115141728D02*
X111438796Y-115141728D01*
X111438796Y-115141728D02*
X111295938Y-115070300D01*
X112653081Y-115141728D02*
X112653081Y-113641728D01*
X113295939Y-115141728D02*
X113295939Y-114356014D01*
X113295939Y-114356014D02*
X113224510Y-114213157D01*
X113224510Y-114213157D02*
X113081653Y-114141728D01*
X113081653Y-114141728D02*
X112867367Y-114141728D01*
X112867367Y-114141728D02*
X112724510Y-114213157D01*
X112724510Y-114213157D02*
X112653081Y-114284585D01*
X114653082Y-115141728D02*
X114653082Y-114356014D01*
X114653082Y-114356014D02*
X114581653Y-114213157D01*
X114581653Y-114213157D02*
X114438796Y-114141728D01*
X114438796Y-114141728D02*
X114153082Y-114141728D01*
X114153082Y-114141728D02*
X114010224Y-114213157D01*
X114653082Y-115070300D02*
X114510224Y-115141728D01*
X114510224Y-115141728D02*
X114153082Y-115141728D01*
X114153082Y-115141728D02*
X114010224Y-115070300D01*
X114010224Y-115070300D02*
X113938796Y-114927442D01*
X113938796Y-114927442D02*
X113938796Y-114784585D01*
X113938796Y-114784585D02*
X114010224Y-114641728D01*
X114010224Y-114641728D02*
X114153082Y-114570300D01*
X114153082Y-114570300D02*
X114510224Y-114570300D01*
X114510224Y-114570300D02*
X114653082Y-114498871D01*
X115367367Y-114141728D02*
X115367367Y-115141728D01*
X115367367Y-114284585D02*
X115438796Y-114213157D01*
X115438796Y-114213157D02*
X115581653Y-114141728D01*
X115581653Y-114141728D02*
X115795939Y-114141728D01*
X115795939Y-114141728D02*
X115938796Y-114213157D01*
X115938796Y-114213157D02*
X116010225Y-114356014D01*
X116010225Y-114356014D02*
X116010225Y-115141728D01*
X117367368Y-114141728D02*
X117367368Y-115141728D01*
X116724510Y-114141728D02*
X116724510Y-114927442D01*
X116724510Y-114927442D02*
X116795939Y-115070300D01*
X116795939Y-115070300D02*
X116938796Y-115141728D01*
X116938796Y-115141728D02*
X117153082Y-115141728D01*
X117153082Y-115141728D02*
X117295939Y-115070300D01*
X117295939Y-115070300D02*
X117367368Y-114998871D01*
X118081653Y-115141728D02*
X118081653Y-114141728D01*
X118081653Y-114284585D02*
X118153082Y-114213157D01*
X118153082Y-114213157D02*
X118295939Y-114141728D01*
X118295939Y-114141728D02*
X118510225Y-114141728D01*
X118510225Y-114141728D02*
X118653082Y-114213157D01*
X118653082Y-114213157D02*
X118724511Y-114356014D01*
X118724511Y-114356014D02*
X118724511Y-115141728D01*
X118724511Y-114356014D02*
X118795939Y-114213157D01*
X118795939Y-114213157D02*
X118938796Y-114141728D01*
X118938796Y-114141728D02*
X119153082Y-114141728D01*
X119153082Y-114141728D02*
X119295939Y-114213157D01*
X119295939Y-114213157D02*
X119367368Y-114356014D01*
X119367368Y-114356014D02*
X119367368Y-115141728D01*
X120653082Y-115070300D02*
X120510225Y-115141728D01*
X120510225Y-115141728D02*
X120224511Y-115141728D01*
X120224511Y-115141728D02*
X120081653Y-115070300D01*
X120081653Y-115070300D02*
X120010225Y-114927442D01*
X120010225Y-114927442D02*
X120010225Y-114356014D01*
X120010225Y-114356014D02*
X120081653Y-114213157D01*
X120081653Y-114213157D02*
X120224511Y-114141728D01*
X120224511Y-114141728D02*
X120510225Y-114141728D01*
X120510225Y-114141728D02*
X120653082Y-114213157D01*
X120653082Y-114213157D02*
X120724511Y-114356014D01*
X120724511Y-114356014D02*
X120724511Y-114498871D01*
X120724511Y-114498871D02*
X120010225Y-114641728D01*
X121367367Y-115141728D02*
X121367367Y-114141728D01*
X121367367Y-114427442D02*
X121438796Y-114284585D01*
X121438796Y-114284585D02*
X121510225Y-114213157D01*
X121510225Y-114213157D02*
X121653082Y-114141728D01*
X121653082Y-114141728D02*
X121795939Y-114141728D01*
X122295938Y-115141728D02*
X122295938Y-114141728D01*
X122295938Y-113641728D02*
X122224510Y-113713157D01*
X122224510Y-113713157D02*
X122295938Y-113784585D01*
X122295938Y-113784585D02*
X122367367Y-113713157D01*
X122367367Y-113713157D02*
X122295938Y-113641728D01*
X122295938Y-113641728D02*
X122295938Y-113784585D01*
X123653082Y-115070300D02*
X123510224Y-115141728D01*
X123510224Y-115141728D02*
X123224510Y-115141728D01*
X123224510Y-115141728D02*
X123081653Y-115070300D01*
X123081653Y-115070300D02*
X123010224Y-114998871D01*
X123010224Y-114998871D02*
X122938796Y-114856014D01*
X122938796Y-114856014D02*
X122938796Y-114427442D01*
X122938796Y-114427442D02*
X123010224Y-114284585D01*
X123010224Y-114284585D02*
X123081653Y-114213157D01*
X123081653Y-114213157D02*
X123224510Y-114141728D01*
X123224510Y-114141728D02*
X123510224Y-114141728D01*
X123510224Y-114141728D02*
X123653082Y-114213157D01*
X91010225Y-127141728D02*
X91867368Y-127141728D01*
X91438796Y-128641728D02*
X91438796Y-127141728D01*
X92867367Y-127856014D02*
X92367367Y-127856014D01*
X92367367Y-128641728D02*
X92367367Y-127141728D01*
X92367367Y-127141728D02*
X93081653Y-127141728D01*
X93438796Y-127141728D02*
X94295939Y-127141728D01*
X93867367Y-128641728D02*
X93867367Y-127141728D01*
X94795938Y-128070300D02*
X95938796Y-128070300D01*
X96438796Y-127141728D02*
X97295939Y-127141728D01*
X96867367Y-128641728D02*
X96867367Y-127141728D01*
X98010224Y-128641728D02*
X97867367Y-128570300D01*
X97867367Y-128570300D02*
X97795938Y-128498871D01*
X97795938Y-128498871D02*
X97724510Y-128356014D01*
X97724510Y-128356014D02*
X97724510Y-127927442D01*
X97724510Y-127927442D02*
X97795938Y-127784585D01*
X97795938Y-127784585D02*
X97867367Y-127713157D01*
X97867367Y-127713157D02*
X98010224Y-127641728D01*
X98010224Y-127641728D02*
X98224510Y-127641728D01*
X98224510Y-127641728D02*
X98367367Y-127713157D01*
X98367367Y-127713157D02*
X98438796Y-127784585D01*
X98438796Y-127784585D02*
X98510224Y-127927442D01*
X98510224Y-127927442D02*
X98510224Y-128356014D01*
X98510224Y-128356014D02*
X98438796Y-128498871D01*
X98438796Y-128498871D02*
X98367367Y-128570300D01*
X98367367Y-128570300D02*
X98224510Y-128641728D01*
X98224510Y-128641728D02*
X98010224Y-128641728D01*
X99795939Y-127641728D02*
X99795939Y-128641728D01*
X99153081Y-127641728D02*
X99153081Y-128427442D01*
X99153081Y-128427442D02*
X99224510Y-128570300D01*
X99224510Y-128570300D02*
X99367367Y-128641728D01*
X99367367Y-128641728D02*
X99581653Y-128641728D01*
X99581653Y-128641728D02*
X99724510Y-128570300D01*
X99724510Y-128570300D02*
X99795939Y-128498871D01*
X101153082Y-128570300D02*
X101010224Y-128641728D01*
X101010224Y-128641728D02*
X100724510Y-128641728D01*
X100724510Y-128641728D02*
X100581653Y-128570300D01*
X100581653Y-128570300D02*
X100510224Y-128498871D01*
X100510224Y-128498871D02*
X100438796Y-128356014D01*
X100438796Y-128356014D02*
X100438796Y-127927442D01*
X100438796Y-127927442D02*
X100510224Y-127784585D01*
X100510224Y-127784585D02*
X100581653Y-127713157D01*
X100581653Y-127713157D02*
X100724510Y-127641728D01*
X100724510Y-127641728D02*
X101010224Y-127641728D01*
X101010224Y-127641728D02*
X101153082Y-127713157D01*
X101795938Y-128641728D02*
X101795938Y-127141728D01*
X102438796Y-128641728D02*
X102438796Y-127856014D01*
X102438796Y-127856014D02*
X102367367Y-127713157D01*
X102367367Y-127713157D02*
X102224510Y-127641728D01*
X102224510Y-127641728D02*
X102010224Y-127641728D01*
X102010224Y-127641728D02*
X101867367Y-127713157D01*
X101867367Y-127713157D02*
X101795938Y-127784585D01*
X184795939Y-118141728D02*
X185081653Y-118141728D01*
X185081653Y-118141728D02*
X185224510Y-118070300D01*
X185224510Y-118070300D02*
X185295939Y-117998871D01*
X185295939Y-117998871D02*
X185438796Y-117784585D01*
X185438796Y-117784585D02*
X185510225Y-117498871D01*
X185510225Y-117498871D02*
X185510225Y-116927442D01*
X185510225Y-116927442D02*
X185438796Y-116784585D01*
X185438796Y-116784585D02*
X185367368Y-116713157D01*
X185367368Y-116713157D02*
X185224510Y-116641728D01*
X185224510Y-116641728D02*
X184938796Y-116641728D01*
X184938796Y-116641728D02*
X184795939Y-116713157D01*
X184795939Y-116713157D02*
X184724510Y-116784585D01*
X184724510Y-116784585D02*
X184653082Y-116927442D01*
X184653082Y-116927442D02*
X184653082Y-117284585D01*
X184653082Y-117284585D02*
X184724510Y-117427442D01*
X184724510Y-117427442D02*
X184795939Y-117498871D01*
X184795939Y-117498871D02*
X184938796Y-117570300D01*
X184938796Y-117570300D02*
X185224510Y-117570300D01*
X185224510Y-117570300D02*
X185367368Y-117498871D01*
X185367368Y-117498871D02*
X185438796Y-117427442D01*
X185438796Y-117427442D02*
X185510225Y-117284585D01*
X186438796Y-116641728D02*
X186581653Y-116641728D01*
X186581653Y-116641728D02*
X186724510Y-116713157D01*
X186724510Y-116713157D02*
X186795939Y-116784585D01*
X186795939Y-116784585D02*
X186867367Y-116927442D01*
X186867367Y-116927442D02*
X186938796Y-117213157D01*
X186938796Y-117213157D02*
X186938796Y-117570300D01*
X186938796Y-117570300D02*
X186867367Y-117856014D01*
X186867367Y-117856014D02*
X186795939Y-117998871D01*
X186795939Y-117998871D02*
X186724510Y-118070300D01*
X186724510Y-118070300D02*
X186581653Y-118141728D01*
X186581653Y-118141728D02*
X186438796Y-118141728D01*
X186438796Y-118141728D02*
X186295939Y-118070300D01*
X186295939Y-118070300D02*
X186224510Y-117998871D01*
X186224510Y-117998871D02*
X186153081Y-117856014D01*
X186153081Y-117856014D02*
X186081653Y-117570300D01*
X186081653Y-117570300D02*
X186081653Y-117213157D01*
X186081653Y-117213157D02*
X186153081Y-116927442D01*
X186153081Y-116927442D02*
X186224510Y-116784585D01*
X186224510Y-116784585D02*
X186295939Y-116713157D01*
X186295939Y-116713157D02*
X186438796Y-116641728D01*
X187581652Y-117570300D02*
X188724510Y-117570300D01*
X189367367Y-116784585D02*
X189438795Y-116713157D01*
X189438795Y-116713157D02*
X189581653Y-116641728D01*
X189581653Y-116641728D02*
X189938795Y-116641728D01*
X189938795Y-116641728D02*
X190081653Y-116713157D01*
X190081653Y-116713157D02*
X190153081Y-116784585D01*
X190153081Y-116784585D02*
X190224510Y-116927442D01*
X190224510Y-116927442D02*
X190224510Y-117070300D01*
X190224510Y-117070300D02*
X190153081Y-117284585D01*
X190153081Y-117284585D02*
X189295938Y-118141728D01*
X189295938Y-118141728D02*
X190224510Y-118141728D01*
X191510224Y-117141728D02*
X191510224Y-118141728D01*
X191153081Y-116570300D02*
X190795938Y-117641728D01*
X190795938Y-117641728D02*
X191724509Y-117641728D01*
X192581652Y-116641728D02*
X192724509Y-116641728D01*
X192724509Y-116641728D02*
X192867366Y-116713157D01*
X192867366Y-116713157D02*
X192938795Y-116784585D01*
X192938795Y-116784585D02*
X193010223Y-116927442D01*
X193010223Y-116927442D02*
X193081652Y-117213157D01*
X193081652Y-117213157D02*
X193081652Y-117570300D01*
X193081652Y-117570300D02*
X193010223Y-117856014D01*
X193010223Y-117856014D02*
X192938795Y-117998871D01*
X192938795Y-117998871D02*
X192867366Y-118070300D01*
X192867366Y-118070300D02*
X192724509Y-118141728D01*
X192724509Y-118141728D02*
X192581652Y-118141728D01*
X192581652Y-118141728D02*
X192438795Y-118070300D01*
X192438795Y-118070300D02*
X192367366Y-117998871D01*
X192367366Y-117998871D02*
X192295937Y-117856014D01*
X192295937Y-117856014D02*
X192224509Y-117570300D01*
X192224509Y-117570300D02*
X192224509Y-117213157D01*
X192224509Y-117213157D02*
X192295937Y-116927442D01*
X192295937Y-116927442D02*
X192367366Y-116784585D01*
X192367366Y-116784585D02*
X192438795Y-116713157D01*
X192438795Y-116713157D02*
X192581652Y-116641728D01*
X193510223Y-116641728D02*
X194010223Y-118141728D01*
X194010223Y-118141728D02*
X194510223Y-116641728D01*
X195653080Y-118141728D02*
X195653080Y-117356014D01*
X195653080Y-117356014D02*
X195581651Y-117213157D01*
X195581651Y-117213157D02*
X195438794Y-117141728D01*
X195438794Y-117141728D02*
X195153080Y-117141728D01*
X195153080Y-117141728D02*
X195010222Y-117213157D01*
X195653080Y-118070300D02*
X195510222Y-118141728D01*
X195510222Y-118141728D02*
X195153080Y-118141728D01*
X195153080Y-118141728D02*
X195010222Y-118070300D01*
X195010222Y-118070300D02*
X194938794Y-117927442D01*
X194938794Y-117927442D02*
X194938794Y-117784585D01*
X194938794Y-117784585D02*
X195010222Y-117641728D01*
X195010222Y-117641728D02*
X195153080Y-117570300D01*
X195153080Y-117570300D02*
X195510222Y-117570300D01*
X195510222Y-117570300D02*
X195653080Y-117498871D01*
X197010223Y-118070300D02*
X196867365Y-118141728D01*
X196867365Y-118141728D02*
X196581651Y-118141728D01*
X196581651Y-118141728D02*
X196438794Y-118070300D01*
X196438794Y-118070300D02*
X196367365Y-117998871D01*
X196367365Y-117998871D02*
X196295937Y-117856014D01*
X196295937Y-117856014D02*
X196295937Y-117427442D01*
X196295937Y-117427442D02*
X196367365Y-117284585D01*
X196367365Y-117284585D02*
X196438794Y-117213157D01*
X196438794Y-117213157D02*
X196581651Y-117141728D01*
X196581651Y-117141728D02*
X196867365Y-117141728D01*
X196867365Y-117141728D02*
X197010223Y-117213157D01*
X104369171Y-121966839D02*
X104369171Y-121109696D01*
X104369171Y-121538267D02*
X105869171Y-121538267D01*
X105869171Y-121538267D02*
X105654885Y-121395410D01*
X105654885Y-121395410D02*
X105512028Y-121252553D01*
X105512028Y-121252553D02*
X105440600Y-121109696D01*
X105369171Y-123252553D02*
X104369171Y-123252553D01*
X105940600Y-122895410D02*
X104869171Y-122538267D01*
X104869171Y-122538267D02*
X104869171Y-123466838D01*
X106907633Y-121966839D02*
X106907633Y-121109696D01*
X106907633Y-121538267D02*
X108407633Y-121538267D01*
X108407633Y-121538267D02*
X108193347Y-121395410D01*
X108193347Y-121395410D02*
X108050490Y-121252553D01*
X108050490Y-121252553D02*
X107979062Y-121109696D01*
X108407633Y-122466838D02*
X108407633Y-123395410D01*
X108407633Y-123395410D02*
X107836204Y-122895410D01*
X107836204Y-122895410D02*
X107836204Y-123109695D01*
X107836204Y-123109695D02*
X107764776Y-123252553D01*
X107764776Y-123252553D02*
X107693347Y-123323981D01*
X107693347Y-123323981D02*
X107550490Y-123395410D01*
X107550490Y-123395410D02*
X107193347Y-123395410D01*
X107193347Y-123395410D02*
X107050490Y-123323981D01*
X107050490Y-123323981D02*
X106979062Y-123252553D01*
X106979062Y-123252553D02*
X106907633Y-123109695D01*
X106907633Y-123109695D02*
X106907633Y-122681124D01*
X106907633Y-122681124D02*
X106979062Y-122538267D01*
X106979062Y-122538267D02*
X107050490Y-122466838D01*
X109446094Y-121966839D02*
X109446094Y-121109696D01*
X109446094Y-121538267D02*
X110946094Y-121538267D01*
X110946094Y-121538267D02*
X110731808Y-121395410D01*
X110731808Y-121395410D02*
X110588951Y-121252553D01*
X110588951Y-121252553D02*
X110517523Y-121109696D01*
X110803237Y-122538267D02*
X110874665Y-122609695D01*
X110874665Y-122609695D02*
X110946094Y-122752553D01*
X110946094Y-122752553D02*
X110946094Y-123109695D01*
X110946094Y-123109695D02*
X110874665Y-123252553D01*
X110874665Y-123252553D02*
X110803237Y-123323981D01*
X110803237Y-123323981D02*
X110660380Y-123395410D01*
X110660380Y-123395410D02*
X110517523Y-123395410D01*
X110517523Y-123395410D02*
X110303237Y-123323981D01*
X110303237Y-123323981D02*
X109446094Y-122466838D01*
X109446094Y-122466838D02*
X109446094Y-123395410D01*
X111984556Y-121966839D02*
X111984556Y-121109696D01*
X111984556Y-121538267D02*
X113484556Y-121538267D01*
X113484556Y-121538267D02*
X113270270Y-121395410D01*
X113270270Y-121395410D02*
X113127413Y-121252553D01*
X113127413Y-121252553D02*
X113055985Y-121109696D01*
X111984556Y-123395410D02*
X111984556Y-122538267D01*
X111984556Y-122966838D02*
X113484556Y-122966838D01*
X113484556Y-122966838D02*
X113270270Y-122823981D01*
X113270270Y-122823981D02*
X113127413Y-122681124D01*
X113127413Y-122681124D02*
X113055985Y-122538267D01*
X114523017Y-121966839D02*
X114523017Y-121109696D01*
X114523017Y-121538267D02*
X116023017Y-121538267D01*
X116023017Y-121538267D02*
X115808731Y-121395410D01*
X115808731Y-121395410D02*
X115665874Y-121252553D01*
X115665874Y-121252553D02*
X115594446Y-121109696D01*
X116023017Y-122895410D02*
X116023017Y-123038267D01*
X116023017Y-123038267D02*
X115951588Y-123181124D01*
X115951588Y-123181124D02*
X115880160Y-123252553D01*
X115880160Y-123252553D02*
X115737303Y-123323981D01*
X115737303Y-123323981D02*
X115451588Y-123395410D01*
X115451588Y-123395410D02*
X115094446Y-123395410D01*
X115094446Y-123395410D02*
X114808731Y-123323981D01*
X114808731Y-123323981D02*
X114665874Y-123252553D01*
X114665874Y-123252553D02*
X114594446Y-123181124D01*
X114594446Y-123181124D02*
X114523017Y-123038267D01*
X114523017Y-123038267D02*
X114523017Y-122895410D01*
X114523017Y-122895410D02*
X114594446Y-122752553D01*
X114594446Y-122752553D02*
X114665874Y-122681124D01*
X114665874Y-122681124D02*
X114808731Y-122609695D01*
X114808731Y-122609695D02*
X115094446Y-122538267D01*
X115094446Y-122538267D02*
X115451588Y-122538267D01*
X115451588Y-122538267D02*
X115737303Y-122609695D01*
X115737303Y-122609695D02*
X115880160Y-122681124D01*
X115880160Y-122681124D02*
X115951588Y-122752553D01*
X115951588Y-122752553D02*
X116023017Y-122895410D01*
X117061479Y-121966839D02*
X117061479Y-122252553D01*
X117061479Y-122252553D02*
X117132908Y-122395410D01*
X117132908Y-122395410D02*
X117204336Y-122466839D01*
X117204336Y-122466839D02*
X117418622Y-122609696D01*
X117418622Y-122609696D02*
X117704336Y-122681125D01*
X117704336Y-122681125D02*
X118275765Y-122681125D01*
X118275765Y-122681125D02*
X118418622Y-122609696D01*
X118418622Y-122609696D02*
X118490050Y-122538268D01*
X118490050Y-122538268D02*
X118561479Y-122395410D01*
X118561479Y-122395410D02*
X118561479Y-122109696D01*
X118561479Y-122109696D02*
X118490050Y-121966839D01*
X118490050Y-121966839D02*
X118418622Y-121895410D01*
X118418622Y-121895410D02*
X118275765Y-121823982D01*
X118275765Y-121823982D02*
X117918622Y-121823982D01*
X117918622Y-121823982D02*
X117775765Y-121895410D01*
X117775765Y-121895410D02*
X117704336Y-121966839D01*
X117704336Y-121966839D02*
X117632908Y-122109696D01*
X117632908Y-122109696D02*
X117632908Y-122395410D01*
X117632908Y-122395410D02*
X117704336Y-122538268D01*
X117704336Y-122538268D02*
X117775765Y-122609696D01*
X117775765Y-122609696D02*
X117918622Y-122681125D01*
X120457083Y-122109696D02*
X120528511Y-121966839D01*
X120528511Y-121966839D02*
X120599940Y-121895410D01*
X120599940Y-121895410D02*
X120742797Y-121823982D01*
X120742797Y-121823982D02*
X120814226Y-121823982D01*
X120814226Y-121823982D02*
X120957083Y-121895410D01*
X120957083Y-121895410D02*
X121028511Y-121966839D01*
X121028511Y-121966839D02*
X121099940Y-122109696D01*
X121099940Y-122109696D02*
X121099940Y-122395410D01*
X121099940Y-122395410D02*
X121028511Y-122538268D01*
X121028511Y-122538268D02*
X120957083Y-122609696D01*
X120957083Y-122609696D02*
X120814226Y-122681125D01*
X120814226Y-122681125D02*
X120742797Y-122681125D01*
X120742797Y-122681125D02*
X120599940Y-122609696D01*
X120599940Y-122609696D02*
X120528511Y-122538268D01*
X120528511Y-122538268D02*
X120457083Y-122395410D01*
X120457083Y-122395410D02*
X120457083Y-122109696D01*
X120457083Y-122109696D02*
X120385654Y-121966839D01*
X120385654Y-121966839D02*
X120314226Y-121895410D01*
X120314226Y-121895410D02*
X120171369Y-121823982D01*
X120171369Y-121823982D02*
X119885654Y-121823982D01*
X119885654Y-121823982D02*
X119742797Y-121895410D01*
X119742797Y-121895410D02*
X119671369Y-121966839D01*
X119671369Y-121966839D02*
X119599940Y-122109696D01*
X119599940Y-122109696D02*
X119599940Y-122395410D01*
X119599940Y-122395410D02*
X119671369Y-122538268D01*
X119671369Y-122538268D02*
X119742797Y-122609696D01*
X119742797Y-122609696D02*
X119885654Y-122681125D01*
X119885654Y-122681125D02*
X120171369Y-122681125D01*
X120171369Y-122681125D02*
X120314226Y-122609696D01*
X120314226Y-122609696D02*
X120385654Y-122538268D01*
X120385654Y-122538268D02*
X120457083Y-122395410D01*
X123638402Y-121752553D02*
X123638402Y-122752553D01*
X123638402Y-122752553D02*
X122138402Y-122109696D01*
X126176863Y-122538268D02*
X126176863Y-122252553D01*
X126176863Y-122252553D02*
X126105434Y-122109696D01*
X126105434Y-122109696D02*
X126034006Y-122038268D01*
X126034006Y-122038268D02*
X125819720Y-121895410D01*
X125819720Y-121895410D02*
X125534006Y-121823982D01*
X125534006Y-121823982D02*
X124962577Y-121823982D01*
X124962577Y-121823982D02*
X124819720Y-121895410D01*
X124819720Y-121895410D02*
X124748292Y-121966839D01*
X124748292Y-121966839D02*
X124676863Y-122109696D01*
X124676863Y-122109696D02*
X124676863Y-122395410D01*
X124676863Y-122395410D02*
X124748292Y-122538268D01*
X124748292Y-122538268D02*
X124819720Y-122609696D01*
X124819720Y-122609696D02*
X124962577Y-122681125D01*
X124962577Y-122681125D02*
X125319720Y-122681125D01*
X125319720Y-122681125D02*
X125462577Y-122609696D01*
X125462577Y-122609696D02*
X125534006Y-122538268D01*
X125534006Y-122538268D02*
X125605434Y-122395410D01*
X125605434Y-122395410D02*
X125605434Y-122109696D01*
X125605434Y-122109696D02*
X125534006Y-121966839D01*
X125534006Y-121966839D02*
X125462577Y-121895410D01*
X125462577Y-121895410D02*
X125319720Y-121823982D01*
X128715325Y-122609696D02*
X128715325Y-121895410D01*
X128715325Y-121895410D02*
X128001039Y-121823982D01*
X128001039Y-121823982D02*
X128072468Y-121895410D01*
X128072468Y-121895410D02*
X128143896Y-122038268D01*
X128143896Y-122038268D02*
X128143896Y-122395410D01*
X128143896Y-122395410D02*
X128072468Y-122538268D01*
X128072468Y-122538268D02*
X128001039Y-122609696D01*
X128001039Y-122609696D02*
X127858182Y-122681125D01*
X127858182Y-122681125D02*
X127501039Y-122681125D01*
X127501039Y-122681125D02*
X127358182Y-122609696D01*
X127358182Y-122609696D02*
X127286754Y-122538268D01*
X127286754Y-122538268D02*
X127215325Y-122395410D01*
X127215325Y-122395410D02*
X127215325Y-122038268D01*
X127215325Y-122038268D02*
X127286754Y-121895410D01*
X127286754Y-121895410D02*
X127358182Y-121823982D01*
X130753786Y-122538268D02*
X129753786Y-122538268D01*
X131325215Y-122181125D02*
X130253786Y-121823982D01*
X130253786Y-121823982D02*
X130253786Y-122752553D01*
X133792248Y-121752553D02*
X133792248Y-122681125D01*
X133792248Y-122681125D02*
X133220819Y-122181125D01*
X133220819Y-122181125D02*
X133220819Y-122395410D01*
X133220819Y-122395410D02*
X133149391Y-122538268D01*
X133149391Y-122538268D02*
X133077962Y-122609696D01*
X133077962Y-122609696D02*
X132935105Y-122681125D01*
X132935105Y-122681125D02*
X132577962Y-122681125D01*
X132577962Y-122681125D02*
X132435105Y-122609696D01*
X132435105Y-122609696D02*
X132363677Y-122538268D01*
X132363677Y-122538268D02*
X132292248Y-122395410D01*
X132292248Y-122395410D02*
X132292248Y-121966839D01*
X132292248Y-121966839D02*
X132363677Y-121823982D01*
X132363677Y-121823982D02*
X132435105Y-121752553D01*
X136187852Y-121823982D02*
X136259280Y-121895410D01*
X136259280Y-121895410D02*
X136330709Y-122038268D01*
X136330709Y-122038268D02*
X136330709Y-122395410D01*
X136330709Y-122395410D02*
X136259280Y-122538268D01*
X136259280Y-122538268D02*
X136187852Y-122609696D01*
X136187852Y-122609696D02*
X136044995Y-122681125D01*
X136044995Y-122681125D02*
X135902138Y-122681125D01*
X135902138Y-122681125D02*
X135687852Y-122609696D01*
X135687852Y-122609696D02*
X134830709Y-121752553D01*
X134830709Y-121752553D02*
X134830709Y-122681125D01*
X137369171Y-122681125D02*
X137369171Y-121823982D01*
X137369171Y-122252553D02*
X138869171Y-122252553D01*
X138869171Y-122252553D02*
X138654885Y-122109696D01*
X138654885Y-122109696D02*
X138512028Y-121966839D01*
X138512028Y-121966839D02*
X138440600Y-121823982D01*
D13*
X190536666Y-60795719D02*
X190536666Y-61510004D01*
X190536666Y-61510004D02*
X190489047Y-61652861D01*
X190489047Y-61652861D02*
X190393809Y-61748100D01*
X190393809Y-61748100D02*
X190250952Y-61795719D01*
X190250952Y-61795719D02*
X190155714Y-61795719D01*
X191441428Y-61129052D02*
X191441428Y-61795719D01*
X191203333Y-60748100D02*
X190965238Y-61462385D01*
X190965238Y-61462385D02*
X191584285Y-61462385D01*
X137717619Y-112795719D02*
X137717619Y-113510004D01*
X137717619Y-113510004D02*
X137670000Y-113652861D01*
X137670000Y-113652861D02*
X137574762Y-113748100D01*
X137574762Y-113748100D02*
X137431905Y-113795719D01*
X137431905Y-113795719D02*
X137336667Y-113795719D01*
X138193810Y-112795719D02*
X138193810Y-113605242D01*
X138193810Y-113605242D02*
X138241429Y-113700480D01*
X138241429Y-113700480D02*
X138289048Y-113748100D01*
X138289048Y-113748100D02*
X138384286Y-113795719D01*
X138384286Y-113795719D02*
X138574762Y-113795719D01*
X138574762Y-113795719D02*
X138670000Y-113748100D01*
X138670000Y-113748100D02*
X138717619Y-113700480D01*
X138717619Y-113700480D02*
X138765238Y-113605242D01*
X138765238Y-113605242D02*
X138765238Y-112795719D01*
X139241429Y-113795719D02*
X139241429Y-112795719D01*
X139241429Y-112795719D02*
X139574762Y-113510004D01*
X139574762Y-113510004D02*
X139908095Y-112795719D01*
X139908095Y-112795719D02*
X139908095Y-113795719D01*
X140384286Y-113795719D02*
X140384286Y-112795719D01*
X140384286Y-112795719D02*
X140765238Y-112795719D01*
X140765238Y-112795719D02*
X140860476Y-112843338D01*
X140860476Y-112843338D02*
X140908095Y-112890957D01*
X140908095Y-112890957D02*
X140955714Y-112986195D01*
X140955714Y-112986195D02*
X140955714Y-113129052D01*
X140955714Y-113129052D02*
X140908095Y-113224290D01*
X140908095Y-113224290D02*
X140860476Y-113271909D01*
X140860476Y-113271909D02*
X140765238Y-113319528D01*
X140765238Y-113319528D02*
X140384286Y-113319528D01*
X140086666Y-117454819D02*
X140086666Y-118169104D01*
X140086666Y-118169104D02*
X140039047Y-118311961D01*
X140039047Y-118311961D02*
X139943809Y-118407200D01*
X139943809Y-118407200D02*
X139800952Y-118454819D01*
X139800952Y-118454819D02*
X139705714Y-118454819D01*
X140991428Y-117454819D02*
X140800952Y-117454819D01*
X140800952Y-117454819D02*
X140705714Y-117502438D01*
X140705714Y-117502438D02*
X140658095Y-117550057D01*
X140658095Y-117550057D02*
X140562857Y-117692914D01*
X140562857Y-117692914D02*
X140515238Y-117883390D01*
X140515238Y-117883390D02*
X140515238Y-118264342D01*
X140515238Y-118264342D02*
X140562857Y-118359580D01*
X140562857Y-118359580D02*
X140610476Y-118407200D01*
X140610476Y-118407200D02*
X140705714Y-118454819D01*
X140705714Y-118454819D02*
X140896190Y-118454819D01*
X140896190Y-118454819D02*
X140991428Y-118407200D01*
X140991428Y-118407200D02*
X141039047Y-118359580D01*
X141039047Y-118359580D02*
X141086666Y-118264342D01*
X141086666Y-118264342D02*
X141086666Y-118026247D01*
X141086666Y-118026247D02*
X141039047Y-117931009D01*
X141039047Y-117931009D02*
X140991428Y-117883390D01*
X140991428Y-117883390D02*
X140896190Y-117835771D01*
X140896190Y-117835771D02*
X140705714Y-117835771D01*
X140705714Y-117835771D02*
X140610476Y-117883390D01*
X140610476Y-117883390D02*
X140562857Y-117931009D01*
X140562857Y-117931009D02*
X140515238Y-118026247D01*
X143274819Y-79341376D02*
X142798628Y-79674709D01*
X143274819Y-79912804D02*
X142274819Y-79912804D01*
X142274819Y-79912804D02*
X142274819Y-79531852D01*
X142274819Y-79531852D02*
X142322438Y-79436614D01*
X142322438Y-79436614D02*
X142370057Y-79388995D01*
X142370057Y-79388995D02*
X142465295Y-79341376D01*
X142465295Y-79341376D02*
X142608152Y-79341376D01*
X142608152Y-79341376D02*
X142703390Y-79388995D01*
X142703390Y-79388995D02*
X142751009Y-79436614D01*
X142751009Y-79436614D02*
X142798628Y-79531852D01*
X142798628Y-79531852D02*
X142798628Y-79912804D01*
X143274819Y-78912804D02*
X142274819Y-78912804D01*
X142274819Y-78912804D02*
X143274819Y-78341376D01*
X143274819Y-78341376D02*
X142274819Y-78341376D01*
X142274819Y-77960423D02*
X142274819Y-77341376D01*
X142274819Y-77341376D02*
X142655771Y-77674709D01*
X142655771Y-77674709D02*
X142655771Y-77531852D01*
X142655771Y-77531852D02*
X142703390Y-77436614D01*
X142703390Y-77436614D02*
X142751009Y-77388995D01*
X142751009Y-77388995D02*
X142846247Y-77341376D01*
X142846247Y-77341376D02*
X143084342Y-77341376D01*
X143084342Y-77341376D02*
X143179580Y-77388995D01*
X143179580Y-77388995D02*
X143227200Y-77436614D01*
X143227200Y-77436614D02*
X143274819Y-77531852D01*
X143274819Y-77531852D02*
X143274819Y-77817566D01*
X143274819Y-77817566D02*
X143227200Y-77912804D01*
X143227200Y-77912804D02*
X143179580Y-77960423D01*
X113836666Y-70795719D02*
X113836666Y-71510004D01*
X113836666Y-71510004D02*
X113789047Y-71652861D01*
X113789047Y-71652861D02*
X113693809Y-71748100D01*
X113693809Y-71748100D02*
X113550952Y-71795719D01*
X113550952Y-71795719D02*
X113455714Y-71795719D01*
X114836666Y-71795719D02*
X114265238Y-71795719D01*
X114550952Y-71795719D02*
X114550952Y-70795719D01*
X114550952Y-70795719D02*
X114455714Y-70938576D01*
X114455714Y-70938576D02*
X114360476Y-71033814D01*
X114360476Y-71033814D02*
X114265238Y-71081433D01*
X174979523Y-75795719D02*
X174646190Y-75319528D01*
X174408095Y-75795719D02*
X174408095Y-74795719D01*
X174408095Y-74795719D02*
X174789047Y-74795719D01*
X174789047Y-74795719D02*
X174884285Y-74843338D01*
X174884285Y-74843338D02*
X174931904Y-74890957D01*
X174931904Y-74890957D02*
X174979523Y-74986195D01*
X174979523Y-74986195D02*
X174979523Y-75129052D01*
X174979523Y-75129052D02*
X174931904Y-75224290D01*
X174931904Y-75224290D02*
X174884285Y-75271909D01*
X174884285Y-75271909D02*
X174789047Y-75319528D01*
X174789047Y-75319528D02*
X174408095Y-75319528D01*
X175408095Y-75795719D02*
X175408095Y-74795719D01*
X175408095Y-74795719D02*
X175979523Y-75795719D01*
X175979523Y-75795719D02*
X175979523Y-74795719D01*
X176408095Y-74890957D02*
X176455714Y-74843338D01*
X176455714Y-74843338D02*
X176550952Y-74795719D01*
X176550952Y-74795719D02*
X176789047Y-74795719D01*
X176789047Y-74795719D02*
X176884285Y-74843338D01*
X176884285Y-74843338D02*
X176931904Y-74890957D01*
X176931904Y-74890957D02*
X176979523Y-74986195D01*
X176979523Y-74986195D02*
X176979523Y-75081433D01*
X176979523Y-75081433D02*
X176931904Y-75224290D01*
X176931904Y-75224290D02*
X176360476Y-75795719D01*
X176360476Y-75795719D02*
X176979523Y-75795719D01*
X145479523Y-85795719D02*
X145146190Y-85319528D01*
X144908095Y-85795719D02*
X144908095Y-84795719D01*
X144908095Y-84795719D02*
X145289047Y-84795719D01*
X145289047Y-84795719D02*
X145384285Y-84843338D01*
X145384285Y-84843338D02*
X145431904Y-84890957D01*
X145431904Y-84890957D02*
X145479523Y-84986195D01*
X145479523Y-84986195D02*
X145479523Y-85129052D01*
X145479523Y-85129052D02*
X145431904Y-85224290D01*
X145431904Y-85224290D02*
X145384285Y-85271909D01*
X145384285Y-85271909D02*
X145289047Y-85319528D01*
X145289047Y-85319528D02*
X144908095Y-85319528D01*
X145908095Y-85795719D02*
X145908095Y-84795719D01*
X145908095Y-84795719D02*
X146479523Y-85795719D01*
X146479523Y-85795719D02*
X146479523Y-84795719D01*
X147479523Y-85795719D02*
X146908095Y-85795719D01*
X147193809Y-85795719D02*
X147193809Y-84795719D01*
X147193809Y-84795719D02*
X147098571Y-84938576D01*
X147098571Y-84938576D02*
X147003333Y-85033814D01*
X147003333Y-85033814D02*
X146908095Y-85081433D01*
X188703866Y-78731851D02*
X188703866Y-77969947D01*
X189084819Y-78350899D02*
X188322914Y-78350899D01*
X140216666Y-125795719D02*
X140216666Y-126510004D01*
X140216666Y-126510004D02*
X140169047Y-126652861D01*
X140169047Y-126652861D02*
X140073809Y-126748100D01*
X140073809Y-126748100D02*
X139930952Y-126795719D01*
X139930952Y-126795719D02*
X139835714Y-126795719D01*
X140597619Y-125795719D02*
X141264285Y-125795719D01*
X141264285Y-125795719D02*
X140835714Y-126795719D01*
X164574761Y-89390957D02*
X164479523Y-89343338D01*
X164479523Y-89343338D02*
X164384285Y-89248100D01*
X164384285Y-89248100D02*
X164241428Y-89105242D01*
X164241428Y-89105242D02*
X164146190Y-89057623D01*
X164146190Y-89057623D02*
X164050952Y-89057623D01*
X164098571Y-89295719D02*
X164003333Y-89248100D01*
X164003333Y-89248100D02*
X163908095Y-89152861D01*
X163908095Y-89152861D02*
X163860476Y-88962385D01*
X163860476Y-88962385D02*
X163860476Y-88629052D01*
X163860476Y-88629052D02*
X163908095Y-88438576D01*
X163908095Y-88438576D02*
X164003333Y-88343338D01*
X164003333Y-88343338D02*
X164098571Y-88295719D01*
X164098571Y-88295719D02*
X164289047Y-88295719D01*
X164289047Y-88295719D02*
X164384285Y-88343338D01*
X164384285Y-88343338D02*
X164479523Y-88438576D01*
X164479523Y-88438576D02*
X164527142Y-88629052D01*
X164527142Y-88629052D02*
X164527142Y-88962385D01*
X164527142Y-88962385D02*
X164479523Y-89152861D01*
X164479523Y-89152861D02*
X164384285Y-89248100D01*
X164384285Y-89248100D02*
X164289047Y-89295719D01*
X164289047Y-89295719D02*
X164098571Y-89295719D01*
X165479523Y-89295719D02*
X164908095Y-89295719D01*
X165193809Y-89295719D02*
X165193809Y-88295719D01*
X165193809Y-88295719D02*
X165098571Y-88438576D01*
X165098571Y-88438576D02*
X165003333Y-88533814D01*
X165003333Y-88533814D02*
X164908095Y-88581433D01*
X164503333Y-84700480D02*
X164455714Y-84748100D01*
X164455714Y-84748100D02*
X164312857Y-84795719D01*
X164312857Y-84795719D02*
X164217619Y-84795719D01*
X164217619Y-84795719D02*
X164074762Y-84748100D01*
X164074762Y-84748100D02*
X163979524Y-84652861D01*
X163979524Y-84652861D02*
X163931905Y-84557623D01*
X163931905Y-84557623D02*
X163884286Y-84367147D01*
X163884286Y-84367147D02*
X163884286Y-84224290D01*
X163884286Y-84224290D02*
X163931905Y-84033814D01*
X163931905Y-84033814D02*
X163979524Y-83938576D01*
X163979524Y-83938576D02*
X164074762Y-83843338D01*
X164074762Y-83843338D02*
X164217619Y-83795719D01*
X164217619Y-83795719D02*
X164312857Y-83795719D01*
X164312857Y-83795719D02*
X164455714Y-83843338D01*
X164455714Y-83843338D02*
X164503333Y-83890957D01*
X165455714Y-84795719D02*
X164884286Y-84795719D01*
X165170000Y-84795719D02*
X165170000Y-83795719D01*
X165170000Y-83795719D02*
X165074762Y-83938576D01*
X165074762Y-83938576D02*
X164979524Y-84033814D01*
X164979524Y-84033814D02*
X164884286Y-84081433D01*
X172336666Y-70795719D02*
X172336666Y-71510004D01*
X172336666Y-71510004D02*
X172289047Y-71652861D01*
X172289047Y-71652861D02*
X172193809Y-71748100D01*
X172193809Y-71748100D02*
X172050952Y-71795719D01*
X172050952Y-71795719D02*
X171955714Y-71795719D01*
X172717619Y-70795719D02*
X173336666Y-70795719D01*
X173336666Y-70795719D02*
X173003333Y-71176671D01*
X173003333Y-71176671D02*
X173146190Y-71176671D01*
X173146190Y-71176671D02*
X173241428Y-71224290D01*
X173241428Y-71224290D02*
X173289047Y-71271909D01*
X173289047Y-71271909D02*
X173336666Y-71367147D01*
X173336666Y-71367147D02*
X173336666Y-71605242D01*
X173336666Y-71605242D02*
X173289047Y-71700480D01*
X173289047Y-71700480D02*
X173241428Y-71748100D01*
X173241428Y-71748100D02*
X173146190Y-71795719D01*
X173146190Y-71795719D02*
X172860476Y-71795719D01*
X172860476Y-71795719D02*
X172765238Y-71748100D01*
X172765238Y-71748100D02*
X172717619Y-71700480D01*
G36*
X201349859Y-68901965D02*
G01*
X201349859Y-69402908D01*
X201347851Y-69468766D01*
X201341615Y-69526433D01*
X201333080Y-69567791D01*
X201321282Y-69603642D01*
X201308353Y-69630150D01*
X201292751Y-69652595D01*
X201276159Y-69669478D01*
X201257178Y-69683027D01*
X201213019Y-69699890D01*
X201167837Y-69704364D01*
X201118866Y-69698808D01*
X201099266Y-69680612D01*
X201065682Y-69504818D01*
X200987280Y-69504818D01*
X200987280Y-69737948D01*
X201037701Y-69753418D01*
X201086674Y-69764146D01*
X201170646Y-69771531D01*
X201215713Y-69769573D01*
X201256895Y-69763686D01*
X201291395Y-69754786D01*
X201322733Y-69742527D01*
X201349508Y-69727835D01*
X201373559Y-69710111D01*
X201413066Y-69666417D01*
X201443213Y-69609423D01*
X201464260Y-69535328D01*
X201474960Y-69438682D01*
X201475827Y-69397351D01*
X201475827Y-68901965D01*
X201499641Y-68882426D01*
X201586469Y-68874061D01*
X201586469Y-68818007D01*
X201232256Y-68818007D01*
X201232256Y-68874061D01*
X201326045Y-68882426D01*
X201349859Y-68901965D01*
G37*
G36*
X201733198Y-68818007D02*
G01*
X201733198Y-69279687D01*
X201821927Y-69271781D01*
X201856418Y-69271322D01*
X201911705Y-69273288D01*
X201961154Y-69279236D01*
X202000085Y-69287890D01*
X202034449Y-69299777D01*
X202061544Y-69313323D01*
X202084929Y-69329582D01*
X202103430Y-69347258D01*
X202118699Y-69367368D01*
X202139303Y-69414095D01*
X202147524Y-69472701D01*
X202147617Y-69480333D01*
X202145692Y-69512642D01*
X202140037Y-69543161D01*
X202130868Y-69571579D01*
X202118345Y-69597798D01*
X202102740Y-69621482D01*
X202084165Y-69642577D01*
X202062929Y-69660774D01*
X202039099Y-69676006D01*
X202012966Y-69688022D01*
X201984596Y-69696698D01*
X201926394Y-69703265D01*
X201862056Y-69695430D01*
X201832605Y-69686535D01*
X201776612Y-69566733D01*
X201743029Y-69562520D01*
X201723157Y-69564418D01*
X201705438Y-69569888D01*
X201690344Y-69578515D01*
X201678082Y-69590000D01*
X201669155Y-69603714D01*
X201663623Y-69619549D01*
X201661818Y-69636404D01*
X201669416Y-69668868D01*
X201693178Y-69701097D01*
X201735476Y-69731159D01*
X201797077Y-69754740D01*
X201834398Y-69762501D01*
X201875261Y-69766835D01*
X201902580Y-69767623D01*
X201949104Y-69765700D01*
X201993045Y-69760051D01*
X202034043Y-69750924D01*
X202072257Y-69738477D01*
X202107306Y-69723021D01*
X202139388Y-69704647D01*
X202168154Y-69683723D01*
X202193784Y-69660273D01*
X202216009Y-69634675D01*
X202234929Y-69606924D01*
X202250371Y-69577339D01*
X202262329Y-69545951D01*
X202270693Y-69512958D01*
X202275369Y-69478493D01*
X202276394Y-69452489D01*
X202274460Y-69418081D01*
X202268742Y-69385450D01*
X202259501Y-69355116D01*
X202246808Y-69326794D01*
X202230881Y-69300764D01*
X202211772Y-69276996D01*
X202164291Y-69236673D01*
X202104636Y-69206834D01*
X202032992Y-69188975D01*
X201969808Y-69184554D01*
X201927351Y-69186546D01*
X201882029Y-69192674D01*
X201820026Y-69206964D01*
X201820026Y-68927245D01*
X202234384Y-68927245D01*
X202234384Y-68818007D01*
X201733198Y-68818007D01*
G37*
X142836666Y-70795719D02*
X142836666Y-71510004D01*
X142836666Y-71510004D02*
X142789047Y-71652861D01*
X142789047Y-71652861D02*
X142693809Y-71748100D01*
X142693809Y-71748100D02*
X142550952Y-71795719D01*
X142550952Y-71795719D02*
X142455714Y-71795719D01*
X143265238Y-70890957D02*
X143312857Y-70843338D01*
X143312857Y-70843338D02*
X143408095Y-70795719D01*
X143408095Y-70795719D02*
X143646190Y-70795719D01*
X143646190Y-70795719D02*
X143741428Y-70843338D01*
X143741428Y-70843338D02*
X143789047Y-70890957D01*
X143789047Y-70890957D02*
X143836666Y-70986195D01*
X143836666Y-70986195D02*
X143836666Y-71081433D01*
X143836666Y-71081433D02*
X143789047Y-71224290D01*
X143789047Y-71224290D02*
X143217619Y-71795719D01*
X143217619Y-71795719D02*
X143836666Y-71795719D01*
X197836666Y-119295719D02*
X197836666Y-120010004D01*
X197836666Y-120010004D02*
X197789047Y-120152861D01*
X197789047Y-120152861D02*
X197693809Y-120248100D01*
X197693809Y-120248100D02*
X197550952Y-120295719D01*
X197550952Y-120295719D02*
X197455714Y-120295719D01*
X198455714Y-119724290D02*
X198360476Y-119676671D01*
X198360476Y-119676671D02*
X198312857Y-119629052D01*
X198312857Y-119629052D02*
X198265238Y-119533814D01*
X198265238Y-119533814D02*
X198265238Y-119486195D01*
X198265238Y-119486195D02*
X198312857Y-119390957D01*
X198312857Y-119390957D02*
X198360476Y-119343338D01*
X198360476Y-119343338D02*
X198455714Y-119295719D01*
X198455714Y-119295719D02*
X198646190Y-119295719D01*
X198646190Y-119295719D02*
X198741428Y-119343338D01*
X198741428Y-119343338D02*
X198789047Y-119390957D01*
X198789047Y-119390957D02*
X198836666Y-119486195D01*
X198836666Y-119486195D02*
X198836666Y-119533814D01*
X198836666Y-119533814D02*
X198789047Y-119629052D01*
X198789047Y-119629052D02*
X198741428Y-119676671D01*
X198741428Y-119676671D02*
X198646190Y-119724290D01*
X198646190Y-119724290D02*
X198455714Y-119724290D01*
X198455714Y-119724290D02*
X198360476Y-119771909D01*
X198360476Y-119771909D02*
X198312857Y-119819528D01*
X198312857Y-119819528D02*
X198265238Y-119914766D01*
X198265238Y-119914766D02*
X198265238Y-120105242D01*
X198265238Y-120105242D02*
X198312857Y-120200480D01*
X198312857Y-120200480D02*
X198360476Y-120248100D01*
X198360476Y-120248100D02*
X198455714Y-120295719D01*
X198455714Y-120295719D02*
X198646190Y-120295719D01*
X198646190Y-120295719D02*
X198741428Y-120248100D01*
X198741428Y-120248100D02*
X198789047Y-120200480D01*
X198789047Y-120200480D02*
X198836666Y-120105242D01*
X198836666Y-120105242D02*
X198836666Y-119914766D01*
X198836666Y-119914766D02*
X198789047Y-119819528D01*
X198789047Y-119819528D02*
X198741428Y-119771909D01*
X198741428Y-119771909D02*
X198646190Y-119724290D01*
X97124819Y-124698042D02*
X98124819Y-124364709D01*
X98124819Y-124364709D02*
X97124819Y-124031376D01*
X97124819Y-123507566D02*
X97124819Y-123317090D01*
X97124819Y-123317090D02*
X97172438Y-123221852D01*
X97172438Y-123221852D02*
X97267676Y-123126614D01*
X97267676Y-123126614D02*
X97458152Y-123078995D01*
X97458152Y-123078995D02*
X97791485Y-123078995D01*
X97791485Y-123078995D02*
X97981961Y-123126614D01*
X97981961Y-123126614D02*
X98077200Y-123221852D01*
X98077200Y-123221852D02*
X98124819Y-123317090D01*
X98124819Y-123317090D02*
X98124819Y-123507566D01*
X98124819Y-123507566D02*
X98077200Y-123602804D01*
X98077200Y-123602804D02*
X97981961Y-123698042D01*
X97981961Y-123698042D02*
X97791485Y-123745661D01*
X97791485Y-123745661D02*
X97458152Y-123745661D01*
X97458152Y-123745661D02*
X97267676Y-123698042D01*
X97267676Y-123698042D02*
X97172438Y-123602804D01*
X97172438Y-123602804D02*
X97124819Y-123507566D01*
X146459160Y-93510004D02*
X146935350Y-93510004D01*
X146363922Y-93795719D02*
X146697255Y-92795719D01*
X146697255Y-92795719D02*
X147030588Y-93795719D01*
X147887731Y-93795719D02*
X147316303Y-93795719D01*
X147602017Y-93795719D02*
X147602017Y-92795719D01*
X147602017Y-92795719D02*
X147506779Y-92938576D01*
X147506779Y-92938576D02*
X147411541Y-93033814D01*
X147411541Y-93033814D02*
X147316303Y-93081433D01*
%TO.C,J4*%
D14*
X184400000Y-59960900D02*
X189590000Y-59960900D01*
X189590000Y-62720900D02*
X189590000Y-59960900D01*
X184400000Y-62720900D02*
X184400000Y-59960900D01*
X184400000Y-62720900D02*
X189590000Y-62720900D01*
X183130000Y-62720900D02*
X181750000Y-62720900D01*
X181750000Y-62720900D02*
X181750000Y-61340900D01*
%TO.C,R32*%
X135900000Y-114710900D02*
X135900000Y-114380900D01*
X142440000Y-114710900D02*
X135900000Y-114710900D01*
X142440000Y-114380900D02*
X142440000Y-114710900D01*
X142440000Y-112300900D02*
X142440000Y-111970900D01*
X135900000Y-111970900D02*
X135900000Y-112300900D01*
X142440000Y-111970900D02*
X135900000Y-111970900D01*
%TO.C,J6*%
X139420000Y-116620000D02*
X139420000Y-118000000D01*
X138040000Y-116620000D02*
X139420000Y-116620000D01*
X136770000Y-119380000D02*
X108720000Y-119380000D01*
X136770000Y-116620000D02*
X136770000Y-119380000D01*
X136770000Y-116620000D02*
X108720000Y-116620000D01*
X108720000Y-116620000D02*
X108720000Y-119380000D01*
%TO.C,J1*%
X112670000Y-69960900D02*
X112670000Y-71340900D01*
X111290000Y-69960900D02*
X112670000Y-69960900D01*
X110020000Y-72720900D02*
X104830000Y-72720900D01*
X110020000Y-69960900D02*
X110020000Y-72720900D01*
X110020000Y-69960900D02*
X104830000Y-69960900D01*
X104830000Y-69960900D02*
X104830000Y-72720900D01*
%TO.C,RN2*%
X171260000Y-76650900D02*
X171260000Y-74030900D01*
X145780000Y-74030900D02*
X173880000Y-74030900D01*
X173880000Y-76650900D01*
X145780000Y-76650900D01*
X145780000Y-74030900D01*
%TO.C,RN1*%
X141760000Y-86650900D02*
X141760000Y-84030900D01*
X116280000Y-84030900D02*
X144380000Y-84030900D01*
X144380000Y-86650900D01*
X116280000Y-86650900D01*
X116280000Y-84030900D01*
%TO.C,BZ1*%
X198770000Y-74540900D02*
G75*
G02*
X183570000Y-74540900I-7600000J0D01*
G01*
X183570000Y-74540900D02*
G75*
G02*
X198770000Y-74540900I7600000J0D01*
G01*
%TO.C,J7*%
X103770000Y-124960900D02*
X103770000Y-127720900D01*
X136900000Y-124960900D02*
X103770000Y-124960900D01*
X136900000Y-124960900D02*
X136900000Y-127720900D01*
X136900000Y-127720900D02*
X103770000Y-127720900D01*
X138170000Y-124960900D02*
X139550000Y-124960900D01*
X139550000Y-124960900D02*
X139550000Y-126340900D01*
%TO.C,R31*%
X109920000Y-83420900D02*
X110250000Y-83420900D01*
X112660000Y-83420900D02*
X112330000Y-83420900D01*
X109920000Y-76880900D02*
X109920000Y-83420900D01*
X110250000Y-76880900D02*
X109920000Y-76880900D01*
X112330000Y-76880900D02*
X112660000Y-76880900D01*
X112660000Y-76880900D02*
X112660000Y-83420900D01*
%TO.C,Q1*%
X163520000Y-90640900D02*
X163520000Y-87040900D01*
X159070000Y-88840900D02*
G75*
G02*
X163508478Y-87002422I2600000J0D01*
G01*
X163508478Y-90679378D02*
G75*
G02*
X159069999Y-88840900I-1838478J1838478D01*
G01*
%TO.C,C1*%
X164290000Y-82340900D02*
G75*
G02*
X159050000Y-82340900I-2620000J0D01*
G01*
X159050000Y-82340900D02*
G75*
G02*
X164290000Y-82340900I2620000J0D01*
G01*
%TO.C,J3*%
X145750000Y-69960900D02*
X145750000Y-72720900D01*
X168720000Y-69960900D02*
X145750000Y-69960900D01*
X168720000Y-69960900D02*
X168720000Y-72720900D01*
X168720000Y-72720900D02*
X145750000Y-72720900D01*
X169990000Y-69960900D02*
X171370000Y-69960900D01*
X171370000Y-69960900D02*
X171370000Y-71340900D01*
%TO.C,R34*%
X149090000Y-80970900D02*
X155630000Y-80970900D01*
X149090000Y-81300900D02*
X149090000Y-80970900D01*
X149090000Y-83380900D02*
X149090000Y-83710900D01*
X149090000Y-83710900D02*
X155630000Y-83710900D01*
X155630000Y-80970900D02*
X155630000Y-81300900D01*
X155630000Y-83710900D02*
X155630000Y-83380900D01*
%TO.C,U2*%
X146700000Y-105480900D02*
X183720000Y-105480900D01*
X146700000Y-128200900D02*
X146700000Y-105480900D01*
X183720000Y-105480900D02*
X183720000Y-119044900D01*
X183720000Y-119636900D02*
X183720000Y-128200900D01*
X183720000Y-128200900D02*
X146700000Y-128200900D01*
X183720000Y-119340900D02*
X184330000Y-118900900D01*
X184330000Y-119780900D01*
X183720000Y-119340900D01*
G36*
X184330000Y-119780900D02*
G01*
X183720000Y-119340900D01*
X184330000Y-118900900D01*
X184330000Y-119780900D01*
G37*
%TO.C,R35*%
X167710000Y-80970900D02*
X174250000Y-80970900D01*
X167710000Y-81300900D02*
X167710000Y-80970900D01*
X167710000Y-83380900D02*
X167710000Y-83710900D01*
X167710000Y-83710900D02*
X174250000Y-83710900D01*
X174250000Y-80970900D02*
X174250000Y-81300900D01*
X174250000Y-83710900D02*
X174250000Y-83380900D01*
%TO.C,J5*%
X203050000Y-78460900D02*
X201670000Y-78460900D01*
X203050000Y-77080900D02*
X203050000Y-78460900D01*
X203050000Y-75810900D02*
X203050000Y-70620900D01*
X203050000Y-75810900D02*
X200290000Y-75810900D01*
X203050000Y-70620900D02*
X200290000Y-70620900D01*
X200290000Y-75810900D02*
X200290000Y-70620900D01*
%TO.C,C2*%
X179800000Y-69420900D02*
X182540000Y-69420900D01*
X179800000Y-79660900D02*
X179800000Y-69420900D01*
X182540000Y-69420900D02*
X182540000Y-79660900D01*
X182540000Y-79660900D02*
X179800000Y-79660900D01*
%TO.C,J2*%
X116250000Y-69960900D02*
X116250000Y-72720900D01*
X139220000Y-69960900D02*
X116250000Y-69960900D01*
X139220000Y-69960900D02*
X139220000Y-72720900D01*
X139220000Y-72720900D02*
X116250000Y-72720900D01*
X140490000Y-69960900D02*
X141870000Y-69960900D01*
X141870000Y-69960900D02*
X141870000Y-71340900D01*
%TO.C,R33*%
X155630000Y-87470900D02*
X155630000Y-87800900D01*
X149090000Y-87470900D02*
X155630000Y-87470900D01*
X149090000Y-87800900D02*
X149090000Y-87470900D01*
X149090000Y-89880900D02*
X149090000Y-90210900D01*
X155630000Y-90210900D02*
X155630000Y-89880900D01*
X149090000Y-90210900D02*
X155630000Y-90210900D01*
%TO.C,J8*%
X195450000Y-119530900D02*
X195450000Y-121230900D01*
X185810000Y-119530900D02*
X195450000Y-119530900D01*
X196650000Y-121230900D02*
X196650000Y-128250900D01*
X195450000Y-121230900D02*
X196650000Y-121230900D01*
X185810000Y-121230900D02*
X185810000Y-119530900D01*
X184610000Y-121230900D02*
X185810000Y-121230900D01*
X183810000Y-123040900D02*
X184410000Y-123340900D01*
X184410000Y-123340900D02*
X183810000Y-123640900D01*
X183810000Y-123640900D02*
X183810000Y-123040900D01*
X196650000Y-128250900D02*
X184610000Y-128250900D01*
X184610000Y-128250900D02*
X184610000Y-121230900D01*
%TO.C,VO*%
X96970000Y-112585000D02*
X102020000Y-112585000D01*
X96970000Y-122335000D02*
X96970000Y-112585000D01*
X102020000Y-112585000D02*
X102020000Y-122335000D01*
X102020000Y-122335000D02*
X96970000Y-122335000D01*
%TO.C,A1*%
X97530000Y-88305900D02*
X97110000Y-88305900D01*
X97530000Y-109525900D02*
X97110000Y-109525900D01*
X100070000Y-88305900D02*
X99650000Y-88305900D01*
X100070000Y-109525900D02*
X99650000Y-109525900D01*
X102610000Y-88305900D02*
X102190000Y-88305900D01*
X102610000Y-109525900D02*
X102190000Y-109525900D01*
X105150000Y-88305900D02*
X104730000Y-88305900D01*
X105150000Y-109525900D02*
X104730000Y-109525900D01*
X107690000Y-88305900D02*
X107270000Y-88305900D01*
X107690000Y-109525900D02*
X107270000Y-109525900D01*
X110230000Y-88305900D02*
X109810000Y-88305900D01*
X110230000Y-109525900D02*
X109810000Y-109525900D01*
X112770000Y-88305900D02*
X112350000Y-88305900D01*
X112770000Y-109525900D02*
X112350000Y-109525900D01*
X115310000Y-88305900D02*
X114890000Y-88305900D01*
X115310000Y-109525900D02*
X114890000Y-109525900D01*
X117850000Y-88305900D02*
X117430000Y-88305900D01*
X117850000Y-109525900D02*
X117430000Y-109525900D01*
X120390000Y-88305900D02*
X119970000Y-88305900D01*
X120390000Y-109525900D02*
X119970000Y-109525900D01*
X122930000Y-88305900D02*
X122510000Y-88305900D01*
X122930000Y-109525900D02*
X122510000Y-109525900D01*
X125470000Y-88305900D02*
X125050000Y-88305900D01*
X125470000Y-109525900D02*
X125050000Y-109525900D01*
X128010000Y-88305900D02*
X127590000Y-88305900D01*
X128010000Y-109525900D02*
X127590000Y-109525900D01*
X130550000Y-88305900D02*
X130130000Y-88305900D01*
X130550000Y-109525900D02*
X130130000Y-109525900D01*
X133090000Y-88305900D02*
X132670000Y-88305900D01*
X133090000Y-109525900D02*
X132670000Y-109525900D01*
X135630000Y-88305900D02*
X135210000Y-88305900D01*
X135630000Y-109525900D02*
X135210000Y-109525900D01*
X138170000Y-88305900D02*
X137750000Y-88305900D01*
X138170000Y-109525900D02*
X137750000Y-109525900D01*
X140710000Y-88305900D02*
X140290000Y-88305900D01*
X140710000Y-109525900D02*
X140290000Y-109525900D01*
X141270000Y-95015900D02*
X141270000Y-95311990D01*
X141270000Y-97669810D02*
X141270000Y-100161990D01*
X141270000Y-102519810D02*
X141270000Y-102815900D01*
X142486000Y-95015900D02*
X141270000Y-95015900D01*
X142486000Y-102815900D02*
X141270000Y-102815900D01*
X143250000Y-88305900D02*
X142830000Y-88305900D01*
X143250000Y-88305900D02*
X143250000Y-87825900D01*
X143250000Y-109525900D02*
X142830000Y-109525900D01*
X145370000Y-88336224D02*
X145370000Y-87825900D01*
X145790000Y-88915900D02*
X145790000Y-91405900D01*
X145790000Y-91405900D02*
X145790000Y-92753840D01*
X145790000Y-93677961D02*
X145790000Y-94680900D01*
X145790000Y-94680900D02*
X145790000Y-103150900D01*
X145790000Y-95015900D02*
X144874000Y-95015900D01*
X145790000Y-102815900D02*
X144874000Y-102815900D01*
X145790000Y-103150900D02*
X145790000Y-104153839D01*
X145790000Y-105077961D02*
X145790000Y-106425900D01*
X145790000Y-108915900D02*
X145790000Y-106425900D01*
X94690000Y-88552582D02*
G75*
G02*
X94990063Y-88336224I490008J-363328D01*
G01*
X94990063Y-109495576D02*
G75*
G02*
X94689978Y-109279235I189737J579476D01*
G01*
X145370000Y-88336224D02*
G75*
G02*
X145790000Y-88915900I-190051J-579692D01*
G01*
X145790000Y-108915900D02*
G75*
G02*
X145369937Y-109495576I-610000J0D01*
G01*
%TD*%
M02*
