%TF.GenerationSoftware,KiCad,Pcbnew,10.0.6-10.0.6~ubuntu24.04.1*%
%TF.CreationDate,2026-09-02T06:54:57-03:00*%
%TF.ProjectId,simut PCB,73696d75-7420-4504-9342-2e6b69636164,rev?*%
%TF.SameCoordinates,Original*%
%TF.FileFunction,Copper,L2,Bot*%
%TF.FilePolarity,Positive*%
%FSLAX46Y46*%
G04 Gerber Fmt 4.6, Leading zero omitted, Abs format (unit mm)*
G04 Created by KiCad (PCBNEW 10.0.6-10.0.6~ubuntu24.04.1) date 2026-09-02 06:54:57*
%MOMM*%
%LPD*%
G01*
G04 APERTURE LIST*
G04 Aperture macros list*
%AMRoundRect*
0 Rectangle with rounded corners*
0 $1 Rounding radius*
0 $2 $3 $4 $5 $6 $7 $8 $9 X,Y pos of 4 corners*
0 Add a 4 corners polygon primitive as box body*
4,1,4,$2,$3,$4,$5,$6,$7,$8,$9,$2,$3,0*
0 Add four circle primitives for the rounded corners*
1,1,$1+$1,$2,$3*
1,1,$1+$1,$4,$5*
1,1,$1+$1,$6,$7*
1,1,$1+$1,$8,$9*
0 Add four rect primitives between the rounded corners*
20,1,$1+$1,$2,$3,$4,$5,0*
20,1,$1+$1,$4,$5,$6,$7,0*
20,1,$1+$1,$6,$7,$8,$9,0*
20,1,$1+$1,$8,$9,$2,$3,0*%
G04 Aperture macros list end*
%TA.AperFunction,ComponentPad*%
%ADD10RoundRect,0.250000X-0.550000X0.550000X-0.550000X-0.550000X0.550000X-0.550000X0.550000X0.550000X0*%
%TD*%
%TA.AperFunction,ComponentPad*%
%ADD11C,1.600000*%
%TD*%
%TA.AperFunction,ComponentPad*%
%ADD12R,1.600000X1.600000*%
%TD*%
%TA.AperFunction,ComponentPad*%
%ADD13O,3.000000X2.000000*%
%TD*%
%TA.AperFunction,ComponentPad*%
%ADD14O,2.000000X3.000000*%
%TD*%
%TA.AperFunction,ComponentPad*%
%ADD15O,1.700000X3.000000*%
%TD*%
%TA.AperFunction,ComponentPad*%
%ADD16O,1.600000X3.000000*%
%TD*%
%TA.AperFunction,ComponentPad*%
%ADD17R,1.500000X1.050000*%
%TD*%
%TA.AperFunction,ComponentPad*%
%ADD18O,1.500000X1.050000*%
%TD*%
%TA.AperFunction,ComponentPad*%
%ADD19O,3.000000X1.600000*%
%TD*%
%TA.AperFunction,ComponentPad*%
%ADD20O,5.000000X3.000000*%
%TD*%
%TA.AperFunction,ComponentPad*%
%ADD21O,3.000000X1.700000*%
%TD*%
%TA.AperFunction,ComponentPad*%
%ADD22O,2.700000X5.000000*%
%TD*%
%TA.AperFunction,ComponentPad*%
%ADD23O,1.800000X3.610000*%
%TD*%
%TA.AperFunction,ComponentPad*%
%ADD24RoundRect,0.200000X-0.600000X0.600000X-0.600000X-0.600000X0.600000X-0.600000X0.600000X0.600000X0*%
%TD*%
%TA.AperFunction,Conductor*%
%ADD25C,0.500000*%
%TD*%
%TA.AperFunction,Conductor*%
%ADD26C,1.000000*%
%TD*%
%TA.AperFunction,Conductor*%
%ADD27C,2.000000*%
%TD*%
G04 APERTURE END LIST*
D10*
%TO.P,RN3,1,R1.1_1*%
%TO.N,Net-(J1-Pin_1)*%
X142320000Y-75500000D03*
D11*
%TO.P,RN3,2,R2.1_2*%
%TO.N,Net-(J1-Pin_2)*%
X139780000Y-75500000D03*
%TO.P,RN3,3,R3.1_3*%
%TO.N,Net-(J1-Pin_3)*%
X137240000Y-75500000D03*
%TO.P,RN3,4,R4.1_4*%
%TO.N,Net-(J1-Pin_4)*%
X134700000Y-75500000D03*
%TO.P,RN3,5,R5.1_5*%
%TO.N,Net-(J1-Pin_5)*%
X132160000Y-75500000D03*
%TO.P,RN3,6,R6.1_6*%
%TO.N,Net-(J1-Pin_6)*%
X129620000Y-75500000D03*
%TO.P,RN3,7,R7.1_7*%
%TO.N,Net-(J1-Pin_7)*%
X127080000Y-75500000D03*
%TO.P,RN3,8,R8.1_8*%
%TO.N,Net-(J1-Pin_8)*%
X124540000Y-75500000D03*
%TO.P,RN3,9,R9.1_9*%
%TO.N,Net-(J1-Pin_9)*%
X122000000Y-75500000D03*
%TO.P,RN3,10,R10.1_10*%
%TO.N,Net-(J1-Pin_10)*%
X119460000Y-75500000D03*
%TO.P,RN3,11,R10.2_11*%
%TO.N,Net-(A1-GPIO9)*%
X119460000Y-83120000D03*
%TO.P,RN3,12,R9.2_12*%
%TO.N,Net-(A1-GPIO8)*%
X122000000Y-83120000D03*
%TO.P,RN3,13,R8.2_13*%
%TO.N,Net-(A1-GPIO7)*%
X124540000Y-83120000D03*
%TO.P,RN3,14,R7.2_14*%
%TO.N,Net-(A1-GPIO6)*%
X127080000Y-83120000D03*
%TO.P,RN3,15,R6.2_15*%
%TO.N,Net-(A1-GPIO5)*%
X129620000Y-83120000D03*
%TO.P,RN3,16,R5.2_16*%
%TO.N,Net-(A1-GPIO4)*%
X132160000Y-83120000D03*
%TO.P,RN3,17,R4.2_17*%
%TO.N,Net-(A1-GPIO3)*%
X134700000Y-83120000D03*
%TO.P,RN3,18,R3.2_18*%
%TO.N,Net-(A1-GPIO2)*%
X137240000Y-83120000D03*
%TO.P,RN3,19,R2.2_19*%
%TO.N,Net-(A1-GPIO1)*%
X139780000Y-83120000D03*
%TO.P,RN3,20,R1.2_20*%
%TO.N,Net-(A1-GPIO0)*%
X142320000Y-83120000D03*
%TD*%
D12*
%TO.P,RN2,1,common_1*%
%TO.N,VDD*%
X174360000Y-76000000D03*
D11*
%TO.P,RN2,2,R1_2*%
%TO.N,Net-(J2-Pin_1)*%
X171820000Y-76000000D03*
%TO.P,RN2,3,R2_3*%
%TO.N,Net-(J2-Pin_2)*%
X169280000Y-76000000D03*
%TO.P,RN2,4,R3_4*%
%TO.N,Net-(J2-Pin_3)*%
X166740000Y-76000000D03*
%TO.P,RN2,5,R4_5*%
%TO.N,Net-(J2-Pin_4)*%
X164200000Y-76000000D03*
%TO.P,RN2,6,R5_6*%
%TO.N,Net-(J2-Pin_5)*%
X161660000Y-76000000D03*
%TO.P,RN2,7,R6_7*%
%TO.N,Net-(J2-Pin_6)*%
X159120000Y-76000000D03*
%TO.P,RN2,8,R7_8*%
%TO.N,Net-(J2-Pin_7)*%
X156580000Y-76000000D03*
%TO.P,RN2,9,R8_9*%
%TO.N,Net-(J2-Pin_8)*%
X154040000Y-76000000D03*
%TO.P,RN2,10,R9_10*%
%TO.N,Net-(J2-Pin_9)*%
X151500000Y-76000000D03*
%TO.P,RN2,11,R10_11*%
%TO.N,Net-(J2-Pin_10)*%
X148960000Y-76000000D03*
%TD*%
D12*
%TO.P,RN1,1,common_1*%
%TO.N,VDD*%
X144860000Y-86000000D03*
D11*
%TO.P,RN1,2,R1_2*%
%TO.N,Net-(A1-GPIO0)*%
X142320000Y-86000000D03*
%TO.P,RN1,3,R2_3*%
%TO.N,Net-(A1-GPIO1)*%
X139780000Y-86000000D03*
%TO.P,RN1,4,R3_4*%
%TO.N,Net-(A1-GPIO2)*%
X137240000Y-86000000D03*
%TO.P,RN1,5,R4_5*%
%TO.N,Net-(A1-GPIO3)*%
X134700000Y-86000000D03*
%TO.P,RN1,6,R5_6*%
%TO.N,Net-(A1-GPIO4)*%
X132160000Y-86000000D03*
%TO.P,RN1,7,R6_7*%
%TO.N,Net-(A1-GPIO5)*%
X129620000Y-86000000D03*
%TO.P,RN1,8,R7_8*%
%TO.N,Net-(A1-GPIO6)*%
X127080000Y-86000000D03*
%TO.P,RN1,9,R8_9*%
%TO.N,Net-(A1-GPIO7)*%
X124540000Y-86000000D03*
%TO.P,RN1,10,R9_10*%
%TO.N,Net-(A1-GPIO8)*%
X122000000Y-86000000D03*
%TO.P,RN1,11,R10_11*%
%TO.N,Net-(A1-GPIO9)*%
X119460000Y-86000000D03*
%TD*%
D13*
%TO.P,BZ1,1,+_1*%
%TO.N,Net-(BZ1-+)*%
X193000000Y-79000000D03*
D14*
%TO.P,BZ1,2,-_2*%
%TO.N,GND*%
X193000000Y-71400000D03*
%TD*%
D15*
%TO.P,J5,1,Pin_1_1*%
%TO.N,VDD*%
X140000000Y-127000000D03*
%TO.P,J5,2,Pin_2_2*%
%TO.N,GND*%
X137460000Y-127000000D03*
%TO.P,J5,3,Pin_3_3*%
%TO.N,Net-(A1-GPIO28_ADC2)*%
X134920000Y-127000000D03*
%TO.P,J5,4,Pin_4_4*%
%TO.N,Net-(A1-GPIO26_ADC0)*%
X132380000Y-127000000D03*
D16*
%TO.P,J5,5,Pin_5_5*%
%TO.N,Net-(A1-GPIO27_ADC1)*%
X129840000Y-127000000D03*
D15*
%TO.P,J5,6,Pin_6_6*%
%TO.N,Net-(A1-GPIO19)*%
X127300000Y-127000000D03*
%TO.P,J5,7,Pin_7_7*%
%TO.N,Net-(A1-GPIO18)*%
X124760000Y-127000000D03*
%TO.P,J5,8,Pin_8_8*%
%TO.N,VDD*%
X122220000Y-127000000D03*
%TO.P,J5,9,Pin_9_9*%
%TO.N,Net-(A1-GPIO16)*%
X119680000Y-127000000D03*
%TO.P,J5,10,Pin_10_10*%
%TO.N,Net-(A1-GPIO18)*%
X117140000Y-127000000D03*
%TO.P,J5,11,Pin_11_11*%
%TO.N,Net-(A1-GPIO17)*%
X114600000Y-127000000D03*
%TO.P,J5,12,Pin_12_12*%
%TO.N,Net-(A1-GPIO19)*%
X112060000Y-127000000D03*
%TO.P,J5,13,Pin_13_13*%
%TO.N,Net-(A1-GPIO16)*%
X109520000Y-127000000D03*
%TO.P,J5,14,Pin_14_14*%
%TO.N,Net-(A1-GPIO20)*%
X106980000Y-127000000D03*
%TD*%
D16*
%TO.P,R31,1*%
%TO.N,VDD*%
X113120000Y-77000000D03*
%TO.P,R31,2*%
%TO.N,Net-(A1-GPIO10)*%
X113120000Y-84620000D03*
%TD*%
D17*
%TO.P,Q1,1,C_1*%
%TO.N,Net-(BZ1-+)*%
X163500000Y-90770000D03*
D18*
%TO.P,Q1,2,B_2*%
%TO.N,Net-(Q1-B)*%
X163500000Y-89500000D03*
%TO.P,Q1,3,E_3*%
%TO.N,GND*%
X163500000Y-88230000D03*
%TD*%
D19*
%TO.P,C1,1*%
%TO.N,VCC*%
X163500000Y-82000000D03*
%TO.P,C1,2*%
%TO.N,GND*%
X163500000Y-84000000D03*
%TD*%
D16*
%TO.P,J2,1,Pin_1_1*%
%TO.N,Net-(J2-Pin_1)*%
X171820000Y-72000000D03*
D15*
%TO.P,J2,2,Pin_2_2*%
%TO.N,Net-(J2-Pin_2)*%
X169280000Y-72000000D03*
%TO.P,J2,3,Pin_3_3*%
%TO.N,Net-(J2-Pin_3)*%
X166740000Y-72000000D03*
%TO.P,J2,4,Pin_4_4*%
%TO.N,Net-(J2-Pin_4)*%
X164200000Y-72000000D03*
%TO.P,J2,5,Pin_5_5*%
%TO.N,Net-(J2-Pin_5)*%
X161660000Y-72000000D03*
%TO.P,J2,6,Pin_6_6*%
%TO.N,Net-(J2-Pin_6)*%
X159120000Y-72000000D03*
%TO.P,J2,7,Pin_7_7*%
%TO.N,Net-(J2-Pin_7)*%
X156580000Y-72000000D03*
%TO.P,J2,8,Pin_8_8*%
%TO.N,Net-(J2-Pin_8)*%
X154040000Y-72000000D03*
%TO.P,J2,9,Pin_9_9*%
%TO.N,Net-(J2-Pin_9)*%
X151500000Y-72000000D03*
%TO.P,J2,10,Pin_10_10*%
%TO.N,Net-(J2-Pin_10)*%
X148960000Y-72000000D03*
%TD*%
%TO.P,J4,1,Pin_1_1*%
%TO.N,GND*%
X139870000Y-118659100D03*
%TO.P,J4,2,Pin_2_2*%
%TO.N,Net-(J4-Pin_12)*%
X137330000Y-118659100D03*
%TO.P,J4,3,Pin_3_3*%
%TO.N,Net-(A1-GPIO21)*%
X134790000Y-118659100D03*
%TO.P,J4,4,Pin_4_4*%
%TO.N,Net-(A1-GPIO20)*%
X132250000Y-118659100D03*
%TO.P,J4,5,Pin_5_5*%
%TO.N,Net-(A1-GPIO19)*%
X129710000Y-118659100D03*
%TO.P,J4,6,Pin_6_6*%
%TO.N,Net-(A1-GPIO18)*%
X127170000Y-118659100D03*
%TO.P,J4,7,Pin_7_7*%
%TO.N,Net-(A1-GPIO17)*%
X124630000Y-118659100D03*
%TO.P,J4,8,Pin_8_8*%
%TO.N,Net-(A1-GPIO16)*%
X122090000Y-118659100D03*
D16*
%TO.P,J4,9,Pin_9_9*%
%TO.N,GND*%
X119550000Y-118659100D03*
D15*
%TO.P,J4,10,Pin_10_10*%
%TO.N,Net-(J4-Pin_10)*%
X117010000Y-118659100D03*
%TO.P,J4,11,Pin_11_11*%
%TO.N,GND*%
X114470000Y-118659100D03*
%TO.P,J4,12,Pin_12_12*%
%TO.N,Net-(J4-Pin_12)*%
X111930000Y-118659100D03*
%TD*%
D19*
%TO.P,R34,1*%
%TO.N,Net-(Q1-B)*%
X150380000Y-83000000D03*
%TO.P,R34,2*%
%TO.N,GND*%
X158000000Y-83000000D03*
%TD*%
D20*
%TO.P,U2,1,AC/L_1*%
%TO.N,Net-(J7-Pin_1)*%
X181787500Y-121500000D03*
%TO.P,U2,2,AC/N_2*%
%TO.N,Net-(J7-Pin_3)*%
X181787500Y-116500000D03*
%TO.P,U2,3,-Vout_3*%
%TO.N,GND*%
X152707500Y-126500000D03*
%TO.P,U2,4,+Vout_4*%
%TO.N,VCC*%
X152707500Y-111500000D03*
%TD*%
D19*
%TO.P,R35,1*%
%TO.N,VCC*%
X169000000Y-83000000D03*
%TO.P,R35,2*%
%TO.N,Net-(J6-Pin_1)*%
X176620000Y-83000000D03*
%TD*%
D21*
%TO.P,J6,1,Pin_1_1*%
%TO.N,Net-(J6-Pin_1)*%
X203500000Y-77740000D03*
%TO.P,J6,2,Pin_2_2*%
%TO.N,Net-(BZ1-+)*%
X203500000Y-75200000D03*
%TO.P,J6,3,Pin_3_3*%
%TO.N,GND*%
X203500000Y-72660000D03*
%TD*%
D19*
%TO.P,C2,1*%
%TO.N,Net-(BZ1-+)*%
X183000000Y-77700000D03*
%TO.P,C2,2*%
%TO.N,GND*%
X183000000Y-72700000D03*
%TD*%
D15*
%TO.P,J1,1,Pin_1_1*%
%TO.N,Net-(J1-Pin_1)*%
X142320000Y-72000000D03*
%TO.P,J1,2,Pin_2_2*%
%TO.N,Net-(J1-Pin_2)*%
X139780000Y-72000000D03*
%TO.P,J1,3,Pin_3_3*%
%TO.N,Net-(J1-Pin_3)*%
X137240000Y-72000000D03*
%TO.P,J1,4,Pin_4_4*%
%TO.N,Net-(J1-Pin_4)*%
X134700000Y-72000000D03*
%TO.P,J1,5,Pin_5_5*%
%TO.N,Net-(J1-Pin_5)*%
X132160000Y-72000000D03*
%TO.P,J1,6,Pin_6_6*%
%TO.N,Net-(J1-Pin_6)*%
X129620000Y-72000000D03*
%TO.P,J1,7,Pin_7_7*%
%TO.N,Net-(J1-Pin_7)*%
X127080000Y-72000000D03*
%TO.P,J1,8,Pin_8_8*%
%TO.N,Net-(J1-Pin_8)*%
X124540000Y-72000000D03*
%TO.P,J1,9,Pin_9_9*%
%TO.N,Net-(J1-Pin_9)*%
X122000000Y-72000000D03*
%TO.P,J1,10,Pin_10_10*%
%TO.N,Net-(J1-Pin_10)*%
X119460000Y-72000000D03*
%TD*%
D19*
%TO.P,R33,1*%
%TO.N,Net-(A1-GPIO22)*%
X150380000Y-89500000D03*
%TO.P,R33,2*%
%TO.N,Net-(Q1-B)*%
X158000000Y-89500000D03*
%TD*%
D22*
%TO.P,J7,1,Pin_1_1*%
%TO.N,Net-(J7-Pin_1)*%
X188500000Y-124000000D03*
%TO.P,J7,2,Pin_2_2*%
%TO.N,unconnected-(J7-Pin_2-Pad2)*%
X192460000Y-124000000D03*
%TO.P,J7,3,Pin_3_3*%
%TO.N,Net-(J7-Pin_3)*%
X196420000Y-124000000D03*
%TD*%
D16*
%TO.P,R32,1*%
%TO.N,VCC*%
X142000000Y-113500000D03*
%TO.P,R32,2*%
%TO.N,Net-(J4-Pin_12)*%
X134380000Y-113500000D03*
%TD*%
D15*
%TO.P,J3,1,Pin_1_1*%
%TO.N,VDD*%
X113120000Y-72000000D03*
%TO.P,J3,2,Pin_2_2*%
%TO.N,Net-(A1-GPIO10)*%
X110580000Y-72000000D03*
%TO.P,J3,3,Pin_3_3*%
%TO.N,GND*%
X108040000Y-72000000D03*
%TD*%
D19*
%TO.P,RV2,1,1_1*%
%TO.N,Net-(J4-Pin_12)*%
X101330000Y-120659100D03*
%TO.P,RV2,2,2_2*%
%TO.N,Net-(J4-Pin_10)*%
X101330000Y-118119100D03*
%TO.P,RV2,3,3_3*%
%TO.N,GND*%
X101330000Y-115579100D03*
%TD*%
D23*
%TO.P,A1,*%
%TO.N,Net-(A1-GPIO0)*%
X146140000Y-89880000D03*
%TO.N,Net-(A1-GPIO1)*%
X143600000Y-89880000D03*
%TO.N,GND*%
X141060000Y-89880000D03*
%TO.N,Net-(A1-GPIO2)*%
X138520000Y-89880000D03*
%TO.N,Net-(A1-GPIO3)*%
X135980000Y-89880000D03*
%TO.N,Net-(A1-GPIO4)*%
X133440000Y-89880000D03*
%TO.N,Net-(A1-GPIO5)*%
X130900000Y-89880000D03*
%TO.N,GND*%
X128360000Y-89880000D03*
%TO.N,Net-(A1-GPIO6)*%
X125820000Y-89880000D03*
%TO.N,Net-(A1-GPIO7)*%
X123280000Y-89880000D03*
%TO.N,Net-(A1-GPIO8)*%
X120740000Y-89880000D03*
%TO.N,Net-(A1-GPIO9)*%
X118200000Y-89880000D03*
%TO.N,GND*%
X115660000Y-89880000D03*
%TO.N,Net-(A1-GPIO10)*%
X113120000Y-89880000D03*
%TO.N,unconnected-(A1-GPIO11-Pad15)*%
X110580000Y-89880000D03*
%TO.N,unconnected-(A1-GPIO12-Pad16)*%
X108040000Y-89880000D03*
%TO.N,unconnected-(A1-GPIO13-Pad17)*%
X105500000Y-89880000D03*
%TO.N,GND*%
X102960000Y-89880000D03*
%TO.N,unconnected-(A1-GPIO14-Pad19)*%
X100420000Y-89880000D03*
%TO.N,unconnected-(A1-GPIO15-Pad20)*%
X97880000Y-89880000D03*
%TO.N,VCC*%
X146140000Y-109270000D03*
%TO.N,unconnected-(A1-VSYS-Pad39)*%
X143600000Y-109270000D03*
%TO.N,GND*%
X141060000Y-109270000D03*
%TO.N,unconnected-(A1-3V3_EN-Pad37)*%
X138520000Y-109270000D03*
%TO.N,VDD*%
X135980000Y-109270000D03*
%TO.N,unconnected-(A1-ADC_VREF-Pad35)*%
X133440000Y-109270000D03*
%TO.N,Net-(A1-GPIO28_ADC2)*%
X130900000Y-109270000D03*
%TO.N,GND*%
X128360000Y-109270000D03*
%TO.N,Net-(A1-GPIO27_ADC1)*%
X125820000Y-109270000D03*
%TO.N,Net-(A1-GPIO26_ADC0)*%
X123280000Y-109270000D03*
%TO.N,unconnected-(A1-RUN-Pad30)*%
X120740000Y-109270000D03*
%TO.N,Net-(A1-GPIO22)*%
X118200000Y-109270000D03*
%TO.N,GND*%
X115660000Y-109270000D03*
%TO.N,Net-(A1-GPIO21)*%
X113120000Y-109270000D03*
%TO.N,Net-(A1-GPIO20)*%
X110580000Y-109270000D03*
%TO.N,Net-(A1-GPIO19)*%
X108040000Y-109270000D03*
%TO.N,Net-(A1-GPIO18)*%
X105500000Y-109270000D03*
%TO.N,GND*%
X102960000Y-109270000D03*
%TO.N,Net-(A1-GPIO17)*%
X100420000Y-109270000D03*
%TO.N,Net-(A1-GPIO16)*%
X97880000Y-109270000D03*
D24*
%TO.P,A1,D1*%
%TO.N,N/C*%
X116310000Y-100159100D03*
D11*
%TO.P,A1,D2*%
X116310000Y-102699100D03*
%TO.P,A1,D3*%
X116310000Y-105239100D03*
%TD*%
%TO.N,Net-(A1-GPIO27_ADC1)*%
D25*
X125820000Y-108465000D02*
X125820000Y-109820000D01*
X125820000Y-109820000D02*
X127525000Y-111525000D01*
X127525000Y-111525000D02*
X136214328Y-111525000D01*
X136214328Y-111525000D02*
X141870000Y-117180673D01*
X141870000Y-117180673D02*
X141870000Y-127618478D01*
X131790000Y-128950000D02*
X129840000Y-127000000D01*
X141870000Y-127618478D02*
X140538478Y-128950000D01*
X140538478Y-128950000D02*
X131790000Y-128950000D01*
%TO.N,Net-(A1-GPIO26_ADC0)*%
X123280000Y-108465000D02*
X123280000Y-109780000D01*
X141170000Y-119847578D02*
X137717578Y-123300000D01*
X123280000Y-109780000D02*
X129009100Y-115509100D01*
X129009100Y-115509100D02*
X139208478Y-115509100D01*
X139208478Y-115509100D02*
X141170000Y-117470622D01*
X141170000Y-117470622D02*
X141170000Y-119847578D01*
X137717578Y-123300000D02*
X136080000Y-123300000D01*
X136080000Y-123300000D02*
X132380000Y-127000000D01*
%TO.N,Net-(A1-GPIO28_ADC2)*%
X130900000Y-108465000D02*
X130900000Y-109544188D01*
%TO.N,Net-(A1-GPIO20)*%
X110580000Y-108465000D02*
X110580000Y-109544188D01*
X110580000Y-109544188D02*
X105795088Y-114329100D01*
X99380000Y-115061333D02*
X99380000Y-121176867D01*
X105795088Y-114329100D02*
X100112233Y-114329100D01*
X100112233Y-114329100D02*
X99380000Y-115061333D01*
X99380000Y-121176867D02*
X105203133Y-127000000D01*
X105203133Y-127000000D02*
X106980000Y-127000000D01*
%TO.N,Net-(A1-GPIO18)*%
X117140000Y-127000000D02*
X119090000Y-125050000D01*
X119090000Y-125050000D02*
X122810000Y-125050000D01*
X122810000Y-125050000D02*
X124760000Y-127000000D01*
%TO.N,Net-(A1-GPIO19)*%
X112060000Y-127000000D02*
X114010000Y-128950000D01*
X114010000Y-128950000D02*
X125350000Y-128950000D01*
X125350000Y-128950000D02*
X127300000Y-127000000D01*
%TO.N,Net-(A1-GPIO20)*%
X106980000Y-127000000D02*
X113370900Y-120609100D01*
X113370900Y-120609100D02*
X130300000Y-120609100D01*
X130300000Y-120609100D02*
X132250000Y-118659100D01*
%TO.N,Net-(J4-Pin_12)*%
D26*
X111930000Y-118659100D02*
X111930000Y-118070000D01*
X111930000Y-118070000D02*
X113540900Y-116459100D01*
X113540900Y-116459100D02*
X135432031Y-116459100D01*
X135432031Y-116459100D02*
X137330000Y-118357069D01*
X137330000Y-118357069D02*
X137330000Y-118659100D01*
X111930000Y-118659100D02*
X111930000Y-119430000D01*
X137330000Y-118961131D02*
X137330000Y-118659100D01*
%TO.N,Net-(J4-Pin_10)*%
X117010000Y-118357069D02*
X117010000Y-118659100D01*
%TO.N,Net-(J4-Pin_12)*%
X101330000Y-120659100D02*
X109930000Y-120659100D01*
X109930000Y-120659100D02*
X111930000Y-118659100D01*
D27*
X137380000Y-118609100D02*
X137330000Y-118659100D01*
%TO.N,VCC*%
X152707500Y-111500000D02*
X149175000Y-111500000D01*
X149175000Y-111500000D02*
X146140000Y-108465000D01*
X146140000Y-108465000D02*
X149480000Y-108465000D01*
X169000000Y-88945000D02*
X169000000Y-83000000D01*
X149480000Y-108465000D02*
X169000000Y-88945000D01*
%TO.N,VDD*%
X144860000Y-86000000D02*
X150408427Y-86000000D01*
X153080000Y-88671573D02*
X153080000Y-93103402D01*
X150408427Y-86000000D02*
X153080000Y-88671573D01*
X153080000Y-93103402D02*
X146358402Y-99825000D01*
X146358402Y-99825000D02*
X142079086Y-99825000D01*
X142079086Y-99825000D02*
X135980000Y-105924086D01*
X135980000Y-105924086D02*
X135980000Y-108465000D01*
%TO.N,Net-(BZ1-+)*%
D26*
X183000000Y-77700000D02*
X191700000Y-77700000D01*
X191700000Y-77700000D02*
X193000000Y-79000000D01*
%TO.N,GND*%
X183000000Y-72700000D02*
X191700000Y-72700000D01*
X191700000Y-72700000D02*
X193000000Y-71400000D01*
X193000000Y-71400000D02*
X202240000Y-71400000D01*
X202240000Y-71400000D02*
X203500000Y-72660000D01*
%TO.N,Net-(BZ1-+)*%
X193000000Y-79000000D02*
X196800000Y-75200000D01*
X196800000Y-75200000D02*
X203500000Y-75200000D01*
%TO.N,Net-(J6-Pin_1)*%
X176620000Y-83000000D02*
X198240000Y-83000000D01*
X198240000Y-83000000D02*
X203500000Y-77740000D01*
%TO.N,Net-(Q1-B)*%
X150380000Y-83000000D02*
X151500000Y-83000000D01*
X151500000Y-83000000D02*
X158000000Y-89500000D01*
%TO.N,GND*%
X158000000Y-83000000D02*
X159000000Y-84000000D01*
X159000000Y-84000000D02*
X163500000Y-84000000D01*
%TO.N,VCC*%
X163500000Y-82000000D02*
X168000000Y-82000000D01*
X168000000Y-82000000D02*
X169000000Y-83000000D01*
%TO.N,GND*%
X163500000Y-88230000D02*
X163500000Y-84000000D01*
%TO.N,Net-(Q1-B)*%
X158000000Y-89500000D02*
X163500000Y-89500000D01*
%TO.N,Net-(A1-GPIO10)*%
D27*
X113120000Y-90685000D02*
X113120000Y-84620000D01*
%TO.N,GND*%
X108040000Y-72000000D02*
X108040000Y-81960000D01*
X108040000Y-81960000D02*
X102960000Y-87040000D01*
X102960000Y-87040000D02*
X102960000Y-90685000D01*
%TO.N,VDD*%
X174000000Y-79000000D02*
X145000000Y-79000000D01*
X144860000Y-79140000D02*
X145000000Y-79000000D01*
X144860000Y-86000000D02*
X144860000Y-79140000D01*
X174360000Y-76000000D02*
X174360000Y-78640000D01*
X174360000Y-78640000D02*
X174000000Y-79000000D01*
X145000000Y-79000000D02*
X114000000Y-79000000D01*
X114000000Y-79000000D02*
X113120000Y-78120000D01*
X113120000Y-78120000D02*
X113120000Y-77000000D01*
%TO.N,Net-(A1-GPIO9)*%
D25*
X118200000Y-90685000D02*
X118200000Y-87260000D01*
X118200000Y-87260000D02*
X119460000Y-86000000D01*
%TO.N,Net-(A1-GPIO8)*%
X120740000Y-90685000D02*
X120740000Y-87260000D01*
X120740000Y-87260000D02*
X122000000Y-86000000D01*
%TO.N,Net-(A1-GPIO7)*%
X123280000Y-90685000D02*
X123280000Y-87260000D01*
X123280000Y-87260000D02*
X124540000Y-86000000D01*
%TO.N,Net-(A1-GPIO6)*%
X125820000Y-90685000D02*
X125820000Y-87260000D01*
X125820000Y-87260000D02*
X127080000Y-86000000D01*
%TO.N,Net-(A1-GPIO5)*%
X130900000Y-90685000D02*
X130900000Y-87280000D01*
X130900000Y-87280000D02*
X129620000Y-86000000D01*
%TO.N,Net-(A1-GPIO4)*%
X133440000Y-90685000D02*
X133440000Y-87280000D01*
X133440000Y-87280000D02*
X132160000Y-86000000D01*
%TO.N,Net-(A1-GPIO3)*%
X135980000Y-90685000D02*
X135980000Y-87280000D01*
X135980000Y-87280000D02*
X134700000Y-86000000D01*
%TO.N,Net-(A1-GPIO2)*%
X138520000Y-90685000D02*
X138520000Y-87280000D01*
X138520000Y-87280000D02*
X137240000Y-86000000D01*
%TO.N,Net-(A1-GPIO1)*%
X143600000Y-90685000D02*
X143600000Y-89605812D01*
X143600000Y-89605812D02*
X139994188Y-86000000D01*
X139994188Y-86000000D02*
X139780000Y-86000000D01*
%TO.N,Net-(A1-GPIO0)*%
X146140000Y-90685000D02*
X146140000Y-89605812D01*
X146140000Y-89605812D02*
X142534188Y-86000000D01*
X142534188Y-86000000D02*
X142320000Y-86000000D01*
%TO.N,Net-(A1-GPIO10)*%
D27*
X110580000Y-72000000D02*
X110580000Y-82080000D01*
X110580000Y-82080000D02*
X113120000Y-84620000D01*
%TO.N,VDD*%
X113120000Y-77000000D02*
X113120000Y-72000000D01*
%TO.N,Net-(J2-Pin_1)*%
X171820000Y-76000000D02*
X171820000Y-72000000D01*
%TO.N,Net-(J2-Pin_2)*%
X169280000Y-76000000D02*
X169280000Y-72000000D01*
%TO.N,Net-(J2-Pin_3)*%
X166740000Y-76000000D02*
X166740000Y-72000000D01*
%TO.N,Net-(J2-Pin_4)*%
X164200000Y-76000000D02*
X164200000Y-72000000D01*
%TO.N,Net-(J2-Pin_5)*%
X161660000Y-76000000D02*
X161660000Y-72000000D01*
%TO.N,Net-(J2-Pin_6)*%
X159120000Y-76000000D02*
X159120000Y-72000000D01*
%TO.N,Net-(J2-Pin_7)*%
X156580000Y-76000000D02*
X156580000Y-72000000D01*
%TO.N,Net-(J2-Pin_8)*%
X154040000Y-76000000D02*
X154040000Y-72000000D01*
%TO.N,Net-(J2-Pin_9)*%
X151500000Y-76000000D02*
X151500000Y-72000000D01*
%TO.N,Net-(J2-Pin_10)*%
X148960000Y-76000000D02*
X148960000Y-72000000D01*
%TO.N,Net-(J1-Pin_1)*%
X142320000Y-75500000D02*
X142320000Y-72000000D01*
%TO.N,Net-(J1-Pin_2)*%
X139780000Y-75500000D02*
X139780000Y-72000000D01*
%TO.N,Net-(J1-Pin_3)*%
X137240000Y-75500000D02*
X137240000Y-72000000D01*
%TO.N,Net-(J1-Pin_4)*%
X134700000Y-75500000D02*
X134700000Y-72000000D01*
%TO.N,Net-(J1-Pin_5)*%
X132160000Y-75500000D02*
X132160000Y-72000000D01*
%TO.N,Net-(J1-Pin_6)*%
X129620000Y-75500000D02*
X129620000Y-72000000D01*
%TO.N,Net-(J1-Pin_7)*%
X127080000Y-75500000D02*
X127080000Y-72000000D01*
%TO.N,Net-(J1-Pin_8)*%
X124540000Y-75500000D02*
X124540000Y-72000000D01*
%TO.N,Net-(J1-Pin_9)*%
X122000000Y-75500000D02*
X122000000Y-72000000D01*
%TO.N,Net-(J1-Pin_10)*%
X119460000Y-75500000D02*
X119460000Y-72000000D01*
%TO.N,Net-(A1-GPIO0)*%
X142320000Y-86000000D02*
X142320000Y-83120000D01*
%TO.N,Net-(A1-GPIO1)*%
X139780000Y-86000000D02*
X139780000Y-83120000D01*
%TO.N,Net-(A1-GPIO2)*%
X137240000Y-86000000D02*
X137240000Y-83120000D01*
%TO.N,Net-(A1-GPIO3)*%
X134700000Y-86000000D02*
X134700000Y-83120000D01*
%TO.N,Net-(A1-GPIO4)*%
X132160000Y-86000000D02*
X132160000Y-83120000D01*
%TO.N,Net-(A1-GPIO5)*%
X129620000Y-86000000D02*
X129620000Y-83120000D01*
%TO.N,Net-(A1-GPIO6)*%
X127080000Y-86000000D02*
X127080000Y-83120000D01*
%TO.N,Net-(A1-GPIO7)*%
X124540000Y-86000000D02*
X124540000Y-83120000D01*
%TO.N,Net-(A1-GPIO8)*%
X122000000Y-86000000D02*
X122000000Y-83120000D01*
%TO.N,Net-(A1-GPIO9)*%
X119460000Y-86000000D02*
X119460000Y-83120000D01*
%TO.N,Net-(J7-Pin_3)*%
X196420000Y-118920000D02*
X194000000Y-116500000D01*
X196420000Y-124000000D02*
X196420000Y-118920000D01*
X194000000Y-116500000D02*
X181787500Y-116500000D01*
%TO.N,Net-(J7-Pin_1)*%
X188500000Y-124000000D02*
X184287500Y-124000000D01*
X184287500Y-124000000D02*
X181787500Y-121500000D01*
%TD*%
%TA.AperFunction,Conductor*%
%TO.N,GND*%
G36*
X211272539Y-59179285D02*
G01*
X211318294Y-59232089D01*
X211329500Y-59283600D01*
X211329500Y-106876000D01*
X211309815Y-106943039D01*
X211257011Y-106988794D01*
X211205500Y-107000000D01*
X167000000Y-107000000D01*
X167000000Y-130034600D01*
X166980315Y-130101639D01*
X166927511Y-130147394D01*
X166876000Y-130158600D01*
X87454500Y-130158600D01*
X87387461Y-130138915D01*
X87341706Y-130086111D01*
X87330500Y-130034600D01*
X87330500Y-124014878D01*
X92629500Y-124014878D01*
X92629500Y-124303321D01*
X92629501Y-124303338D01*
X92667149Y-124589306D01*
X92667150Y-124589311D01*
X92667151Y-124589317D01*
X92741809Y-124867944D01*
X92741814Y-124867960D01*
X92852191Y-125134436D01*
X92852199Y-125134452D01*
X92996420Y-125384248D01*
X92996431Y-125384264D01*
X93172024Y-125613102D01*
X93172030Y-125613109D01*
X93375990Y-125817069D01*
X93375997Y-125817075D01*
X93538953Y-125942115D01*
X93604844Y-125992675D01*
X93604851Y-125992679D01*
X93854647Y-126136900D01*
X93854663Y-126136908D01*
X94121139Y-126247285D01*
X94121145Y-126247286D01*
X94121155Y-126247291D01*
X94399783Y-126321949D01*
X94685772Y-126359600D01*
X94685779Y-126359600D01*
X94974221Y-126359600D01*
X94974228Y-126359600D01*
X95260217Y-126321949D01*
X95538845Y-126247291D01*
X95538857Y-126247285D01*
X95538860Y-126247285D01*
X95805336Y-126136908D01*
X95805339Y-126136906D01*
X95805345Y-126136904D01*
X96055156Y-125992675D01*
X96284004Y-125817074D01*
X96487974Y-125613104D01*
X96663575Y-125384256D01*
X96807804Y-125134445D01*
X96822717Y-125098443D01*
X96918185Y-124867960D01*
X96918185Y-124867957D01*
X96918191Y-124867945D01*
X96992849Y-124589317D01*
X97030500Y-124303328D01*
X97030500Y-124014872D01*
X96992849Y-123728883D01*
X96918191Y-123450255D01*
X96918186Y-123450245D01*
X96918185Y-123450239D01*
X96807808Y-123183763D01*
X96807800Y-123183747D01*
X96663579Y-122933951D01*
X96663575Y-122933944D01*
X96613015Y-122868053D01*
X96487975Y-122705097D01*
X96487969Y-122705090D01*
X96284009Y-122501130D01*
X96284002Y-122501124D01*
X96055164Y-122325531D01*
X96055162Y-122325529D01*
X96055156Y-122325525D01*
X96055151Y-122325522D01*
X96055148Y-122325520D01*
X95805352Y-122181299D01*
X95805336Y-122181291D01*
X95538860Y-122070914D01*
X95538848Y-122070910D01*
X95538845Y-122070909D01*
X95260217Y-121996251D01*
X95260211Y-121996250D01*
X95260206Y-121996249D01*
X94974238Y-121958601D01*
X94974233Y-121958600D01*
X94974228Y-121958600D01*
X94685772Y-121958600D01*
X94685766Y-121958600D01*
X94685761Y-121958601D01*
X94399793Y-121996249D01*
X94399786Y-121996250D01*
X94399783Y-121996251D01*
X94121155Y-122070909D01*
X94121139Y-122070914D01*
X93854663Y-122181291D01*
X93854647Y-122181299D01*
X93604851Y-122325520D01*
X93604835Y-122325531D01*
X93375997Y-122501124D01*
X93375990Y-122501130D01*
X93172030Y-122705090D01*
X93172024Y-122705097D01*
X92996431Y-122933935D01*
X92996420Y-122933951D01*
X92852199Y-123183747D01*
X92852191Y-123183763D01*
X92741814Y-123450239D01*
X92741809Y-123450255D01*
X92667152Y-123728880D01*
X92667149Y-123728893D01*
X92629501Y-124014861D01*
X92629500Y-124014878D01*
X87330500Y-124014878D01*
X87330500Y-120699000D01*
X87350185Y-120631961D01*
X87402989Y-120586206D01*
X87454500Y-120575000D01*
X97010000Y-120575000D01*
X97010000Y-111505880D01*
X97029685Y-111438841D01*
X97082489Y-111393086D01*
X97151647Y-111383142D01*
X97190293Y-111395395D01*
X97248309Y-111424956D01*
X97342389Y-111472893D01*
X97342396Y-111472896D01*
X97373965Y-111483153D01*
X97552049Y-111541015D01*
X97769778Y-111575500D01*
X97769779Y-111575500D01*
X97990221Y-111575500D01*
X97990222Y-111575500D01*
X98207951Y-111541015D01*
X98417606Y-111472895D01*
X98614022Y-111372815D01*
X98792365Y-111243242D01*
X98948242Y-111087365D01*
X98958804Y-111072826D01*
X99049682Y-110947745D01*
X99105011Y-110905079D01*
X99174625Y-110899100D01*
X99236420Y-110931705D01*
X99250318Y-110947745D01*
X99351752Y-111087358D01*
X99351756Y-111087363D01*
X99507636Y-111243243D01*
X99507641Y-111243247D01*
X99655995Y-111351031D01*
X99685978Y-111372815D01*
X99788985Y-111425300D01*
X99882393Y-111472895D01*
X99882396Y-111472896D01*
X99913965Y-111483153D01*
X100092049Y-111541015D01*
X100309778Y-111575500D01*
X100309779Y-111575500D01*
X100530221Y-111575500D01*
X100530222Y-111575500D01*
X100747951Y-111541015D01*
X100957606Y-111472895D01*
X101154022Y-111372815D01*
X101332365Y-111243242D01*
X101488242Y-111087365D01*
X101589991Y-110947317D01*
X101645320Y-110904653D01*
X101714933Y-110898674D01*
X101776729Y-110931279D01*
X101790627Y-110947318D01*
X101892142Y-111087041D01*
X102047958Y-111242857D01*
X102226239Y-111372386D01*
X102422589Y-111472432D01*
X102632163Y-111540526D01*
X102709999Y-111552854D01*
X102710000Y-111552854D01*
X102710000Y-108780686D01*
X102714394Y-108785080D01*
X102805606Y-108837741D01*
X102907339Y-108865000D01*
X103012661Y-108865000D01*
X103114394Y-108837741D01*
X103205606Y-108785080D01*
X103210000Y-108780686D01*
X103210000Y-111552854D01*
X103287834Y-111540526D01*
X103287837Y-111540526D01*
X103497410Y-111472432D01*
X103693760Y-111372386D01*
X103872041Y-111242857D01*
X104027857Y-111087041D01*
X104027862Y-111087035D01*
X104129372Y-110947319D01*
X104184702Y-110904653D01*
X104254315Y-110898674D01*
X104316110Y-110931279D01*
X104330008Y-110947319D01*
X104431752Y-111087358D01*
X104431756Y-111087363D01*
X104587636Y-111243243D01*
X104587641Y-111243247D01*
X104735995Y-111351031D01*
X104765978Y-111372815D01*
X104868985Y-111425300D01*
X104962393Y-111472895D01*
X104962396Y-111472896D01*
X104993965Y-111483153D01*
X105172049Y-111541015D01*
X105389778Y-111575500D01*
X105389779Y-111575500D01*
X105610221Y-111575500D01*
X105610222Y-111575500D01*
X105827951Y-111541015D01*
X106037606Y-111472895D01*
X106234022Y-111372815D01*
X106412365Y-111243242D01*
X106568242Y-111087365D01*
X106578804Y-111072826D01*
X106669682Y-110947745D01*
X106725011Y-110905079D01*
X106794625Y-110899100D01*
X106856420Y-110931705D01*
X106870318Y-110947745D01*
X106971752Y-111087358D01*
X106971756Y-111087363D01*
X107127636Y-111243243D01*
X107127641Y-111243247D01*
X107275995Y-111351031D01*
X107305978Y-111372815D01*
X107408310Y-111424956D01*
X107459106Y-111472931D01*
X107475901Y-111540752D01*
X107453363Y-111606887D01*
X107439696Y-111623122D01*
X105520539Y-113542281D01*
X105459216Y-113575766D01*
X105432858Y-113578600D01*
X100038313Y-113578600D01*
X99893325Y-113607440D01*
X99893319Y-113607442D01*
X99756741Y-113664014D01*
X99756729Y-113664021D01*
X99707502Y-113696913D01*
X99633821Y-113746144D01*
X99633813Y-113746150D01*
X98797050Y-114582913D01*
X98797044Y-114582921D01*
X98747812Y-114656601D01*
X98747813Y-114656602D01*
X98714921Y-114705829D01*
X98714914Y-114705841D01*
X98658342Y-114842419D01*
X98658340Y-114842425D01*
X98629500Y-114987412D01*
X98629500Y-114987415D01*
X98629500Y-121250785D01*
X98629500Y-121250787D01*
X98629499Y-121250787D01*
X98658340Y-121395774D01*
X98658343Y-121395784D01*
X98714913Y-121532357D01*
X98714914Y-121532358D01*
X98714916Y-121532362D01*
X98723847Y-121545728D01*
X98723848Y-121545729D01*
X98723849Y-121545732D01*
X98797046Y-121655281D01*
X98797052Y-121655288D01*
X103175523Y-126033757D01*
X104620181Y-127478415D01*
X104620182Y-127478416D01*
X104724717Y-127582951D01*
X104724720Y-127582953D01*
X104724721Y-127582954D01*
X104847636Y-127665083D01*
X104847639Y-127665085D01*
X104904212Y-127688518D01*
X104904213Y-127688518D01*
X104984221Y-127721659D01*
X105100374Y-127744763D01*
X105119601Y-127748587D01*
X105129214Y-127750500D01*
X105129215Y-127750500D01*
X105129216Y-127750500D01*
X105277051Y-127750500D01*
X105522678Y-127750500D01*
X105589717Y-127770185D01*
X105635472Y-127822989D01*
X105645151Y-127855102D01*
X105662753Y-127966240D01*
X105662754Y-127966243D01*
X105705205Y-128096894D01*
X105728444Y-128168414D01*
X105824951Y-128357820D01*
X105949890Y-128529786D01*
X106100213Y-128680109D01*
X106272179Y-128805048D01*
X106272181Y-128805049D01*
X106272184Y-128805051D01*
X106461588Y-128901557D01*
X106663757Y-128967246D01*
X106873713Y-129000500D01*
X106873714Y-129000500D01*
X107086286Y-129000500D01*
X107086287Y-129000500D01*
X107296243Y-128967246D01*
X107498412Y-128901557D01*
X107687816Y-128805051D01*
X107718000Y-128783121D01*
X107859786Y-128680109D01*
X107859788Y-128680106D01*
X107859792Y-128680104D01*
X108010104Y-128529792D01*
X108010106Y-128529788D01*
X108010109Y-128529786D01*
X108135048Y-128357820D01*
X108135050Y-128357817D01*
X108135051Y-128357816D01*
X108139514Y-128349054D01*
X108187488Y-128298259D01*
X108255308Y-128281463D01*
X108321444Y-128303999D01*
X108360486Y-128349056D01*
X108364951Y-128357820D01*
X108489890Y-128529786D01*
X108640213Y-128680109D01*
X108812179Y-128805048D01*
X108812181Y-128805049D01*
X108812184Y-128805051D01*
X109001588Y-128901557D01*
X109203757Y-128967246D01*
X109413713Y-129000500D01*
X109413714Y-129000500D01*
X109626286Y-129000500D01*
X109626287Y-129000500D01*
X109836243Y-128967246D01*
X110038412Y-128901557D01*
X110227816Y-128805051D01*
X110258000Y-128783121D01*
X110399786Y-128680109D01*
X110399788Y-128680106D01*
X110399792Y-128680104D01*
X110550104Y-128529792D01*
X110550106Y-128529788D01*
X110550109Y-128529786D01*
X110675048Y-128357820D01*
X110675050Y-128357817D01*
X110675051Y-128357816D01*
X110679514Y-128349054D01*
X110727488Y-128298259D01*
X110795308Y-128281463D01*
X110861444Y-128303999D01*
X110900486Y-128349056D01*
X110904951Y-128357820D01*
X111029890Y-128529786D01*
X111180213Y-128680109D01*
X111352179Y-128805048D01*
X111352181Y-128805049D01*
X111352184Y-128805051D01*
X111541588Y-128901557D01*
X111743757Y-128967246D01*
X111953713Y-129000500D01*
X111953714Y-129000500D01*
X112166286Y-129000500D01*
X112166287Y-129000500D01*
X112376243Y-128967246D01*
X112578412Y-128901557D01*
X112711307Y-128833843D01*
X112779974Y-128820948D01*
X112844714Y-128847224D01*
X112855281Y-128856648D01*
X113427048Y-129428415D01*
X113427049Y-129428416D01*
X113531583Y-129532950D01*
X113531585Y-129532952D01*
X113654498Y-129615080D01*
X113654511Y-129615087D01*
X113791082Y-129671656D01*
X113791087Y-129671658D01*
X113791091Y-129671658D01*
X113791092Y-129671659D01*
X113936079Y-129700500D01*
X113936082Y-129700500D01*
X125423920Y-129700500D01*
X125521462Y-129681096D01*
X125568913Y-129671658D01*
X125705495Y-129615084D01*
X125754729Y-129582186D01*
X125828416Y-129532952D01*
X126504718Y-128856647D01*
X126566041Y-128823163D01*
X126635732Y-128828147D01*
X126648690Y-128833842D01*
X126781588Y-128901557D01*
X126983757Y-128967246D01*
X127193713Y-129000500D01*
X127193714Y-129000500D01*
X127406286Y-129000500D01*
X127406287Y-129000500D01*
X127616243Y-128967246D01*
X127818412Y-128901557D01*
X128007816Y-128805051D01*
X128038000Y-128783121D01*
X128179786Y-128680109D01*
X128179788Y-128680106D01*
X128179792Y-128680104D01*
X128330104Y-128529792D01*
X128330106Y-128529788D01*
X128330109Y-128529786D01*
X128425911Y-128397924D01*
X128455051Y-128357816D01*
X128474835Y-128318988D01*
X128522809Y-128268191D01*
X128590630Y-128251396D01*
X128656765Y-128273933D01*
X128695804Y-128318986D01*
X128715591Y-128357820D01*
X128727715Y-128381613D01*
X128848028Y-128547213D01*
X128992786Y-128691971D01*
X129118246Y-128783121D01*
X129158390Y-128812287D01*
X129274607Y-128871503D01*
X129340776Y-128905218D01*
X129340778Y-128905218D01*
X129340781Y-128905220D01*
X129445137Y-128939127D01*
X129535465Y-128968477D01*
X129636557Y-128984488D01*
X129737648Y-129000500D01*
X129737649Y-129000500D01*
X129942351Y-129000500D01*
X129942352Y-129000500D01*
X130144534Y-128968477D01*
X130339219Y-128905220D01*
X130487253Y-128829792D01*
X130555920Y-128816896D01*
X130620661Y-128843172D01*
X130631228Y-128852596D01*
X131207048Y-129428415D01*
X131207049Y-129428416D01*
X131311583Y-129532950D01*
X131311585Y-129532952D01*
X131434498Y-129615080D01*
X131434511Y-129615087D01*
X131571082Y-129671656D01*
X131571087Y-129671658D01*
X131571091Y-129671658D01*
X131571092Y-129671659D01*
X131716079Y-129700500D01*
X131716082Y-129700500D01*
X140612398Y-129700500D01*
X140709940Y-129681096D01*
X140757391Y-129671658D01*
X140893973Y-129615084D01*
X140943207Y-129582186D01*
X141016894Y-129532952D01*
X142452951Y-128096894D01*
X142535084Y-127973973D01*
X142591658Y-127837391D01*
X142603643Y-127777139D01*
X142620500Y-127692396D01*
X142620500Y-126249999D01*
X149723154Y-126249999D01*
X149723155Y-126250000D01*
X152274488Y-126250000D01*
X152241575Y-126307007D01*
X152207500Y-126434174D01*
X152207500Y-126565826D01*
X152241575Y-126692993D01*
X152274488Y-126750000D01*
X149723155Y-126750000D01*
X149741721Y-126891016D01*
X149809575Y-127144255D01*
X149909904Y-127386471D01*
X149909909Y-127386482D01*
X150040996Y-127613528D01*
X150200592Y-127821519D01*
X150200598Y-127821526D01*
X150385973Y-128006901D01*
X150385980Y-128006907D01*
X150593971Y-128166503D01*
X150821017Y-128297590D01*
X150821028Y-128297595D01*
X151063244Y-128397924D01*
X151316479Y-128465777D01*
X151316490Y-128465779D01*
X151576405Y-128499999D01*
X151576420Y-128500000D01*
X152457500Y-128500000D01*
X152457500Y-126933012D01*
X152514507Y-126965925D01*
X152641674Y-127000000D01*
X152773326Y-127000000D01*
X152900493Y-126965925D01*
X152957500Y-126933012D01*
X152957500Y-128500000D01*
X153838580Y-128500000D01*
X153838594Y-128499999D01*
X154098509Y-128465779D01*
X154098520Y-128465777D01*
X154351755Y-128397924D01*
X154593971Y-128297595D01*
X154593982Y-128297590D01*
X154821028Y-128166503D01*
X155029019Y-128006907D01*
X155029026Y-128006901D01*
X155214401Y-127821526D01*
X155214407Y-127821519D01*
X155374003Y-127613528D01*
X155505090Y-127386482D01*
X155505095Y-127386471D01*
X155605424Y-127144255D01*
X155673278Y-126891016D01*
X155691845Y-126750000D01*
X153140512Y-126750000D01*
X153173425Y-126692993D01*
X153207500Y-126565826D01*
X153207500Y-126434174D01*
X153173425Y-126307007D01*
X153140512Y-126250000D01*
X155691845Y-126250000D01*
X155691845Y-126249999D01*
X155673278Y-126108983D01*
X155605424Y-125855744D01*
X155505095Y-125613528D01*
X155505090Y-125613517D01*
X155374003Y-125386471D01*
X155214407Y-125178480D01*
X155214401Y-125178473D01*
X155029026Y-124993098D01*
X155029019Y-124993092D01*
X154821028Y-124833496D01*
X154593982Y-124702409D01*
X154593971Y-124702404D01*
X154351755Y-124602075D01*
X154098520Y-124534222D01*
X154098509Y-124534220D01*
X153838594Y-124500000D01*
X152957500Y-124500000D01*
X152957500Y-126066988D01*
X152900493Y-126034075D01*
X152773326Y-126000000D01*
X152641674Y-126000000D01*
X152514507Y-126034075D01*
X152457500Y-126066988D01*
X152457500Y-124500000D01*
X151576405Y-124500000D01*
X151316490Y-124534220D01*
X151316479Y-124534222D01*
X151063244Y-124602075D01*
X150821028Y-124702404D01*
X150821017Y-124702409D01*
X150593971Y-124833496D01*
X150385980Y-124993092D01*
X150385973Y-124993098D01*
X150200598Y-125178473D01*
X150200592Y-125178480D01*
X150040996Y-125386471D01*
X149909909Y-125613517D01*
X149909904Y-125613528D01*
X149809575Y-125855744D01*
X149741721Y-126108983D01*
X149723154Y-126249999D01*
X142620500Y-126249999D01*
X142620500Y-117106755D01*
X142600620Y-117006813D01*
X142591659Y-116961761D01*
X142545932Y-116851368D01*
X142535084Y-116825178D01*
X142452951Y-116702257D01*
X142348416Y-116597722D01*
X142010294Y-116259600D01*
X141351250Y-115600555D01*
X141317765Y-115539232D01*
X141322749Y-115469540D01*
X141364621Y-115413607D01*
X141430085Y-115389190D01*
X141495232Y-115402393D01*
X141500773Y-115405216D01*
X141500781Y-115405220D01*
X141658804Y-115456565D01*
X141695465Y-115468477D01*
X141796557Y-115484488D01*
X141897648Y-115500500D01*
X141897649Y-115500500D01*
X142102351Y-115500500D01*
X142102352Y-115500500D01*
X142304534Y-115468477D01*
X142499219Y-115405220D01*
X142681610Y-115312287D01*
X142827409Y-115206359D01*
X142847213Y-115191971D01*
X142847215Y-115191968D01*
X142847219Y-115191966D01*
X142991966Y-115047219D01*
X142991968Y-115047215D01*
X142991971Y-115047213D01*
X143090168Y-114912054D01*
X143112287Y-114881610D01*
X143205220Y-114699219D01*
X143268477Y-114504534D01*
X143300500Y-114302352D01*
X143300500Y-112697648D01*
X143268477Y-112495466D01*
X143268476Y-112495464D01*
X143233136Y-112386697D01*
X143205220Y-112300781D01*
X143205218Y-112300778D01*
X143205218Y-112300776D01*
X143171503Y-112234607D01*
X143112287Y-112118390D01*
X143104556Y-112107749D01*
X142991971Y-111952786D01*
X142847213Y-111808028D01*
X142681613Y-111687715D01*
X142681612Y-111687714D01*
X142681610Y-111687713D01*
X142624653Y-111658691D01*
X142499223Y-111594781D01*
X142304534Y-111531522D01*
X142128194Y-111503593D01*
X142102352Y-111499500D01*
X142000437Y-111499500D01*
X141933398Y-111479815D01*
X141887643Y-111427011D01*
X141877699Y-111357853D01*
X141906724Y-111294297D01*
X141927551Y-111275182D01*
X141972040Y-111242857D01*
X141972041Y-111242857D01*
X142127857Y-111087041D01*
X142127862Y-111087035D01*
X142229372Y-110947319D01*
X142284702Y-110904653D01*
X142354315Y-110898674D01*
X142416110Y-110931279D01*
X142430008Y-110947319D01*
X142531752Y-111087358D01*
X142531756Y-111087363D01*
X142687636Y-111243243D01*
X142687641Y-111243247D01*
X142835995Y-111351031D01*
X142865978Y-111372815D01*
X142968985Y-111425300D01*
X143062393Y-111472895D01*
X143062396Y-111472896D01*
X143093965Y-111483153D01*
X143272049Y-111541015D01*
X143489778Y-111575500D01*
X143489779Y-111575500D01*
X143710221Y-111575500D01*
X143710222Y-111575500D01*
X143927951Y-111541015D01*
X144137606Y-111472895D01*
X144334022Y-111372815D01*
X144512365Y-111243242D01*
X144668242Y-111087365D01*
X144678804Y-111072826D01*
X144769682Y-110947745D01*
X144825011Y-110905079D01*
X144894625Y-110899100D01*
X144956420Y-110931705D01*
X144970318Y-110947745D01*
X145071752Y-111087358D01*
X145071756Y-111087363D01*
X145227636Y-111243243D01*
X145227641Y-111243247D01*
X145375995Y-111351031D01*
X145405978Y-111372815D01*
X145508985Y-111425300D01*
X145602393Y-111472895D01*
X145602396Y-111472896D01*
X145633965Y-111483153D01*
X145812049Y-111541015D01*
X146029778Y-111575500D01*
X146029779Y-111575500D01*
X146250221Y-111575500D01*
X146250222Y-111575500D01*
X146467951Y-111541015D01*
X146677606Y-111472895D01*
X146828042Y-111396242D01*
X146896711Y-111383346D01*
X146961452Y-111409622D01*
X146972019Y-111419046D01*
X148197490Y-112644517D01*
X148388566Y-112783343D01*
X148599008Y-112890568D01*
X148823631Y-112963553D01*
X148911109Y-112977408D01*
X149056903Y-113000500D01*
X149056908Y-113000500D01*
X149293092Y-113000500D01*
X150334719Y-113000500D01*
X150401758Y-113020185D01*
X150410200Y-113026120D01*
X150471526Y-113073178D01*
X150593696Y-113166924D01*
X150820799Y-113298041D01*
X150820809Y-113298046D01*
X151063071Y-113398394D01*
X151063081Y-113398398D01*
X151316384Y-113466270D01*
X151576380Y-113500500D01*
X151576387Y-113500500D01*
X153838613Y-113500500D01*
X153838620Y-113500500D01*
X154098616Y-113466270D01*
X154351919Y-113398398D01*
X154594197Y-113298043D01*
X154821303Y-113166924D01*
X155029351Y-113007282D01*
X155029355Y-113007277D01*
X155029360Y-113007274D01*
X155214774Y-112821860D01*
X155214777Y-112821855D01*
X155214782Y-112821851D01*
X155374424Y-112613803D01*
X155505543Y-112386697D01*
X155605898Y-112144419D01*
X155673770Y-111891116D01*
X155708000Y-111631120D01*
X155708000Y-111368880D01*
X155673770Y-111108884D01*
X155605898Y-110855581D01*
X155572313Y-110774500D01*
X155505546Y-110613309D01*
X155505541Y-110613299D01*
X155374424Y-110386196D01*
X155214781Y-110178148D01*
X155214774Y-110178140D01*
X155029360Y-109992726D01*
X155029351Y-109992718D01*
X154821303Y-109833075D01*
X154594200Y-109701958D01*
X154594190Y-109701953D01*
X154351928Y-109601605D01*
X154351921Y-109601603D01*
X154351919Y-109601602D01*
X154098616Y-109533730D01*
X154040839Y-109526123D01*
X153838627Y-109499500D01*
X153838620Y-109499500D01*
X151576380Y-109499500D01*
X151576372Y-109499500D01*
X151345272Y-109529926D01*
X151316384Y-109533730D01*
X151063081Y-109601602D01*
X151063071Y-109601605D01*
X150820809Y-109701953D01*
X150820799Y-109701958D01*
X150593696Y-109833075D01*
X150450420Y-109943017D01*
X150410204Y-109973875D01*
X150345037Y-109999070D01*
X150334719Y-109999500D01*
X150290008Y-109999500D01*
X150222969Y-109979815D01*
X150177214Y-109927011D01*
X150167270Y-109857853D01*
X150196295Y-109794297D01*
X150233713Y-109765015D01*
X150266434Y-109748343D01*
X150457510Y-109609517D01*
X170144518Y-89922510D01*
X170283343Y-89731433D01*
X170390568Y-89520992D01*
X170463553Y-89296368D01*
X170478678Y-89200872D01*
X170500500Y-89063097D01*
X170500500Y-84089033D01*
X170520185Y-84021994D01*
X170543962Y-83994748D01*
X170547212Y-83991971D01*
X170547219Y-83991966D01*
X170691966Y-83847219D01*
X170691968Y-83847215D01*
X170691971Y-83847213D01*
X170762599Y-83750000D01*
X170812287Y-83681610D01*
X170905220Y-83499219D01*
X170968477Y-83304534D01*
X171000500Y-83102352D01*
X171000500Y-82897648D01*
X174619500Y-82897648D01*
X174619500Y-83102351D01*
X174651522Y-83304534D01*
X174714781Y-83499223D01*
X174774010Y-83615465D01*
X174785381Y-83637782D01*
X174807715Y-83681613D01*
X174928028Y-83847213D01*
X175072786Y-83991971D01*
X175206383Y-84089033D01*
X175238390Y-84112287D01*
X175321030Y-84154394D01*
X175420776Y-84205218D01*
X175420778Y-84205218D01*
X175420781Y-84205220D01*
X175525137Y-84239127D01*
X175615465Y-84268477D01*
X175642204Y-84272712D01*
X175817648Y-84300500D01*
X175817649Y-84300500D01*
X177422351Y-84300500D01*
X177422352Y-84300500D01*
X177624534Y-84268477D01*
X177819219Y-84205220D01*
X178001610Y-84112287D01*
X178122877Y-84024181D01*
X178188683Y-84000702D01*
X178195762Y-84000500D01*
X198338542Y-84000500D01*
X198367457Y-83994748D01*
X198435188Y-83981275D01*
X198531836Y-83962051D01*
X198585165Y-83939961D01*
X198713914Y-83886632D01*
X198877782Y-83777139D01*
X199017139Y-83637782D01*
X199017139Y-83637780D01*
X199027347Y-83627573D01*
X199027348Y-83627570D01*
X203528102Y-79126819D01*
X203589425Y-79093334D01*
X203615783Y-79090500D01*
X204256286Y-79090500D01*
X204256287Y-79090500D01*
X204466243Y-79057246D01*
X204668412Y-78991557D01*
X204857816Y-78895051D01*
X204971736Y-78812284D01*
X205029786Y-78770109D01*
X205029788Y-78770106D01*
X205029792Y-78770104D01*
X205180104Y-78619792D01*
X205180106Y-78619788D01*
X205180109Y-78619786D01*
X205305048Y-78447820D01*
X205305047Y-78447820D01*
X205305051Y-78447816D01*
X205401557Y-78258412D01*
X205467246Y-78056243D01*
X205500500Y-77846287D01*
X205500500Y-77633713D01*
X205467246Y-77423757D01*
X205401557Y-77221588D01*
X205305051Y-77032184D01*
X205305049Y-77032181D01*
X205305048Y-77032179D01*
X205180109Y-76860213D01*
X205029786Y-76709890D01*
X204857820Y-76584951D01*
X204857115Y-76584591D01*
X204849054Y-76580485D01*
X204798259Y-76532512D01*
X204781463Y-76464692D01*
X204803999Y-76398556D01*
X204849054Y-76359515D01*
X204857816Y-76355051D01*
X204926984Y-76304798D01*
X205029786Y-76230109D01*
X205029788Y-76230106D01*
X205029792Y-76230104D01*
X205180104Y-76079792D01*
X205180106Y-76079788D01*
X205180109Y-76079786D01*
X205305048Y-75907820D01*
X205305047Y-75907820D01*
X205305051Y-75907816D01*
X205401557Y-75718412D01*
X205467246Y-75516243D01*
X205500500Y-75306287D01*
X205500500Y-75093713D01*
X205467246Y-74883757D01*
X205401557Y-74681588D01*
X205305051Y-74492184D01*
X205305049Y-74492181D01*
X205305048Y-74492179D01*
X205180109Y-74320213D01*
X205029786Y-74169890D01*
X204857817Y-74044949D01*
X204848504Y-74040204D01*
X204797707Y-73992230D01*
X204780912Y-73924409D01*
X204803449Y-73858274D01*
X204848507Y-73819232D01*
X204857558Y-73814620D01*
X205029459Y-73689727D01*
X205029464Y-73689723D01*
X205179723Y-73539464D01*
X205179727Y-73539459D01*
X205304620Y-73367557D01*
X205401095Y-73178217D01*
X205466757Y-72976129D01*
X205466757Y-72976126D01*
X205477231Y-72910000D01*
X203933012Y-72910000D01*
X203965925Y-72852993D01*
X204000000Y-72725826D01*
X204000000Y-72594174D01*
X203965925Y-72467007D01*
X203933012Y-72410000D01*
X205477231Y-72410000D01*
X205466757Y-72343873D01*
X205466757Y-72343870D01*
X205401095Y-72141782D01*
X205304620Y-71952442D01*
X205179727Y-71780540D01*
X205179723Y-71780535D01*
X205029464Y-71630276D01*
X205029459Y-71630272D01*
X204857557Y-71505379D01*
X204668217Y-71408904D01*
X204466129Y-71343242D01*
X204256246Y-71310000D01*
X203750000Y-71310000D01*
X203750000Y-72226988D01*
X203692993Y-72194075D01*
X203565826Y-72160000D01*
X203434174Y-72160000D01*
X203307007Y-72194075D01*
X203250000Y-72226988D01*
X203250000Y-71310000D01*
X202743754Y-71310000D01*
X202533872Y-71343242D01*
X202533869Y-71343242D01*
X202331782Y-71408904D01*
X202142442Y-71505379D01*
X201970540Y-71630272D01*
X201970535Y-71630276D01*
X201820276Y-71780535D01*
X201820272Y-71780540D01*
X201695379Y-71952442D01*
X201598904Y-72141782D01*
X201533242Y-72343870D01*
X201533242Y-72343873D01*
X201522769Y-72410000D01*
X203066988Y-72410000D01*
X203034075Y-72467007D01*
X203000000Y-72594174D01*
X203000000Y-72725826D01*
X203034075Y-72852993D01*
X203066988Y-72910000D01*
X201522769Y-72910000D01*
X201533242Y-72976126D01*
X201533242Y-72976129D01*
X201598904Y-73178217D01*
X201695379Y-73367557D01*
X201820272Y-73539459D01*
X201820276Y-73539464D01*
X201970535Y-73689723D01*
X201970540Y-73689727D01*
X202142444Y-73814622D01*
X202151495Y-73819234D01*
X202202292Y-73867208D01*
X202219087Y-73935029D01*
X202196550Y-74001164D01*
X202151499Y-74040202D01*
X202142182Y-74044949D01*
X201966266Y-74172759D01*
X201965635Y-74171891D01*
X201906581Y-74198359D01*
X201889800Y-74199500D01*
X196904675Y-74199500D01*
X196904655Y-74199499D01*
X196898541Y-74199499D01*
X196701460Y-74199499D01*
X196701457Y-74199499D01*
X196508172Y-74237946D01*
X196508164Y-74237948D01*
X196326088Y-74313366D01*
X196326079Y-74313371D01*
X196162219Y-74422859D01*
X196162215Y-74422862D01*
X193121899Y-77463181D01*
X193060576Y-77496666D01*
X193034218Y-77499500D01*
X192965782Y-77499500D01*
X192898743Y-77479815D01*
X192878101Y-77463181D01*
X192484209Y-77069289D01*
X192484206Y-77069285D01*
X192484206Y-77069286D01*
X192477139Y-77062219D01*
X192477139Y-77062218D01*
X192337782Y-76922861D01*
X192337781Y-76922860D01*
X192337780Y-76922859D01*
X192173920Y-76813371D01*
X192173911Y-76813366D01*
X192101315Y-76783296D01*
X192045165Y-76760038D01*
X191991836Y-76737949D01*
X191991832Y-76737948D01*
X191991828Y-76737946D01*
X191895188Y-76718724D01*
X191798544Y-76699500D01*
X191798541Y-76699500D01*
X184575762Y-76699500D01*
X184508723Y-76679815D01*
X184502877Y-76675818D01*
X184381613Y-76587715D01*
X184381612Y-76587714D01*
X184381610Y-76587713D01*
X184324653Y-76558691D01*
X184199223Y-76494781D01*
X184004534Y-76431522D01*
X183829995Y-76403878D01*
X183802352Y-76399500D01*
X182197648Y-76399500D01*
X182173329Y-76403351D01*
X181995465Y-76431522D01*
X181800776Y-76494781D01*
X181618386Y-76587715D01*
X181452786Y-76708028D01*
X181308028Y-76852786D01*
X181187715Y-77018386D01*
X181094781Y-77200776D01*
X181031522Y-77395465D01*
X180999500Y-77597648D01*
X180999500Y-77802351D01*
X181031522Y-78004534D01*
X181094781Y-78199223D01*
X181187715Y-78381613D01*
X181308028Y-78547213D01*
X181452786Y-78691971D01*
X181607749Y-78804556D01*
X181618390Y-78812287D01*
X181734607Y-78871503D01*
X181800776Y-78905218D01*
X181800778Y-78905218D01*
X181800781Y-78905220D01*
X181905137Y-78939127D01*
X181995465Y-78968477D01*
X182096557Y-78984488D01*
X182197648Y-79000500D01*
X182197649Y-79000500D01*
X183802351Y-79000500D01*
X183802352Y-79000500D01*
X184004534Y-78968477D01*
X184199219Y-78905220D01*
X184381610Y-78812287D01*
X184502877Y-78724181D01*
X184568683Y-78700702D01*
X184575762Y-78700500D01*
X190883046Y-78700500D01*
X190950085Y-78720185D01*
X190995840Y-78772989D01*
X191005784Y-78842147D01*
X191005520Y-78843897D01*
X190999500Y-78881907D01*
X190999500Y-79118097D01*
X191036446Y-79351368D01*
X191109433Y-79575996D01*
X191130587Y-79617512D01*
X191216657Y-79786433D01*
X191355483Y-79977510D01*
X191522490Y-80144517D01*
X191713567Y-80283343D01*
X191812991Y-80334002D01*
X191924003Y-80390566D01*
X191924005Y-80390566D01*
X191924008Y-80390568D01*
X192044412Y-80429689D01*
X192148631Y-80463553D01*
X192381903Y-80500500D01*
X192381908Y-80500500D01*
X193618097Y-80500500D01*
X193851368Y-80463553D01*
X194075992Y-80390568D01*
X194286433Y-80283343D01*
X194477510Y-80144517D01*
X194644517Y-79977510D01*
X194783343Y-79786433D01*
X194890568Y-79575992D01*
X194963553Y-79351368D01*
X194984994Y-79215996D01*
X195000500Y-79118097D01*
X195000500Y-78881902D01*
X194963553Y-78648635D01*
X194963553Y-78648634D01*
X194963553Y-78648632D01*
X194938656Y-78572010D01*
X194936662Y-78502170D01*
X194968905Y-78446014D01*
X197178102Y-76236819D01*
X197239425Y-76203334D01*
X197265783Y-76200500D01*
X201889800Y-76200500D01*
X201956839Y-76220185D01*
X201969365Y-76229493D01*
X202142182Y-76355050D01*
X202150946Y-76359516D01*
X202201742Y-76407491D01*
X202218536Y-76475312D01*
X202195998Y-76541447D01*
X202150946Y-76580484D01*
X202142182Y-76584949D01*
X201970213Y-76709890D01*
X201819890Y-76860213D01*
X201694951Y-77032179D01*
X201598444Y-77221585D01*
X201532753Y-77423760D01*
X201499500Y-77633713D01*
X201499500Y-77846286D01*
X201532753Y-78056240D01*
X201532754Y-78056244D01*
X201567168Y-78162161D01*
X201569163Y-78232002D01*
X201536918Y-78288159D01*
X197861899Y-81963181D01*
X197800576Y-81996666D01*
X197774218Y-81999500D01*
X178195762Y-81999500D01*
X178128723Y-81979815D01*
X178122877Y-81975818D01*
X178103731Y-81961908D01*
X178018377Y-81899895D01*
X178001613Y-81887715D01*
X178001612Y-81887714D01*
X178001610Y-81887713D01*
X177944653Y-81858691D01*
X177819223Y-81794781D01*
X177624534Y-81731522D01*
X177449995Y-81703878D01*
X177422352Y-81699500D01*
X175817648Y-81699500D01*
X175793329Y-81703351D01*
X175615465Y-81731522D01*
X175420776Y-81794781D01*
X175238386Y-81887715D01*
X175072786Y-82008028D01*
X174928028Y-82152786D01*
X174807715Y-82318386D01*
X174714781Y-82500776D01*
X174651522Y-82695465D01*
X174619500Y-82897648D01*
X171000500Y-82897648D01*
X170986256Y-82807715D01*
X170968477Y-82695465D01*
X170919265Y-82544008D01*
X170905220Y-82500781D01*
X170905218Y-82500778D01*
X170905218Y-82500776D01*
X170836819Y-82366537D01*
X170812287Y-82318390D01*
X170802220Y-82304534D01*
X170691971Y-82152786D01*
X170547213Y-82008028D01*
X170381613Y-81887715D01*
X170381612Y-81887714D01*
X170381610Y-81887713D01*
X170324653Y-81858691D01*
X170199223Y-81794781D01*
X170004534Y-81731522D01*
X169829995Y-81703878D01*
X169802352Y-81699500D01*
X169802351Y-81699500D01*
X169782530Y-81699500D01*
X169726235Y-81685985D01*
X169575996Y-81609433D01*
X169351368Y-81536446D01*
X169118097Y-81499500D01*
X169118092Y-81499500D01*
X168965782Y-81499500D01*
X168898743Y-81479815D01*
X168878101Y-81463181D01*
X168784209Y-81369289D01*
X168784206Y-81369285D01*
X168784206Y-81369286D01*
X168777139Y-81362219D01*
X168777139Y-81362218D01*
X168637782Y-81222861D01*
X168637781Y-81222860D01*
X168637780Y-81222859D01*
X168473920Y-81113371D01*
X168473911Y-81113366D01*
X168401315Y-81083296D01*
X168345165Y-81060038D01*
X168291836Y-81037949D01*
X168291832Y-81037948D01*
X168291828Y-81037946D01*
X168195188Y-81018724D01*
X168098544Y-80999500D01*
X168098541Y-80999500D01*
X165075762Y-80999500D01*
X165008723Y-80979815D01*
X165002877Y-80975818D01*
X164881613Y-80887715D01*
X164881612Y-80887714D01*
X164881610Y-80887713D01*
X164824653Y-80858691D01*
X164699223Y-80794781D01*
X164538106Y-80742431D01*
X164480431Y-80702993D01*
X164453233Y-80638634D01*
X164465148Y-80569788D01*
X164512392Y-80518312D01*
X164576425Y-80500500D01*
X174118097Y-80500500D01*
X174351368Y-80463553D01*
X174575992Y-80390568D01*
X174786434Y-80283343D01*
X174977510Y-80144517D01*
X175504517Y-79617510D01*
X175643343Y-79426433D01*
X175750568Y-79215992D01*
X175823553Y-78991368D01*
X175827179Y-78968477D01*
X175860500Y-78758097D01*
X175860500Y-75881902D01*
X175823553Y-75648631D01*
X175809605Y-75605705D01*
X175750568Y-75424008D01*
X175709720Y-75343840D01*
X175674014Y-75273761D01*
X175660499Y-75217466D01*
X175660499Y-75152129D01*
X175660498Y-75152123D01*
X175654091Y-75092516D01*
X175603797Y-74957671D01*
X175603793Y-74957664D01*
X175517547Y-74842455D01*
X175517544Y-74842452D01*
X175402335Y-74756206D01*
X175402328Y-74756202D01*
X175267482Y-74705908D01*
X175267483Y-74705908D01*
X175207883Y-74699501D01*
X175207881Y-74699500D01*
X175207873Y-74699500D01*
X175207865Y-74699500D01*
X175142530Y-74699500D01*
X175086235Y-74685985D01*
X175072687Y-74679082D01*
X175062644Y-74673965D01*
X174935996Y-74609433D01*
X174711368Y-74536446D01*
X174478097Y-74499500D01*
X174478092Y-74499500D01*
X174241908Y-74499500D01*
X174241903Y-74499500D01*
X174008630Y-74536447D01*
X174008627Y-74536447D01*
X173784011Y-74609430D01*
X173784010Y-74609430D01*
X173633761Y-74685985D01*
X173577469Y-74699500D01*
X173512130Y-74699500D01*
X173512123Y-74699501D01*
X173457753Y-74705346D01*
X173388994Y-74692939D01*
X173337857Y-74645328D01*
X173320500Y-74582056D01*
X173320500Y-72450000D01*
X181023391Y-72450000D01*
X182684314Y-72450000D01*
X182679920Y-72454394D01*
X182627259Y-72545606D01*
X182600000Y-72647339D01*
X182600000Y-72752661D01*
X182627259Y-72854394D01*
X182679920Y-72945606D01*
X182684314Y-72950000D01*
X181023391Y-72950000D01*
X181032009Y-73004413D01*
X181095244Y-73199029D01*
X181188140Y-73381349D01*
X181308417Y-73546894D01*
X181308417Y-73546895D01*
X181453104Y-73691582D01*
X181618650Y-73811859D01*
X181800968Y-73904755D01*
X181995582Y-73967990D01*
X182197683Y-74000000D01*
X182750000Y-74000000D01*
X182750000Y-73015686D01*
X182754394Y-73020080D01*
X182845606Y-73072741D01*
X182947339Y-73100000D01*
X183052661Y-73100000D01*
X183154394Y-73072741D01*
X183245606Y-73020080D01*
X183250000Y-73015686D01*
X183250000Y-74000000D01*
X183802317Y-74000000D01*
X184004417Y-73967990D01*
X184199031Y-73904755D01*
X184381349Y-73811859D01*
X184546894Y-73691582D01*
X184546895Y-73691582D01*
X184691582Y-73546895D01*
X184691582Y-73546894D01*
X184811859Y-73381349D01*
X184904755Y-73199029D01*
X184967990Y-73004413D01*
X184976609Y-72950000D01*
X183315686Y-72950000D01*
X183320080Y-72945606D01*
X183372741Y-72854394D01*
X183400000Y-72752661D01*
X183400000Y-72647339D01*
X183372741Y-72545606D01*
X183320080Y-72454394D01*
X183315686Y-72450000D01*
X184976609Y-72450000D01*
X184967990Y-72395586D01*
X184904755Y-72200970D01*
X184811859Y-72018650D01*
X184691582Y-71853105D01*
X184691582Y-71853104D01*
X184546895Y-71708417D01*
X184533873Y-71698956D01*
X184381349Y-71588140D01*
X184199031Y-71495244D01*
X184004417Y-71432009D01*
X183802317Y-71400000D01*
X183250000Y-71400000D01*
X183250000Y-72384314D01*
X183245606Y-72379920D01*
X183154394Y-72327259D01*
X183052661Y-72300000D01*
X182947339Y-72300000D01*
X182845606Y-72327259D01*
X182754394Y-72379920D01*
X182750000Y-72384314D01*
X182750000Y-71400000D01*
X182197683Y-71400000D01*
X181995582Y-71432009D01*
X181800968Y-71495244D01*
X181618650Y-71588140D01*
X181453105Y-71708417D01*
X181453104Y-71708417D01*
X181308417Y-71853104D01*
X181308417Y-71853105D01*
X181188140Y-72018650D01*
X181095244Y-72200970D01*
X181032009Y-72395586D01*
X181023391Y-72450000D01*
X173320500Y-72450000D01*
X173320500Y-71881902D01*
X173283553Y-71648631D01*
X173246331Y-71534075D01*
X173210568Y-71424008D01*
X173134015Y-71273763D01*
X173120500Y-71217468D01*
X173120500Y-71197648D01*
X173088477Y-70995465D01*
X173057458Y-70900000D01*
X173025220Y-70800781D01*
X173015624Y-70781947D01*
X191500000Y-70781947D01*
X191500000Y-71150000D01*
X192566988Y-71150000D01*
X192534075Y-71207007D01*
X192500000Y-71334174D01*
X192500000Y-71465826D01*
X192534075Y-71592993D01*
X192566988Y-71650000D01*
X191500000Y-71650000D01*
X191500000Y-72018052D01*
X191536934Y-72251247D01*
X191609897Y-72475802D01*
X191717085Y-72686171D01*
X191855866Y-72877186D01*
X192022813Y-73044133D01*
X192213828Y-73182914D01*
X192424195Y-73290102D01*
X192648744Y-73363063D01*
X192648750Y-73363065D01*
X192750000Y-73379101D01*
X192750000Y-71833012D01*
X192807007Y-71865925D01*
X192934174Y-71900000D01*
X193065826Y-71900000D01*
X193192993Y-71865925D01*
X193250000Y-71833012D01*
X193250000Y-73379100D01*
X193351249Y-73363065D01*
X193351255Y-73363063D01*
X193575804Y-73290102D01*
X193786171Y-73182914D01*
X193977186Y-73044133D01*
X194144133Y-72877186D01*
X194282914Y-72686171D01*
X194390102Y-72475802D01*
X194411891Y-72408746D01*
X194463065Y-72251247D01*
X194500000Y-72018052D01*
X194500000Y-71650000D01*
X193433012Y-71650000D01*
X193465925Y-71592993D01*
X193500000Y-71465826D01*
X193500000Y-71334174D01*
X193465925Y-71207007D01*
X193433012Y-71150000D01*
X194500000Y-71150000D01*
X194500000Y-70781947D01*
X194463065Y-70548752D01*
X194390102Y-70324197D01*
X194282914Y-70113828D01*
X194144133Y-69922813D01*
X193977186Y-69755866D01*
X193786171Y-69617085D01*
X193575802Y-69509897D01*
X193351247Y-69436934D01*
X193250000Y-69420897D01*
X193250000Y-70966988D01*
X193192993Y-70934075D01*
X193065826Y-70900000D01*
X192934174Y-70900000D01*
X192807007Y-70934075D01*
X192750000Y-70966988D01*
X192750000Y-69420897D01*
X192648752Y-69436934D01*
X192424197Y-69509897D01*
X192213828Y-69617085D01*
X192022813Y-69755866D01*
X191855866Y-69922813D01*
X191717085Y-70113828D01*
X191609897Y-70324197D01*
X191536934Y-70548752D01*
X191500000Y-70781947D01*
X173015624Y-70781947D01*
X172932287Y-70618390D01*
X172924556Y-70607749D01*
X172811971Y-70452786D01*
X172667213Y-70308028D01*
X172501613Y-70187715D01*
X172501612Y-70187714D01*
X172501610Y-70187713D01*
X172444653Y-70158691D01*
X172319223Y-70094781D01*
X172124534Y-70031522D01*
X171949995Y-70003878D01*
X171922352Y-69999500D01*
X171717648Y-69999500D01*
X171693329Y-70003351D01*
X171515465Y-70031522D01*
X171320776Y-70094781D01*
X171138386Y-70187715D01*
X170972786Y-70308028D01*
X170828028Y-70452786D01*
X170707713Y-70618388D01*
X170675804Y-70681013D01*
X170627830Y-70731808D01*
X170560009Y-70748603D01*
X170493874Y-70726065D01*
X170454835Y-70681012D01*
X170439797Y-70651499D01*
X170435051Y-70642184D01*
X170417761Y-70618386D01*
X170310109Y-70470213D01*
X170159786Y-70319890D01*
X169987820Y-70194951D01*
X169798414Y-70098444D01*
X169798413Y-70098443D01*
X169798412Y-70098443D01*
X169596243Y-70032754D01*
X169596241Y-70032753D01*
X169596240Y-70032753D01*
X169434957Y-70007208D01*
X169386287Y-69999500D01*
X169173713Y-69999500D01*
X169125042Y-70007208D01*
X168963760Y-70032753D01*
X168761585Y-70098444D01*
X168572179Y-70194951D01*
X168400213Y-70319890D01*
X168249890Y-70470213D01*
X168124949Y-70642182D01*
X168120484Y-70650946D01*
X168072509Y-70701742D01*
X168004688Y-70718536D01*
X167938553Y-70695998D01*
X167899516Y-70650946D01*
X167895050Y-70642182D01*
X167770109Y-70470213D01*
X167619786Y-70319890D01*
X167447820Y-70194951D01*
X167258414Y-70098444D01*
X167258413Y-70098443D01*
X167258412Y-70098443D01*
X167056243Y-70032754D01*
X167056241Y-70032753D01*
X167056240Y-70032753D01*
X166894957Y-70007208D01*
X166846287Y-69999500D01*
X166633713Y-69999500D01*
X166585042Y-70007208D01*
X166423760Y-70032753D01*
X166221585Y-70098444D01*
X166032179Y-70194951D01*
X165860213Y-70319890D01*
X165709890Y-70470213D01*
X165584949Y-70642182D01*
X165580484Y-70650946D01*
X165532509Y-70701742D01*
X165464688Y-70718536D01*
X165398553Y-70695998D01*
X165359516Y-70650946D01*
X165355050Y-70642182D01*
X165230109Y-70470213D01*
X165079786Y-70319890D01*
X164907820Y-70194951D01*
X164718414Y-70098444D01*
X164718413Y-70098443D01*
X164718412Y-70098443D01*
X164516243Y-70032754D01*
X164516241Y-70032753D01*
X164516240Y-70032753D01*
X164354957Y-70007208D01*
X164306287Y-69999500D01*
X164093713Y-69999500D01*
X164045042Y-70007208D01*
X163883760Y-70032753D01*
X163681585Y-70098444D01*
X163492179Y-70194951D01*
X163320213Y-70319890D01*
X163169890Y-70470213D01*
X163044949Y-70642182D01*
X163040484Y-70650946D01*
X162992509Y-70701742D01*
X162924688Y-70718536D01*
X162858553Y-70695998D01*
X162819516Y-70650946D01*
X162815050Y-70642182D01*
X162690109Y-70470213D01*
X162539786Y-70319890D01*
X162367820Y-70194951D01*
X162178414Y-70098444D01*
X162178413Y-70098443D01*
X162178412Y-70098443D01*
X161976243Y-70032754D01*
X161976241Y-70032753D01*
X161976240Y-70032753D01*
X161814957Y-70007208D01*
X161766287Y-69999500D01*
X161553713Y-69999500D01*
X161505042Y-70007208D01*
X161343760Y-70032753D01*
X161141585Y-70098444D01*
X160952179Y-70194951D01*
X160780213Y-70319890D01*
X160629890Y-70470213D01*
X160504949Y-70642182D01*
X160500484Y-70650946D01*
X160452509Y-70701742D01*
X160384688Y-70718536D01*
X160318553Y-70695998D01*
X160279516Y-70650946D01*
X160275050Y-70642182D01*
X160150109Y-70470213D01*
X159999786Y-70319890D01*
X159827820Y-70194951D01*
X159638414Y-70098444D01*
X159638413Y-70098443D01*
X159638412Y-70098443D01*
X159436243Y-70032754D01*
X159436241Y-70032753D01*
X159436240Y-70032753D01*
X159274957Y-70007208D01*
X159226287Y-69999500D01*
X159013713Y-69999500D01*
X158965042Y-70007208D01*
X158803760Y-70032753D01*
X158601585Y-70098444D01*
X158412179Y-70194951D01*
X158240213Y-70319890D01*
X158089890Y-70470213D01*
X157964949Y-70642182D01*
X157960484Y-70650946D01*
X157912509Y-70701742D01*
X157844688Y-70718536D01*
X157778553Y-70695998D01*
X157739516Y-70650946D01*
X157735050Y-70642182D01*
X157610109Y-70470213D01*
X157459786Y-70319890D01*
X157287820Y-70194951D01*
X157098414Y-70098444D01*
X157098413Y-70098443D01*
X157098412Y-70098443D01*
X156896243Y-70032754D01*
X156896241Y-70032753D01*
X156896240Y-70032753D01*
X156734957Y-70007208D01*
X156686287Y-69999500D01*
X156473713Y-69999500D01*
X156425042Y-70007208D01*
X156263760Y-70032753D01*
X156061585Y-70098444D01*
X155872179Y-70194951D01*
X155700213Y-70319890D01*
X155549890Y-70470213D01*
X155424949Y-70642182D01*
X155420484Y-70650946D01*
X155372509Y-70701742D01*
X155304688Y-70718536D01*
X155238553Y-70695998D01*
X155199516Y-70650946D01*
X155195050Y-70642182D01*
X155070109Y-70470213D01*
X154919786Y-70319890D01*
X154747820Y-70194951D01*
X154558414Y-70098444D01*
X154558413Y-70098443D01*
X154558412Y-70098443D01*
X154356243Y-70032754D01*
X154356241Y-70032753D01*
X154356240Y-70032753D01*
X154194957Y-70007208D01*
X154146287Y-69999500D01*
X153933713Y-69999500D01*
X153885042Y-70007208D01*
X153723760Y-70032753D01*
X153521585Y-70098444D01*
X153332179Y-70194951D01*
X153160213Y-70319890D01*
X153009890Y-70470213D01*
X152884949Y-70642182D01*
X152880484Y-70650946D01*
X152832509Y-70701742D01*
X152764688Y-70718536D01*
X152698553Y-70695998D01*
X152659516Y-70650946D01*
X152655050Y-70642182D01*
X152530109Y-70470213D01*
X152379786Y-70319890D01*
X152207820Y-70194951D01*
X152018414Y-70098444D01*
X152018413Y-70098443D01*
X152018412Y-70098443D01*
X151816243Y-70032754D01*
X151816241Y-70032753D01*
X151816240Y-70032753D01*
X151654957Y-70007208D01*
X151606287Y-69999500D01*
X151393713Y-69999500D01*
X151345042Y-70007208D01*
X151183760Y-70032753D01*
X150981585Y-70098444D01*
X150792179Y-70194951D01*
X150620213Y-70319890D01*
X150469890Y-70470213D01*
X150344949Y-70642182D01*
X150340484Y-70650946D01*
X150292509Y-70701742D01*
X150224688Y-70718536D01*
X150158553Y-70695998D01*
X150119516Y-70650946D01*
X150115050Y-70642182D01*
X149990109Y-70470213D01*
X149839786Y-70319890D01*
X149667820Y-70194951D01*
X149478414Y-70098444D01*
X149478413Y-70098443D01*
X149478412Y-70098443D01*
X149276243Y-70032754D01*
X149276241Y-70032753D01*
X149276240Y-70032753D01*
X149114957Y-70007208D01*
X149066287Y-69999500D01*
X148853713Y-69999500D01*
X148805042Y-70007208D01*
X148643760Y-70032753D01*
X148441585Y-70098444D01*
X148252179Y-70194951D01*
X148080213Y-70319890D01*
X147929890Y-70470213D01*
X147804951Y-70642179D01*
X147708444Y-70831585D01*
X147642753Y-71033760D01*
X147609500Y-71243713D01*
X147609500Y-71315599D01*
X147595985Y-71371893D01*
X147569434Y-71424000D01*
X147496446Y-71648631D01*
X147459500Y-71881902D01*
X147459500Y-76118097D01*
X147496446Y-76351368D01*
X147569433Y-76575996D01*
X147675081Y-76783340D01*
X147676657Y-76786433D01*
X147815483Y-76977510D01*
X147982490Y-77144517D01*
X148162335Y-77275183D01*
X148205000Y-77330512D01*
X148210979Y-77400126D01*
X148178373Y-77461920D01*
X148117534Y-77496278D01*
X148089449Y-77499500D01*
X114744500Y-77499500D01*
X114677461Y-77479815D01*
X114631706Y-77427011D01*
X114620500Y-77375500D01*
X114620500Y-71881902D01*
X117959500Y-71881902D01*
X117959500Y-75618097D01*
X117996446Y-75851368D01*
X118069433Y-76075996D01*
X118151377Y-76236819D01*
X118176657Y-76286433D01*
X118315483Y-76477510D01*
X118482490Y-76644517D01*
X118673567Y-76783343D01*
X118772991Y-76834002D01*
X118884003Y-76890566D01*
X118884005Y-76890566D01*
X118884008Y-76890568D01*
X118995620Y-76926833D01*
X119108631Y-76963553D01*
X119341903Y-77000500D01*
X119341908Y-77000500D01*
X119578097Y-77000500D01*
X119811368Y-76963553D01*
X119875014Y-76942873D01*
X120035992Y-76890568D01*
X120246433Y-76783343D01*
X120437510Y-76644517D01*
X120604517Y-76477510D01*
X120629682Y-76442872D01*
X120685011Y-76400207D01*
X120754625Y-76394228D01*
X120816420Y-76426833D01*
X120830315Y-76442870D01*
X120855483Y-76477510D01*
X121022490Y-76644517D01*
X121213567Y-76783343D01*
X121312991Y-76834002D01*
X121424003Y-76890566D01*
X121424005Y-76890566D01*
X121424008Y-76890568D01*
X121535620Y-76926833D01*
X121648631Y-76963553D01*
X121881903Y-77000500D01*
X121881908Y-77000500D01*
X122118097Y-77000500D01*
X122351368Y-76963553D01*
X122415014Y-76942873D01*
X122575992Y-76890568D01*
X122786433Y-76783343D01*
X122977510Y-76644517D01*
X123144517Y-76477510D01*
X123169682Y-76442872D01*
X123225011Y-76400207D01*
X123294625Y-76394228D01*
X123356420Y-76426833D01*
X123370315Y-76442870D01*
X123395483Y-76477510D01*
X123562490Y-76644517D01*
X123753567Y-76783343D01*
X123852991Y-76834002D01*
X123964003Y-76890566D01*
X123964005Y-76890566D01*
X123964008Y-76890568D01*
X124075620Y-76926833D01*
X124188631Y-76963553D01*
X124421903Y-77000500D01*
X124421908Y-77000500D01*
X124658097Y-77000500D01*
X124891368Y-76963553D01*
X124955014Y-76942873D01*
X125115992Y-76890568D01*
X125326433Y-76783343D01*
X125517510Y-76644517D01*
X125684517Y-76477510D01*
X125709682Y-76442872D01*
X125765011Y-76400207D01*
X125834625Y-76394228D01*
X125896420Y-76426833D01*
X125910315Y-76442870D01*
X125935483Y-76477510D01*
X126102490Y-76644517D01*
X126293567Y-76783343D01*
X126392991Y-76834002D01*
X126504003Y-76890566D01*
X126504005Y-76890566D01*
X126504008Y-76890568D01*
X126615620Y-76926833D01*
X126728631Y-76963553D01*
X126961903Y-77000500D01*
X126961908Y-77000500D01*
X127198097Y-77000500D01*
X127431368Y-76963553D01*
X127495014Y-76942873D01*
X127655992Y-76890568D01*
X127866433Y-76783343D01*
X128057510Y-76644517D01*
X128224517Y-76477510D01*
X128249682Y-76442872D01*
X128305011Y-76400207D01*
X128374625Y-76394228D01*
X128436420Y-76426833D01*
X128450315Y-76442870D01*
X128475483Y-76477510D01*
X128642490Y-76644517D01*
X128833567Y-76783343D01*
X128932991Y-76834002D01*
X129044003Y-76890566D01*
X129044005Y-76890566D01*
X129044008Y-76890568D01*
X129155620Y-76926833D01*
X129268631Y-76963553D01*
X129501903Y-77000500D01*
X129501908Y-77000500D01*
X129738097Y-77000500D01*
X129971368Y-76963553D01*
X130035014Y-76942873D01*
X130195992Y-76890568D01*
X130406433Y-76783343D01*
X130597510Y-76644517D01*
X130764517Y-76477510D01*
X130789682Y-76442872D01*
X130845011Y-76400207D01*
X130914625Y-76394228D01*
X130976420Y-76426833D01*
X130990315Y-76442870D01*
X131015483Y-76477510D01*
X131182490Y-76644517D01*
X131373567Y-76783343D01*
X131472991Y-76834002D01*
X131584003Y-76890566D01*
X131584005Y-76890566D01*
X131584008Y-76890568D01*
X131695620Y-76926833D01*
X131808631Y-76963553D01*
X132041903Y-77000500D01*
X132041908Y-77000500D01*
X132278097Y-77000500D01*
X132511368Y-76963553D01*
X132575014Y-76942873D01*
X132735992Y-76890568D01*
X132946433Y-76783343D01*
X133137510Y-76644517D01*
X133304517Y-76477510D01*
X133329682Y-76442872D01*
X133385011Y-76400207D01*
X133454625Y-76394228D01*
X133516420Y-76426833D01*
X133530315Y-76442870D01*
X133555483Y-76477510D01*
X133722490Y-76644517D01*
X133913567Y-76783343D01*
X134012991Y-76834002D01*
X134124003Y-76890566D01*
X134124005Y-76890566D01*
X134124008Y-76890568D01*
X134235620Y-76926833D01*
X134348631Y-76963553D01*
X134581903Y-77000500D01*
X134581908Y-77000500D01*
X134818097Y-77000500D01*
X135051368Y-76963553D01*
X135115014Y-76942873D01*
X135275992Y-76890568D01*
X135486433Y-76783343D01*
X135677510Y-76644517D01*
X135844517Y-76477510D01*
X135869682Y-76442872D01*
X135925011Y-76400207D01*
X135994625Y-76394228D01*
X136056420Y-76426833D01*
X136070315Y-76442870D01*
X136095483Y-76477510D01*
X136262490Y-76644517D01*
X136453567Y-76783343D01*
X136552991Y-76834002D01*
X136664003Y-76890566D01*
X136664005Y-76890566D01*
X136664008Y-76890568D01*
X136775620Y-76926833D01*
X136888631Y-76963553D01*
X137121903Y-77000500D01*
X137121908Y-77000500D01*
X137358097Y-77000500D01*
X137591368Y-76963553D01*
X137655014Y-76942873D01*
X137815992Y-76890568D01*
X138026433Y-76783343D01*
X138217510Y-76644517D01*
X138384517Y-76477510D01*
X138409682Y-76442872D01*
X138465011Y-76400207D01*
X138534625Y-76394228D01*
X138596420Y-76426833D01*
X138610315Y-76442870D01*
X138635483Y-76477510D01*
X138802490Y-76644517D01*
X138993567Y-76783343D01*
X139092991Y-76834002D01*
X139204003Y-76890566D01*
X139204005Y-76890566D01*
X139204008Y-76890568D01*
X139315620Y-76926833D01*
X139428631Y-76963553D01*
X139661903Y-77000500D01*
X139661908Y-77000500D01*
X139898097Y-77000500D01*
X140131368Y-76963553D01*
X140195014Y-76942873D01*
X140355992Y-76890568D01*
X140566433Y-76783343D01*
X140757510Y-76644517D01*
X140924517Y-76477510D01*
X140938762Y-76457903D01*
X140994088Y-76415237D01*
X141063702Y-76409256D01*
X141125498Y-76441860D01*
X141144616Y-76465687D01*
X141177288Y-76518656D01*
X141301344Y-76642712D01*
X141410267Y-76709896D01*
X141450668Y-76734815D01*
X141450672Y-76734816D01*
X141461984Y-76738565D01*
X141495867Y-76755953D01*
X141529808Y-76780612D01*
X141533567Y-76783343D01*
X141667659Y-76851666D01*
X141744003Y-76890566D01*
X141744005Y-76890566D01*
X141744008Y-76890568D01*
X141855620Y-76926833D01*
X141968631Y-76963553D01*
X142201903Y-77000500D01*
X142201908Y-77000500D01*
X142438097Y-77000500D01*
X142671368Y-76963553D01*
X142735014Y-76942873D01*
X142895992Y-76890568D01*
X143106433Y-76783343D01*
X143144131Y-76755952D01*
X143178016Y-76738564D01*
X143179875Y-76737948D01*
X143189334Y-76734814D01*
X143338656Y-76642712D01*
X143462712Y-76518656D01*
X143554814Y-76369334D01*
X143558564Y-76358015D01*
X143575952Y-76324131D01*
X143603343Y-76286433D01*
X143710568Y-76075992D01*
X143783553Y-75851368D01*
X143812602Y-75667960D01*
X143820500Y-75618097D01*
X143820500Y-71881902D01*
X143783553Y-71648631D01*
X143733714Y-71495244D01*
X143710568Y-71424008D01*
X143710566Y-71424005D01*
X143710565Y-71424000D01*
X143684015Y-71371893D01*
X143670500Y-71315599D01*
X143670500Y-71243713D01*
X143637264Y-71033872D01*
X143637246Y-71033757D01*
X143571557Y-70831588D01*
X143475051Y-70642184D01*
X143475049Y-70642181D01*
X143475048Y-70642179D01*
X143350109Y-70470213D01*
X143199786Y-70319890D01*
X143027820Y-70194951D01*
X142838414Y-70098444D01*
X142838413Y-70098443D01*
X142838412Y-70098443D01*
X142636243Y-70032754D01*
X142636241Y-70032753D01*
X142636240Y-70032753D01*
X142474957Y-70007208D01*
X142426287Y-69999500D01*
X142213713Y-69999500D01*
X142165042Y-70007208D01*
X142003760Y-70032753D01*
X141801585Y-70098444D01*
X141612179Y-70194951D01*
X141440213Y-70319890D01*
X141289890Y-70470213D01*
X141164949Y-70642182D01*
X141160484Y-70650946D01*
X141112509Y-70701742D01*
X141044688Y-70718536D01*
X140978553Y-70695998D01*
X140939516Y-70650946D01*
X140935050Y-70642182D01*
X140810109Y-70470213D01*
X140659786Y-70319890D01*
X140487820Y-70194951D01*
X140298414Y-70098444D01*
X140298413Y-70098443D01*
X140298412Y-70098443D01*
X140096243Y-70032754D01*
X140096241Y-70032753D01*
X140096240Y-70032753D01*
X139934957Y-70007208D01*
X139886287Y-69999500D01*
X139673713Y-69999500D01*
X139625042Y-70007208D01*
X139463760Y-70032753D01*
X139261585Y-70098444D01*
X139072179Y-70194951D01*
X138900213Y-70319890D01*
X138749890Y-70470213D01*
X138624949Y-70642182D01*
X138620484Y-70650946D01*
X138572509Y-70701742D01*
X138504688Y-70718536D01*
X138438553Y-70695998D01*
X138399516Y-70650946D01*
X138395050Y-70642182D01*
X138270109Y-70470213D01*
X138119786Y-70319890D01*
X137947820Y-70194951D01*
X137758414Y-70098444D01*
X137758413Y-70098443D01*
X137758412Y-70098443D01*
X137556243Y-70032754D01*
X137556241Y-70032753D01*
X137556240Y-70032753D01*
X137394957Y-70007208D01*
X137346287Y-69999500D01*
X137133713Y-69999500D01*
X137085042Y-70007208D01*
X136923760Y-70032753D01*
X136721585Y-70098444D01*
X136532179Y-70194951D01*
X136360213Y-70319890D01*
X136209890Y-70470213D01*
X136084949Y-70642182D01*
X136080484Y-70650946D01*
X136032509Y-70701742D01*
X135964688Y-70718536D01*
X135898553Y-70695998D01*
X135859516Y-70650946D01*
X135855050Y-70642182D01*
X135730109Y-70470213D01*
X135579786Y-70319890D01*
X135407820Y-70194951D01*
X135218414Y-70098444D01*
X135218413Y-70098443D01*
X135218412Y-70098443D01*
X135016243Y-70032754D01*
X135016241Y-70032753D01*
X135016240Y-70032753D01*
X134854957Y-70007208D01*
X134806287Y-69999500D01*
X134593713Y-69999500D01*
X134545042Y-70007208D01*
X134383760Y-70032753D01*
X134181585Y-70098444D01*
X133992179Y-70194951D01*
X133820213Y-70319890D01*
X133669890Y-70470213D01*
X133544949Y-70642182D01*
X133540484Y-70650946D01*
X133492509Y-70701742D01*
X133424688Y-70718536D01*
X133358553Y-70695998D01*
X133319516Y-70650946D01*
X133315050Y-70642182D01*
X133190109Y-70470213D01*
X133039786Y-70319890D01*
X132867820Y-70194951D01*
X132678414Y-70098444D01*
X132678413Y-70098443D01*
X132678412Y-70098443D01*
X132476243Y-70032754D01*
X132476241Y-70032753D01*
X132476240Y-70032753D01*
X132314957Y-70007208D01*
X132266287Y-69999500D01*
X132053713Y-69999500D01*
X132005042Y-70007208D01*
X131843760Y-70032753D01*
X131641585Y-70098444D01*
X131452179Y-70194951D01*
X131280213Y-70319890D01*
X131129890Y-70470213D01*
X131004949Y-70642182D01*
X131000484Y-70650946D01*
X130952509Y-70701742D01*
X130884688Y-70718536D01*
X130818553Y-70695998D01*
X130779516Y-70650946D01*
X130775050Y-70642182D01*
X130650109Y-70470213D01*
X130499786Y-70319890D01*
X130327820Y-70194951D01*
X130138414Y-70098444D01*
X130138413Y-70098443D01*
X130138412Y-70098443D01*
X129936243Y-70032754D01*
X129936241Y-70032753D01*
X129936240Y-70032753D01*
X129774957Y-70007208D01*
X129726287Y-69999500D01*
X129513713Y-69999500D01*
X129465042Y-70007208D01*
X129303760Y-70032753D01*
X129101585Y-70098444D01*
X128912179Y-70194951D01*
X128740213Y-70319890D01*
X128589890Y-70470213D01*
X128464949Y-70642182D01*
X128460484Y-70650946D01*
X128412509Y-70701742D01*
X128344688Y-70718536D01*
X128278553Y-70695998D01*
X128239516Y-70650946D01*
X128235050Y-70642182D01*
X128110109Y-70470213D01*
X127959786Y-70319890D01*
X127787820Y-70194951D01*
X127598414Y-70098444D01*
X127598413Y-70098443D01*
X127598412Y-70098443D01*
X127396243Y-70032754D01*
X127396241Y-70032753D01*
X127396240Y-70032753D01*
X127234957Y-70007208D01*
X127186287Y-69999500D01*
X126973713Y-69999500D01*
X126925042Y-70007208D01*
X126763760Y-70032753D01*
X126561585Y-70098444D01*
X126372179Y-70194951D01*
X126200213Y-70319890D01*
X126049890Y-70470213D01*
X125924949Y-70642182D01*
X125920484Y-70650946D01*
X125872509Y-70701742D01*
X125804688Y-70718536D01*
X125738553Y-70695998D01*
X125699516Y-70650946D01*
X125695050Y-70642182D01*
X125570109Y-70470213D01*
X125419786Y-70319890D01*
X125247820Y-70194951D01*
X125058414Y-70098444D01*
X125058413Y-70098443D01*
X125058412Y-70098443D01*
X124856243Y-70032754D01*
X124856241Y-70032753D01*
X124856240Y-70032753D01*
X124694957Y-70007208D01*
X124646287Y-69999500D01*
X124433713Y-69999500D01*
X124385042Y-70007208D01*
X124223760Y-70032753D01*
X124021585Y-70098444D01*
X123832179Y-70194951D01*
X123660213Y-70319890D01*
X123509890Y-70470213D01*
X123384949Y-70642182D01*
X123380484Y-70650946D01*
X123332509Y-70701742D01*
X123264688Y-70718536D01*
X123198553Y-70695998D01*
X123159516Y-70650946D01*
X123155050Y-70642182D01*
X123030109Y-70470213D01*
X122879786Y-70319890D01*
X122707820Y-70194951D01*
X122518414Y-70098444D01*
X122518413Y-70098443D01*
X122518412Y-70098443D01*
X122316243Y-70032754D01*
X122316241Y-70032753D01*
X122316240Y-70032753D01*
X122154957Y-70007208D01*
X122106287Y-69999500D01*
X121893713Y-69999500D01*
X121845042Y-70007208D01*
X121683760Y-70032753D01*
X121481585Y-70098444D01*
X121292179Y-70194951D01*
X121120213Y-70319890D01*
X120969890Y-70470213D01*
X120844949Y-70642182D01*
X120840484Y-70650946D01*
X120792509Y-70701742D01*
X120724688Y-70718536D01*
X120658553Y-70695998D01*
X120619516Y-70650946D01*
X120615050Y-70642182D01*
X120490109Y-70470213D01*
X120339786Y-70319890D01*
X120167820Y-70194951D01*
X119978414Y-70098444D01*
X119978413Y-70098443D01*
X119978412Y-70098443D01*
X119776243Y-70032754D01*
X119776241Y-70032753D01*
X119776240Y-70032753D01*
X119614957Y-70007208D01*
X119566287Y-69999500D01*
X119353713Y-69999500D01*
X119305042Y-70007208D01*
X119143760Y-70032753D01*
X118941585Y-70098444D01*
X118752179Y-70194951D01*
X118580213Y-70319890D01*
X118429890Y-70470213D01*
X118304951Y-70642179D01*
X118208444Y-70831585D01*
X118142753Y-71033760D01*
X118109500Y-71243713D01*
X118109500Y-71315599D01*
X118095985Y-71371893D01*
X118069434Y-71424000D01*
X117996446Y-71648631D01*
X117959500Y-71881902D01*
X114620500Y-71881902D01*
X114583553Y-71648631D01*
X114533714Y-71495244D01*
X114510568Y-71424008D01*
X114510566Y-71424005D01*
X114510565Y-71424000D01*
X114484015Y-71371893D01*
X114470500Y-71315599D01*
X114470500Y-71243713D01*
X114437264Y-71033872D01*
X114437246Y-71033757D01*
X114371557Y-70831588D01*
X114275051Y-70642184D01*
X114275049Y-70642181D01*
X114275048Y-70642179D01*
X114150109Y-70470213D01*
X113999786Y-70319890D01*
X113827820Y-70194951D01*
X113638414Y-70098444D01*
X113638413Y-70098443D01*
X113638412Y-70098443D01*
X113436243Y-70032754D01*
X113436241Y-70032753D01*
X113436240Y-70032753D01*
X113274957Y-70007208D01*
X113226287Y-69999500D01*
X113013713Y-69999500D01*
X112965042Y-70007208D01*
X112803760Y-70032753D01*
X112601585Y-70098444D01*
X112412179Y-70194951D01*
X112240213Y-70319890D01*
X112089890Y-70470213D01*
X111964949Y-70642182D01*
X111960484Y-70650946D01*
X111912509Y-70701742D01*
X111844688Y-70718536D01*
X111778553Y-70695998D01*
X111739516Y-70650946D01*
X111735050Y-70642182D01*
X111610109Y-70470213D01*
X111459786Y-70319890D01*
X111287820Y-70194951D01*
X111098414Y-70098444D01*
X111098413Y-70098443D01*
X111098412Y-70098443D01*
X110896243Y-70032754D01*
X110896241Y-70032753D01*
X110896240Y-70032753D01*
X110734957Y-70007208D01*
X110686287Y-69999500D01*
X110473713Y-69999500D01*
X110425042Y-70007208D01*
X110263760Y-70032753D01*
X110061585Y-70098444D01*
X109872179Y-70194951D01*
X109700213Y-70319890D01*
X109549890Y-70470213D01*
X109424949Y-70642182D01*
X109420202Y-70651499D01*
X109372227Y-70702293D01*
X109304405Y-70719087D01*
X109238271Y-70696548D01*
X109199234Y-70651495D01*
X109194622Y-70642444D01*
X109069727Y-70470540D01*
X109069723Y-70470535D01*
X108919464Y-70320276D01*
X108919459Y-70320272D01*
X108747557Y-70195379D01*
X108558215Y-70098903D01*
X108356124Y-70033241D01*
X108290000Y-70022768D01*
X108290000Y-71566988D01*
X108232993Y-71534075D01*
X108105826Y-71500000D01*
X107974174Y-71500000D01*
X107847007Y-71534075D01*
X107790000Y-71566988D01*
X107790000Y-70022768D01*
X107789999Y-70022768D01*
X107723875Y-70033241D01*
X107521784Y-70098903D01*
X107332442Y-70195379D01*
X107160540Y-70320272D01*
X107160535Y-70320276D01*
X107010276Y-70470535D01*
X107010272Y-70470540D01*
X106885379Y-70642442D01*
X106788904Y-70831782D01*
X106723242Y-71033869D01*
X106723242Y-71033872D01*
X106690000Y-71243753D01*
X106690000Y-71750000D01*
X107606988Y-71750000D01*
X107574075Y-71807007D01*
X107540000Y-71934174D01*
X107540000Y-72065826D01*
X107574075Y-72192993D01*
X107606988Y-72250000D01*
X106690000Y-72250000D01*
X106690000Y-72756246D01*
X106723242Y-72966127D01*
X106723242Y-72966130D01*
X106788904Y-73168217D01*
X106885379Y-73357557D01*
X107010272Y-73529459D01*
X107010276Y-73529464D01*
X107160535Y-73679723D01*
X107160540Y-73679727D01*
X107332442Y-73804620D01*
X107521782Y-73901095D01*
X107723871Y-73966757D01*
X107790000Y-73977231D01*
X107790000Y-72433012D01*
X107847007Y-72465925D01*
X107974174Y-72500000D01*
X108105826Y-72500000D01*
X108232993Y-72465925D01*
X108290000Y-72433012D01*
X108290000Y-73977230D01*
X108356126Y-73966757D01*
X108356129Y-73966757D01*
X108558217Y-73901095D01*
X108747557Y-73804620D01*
X108882615Y-73706496D01*
X108948421Y-73683016D01*
X109016475Y-73698841D01*
X109065170Y-73748947D01*
X109079500Y-73806814D01*
X109079500Y-82198097D01*
X109116446Y-82431368D01*
X109189433Y-82655996D01*
X109296657Y-82866434D01*
X109395085Y-83001908D01*
X109435484Y-83057511D01*
X111583181Y-85205208D01*
X111616666Y-85266531D01*
X111619500Y-85292889D01*
X111619500Y-87755763D01*
X111599815Y-87822802D01*
X111547011Y-87868557D01*
X111477853Y-87878501D01*
X111422615Y-87856081D01*
X111314025Y-87777187D01*
X111314024Y-87777186D01*
X111314022Y-87777185D01*
X111212417Y-87725414D01*
X111117606Y-87677104D01*
X111117603Y-87677103D01*
X110907952Y-87608985D01*
X110742897Y-87582843D01*
X110690222Y-87574500D01*
X110469778Y-87574500D01*
X110417103Y-87582843D01*
X110252047Y-87608985D01*
X110042396Y-87677103D01*
X110042393Y-87677104D01*
X109845974Y-87777187D01*
X109667641Y-87906752D01*
X109667636Y-87906756D01*
X109511756Y-88062636D01*
X109511752Y-88062641D01*
X109410318Y-88202254D01*
X109354988Y-88244920D01*
X109285375Y-88250899D01*
X109223580Y-88218293D01*
X109209682Y-88202254D01*
X109108247Y-88062641D01*
X109108243Y-88062636D01*
X108952363Y-87906756D01*
X108952358Y-87906752D01*
X108774025Y-87777187D01*
X108774024Y-87777186D01*
X108774022Y-87777185D01*
X108672417Y-87725414D01*
X108577606Y-87677104D01*
X108577603Y-87677103D01*
X108367952Y-87608985D01*
X108202897Y-87582843D01*
X108150222Y-87574500D01*
X107929778Y-87574500D01*
X107877103Y-87582843D01*
X107712047Y-87608985D01*
X107502396Y-87677103D01*
X107502393Y-87677104D01*
X107305974Y-87777187D01*
X107127641Y-87906752D01*
X107127636Y-87906756D01*
X106971756Y-88062636D01*
X106971752Y-88062641D01*
X106870318Y-88202254D01*
X106814988Y-88244920D01*
X106745375Y-88250899D01*
X106683580Y-88218293D01*
X106669682Y-88202254D01*
X106568247Y-88062641D01*
X106568243Y-88062636D01*
X106412363Y-87906756D01*
X106412358Y-87906752D01*
X106234025Y-87777187D01*
X106234024Y-87777186D01*
X106234022Y-87777185D01*
X106132417Y-87725414D01*
X106037606Y-87677104D01*
X106037603Y-87677103D01*
X105827952Y-87608985D01*
X105662897Y-87582843D01*
X105610222Y-87574500D01*
X105389778Y-87574500D01*
X105337103Y-87582843D01*
X105172047Y-87608985D01*
X104962396Y-87677103D01*
X104962393Y-87677104D01*
X104765974Y-87777187D01*
X104587641Y-87906752D01*
X104587636Y-87906756D01*
X104431756Y-88062636D01*
X104330008Y-88202681D01*
X104274678Y-88245346D01*
X104205065Y-88251325D01*
X104143270Y-88218719D01*
X104129372Y-88202680D01*
X104027862Y-88062964D01*
X104027857Y-88062958D01*
X103872041Y-87907142D01*
X103693760Y-87777613D01*
X103497410Y-87677567D01*
X103287836Y-87609473D01*
X103210000Y-87597144D01*
X103210000Y-90369314D01*
X103205606Y-90364920D01*
X103114394Y-90312259D01*
X103012661Y-90285000D01*
X102907339Y-90285000D01*
X102805606Y-90312259D01*
X102714394Y-90364920D01*
X102710000Y-90369314D01*
X102710000Y-87597144D01*
X102632164Y-87609473D01*
X102632161Y-87609473D01*
X102422589Y-87677567D01*
X102226239Y-87777613D01*
X102047958Y-87907142D01*
X101892142Y-88062958D01*
X101892142Y-88062959D01*
X101790627Y-88202681D01*
X101735297Y-88245346D01*
X101665683Y-88251325D01*
X101603888Y-88218719D01*
X101589991Y-88202680D01*
X101488247Y-88062641D01*
X101488243Y-88062636D01*
X101332363Y-87906756D01*
X101332358Y-87906752D01*
X101154025Y-87777187D01*
X101154024Y-87777186D01*
X101154022Y-87777185D01*
X101052417Y-87725414D01*
X100957606Y-87677104D01*
X100957603Y-87677103D01*
X100747952Y-87608985D01*
X100582897Y-87582843D01*
X100530222Y-87574500D01*
X100309778Y-87574500D01*
X100257103Y-87582843D01*
X100092047Y-87608985D01*
X99882396Y-87677103D01*
X99882393Y-87677104D01*
X99685974Y-87777187D01*
X99507641Y-87906752D01*
X99507636Y-87906756D01*
X99351756Y-88062636D01*
X99351752Y-88062641D01*
X99250318Y-88202254D01*
X99194988Y-88244920D01*
X99125375Y-88250899D01*
X99063580Y-88218293D01*
X99049682Y-88202254D01*
X98948247Y-88062641D01*
X98948243Y-88062636D01*
X98792363Y-87906756D01*
X98792358Y-87906752D01*
X98614025Y-87777187D01*
X98614024Y-87777186D01*
X98614022Y-87777185D01*
X98512417Y-87725414D01*
X98417606Y-87677104D01*
X98417603Y-87677103D01*
X98207952Y-87608985D01*
X98042897Y-87582843D01*
X97990222Y-87574500D01*
X97769778Y-87574500D01*
X97717103Y-87582843D01*
X97552047Y-87608985D01*
X97342396Y-87677103D01*
X97342393Y-87677104D01*
X97190295Y-87754604D01*
X97121626Y-87767500D01*
X97056886Y-87741224D01*
X97016628Y-87684118D01*
X97010000Y-87644119D01*
X97010000Y-78575000D01*
X87454500Y-78575000D01*
X87387461Y-78555315D01*
X87341706Y-78502511D01*
X87330500Y-78451000D01*
X87330500Y-74814878D01*
X92629500Y-74814878D01*
X92629500Y-75103321D01*
X92629501Y-75103338D01*
X92667149Y-75389306D01*
X92667150Y-75389311D01*
X92667151Y-75389317D01*
X92736634Y-75648631D01*
X92741809Y-75667944D01*
X92741814Y-75667960D01*
X92852191Y-75934436D01*
X92852199Y-75934452D01*
X92996420Y-76184248D01*
X92996431Y-76184264D01*
X93172024Y-76413102D01*
X93172030Y-76413109D01*
X93375990Y-76617069D01*
X93375997Y-76617075D01*
X93496956Y-76709890D01*
X93604844Y-76792675D01*
X93604851Y-76792679D01*
X93854647Y-76936900D01*
X93854663Y-76936908D01*
X94121139Y-77047285D01*
X94121145Y-77047286D01*
X94121155Y-77047291D01*
X94399783Y-77121949D01*
X94685772Y-77159600D01*
X94685779Y-77159600D01*
X94974221Y-77159600D01*
X94974228Y-77159600D01*
X95260217Y-77121949D01*
X95538845Y-77047291D01*
X95538857Y-77047285D01*
X95538860Y-77047285D01*
X95805336Y-76936908D01*
X95805339Y-76936906D01*
X95805345Y-76936904D01*
X96055156Y-76792675D01*
X96284004Y-76617074D01*
X96487974Y-76413104D01*
X96663575Y-76184256D01*
X96807804Y-75934445D01*
X96818833Y-75907820D01*
X96918185Y-75667960D01*
X96918185Y-75667957D01*
X96918191Y-75667945D01*
X96992849Y-75389317D01*
X97030500Y-75103328D01*
X97030500Y-74814872D01*
X96992849Y-74528883D01*
X96918191Y-74250255D01*
X96918186Y-74250245D01*
X96918185Y-74250239D01*
X96807808Y-73983763D01*
X96807800Y-73983747D01*
X96663579Y-73733951D01*
X96663575Y-73733944D01*
X96613015Y-73668053D01*
X96487975Y-73505097D01*
X96487969Y-73505090D01*
X96284009Y-73301130D01*
X96284002Y-73301124D01*
X96055164Y-73125531D01*
X96055162Y-73125529D01*
X96055156Y-73125525D01*
X96055151Y-73125522D01*
X96055148Y-73125520D01*
X95805352Y-72981299D01*
X95805336Y-72981291D01*
X95538860Y-72870914D01*
X95538848Y-72870910D01*
X95538845Y-72870909D01*
X95260217Y-72796251D01*
X95260211Y-72796250D01*
X95260206Y-72796249D01*
X94974238Y-72758601D01*
X94974233Y-72758600D01*
X94974228Y-72758600D01*
X94685772Y-72758600D01*
X94685766Y-72758600D01*
X94685761Y-72758601D01*
X94399793Y-72796249D01*
X94399786Y-72796250D01*
X94399783Y-72796251D01*
X94188019Y-72852993D01*
X94121155Y-72870909D01*
X94121139Y-72870914D01*
X93854663Y-72981291D01*
X93854647Y-72981299D01*
X93604851Y-73125520D01*
X93604835Y-73125531D01*
X93375997Y-73301124D01*
X93375990Y-73301130D01*
X93172030Y-73505090D01*
X93172024Y-73505097D01*
X92996431Y-73733935D01*
X92996420Y-73733951D01*
X92852199Y-73983747D01*
X92852191Y-73983763D01*
X92741814Y-74250239D01*
X92741809Y-74250255D01*
X92676985Y-74492184D01*
X92667152Y-74528880D01*
X92667149Y-74528893D01*
X92629501Y-74814861D01*
X92629500Y-74814878D01*
X87330500Y-74814878D01*
X87330500Y-69283600D01*
X87350185Y-69216561D01*
X87402989Y-69170806D01*
X87454500Y-69159600D01*
X181895890Y-69159600D01*
X181895892Y-69159600D01*
X182023186Y-69125492D01*
X182137314Y-69059600D01*
X182230500Y-68966414D01*
X182296392Y-68852286D01*
X182330500Y-68724992D01*
X182330500Y-65014878D01*
X201629500Y-65014878D01*
X201629500Y-65303321D01*
X201629501Y-65303338D01*
X201667149Y-65589306D01*
X201667150Y-65589311D01*
X201667151Y-65589317D01*
X201741809Y-65867944D01*
X201741814Y-65867960D01*
X201852191Y-66134436D01*
X201852199Y-66134452D01*
X201996420Y-66384248D01*
X201996431Y-66384264D01*
X202172024Y-66613102D01*
X202172030Y-66613109D01*
X202375990Y-66817069D01*
X202375996Y-66817074D01*
X202604844Y-66992675D01*
X202604851Y-66992679D01*
X202854647Y-67136900D01*
X202854663Y-67136908D01*
X203121139Y-67247285D01*
X203121145Y-67247286D01*
X203121155Y-67247291D01*
X203399783Y-67321949D01*
X203685772Y-67359600D01*
X203685779Y-67359600D01*
X203974221Y-67359600D01*
X203974228Y-67359600D01*
X204260217Y-67321949D01*
X204538845Y-67247291D01*
X204538857Y-67247285D01*
X204538860Y-67247285D01*
X204805336Y-67136908D01*
X204805339Y-67136906D01*
X204805345Y-67136904D01*
X205055156Y-66992675D01*
X205284004Y-66817074D01*
X205487974Y-66613104D01*
X205663575Y-66384256D01*
X205807804Y-66134445D01*
X205918191Y-65867945D01*
X205992849Y-65589317D01*
X206030500Y-65303328D01*
X206030500Y-65014872D01*
X205992849Y-64728883D01*
X205918191Y-64450255D01*
X205918186Y-64450245D01*
X205918185Y-64450239D01*
X205807808Y-64183763D01*
X205807800Y-64183747D01*
X205663579Y-63933951D01*
X205663575Y-63933944D01*
X205487974Y-63705096D01*
X205487969Y-63705090D01*
X205284009Y-63501130D01*
X205284002Y-63501124D01*
X205055164Y-63325531D01*
X205055162Y-63325529D01*
X205055156Y-63325525D01*
X205055151Y-63325522D01*
X205055148Y-63325520D01*
X204805352Y-63181299D01*
X204805336Y-63181291D01*
X204538860Y-63070914D01*
X204538848Y-63070910D01*
X204538845Y-63070909D01*
X204260217Y-62996251D01*
X204260211Y-62996250D01*
X204260206Y-62996249D01*
X203974238Y-62958601D01*
X203974233Y-62958600D01*
X203974228Y-62958600D01*
X203685772Y-62958600D01*
X203685766Y-62958600D01*
X203685761Y-62958601D01*
X203399793Y-62996249D01*
X203399786Y-62996250D01*
X203399783Y-62996251D01*
X203121155Y-63070909D01*
X203121139Y-63070914D01*
X202854663Y-63181291D01*
X202854647Y-63181299D01*
X202604851Y-63325520D01*
X202604835Y-63325531D01*
X202375997Y-63501124D01*
X202375990Y-63501130D01*
X202172030Y-63705090D01*
X202172024Y-63705097D01*
X201996431Y-63933935D01*
X201996420Y-63933951D01*
X201852199Y-64183747D01*
X201852191Y-64183763D01*
X201741814Y-64450239D01*
X201741809Y-64450255D01*
X201667152Y-64728880D01*
X201667149Y-64728893D01*
X201629501Y-65014861D01*
X201629500Y-65014878D01*
X182330500Y-65014878D01*
X182330500Y-59283600D01*
X182350185Y-59216561D01*
X182402989Y-59170806D01*
X182454500Y-59159600D01*
X211205500Y-59159600D01*
X211272539Y-59179285D01*
G37*
%TD.AperFunction*%
%TA.AperFunction,Conductor*%
G36*
X141038834Y-121142626D02*
G01*
X141094767Y-121184498D01*
X141119184Y-121249962D01*
X141119500Y-121258808D01*
X141119500Y-125260242D01*
X141099815Y-125327281D01*
X141047011Y-125373036D01*
X140977853Y-125382980D01*
X140914297Y-125353955D01*
X140907819Y-125347923D01*
X140879786Y-125319890D01*
X140707820Y-125194951D01*
X140518414Y-125098444D01*
X140518413Y-125098443D01*
X140518412Y-125098443D01*
X140316243Y-125032754D01*
X140316241Y-125032753D01*
X140316240Y-125032753D01*
X140154957Y-125007208D01*
X140106287Y-124999500D01*
X139893713Y-124999500D01*
X139845042Y-125007208D01*
X139683760Y-125032753D01*
X139481585Y-125098444D01*
X139292179Y-125194951D01*
X139120213Y-125319890D01*
X138969890Y-125470213D01*
X138844949Y-125642182D01*
X138840202Y-125651499D01*
X138792227Y-125702293D01*
X138724405Y-125719087D01*
X138658271Y-125696548D01*
X138619234Y-125651495D01*
X138614622Y-125642444D01*
X138489727Y-125470540D01*
X138489723Y-125470535D01*
X138339464Y-125320276D01*
X138339459Y-125320272D01*
X138167557Y-125195379D01*
X137978215Y-125098903D01*
X137776124Y-125033241D01*
X137710000Y-125022768D01*
X137710000Y-126566988D01*
X137652993Y-126534075D01*
X137525826Y-126500000D01*
X137394174Y-126500000D01*
X137267007Y-126534075D01*
X137210000Y-126566988D01*
X137210000Y-125022768D01*
X137209999Y-125022768D01*
X137143875Y-125033241D01*
X136941784Y-125098903D01*
X136752442Y-125195379D01*
X136580540Y-125320272D01*
X136580535Y-125320276D01*
X136430276Y-125470535D01*
X136430272Y-125470540D01*
X136305378Y-125642443D01*
X136300762Y-125651502D01*
X136252784Y-125702295D01*
X136184963Y-125719087D01*
X136118829Y-125696546D01*
X136079794Y-125651493D01*
X136075051Y-125642184D01*
X136075049Y-125642181D01*
X136075048Y-125642179D01*
X135950109Y-125470213D01*
X135799786Y-125319890D01*
X135627819Y-125194951D01*
X135627818Y-125194950D01*
X135627816Y-125194949D01*
X135545043Y-125152774D01*
X135527223Y-125143694D01*
X135476427Y-125095719D01*
X135459632Y-125027898D01*
X135482170Y-124961763D01*
X135495831Y-124945535D01*
X136354548Y-124086819D01*
X136415871Y-124053334D01*
X136442229Y-124050500D01*
X137791498Y-124050500D01*
X137889040Y-124031096D01*
X137936491Y-124021658D01*
X138073073Y-123965084D01*
X138122307Y-123932186D01*
X138195994Y-123882952D01*
X140907819Y-121171127D01*
X140969142Y-121137642D01*
X141038834Y-121142626D01*
G37*
%TD.AperFunction*%
%TA.AperFunction,Conductor*%
G36*
X115910000Y-111552854D02*
G01*
X115987834Y-111540526D01*
X115987837Y-111540526D01*
X116197410Y-111472432D01*
X116393760Y-111372386D01*
X116572041Y-111242857D01*
X116727857Y-111087041D01*
X116727862Y-111087035D01*
X116829372Y-110947319D01*
X116884702Y-110904653D01*
X116954315Y-110898674D01*
X117016110Y-110931279D01*
X117030008Y-110947319D01*
X117131752Y-111087358D01*
X117131756Y-111087363D01*
X117287636Y-111243243D01*
X117287641Y-111243247D01*
X117435995Y-111351031D01*
X117465978Y-111372815D01*
X117568985Y-111425300D01*
X117662393Y-111472895D01*
X117662396Y-111472896D01*
X117693965Y-111483153D01*
X117872049Y-111541015D01*
X118089778Y-111575500D01*
X118089779Y-111575500D01*
X118310221Y-111575500D01*
X118310222Y-111575500D01*
X118527951Y-111541015D01*
X118737606Y-111472895D01*
X118934022Y-111372815D01*
X119112365Y-111243242D01*
X119268242Y-111087365D01*
X119278804Y-111072826D01*
X119369682Y-110947745D01*
X119425011Y-110905079D01*
X119494625Y-110899100D01*
X119556420Y-110931705D01*
X119570318Y-110947745D01*
X119671752Y-111087358D01*
X119671756Y-111087363D01*
X119827636Y-111243243D01*
X119827641Y-111243247D01*
X119975995Y-111351031D01*
X120005978Y-111372815D01*
X120108985Y-111425300D01*
X120202393Y-111472895D01*
X120202396Y-111472896D01*
X120233965Y-111483153D01*
X120412049Y-111541015D01*
X120629778Y-111575500D01*
X120629779Y-111575500D01*
X120850221Y-111575500D01*
X120850222Y-111575500D01*
X121067951Y-111541015D01*
X121277606Y-111472895D01*
X121474022Y-111372815D01*
X121652365Y-111243242D01*
X121808242Y-111087365D01*
X121818804Y-111072826D01*
X121909682Y-110947745D01*
X121965011Y-110905079D01*
X122034625Y-110899100D01*
X122096420Y-110931705D01*
X122110318Y-110947745D01*
X122211752Y-111087358D01*
X122211756Y-111087363D01*
X122367636Y-111243243D01*
X122367641Y-111243247D01*
X122515995Y-111351031D01*
X122545978Y-111372815D01*
X122648985Y-111425300D01*
X122742393Y-111472895D01*
X122742396Y-111472896D01*
X122773965Y-111483153D01*
X122952049Y-111541015D01*
X123169778Y-111575500D01*
X123169779Y-111575500D01*
X123390221Y-111575500D01*
X123390222Y-111575500D01*
X123607951Y-111541015D01*
X123816227Y-111473342D01*
X123886067Y-111471348D01*
X123942225Y-111503593D01*
X127685551Y-115246919D01*
X127719036Y-115308242D01*
X127714052Y-115377934D01*
X127672180Y-115433867D01*
X127606716Y-115458284D01*
X127597870Y-115458600D01*
X113442354Y-115458600D01*
X113410291Y-115464976D01*
X113410292Y-115464977D01*
X113249070Y-115497046D01*
X113249064Y-115497048D01*
X113066988Y-115572466D01*
X113066979Y-115572471D01*
X112903119Y-115681959D01*
X112903115Y-115681962D01*
X111962799Y-116622281D01*
X111901476Y-116655766D01*
X111875118Y-116658600D01*
X111823713Y-116658600D01*
X111789638Y-116663997D01*
X111613760Y-116691853D01*
X111411585Y-116757544D01*
X111222179Y-116854051D01*
X111050213Y-116978990D01*
X110899890Y-117129313D01*
X110774951Y-117301279D01*
X110678444Y-117490685D01*
X110612753Y-117692860D01*
X110579500Y-117902813D01*
X110579500Y-118543318D01*
X110559815Y-118610357D01*
X110543181Y-118630999D01*
X109551899Y-119622281D01*
X109490576Y-119655766D01*
X109464218Y-119658600D01*
X102905762Y-119658600D01*
X102838723Y-119638915D01*
X102832877Y-119634918D01*
X102711613Y-119546815D01*
X102711612Y-119546814D01*
X102711610Y-119546813D01*
X102618917Y-119499583D01*
X102568123Y-119451611D01*
X102551328Y-119383790D01*
X102573865Y-119317655D01*
X102618917Y-119278616D01*
X102711610Y-119231387D01*
X102775330Y-119185092D01*
X102877213Y-119111071D01*
X102877215Y-119111068D01*
X102877219Y-119111066D01*
X103021966Y-118966319D01*
X103021968Y-118966315D01*
X103021971Y-118966313D01*
X103104955Y-118852093D01*
X103142287Y-118800710D01*
X103235220Y-118618319D01*
X103298477Y-118423634D01*
X103330500Y-118221452D01*
X103330500Y-118016748D01*
X103298477Y-117814566D01*
X103235220Y-117619881D01*
X103235218Y-117619878D01*
X103235218Y-117619876D01*
X103198314Y-117547449D01*
X103142287Y-117437490D01*
X103134556Y-117426849D01*
X103021971Y-117271886D01*
X102877213Y-117127128D01*
X102711611Y-117006813D01*
X102618369Y-116959303D01*
X102567574Y-116911329D01*
X102550779Y-116843507D01*
X102573317Y-116777373D01*
X102618371Y-116738334D01*
X102711347Y-116690961D01*
X102876894Y-116570682D01*
X102876895Y-116570682D01*
X103021582Y-116425995D01*
X103021582Y-116425994D01*
X103141859Y-116260449D01*
X103234755Y-116078129D01*
X103297990Y-115883513D01*
X103306609Y-115829100D01*
X101645686Y-115829100D01*
X101650080Y-115824706D01*
X101702741Y-115733494D01*
X101730000Y-115631761D01*
X101730000Y-115526439D01*
X101702741Y-115424706D01*
X101650080Y-115333494D01*
X101645686Y-115329100D01*
X103306609Y-115329100D01*
X103297990Y-115274686D01*
X103297989Y-115274681D01*
X103287344Y-115241917D01*
X103285349Y-115172076D01*
X103321430Y-115112243D01*
X103384131Y-115081416D01*
X103405275Y-115079600D01*
X105869008Y-115079600D01*
X105966550Y-115060196D01*
X106014001Y-115050758D01*
X106150583Y-114994184D01*
X106199817Y-114961286D01*
X106273504Y-114912052D01*
X109760255Y-111425298D01*
X109821576Y-111391815D01*
X109891268Y-111396799D01*
X109904229Y-111402496D01*
X110042393Y-111472895D01*
X110042396Y-111472896D01*
X110073965Y-111483153D01*
X110252049Y-111541015D01*
X110469778Y-111575500D01*
X110469779Y-111575500D01*
X110690221Y-111575500D01*
X110690222Y-111575500D01*
X110907951Y-111541015D01*
X111117606Y-111472895D01*
X111314022Y-111372815D01*
X111492365Y-111243242D01*
X111648242Y-111087365D01*
X111658804Y-111072826D01*
X111749682Y-110947745D01*
X111805011Y-110905079D01*
X111874625Y-110899100D01*
X111936420Y-110931705D01*
X111950318Y-110947745D01*
X112051752Y-111087358D01*
X112051756Y-111087363D01*
X112207636Y-111243243D01*
X112207641Y-111243247D01*
X112355995Y-111351031D01*
X112385978Y-111372815D01*
X112488985Y-111425300D01*
X112582393Y-111472895D01*
X112582396Y-111472896D01*
X112613965Y-111483153D01*
X112792049Y-111541015D01*
X113009778Y-111575500D01*
X113009779Y-111575500D01*
X113230221Y-111575500D01*
X113230222Y-111575500D01*
X113447951Y-111541015D01*
X113657606Y-111472895D01*
X113854022Y-111372815D01*
X114032365Y-111243242D01*
X114188242Y-111087365D01*
X114289991Y-110947317D01*
X114345320Y-110904653D01*
X114414933Y-110898674D01*
X114476729Y-110931279D01*
X114490627Y-110947318D01*
X114592142Y-111087041D01*
X114747958Y-111242857D01*
X114926239Y-111372386D01*
X115122589Y-111472432D01*
X115332163Y-111540526D01*
X115409999Y-111552854D01*
X115410000Y-111552854D01*
X115410000Y-108780686D01*
X115414394Y-108785080D01*
X115505606Y-108837741D01*
X115607339Y-108865000D01*
X115712661Y-108865000D01*
X115814394Y-108837741D01*
X115905606Y-108785080D01*
X115910000Y-108780686D01*
X115910000Y-111552854D01*
G37*
%TD.AperFunction*%
%TA.AperFunction,Conductor*%
G36*
X141310000Y-111573477D02*
G01*
X141317762Y-111585367D01*
X141318262Y-111655235D01*
X141280910Y-111714282D01*
X141271923Y-111721471D01*
X141152787Y-111808028D01*
X141152782Y-111808032D01*
X141008028Y-111952786D01*
X140887715Y-112118386D01*
X140794781Y-112300776D01*
X140731522Y-112495465D01*
X140699500Y-112697648D01*
X140699500Y-114302351D01*
X140731522Y-114504534D01*
X140794783Y-114699228D01*
X140797612Y-114704780D01*
X140810504Y-114773450D01*
X140784224Y-114838189D01*
X140727115Y-114878442D01*
X140657309Y-114881430D01*
X140599444Y-114848749D01*
X137030832Y-111280136D01*
X136997347Y-111218813D01*
X137002331Y-111149121D01*
X137030834Y-111104772D01*
X137048242Y-111087365D01*
X137048245Y-111087362D01*
X137149682Y-110947745D01*
X137205011Y-110905079D01*
X137274625Y-110899100D01*
X137336420Y-110931705D01*
X137350318Y-110947745D01*
X137451752Y-111087358D01*
X137451756Y-111087363D01*
X137607636Y-111243243D01*
X137607641Y-111243247D01*
X137755995Y-111351031D01*
X137785978Y-111372815D01*
X137888985Y-111425300D01*
X137982393Y-111472895D01*
X137982396Y-111472896D01*
X138013965Y-111483153D01*
X138192049Y-111541015D01*
X138409778Y-111575500D01*
X138409779Y-111575500D01*
X138630221Y-111575500D01*
X138630222Y-111575500D01*
X138847951Y-111541015D01*
X139057606Y-111472895D01*
X139254022Y-111372815D01*
X139432365Y-111243242D01*
X139588242Y-111087365D01*
X139689991Y-110947317D01*
X139745320Y-110904653D01*
X139814933Y-110898674D01*
X139876729Y-110931279D01*
X139890627Y-110947318D01*
X139992142Y-111087041D01*
X140147958Y-111242857D01*
X140326239Y-111372386D01*
X140522589Y-111472432D01*
X140732163Y-111540526D01*
X140809999Y-111552854D01*
X140810000Y-111552854D01*
X140810000Y-108780686D01*
X140814394Y-108785080D01*
X140905606Y-108837741D01*
X141007339Y-108865000D01*
X141112661Y-108865000D01*
X141214394Y-108837741D01*
X141305606Y-108785080D01*
X141310000Y-108780686D01*
X141310000Y-111573477D01*
G37*
%TD.AperFunction*%
%TA.AperFunction,Conductor*%
G36*
X128610000Y-109146000D02*
G01*
X128590315Y-109213039D01*
X128537511Y-109258794D01*
X128486000Y-109270000D01*
X128234000Y-109270000D01*
X128166961Y-109250315D01*
X128121206Y-109197511D01*
X128110000Y-109146000D01*
X128110000Y-108780686D01*
X128114394Y-108785080D01*
X128205606Y-108837741D01*
X128307339Y-108865000D01*
X128412661Y-108865000D01*
X128514394Y-108837741D01*
X128605606Y-108785080D01*
X128610000Y-108780686D01*
X128610000Y-109146000D01*
G37*
%TD.AperFunction*%
%TA.AperFunction,Conductor*%
G36*
X149802577Y-87520185D02*
G01*
X149823219Y-87536819D01*
X150274219Y-87987819D01*
X150307704Y-88049142D01*
X150302720Y-88118834D01*
X150260848Y-88174767D01*
X150195384Y-88199184D01*
X150186538Y-88199500D01*
X149577648Y-88199500D01*
X149560260Y-88202254D01*
X149375465Y-88231522D01*
X149180776Y-88294781D01*
X148998386Y-88387715D01*
X148832786Y-88508028D01*
X148688028Y-88652786D01*
X148567715Y-88818386D01*
X148474781Y-89000776D01*
X148411522Y-89195465D01*
X148379500Y-89397648D01*
X148379500Y-89602351D01*
X148411522Y-89804534D01*
X148474781Y-89999223D01*
X148538691Y-90124653D01*
X148545246Y-90137517D01*
X148567715Y-90181613D01*
X148688028Y-90347213D01*
X148832786Y-90491971D01*
X148987749Y-90604556D01*
X148998390Y-90612287D01*
X149114607Y-90671503D01*
X149180776Y-90705218D01*
X149180778Y-90705218D01*
X149180781Y-90705220D01*
X149280624Y-90737661D01*
X149375465Y-90768477D01*
X149460568Y-90781956D01*
X149577648Y-90800500D01*
X149577649Y-90800500D01*
X151182351Y-90800500D01*
X151182352Y-90800500D01*
X151384534Y-90768477D01*
X151384539Y-90768475D01*
X151384541Y-90768475D01*
X151417180Y-90757870D01*
X151487021Y-90755873D01*
X151546855Y-90791953D01*
X151577684Y-90854653D01*
X151579500Y-90875800D01*
X151579500Y-92430512D01*
X151559815Y-92497551D01*
X151543181Y-92518193D01*
X147519467Y-96541906D01*
X147458144Y-96575391D01*
X147388452Y-96570407D01*
X147332519Y-96528535D01*
X147313855Y-96492544D01*
X147261555Y-96331583D01*
X147165048Y-96142179D01*
X147040109Y-95970213D01*
X146889786Y-95819890D01*
X146717820Y-95694951D01*
X146528414Y-95598444D01*
X146528413Y-95598443D01*
X146528412Y-95598443D01*
X146326243Y-95532754D01*
X146326241Y-95532753D01*
X146326240Y-95532753D01*
X146164957Y-95507208D01*
X146116287Y-95499500D01*
X145903713Y-95499500D01*
X145855042Y-95507208D01*
X145693760Y-95532753D01*
X145491585Y-95598444D01*
X145302179Y-95694951D01*
X145130213Y-95819890D01*
X144979890Y-95970213D01*
X144854951Y-96142179D01*
X144758444Y-96331585D01*
X144692753Y-96533760D01*
X144666619Y-96698764D01*
X144659500Y-96743713D01*
X144659500Y-96956287D01*
X144692754Y-97166243D01*
X144695599Y-97175000D01*
X144758444Y-97368414D01*
X144854951Y-97557820D01*
X144979890Y-97729786D01*
X145130213Y-97880109D01*
X145291134Y-97997023D01*
X145302184Y-98005051D01*
X145433336Y-98071876D01*
X145468935Y-98090015D01*
X145519731Y-98137990D01*
X145536526Y-98205811D01*
X145513989Y-98271946D01*
X145459273Y-98315397D01*
X145412640Y-98324500D01*
X143744952Y-98324500D01*
X143677913Y-98304815D01*
X143632158Y-98252011D01*
X143622214Y-98182853D01*
X143651239Y-98119297D01*
X143672063Y-98100184D01*
X143745787Y-98046621D01*
X143876621Y-97915787D01*
X143985378Y-97766096D01*
X144069379Y-97601235D01*
X144126555Y-97425264D01*
X144155500Y-97242514D01*
X144155500Y-97057486D01*
X144126555Y-96874736D01*
X144097967Y-96786750D01*
X144069380Y-96698767D01*
X144069379Y-96698764D01*
X144026577Y-96614763D01*
X143985378Y-96533904D01*
X143876621Y-96384213D01*
X143745787Y-96253379D01*
X143596096Y-96144622D01*
X143591301Y-96142179D01*
X143431235Y-96060620D01*
X143431232Y-96060619D01*
X143255265Y-96003445D01*
X143163889Y-95988972D01*
X143072514Y-95974500D01*
X142887486Y-95974500D01*
X142826569Y-95984148D01*
X142704734Y-96003445D01*
X142528767Y-96060619D01*
X142528764Y-96060620D01*
X142363903Y-96144622D01*
X142278499Y-96206672D01*
X142214213Y-96253379D01*
X142214211Y-96253381D01*
X142214210Y-96253381D01*
X142083381Y-96384210D01*
X142083381Y-96384211D01*
X142083379Y-96384213D01*
X142036672Y-96448499D01*
X141974622Y-96533903D01*
X141890620Y-96698764D01*
X141890619Y-96698767D01*
X141833445Y-96874734D01*
X141804500Y-97057486D01*
X141804500Y-97242513D01*
X141833445Y-97425265D01*
X141890619Y-97601232D01*
X141890620Y-97601235D01*
X141956121Y-97729786D01*
X141974622Y-97766096D01*
X142083379Y-97915787D01*
X142214213Y-98046621D01*
X142287934Y-98100183D01*
X142330599Y-98155512D01*
X142336578Y-98225125D01*
X142303972Y-98286920D01*
X142243133Y-98321278D01*
X142215048Y-98324500D01*
X141960989Y-98324500D01*
X141727720Y-98361446D01*
X141503091Y-98434433D01*
X141292651Y-98541657D01*
X141101574Y-98680484D01*
X134835484Y-104946574D01*
X134696658Y-105137650D01*
X134695176Y-105140559D01*
X134589433Y-105348089D01*
X134516446Y-105572717D01*
X134479500Y-105805988D01*
X134479500Y-107145763D01*
X134459815Y-107212802D01*
X134407011Y-107258557D01*
X134337853Y-107268501D01*
X134282615Y-107246081D01*
X134174025Y-107167187D01*
X134174024Y-107167186D01*
X134174022Y-107167185D01*
X134103445Y-107131224D01*
X133977606Y-107067104D01*
X133977603Y-107067103D01*
X133767952Y-106998985D01*
X133659086Y-106981742D01*
X133550222Y-106964500D01*
X133329778Y-106964500D01*
X133257201Y-106975995D01*
X133112047Y-106998985D01*
X132902396Y-107067103D01*
X132902393Y-107067104D01*
X132705974Y-107167187D01*
X132527641Y-107296752D01*
X132527636Y-107296756D01*
X132371756Y-107452636D01*
X132371752Y-107452641D01*
X132270318Y-107592254D01*
X132214988Y-107634920D01*
X132145375Y-107640899D01*
X132083580Y-107608293D01*
X132069682Y-107592254D01*
X131968247Y-107452641D01*
X131968243Y-107452636D01*
X131812363Y-107296756D01*
X131812358Y-107296752D01*
X131634025Y-107167187D01*
X131634024Y-107167186D01*
X131634022Y-107167185D01*
X131563445Y-107131224D01*
X131437606Y-107067104D01*
X131437603Y-107067103D01*
X131227952Y-106998985D01*
X131119086Y-106981742D01*
X131010222Y-106964500D01*
X130789778Y-106964500D01*
X130717201Y-106975995D01*
X130572047Y-106998985D01*
X130362396Y-107067103D01*
X130362393Y-107067104D01*
X130165974Y-107167187D01*
X129987641Y-107296752D01*
X129987636Y-107296756D01*
X129831756Y-107452636D01*
X129730008Y-107592681D01*
X129674678Y-107635346D01*
X129605065Y-107641325D01*
X129543270Y-107608719D01*
X129529372Y-107592680D01*
X129427862Y-107452964D01*
X129427857Y-107452958D01*
X129272041Y-107297142D01*
X129093760Y-107167613D01*
X128897410Y-107067567D01*
X128687836Y-106999473D01*
X128610000Y-106987144D01*
X128610000Y-108149314D01*
X128605606Y-108144920D01*
X128514394Y-108092259D01*
X128412661Y-108065000D01*
X128307339Y-108065000D01*
X128205606Y-108092259D01*
X128114394Y-108144920D01*
X128110000Y-108149314D01*
X128110000Y-106987144D01*
X128032164Y-106999473D01*
X128032161Y-106999473D01*
X127822589Y-107067567D01*
X127626239Y-107167613D01*
X127447958Y-107297142D01*
X127292142Y-107452958D01*
X127292142Y-107452959D01*
X127190627Y-107592681D01*
X127135297Y-107635346D01*
X127065683Y-107641325D01*
X127003888Y-107608719D01*
X126989991Y-107592680D01*
X126888247Y-107452641D01*
X126888243Y-107452636D01*
X126732363Y-107296756D01*
X126732358Y-107296752D01*
X126554025Y-107167187D01*
X126554024Y-107167186D01*
X126554022Y-107167185D01*
X126483445Y-107131224D01*
X126357606Y-107067104D01*
X126357603Y-107067103D01*
X126147952Y-106998985D01*
X126039086Y-106981742D01*
X125930222Y-106964500D01*
X125709778Y-106964500D01*
X125637201Y-106975995D01*
X125492047Y-106998985D01*
X125282396Y-107067103D01*
X125282393Y-107067104D01*
X125085974Y-107167187D01*
X124907641Y-107296752D01*
X124907636Y-107296756D01*
X124751756Y-107452636D01*
X124751752Y-107452641D01*
X124650318Y-107592254D01*
X124594988Y-107634920D01*
X124525375Y-107640899D01*
X124463580Y-107608293D01*
X124449682Y-107592254D01*
X124348247Y-107452641D01*
X124348243Y-107452636D01*
X124192363Y-107296756D01*
X124192358Y-107296752D01*
X124014025Y-107167187D01*
X124014024Y-107167186D01*
X124014022Y-107167185D01*
X123943445Y-107131224D01*
X123817606Y-107067104D01*
X123817603Y-107067103D01*
X123607952Y-106998985D01*
X123499086Y-106981742D01*
X123390222Y-106964500D01*
X123169778Y-106964500D01*
X123097201Y-106975995D01*
X122952047Y-106998985D01*
X122742396Y-107067103D01*
X122742393Y-107067104D01*
X122545974Y-107167187D01*
X122367641Y-107296752D01*
X122367636Y-107296756D01*
X122211756Y-107452636D01*
X122211752Y-107452641D01*
X122110318Y-107592254D01*
X122054988Y-107634920D01*
X121985375Y-107640899D01*
X121923580Y-107608293D01*
X121909682Y-107592254D01*
X121808247Y-107452641D01*
X121808243Y-107452636D01*
X121652363Y-107296756D01*
X121652358Y-107296752D01*
X121474025Y-107167187D01*
X121474024Y-107167186D01*
X121474022Y-107167185D01*
X121403445Y-107131224D01*
X121277606Y-107067104D01*
X121277603Y-107067103D01*
X121067952Y-106998985D01*
X120959086Y-106981742D01*
X120850222Y-106964500D01*
X120629778Y-106964500D01*
X120557201Y-106975995D01*
X120412047Y-106998985D01*
X120202396Y-107067103D01*
X120202393Y-107067104D01*
X120005974Y-107167187D01*
X119827641Y-107296752D01*
X119827636Y-107296756D01*
X119671756Y-107452636D01*
X119671752Y-107452641D01*
X119570318Y-107592254D01*
X119514988Y-107634920D01*
X119445375Y-107640899D01*
X119383580Y-107608293D01*
X119369682Y-107592254D01*
X119268247Y-107452641D01*
X119268243Y-107452636D01*
X119112363Y-107296756D01*
X119112358Y-107296752D01*
X118934025Y-107167187D01*
X118934024Y-107167186D01*
X118934022Y-107167185D01*
X118863445Y-107131224D01*
X118737606Y-107067104D01*
X118737603Y-107067103D01*
X118527952Y-106998985D01*
X118419086Y-106981742D01*
X118310222Y-106964500D01*
X118089778Y-106964500D01*
X118017201Y-106975995D01*
X117872047Y-106998985D01*
X117662396Y-107067103D01*
X117662393Y-107067104D01*
X117465974Y-107167187D01*
X117287641Y-107296752D01*
X117287636Y-107296756D01*
X117131756Y-107452636D01*
X117030008Y-107592681D01*
X116974678Y-107635346D01*
X116905065Y-107641325D01*
X116843270Y-107608719D01*
X116829372Y-107592680D01*
X116727862Y-107452964D01*
X116727857Y-107452958D01*
X116572041Y-107297142D01*
X116393760Y-107167613D01*
X116197410Y-107067567D01*
X115987836Y-106999473D01*
X115910000Y-106987144D01*
X115910000Y-108149314D01*
X115905606Y-108144920D01*
X115814394Y-108092259D01*
X115712661Y-108065000D01*
X115607339Y-108065000D01*
X115505606Y-108092259D01*
X115414394Y-108144920D01*
X115410000Y-108149314D01*
X115410000Y-106987144D01*
X115332164Y-106999473D01*
X115332161Y-106999473D01*
X115122589Y-107067567D01*
X114926239Y-107167613D01*
X114747958Y-107297142D01*
X114592142Y-107452958D01*
X114592142Y-107452959D01*
X114490627Y-107592681D01*
X114435297Y-107635346D01*
X114365683Y-107641325D01*
X114303888Y-107608719D01*
X114289991Y-107592680D01*
X114188247Y-107452641D01*
X114188243Y-107452636D01*
X114032363Y-107296756D01*
X114032358Y-107296752D01*
X113854025Y-107167187D01*
X113854024Y-107167186D01*
X113854022Y-107167185D01*
X113783445Y-107131224D01*
X113657606Y-107067104D01*
X113657603Y-107067103D01*
X113447952Y-106998985D01*
X113339086Y-106981742D01*
X113230222Y-106964500D01*
X113009778Y-106964500D01*
X112937201Y-106975995D01*
X112792047Y-106998985D01*
X112582396Y-107067103D01*
X112582393Y-107067104D01*
X112385974Y-107167187D01*
X112207641Y-107296752D01*
X112207636Y-107296756D01*
X112051756Y-107452636D01*
X112051752Y-107452641D01*
X111950318Y-107592254D01*
X111894988Y-107634920D01*
X111825375Y-107640899D01*
X111763580Y-107608293D01*
X111749682Y-107592254D01*
X111648247Y-107452641D01*
X111648243Y-107452636D01*
X111492363Y-107296756D01*
X111492358Y-107296752D01*
X111314025Y-107167187D01*
X111314024Y-107167186D01*
X111314022Y-107167185D01*
X111243445Y-107131224D01*
X111117606Y-107067104D01*
X111117603Y-107067103D01*
X110907952Y-106998985D01*
X110799086Y-106981742D01*
X110690222Y-106964500D01*
X110469778Y-106964500D01*
X110397201Y-106975995D01*
X110252047Y-106998985D01*
X110042396Y-107067103D01*
X110042393Y-107067104D01*
X109845974Y-107167187D01*
X109667641Y-107296752D01*
X109667636Y-107296756D01*
X109511756Y-107452636D01*
X109511752Y-107452641D01*
X109410318Y-107592254D01*
X109354988Y-107634920D01*
X109285375Y-107640899D01*
X109223580Y-107608293D01*
X109209682Y-107592254D01*
X109108247Y-107452641D01*
X109108243Y-107452636D01*
X108952363Y-107296756D01*
X108952358Y-107296752D01*
X108774025Y-107167187D01*
X108774024Y-107167186D01*
X108774022Y-107167185D01*
X108703445Y-107131224D01*
X108577606Y-107067104D01*
X108577603Y-107067103D01*
X108367952Y-106998985D01*
X108259086Y-106981742D01*
X108150222Y-106964500D01*
X107929778Y-106964500D01*
X107857201Y-106975995D01*
X107712047Y-106998985D01*
X107502396Y-107067103D01*
X107502393Y-107067104D01*
X107305974Y-107167187D01*
X107127641Y-107296752D01*
X107127636Y-107296756D01*
X106971756Y-107452636D01*
X106971752Y-107452641D01*
X106870318Y-107592254D01*
X106814988Y-107634920D01*
X106745375Y-107640899D01*
X106683580Y-107608293D01*
X106669682Y-107592254D01*
X106568247Y-107452641D01*
X106568243Y-107452636D01*
X106412363Y-107296756D01*
X106412358Y-107296752D01*
X106234025Y-107167187D01*
X106234024Y-107167186D01*
X106234022Y-107167185D01*
X106163445Y-107131224D01*
X106037606Y-107067104D01*
X106037603Y-107067103D01*
X105827952Y-106998985D01*
X105719086Y-106981742D01*
X105610222Y-106964500D01*
X105389778Y-106964500D01*
X105317201Y-106975995D01*
X105172047Y-106998985D01*
X104962396Y-107067103D01*
X104962393Y-107067104D01*
X104765974Y-107167187D01*
X104587641Y-107296752D01*
X104587636Y-107296756D01*
X104431756Y-107452636D01*
X104330008Y-107592681D01*
X104274678Y-107635346D01*
X104205065Y-107641325D01*
X104143270Y-107608719D01*
X104129372Y-107592680D01*
X104027862Y-107452964D01*
X104027857Y-107452958D01*
X103872041Y-107297142D01*
X103693760Y-107167613D01*
X103497410Y-107067567D01*
X103287836Y-106999473D01*
X103210000Y-106987144D01*
X103210000Y-108149314D01*
X103205606Y-108144920D01*
X103114394Y-108092259D01*
X103012661Y-108065000D01*
X102907339Y-108065000D01*
X102805606Y-108092259D01*
X102714394Y-108144920D01*
X102710000Y-108149314D01*
X102710000Y-106987144D01*
X102632164Y-106999473D01*
X102632161Y-106999473D01*
X102422589Y-107067567D01*
X102226239Y-107167613D01*
X102047958Y-107297142D01*
X101892142Y-107452958D01*
X101892142Y-107452959D01*
X101790627Y-107592681D01*
X101735297Y-107635346D01*
X101665683Y-107641325D01*
X101603888Y-107608719D01*
X101589991Y-107592680D01*
X101488247Y-107452641D01*
X101488243Y-107452636D01*
X101332363Y-107296756D01*
X101332358Y-107296752D01*
X101154025Y-107167187D01*
X101154024Y-107167186D01*
X101154022Y-107167185D01*
X101083445Y-107131224D01*
X100957606Y-107067104D01*
X100957603Y-107067103D01*
X100747952Y-106998985D01*
X100639086Y-106981742D01*
X100530222Y-106964500D01*
X100309778Y-106964500D01*
X100237201Y-106975995D01*
X100092047Y-106998985D01*
X99882396Y-107067103D01*
X99882393Y-107067104D01*
X99685974Y-107167187D01*
X99507641Y-107296752D01*
X99507636Y-107296756D01*
X99351756Y-107452636D01*
X99351752Y-107452641D01*
X99250318Y-107592254D01*
X99194988Y-107634920D01*
X99125375Y-107640899D01*
X99063580Y-107608293D01*
X99049682Y-107592254D01*
X98948247Y-107452641D01*
X98948243Y-107452636D01*
X98792363Y-107296756D01*
X98792358Y-107296752D01*
X98614025Y-107167187D01*
X98614024Y-107167186D01*
X98614022Y-107167185D01*
X98543445Y-107131224D01*
X98417606Y-107067104D01*
X98417603Y-107067103D01*
X98207952Y-106998985D01*
X98099086Y-106981742D01*
X97990222Y-106964500D01*
X97769778Y-106964500D01*
X97697201Y-106975995D01*
X97552047Y-106998985D01*
X97342396Y-107067103D01*
X97342393Y-107067104D01*
X97190295Y-107144604D01*
X97121626Y-107157500D01*
X97056886Y-107131224D01*
X97016628Y-107074118D01*
X97010000Y-107034119D01*
X97010000Y-102323824D01*
X97029685Y-102256785D01*
X97082489Y-102211030D01*
X97151647Y-102201086D01*
X97215203Y-102230111D01*
X97231933Y-102247764D01*
X99025653Y-104557486D01*
X100569623Y-106545613D01*
X100670105Y-106675000D01*
X105010000Y-106675000D01*
X105010000Y-99502486D01*
X115009500Y-99502486D01*
X115009500Y-100815713D01*
X115015913Y-100886292D01*
X115066522Y-101048706D01*
X115154530Y-101194288D01*
X115274811Y-101314569D01*
X115274813Y-101314570D01*
X115274815Y-101314572D01*
X115420394Y-101402578D01*
X115507566Y-101429741D01*
X115565712Y-101468478D01*
X115593686Y-101532503D01*
X115582605Y-101601488D01*
X115543560Y-101648444D01*
X115462782Y-101707132D01*
X115318028Y-101851886D01*
X115197715Y-102017486D01*
X115104781Y-102199876D01*
X115041522Y-102394565D01*
X115009500Y-102596748D01*
X115009500Y-102801451D01*
X115041522Y-103003634D01*
X115104781Y-103198323D01*
X115168691Y-103323753D01*
X115171930Y-103330109D01*
X115197715Y-103380713D01*
X115318028Y-103546313D01*
X115462786Y-103691071D01*
X115617749Y-103803656D01*
X115628390Y-103811387D01*
X115719840Y-103857983D01*
X115721080Y-103858615D01*
X115771876Y-103906590D01*
X115788671Y-103974411D01*
X115766134Y-104040546D01*
X115721080Y-104079585D01*
X115628386Y-104126815D01*
X115462786Y-104247128D01*
X115318028Y-104391886D01*
X115197715Y-104557486D01*
X115104781Y-104739876D01*
X115041522Y-104934565D01*
X115009500Y-105136748D01*
X115009500Y-105341451D01*
X115041522Y-105543634D01*
X115104781Y-105738323D01*
X115197715Y-105920713D01*
X115318028Y-106086313D01*
X115462786Y-106231071D01*
X115617749Y-106343656D01*
X115628390Y-106351387D01*
X115744607Y-106410603D01*
X115810776Y-106444318D01*
X115810778Y-106444318D01*
X115810781Y-106444320D01*
X115915137Y-106478227D01*
X116005465Y-106507577D01*
X116106557Y-106523588D01*
X116207648Y-106539600D01*
X116207649Y-106539600D01*
X116412351Y-106539600D01*
X116412352Y-106539600D01*
X116614534Y-106507577D01*
X116809219Y-106444320D01*
X116991610Y-106351387D01*
X117084590Y-106283832D01*
X117157213Y-106231071D01*
X117157215Y-106231068D01*
X117157219Y-106231066D01*
X117301966Y-106086319D01*
X117301968Y-106086315D01*
X117301971Y-106086313D01*
X117354732Y-106013690D01*
X117422287Y-105920710D01*
X117515220Y-105738319D01*
X117578477Y-105543634D01*
X117610500Y-105341452D01*
X117610500Y-105136748D01*
X117578477Y-104934566D01*
X117515220Y-104739881D01*
X117515218Y-104739878D01*
X117515218Y-104739876D01*
X117481503Y-104673707D01*
X117422287Y-104557490D01*
X117414556Y-104546849D01*
X117301971Y-104391886D01*
X117157213Y-104247128D01*
X116991614Y-104126815D01*
X116985006Y-104123448D01*
X116898917Y-104079583D01*
X116848123Y-104031611D01*
X116831328Y-103963790D01*
X116853865Y-103897655D01*
X116898917Y-103858616D01*
X116991610Y-103811387D01*
X117012770Y-103796013D01*
X117157213Y-103691071D01*
X117157215Y-103691068D01*
X117157219Y-103691066D01*
X117301966Y-103546319D01*
X117301968Y-103546315D01*
X117301971Y-103546313D01*
X117354732Y-103473690D01*
X117422287Y-103380710D01*
X117515220Y-103198319D01*
X117578477Y-103003634D01*
X117610500Y-102801452D01*
X117610500Y-102596748D01*
X117587452Y-102451229D01*
X117578477Y-102394565D01*
X117525042Y-102230111D01*
X117515220Y-102199881D01*
X117515218Y-102199878D01*
X117515218Y-102199876D01*
X117481503Y-102133707D01*
X117422287Y-102017490D01*
X117397779Y-101983757D01*
X117301971Y-101851886D01*
X117157217Y-101707132D01*
X117157212Y-101707128D01*
X117076440Y-101648444D01*
X117033774Y-101593115D01*
X117027795Y-101523501D01*
X117060400Y-101461706D01*
X117112433Y-101429741D01*
X117199606Y-101402578D01*
X117345185Y-101314572D01*
X117465472Y-101194285D01*
X117553478Y-101048706D01*
X117604086Y-100886296D01*
X117610500Y-100815716D01*
X117610500Y-99502484D01*
X117604086Y-99431904D01*
X117553478Y-99269494D01*
X117465472Y-99123915D01*
X117465470Y-99123913D01*
X117465469Y-99123911D01*
X117345188Y-99003630D01*
X117199606Y-98915622D01*
X117037196Y-98865014D01*
X117037194Y-98865013D01*
X117037192Y-98865013D01*
X116987778Y-98860523D01*
X116966616Y-98858600D01*
X115653384Y-98858600D01*
X115634145Y-98860348D01*
X115582807Y-98865013D01*
X115420393Y-98915622D01*
X115274811Y-99003630D01*
X115154530Y-99123911D01*
X115066522Y-99269493D01*
X115015913Y-99431907D01*
X115009500Y-99502486D01*
X105010000Y-99502486D01*
X105010000Y-92475000D01*
X100670105Y-92475000D01*
X100670104Y-92475000D01*
X97231936Y-96902231D01*
X97175270Y-96943106D01*
X97105501Y-96946855D01*
X97044780Y-96912290D01*
X97012386Y-96850383D01*
X97010000Y-96826175D01*
X97010000Y-92115880D01*
X97029685Y-92048841D01*
X97082489Y-92003086D01*
X97151647Y-91993142D01*
X97190293Y-92005395D01*
X97193797Y-92007180D01*
X97342389Y-92082893D01*
X97342396Y-92082896D01*
X97443913Y-92115880D01*
X97552049Y-92151015D01*
X97769778Y-92185500D01*
X97769779Y-92185500D01*
X97990221Y-92185500D01*
X97990222Y-92185500D01*
X98207951Y-92151015D01*
X98417606Y-92082895D01*
X98614022Y-91982815D01*
X98792365Y-91853242D01*
X98948242Y-91697365D01*
X98973564Y-91662512D01*
X99049682Y-91557745D01*
X99105011Y-91515079D01*
X99174625Y-91509100D01*
X99236420Y-91541705D01*
X99250318Y-91557745D01*
X99351752Y-91697358D01*
X99351756Y-91697363D01*
X99507636Y-91853243D01*
X99507641Y-91853247D01*
X99663192Y-91966260D01*
X99685978Y-91982815D01*
X99814375Y-92048237D01*
X99882393Y-92082895D01*
X99882396Y-92082896D01*
X99983913Y-92115880D01*
X100092049Y-92151015D01*
X100309778Y-92185500D01*
X100309779Y-92185500D01*
X100530221Y-92185500D01*
X100530222Y-92185500D01*
X100747951Y-92151015D01*
X100957606Y-92082895D01*
X101154022Y-91982815D01*
X101332365Y-91853242D01*
X101488242Y-91697365D01*
X101589991Y-91557317D01*
X101645320Y-91514653D01*
X101714933Y-91508674D01*
X101776729Y-91541279D01*
X101790627Y-91557318D01*
X101892142Y-91697041D01*
X102047958Y-91852857D01*
X102226239Y-91982386D01*
X102422589Y-92082432D01*
X102632163Y-92150526D01*
X102710000Y-92162854D01*
X102710000Y-91000686D01*
X102714394Y-91005080D01*
X102805606Y-91057741D01*
X102907339Y-91085000D01*
X103012661Y-91085000D01*
X103114394Y-91057741D01*
X103205606Y-91005080D01*
X103210000Y-91000686D01*
X103210000Y-92162854D01*
X103287834Y-92150526D01*
X103287837Y-92150526D01*
X103497410Y-92082432D01*
X103693760Y-91982386D01*
X103872041Y-91852857D01*
X104027857Y-91697041D01*
X104027862Y-91697035D01*
X104129372Y-91557319D01*
X104184702Y-91514653D01*
X104254315Y-91508674D01*
X104316110Y-91541279D01*
X104330008Y-91557319D01*
X104431752Y-91697358D01*
X104431756Y-91697363D01*
X104587636Y-91853243D01*
X104587641Y-91853247D01*
X104743192Y-91966260D01*
X104765978Y-91982815D01*
X104894375Y-92048237D01*
X104962393Y-92082895D01*
X104962396Y-92082896D01*
X105063913Y-92115880D01*
X105172049Y-92151015D01*
X105389778Y-92185500D01*
X105389779Y-92185500D01*
X105610221Y-92185500D01*
X105610222Y-92185500D01*
X105827951Y-92151015D01*
X106037606Y-92082895D01*
X106234022Y-91982815D01*
X106412365Y-91853242D01*
X106568242Y-91697365D01*
X106593564Y-91662512D01*
X106669682Y-91557745D01*
X106725011Y-91515079D01*
X106794625Y-91509100D01*
X106856420Y-91541705D01*
X106870318Y-91557745D01*
X106971752Y-91697358D01*
X106971756Y-91697363D01*
X107127636Y-91853243D01*
X107127641Y-91853247D01*
X107283192Y-91966260D01*
X107305978Y-91982815D01*
X107434375Y-92048237D01*
X107502393Y-92082895D01*
X107502396Y-92082896D01*
X107603913Y-92115880D01*
X107712049Y-92151015D01*
X107929778Y-92185500D01*
X107929779Y-92185500D01*
X108150221Y-92185500D01*
X108150222Y-92185500D01*
X108367951Y-92151015D01*
X108577606Y-92082895D01*
X108774022Y-91982815D01*
X108952365Y-91853242D01*
X109108242Y-91697365D01*
X109133564Y-91662512D01*
X109209682Y-91557745D01*
X109265011Y-91515079D01*
X109334625Y-91509100D01*
X109396420Y-91541705D01*
X109410318Y-91557745D01*
X109511752Y-91697358D01*
X109511756Y-91697363D01*
X109667636Y-91853243D01*
X109667641Y-91853247D01*
X109823192Y-91966260D01*
X109845978Y-91982815D01*
X109974375Y-92048237D01*
X110042393Y-92082895D01*
X110042396Y-92082896D01*
X110143913Y-92115880D01*
X110252049Y-92151015D01*
X110469778Y-92185500D01*
X110469779Y-92185500D01*
X110690221Y-92185500D01*
X110690222Y-92185500D01*
X110907951Y-92151015D01*
X111117606Y-92082895D01*
X111314022Y-91982815D01*
X111492365Y-91853242D01*
X111648242Y-91697365D01*
X111724207Y-91592807D01*
X111779535Y-91550143D01*
X111849148Y-91544164D01*
X111910944Y-91576769D01*
X111924838Y-91592803D01*
X111975483Y-91662510D01*
X112142490Y-91829517D01*
X112333567Y-91968343D01*
X112382238Y-91993142D01*
X112544003Y-92075566D01*
X112544005Y-92075566D01*
X112544008Y-92075568D01*
X112664412Y-92114689D01*
X112768631Y-92148553D01*
X113001903Y-92185500D01*
X113001908Y-92185500D01*
X113238097Y-92185500D01*
X113471368Y-92148553D01*
X113695992Y-92075568D01*
X113906433Y-91968343D01*
X114097510Y-91829517D01*
X114264517Y-91662510D01*
X114315467Y-91592382D01*
X114370797Y-91549717D01*
X114440410Y-91543738D01*
X114502205Y-91576343D01*
X114516103Y-91592383D01*
X114592137Y-91697035D01*
X114592142Y-91697041D01*
X114747958Y-91852857D01*
X114926239Y-91982386D01*
X115122589Y-92082432D01*
X115332163Y-92150526D01*
X115409999Y-92162854D01*
X115410000Y-92162854D01*
X115410000Y-91000686D01*
X115414394Y-91005080D01*
X115505606Y-91057741D01*
X115607339Y-91085000D01*
X115712661Y-91085000D01*
X115814394Y-91057741D01*
X115905606Y-91005080D01*
X115910000Y-91000686D01*
X115910000Y-92162854D01*
X115987834Y-92150526D01*
X115987837Y-92150526D01*
X116197410Y-92082432D01*
X116393760Y-91982386D01*
X116572041Y-91852857D01*
X116727857Y-91697041D01*
X116727862Y-91697035D01*
X116829372Y-91557319D01*
X116884702Y-91514653D01*
X116954315Y-91508674D01*
X117016110Y-91541279D01*
X117030008Y-91557319D01*
X117131752Y-91697358D01*
X117131756Y-91697363D01*
X117287636Y-91853243D01*
X117287641Y-91853247D01*
X117443192Y-91966260D01*
X117465978Y-91982815D01*
X117594375Y-92048237D01*
X117662393Y-92082895D01*
X117662396Y-92082896D01*
X117763913Y-92115880D01*
X117872049Y-92151015D01*
X118089778Y-92185500D01*
X118089779Y-92185500D01*
X118310221Y-92185500D01*
X118310222Y-92185500D01*
X118527951Y-92151015D01*
X118737606Y-92082895D01*
X118934022Y-91982815D01*
X119112365Y-91853242D01*
X119268242Y-91697365D01*
X119293564Y-91662512D01*
X119369682Y-91557745D01*
X119425011Y-91515079D01*
X119494625Y-91509100D01*
X119556420Y-91541705D01*
X119570318Y-91557745D01*
X119671752Y-91697358D01*
X119671756Y-91697363D01*
X119827636Y-91853243D01*
X119827641Y-91853247D01*
X119983192Y-91966260D01*
X120005978Y-91982815D01*
X120134375Y-92048237D01*
X120202393Y-92082895D01*
X120202396Y-92082896D01*
X120303913Y-92115880D01*
X120412049Y-92151015D01*
X120629778Y-92185500D01*
X120629779Y-92185500D01*
X120850221Y-92185500D01*
X120850222Y-92185500D01*
X121067951Y-92151015D01*
X121277606Y-92082895D01*
X121474022Y-91982815D01*
X121652365Y-91853242D01*
X121808242Y-91697365D01*
X121833564Y-91662512D01*
X121909682Y-91557745D01*
X121965011Y-91515079D01*
X122034625Y-91509100D01*
X122096420Y-91541705D01*
X122110318Y-91557745D01*
X122211752Y-91697358D01*
X122211756Y-91697363D01*
X122367636Y-91853243D01*
X122367641Y-91853247D01*
X122523192Y-91966260D01*
X122545978Y-91982815D01*
X122674375Y-92048237D01*
X122742393Y-92082895D01*
X122742396Y-92082896D01*
X122843913Y-92115880D01*
X122952049Y-92151015D01*
X123169778Y-92185500D01*
X123169779Y-92185500D01*
X123390221Y-92185500D01*
X123390222Y-92185500D01*
X123607951Y-92151015D01*
X123817606Y-92082895D01*
X124014022Y-91982815D01*
X124192365Y-91853242D01*
X124348242Y-91697365D01*
X124373564Y-91662512D01*
X124449682Y-91557745D01*
X124505011Y-91515079D01*
X124574625Y-91509100D01*
X124636420Y-91541705D01*
X124650318Y-91557745D01*
X124751752Y-91697358D01*
X124751756Y-91697363D01*
X124907636Y-91853243D01*
X124907641Y-91853247D01*
X125063192Y-91966260D01*
X125085978Y-91982815D01*
X125214375Y-92048237D01*
X125282393Y-92082895D01*
X125282396Y-92082896D01*
X125383913Y-92115880D01*
X125492049Y-92151015D01*
X125709778Y-92185500D01*
X125709779Y-92185500D01*
X125930221Y-92185500D01*
X125930222Y-92185500D01*
X126147951Y-92151015D01*
X126357606Y-92082895D01*
X126554022Y-91982815D01*
X126732365Y-91853242D01*
X126888242Y-91697365D01*
X126989991Y-91557317D01*
X127045320Y-91514653D01*
X127114933Y-91508674D01*
X127176729Y-91541279D01*
X127190627Y-91557318D01*
X127292142Y-91697041D01*
X127447958Y-91852857D01*
X127626239Y-91982386D01*
X127822589Y-92082432D01*
X128032163Y-92150526D01*
X128110000Y-92162854D01*
X128110000Y-91000686D01*
X128114394Y-91005080D01*
X128205606Y-91057741D01*
X128307339Y-91085000D01*
X128412661Y-91085000D01*
X128514394Y-91057741D01*
X128605606Y-91005080D01*
X128610000Y-91000686D01*
X128610000Y-92162854D01*
X128687834Y-92150526D01*
X128687837Y-92150526D01*
X128897410Y-92082432D01*
X129093760Y-91982386D01*
X129272041Y-91852857D01*
X129427857Y-91697041D01*
X129427862Y-91697035D01*
X129529372Y-91557319D01*
X129584702Y-91514653D01*
X129654315Y-91508674D01*
X129716110Y-91541279D01*
X129730008Y-91557319D01*
X129831752Y-91697358D01*
X129831756Y-91697363D01*
X129987636Y-91853243D01*
X129987641Y-91853247D01*
X130143192Y-91966260D01*
X130165978Y-91982815D01*
X130294375Y-92048237D01*
X130362393Y-92082895D01*
X130362396Y-92082896D01*
X130463913Y-92115880D01*
X130572049Y-92151015D01*
X130789778Y-92185500D01*
X130789779Y-92185500D01*
X131010221Y-92185500D01*
X131010222Y-92185500D01*
X131227951Y-92151015D01*
X131437606Y-92082895D01*
X131634022Y-91982815D01*
X131812365Y-91853242D01*
X131968242Y-91697365D01*
X131993564Y-91662512D01*
X132069682Y-91557745D01*
X132125011Y-91515079D01*
X132194625Y-91509100D01*
X132256420Y-91541705D01*
X132270318Y-91557745D01*
X132371752Y-91697358D01*
X132371756Y-91697363D01*
X132527636Y-91853243D01*
X132527641Y-91853247D01*
X132683192Y-91966260D01*
X132705978Y-91982815D01*
X132834375Y-92048237D01*
X132902393Y-92082895D01*
X132902396Y-92082896D01*
X133003913Y-92115880D01*
X133112049Y-92151015D01*
X133329778Y-92185500D01*
X133329779Y-92185500D01*
X133550221Y-92185500D01*
X133550222Y-92185500D01*
X133767951Y-92151015D01*
X133977606Y-92082895D01*
X134174022Y-91982815D01*
X134352365Y-91853242D01*
X134508242Y-91697365D01*
X134533564Y-91662512D01*
X134609682Y-91557745D01*
X134665011Y-91515079D01*
X134734625Y-91509100D01*
X134796420Y-91541705D01*
X134810318Y-91557745D01*
X134911752Y-91697358D01*
X134911756Y-91697363D01*
X135067636Y-91853243D01*
X135067641Y-91853247D01*
X135223192Y-91966260D01*
X135245978Y-91982815D01*
X135374375Y-92048237D01*
X135442393Y-92082895D01*
X135442396Y-92082896D01*
X135543913Y-92115880D01*
X135652049Y-92151015D01*
X135869778Y-92185500D01*
X135869779Y-92185500D01*
X136090221Y-92185500D01*
X136090222Y-92185500D01*
X136307951Y-92151015D01*
X136517606Y-92082895D01*
X136714022Y-91982815D01*
X136892365Y-91853242D01*
X137048242Y-91697365D01*
X137073564Y-91662512D01*
X137149682Y-91557745D01*
X137205011Y-91515079D01*
X137274625Y-91509100D01*
X137336420Y-91541705D01*
X137350318Y-91557745D01*
X137451752Y-91697358D01*
X137451756Y-91697363D01*
X137607636Y-91853243D01*
X137607641Y-91853247D01*
X137763192Y-91966260D01*
X137785978Y-91982815D01*
X137914375Y-92048237D01*
X137982393Y-92082895D01*
X137982396Y-92082896D01*
X138083913Y-92115880D01*
X138192049Y-92151015D01*
X138409778Y-92185500D01*
X138409779Y-92185500D01*
X138630221Y-92185500D01*
X138630222Y-92185500D01*
X138847951Y-92151015D01*
X139057606Y-92082895D01*
X139254022Y-91982815D01*
X139432365Y-91853242D01*
X139588242Y-91697365D01*
X139689991Y-91557317D01*
X139745320Y-91514653D01*
X139814933Y-91508674D01*
X139876729Y-91541279D01*
X139890627Y-91557318D01*
X139992142Y-91697041D01*
X140147958Y-91852857D01*
X140326239Y-91982386D01*
X140522589Y-92082432D01*
X140732163Y-92150526D01*
X140810000Y-92162854D01*
X140810000Y-91000686D01*
X140814394Y-91005080D01*
X140905606Y-91057741D01*
X141007339Y-91085000D01*
X141112661Y-91085000D01*
X141214394Y-91057741D01*
X141305606Y-91005080D01*
X141310000Y-91000686D01*
X141310000Y-92162854D01*
X141387834Y-92150526D01*
X141387837Y-92150526D01*
X141597410Y-92082432D01*
X141793760Y-91982386D01*
X141972041Y-91852857D01*
X142127857Y-91697041D01*
X142127862Y-91697035D01*
X142229372Y-91557319D01*
X142284702Y-91514653D01*
X142354315Y-91508674D01*
X142416110Y-91541279D01*
X142430008Y-91557319D01*
X142531752Y-91697358D01*
X142531756Y-91697363D01*
X142687636Y-91853243D01*
X142687641Y-91853247D01*
X142843192Y-91966260D01*
X142865978Y-91982815D01*
X142994375Y-92048237D01*
X143062393Y-92082895D01*
X143062396Y-92082896D01*
X143163913Y-92115880D01*
X143272049Y-92151015D01*
X143489778Y-92185500D01*
X143489779Y-92185500D01*
X143710221Y-92185500D01*
X143710222Y-92185500D01*
X143927951Y-92151015D01*
X144137606Y-92082895D01*
X144334022Y-91982815D01*
X144512365Y-91853242D01*
X144668242Y-91697365D01*
X144693564Y-91662512D01*
X144769682Y-91557745D01*
X144825011Y-91515079D01*
X144894625Y-91509100D01*
X144956420Y-91541705D01*
X144970318Y-91557745D01*
X145071752Y-91697358D01*
X145071756Y-91697363D01*
X145227636Y-91853243D01*
X145227641Y-91853247D01*
X145383192Y-91966260D01*
X145405978Y-91982815D01*
X145534375Y-92048237D01*
X145602393Y-92082895D01*
X145602396Y-92082896D01*
X145703913Y-92115880D01*
X145812049Y-92151015D01*
X146029778Y-92185500D01*
X146029779Y-92185500D01*
X146250221Y-92185500D01*
X146250222Y-92185500D01*
X146467951Y-92151015D01*
X146677606Y-92082895D01*
X146874022Y-91982815D01*
X147052365Y-91853242D01*
X147208242Y-91697365D01*
X147337815Y-91519022D01*
X147437895Y-91322606D01*
X147506015Y-91112951D01*
X147540500Y-90895222D01*
X147540500Y-88864778D01*
X147506015Y-88647049D01*
X147458074Y-88499500D01*
X147437896Y-88437396D01*
X147437895Y-88437393D01*
X147398353Y-88359790D01*
X147337815Y-88240978D01*
X147293970Y-88180630D01*
X147208247Y-88062641D01*
X147208243Y-88062636D01*
X147052363Y-87906756D01*
X147052358Y-87906752D01*
X146874023Y-87777185D01*
X146791200Y-87734984D01*
X146740405Y-87687010D01*
X146723610Y-87619189D01*
X146746148Y-87553054D01*
X146800863Y-87509603D01*
X146847496Y-87500500D01*
X149735538Y-87500500D01*
X149802577Y-87520185D01*
G37*
%TD.AperFunction*%
%TA.AperFunction,Conductor*%
G36*
X151364682Y-84291550D02*
G01*
X151402468Y-84317388D01*
X156038860Y-88953780D01*
X156072345Y-89015103D01*
X156069110Y-89079778D01*
X156031523Y-89195462D01*
X155999500Y-89397648D01*
X155999500Y-89602351D01*
X156031522Y-89804534D01*
X156094781Y-89999223D01*
X156158691Y-90124653D01*
X156165246Y-90137517D01*
X156187715Y-90181613D01*
X156308028Y-90347213D01*
X156452786Y-90491971D01*
X156607749Y-90604556D01*
X156618390Y-90612287D01*
X156734607Y-90671503D01*
X156800776Y-90705218D01*
X156800778Y-90705218D01*
X156800781Y-90705220D01*
X156900624Y-90737661D01*
X156995465Y-90768477D01*
X157080568Y-90781956D01*
X157197648Y-90800500D01*
X157197649Y-90800500D01*
X158802351Y-90800500D01*
X158802352Y-90800500D01*
X159004534Y-90768477D01*
X159199219Y-90705220D01*
X159381610Y-90612287D01*
X159502877Y-90524181D01*
X159568683Y-90500702D01*
X159575762Y-90500500D01*
X162125500Y-90500500D01*
X162192539Y-90520185D01*
X162238294Y-90572989D01*
X162249500Y-90624500D01*
X162249500Y-91342870D01*
X162249501Y-91342876D01*
X162255908Y-91402483D01*
X162306202Y-91537328D01*
X162306206Y-91537335D01*
X162392452Y-91652544D01*
X162392455Y-91652547D01*
X162507664Y-91738793D01*
X162507671Y-91738797D01*
X162642517Y-91789091D01*
X162642516Y-91789091D01*
X162649444Y-91789835D01*
X162702127Y-91795500D01*
X163728110Y-91795499D01*
X163795149Y-91815183D01*
X163840904Y-91867987D01*
X163850848Y-91937146D01*
X163821823Y-92000702D01*
X163815791Y-92007180D01*
X148894792Y-106928181D01*
X148833469Y-106961666D01*
X148807111Y-106964500D01*
X146021903Y-106964500D01*
X145788631Y-107001446D01*
X145564003Y-107074433D01*
X145353565Y-107181657D01*
X145162488Y-107320484D01*
X144995485Y-107487487D01*
X144995478Y-107487496D01*
X144944841Y-107557191D01*
X144889511Y-107599857D01*
X144819898Y-107605835D01*
X144758103Y-107573229D01*
X144744206Y-107557190D01*
X144668247Y-107452641D01*
X144668243Y-107452636D01*
X144512363Y-107296756D01*
X144512358Y-107296752D01*
X144334025Y-107167187D01*
X144334024Y-107167186D01*
X144334022Y-107167185D01*
X144263445Y-107131224D01*
X144137606Y-107067104D01*
X144137603Y-107067103D01*
X143927952Y-106998985D01*
X143819086Y-106981742D01*
X143710222Y-106964500D01*
X143489778Y-106964500D01*
X143417201Y-106975995D01*
X143272047Y-106998985D01*
X143062396Y-107067103D01*
X143062393Y-107067104D01*
X142865974Y-107167187D01*
X142687641Y-107296752D01*
X142687636Y-107296756D01*
X142531756Y-107452636D01*
X142430008Y-107592681D01*
X142374678Y-107635346D01*
X142305065Y-107641325D01*
X142243270Y-107608719D01*
X142229372Y-107592680D01*
X142127862Y-107452964D01*
X142127857Y-107452958D01*
X141972041Y-107297142D01*
X141793760Y-107167613D01*
X141597410Y-107067567D01*
X141387836Y-106999473D01*
X141310000Y-106987144D01*
X141310000Y-108149314D01*
X141305606Y-108144920D01*
X141214394Y-108092259D01*
X141112661Y-108065000D01*
X141007339Y-108065000D01*
X140905606Y-108092259D01*
X140814394Y-108144920D01*
X140810000Y-108149314D01*
X140810000Y-106987144D01*
X140732164Y-106999473D01*
X140732161Y-106999473D01*
X140522589Y-107067567D01*
X140326239Y-107167613D01*
X140147958Y-107297142D01*
X139992142Y-107452958D01*
X139992142Y-107452959D01*
X139890627Y-107592681D01*
X139835297Y-107635346D01*
X139765683Y-107641325D01*
X139703888Y-107608719D01*
X139689991Y-107592680D01*
X139588247Y-107452641D01*
X139588243Y-107452636D01*
X139432363Y-107296756D01*
X139432358Y-107296752D01*
X139254025Y-107167187D01*
X139254024Y-107167186D01*
X139254022Y-107167185D01*
X139183445Y-107131224D01*
X139057606Y-107067104D01*
X139057603Y-107067103D01*
X138847952Y-106998985D01*
X138739086Y-106981742D01*
X138630222Y-106964500D01*
X138409778Y-106964500D01*
X138337201Y-106975995D01*
X138192047Y-106998985D01*
X137982396Y-107067103D01*
X137982393Y-107067104D01*
X137785974Y-107167187D01*
X137677385Y-107246081D01*
X137611578Y-107269561D01*
X137543525Y-107253735D01*
X137494830Y-107203629D01*
X137480500Y-107145763D01*
X137480500Y-106596974D01*
X137500185Y-106529935D01*
X137516814Y-106509298D01*
X141670108Y-102356003D01*
X141731429Y-102322520D01*
X141801121Y-102327504D01*
X141857054Y-102369376D01*
X141875718Y-102405369D01*
X141890618Y-102451229D01*
X141890620Y-102451235D01*
X141964764Y-102596748D01*
X141974622Y-102616096D01*
X142083379Y-102765787D01*
X142214213Y-102896621D01*
X142363904Y-103005378D01*
X142444763Y-103046577D01*
X142528764Y-103089379D01*
X142528767Y-103089380D01*
X142616750Y-103117967D01*
X142704736Y-103146555D01*
X142887486Y-103175500D01*
X142887487Y-103175500D01*
X143072513Y-103175500D01*
X143072514Y-103175500D01*
X143255264Y-103146555D01*
X143431235Y-103089379D01*
X143596096Y-103005378D01*
X143745787Y-102896621D01*
X143876621Y-102765787D01*
X143985378Y-102616096D01*
X144069379Y-102451235D01*
X144126555Y-102275264D01*
X144155500Y-102092514D01*
X144155500Y-101907486D01*
X144126555Y-101724736D01*
X144083485Y-101592179D01*
X144069380Y-101548767D01*
X144069378Y-101548764D01*
X144047485Y-101505795D01*
X144034589Y-101437125D01*
X144060866Y-101372385D01*
X144117972Y-101332128D01*
X144157970Y-101325500D01*
X144805342Y-101325500D01*
X144872381Y-101345185D01*
X144918136Y-101397989D01*
X144928080Y-101467147D01*
X144905660Y-101522385D01*
X144854951Y-101592180D01*
X144758444Y-101781585D01*
X144692753Y-101983760D01*
X144659500Y-102193713D01*
X144659500Y-102406286D01*
X144692730Y-102616096D01*
X144692754Y-102616243D01*
X144752932Y-102801452D01*
X144758444Y-102818414D01*
X144854951Y-103007820D01*
X144979890Y-103179786D01*
X145130213Y-103330109D01*
X145302179Y-103455048D01*
X145302181Y-103455049D01*
X145302184Y-103455051D01*
X145491588Y-103551557D01*
X145693757Y-103617246D01*
X145903713Y-103650500D01*
X145903714Y-103650500D01*
X146116286Y-103650500D01*
X146116287Y-103650500D01*
X146326243Y-103617246D01*
X146528412Y-103551557D01*
X146717816Y-103455051D01*
X146739789Y-103439086D01*
X146889786Y-103330109D01*
X146889788Y-103330106D01*
X146889792Y-103330104D01*
X147040104Y-103179792D01*
X147040106Y-103179788D01*
X147040109Y-103179786D01*
X147165048Y-103007820D01*
X147165047Y-103007820D01*
X147165051Y-103007816D01*
X147261557Y-102818412D01*
X147327246Y-102616243D01*
X147360500Y-102406287D01*
X147360500Y-102193713D01*
X147327246Y-101983757D01*
X147261557Y-101781588D01*
X147165051Y-101592184D01*
X147165049Y-101592181D01*
X147165048Y-101592179D01*
X147040109Y-101420213D01*
X146989539Y-101369643D01*
X146956054Y-101308320D01*
X146961038Y-101238628D01*
X147002910Y-101182695D01*
X147020917Y-101171482D01*
X147144836Y-101108343D01*
X147335912Y-100969517D01*
X154224517Y-94080912D01*
X154363343Y-93889836D01*
X154470568Y-93679394D01*
X154543553Y-93454770D01*
X154580500Y-93221499D01*
X154580500Y-88553475D01*
X154543553Y-88320204D01*
X154504231Y-88199184D01*
X154470568Y-88095581D01*
X154470566Y-88095578D01*
X154470566Y-88095576D01*
X154411677Y-87980000D01*
X154363343Y-87885140D01*
X154332692Y-87842952D01*
X154224518Y-87694063D01*
X151385937Y-84855483D01*
X151194861Y-84716657D01*
X150984419Y-84609432D01*
X150778212Y-84542431D01*
X150720537Y-84502993D01*
X150693339Y-84438634D01*
X150705254Y-84369788D01*
X150752498Y-84318312D01*
X150816531Y-84300500D01*
X151182351Y-84300500D01*
X151182352Y-84300500D01*
X151295389Y-84282596D01*
X151364682Y-84291550D01*
G37*
%TD.AperFunction*%
%TA.AperFunction,Conductor*%
G36*
X162490614Y-80520185D02*
G01*
X162536369Y-80572989D01*
X162546313Y-80642147D01*
X162517288Y-80705703D01*
X162461894Y-80742431D01*
X162300776Y-80794781D01*
X162118386Y-80887715D01*
X161952786Y-81008028D01*
X161808028Y-81152786D01*
X161687715Y-81318386D01*
X161594781Y-81500776D01*
X161531522Y-81695465D01*
X161499500Y-81897648D01*
X161499500Y-82102351D01*
X161531522Y-82304534D01*
X161594781Y-82499223D01*
X161657905Y-82623108D01*
X161672382Y-82651522D01*
X161687715Y-82681613D01*
X161808028Y-82847213D01*
X161873487Y-82912672D01*
X161906972Y-82973995D01*
X161901988Y-83043687D01*
X161873488Y-83088034D01*
X161808414Y-83153108D01*
X161688140Y-83318650D01*
X161595244Y-83500970D01*
X161532009Y-83695586D01*
X161523391Y-83750000D01*
X163184314Y-83750000D01*
X163179920Y-83754394D01*
X163127259Y-83845606D01*
X163100000Y-83947339D01*
X163100000Y-84052661D01*
X163127259Y-84154394D01*
X163179920Y-84245606D01*
X163184314Y-84250000D01*
X161523391Y-84250000D01*
X161532009Y-84304413D01*
X161595244Y-84499029D01*
X161688140Y-84681349D01*
X161808417Y-84846894D01*
X161808417Y-84846895D01*
X161953104Y-84991582D01*
X162118650Y-85111859D01*
X162300968Y-85204755D01*
X162495582Y-85267990D01*
X162697683Y-85300000D01*
X163250000Y-85300000D01*
X163250000Y-84315686D01*
X163254394Y-84320080D01*
X163345606Y-84372741D01*
X163447339Y-84400000D01*
X163552661Y-84400000D01*
X163654394Y-84372741D01*
X163745606Y-84320080D01*
X163750000Y-84315686D01*
X163750000Y-85300000D01*
X164302317Y-85300000D01*
X164504417Y-85267990D01*
X164699031Y-85204755D01*
X164881349Y-85111859D01*
X165046894Y-84991582D01*
X165046895Y-84991582D01*
X165191582Y-84846895D01*
X165191582Y-84846894D01*
X165311859Y-84681349D01*
X165404755Y-84499029D01*
X165467990Y-84304413D01*
X165476609Y-84250000D01*
X163815686Y-84250000D01*
X163820080Y-84245606D01*
X163872741Y-84154394D01*
X163900000Y-84052661D01*
X163900000Y-83947339D01*
X163872741Y-83845606D01*
X163820080Y-83754394D01*
X163815686Y-83750000D01*
X165476609Y-83750000D01*
X165467990Y-83695586D01*
X165404755Y-83500970D01*
X165311859Y-83318650D01*
X165223755Y-83197386D01*
X165200275Y-83131580D01*
X165216100Y-83063526D01*
X165266206Y-83014831D01*
X165324073Y-83000500D01*
X166877463Y-83000500D01*
X166944502Y-83020185D01*
X166990257Y-83072989D01*
X166999935Y-83105098D01*
X167007539Y-83153108D01*
X167031523Y-83304534D01*
X167094781Y-83499223D01*
X167154010Y-83615465D01*
X167165381Y-83637782D01*
X167187715Y-83681613D01*
X167308028Y-83847213D01*
X167452779Y-83991964D01*
X167456038Y-83994748D01*
X167494227Y-84053258D01*
X167499500Y-84089033D01*
X167499500Y-88272109D01*
X167479815Y-88339148D01*
X167463181Y-88359790D01*
X164962180Y-90860791D01*
X164900857Y-90894276D01*
X164831165Y-90889292D01*
X164775232Y-90847420D01*
X164750815Y-90781956D01*
X164750499Y-90773110D01*
X164750499Y-90197129D01*
X164750498Y-90197123D01*
X164744091Y-90137516D01*
X164693797Y-90002671D01*
X164693796Y-90002670D01*
X164693796Y-90002669D01*
X164692967Y-90001562D01*
X164692485Y-90000268D01*
X164689546Y-89994886D01*
X164690319Y-89994463D01*
X164668551Y-89936099D01*
X164677675Y-89879798D01*
X164711089Y-89799132D01*
X164711089Y-89799131D01*
X164711091Y-89799127D01*
X164750500Y-89601003D01*
X164750500Y-89398997D01*
X164711091Y-89200873D01*
X164633786Y-89014244D01*
X164579794Y-88933439D01*
X164558917Y-88866764D01*
X164577401Y-88799384D01*
X164579796Y-88795658D01*
X164633344Y-88715518D01*
X164633346Y-88715515D01*
X164710609Y-88528983D01*
X164710612Y-88528974D01*
X164720353Y-88480000D01*
X163865866Y-88480000D01*
X163841674Y-88477617D01*
X163826004Y-88474500D01*
X163826003Y-88474500D01*
X163785830Y-88474500D01*
X163800075Y-88460255D01*
X163849444Y-88374745D01*
X163875000Y-88279370D01*
X163875000Y-88180630D01*
X163849444Y-88085255D01*
X163800075Y-87999745D01*
X163780330Y-87980000D01*
X164720353Y-87980000D01*
X164710612Y-87931025D01*
X164710609Y-87931016D01*
X164633347Y-87744486D01*
X164633340Y-87744473D01*
X164521170Y-87576600D01*
X164521167Y-87576596D01*
X164378403Y-87433832D01*
X164378399Y-87433829D01*
X164210526Y-87321659D01*
X164210513Y-87321652D01*
X164023983Y-87244390D01*
X164023974Y-87244387D01*
X163825958Y-87205000D01*
X163750000Y-87205000D01*
X163750000Y-87949670D01*
X163730255Y-87929925D01*
X163644745Y-87880556D01*
X163549370Y-87855000D01*
X163450630Y-87855000D01*
X163355255Y-87880556D01*
X163269745Y-87929925D01*
X163250000Y-87949670D01*
X163250000Y-87205000D01*
X163174041Y-87205000D01*
X162976025Y-87244387D01*
X162976016Y-87244390D01*
X162789486Y-87321652D01*
X162789473Y-87321659D01*
X162621600Y-87433829D01*
X162621596Y-87433832D01*
X162478832Y-87576596D01*
X162478829Y-87576600D01*
X162366659Y-87744473D01*
X162366652Y-87744486D01*
X162289390Y-87931016D01*
X162289387Y-87931025D01*
X162279647Y-87980000D01*
X163219670Y-87980000D01*
X163199925Y-87999745D01*
X163150556Y-88085255D01*
X163125000Y-88180630D01*
X163125000Y-88279370D01*
X163150556Y-88374745D01*
X163199925Y-88460255D01*
X163214170Y-88474500D01*
X163173997Y-88474500D01*
X163173996Y-88474500D01*
X163158327Y-88477617D01*
X163134134Y-88480000D01*
X162262921Y-88480000D01*
X162243104Y-88493499D01*
X162204996Y-88499500D01*
X159575762Y-88499500D01*
X159508723Y-88479815D01*
X159502877Y-88475818D01*
X159381613Y-88387715D01*
X159381612Y-88387714D01*
X159381610Y-88387713D01*
X159324653Y-88358691D01*
X159199223Y-88294781D01*
X159004534Y-88231522D01*
X158829995Y-88203878D01*
X158802352Y-88199500D01*
X158802351Y-88199500D01*
X158165782Y-88199500D01*
X158136341Y-88190855D01*
X158106355Y-88184332D01*
X158101339Y-88180577D01*
X158098743Y-88179815D01*
X158078101Y-88163181D01*
X152664920Y-82750000D01*
X156023391Y-82750000D01*
X157684314Y-82750000D01*
X157679920Y-82754394D01*
X157627259Y-82845606D01*
X157600000Y-82947339D01*
X157600000Y-83052661D01*
X157627259Y-83154394D01*
X157679920Y-83245606D01*
X157684314Y-83250000D01*
X156023391Y-83250000D01*
X156032009Y-83304413D01*
X156095244Y-83499029D01*
X156188140Y-83681349D01*
X156308417Y-83846894D01*
X156308417Y-83846895D01*
X156453104Y-83991582D01*
X156618650Y-84111859D01*
X156800968Y-84204755D01*
X156995582Y-84267990D01*
X157197683Y-84300000D01*
X157750000Y-84300000D01*
X157750000Y-83315686D01*
X157754394Y-83320080D01*
X157845606Y-83372741D01*
X157947339Y-83400000D01*
X158052661Y-83400000D01*
X158154394Y-83372741D01*
X158245606Y-83320080D01*
X158250000Y-83315686D01*
X158250000Y-84300000D01*
X158802317Y-84300000D01*
X159004417Y-84267990D01*
X159199031Y-84204755D01*
X159381348Y-84111860D01*
X159546894Y-83991582D01*
X159546895Y-83991582D01*
X159691582Y-83846895D01*
X159691582Y-83846894D01*
X159811859Y-83681349D01*
X159904755Y-83499029D01*
X159967990Y-83304413D01*
X159976609Y-83250000D01*
X158315686Y-83250000D01*
X158320080Y-83245606D01*
X158372741Y-83154394D01*
X158400000Y-83052661D01*
X158400000Y-82947339D01*
X158372741Y-82845606D01*
X158320080Y-82754394D01*
X158315686Y-82750000D01*
X159976609Y-82750000D01*
X159967990Y-82695586D01*
X159904755Y-82500970D01*
X159811859Y-82318650D01*
X159691582Y-82153105D01*
X159691582Y-82153104D01*
X159546895Y-82008417D01*
X159381349Y-81888140D01*
X159199031Y-81795244D01*
X159004417Y-81732009D01*
X158802317Y-81700000D01*
X158250000Y-81700000D01*
X158250000Y-82684314D01*
X158245606Y-82679920D01*
X158154394Y-82627259D01*
X158052661Y-82600000D01*
X157947339Y-82600000D01*
X157845606Y-82627259D01*
X157754394Y-82679920D01*
X157750000Y-82684314D01*
X157750000Y-81700000D01*
X157197683Y-81700000D01*
X156995582Y-81732009D01*
X156800968Y-81795244D01*
X156618650Y-81888140D01*
X156453105Y-82008417D01*
X156453104Y-82008417D01*
X156308417Y-82153104D01*
X156308417Y-82153105D01*
X156188140Y-82318650D01*
X156095244Y-82500970D01*
X156032009Y-82695586D01*
X156023391Y-82750000D01*
X152664920Y-82750000D01*
X152281479Y-82366559D01*
X152281459Y-82366537D01*
X152137783Y-82222861D01*
X152127233Y-82215812D01*
X152095808Y-82185597D01*
X152072201Y-82153105D01*
X152071966Y-82152781D01*
X151927219Y-82008034D01*
X151927213Y-82008028D01*
X151761613Y-81887715D01*
X151761612Y-81887714D01*
X151761610Y-81887713D01*
X151704653Y-81858691D01*
X151579223Y-81794781D01*
X151384534Y-81731522D01*
X151209995Y-81703878D01*
X151182352Y-81699500D01*
X149577648Y-81699500D01*
X149553329Y-81703351D01*
X149375465Y-81731522D01*
X149180776Y-81794781D01*
X148998386Y-81887715D01*
X148832786Y-82008028D01*
X148688028Y-82152786D01*
X148567715Y-82318386D01*
X148474781Y-82500776D01*
X148411522Y-82695465D01*
X148379500Y-82897648D01*
X148379500Y-83102351D01*
X148411522Y-83304534D01*
X148474781Y-83499223D01*
X148534010Y-83615465D01*
X148545381Y-83637782D01*
X148567715Y-83681613D01*
X148688028Y-83847213D01*
X148832786Y-83991971D01*
X148966383Y-84089033D01*
X148998390Y-84112287D01*
X149081030Y-84154394D01*
X149180776Y-84205218D01*
X149180778Y-84205218D01*
X149180781Y-84205220D01*
X149284881Y-84239044D01*
X149341894Y-84257569D01*
X149399569Y-84297007D01*
X149426767Y-84361366D01*
X149414852Y-84430212D01*
X149367608Y-84481688D01*
X149303575Y-84499500D01*
X146484500Y-84499500D01*
X146417461Y-84479815D01*
X146371706Y-84427011D01*
X146360500Y-84375500D01*
X146360500Y-80624500D01*
X146380185Y-80557461D01*
X146432989Y-80511706D01*
X146484500Y-80500500D01*
X162423575Y-80500500D01*
X162490614Y-80520185D01*
G37*
%TD.AperFunction*%
%TA.AperFunction,Conductor*%
G36*
X112285703Y-79408176D02*
G01*
X112292181Y-79414208D01*
X113022490Y-80144517D01*
X113213566Y-80283343D01*
X113312992Y-80334003D01*
X113424003Y-80390566D01*
X113424005Y-80390566D01*
X113424008Y-80390568D01*
X113544412Y-80429689D01*
X113648631Y-80463553D01*
X113881903Y-80500500D01*
X113881908Y-80500500D01*
X114118092Y-80500500D01*
X143235500Y-80500500D01*
X143302539Y-80520185D01*
X143348294Y-80572989D01*
X143359500Y-80624500D01*
X143359500Y-81777157D01*
X143339815Y-81844196D01*
X143287011Y-81889951D01*
X143217853Y-81899895D01*
X143162615Y-81877475D01*
X143106436Y-81836659D01*
X143106435Y-81836658D01*
X143106433Y-81836657D01*
X143040715Y-81803172D01*
X142895996Y-81729433D01*
X142671368Y-81656446D01*
X142438097Y-81619500D01*
X142438092Y-81619500D01*
X142201908Y-81619500D01*
X142201903Y-81619500D01*
X141968631Y-81656446D01*
X141744003Y-81729433D01*
X141533566Y-81836657D01*
X141424550Y-81915862D01*
X141342490Y-81975483D01*
X141342488Y-81975485D01*
X141342487Y-81975485D01*
X141175484Y-82142488D01*
X141150318Y-82177127D01*
X141094987Y-82219792D01*
X141025374Y-82225771D01*
X140963579Y-82193165D01*
X140949682Y-82177127D01*
X140932229Y-82153105D01*
X140924517Y-82142490D01*
X140757510Y-81975483D01*
X140566433Y-81836657D01*
X140355996Y-81729433D01*
X140131368Y-81656446D01*
X139898097Y-81619500D01*
X139898092Y-81619500D01*
X139661908Y-81619500D01*
X139661903Y-81619500D01*
X139428631Y-81656446D01*
X139204003Y-81729433D01*
X138993566Y-81836657D01*
X138884550Y-81915862D01*
X138802490Y-81975483D01*
X138802488Y-81975485D01*
X138802487Y-81975485D01*
X138635484Y-82142488D01*
X138610318Y-82177127D01*
X138554987Y-82219792D01*
X138485374Y-82225771D01*
X138423579Y-82193165D01*
X138409682Y-82177127D01*
X138392229Y-82153105D01*
X138384517Y-82142490D01*
X138217510Y-81975483D01*
X138026433Y-81836657D01*
X137815996Y-81729433D01*
X137591368Y-81656446D01*
X137358097Y-81619500D01*
X137358092Y-81619500D01*
X137121908Y-81619500D01*
X137121903Y-81619500D01*
X136888631Y-81656446D01*
X136664003Y-81729433D01*
X136453566Y-81836657D01*
X136344550Y-81915862D01*
X136262490Y-81975483D01*
X136262488Y-81975485D01*
X136262487Y-81975485D01*
X136095484Y-82142488D01*
X136070318Y-82177127D01*
X136014987Y-82219792D01*
X135945374Y-82225771D01*
X135883579Y-82193165D01*
X135869682Y-82177127D01*
X135852229Y-82153105D01*
X135844517Y-82142490D01*
X135677510Y-81975483D01*
X135486433Y-81836657D01*
X135275996Y-81729433D01*
X135051368Y-81656446D01*
X134818097Y-81619500D01*
X134818092Y-81619500D01*
X134581908Y-81619500D01*
X134581903Y-81619500D01*
X134348631Y-81656446D01*
X134124003Y-81729433D01*
X133913566Y-81836657D01*
X133804550Y-81915862D01*
X133722490Y-81975483D01*
X133722488Y-81975485D01*
X133722487Y-81975485D01*
X133555484Y-82142488D01*
X133530318Y-82177127D01*
X133474987Y-82219792D01*
X133405374Y-82225771D01*
X133343579Y-82193165D01*
X133329682Y-82177127D01*
X133312229Y-82153105D01*
X133304517Y-82142490D01*
X133137510Y-81975483D01*
X132946433Y-81836657D01*
X132735996Y-81729433D01*
X132511368Y-81656446D01*
X132278097Y-81619500D01*
X132278092Y-81619500D01*
X132041908Y-81619500D01*
X132041903Y-81619500D01*
X131808631Y-81656446D01*
X131584003Y-81729433D01*
X131373566Y-81836657D01*
X131264550Y-81915862D01*
X131182490Y-81975483D01*
X131182488Y-81975485D01*
X131182487Y-81975485D01*
X131015484Y-82142488D01*
X130990318Y-82177127D01*
X130934987Y-82219792D01*
X130865374Y-82225771D01*
X130803579Y-82193165D01*
X130789682Y-82177127D01*
X130772229Y-82153105D01*
X130764517Y-82142490D01*
X130597510Y-81975483D01*
X130406433Y-81836657D01*
X130195996Y-81729433D01*
X129971368Y-81656446D01*
X129738097Y-81619500D01*
X129738092Y-81619500D01*
X129501908Y-81619500D01*
X129501903Y-81619500D01*
X129268631Y-81656446D01*
X129044003Y-81729433D01*
X128833566Y-81836657D01*
X128724550Y-81915862D01*
X128642490Y-81975483D01*
X128642488Y-81975485D01*
X128642487Y-81975485D01*
X128475484Y-82142488D01*
X128450318Y-82177127D01*
X128394987Y-82219792D01*
X128325374Y-82225771D01*
X128263579Y-82193165D01*
X128249682Y-82177127D01*
X128232229Y-82153105D01*
X128224517Y-82142490D01*
X128057510Y-81975483D01*
X127866433Y-81836657D01*
X127655996Y-81729433D01*
X127431368Y-81656446D01*
X127198097Y-81619500D01*
X127198092Y-81619500D01*
X126961908Y-81619500D01*
X126961903Y-81619500D01*
X126728631Y-81656446D01*
X126504003Y-81729433D01*
X126293566Y-81836657D01*
X126184550Y-81915862D01*
X126102490Y-81975483D01*
X126102488Y-81975485D01*
X126102487Y-81975485D01*
X125935484Y-82142488D01*
X125910318Y-82177127D01*
X125854987Y-82219792D01*
X125785374Y-82225771D01*
X125723579Y-82193165D01*
X125709682Y-82177127D01*
X125692229Y-82153105D01*
X125684517Y-82142490D01*
X125517510Y-81975483D01*
X125326433Y-81836657D01*
X125115996Y-81729433D01*
X124891368Y-81656446D01*
X124658097Y-81619500D01*
X124658092Y-81619500D01*
X124421908Y-81619500D01*
X124421903Y-81619500D01*
X124188631Y-81656446D01*
X123964003Y-81729433D01*
X123753566Y-81836657D01*
X123644550Y-81915862D01*
X123562490Y-81975483D01*
X123562488Y-81975485D01*
X123562487Y-81975485D01*
X123395484Y-82142488D01*
X123370318Y-82177127D01*
X123314987Y-82219792D01*
X123245374Y-82225771D01*
X123183579Y-82193165D01*
X123169682Y-82177127D01*
X123152229Y-82153105D01*
X123144517Y-82142490D01*
X122977510Y-81975483D01*
X122786433Y-81836657D01*
X122575996Y-81729433D01*
X122351368Y-81656446D01*
X122118097Y-81619500D01*
X122118092Y-81619500D01*
X121881908Y-81619500D01*
X121881903Y-81619500D01*
X121648631Y-81656446D01*
X121424003Y-81729433D01*
X121213566Y-81836657D01*
X121104550Y-81915862D01*
X121022490Y-81975483D01*
X121022488Y-81975485D01*
X121022487Y-81975485D01*
X120855484Y-82142488D01*
X120830318Y-82177127D01*
X120774987Y-82219792D01*
X120705374Y-82225771D01*
X120643579Y-82193165D01*
X120629682Y-82177127D01*
X120612229Y-82153105D01*
X120604517Y-82142490D01*
X120437510Y-81975483D01*
X120246433Y-81836657D01*
X120035996Y-81729433D01*
X119811368Y-81656446D01*
X119578097Y-81619500D01*
X119578092Y-81619500D01*
X119341908Y-81619500D01*
X119341903Y-81619500D01*
X119108631Y-81656446D01*
X118884003Y-81729433D01*
X118673566Y-81836657D01*
X118564550Y-81915862D01*
X118482490Y-81975483D01*
X118482488Y-81975485D01*
X118482487Y-81975485D01*
X118315485Y-82142487D01*
X118315485Y-82142488D01*
X118315483Y-82142490D01*
X118275086Y-82198092D01*
X118176657Y-82333566D01*
X118069433Y-82544003D01*
X117996446Y-82768631D01*
X117959500Y-83001902D01*
X117959500Y-86118097D01*
X117993511Y-86332832D01*
X117984557Y-86402125D01*
X117958719Y-86439911D01*
X117617049Y-86781582D01*
X117603685Y-86801584D01*
X117534913Y-86904508D01*
X117478343Y-87041082D01*
X117478340Y-87041092D01*
X117449500Y-87186079D01*
X117449500Y-87725975D01*
X117429815Y-87793014D01*
X117398387Y-87826291D01*
X117358874Y-87855000D01*
X117287632Y-87906760D01*
X117131756Y-88062636D01*
X117030008Y-88202681D01*
X116974678Y-88245346D01*
X116905065Y-88251325D01*
X116843270Y-88218719D01*
X116829372Y-88202680D01*
X116727862Y-88062964D01*
X116727857Y-88062958D01*
X116572041Y-87907142D01*
X116393760Y-87777613D01*
X116197410Y-87677567D01*
X115987836Y-87609473D01*
X115910000Y-87597144D01*
X115910000Y-90369314D01*
X115905606Y-90364920D01*
X115814394Y-90312259D01*
X115712661Y-90285000D01*
X115607339Y-90285000D01*
X115505606Y-90312259D01*
X115414394Y-90364920D01*
X115410000Y-90369314D01*
X115410000Y-87597144D01*
X115332164Y-87609473D01*
X115332161Y-87609473D01*
X115122589Y-87677567D01*
X114926236Y-87777615D01*
X114817385Y-87856700D01*
X114751579Y-87880180D01*
X114683525Y-87864354D01*
X114634830Y-87814249D01*
X114620500Y-87756382D01*
X114620500Y-84501902D01*
X114583553Y-84268631D01*
X114532752Y-84112284D01*
X114512072Y-84048639D01*
X114511012Y-84044877D01*
X114434015Y-83893761D01*
X114420500Y-83837467D01*
X114420500Y-83817648D01*
X114388477Y-83615465D01*
X114325218Y-83420776D01*
X114273910Y-83320080D01*
X114232287Y-83238390D01*
X114154686Y-83131580D01*
X114111971Y-83072786D01*
X113967213Y-82928028D01*
X113801613Y-82807715D01*
X113801612Y-82807714D01*
X113801610Y-82807713D01*
X113619219Y-82714780D01*
X113424534Y-82651523D01*
X113424531Y-82651522D01*
X113424532Y-82651522D01*
X113284927Y-82629410D01*
X113221792Y-82599480D01*
X113216645Y-82594618D01*
X112116819Y-81494792D01*
X112083334Y-81433469D01*
X112080500Y-81407111D01*
X112080500Y-79501889D01*
X112100185Y-79434850D01*
X112152989Y-79389095D01*
X112222147Y-79379151D01*
X112285703Y-79408176D01*
G37*
%TD.AperFunction*%
%TA.AperFunction,Conductor*%
G36*
X128436420Y-86926833D02*
G01*
X128450315Y-86942870D01*
X128475483Y-86977510D01*
X128642490Y-87144517D01*
X128833567Y-87283343D01*
X128932991Y-87334002D01*
X129044003Y-87390566D01*
X129044005Y-87390566D01*
X129044008Y-87390568D01*
X129134741Y-87420049D01*
X129268631Y-87463553D01*
X129501903Y-87500500D01*
X129501908Y-87500500D01*
X129738097Y-87500500D01*
X129872399Y-87479227D01*
X129952835Y-87466488D01*
X130022127Y-87475442D01*
X130059913Y-87501280D01*
X130113181Y-87554548D01*
X130146666Y-87615871D01*
X130149500Y-87642229D01*
X130149500Y-87725975D01*
X130129815Y-87793014D01*
X130098387Y-87826291D01*
X130058874Y-87855000D01*
X129987632Y-87906760D01*
X129831756Y-88062636D01*
X129730008Y-88202681D01*
X129674678Y-88245346D01*
X129605065Y-88251325D01*
X129543270Y-88218719D01*
X129529372Y-88202680D01*
X129427862Y-88062964D01*
X129427857Y-88062958D01*
X129272041Y-87907142D01*
X129093760Y-87777613D01*
X128897410Y-87677567D01*
X128687836Y-87609473D01*
X128610000Y-87597144D01*
X128610000Y-90369314D01*
X128605606Y-90364920D01*
X128514394Y-90312259D01*
X128412661Y-90285000D01*
X128307339Y-90285000D01*
X128205606Y-90312259D01*
X128114394Y-90364920D01*
X128110000Y-90369314D01*
X128110000Y-87597144D01*
X128032164Y-87609473D01*
X128032161Y-87609473D01*
X127822589Y-87677567D01*
X127626239Y-87777613D01*
X127447958Y-87907142D01*
X127292142Y-88062958D01*
X127292142Y-88062959D01*
X127190627Y-88202681D01*
X127135297Y-88245346D01*
X127065683Y-88251325D01*
X127003888Y-88218719D01*
X126989991Y-88202680D01*
X126888247Y-88062641D01*
X126888243Y-88062636D01*
X126732367Y-87906760D01*
X126732365Y-87906758D01*
X126621613Y-87826291D01*
X126578949Y-87770963D01*
X126570500Y-87725975D01*
X126570500Y-87622229D01*
X126590185Y-87555190D01*
X126606812Y-87534554D01*
X126640088Y-87501278D01*
X126701407Y-87467795D01*
X126747163Y-87466488D01*
X126803697Y-87475442D01*
X126961903Y-87500500D01*
X126961908Y-87500500D01*
X127198097Y-87500500D01*
X127431368Y-87463553D01*
X127453327Y-87456418D01*
X127655992Y-87390568D01*
X127866433Y-87283343D01*
X128057510Y-87144517D01*
X128224517Y-86977510D01*
X128249682Y-86942872D01*
X128305011Y-86900207D01*
X128374625Y-86894228D01*
X128436420Y-86926833D01*
G37*
%TD.AperFunction*%
%TA.AperFunction,Conductor*%
G36*
X141253039Y-89899685D02*
G01*
X141298794Y-89952489D01*
X141310000Y-90004000D01*
X141310000Y-90369314D01*
X141305606Y-90364920D01*
X141214394Y-90312259D01*
X141112661Y-90285000D01*
X141007339Y-90285000D01*
X140905606Y-90312259D01*
X140814394Y-90364920D01*
X140810000Y-90369314D01*
X140810000Y-90004000D01*
X140829685Y-89936961D01*
X140882489Y-89891206D01*
X140934000Y-89880000D01*
X141186000Y-89880000D01*
X141253039Y-89899685D01*
G37*
%TD.AperFunction*%
%TD*%
%TA.AperFunction,NonConductor*%
G36*
X170636420Y-76926833D02*
G01*
X170650315Y-76942870D01*
X170675483Y-76977510D01*
X170842490Y-77144517D01*
X171022335Y-77275183D01*
X171065000Y-77330512D01*
X171070979Y-77400126D01*
X171038373Y-77461920D01*
X170977534Y-77496278D01*
X170949449Y-77499500D01*
X170150551Y-77499500D01*
X170083512Y-77479815D01*
X170037757Y-77427011D01*
X170027813Y-77357853D01*
X170056838Y-77294297D01*
X170077662Y-77275184D01*
X170257510Y-77144517D01*
X170424517Y-76977510D01*
X170449682Y-76942872D01*
X170505011Y-76900207D01*
X170574625Y-76894228D01*
X170636420Y-76926833D01*
G37*
%TD.AperFunction*%
%TA.AperFunction,NonConductor*%
G36*
X168096420Y-76926833D02*
G01*
X168110315Y-76942870D01*
X168135483Y-76977510D01*
X168302490Y-77144517D01*
X168482335Y-77275183D01*
X168525000Y-77330512D01*
X168530979Y-77400126D01*
X168498373Y-77461920D01*
X168437534Y-77496278D01*
X168409449Y-77499500D01*
X167610551Y-77499500D01*
X167543512Y-77479815D01*
X167497757Y-77427011D01*
X167487813Y-77357853D01*
X167516838Y-77294297D01*
X167537662Y-77275184D01*
X167717510Y-77144517D01*
X167884517Y-76977510D01*
X167909682Y-76942872D01*
X167965011Y-76900207D01*
X168034625Y-76894228D01*
X168096420Y-76926833D01*
G37*
%TD.AperFunction*%
%TA.AperFunction,NonConductor*%
G36*
X165556420Y-76926833D02*
G01*
X165570315Y-76942870D01*
X165595483Y-76977510D01*
X165762490Y-77144517D01*
X165942335Y-77275183D01*
X165985000Y-77330512D01*
X165990979Y-77400126D01*
X165958373Y-77461920D01*
X165897534Y-77496278D01*
X165869449Y-77499500D01*
X165070551Y-77499500D01*
X165003512Y-77479815D01*
X164957757Y-77427011D01*
X164947813Y-77357853D01*
X164976838Y-77294297D01*
X164997662Y-77275184D01*
X165177510Y-77144517D01*
X165344517Y-76977510D01*
X165369682Y-76942872D01*
X165425011Y-76900207D01*
X165494625Y-76894228D01*
X165556420Y-76926833D01*
G37*
%TD.AperFunction*%
%TA.AperFunction,NonConductor*%
G36*
X163016420Y-76926833D02*
G01*
X163030315Y-76942870D01*
X163055483Y-76977510D01*
X163222490Y-77144517D01*
X163402335Y-77275183D01*
X163445000Y-77330512D01*
X163450979Y-77400126D01*
X163418373Y-77461920D01*
X163357534Y-77496278D01*
X163329449Y-77499500D01*
X162530551Y-77499500D01*
X162463512Y-77479815D01*
X162417757Y-77427011D01*
X162407813Y-77357853D01*
X162436838Y-77294297D01*
X162457662Y-77275184D01*
X162637510Y-77144517D01*
X162804517Y-76977510D01*
X162829682Y-76942872D01*
X162885011Y-76900207D01*
X162954625Y-76894228D01*
X163016420Y-76926833D01*
G37*
%TD.AperFunction*%
%TA.AperFunction,NonConductor*%
G36*
X160476420Y-76926833D02*
G01*
X160490315Y-76942870D01*
X160515483Y-76977510D01*
X160682490Y-77144517D01*
X160862335Y-77275183D01*
X160905000Y-77330512D01*
X160910979Y-77400126D01*
X160878373Y-77461920D01*
X160817534Y-77496278D01*
X160789449Y-77499500D01*
X159990551Y-77499500D01*
X159923512Y-77479815D01*
X159877757Y-77427011D01*
X159867813Y-77357853D01*
X159896838Y-77294297D01*
X159917662Y-77275184D01*
X160097510Y-77144517D01*
X160264517Y-76977510D01*
X160289682Y-76942872D01*
X160345011Y-76900207D01*
X160414625Y-76894228D01*
X160476420Y-76926833D01*
G37*
%TD.AperFunction*%
%TA.AperFunction,NonConductor*%
G36*
X157936420Y-76926833D02*
G01*
X157950315Y-76942870D01*
X157975483Y-76977510D01*
X158142490Y-77144517D01*
X158322335Y-77275183D01*
X158365000Y-77330512D01*
X158370979Y-77400126D01*
X158338373Y-77461920D01*
X158277534Y-77496278D01*
X158249449Y-77499500D01*
X157450551Y-77499500D01*
X157383512Y-77479815D01*
X157337757Y-77427011D01*
X157327813Y-77357853D01*
X157356838Y-77294297D01*
X157377662Y-77275184D01*
X157557510Y-77144517D01*
X157724517Y-76977510D01*
X157749682Y-76942872D01*
X157805011Y-76900207D01*
X157874625Y-76894228D01*
X157936420Y-76926833D01*
G37*
%TD.AperFunction*%
%TA.AperFunction,NonConductor*%
G36*
X155396420Y-76926833D02*
G01*
X155410315Y-76942870D01*
X155435483Y-76977510D01*
X155602490Y-77144517D01*
X155782335Y-77275183D01*
X155825000Y-77330512D01*
X155830979Y-77400126D01*
X155798373Y-77461920D01*
X155737534Y-77496278D01*
X155709449Y-77499500D01*
X154910551Y-77499500D01*
X154843512Y-77479815D01*
X154797757Y-77427011D01*
X154787813Y-77357853D01*
X154816838Y-77294297D01*
X154837662Y-77275184D01*
X155017510Y-77144517D01*
X155184517Y-76977510D01*
X155209682Y-76942872D01*
X155265011Y-76900207D01*
X155334625Y-76894228D01*
X155396420Y-76926833D01*
G37*
%TD.AperFunction*%
%TA.AperFunction,NonConductor*%
G36*
X152856420Y-76926833D02*
G01*
X152870315Y-76942870D01*
X152895483Y-76977510D01*
X153062490Y-77144517D01*
X153242335Y-77275183D01*
X153285000Y-77330512D01*
X153290979Y-77400126D01*
X153258373Y-77461920D01*
X153197534Y-77496278D01*
X153169449Y-77499500D01*
X152370551Y-77499500D01*
X152303512Y-77479815D01*
X152257757Y-77427011D01*
X152247813Y-77357853D01*
X152276838Y-77294297D01*
X152297662Y-77275184D01*
X152477510Y-77144517D01*
X152644517Y-76977510D01*
X152669682Y-76942872D01*
X152725011Y-76900207D01*
X152794625Y-76894228D01*
X152856420Y-76926833D01*
G37*
%TD.AperFunction*%
%TA.AperFunction,NonConductor*%
G36*
X150316420Y-76926833D02*
G01*
X150330315Y-76942870D01*
X150355483Y-76977510D01*
X150522490Y-77144517D01*
X150702335Y-77275183D01*
X150745000Y-77330512D01*
X150750979Y-77400126D01*
X150718373Y-77461920D01*
X150657534Y-77496278D01*
X150629449Y-77499500D01*
X149830551Y-77499500D01*
X149763512Y-77479815D01*
X149717757Y-77427011D01*
X149707813Y-77357853D01*
X149736838Y-77294297D01*
X149757662Y-77275184D01*
X149937510Y-77144517D01*
X150104517Y-76977510D01*
X150129682Y-76942872D01*
X150185011Y-76900207D01*
X150254625Y-76894228D01*
X150316420Y-76926833D01*
G37*
%TD.AperFunction*%
%TA.AperFunction,NonConductor*%
G36*
X136883799Y-87462823D02*
G01*
X136883897Y-87462416D01*
X136888623Y-87463550D01*
X136888632Y-87463553D01*
X136963697Y-87475442D01*
X137121903Y-87500500D01*
X137121908Y-87500500D01*
X137358097Y-87500500D01*
X137492399Y-87479227D01*
X137572835Y-87466488D01*
X137642127Y-87475442D01*
X137679913Y-87501280D01*
X137733181Y-87554548D01*
X137766666Y-87615871D01*
X137769500Y-87642229D01*
X137769500Y-87725975D01*
X137749815Y-87793014D01*
X137718387Y-87826291D01*
X137678874Y-87855000D01*
X137607632Y-87906760D01*
X137451756Y-88062636D01*
X137451752Y-88062641D01*
X137350318Y-88202254D01*
X137294988Y-88244920D01*
X137225375Y-88250899D01*
X137163580Y-88218293D01*
X137149682Y-88202254D01*
X137048247Y-88062641D01*
X137048243Y-88062636D01*
X136892367Y-87906760D01*
X136892365Y-87906758D01*
X136781613Y-87826291D01*
X136738949Y-87770963D01*
X136730500Y-87725975D01*
X136730500Y-87582843D01*
X136750185Y-87515804D01*
X136802989Y-87470049D01*
X136872147Y-87460105D01*
X136883799Y-87462823D01*
G37*
%TD.AperFunction*%
%TA.AperFunction,NonConductor*%
G36*
X134343799Y-87462823D02*
G01*
X134343897Y-87462416D01*
X134348623Y-87463550D01*
X134348632Y-87463553D01*
X134423697Y-87475442D01*
X134581903Y-87500500D01*
X134581908Y-87500500D01*
X134818097Y-87500500D01*
X134952399Y-87479227D01*
X135032835Y-87466488D01*
X135102127Y-87475442D01*
X135139913Y-87501280D01*
X135193181Y-87554548D01*
X135226666Y-87615871D01*
X135229500Y-87642229D01*
X135229500Y-87725975D01*
X135209815Y-87793014D01*
X135178387Y-87826291D01*
X135138874Y-87855000D01*
X135067632Y-87906760D01*
X134911756Y-88062636D01*
X134911752Y-88062641D01*
X134810318Y-88202254D01*
X134754988Y-88244920D01*
X134685375Y-88250899D01*
X134623580Y-88218293D01*
X134609682Y-88202254D01*
X134508247Y-88062641D01*
X134508243Y-88062636D01*
X134352367Y-87906760D01*
X134352365Y-87906758D01*
X134241613Y-87826291D01*
X134198949Y-87770963D01*
X134190500Y-87725975D01*
X134190500Y-87582843D01*
X134210185Y-87515804D01*
X134262989Y-87470049D01*
X134332147Y-87460105D01*
X134343799Y-87462823D01*
G37*
%TD.AperFunction*%
%TA.AperFunction,NonConductor*%
G36*
X131803799Y-87462823D02*
G01*
X131803897Y-87462416D01*
X131808623Y-87463550D01*
X131808632Y-87463553D01*
X131883697Y-87475442D01*
X132041903Y-87500500D01*
X132041908Y-87500500D01*
X132278097Y-87500500D01*
X132412399Y-87479227D01*
X132492835Y-87466488D01*
X132562127Y-87475442D01*
X132599913Y-87501280D01*
X132653181Y-87554548D01*
X132686666Y-87615871D01*
X132689500Y-87642229D01*
X132689500Y-87725975D01*
X132669815Y-87793014D01*
X132638387Y-87826291D01*
X132598874Y-87855000D01*
X132527632Y-87906760D01*
X132371756Y-88062636D01*
X132371752Y-88062641D01*
X132270318Y-88202254D01*
X132214988Y-88244920D01*
X132145375Y-88250899D01*
X132083580Y-88218293D01*
X132069682Y-88202254D01*
X131968247Y-88062641D01*
X131968243Y-88062636D01*
X131812367Y-87906760D01*
X131812365Y-87906758D01*
X131701613Y-87826291D01*
X131658949Y-87770963D01*
X131650500Y-87725975D01*
X131650500Y-87582843D01*
X131670185Y-87515804D01*
X131722989Y-87470049D01*
X131792147Y-87460105D01*
X131803799Y-87462823D01*
G37*
%TD.AperFunction*%
%TA.AperFunction,NonConductor*%
G36*
X125036855Y-87492498D02*
G01*
X125067684Y-87555198D01*
X125069500Y-87576345D01*
X125069500Y-87725975D01*
X125049815Y-87793014D01*
X125018387Y-87826291D01*
X124978874Y-87855000D01*
X124907632Y-87906760D01*
X124751756Y-88062636D01*
X124751752Y-88062641D01*
X124650318Y-88202254D01*
X124594988Y-88244920D01*
X124525375Y-88250899D01*
X124463580Y-88218293D01*
X124449682Y-88202254D01*
X124348247Y-88062641D01*
X124348243Y-88062636D01*
X124192367Y-87906760D01*
X124192365Y-87906758D01*
X124081613Y-87826291D01*
X124038949Y-87770963D01*
X124030500Y-87725975D01*
X124030500Y-87622229D01*
X124050185Y-87555190D01*
X124066812Y-87534554D01*
X124100088Y-87501278D01*
X124161407Y-87467795D01*
X124207163Y-87466488D01*
X124263697Y-87475442D01*
X124421903Y-87500500D01*
X124421908Y-87500500D01*
X124658097Y-87500500D01*
X124787689Y-87479973D01*
X124891368Y-87463553D01*
X124907181Y-87458414D01*
X124977021Y-87456418D01*
X125036855Y-87492498D01*
G37*
%TD.AperFunction*%
%TA.AperFunction,NonConductor*%
G36*
X122496855Y-87492498D02*
G01*
X122527684Y-87555198D01*
X122529500Y-87576345D01*
X122529500Y-87725975D01*
X122509815Y-87793014D01*
X122478387Y-87826291D01*
X122438874Y-87855000D01*
X122367632Y-87906760D01*
X122211756Y-88062636D01*
X122211752Y-88062641D01*
X122110318Y-88202254D01*
X122054988Y-88244920D01*
X121985375Y-88250899D01*
X121923580Y-88218293D01*
X121909682Y-88202254D01*
X121808247Y-88062641D01*
X121808243Y-88062636D01*
X121652367Y-87906760D01*
X121652365Y-87906758D01*
X121541613Y-87826291D01*
X121498949Y-87770963D01*
X121490500Y-87725975D01*
X121490500Y-87622229D01*
X121510185Y-87555190D01*
X121526812Y-87534554D01*
X121560088Y-87501278D01*
X121621407Y-87467795D01*
X121667163Y-87466488D01*
X121723697Y-87475442D01*
X121881903Y-87500500D01*
X121881908Y-87500500D01*
X122118097Y-87500500D01*
X122247689Y-87479973D01*
X122351368Y-87463553D01*
X122367181Y-87458414D01*
X122437021Y-87456418D01*
X122496855Y-87492498D01*
G37*
%TD.AperFunction*%
%TA.AperFunction,NonConductor*%
G36*
X119956855Y-87492498D02*
G01*
X119987684Y-87555198D01*
X119989500Y-87576345D01*
X119989500Y-87725975D01*
X119969815Y-87793014D01*
X119938387Y-87826291D01*
X119898874Y-87855000D01*
X119827632Y-87906760D01*
X119671756Y-88062636D01*
X119671752Y-88062641D01*
X119570318Y-88202254D01*
X119514988Y-88244920D01*
X119445375Y-88250899D01*
X119383580Y-88218293D01*
X119369682Y-88202254D01*
X119268247Y-88062641D01*
X119268243Y-88062636D01*
X119112367Y-87906760D01*
X119112365Y-87906758D01*
X119001613Y-87826291D01*
X118958949Y-87770963D01*
X118950500Y-87725975D01*
X118950500Y-87622229D01*
X118970185Y-87555190D01*
X118986812Y-87534554D01*
X119020088Y-87501278D01*
X119081407Y-87467795D01*
X119127163Y-87466488D01*
X119183697Y-87475442D01*
X119341903Y-87500500D01*
X119341908Y-87500500D01*
X119578097Y-87500500D01*
X119707689Y-87479973D01*
X119811368Y-87463553D01*
X119827181Y-87458414D01*
X119897021Y-87456418D01*
X119956855Y-87492498D01*
G37*
%TD.AperFunction*%
%TA.AperFunction,NonConductor*%
G36*
X140385114Y-87452294D02*
G01*
X140460069Y-87527249D01*
X140493554Y-87588572D01*
X140488570Y-87658264D01*
X140446698Y-87714197D01*
X140428684Y-87725414D01*
X140326241Y-87777611D01*
X140147958Y-87907142D01*
X139992142Y-88062958D01*
X139992142Y-88062959D01*
X139890627Y-88202681D01*
X139835297Y-88245346D01*
X139765683Y-88251325D01*
X139703888Y-88218719D01*
X139689991Y-88202680D01*
X139588247Y-88062641D01*
X139588243Y-88062636D01*
X139432367Y-87906760D01*
X139432365Y-87906758D01*
X139321613Y-87826291D01*
X139278949Y-87770963D01*
X139270500Y-87725975D01*
X139270500Y-87582843D01*
X139290185Y-87515804D01*
X139342989Y-87470049D01*
X139412147Y-87460105D01*
X139423799Y-87462823D01*
X139423897Y-87462416D01*
X139428623Y-87463550D01*
X139428632Y-87463553D01*
X139503697Y-87475442D01*
X139661903Y-87500500D01*
X139661908Y-87500500D01*
X139898097Y-87500500D01*
X140004126Y-87483705D01*
X140131368Y-87463553D01*
X140259117Y-87422043D01*
X140328955Y-87420049D01*
X140385114Y-87452294D01*
G37*
%TD.AperFunction*%
%TA.AperFunction,NonConductor*%
G36*
X135919137Y-112295185D02*
G01*
X135939779Y-112311819D01*
X138174879Y-114546919D01*
X138208364Y-114608242D01*
X138203380Y-114677934D01*
X138161508Y-114733867D01*
X138096044Y-114758284D01*
X138087198Y-114758600D01*
X135736598Y-114758600D01*
X135669559Y-114738915D01*
X135623804Y-114686111D01*
X135613860Y-114616953D01*
X135618667Y-114596282D01*
X135648476Y-114504538D01*
X135648476Y-114504537D01*
X135648477Y-114504534D01*
X135680500Y-114302352D01*
X135680500Y-112697648D01*
X135648477Y-112495466D01*
X135648476Y-112495462D01*
X135648476Y-112495461D01*
X135629747Y-112437818D01*
X135627752Y-112367976D01*
X135663833Y-112308144D01*
X135726534Y-112277316D01*
X135747678Y-112275500D01*
X135852098Y-112275500D01*
X135919137Y-112295185D01*
G37*
%TD.AperFunction*%
%TA.AperFunction,NonConductor*%
G36*
X126452034Y-111513402D02*
G01*
X126942049Y-112003416D01*
X127046584Y-112107951D01*
X127046585Y-112107952D01*
X127169498Y-112190080D01*
X127169511Y-112190087D01*
X127306082Y-112246656D01*
X127306087Y-112246658D01*
X127306091Y-112246658D01*
X127306092Y-112246659D01*
X127451079Y-112275500D01*
X127451082Y-112275500D01*
X127451083Y-112275500D01*
X127598917Y-112275500D01*
X133012322Y-112275500D01*
X133079361Y-112295185D01*
X133125116Y-112347989D01*
X133135060Y-112417147D01*
X133130253Y-112437818D01*
X133111523Y-112495461D01*
X133111523Y-112495464D01*
X133079500Y-112697648D01*
X133079500Y-114302351D01*
X133111523Y-114504535D01*
X133111523Y-114504538D01*
X133141333Y-114596282D01*
X133143328Y-114666123D01*
X133107248Y-114725956D01*
X133044547Y-114756784D01*
X133023402Y-114758600D01*
X129371330Y-114758600D01*
X129304291Y-114738915D01*
X129283649Y-114722281D01*
X126256641Y-111695273D01*
X126223156Y-111633950D01*
X126228140Y-111564258D01*
X126270012Y-111508325D01*
X126305999Y-111489662D01*
X126326034Y-111483152D01*
X126395873Y-111481156D01*
X126452034Y-111513402D01*
G37*
%TD.AperFunction*%
%TA.AperFunction,NonConductor*%
G36*
X138913287Y-116279285D02*
G01*
X138933929Y-116295919D01*
X139260401Y-116622391D01*
X139293886Y-116683714D01*
X139288902Y-116753406D01*
X139247030Y-116809339D01*
X139229017Y-116820556D01*
X139162442Y-116854478D01*
X138990540Y-116979372D01*
X138990535Y-116979376D01*
X138840276Y-117129635D01*
X138840272Y-117129640D01*
X138715378Y-117301543D01*
X138710762Y-117310602D01*
X138662784Y-117361395D01*
X138594963Y-117378187D01*
X138528829Y-117355646D01*
X138489794Y-117310593D01*
X138485051Y-117301284D01*
X138485049Y-117301281D01*
X138485048Y-117301279D01*
X138360109Y-117129313D01*
X138209786Y-116978990D01*
X138037820Y-116854051D01*
X137848414Y-116757544D01*
X137848413Y-116757543D01*
X137848412Y-116757543D01*
X137646243Y-116691854D01*
X137646241Y-116691853D01*
X137646240Y-116691853D01*
X137470362Y-116663997D01*
X137436287Y-116658600D01*
X137223713Y-116658600D01*
X137223707Y-116658600D01*
X137133090Y-116672952D01*
X137063797Y-116663997D01*
X137026012Y-116638160D01*
X136859133Y-116471281D01*
X136825648Y-116409958D01*
X136830632Y-116340266D01*
X136872504Y-116284333D01*
X136937968Y-116259916D01*
X136946814Y-116259600D01*
X138846248Y-116259600D01*
X138913287Y-116279285D01*
G37*
%TD.AperFunction*%
%TA.AperFunction,NonConductor*%
G36*
X138671719Y-119962545D02*
G01*
X138710763Y-120007600D01*
X138715377Y-120016655D01*
X138840272Y-120188559D01*
X138840276Y-120188564D01*
X138990535Y-120338823D01*
X138990540Y-120338827D01*
X139162444Y-120463722D01*
X139229014Y-120497641D01*
X139279811Y-120545615D01*
X139296606Y-120613436D01*
X139274069Y-120679571D01*
X139260401Y-120695807D01*
X137443029Y-122513181D01*
X137381706Y-122546666D01*
X137355348Y-122549500D01*
X136006080Y-122549500D01*
X135861092Y-122578340D01*
X135861082Y-122578343D01*
X135724511Y-122634912D01*
X135724498Y-122634919D01*
X135601584Y-122717048D01*
X135601580Y-122717051D01*
X133175280Y-125143351D01*
X133113957Y-125176836D01*
X133044265Y-125171852D01*
X133031307Y-125166156D01*
X132898412Y-125098443D01*
X132696243Y-125032754D01*
X132696241Y-125032753D01*
X132696240Y-125032753D01*
X132534957Y-125007208D01*
X132486287Y-124999500D01*
X132273713Y-124999500D01*
X132225042Y-125007208D01*
X132063760Y-125032753D01*
X131861585Y-125098444D01*
X131672179Y-125194951D01*
X131500213Y-125319890D01*
X131349890Y-125470213D01*
X131224948Y-125642184D01*
X131224946Y-125642186D01*
X131205162Y-125681014D01*
X131157187Y-125731809D01*
X131089366Y-125748603D01*
X131023231Y-125726064D01*
X130984194Y-125681011D01*
X130952286Y-125618388D01*
X130831971Y-125452786D01*
X130687213Y-125308028D01*
X130521613Y-125187715D01*
X130521612Y-125187714D01*
X130521610Y-125187713D01*
X130464653Y-125158691D01*
X130339223Y-125094781D01*
X130144534Y-125031522D01*
X129969995Y-125003878D01*
X129942352Y-124999500D01*
X129737648Y-124999500D01*
X129713329Y-125003351D01*
X129535465Y-125031522D01*
X129340776Y-125094781D01*
X129158386Y-125187715D01*
X128992786Y-125308028D01*
X128848028Y-125452786D01*
X128727713Y-125618388D01*
X128695804Y-125681013D01*
X128647830Y-125731808D01*
X128580009Y-125748603D01*
X128513874Y-125726065D01*
X128474835Y-125681012D01*
X128471741Y-125674940D01*
X128455051Y-125642184D01*
X128434231Y-125613528D01*
X128330109Y-125470213D01*
X128179786Y-125319890D01*
X128007820Y-125194951D01*
X127818414Y-125098444D01*
X127818413Y-125098443D01*
X127818412Y-125098443D01*
X127616243Y-125032754D01*
X127616241Y-125032753D01*
X127616240Y-125032753D01*
X127454957Y-125007208D01*
X127406287Y-124999500D01*
X127193713Y-124999500D01*
X127145042Y-125007208D01*
X126983760Y-125032753D01*
X126781585Y-125098444D01*
X126592179Y-125194951D01*
X126420213Y-125319890D01*
X126269890Y-125470213D01*
X126144949Y-125642182D01*
X126140484Y-125650946D01*
X126092509Y-125701742D01*
X126024688Y-125718536D01*
X125958553Y-125695998D01*
X125919516Y-125650946D01*
X125915050Y-125642182D01*
X125790109Y-125470213D01*
X125639786Y-125319890D01*
X125467820Y-125194951D01*
X125278414Y-125098444D01*
X125278413Y-125098443D01*
X125278412Y-125098443D01*
X125076243Y-125032754D01*
X125076241Y-125032753D01*
X125076240Y-125032753D01*
X124914957Y-125007208D01*
X124866287Y-124999500D01*
X124653713Y-124999500D01*
X124605042Y-125007208D01*
X124443760Y-125032753D01*
X124443757Y-125032754D01*
X124252859Y-125094781D01*
X124241582Y-125098445D01*
X124108693Y-125166155D01*
X124040024Y-125179051D01*
X123975284Y-125152774D01*
X123964718Y-125143351D01*
X123288421Y-124467052D01*
X123288414Y-124467046D01*
X123214729Y-124417812D01*
X123214729Y-124417813D01*
X123165491Y-124384913D01*
X123028917Y-124328343D01*
X123028907Y-124328340D01*
X122883920Y-124299500D01*
X122883918Y-124299500D01*
X119016082Y-124299500D01*
X119016080Y-124299500D01*
X118871092Y-124328340D01*
X118871082Y-124328343D01*
X118734511Y-124384912D01*
X118734498Y-124384919D01*
X118611584Y-124467048D01*
X118611580Y-124467051D01*
X117935280Y-125143351D01*
X117873957Y-125176836D01*
X117804265Y-125171852D01*
X117791307Y-125166156D01*
X117658412Y-125098443D01*
X117456243Y-125032754D01*
X117456241Y-125032753D01*
X117456240Y-125032753D01*
X117294957Y-125007208D01*
X117246287Y-124999500D01*
X117033713Y-124999500D01*
X116985042Y-125007208D01*
X116823760Y-125032753D01*
X116621585Y-125098444D01*
X116432179Y-125194951D01*
X116260213Y-125319890D01*
X116109890Y-125470213D01*
X115984949Y-125642182D01*
X115980484Y-125650946D01*
X115932509Y-125701742D01*
X115864688Y-125718536D01*
X115798553Y-125695998D01*
X115759516Y-125650946D01*
X115755050Y-125642182D01*
X115630109Y-125470213D01*
X115479786Y-125319890D01*
X115307820Y-125194951D01*
X115118414Y-125098444D01*
X115118413Y-125098443D01*
X115118412Y-125098443D01*
X114916243Y-125032754D01*
X114916241Y-125032753D01*
X114916240Y-125032753D01*
X114754957Y-125007208D01*
X114706287Y-124999500D01*
X114493713Y-124999500D01*
X114445042Y-125007208D01*
X114283760Y-125032753D01*
X114081585Y-125098444D01*
X113892179Y-125194951D01*
X113720213Y-125319890D01*
X113569890Y-125470213D01*
X113444949Y-125642182D01*
X113440484Y-125650946D01*
X113392509Y-125701742D01*
X113324688Y-125718536D01*
X113258553Y-125695998D01*
X113219516Y-125650946D01*
X113215050Y-125642182D01*
X113090109Y-125470213D01*
X112939786Y-125319890D01*
X112767820Y-125194951D01*
X112578414Y-125098444D01*
X112578413Y-125098443D01*
X112578412Y-125098443D01*
X112376243Y-125032754D01*
X112376241Y-125032753D01*
X112376240Y-125032753D01*
X112214957Y-125007208D01*
X112166287Y-124999500D01*
X111953713Y-124999500D01*
X111905042Y-125007208D01*
X111743760Y-125032753D01*
X111541585Y-125098444D01*
X111352179Y-125194951D01*
X111180213Y-125319890D01*
X111029890Y-125470213D01*
X110904949Y-125642182D01*
X110900484Y-125650946D01*
X110852509Y-125701742D01*
X110784688Y-125718536D01*
X110718553Y-125695998D01*
X110679516Y-125650946D01*
X110675050Y-125642182D01*
X110550109Y-125470213D01*
X110399786Y-125319890D01*
X110227819Y-125194951D01*
X110227818Y-125194950D01*
X110227816Y-125194949D01*
X110145043Y-125152774D01*
X110127223Y-125143694D01*
X110076427Y-125095719D01*
X110059632Y-125027898D01*
X110082170Y-124961763D01*
X110095831Y-124945534D01*
X113645448Y-121395919D01*
X113706771Y-121362434D01*
X113733129Y-121359600D01*
X130373920Y-121359600D01*
X130471462Y-121340196D01*
X130518913Y-121330758D01*
X130655495Y-121274184D01*
X130704729Y-121241286D01*
X130778416Y-121192052D01*
X131454718Y-120515747D01*
X131516041Y-120482263D01*
X131585732Y-120487247D01*
X131598690Y-120492942D01*
X131731588Y-120560657D01*
X131933757Y-120626346D01*
X132143713Y-120659600D01*
X132143714Y-120659600D01*
X132356286Y-120659600D01*
X132356287Y-120659600D01*
X132566243Y-120626346D01*
X132768412Y-120560657D01*
X132957816Y-120464151D01*
X132979789Y-120448186D01*
X133129786Y-120339209D01*
X133129788Y-120339206D01*
X133129792Y-120339204D01*
X133280104Y-120188892D01*
X133280106Y-120188888D01*
X133280109Y-120188886D01*
X133405048Y-120016920D01*
X133405047Y-120016920D01*
X133405051Y-120016916D01*
X133409514Y-120008154D01*
X133457488Y-119957359D01*
X133525308Y-119940563D01*
X133591444Y-119963099D01*
X133630486Y-120008156D01*
X133634951Y-120016920D01*
X133759890Y-120188886D01*
X133910213Y-120339209D01*
X134082179Y-120464148D01*
X134082181Y-120464149D01*
X134082184Y-120464151D01*
X134271588Y-120560657D01*
X134473757Y-120626346D01*
X134683713Y-120659600D01*
X134683714Y-120659600D01*
X134896286Y-120659600D01*
X134896287Y-120659600D01*
X135106243Y-120626346D01*
X135308412Y-120560657D01*
X135497816Y-120464151D01*
X135519789Y-120448186D01*
X135669786Y-120339209D01*
X135669788Y-120339206D01*
X135669792Y-120339204D01*
X135820104Y-120188892D01*
X135820106Y-120188888D01*
X135820109Y-120188886D01*
X135945048Y-120016920D01*
X135945047Y-120016920D01*
X135945051Y-120016916D01*
X135949514Y-120008154D01*
X135997488Y-119957359D01*
X136065308Y-119940563D01*
X136131444Y-119963099D01*
X136170486Y-120008156D01*
X136174951Y-120016920D01*
X136299890Y-120188886D01*
X136450213Y-120339209D01*
X136622179Y-120464148D01*
X136622181Y-120464149D01*
X136622184Y-120464151D01*
X136811588Y-120560657D01*
X137013757Y-120626346D01*
X137223713Y-120659600D01*
X137223714Y-120659600D01*
X137436286Y-120659600D01*
X137436287Y-120659600D01*
X137646243Y-120626346D01*
X137848412Y-120560657D01*
X138037816Y-120464151D01*
X138059789Y-120448186D01*
X138209786Y-120339209D01*
X138209788Y-120339206D01*
X138209792Y-120339204D01*
X138360104Y-120188892D01*
X138360106Y-120188888D01*
X138360109Y-120188886D01*
X138485048Y-120016920D01*
X138485051Y-120016916D01*
X138489793Y-120007608D01*
X138537763Y-119956811D01*
X138605583Y-119940011D01*
X138671719Y-119962545D01*
G37*
%TD.AperFunction*%
%TA.AperFunction,NonConductor*%
G36*
X111507836Y-120591929D02*
G01*
X111613757Y-120626346D01*
X111823713Y-120659600D01*
X111823714Y-120659600D01*
X111959670Y-120659600D01*
X112026709Y-120679285D01*
X112072464Y-120732089D01*
X112082408Y-120801247D01*
X112053383Y-120864803D01*
X112047351Y-120871281D01*
X107775280Y-125143351D01*
X107713957Y-125176836D01*
X107644265Y-125171852D01*
X107631307Y-125166156D01*
X107498412Y-125098443D01*
X107296243Y-125032754D01*
X107296241Y-125032753D01*
X107296240Y-125032753D01*
X107134957Y-125007208D01*
X107086287Y-124999500D01*
X106873713Y-124999500D01*
X106825042Y-125007208D01*
X106663760Y-125032753D01*
X106461585Y-125098444D01*
X106272179Y-125194951D01*
X106100213Y-125319890D01*
X105949890Y-125470213D01*
X105824951Y-125642179D01*
X105728444Y-125831585D01*
X105662753Y-126033760D01*
X105650987Y-126108050D01*
X105621058Y-126171185D01*
X105561746Y-126208116D01*
X105491884Y-126207118D01*
X105440833Y-126176333D01*
X101435782Y-122171281D01*
X101402297Y-122109958D01*
X101407281Y-122040266D01*
X101449153Y-121984333D01*
X101514617Y-121959916D01*
X101523463Y-121959600D01*
X102132351Y-121959600D01*
X102132352Y-121959600D01*
X102334534Y-121927577D01*
X102529219Y-121864320D01*
X102711610Y-121771387D01*
X102832877Y-121683281D01*
X102898683Y-121659802D01*
X102905762Y-121659600D01*
X110028543Y-121659600D01*
X110123992Y-121640613D01*
X110171718Y-121631120D01*
X110221836Y-121621151D01*
X110276421Y-121598541D01*
X110403914Y-121545732D01*
X110403914Y-121545731D01*
X110403916Y-121545731D01*
X110403920Y-121545728D01*
X110423931Y-121532357D01*
X110567782Y-121436239D01*
X110707139Y-121296882D01*
X110707140Y-121296880D01*
X110714206Y-121289814D01*
X110714209Y-121289810D01*
X111381840Y-120622178D01*
X111443161Y-120588695D01*
X111507836Y-120591929D01*
G37*
%TD.AperFunction*%
M02*
