%TF.GenerationSoftware,KiCad,Pcbnew,10.0.6-10.0.6~ubuntu24.04.1*%
%TF.CreationDate,2026-08-31T00:01:07-03:00*%
%TF.ProjectId,simut PCB,73696d75-7420-4504-9342-2e6b69636164,rev?*%
%TF.SameCoordinates,Original*%
%TF.FileFunction,Soldermask,Top*%
%TF.FilePolarity,Negative*%
%FSLAX46Y46*%
G04 Gerber Fmt 4.6, Leading zero omitted, Abs format (unit mm)*
G04 Created by KiCad (PCBNEW 10.0.6-10.0.6~ubuntu24.04.1) date 2026-08-31 00:01:07*
%MOMM*%
%LPD*%
G01*
G04 APERTURE LIST*
G04 Aperture macros list*
%AMRoundRect*
0 Rectangle with rounded corners*
0 $1 Rounding radius*
0 $2 $3 $4 $5 $6 $7 $8 $9 X,Y pos of 4 corners*
0 Add a 4 corners polygon primitive as box body*
4,1,4,$2,$3,$4,$5,$6,$7,$8,$9,$2,$3,0*
0 Add four circle primitives for the rounded corners*
1,1,$1+$1,$2,$3*
1,1,$1+$1,$4,$5*
1,1,$1+$1,$6,$7*
1,1,$1+$1,$8,$9*
0 Add four rect primitives between the rounded corners*
20,1,$1+$1,$2,$3,$4,$5,0*
20,1,$1+$1,$4,$5,$6,$7,0*
20,1,$1+$1,$6,$7,$8,$9,0*
20,1,$1+$1,$8,$9,$2,$3,0*%
%AMFreePoly0*
4,1,37,0.800000,0.796148,0.878414,0.796148,1.032228,0.765552,1.177117,0.705537,1.307515,0.618408,1.418408,0.507515,1.505537,0.377117,1.565552,0.232228,1.596148,0.078414,1.596148,-0.078414,1.565552,-0.232228,1.505537,-0.377117,1.418408,-0.507515,1.307515,-0.618408,1.177117,-0.705537,1.032228,-0.765552,0.878414,-0.796148,0.800000,-0.796148,0.800000,-0.800000,-1.400000,-0.800000,
-1.403843,-0.796157,-1.439018,-0.796157,-1.511114,-0.766294,-1.566294,-0.711114,-1.596157,-0.639018,-1.596157,-0.603843,-1.600000,-0.600000,-1.600000,0.600000,-1.596157,0.603843,-1.596157,0.639018,-1.566294,0.711114,-1.511114,0.766294,-1.439018,0.796157,-1.403843,0.796157,-1.400000,0.800000,0.800000,0.800000,0.800000,0.796148,0.800000,0.796148,$1*%
%AMFreePoly1*
4,1,37,1.403843,0.796157,1.439018,0.796157,1.511114,0.766294,1.566294,0.711114,1.596157,0.639018,1.596157,0.603843,1.600000,0.600000,1.600000,-0.600000,1.596157,-0.603843,1.596157,-0.639018,1.566294,-0.711114,1.511114,-0.766294,1.439018,-0.796157,1.403843,-0.796157,1.400000,-0.800000,-0.800000,-0.800000,-0.800000,-0.796148,-0.878414,-0.796148,-1.032228,-0.765552,-1.177117,-0.705537,
-1.307515,-0.618408,-1.418408,-0.507515,-1.505537,-0.377117,-1.565552,-0.232228,-1.596148,-0.078414,-1.596148,0.078414,-1.565552,0.232228,-1.505537,0.377117,-1.418408,0.507515,-1.307515,0.618408,-1.177117,0.705537,-1.032228,0.765552,-0.878414,0.796148,-0.800000,0.796148,-0.800000,0.800000,1.400000,0.800000,1.403843,0.796157,1.403843,0.796157,$1*%
G04 Aperture macros list end*
%ADD10O,3.000000X1.600000*%
%ADD11O,3.000000X2.000000*%
%ADD12O,2.000000X3.000000*%
%ADD13O,3.000000X1.700000*%
%ADD14R,1.050000X1.500000*%
%ADD15O,1.050000X1.500000*%
%ADD16O,5.000000X3.000000*%
%ADD17O,3.610000X1.800000*%
%ADD18C,2.200000*%
%ADD19C,1.850000*%
%ADD20FreePoly0,0.000000*%
%ADD21RoundRect,0.800000X-0.800000X-0.000010X0.800000X-0.000010X0.800000X0.000010X-0.800000X0.000010X0*%
%ADD22FreePoly1,0.000000*%
%ADD23RoundRect,0.200000X-0.600000X-0.600000X0.600000X-0.600000X0.600000X0.600000X-0.600000X0.600000X0*%
%ADD24C,1.600000*%
%ADD25O,5.000000X2.700000*%
G04 APERTURE END LIST*
D10*
%TO.C,R4*%
X65810000Y-54000000D03*
X58190000Y-54000000D03*
%TD*%
D11*
%TO.C,BZ1*%
X132500000Y-76500000D03*
D12*
X132500000Y-68900000D03*
%TD*%
D13*
%TO.C,J5*%
X152500000Y-88220000D03*
X152500000Y-90760000D03*
X152500000Y-93300000D03*
X152500000Y-95840000D03*
D10*
X152500000Y-98380000D03*
D13*
X152500000Y-100920000D03*
X152500000Y-103460000D03*
X152500000Y-106000000D03*
X152500000Y-108540000D03*
X152500000Y-111080000D03*
X152500000Y-113620000D03*
X152500000Y-116160000D03*
X152500000Y-118700000D03*
X152500000Y-121240000D03*
%TD*%
D10*
%TO.C,R31*%
X65810000Y-110000000D03*
X58190000Y-110000000D03*
%TD*%
D14*
%TO.C,Q1*%
X111770000Y-71309643D03*
D15*
X110500000Y-71309643D03*
X109230000Y-71309643D03*
%TD*%
D10*
%TO.C,C1*%
X116500000Y-70500000D03*
X116500000Y-72500000D03*
%TD*%
%TO.C,R27*%
X70190000Y-87030621D03*
X77810000Y-87030621D03*
%TD*%
%TO.C,J2*%
X49500000Y-41917500D03*
D13*
X49500000Y-44457500D03*
X49500000Y-46997500D03*
X49500000Y-49537500D03*
X49500000Y-52077500D03*
X49500000Y-54617500D03*
X49500000Y-57157500D03*
X49500000Y-59697500D03*
X49500000Y-62237500D03*
X49500000Y-64777500D03*
%TD*%
%TO.C,J4*%
X131000000Y-93300000D03*
X131000000Y-95840000D03*
X131000000Y-98380000D03*
X131000000Y-100920000D03*
X131000000Y-103460000D03*
X131000000Y-106000000D03*
X131000000Y-108540000D03*
X131000000Y-111080000D03*
D10*
X131000000Y-113620000D03*
D13*
X131000000Y-116160000D03*
X131000000Y-118700000D03*
X131000000Y-121240000D03*
%TD*%
D10*
%TO.C,R34*%
X110500000Y-76500000D03*
X118120000Y-76500000D03*
%TD*%
%TO.C,R1*%
X77620000Y-60000000D03*
X70000000Y-60000000D03*
%TD*%
%TO.C,R5*%
X77500000Y-52000000D03*
X69880000Y-52000000D03*
%TD*%
%TO.C,R16*%
X65810000Y-81254324D03*
X58190000Y-81254324D03*
%TD*%
D16*
%TO.C,U2*%
X137000000Y-54500000D03*
X137000000Y-49500000D03*
X107920000Y-59500000D03*
X107920000Y-44500000D03*
%TD*%
D10*
%TO.C,R8*%
X65810000Y-45917500D03*
X58190000Y-45917500D03*
%TD*%
D17*
%TO.C,A1*%
X85075000Y-66229643D03*
X85075000Y-68769643D03*
X85075000Y-71309643D03*
X85075000Y-73849643D03*
X85075000Y-76389643D03*
X85075000Y-78929643D03*
X85075000Y-81469643D03*
X85075000Y-84009643D03*
X85075000Y-86549643D03*
X85075000Y-89089643D03*
X85075000Y-91629643D03*
X85075000Y-94169643D03*
X85075000Y-96709643D03*
X85075000Y-99249643D03*
X85075000Y-101789643D03*
X85075000Y-104329643D03*
X85075000Y-106869643D03*
X85075000Y-109409643D03*
X85075000Y-111949643D03*
X85075000Y-114489643D03*
D18*
X92045000Y-66359643D03*
D19*
X92345000Y-69389643D03*
X97195000Y-69389643D03*
D18*
X97495000Y-66359643D03*
D17*
X104465000Y-66229643D03*
X104465000Y-68769643D03*
X104465000Y-71309643D03*
X104465000Y-73849643D03*
X104465000Y-76389643D03*
X104465000Y-78929643D03*
X104465000Y-81469643D03*
X104465000Y-84009643D03*
X104465000Y-86549643D03*
X104465000Y-89089643D03*
X104465000Y-91629643D03*
X104465000Y-94169643D03*
X104465000Y-96709643D03*
X104465000Y-99249643D03*
X104465000Y-101789643D03*
X104465000Y-104329643D03*
X104465000Y-106869643D03*
X104465000Y-109409643D03*
X104465000Y-111949643D03*
X104465000Y-114489643D03*
D20*
X85080000Y-66229643D03*
D21*
X85080000Y-68769643D03*
D22*
X85080000Y-71309643D03*
D21*
X85080000Y-73849643D03*
X85080000Y-76389643D03*
X85080000Y-78929643D03*
X85080000Y-81469643D03*
D22*
X85080000Y-84009643D03*
D21*
X85080000Y-86549643D03*
X85080000Y-89089643D03*
X85080000Y-91629643D03*
X85080000Y-94169643D03*
D22*
X85080000Y-96709643D03*
D21*
X85080000Y-99249643D03*
X85080000Y-101789643D03*
X85080000Y-104329643D03*
X85080000Y-106869643D03*
D22*
X85080000Y-109409643D03*
D21*
X85080000Y-111949643D03*
X85080000Y-114489643D03*
X104460000Y-114489643D03*
X104460000Y-111949643D03*
D20*
X104460000Y-109409643D03*
D21*
X104460000Y-106869643D03*
X104460000Y-104329643D03*
X104460000Y-101789643D03*
X104460000Y-99249643D03*
D20*
X104460000Y-96709643D03*
D21*
X104460000Y-94169643D03*
X104460000Y-91629643D03*
X104460000Y-89089643D03*
X104460000Y-86549643D03*
D20*
X104460000Y-84009643D03*
D21*
X104460000Y-81469643D03*
X104460000Y-78929643D03*
X104460000Y-76389643D03*
X104460000Y-73849643D03*
D20*
X104460000Y-71309643D03*
D21*
X104460000Y-68769643D03*
X104460000Y-66229643D03*
D23*
X95354100Y-96059643D03*
D24*
X97894100Y-96059643D03*
X100434100Y-96059643D03*
%TD*%
D10*
%TO.C,R7*%
X77500000Y-48000000D03*
X69880000Y-48000000D03*
%TD*%
%TO.C,R24*%
X70190000Y-75478027D03*
X77810000Y-75478027D03*
%TD*%
%TO.C,R35*%
X107880000Y-66229643D03*
X115500000Y-66229643D03*
%TD*%
%TO.C,R12*%
X65810000Y-65850865D03*
X58190000Y-65850865D03*
%TD*%
%TO.C,R28*%
X70190000Y-90881486D03*
X77810000Y-90881486D03*
%TD*%
%TO.C,R17*%
X65810000Y-85105189D03*
X58190000Y-85105189D03*
%TD*%
%TO.C,R9*%
X77500000Y-43500000D03*
X69880000Y-43500000D03*
%TD*%
%TO.C,R10*%
X65810000Y-41917500D03*
X58190000Y-41917500D03*
%TD*%
%TO.C,R29*%
X70190000Y-94732350D03*
X77810000Y-94732350D03*
%TD*%
%TO.C,R20*%
X65810000Y-96657783D03*
X58190000Y-96657783D03*
%TD*%
%TO.C,R13*%
X65810000Y-69701730D03*
X58190000Y-69701730D03*
%TD*%
%TO.C,R23*%
X70190000Y-71627162D03*
X77810000Y-71627162D03*
%TD*%
D13*
%TO.C,J6*%
X152500000Y-66229643D03*
X152500000Y-68769643D03*
X152500000Y-71309643D03*
%TD*%
D10*
%TO.C,C2*%
X121500000Y-74000000D03*
X121500000Y-69000000D03*
%TD*%
%TO.C,R25*%
X70190000Y-79328891D03*
X77810000Y-79328891D03*
%TD*%
D13*
%TO.C,J1*%
X49500000Y-73680000D03*
X49500000Y-76220000D03*
X49500000Y-78760000D03*
X49500000Y-81300000D03*
X49500000Y-83840000D03*
X49500000Y-86380000D03*
X49500000Y-88920000D03*
X49500000Y-91460000D03*
X49500000Y-94000000D03*
X49500000Y-96540000D03*
%TD*%
D10*
%TO.C,R22*%
X70190000Y-67776297D03*
X77810000Y-67776297D03*
%TD*%
%TO.C,R33*%
X110500000Y-91620000D03*
X110500000Y-84000000D03*
%TD*%
%TO.C,R6*%
X65810000Y-49917500D03*
X58190000Y-49917500D03*
%TD*%
%TO.C,R15*%
X65810000Y-77403459D03*
X58190000Y-77403459D03*
%TD*%
%TO.C,R3*%
X77620000Y-56000000D03*
X70000000Y-56000000D03*
%TD*%
%TO.C,R18*%
X65810000Y-88956053D03*
X58190000Y-88956053D03*
%TD*%
%TO.C,R26*%
X70190000Y-83179756D03*
X77810000Y-83179756D03*
%TD*%
%TO.C,R19*%
X65810000Y-92806918D03*
X58190000Y-92806918D03*
%TD*%
D25*
%TO.C,J7*%
X149000000Y-56000000D03*
X149000000Y-52040000D03*
X149000000Y-48080000D03*
%TD*%
D10*
%TO.C,R21*%
X70190000Y-63925432D03*
X77810000Y-63925432D03*
%TD*%
%TO.C,R2*%
X65810000Y-58000000D03*
X58190000Y-58000000D03*
%TD*%
%TO.C,R32*%
X135000000Y-84000000D03*
X135000000Y-91620000D03*
%TD*%
%TO.C,R11*%
X65810000Y-62000000D03*
X58190000Y-62000000D03*
%TD*%
D13*
%TO.C,J3*%
X49500000Y-107460000D03*
X49500000Y-110000000D03*
X49500000Y-112540000D03*
%TD*%
D10*
%TO.C,RV2*%
X124000000Y-118700000D03*
X124000000Y-116160000D03*
X124000000Y-113620000D03*
%TD*%
%TO.C,R14*%
X65810000Y-73552594D03*
X58190000Y-73552594D03*
%TD*%
%TO.C,R30*%
X70190000Y-98583215D03*
X77810000Y-98583215D03*
%TD*%
M02*
