%TF.GenerationSoftware,KiCad,Pcbnew,10.0.6-10.0.6~ubuntu24.04.1*%
%TF.CreationDate,2026-09-04T00:25:58-03:00*%
%TF.ProjectId,simut PCB,73696d75-7420-4504-9342-2e6b69636164,rev?*%
%TF.SameCoordinates,Original*%
%TF.FileFunction,Paste,Top*%
%TF.FilePolarity,Positive*%
%FSLAX46Y46*%
G04 Gerber Fmt 4.6, Leading zero omitted, Abs format (unit mm)*
G04 Created by KiCad (PCBNEW 10.0.6-10.0.6~ubuntu24.04.1) date 2026-09-04 00:25:58*
%MOMM*%
%LPD*%
G01*
G04 APERTURE LIST*
%ADD10O,2.200000X3.800000*%
G04 APERTURE END LIST*
D10*
%TO.C,A1*%
X146140000Y-89885000D03*
X143600000Y-89885000D03*
X141060000Y-89885000D03*
X138520000Y-89885000D03*
X135980000Y-89885000D03*
X133440000Y-89885000D03*
X130900000Y-89885000D03*
X128360000Y-89885000D03*
X125820000Y-89885000D03*
X123280000Y-89885000D03*
X120740000Y-89885000D03*
X118200000Y-89885000D03*
X115660000Y-89885000D03*
X113120000Y-89885000D03*
X110580000Y-89885000D03*
X108040000Y-89885000D03*
X105500000Y-89885000D03*
X102960000Y-89885000D03*
X100420000Y-89885000D03*
X97880000Y-89885000D03*
X146140000Y-109265000D03*
X143600000Y-109265000D03*
X141060000Y-109265000D03*
X138520000Y-109265000D03*
X135980000Y-109265000D03*
X133440000Y-109265000D03*
X130900000Y-109265000D03*
X128360000Y-109265000D03*
X125820000Y-109265000D03*
X123280000Y-109265000D03*
X120740000Y-109265000D03*
X118200000Y-109265000D03*
X115660000Y-109265000D03*
X113120000Y-109265000D03*
X110580000Y-109265000D03*
X108040000Y-109265000D03*
X105500000Y-109265000D03*
X102960000Y-109265000D03*
X100420000Y-109265000D03*
X97880000Y-109265000D03*
%TD*%
M02*
