%TF.GenerationSoftware,KiCad,Pcbnew,10.0.6-10.0.6~ubuntu24.04.1*%
%TF.CreationDate,2026-08-31T00:01:07-03:00*%
%TF.ProjectId,simut PCB,73696d75-7420-4504-9342-2e6b69636164,rev?*%
%TF.SameCoordinates,Original*%
%TF.FileFunction,Copper,L2,Bot*%
%TF.FilePolarity,Positive*%
%FSLAX46Y46*%
G04 Gerber Fmt 4.6, Leading zero omitted, Abs format (unit mm)*
G04 Created by KiCad (PCBNEW 10.0.6-10.0.6~ubuntu24.04.1) date 2026-08-31 00:01:07*
%MOMM*%
%LPD*%
G01*
G04 APERTURE LIST*
G04 Aperture macros list*
%AMRoundRect*
0 Rectangle with rounded corners*
0 $1 Rounding radius*
0 $2 $3 $4 $5 $6 $7 $8 $9 X,Y pos of 4 corners*
0 Add a 4 corners polygon primitive as box body*
4,1,4,$2,$3,$4,$5,$6,$7,$8,$9,$2,$3,0*
0 Add four circle primitives for the rounded corners*
1,1,$1+$1,$2,$3*
1,1,$1+$1,$4,$5*
1,1,$1+$1,$6,$7*
1,1,$1+$1,$8,$9*
0 Add four rect primitives between the rounded corners*
20,1,$1+$1,$2,$3,$4,$5,0*
20,1,$1+$1,$4,$5,$6,$7,0*
20,1,$1+$1,$6,$7,$8,$9,0*
20,1,$1+$1,$8,$9,$2,$3,0*%
G04 Aperture macros list end*
%TA.AperFunction,ComponentPad*%
%ADD10O,3.000000X1.600000*%
%TD*%
%TA.AperFunction,ComponentPad*%
%ADD11O,3.000000X2.000000*%
%TD*%
%TA.AperFunction,ComponentPad*%
%ADD12O,2.000000X3.000000*%
%TD*%
%TA.AperFunction,ComponentPad*%
%ADD13O,3.000000X1.700000*%
%TD*%
%TA.AperFunction,ComponentPad*%
%ADD14R,1.050000X1.500000*%
%TD*%
%TA.AperFunction,ComponentPad*%
%ADD15O,1.050000X1.500000*%
%TD*%
%TA.AperFunction,ComponentPad*%
%ADD16O,5.000000X3.000000*%
%TD*%
%TA.AperFunction,ComponentPad*%
%ADD17O,3.610000X1.800000*%
%TD*%
%TA.AperFunction,ComponentPad*%
%ADD18RoundRect,0.200000X-0.600000X-0.600000X0.600000X-0.600000X0.600000X0.600000X-0.600000X0.600000X0*%
%TD*%
%TA.AperFunction,ComponentPad*%
%ADD19C,1.600000*%
%TD*%
%TA.AperFunction,ComponentPad*%
%ADD20O,5.000000X2.700000*%
%TD*%
%TA.AperFunction,Conductor*%
%ADD21C,1.500000*%
%TD*%
%TA.AperFunction,Conductor*%
%ADD22C,2.000000*%
%TD*%
%TA.AperFunction,Conductor*%
%ADD23C,1.000000*%
%TD*%
%TA.AperFunction,Conductor*%
%ADD24C,0.500000*%
%TD*%
G04 APERTURE END LIST*
D10*
%TO.P,R4,1*%
%TO.N,VDD*%
X65810000Y-54000000D03*
%TO.P,R4,2*%
%TO.N,Net-(J2-Pin_7)*%
X58190000Y-54000000D03*
%TD*%
D11*
%TO.P,BZ1,1,+_1*%
%TO.N,Net-(BZ1-+)*%
X132500000Y-76500000D03*
D12*
%TO.P,BZ1,2,-_2*%
%TO.N,GND*%
X132500000Y-68900000D03*
%TD*%
D13*
%TO.P,J5,1,Pin_1_1*%
%TO.N,VDD*%
X152500000Y-88220000D03*
%TO.P,J5,2,Pin_2_2*%
%TO.N,GND*%
X152500000Y-90760000D03*
%TO.P,J5,3,Pin_3_3*%
%TO.N,Net-(A1-GPIO28_ADC2)*%
X152500000Y-93300000D03*
%TO.P,J5,4,Pin_4_4*%
%TO.N,Net-(A1-GPIO26_ADC0)*%
X152500000Y-95840000D03*
D10*
%TO.P,J5,5,Pin_5_5*%
%TO.N,Net-(A1-GPIO27_ADC1)*%
X152500000Y-98380000D03*
D13*
%TO.P,J5,6,Pin_6_6*%
%TO.N,Net-(A1-GPIO19)*%
X152500000Y-100920000D03*
%TO.P,J5,7,Pin_7_7*%
%TO.N,Net-(A1-GPIO18)*%
X152500000Y-103460000D03*
%TO.P,J5,8,Pin_8_8*%
%TO.N,VDD*%
X152500000Y-106000000D03*
%TO.P,J5,9,Pin_9_9*%
%TO.N,Net-(A1-GPIO16)*%
X152500000Y-108540000D03*
%TO.P,J5,10,Pin_10_10*%
%TO.N,Net-(A1-GPIO18)*%
X152500000Y-111080000D03*
%TO.P,J5,11,Pin_11_11*%
%TO.N,Net-(A1-GPIO17)*%
X152500000Y-113620000D03*
%TO.P,J5,12,Pin_12_12*%
%TO.N,Net-(A1-GPIO19)*%
X152500000Y-116160000D03*
%TO.P,J5,13,Pin_13_13*%
%TO.N,Net-(A1-GPIO16)*%
X152500000Y-118700000D03*
%TO.P,J5,14,Pin_14_14*%
%TO.N,Net-(A1-GPIO20)*%
X152500000Y-121240000D03*
%TD*%
D10*
%TO.P,R31,1*%
%TO.N,VDD*%
X65810000Y-110000000D03*
%TO.P,R31,2*%
%TO.N,Net-(A1-GPIO10)*%
X58190000Y-110000000D03*
%TD*%
D14*
%TO.P,Q1,1,C_1*%
%TO.N,Net-(BZ1-+)*%
X111770000Y-71309643D03*
D15*
%TO.P,Q1,2,B_2*%
%TO.N,Net-(Q1-B)*%
X110500000Y-71309643D03*
%TO.P,Q1,3,E_3*%
%TO.N,GND*%
X109230000Y-71309643D03*
%TD*%
D10*
%TO.P,C1,1*%
%TO.N,VCC*%
X116500000Y-70500000D03*
%TO.P,C1,2*%
%TO.N,GND*%
X116500000Y-72500000D03*
%TD*%
%TO.P,R27,1*%
%TO.N,VDD*%
X70190000Y-87030621D03*
%TO.P,R27,2*%
%TO.N,Net-(A1-GPIO6)*%
X77810000Y-87030621D03*
%TD*%
%TO.P,J2,1,Pin_1_1*%
%TO.N,Net-(J2-Pin_1)*%
X49500000Y-41917500D03*
D13*
%TO.P,J2,2,Pin_2_2*%
%TO.N,Net-(J2-Pin_2)*%
X49500000Y-44457500D03*
%TO.P,J2,3,Pin_3_3*%
%TO.N,Net-(J2-Pin_3)*%
X49500000Y-46997500D03*
%TO.P,J2,4,Pin_4_4*%
%TO.N,Net-(J2-Pin_4)*%
X49500000Y-49537500D03*
%TO.P,J2,5,Pin_5_5*%
%TO.N,Net-(J2-Pin_5)*%
X49500000Y-52077500D03*
%TO.P,J2,6,Pin_6_6*%
%TO.N,Net-(J2-Pin_6)*%
X49500000Y-54617500D03*
%TO.P,J2,7,Pin_7_7*%
%TO.N,Net-(J2-Pin_7)*%
X49500000Y-57157500D03*
%TO.P,J2,8,Pin_8_8*%
%TO.N,Net-(J2-Pin_8)*%
X49500000Y-59697500D03*
%TO.P,J2,9,Pin_9_9*%
%TO.N,Net-(J2-Pin_9)*%
X49500000Y-62237500D03*
%TO.P,J2,10,Pin_10_10*%
%TO.N,Net-(J2-Pin_10)*%
X49500000Y-64777500D03*
%TD*%
%TO.P,J4,1,Pin_1_1*%
%TO.N,GND*%
X131000000Y-93300000D03*
%TO.P,J4,2,Pin_2_2*%
%TO.N,Net-(J4-Pin_12)*%
X131000000Y-95840000D03*
%TO.P,J4,3,Pin_3_3*%
%TO.N,Net-(A1-GPIO21)*%
X131000000Y-98380000D03*
%TO.P,J4,4,Pin_4_4*%
%TO.N,Net-(A1-GPIO20)*%
X131000000Y-100920000D03*
%TO.P,J4,5,Pin_5_5*%
%TO.N,Net-(A1-GPIO19)*%
X131000000Y-103460000D03*
%TO.P,J4,6,Pin_6_6*%
%TO.N,Net-(A1-GPIO18)*%
X131000000Y-106000000D03*
%TO.P,J4,7,Pin_7_7*%
%TO.N,Net-(A1-GPIO17)*%
X131000000Y-108540000D03*
%TO.P,J4,8,Pin_8_8*%
%TO.N,Net-(A1-GPIO16)*%
X131000000Y-111080000D03*
D10*
%TO.P,J4,9,Pin_9_9*%
%TO.N,GND*%
X131000000Y-113620000D03*
D13*
%TO.P,J4,10,Pin_10_10*%
%TO.N,Net-(J4-Pin_10)*%
X131000000Y-116160000D03*
%TO.P,J4,11,Pin_11_11*%
%TO.N,GND*%
X131000000Y-118700000D03*
%TO.P,J4,12,Pin_12_12*%
%TO.N,Net-(J4-Pin_12)*%
X131000000Y-121240000D03*
%TD*%
D10*
%TO.P,R34,1*%
%TO.N,Net-(Q1-B)*%
X110500000Y-76500000D03*
%TO.P,R34,2*%
%TO.N,GND*%
X118120000Y-76500000D03*
%TD*%
%TO.P,R1,1*%
%TO.N,VDD*%
X77620000Y-60000000D03*
%TO.P,R1,2*%
%TO.N,Net-(J2-Pin_10)*%
X70000000Y-60000000D03*
%TD*%
%TO.P,R5,1*%
%TO.N,VDD*%
X77500000Y-52000000D03*
%TO.P,R5,2*%
%TO.N,Net-(J2-Pin_6)*%
X69880000Y-52000000D03*
%TD*%
%TO.P,R16,1*%
%TO.N,Net-(A1-GPIO5)*%
X65810000Y-81254324D03*
%TO.P,R16,2*%
%TO.N,Net-(J1-Pin_6)*%
X58190000Y-81254324D03*
%TD*%
D16*
%TO.P,U2,1,AC/L_1*%
%TO.N,Net-(J7-Pin_1)*%
X137000000Y-54500000D03*
%TO.P,U2,2,AC/N_2*%
%TO.N,Net-(J7-Pin_3)*%
X137000000Y-49500000D03*
%TO.P,U2,3,-Vout_3*%
%TO.N,GND*%
X107920000Y-59500000D03*
%TO.P,U2,4,+Vout_4*%
%TO.N,VCC*%
X107920000Y-44500000D03*
%TD*%
D10*
%TO.P,R8,1*%
%TO.N,VDD*%
X65810000Y-45917500D03*
%TO.P,R8,2*%
%TO.N,Net-(J2-Pin_3)*%
X58190000Y-45917500D03*
%TD*%
D17*
%TO.P,A1,*%
%TO.N,Net-(A1-GPIO0)*%
X85075000Y-66229643D03*
%TO.N,Net-(A1-GPIO1)*%
X85075000Y-68769643D03*
%TO.N,GND*%
X85075000Y-71309643D03*
%TO.N,Net-(A1-GPIO2)*%
X85075000Y-73849643D03*
%TO.N,Net-(A1-GPIO3)*%
X85075000Y-76389643D03*
%TO.N,Net-(A1-GPIO4)*%
X85075000Y-78929643D03*
%TO.N,Net-(A1-GPIO5)*%
X85075000Y-81469643D03*
%TO.N,GND*%
X85075000Y-84009643D03*
%TO.N,Net-(A1-GPIO6)*%
X85075000Y-86549643D03*
%TO.N,Net-(A1-GPIO7)*%
X85075000Y-89089643D03*
%TO.N,Net-(A1-GPIO8)*%
X85075000Y-91629643D03*
%TO.N,Net-(A1-GPIO9)*%
X85075000Y-94169643D03*
%TO.N,GND*%
X85075000Y-96709643D03*
%TO.N,Net-(A1-GPIO10)*%
X85075000Y-99249643D03*
%TO.N,unconnected-(A1-GPIO11-Pad15)*%
X85075000Y-101789643D03*
%TO.N,unconnected-(A1-GPIO12-Pad16)*%
X85075000Y-104329643D03*
%TO.N,unconnected-(A1-GPIO13-Pad17)*%
X85075000Y-106869643D03*
%TO.N,GND*%
X85075000Y-109409643D03*
%TO.N,unconnected-(A1-GPIO14-Pad19)*%
X85075000Y-111949643D03*
%TO.N,unconnected-(A1-GPIO15-Pad20)*%
X85075000Y-114489643D03*
%TO.N,VCC*%
X104465000Y-66229643D03*
%TO.N,unconnected-(A1-VSYS-Pad39)*%
X104465000Y-68769643D03*
%TO.N,GND*%
X104465000Y-71309643D03*
%TO.N,unconnected-(A1-3V3_EN-Pad37)*%
X104465000Y-73849643D03*
%TO.N,*%
X104465000Y-76389643D03*
%TO.N,unconnected-(A1-ADC_VREF-Pad35)*%
X104465000Y-78929643D03*
%TO.N,Net-(A1-GPIO28_ADC2)*%
X104465000Y-81469643D03*
%TO.N,*%
X104465000Y-84009643D03*
%TO.N,Net-(A1-GPIO27_ADC1)*%
X104465000Y-86549643D03*
%TO.N,Net-(A1-GPIO26_ADC0)*%
X104465000Y-89089643D03*
%TO.N,unconnected-(A1-RUN-Pad30)*%
X104465000Y-91629643D03*
%TO.N,Net-(A1-GPIO22)*%
X104465000Y-94169643D03*
%TO.N,GND*%
X104465000Y-96709643D03*
%TO.N,Net-(A1-GPIO21)*%
X104465000Y-99249643D03*
%TO.N,Net-(A1-GPIO20)*%
X104465000Y-101789643D03*
%TO.N,Net-(A1-GPIO19)*%
X104465000Y-104329643D03*
%TO.N,Net-(A1-GPIO18)*%
X104465000Y-106869643D03*
%TO.N,GND*%
X104465000Y-109409643D03*
%TO.N,Net-(A1-GPIO17)*%
X104465000Y-111949643D03*
%TO.N,Net-(A1-GPIO16)*%
X104465000Y-114489643D03*
D18*
%TO.P,A1,D1*%
%TO.N,N/C*%
X95354100Y-96059643D03*
D19*
%TO.P,A1,D2*%
X97894100Y-96059643D03*
%TO.P,A1,D3*%
X100434100Y-96059643D03*
%TD*%
D10*
%TO.P,R7,1*%
%TO.N,VDD*%
X77500000Y-48000000D03*
%TO.P,R7,2*%
%TO.N,Net-(J2-Pin_4)*%
X69880000Y-48000000D03*
%TD*%
%TO.P,R24,1*%
%TO.N,VDD*%
X70190000Y-75478027D03*
%TO.P,R24,2*%
%TO.N,Net-(A1-GPIO3)*%
X77810000Y-75478027D03*
%TD*%
%TO.P,R35,1*%
%TO.N,VCC*%
X107880000Y-66229643D03*
%TO.P,R35,2*%
%TO.N,Net-(J6-Pin_1)*%
X115500000Y-66229643D03*
%TD*%
%TO.P,R12,1*%
%TO.N,Net-(A1-GPIO1)*%
X65810000Y-65850865D03*
%TO.P,R12,2*%
%TO.N,Net-(J1-Pin_2)*%
X58190000Y-65850865D03*
%TD*%
%TO.P,R28,1*%
%TO.N,VDD*%
X70190000Y-90881486D03*
%TO.P,R28,2*%
%TO.N,Net-(A1-GPIO7)*%
X77810000Y-90881486D03*
%TD*%
%TO.P,R17,1*%
%TO.N,Net-(A1-GPIO6)*%
X65810000Y-85105189D03*
%TO.P,R17,2*%
%TO.N,Net-(J1-Pin_7)*%
X58190000Y-85105189D03*
%TD*%
%TO.P,R9,1*%
%TO.N,VDD*%
X77500000Y-43500000D03*
%TO.P,R9,2*%
%TO.N,Net-(J2-Pin_2)*%
X69880000Y-43500000D03*
%TD*%
%TO.P,R10,1*%
%TO.N,VDD*%
X65810000Y-41917500D03*
%TO.P,R10,2*%
%TO.N,Net-(J2-Pin_1)*%
X58190000Y-41917500D03*
%TD*%
%TO.P,R29,1*%
%TO.N,VDD*%
X70190000Y-94732350D03*
%TO.P,R29,2*%
%TO.N,Net-(A1-GPIO8)*%
X77810000Y-94732350D03*
%TD*%
%TO.P,R20,1*%
%TO.N,Net-(A1-GPIO9)*%
X65810000Y-96657783D03*
%TO.P,R20,2*%
%TO.N,Net-(J1-Pin_10)*%
X58190000Y-96657783D03*
%TD*%
%TO.P,R13,1*%
%TO.N,Net-(A1-GPIO2)*%
X65810000Y-69701730D03*
%TO.P,R13,2*%
%TO.N,Net-(J1-Pin_3)*%
X58190000Y-69701730D03*
%TD*%
%TO.P,R23,1*%
%TO.N,VDD*%
X70190000Y-71627162D03*
%TO.P,R23,2*%
%TO.N,Net-(A1-GPIO2)*%
X77810000Y-71627162D03*
%TD*%
D13*
%TO.P,J6,1,Pin_1_1*%
%TO.N,Net-(J6-Pin_1)*%
X152500000Y-66229643D03*
%TO.P,J6,2,Pin_2_2*%
%TO.N,Net-(BZ1-+)*%
X152500000Y-68769643D03*
%TO.P,J6,3,Pin_3_3*%
%TO.N,GND*%
X152500000Y-71309643D03*
%TD*%
D10*
%TO.P,C2,1*%
%TO.N,Net-(BZ1-+)*%
X121500000Y-74000000D03*
%TO.P,C2,2*%
%TO.N,GND*%
X121500000Y-69000000D03*
%TD*%
%TO.P,R25,1*%
%TO.N,VDD*%
X70190000Y-79328891D03*
%TO.P,R25,2*%
%TO.N,Net-(A1-GPIO4)*%
X77810000Y-79328891D03*
%TD*%
D13*
%TO.P,J1,1,Pin_1_1*%
%TO.N,Net-(J1-Pin_1)*%
X49500000Y-73680000D03*
%TO.P,J1,2,Pin_2_2*%
%TO.N,Net-(J1-Pin_2)*%
X49500000Y-76220000D03*
%TO.P,J1,3,Pin_3_3*%
%TO.N,Net-(J1-Pin_3)*%
X49500000Y-78760000D03*
%TO.P,J1,4,Pin_4_4*%
%TO.N,Net-(J1-Pin_4)*%
X49500000Y-81300000D03*
%TO.P,J1,5,Pin_5_5*%
%TO.N,Net-(J1-Pin_5)*%
X49500000Y-83840000D03*
%TO.P,J1,6,Pin_6_6*%
%TO.N,Net-(J1-Pin_6)*%
X49500000Y-86380000D03*
%TO.P,J1,7,Pin_7_7*%
%TO.N,Net-(J1-Pin_7)*%
X49500000Y-88920000D03*
%TO.P,J1,8,Pin_8_8*%
%TO.N,Net-(J1-Pin_8)*%
X49500000Y-91460000D03*
%TO.P,J1,9,Pin_9_9*%
%TO.N,Net-(J1-Pin_9)*%
X49500000Y-94000000D03*
%TO.P,J1,10,Pin_10_10*%
%TO.N,Net-(J1-Pin_10)*%
X49500000Y-96540000D03*
%TD*%
D10*
%TO.P,R22,1*%
%TO.N,VDD*%
X70190000Y-67776297D03*
%TO.P,R22,2*%
%TO.N,Net-(A1-GPIO1)*%
X77810000Y-67776297D03*
%TD*%
%TO.P,R33,1*%
%TO.N,Net-(A1-GPIO22)*%
X110500000Y-91620000D03*
%TO.P,R33,2*%
%TO.N,Net-(Q1-B)*%
X110500000Y-84000000D03*
%TD*%
%TO.P,R6,1*%
%TO.N,VDD*%
X65810000Y-49917500D03*
%TO.P,R6,2*%
%TO.N,Net-(J2-Pin_5)*%
X58190000Y-49917500D03*
%TD*%
%TO.P,R15,1*%
%TO.N,Net-(A1-GPIO4)*%
X65810000Y-77403459D03*
%TO.P,R15,2*%
%TO.N,Net-(J1-Pin_5)*%
X58190000Y-77403459D03*
%TD*%
%TO.P,R3,1*%
%TO.N,VDD*%
X77620000Y-56000000D03*
%TO.P,R3,2*%
%TO.N,Net-(J2-Pin_8)*%
X70000000Y-56000000D03*
%TD*%
%TO.P,R18,1*%
%TO.N,Net-(A1-GPIO7)*%
X65810000Y-88956053D03*
%TO.P,R18,2*%
%TO.N,Net-(J1-Pin_8)*%
X58190000Y-88956053D03*
%TD*%
%TO.P,R26,1*%
%TO.N,VDD*%
X70190000Y-83179756D03*
%TO.P,R26,2*%
%TO.N,Net-(A1-GPIO5)*%
X77810000Y-83179756D03*
%TD*%
%TO.P,R19,1*%
%TO.N,Net-(A1-GPIO8)*%
X65810000Y-92806918D03*
%TO.P,R19,2*%
%TO.N,Net-(J1-Pin_9)*%
X58190000Y-92806918D03*
%TD*%
D20*
%TO.P,J7,1,Pin_1_1*%
%TO.N,Net-(J7-Pin_1)*%
X149000000Y-56000000D03*
%TO.P,J7,2,Pin_2_2*%
%TO.N,unconnected-(J7-Pin_2-Pad2)*%
X149000000Y-52040000D03*
%TO.P,J7,3,Pin_3_3*%
%TO.N,Net-(J7-Pin_3)*%
X149000000Y-48080000D03*
%TD*%
D10*
%TO.P,R21,1*%
%TO.N,VDD*%
X70190000Y-63925432D03*
%TO.P,R21,2*%
%TO.N,Net-(A1-GPIO0)*%
X77810000Y-63925432D03*
%TD*%
%TO.P,R2,1*%
%TO.N,VDD*%
X65810000Y-58000000D03*
%TO.P,R2,2*%
%TO.N,Net-(J2-Pin_9)*%
X58190000Y-58000000D03*
%TD*%
%TO.P,R32,1*%
%TO.N,VCC*%
X135000000Y-84000000D03*
%TO.P,R32,2*%
%TO.N,Net-(J4-Pin_12)*%
X135000000Y-91620000D03*
%TD*%
%TO.P,R11,1*%
%TO.N,Net-(A1-GPIO0)*%
X65810000Y-62000000D03*
%TO.P,R11,2*%
%TO.N,Net-(J1-Pin_1)*%
X58190000Y-62000000D03*
%TD*%
D13*
%TO.P,J3,1,Pin_1_1*%
%TO.N,VDD*%
X49500000Y-107460000D03*
%TO.P,J3,2,Pin_2_2*%
%TO.N,Net-(A1-GPIO10)*%
X49500000Y-110000000D03*
%TO.P,J3,3,Pin_3_3*%
%TO.N,GND*%
X49500000Y-112540000D03*
%TD*%
D10*
%TO.P,RV2,1,1_1*%
%TO.N,Net-(J4-Pin_12)*%
X124000000Y-118700000D03*
%TO.P,RV2,2,2_2*%
%TO.N,Net-(J4-Pin_10)*%
X124000000Y-116160000D03*
%TO.P,RV2,3,3_3*%
%TO.N,GND*%
X124000000Y-113620000D03*
%TD*%
%TO.P,R14,1*%
%TO.N,Net-(A1-GPIO3)*%
X65810000Y-73552594D03*
%TO.P,R14,2*%
%TO.N,Net-(J1-Pin_4)*%
X58190000Y-73552594D03*
%TD*%
%TO.P,R30,1*%
%TO.N,VDD*%
X70190000Y-98583215D03*
%TO.P,R30,2*%
%TO.N,Net-(A1-GPIO9)*%
X77810000Y-98583215D03*
%TD*%
%TO.N,Net-(A1-GPIO18)*%
D21*
X152500000Y-103460000D02*
X151844416Y-103460000D01*
X150050000Y-105254416D02*
X150050000Y-109285584D01*
X151844416Y-103460000D02*
X150050000Y-105254416D01*
X150050000Y-109285584D02*
X151844416Y-111080000D01*
X151844416Y-111080000D02*
X152500000Y-111080000D01*
X137904164Y-111080000D02*
X132824164Y-106000000D01*
X132824164Y-106000000D02*
X131000000Y-106000000D01*
%TO.N,Net-(A1-GPIO19)*%
X131000000Y-103460000D02*
X134000000Y-103460000D01*
X134000000Y-103460000D02*
X136540000Y-100920000D01*
X136540000Y-100920000D02*
X152500000Y-100920000D01*
%TO.N,Net-(J7-Pin_1)*%
D22*
X137000000Y-54500000D02*
X138500000Y-56000000D01*
X138500000Y-56000000D02*
X149000000Y-56000000D01*
%TO.N,Net-(J7-Pin_3)*%
X138500000Y-48000000D02*
X139500000Y-48000000D01*
X137000000Y-49500000D02*
X138500000Y-48000000D01*
X139500000Y-48000000D02*
X139580000Y-48080000D01*
X139580000Y-48080000D02*
X149000000Y-48080000D01*
%TO.N,GND*%
D21*
X103660000Y-71309643D02*
X106190357Y-71309643D01*
X106190357Y-71309643D02*
X108500000Y-69000000D01*
X112595837Y-69000000D02*
X113295837Y-69700000D01*
X115000000Y-72500000D02*
X116500000Y-72500000D01*
X108500000Y-69000000D02*
X112595837Y-69000000D01*
X113295837Y-70795837D02*
X115000000Y-72500000D01*
X113295837Y-69700000D02*
X113295837Y-70795837D01*
D23*
X116500000Y-72500000D02*
X115500000Y-72500000D01*
D21*
X103660000Y-71309643D02*
X109025000Y-71309643D01*
%TO.N,VCC*%
X107880000Y-66229643D02*
X112229643Y-66229643D01*
X112229643Y-66229643D02*
X114000000Y-68000000D01*
X114000000Y-68000000D02*
X115500000Y-68000000D01*
X115500000Y-68000000D02*
X116500000Y-69000000D01*
X116500000Y-69000000D02*
X116500000Y-70500000D01*
%TO.N,Net-(BZ1-+)*%
D23*
X121500000Y-74000000D02*
X121500000Y-75941320D01*
X121500000Y-75941320D02*
X119441320Y-78000000D01*
X119441320Y-78000000D02*
X116700000Y-78000000D01*
X116700000Y-78000000D02*
X111770000Y-73070000D01*
X111770000Y-73070000D02*
X111770000Y-71309643D01*
%TO.N,VCC*%
D22*
X107920000Y-44500000D02*
X113500000Y-50080000D01*
X113500000Y-50080000D02*
X113500000Y-61500000D01*
X113500000Y-61500000D02*
X108770357Y-66229643D01*
X108770357Y-66229643D02*
X107880000Y-66229643D01*
%TO.N,Net-(BZ1-+)*%
D23*
X132500000Y-76500000D02*
X150151674Y-76500000D01*
X150151674Y-76500000D02*
X154700000Y-71951674D01*
X154700000Y-71951674D02*
X154700000Y-69239286D01*
X154700000Y-69239286D02*
X154230357Y-68769643D01*
X154230357Y-68769643D02*
X152500000Y-68769643D01*
%TO.N,Net-(A1-GPIO16)*%
D21*
X152500000Y-108540000D02*
X153155584Y-108540000D01*
X153155584Y-108540000D02*
X155040000Y-110424416D01*
X153204163Y-118700000D02*
X152500000Y-118700000D01*
X155040000Y-110424416D02*
X155040000Y-116864163D01*
X155040000Y-116864163D02*
X153204163Y-118700000D01*
%TO.N,VDD*%
X152500000Y-88220000D02*
X153155584Y-88220000D01*
X153155584Y-88220000D02*
X154950000Y-90014416D01*
X154950000Y-90014416D02*
X154950000Y-104205584D01*
X154950000Y-104205584D02*
X153155584Y-106000000D01*
X153155584Y-106000000D02*
X152500000Y-106000000D01*
%TO.N,Net-(J4-Pin_10)*%
X124000000Y-116160000D02*
X131000000Y-116160000D01*
%TO.N,Net-(J4-Pin_12)*%
X135000000Y-91620000D02*
X135000000Y-93920000D01*
X135000000Y-93920000D02*
X133080000Y-95840000D01*
X133080000Y-95840000D02*
X131000000Y-95840000D01*
%TO.N,Net-(A1-GPIO18)*%
X131000000Y-106000000D02*
X129000000Y-106000000D01*
X129000000Y-106000000D02*
X128500000Y-106500000D01*
X128500000Y-106500000D02*
X104029643Y-106500000D01*
X104029643Y-106500000D02*
X103660000Y-106869643D01*
%TO.N,Net-(A1-GPIO16)*%
X119010357Y-114489643D02*
X122500000Y-111000000D01*
X103660000Y-114489643D02*
X119010357Y-114489643D01*
X122500000Y-111000000D02*
X122580000Y-111080000D01*
X122580000Y-111080000D02*
X131000000Y-111080000D01*
%TO.N,Net-(A1-GPIO17)*%
X117550357Y-111949643D02*
X121000000Y-108500000D01*
X103660000Y-111949643D02*
X117550357Y-111949643D01*
X121000000Y-108500000D02*
X121040000Y-108540000D01*
X121040000Y-108540000D02*
X131000000Y-108540000D01*
%TO.N,Net-(A1-GPIO19)*%
X127670357Y-104329643D02*
X128500000Y-103500000D01*
X103660000Y-104329643D02*
X127670357Y-104329643D01*
X128500000Y-103500000D02*
X130960000Y-103500000D01*
X130960000Y-103500000D02*
X131000000Y-103460000D01*
%TO.N,Net-(A1-GPIO20)*%
X103660000Y-101789643D02*
X128596802Y-101789643D01*
X128596802Y-101789643D02*
X129466445Y-100920000D01*
X129466445Y-100920000D02*
X131000000Y-100920000D01*
%TO.N,Net-(A1-GPIO21)*%
X103660000Y-99249643D02*
X128732639Y-99249643D01*
X128732639Y-99249643D02*
X129602282Y-98380000D01*
X129602282Y-98380000D02*
X131000000Y-98380000D01*
%TO.N,GND*%
X103660000Y-96709643D02*
X124590357Y-96709643D01*
X124590357Y-96709643D02*
X128000000Y-93300000D01*
X128000000Y-93300000D02*
X131000000Y-93300000D01*
%TO.N,Net-(A1-GPIO10)*%
X85880000Y-99249643D02*
X80318446Y-99249643D01*
X80318446Y-99249643D02*
X72068089Y-107500000D01*
X72068089Y-107500000D02*
X60690000Y-107500000D01*
X60690000Y-107500000D02*
X58190000Y-110000000D01*
%TO.N,GND*%
X85880000Y-109409643D02*
X75590357Y-109409643D01*
X75590357Y-109409643D02*
X72460000Y-112540000D01*
X72460000Y-112540000D02*
X49500000Y-112540000D01*
%TO.N,Net-(A1-GPIO10)*%
X49500000Y-110000000D02*
X58190000Y-110000000D01*
%TO.N,Net-(A1-GPIO9)*%
X85880000Y-94169643D02*
X82223572Y-94169643D01*
X82223572Y-94169643D02*
X77810000Y-98583215D01*
%TO.N,Net-(A1-GPIO8)*%
X85880000Y-91629643D02*
X80912707Y-91629643D01*
X80912707Y-91629643D02*
X77810000Y-94732350D01*
%TO.N,Net-(A1-GPIO7)*%
X85880000Y-89089643D02*
X79601843Y-89089643D01*
X79601843Y-89089643D02*
X77810000Y-90881486D01*
%TO.N,Net-(A1-GPIO6)*%
X85880000Y-86549643D02*
X78290978Y-86549643D01*
X78290978Y-86549643D02*
X77810000Y-87030621D01*
%TO.N,Net-(A1-GPIO5)*%
X85880000Y-81469643D02*
X79520113Y-81469643D01*
X79520113Y-81469643D02*
X77810000Y-83179756D01*
%TO.N,Net-(A1-GPIO4)*%
X85880000Y-78929643D02*
X78209248Y-78929643D01*
X78209248Y-78929643D02*
X77810000Y-79328891D01*
%TO.N,Net-(A1-GPIO3)*%
X85880000Y-76389643D02*
X78721616Y-76389643D01*
X78721616Y-76389643D02*
X77810000Y-75478027D01*
%TO.N,Net-(A1-GPIO2)*%
X85880000Y-73849643D02*
X80032481Y-73849643D01*
X80032481Y-73849643D02*
X77810000Y-71627162D01*
%TO.N,Net-(A1-GPIO1)*%
X85880000Y-68769643D02*
X78803346Y-68769643D01*
X78803346Y-68769643D02*
X77810000Y-67776297D01*
%TO.N,Net-(A1-GPIO0)*%
X85880000Y-66229643D02*
X80114211Y-66229643D01*
X80114211Y-66229643D02*
X77810000Y-63925432D01*
%TO.N,Net-(J2-Pin_7)*%
X50650828Y-57157500D02*
X49500000Y-57157500D01*
X53808328Y-54000000D02*
X50650828Y-57157500D01*
X58190000Y-54000000D02*
X53808328Y-54000000D01*
%TO.N,VDD*%
D22*
X77620000Y-60000000D02*
X77620000Y-43620000D01*
D21*
X75000000Y-41000000D02*
X66727500Y-41000000D01*
X77500000Y-43500000D02*
X75082500Y-45917500D01*
X105446295Y-76389643D02*
X108826295Y-79769643D01*
X66727500Y-41000000D02*
X65810000Y-41917500D01*
X75620000Y-58000000D02*
X65810000Y-58000000D01*
X77500000Y-43500000D02*
X75000000Y-41000000D01*
D22*
X101119086Y-76389643D02*
X104500000Y-76389643D01*
X95020000Y-65261241D02*
X95020000Y-70290557D01*
X77620000Y-60000000D02*
X89758759Y-60000000D01*
D21*
X77500000Y-52000000D02*
X75500000Y-54000000D01*
X75582500Y-49917500D02*
X65810000Y-49917500D01*
X108826295Y-79769643D02*
X144049643Y-79769643D01*
X75500000Y-54000000D02*
X65810000Y-54000000D01*
X77620000Y-56000000D02*
X75620000Y-58000000D01*
D22*
X89758759Y-60000000D02*
X95020000Y-65261241D01*
X95020000Y-70290557D02*
X101119086Y-76389643D01*
D21*
X103660000Y-76389643D02*
X105446295Y-76389643D01*
D22*
X77620000Y-43620000D02*
X77500000Y-43500000D01*
D21*
X77500000Y-48000000D02*
X75582500Y-49917500D01*
X75082500Y-45917500D02*
X65810000Y-45917500D01*
X144049643Y-79769643D02*
X152500000Y-88220000D01*
%TO.N,GND*%
D23*
X121500000Y-69000000D02*
X118120000Y-72380000D01*
D22*
X101460000Y-65318373D02*
X101460000Y-69639491D01*
D23*
X121500000Y-69000000D02*
X132400000Y-69000000D01*
D22*
X107278373Y-59500000D02*
X101460000Y-65318373D01*
D23*
X132400000Y-69000000D02*
X132500000Y-68900000D01*
X132500000Y-68900000D02*
X134909643Y-71309643D01*
X118120000Y-72380000D02*
X118120000Y-76500000D01*
X134909643Y-71309643D02*
X152500000Y-71309643D01*
X118120000Y-74120000D02*
X116500000Y-72500000D01*
D22*
X101460000Y-69639491D02*
X103130152Y-71309643D01*
D23*
X118120000Y-76500000D02*
X118120000Y-74120000D01*
D22*
X103130152Y-71309643D02*
X103660000Y-71309643D01*
X107920000Y-59500000D02*
X107278373Y-59500000D01*
%TO.N,Net-(A1-GPIO28_ADC2)*%
D21*
X139467562Y-81469643D02*
X151297919Y-93300000D01*
X103660000Y-81469643D02*
X139467562Y-81469643D01*
X151297919Y-93300000D02*
X152500000Y-93300000D01*
%TO.N,Net-(A1-GPIO26_ADC0)*%
X151297919Y-95840000D02*
X152500000Y-95840000D01*
X103660000Y-89089643D02*
X144547562Y-89089643D01*
X144547562Y-89089643D02*
X151297919Y-95840000D01*
%TO.N,Net-(A1-GPIO19)*%
X153340000Y-116160000D02*
X152500000Y-116160000D01*
%TO.N,Net-(A1-GPIO16)*%
X131000000Y-111080000D02*
X132420000Y-111080000D01*
X140040000Y-118700000D02*
X152500000Y-118700000D01*
X132420000Y-111080000D02*
X140040000Y-118700000D01*
%TO.N,Net-(A1-GPIO17)*%
X138040000Y-113620000D02*
X152500000Y-113620000D01*
X131000000Y-108540000D02*
X132960000Y-108540000D01*
X132960000Y-108540000D02*
X138040000Y-113620000D01*
%TO.N,Net-(A1-GPIO6)*%
X75884568Y-85105189D02*
X65810000Y-85105189D01*
X77810000Y-87030621D02*
X75884568Y-85105189D01*
%TO.N,Net-(J2-Pin_1)*%
X58190000Y-41917500D02*
X49500000Y-41917500D01*
D24*
X57847500Y-42260000D02*
X58190000Y-41917500D01*
%TO.N,Net-(J2-Pin_2)*%
D21*
X69712500Y-43667500D02*
X50290000Y-43667500D01*
X50290000Y-43667500D02*
X49500000Y-44457500D01*
X69880000Y-43500000D02*
X69712500Y-43667500D01*
%TO.N,Net-(J2-Pin_3)*%
X52082500Y-45917500D02*
X58190000Y-45917500D01*
X51002500Y-46997500D02*
X52082500Y-45917500D01*
X49500000Y-46997500D02*
X51002500Y-46997500D01*
%TO.N,Net-(J2-Pin_4)*%
X52404164Y-48000000D02*
X50866664Y-49537500D01*
X50866664Y-49537500D02*
X49500000Y-49537500D01*
X69880000Y-48000000D02*
X52404164Y-48000000D01*
%TO.N,Net-(J2-Pin_5)*%
X53082500Y-49917500D02*
X50922500Y-52077500D01*
X50922500Y-52077500D02*
X49500000Y-52077500D01*
X58190000Y-49917500D02*
X53082500Y-49917500D01*
%TO.N,Net-(J2-Pin_6)*%
X53404164Y-52000000D02*
X50786664Y-54617500D01*
X50786664Y-54617500D02*
X49500000Y-54617500D01*
X69880000Y-52000000D02*
X53404164Y-52000000D01*
%TO.N,Net-(J2-Pin_8)*%
X50514992Y-59697500D02*
X49500000Y-59697500D01*
X70000000Y-56000000D02*
X54212492Y-56000000D01*
X54212492Y-56000000D02*
X50514992Y-59697500D01*
%TO.N,Net-(J2-Pin_9)*%
X50762500Y-62237500D02*
X49500000Y-62237500D01*
X55000000Y-58000000D02*
X50762500Y-62237500D01*
X58190000Y-58000000D02*
X55000000Y-58000000D01*
%TO.N,Net-(J2-Pin_10)*%
X56000000Y-60000000D02*
X51222500Y-64777500D01*
X51222500Y-64777500D02*
X49500000Y-64777500D01*
X70000000Y-60000000D02*
X56000000Y-60000000D01*
%TO.N,VCC*%
D22*
X107880000Y-66229643D02*
X103660000Y-66229643D01*
%TO.N,Net-(A1-GPIO5)*%
D21*
X77810000Y-83179756D02*
X75884568Y-81254324D01*
X75884568Y-81254324D02*
X65810000Y-81254324D01*
%TO.N,Net-(J1-Pin_6)*%
X53064324Y-86380000D02*
X49500000Y-86380000D01*
X58190000Y-81254324D02*
X53064324Y-86380000D01*
%TO.N,Net-(A1-GPIO0)*%
X77810000Y-63925432D02*
X75884568Y-62000000D01*
X75884568Y-62000000D02*
X65810000Y-62000000D01*
%TO.N,Net-(A1-GPIO1)*%
X75884568Y-65850865D02*
X65810000Y-65850865D01*
X77810000Y-67776297D02*
X75884568Y-65850865D01*
%TO.N,Net-(A1-GPIO2)*%
X75884568Y-69701730D02*
X65810000Y-69701730D01*
X77810000Y-71627162D02*
X75884568Y-69701730D01*
%TO.N,Net-(A1-GPIO3)*%
X75884567Y-73552594D02*
X65810000Y-73552594D01*
X77810000Y-75478027D02*
X75884567Y-73552594D01*
%TO.N,Net-(A1-GPIO4)*%
X75884568Y-77403459D02*
X65810000Y-77403459D01*
X77810000Y-79328891D02*
X75884568Y-77403459D01*
%TO.N,Net-(A1-GPIO7)*%
X75884567Y-88956053D02*
X65810000Y-88956053D01*
X77810000Y-90881486D02*
X75884567Y-88956053D01*
%TO.N,Net-(A1-GPIO8)*%
X75884568Y-92806918D02*
X65810000Y-92806918D01*
X77810000Y-94732350D02*
X75884568Y-92806918D01*
%TO.N,Net-(A1-GPIO9)*%
X77810000Y-98583215D02*
X75884568Y-96657783D01*
X75884568Y-96657783D02*
X65810000Y-96657783D01*
%TO.N,Net-(J1-Pin_2)*%
X51950000Y-74425584D02*
X50155584Y-76220000D01*
X58190000Y-65850865D02*
X51950000Y-72090865D01*
X51950000Y-72090865D02*
X51950000Y-74425584D01*
X50155584Y-76220000D02*
X49500000Y-76220000D01*
%TO.N,Net-(J1-Pin_7)*%
X58190000Y-85105189D02*
X54375189Y-88920000D01*
X54375189Y-88920000D02*
X49500000Y-88920000D01*
%TO.N,Net-(J1-Pin_10)*%
D24*
X58072217Y-96540000D02*
X58190000Y-96657783D01*
D21*
X49617783Y-96657783D02*
X49500000Y-96540000D01*
X58190000Y-96657783D02*
X49617783Y-96657783D01*
%TO.N,Net-(J1-Pin_3)*%
X53650000Y-75265584D02*
X50155584Y-78760000D01*
X53650000Y-74241730D02*
X53650000Y-75265584D01*
X50155584Y-78760000D02*
X49500000Y-78760000D01*
D24*
X58190000Y-70070000D02*
X58190000Y-69701730D01*
D21*
X58190000Y-69701730D02*
X53650000Y-74241730D01*
%TO.N,Net-(J1-Pin_1)*%
X49500000Y-70690000D02*
X49500000Y-73680000D01*
X58190000Y-62000000D02*
X49500000Y-70690000D01*
%TO.N,Net-(J1-Pin_4)*%
X58190000Y-73552594D02*
X50442594Y-81300000D01*
X50442594Y-81300000D02*
X49500000Y-81300000D01*
%TO.N,Net-(J1-Pin_5)*%
X58190000Y-77403459D02*
X51753459Y-83840000D01*
X51753459Y-83840000D02*
X49500000Y-83840000D01*
%TO.N,Net-(J1-Pin_8)*%
X58190000Y-88956053D02*
X55686053Y-91460000D01*
X55686053Y-91460000D02*
X49500000Y-91460000D01*
%TO.N,Net-(J1-Pin_9)*%
X58190000Y-92806918D02*
X56996918Y-94000000D01*
X56996918Y-94000000D02*
X49500000Y-94000000D01*
%TO.N,Net-(A1-GPIO22)*%
X107460000Y-94169643D02*
X110000000Y-91629643D01*
X103660000Y-94169643D02*
X107460000Y-94169643D01*
%TO.N,Net-(BZ1-+)*%
D23*
X130000000Y-74000000D02*
X132500000Y-76500000D01*
X121500000Y-74000000D02*
X130000000Y-74000000D01*
%TO.N,Net-(Q1-B)*%
X110500000Y-71309643D02*
X110500000Y-76500000D01*
%TO.N,Net-(J6-Pin_1)*%
X115500000Y-66229643D02*
X152500000Y-66229643D01*
%TO.N,Net-(J4-Pin_12)*%
D22*
X130840000Y-96000000D02*
X131000000Y-95840000D01*
%TO.N,Net-(A1-GPIO18)*%
D21*
X152500000Y-111080000D02*
X137904164Y-111080000D01*
%TD*%
%TA.AperFunction,Conductor*%
%TO.N,GND*%
G36*
X171442539Y-25020185D02*
G01*
X171488294Y-25072989D01*
X171499500Y-25124500D01*
X171499500Y-39876000D01*
X171479815Y-39943039D01*
X171427011Y-39988794D01*
X171375500Y-40000000D01*
X117500000Y-40000000D01*
X117500000Y-64000000D01*
X171375500Y-64000000D01*
X171442539Y-64019685D01*
X171488294Y-64072489D01*
X171499500Y-64124000D01*
X171499500Y-125875500D01*
X171479815Y-125942539D01*
X171427011Y-125988294D01*
X171375500Y-125999500D01*
X47624500Y-125999500D01*
X47557461Y-125979815D01*
X47511706Y-125927011D01*
X47500500Y-125875500D01*
X47500500Y-120355778D01*
X52299500Y-120355778D01*
X52299500Y-120644221D01*
X52299501Y-120644238D01*
X52337149Y-120930206D01*
X52337150Y-120930211D01*
X52337151Y-120930217D01*
X52411809Y-121208844D01*
X52411814Y-121208860D01*
X52522191Y-121475336D01*
X52522199Y-121475352D01*
X52666420Y-121725148D01*
X52666431Y-121725164D01*
X52842024Y-121954002D01*
X52842030Y-121954009D01*
X53045990Y-122157969D01*
X53045996Y-122157974D01*
X53274844Y-122333575D01*
X53274851Y-122333579D01*
X53524647Y-122477800D01*
X53524663Y-122477808D01*
X53791139Y-122588185D01*
X53791145Y-122588186D01*
X53791155Y-122588191D01*
X54069783Y-122662849D01*
X54355772Y-122700500D01*
X54355779Y-122700500D01*
X54644221Y-122700500D01*
X54644228Y-122700500D01*
X54930217Y-122662849D01*
X55208845Y-122588191D01*
X55208857Y-122588185D01*
X55208860Y-122588185D01*
X55475336Y-122477808D01*
X55475339Y-122477806D01*
X55475345Y-122477804D01*
X55725156Y-122333575D01*
X55954004Y-122157974D01*
X56157974Y-121954004D01*
X56333575Y-121725156D01*
X56477804Y-121475345D01*
X56588191Y-121208845D01*
X56662849Y-120930217D01*
X56700500Y-120644228D01*
X56700500Y-120355772D01*
X56662849Y-120069783D01*
X56588191Y-119791155D01*
X56588186Y-119791145D01*
X56588185Y-119791139D01*
X56477808Y-119524663D01*
X56477800Y-119524647D01*
X56333579Y-119274851D01*
X56333575Y-119274844D01*
X56157974Y-119045996D01*
X56157969Y-119045990D01*
X55954009Y-118842030D01*
X55954002Y-118842024D01*
X55725164Y-118666431D01*
X55725162Y-118666429D01*
X55725156Y-118666425D01*
X55725151Y-118666422D01*
X55725148Y-118666420D01*
X55475352Y-118522199D01*
X55475336Y-118522191D01*
X55208860Y-118411814D01*
X55208848Y-118411810D01*
X55208845Y-118411809D01*
X54930217Y-118337151D01*
X54930211Y-118337150D01*
X54930206Y-118337149D01*
X54644238Y-118299501D01*
X54644233Y-118299500D01*
X54644228Y-118299500D01*
X54355772Y-118299500D01*
X54355766Y-118299500D01*
X54355761Y-118299501D01*
X54069793Y-118337149D01*
X54069786Y-118337150D01*
X54069783Y-118337151D01*
X53852152Y-118395465D01*
X53791155Y-118411809D01*
X53791139Y-118411814D01*
X53524663Y-118522191D01*
X53524647Y-118522199D01*
X53274851Y-118666420D01*
X53274835Y-118666431D01*
X53045997Y-118842024D01*
X53045990Y-118842030D01*
X52842030Y-119045990D01*
X52842024Y-119045997D01*
X52666431Y-119274835D01*
X52666420Y-119274851D01*
X52522199Y-119524647D01*
X52522191Y-119524663D01*
X52411814Y-119791139D01*
X52411809Y-119791155D01*
X52344820Y-120041164D01*
X52337152Y-120069780D01*
X52337149Y-120069793D01*
X52299501Y-120355761D01*
X52299500Y-120355778D01*
X47500500Y-120355778D01*
X47500500Y-113360962D01*
X47520185Y-113293923D01*
X47572989Y-113248168D01*
X47642147Y-113238224D01*
X47705703Y-113267249D01*
X47724818Y-113288077D01*
X47820272Y-113419459D01*
X47820276Y-113419464D01*
X47970535Y-113569723D01*
X47970540Y-113569727D01*
X48142442Y-113694620D01*
X48331782Y-113791095D01*
X48533870Y-113856757D01*
X48743754Y-113890000D01*
X49250000Y-113890000D01*
X49250000Y-112973012D01*
X49307007Y-113005925D01*
X49434174Y-113040000D01*
X49565826Y-113040000D01*
X49692993Y-113005925D01*
X49750000Y-112973012D01*
X49750000Y-113890000D01*
X50256246Y-113890000D01*
X50466127Y-113856757D01*
X50466130Y-113856757D01*
X50668217Y-113791095D01*
X50857557Y-113694620D01*
X51029459Y-113569727D01*
X51029464Y-113569723D01*
X51179723Y-113419464D01*
X51179727Y-113419459D01*
X51304620Y-113247557D01*
X51401095Y-113058217D01*
X51466757Y-112856129D01*
X51466757Y-112856126D01*
X51477231Y-112790000D01*
X49933012Y-112790000D01*
X49965925Y-112732993D01*
X50000000Y-112605826D01*
X50000000Y-112474174D01*
X49965925Y-112347007D01*
X49933012Y-112290000D01*
X51477231Y-112290000D01*
X51466757Y-112223873D01*
X51466757Y-112223870D01*
X51401095Y-112021782D01*
X51304620Y-111832442D01*
X51179727Y-111660540D01*
X51179723Y-111660535D01*
X51029464Y-111510276D01*
X51029459Y-111510272D01*
X50980661Y-111474818D01*
X50937995Y-111419488D01*
X50932016Y-111349875D01*
X50964622Y-111288080D01*
X51025460Y-111253723D01*
X51053546Y-111250500D01*
X57110498Y-111250500D01*
X57148816Y-111256569D01*
X57162260Y-111260937D01*
X57185466Y-111268477D01*
X57387648Y-111300500D01*
X57387649Y-111300500D01*
X58992351Y-111300500D01*
X58992352Y-111300500D01*
X59194534Y-111268477D01*
X59389219Y-111205220D01*
X59571610Y-111112287D01*
X59674844Y-111037284D01*
X59737213Y-110991971D01*
X59737215Y-110991968D01*
X59737219Y-110991966D01*
X59881966Y-110847219D01*
X59881968Y-110847215D01*
X59881971Y-110847213D01*
X59968510Y-110728100D01*
X60002287Y-110681610D01*
X60095220Y-110499219D01*
X60158477Y-110304534D01*
X60190500Y-110102352D01*
X60190500Y-109897648D01*
X60182653Y-109848106D01*
X60191607Y-109778813D01*
X60217442Y-109741030D01*
X61171655Y-108786819D01*
X61232978Y-108753334D01*
X61259336Y-108750500D01*
X64235613Y-108750500D01*
X64302652Y-108770185D01*
X64348407Y-108822989D01*
X64358351Y-108892147D01*
X64329326Y-108955703D01*
X64308498Y-108974818D01*
X64262786Y-109008028D01*
X64118028Y-109152786D01*
X63997715Y-109318386D01*
X63904781Y-109500776D01*
X63841522Y-109695465D01*
X63809500Y-109897648D01*
X63809500Y-110102351D01*
X63841522Y-110304534D01*
X63904781Y-110499223D01*
X63968691Y-110624653D01*
X63996616Y-110679458D01*
X63997715Y-110681613D01*
X64118028Y-110847213D01*
X64262786Y-110991971D01*
X64417749Y-111104556D01*
X64428390Y-111112287D01*
X64512319Y-111155051D01*
X64610776Y-111205218D01*
X64610778Y-111205218D01*
X64610781Y-111205220D01*
X64715137Y-111239127D01*
X64805465Y-111268477D01*
X64906557Y-111284488D01*
X65007648Y-111300500D01*
X65007649Y-111300500D01*
X66612351Y-111300500D01*
X66612352Y-111300500D01*
X66814534Y-111268477D01*
X67009219Y-111205220D01*
X67191610Y-111112287D01*
X67294844Y-111037284D01*
X67357213Y-110991971D01*
X67357215Y-110991968D01*
X67357219Y-110991966D01*
X67501966Y-110847219D01*
X67501968Y-110847215D01*
X67501971Y-110847213D01*
X67588510Y-110728100D01*
X67622287Y-110681610D01*
X67715220Y-110499219D01*
X67778477Y-110304534D01*
X67810500Y-110102352D01*
X67810500Y-109897648D01*
X67790126Y-109769011D01*
X67778477Y-109695465D01*
X67715218Y-109500776D01*
X67655720Y-109384006D01*
X67622287Y-109318390D01*
X67604376Y-109293737D01*
X67501971Y-109152786D01*
X67357213Y-109008028D01*
X67311502Y-108974818D01*
X67268836Y-108919489D01*
X67262857Y-108849875D01*
X67295462Y-108788080D01*
X67356301Y-108753723D01*
X67384387Y-108750500D01*
X72166511Y-108750500D01*
X72360915Y-108719709D01*
X72386004Y-108711557D01*
X72548115Y-108658884D01*
X72723494Y-108569524D01*
X72882735Y-108453828D01*
X80800102Y-100536462D01*
X80861425Y-100502977D01*
X80887783Y-100500143D01*
X83180577Y-100500143D01*
X83247616Y-100519828D01*
X83293371Y-100572632D01*
X83303315Y-100641790D01*
X83274290Y-100705346D01*
X83261119Y-100718424D01*
X83257639Y-100721396D01*
X83101756Y-100877279D01*
X83101752Y-100877284D01*
X82972187Y-101055617D01*
X82872104Y-101252036D01*
X82872103Y-101252039D01*
X82803985Y-101461690D01*
X82769500Y-101679421D01*
X82769500Y-101899864D01*
X82803985Y-102117595D01*
X82872103Y-102327246D01*
X82872104Y-102327249D01*
X82972187Y-102523668D01*
X83101752Y-102702001D01*
X83101756Y-102702006D01*
X83257636Y-102857886D01*
X83257641Y-102857890D01*
X83397254Y-102959325D01*
X83439920Y-103014655D01*
X83445899Y-103084268D01*
X83413293Y-103146063D01*
X83397254Y-103159961D01*
X83257641Y-103261395D01*
X83257636Y-103261399D01*
X83101756Y-103417279D01*
X83101752Y-103417284D01*
X82972187Y-103595617D01*
X82872104Y-103792036D01*
X82872103Y-103792039D01*
X82803985Y-104001690D01*
X82803985Y-104001692D01*
X82769500Y-104219421D01*
X82769500Y-104439865D01*
X82783701Y-104529524D01*
X82803985Y-104657595D01*
X82872103Y-104867246D01*
X82872104Y-104867249D01*
X82972187Y-105063668D01*
X83101752Y-105242001D01*
X83101756Y-105242006D01*
X83257636Y-105397886D01*
X83257641Y-105397890D01*
X83397254Y-105499325D01*
X83439920Y-105554655D01*
X83445899Y-105624268D01*
X83413293Y-105686063D01*
X83397254Y-105699961D01*
X83257641Y-105801395D01*
X83257636Y-105801399D01*
X83101756Y-105957279D01*
X83101752Y-105957284D01*
X82972187Y-106135617D01*
X82872104Y-106332036D01*
X82872103Y-106332039D01*
X82803985Y-106541690D01*
X82769500Y-106759421D01*
X82769500Y-106979864D01*
X82803985Y-107197595D01*
X82872103Y-107407246D01*
X82872104Y-107407249D01*
X82924404Y-107509890D01*
X82956356Y-107572600D01*
X82972187Y-107603668D01*
X83101752Y-107782001D01*
X83101756Y-107782006D01*
X83257636Y-107937886D01*
X83257641Y-107937890D01*
X83397680Y-108039634D01*
X83440346Y-108094963D01*
X83446325Y-108164577D01*
X83413720Y-108226372D01*
X83397681Y-108240270D01*
X83257959Y-108341785D01*
X83257958Y-108341785D01*
X83102142Y-108497601D01*
X82972613Y-108675882D01*
X82872567Y-108872232D01*
X82804473Y-109081804D01*
X82804473Y-109081807D01*
X82792145Y-109159643D01*
X85564314Y-109159643D01*
X85559920Y-109164037D01*
X85507259Y-109255249D01*
X85480000Y-109356982D01*
X85480000Y-109462304D01*
X85507259Y-109564037D01*
X85559920Y-109655249D01*
X85564314Y-109659643D01*
X82792145Y-109659643D01*
X82804473Y-109737478D01*
X82804473Y-109737481D01*
X82872567Y-109947053D01*
X82972613Y-110143403D01*
X83102142Y-110321684D01*
X83257958Y-110477500D01*
X83257964Y-110477505D01*
X83397680Y-110579015D01*
X83440346Y-110634345D01*
X83446325Y-110703958D01*
X83413719Y-110765753D01*
X83397681Y-110779651D01*
X83257636Y-110881399D01*
X83101756Y-111037279D01*
X83101752Y-111037284D01*
X82972187Y-111215617D01*
X82872104Y-111412036D01*
X82872103Y-111412039D01*
X82803985Y-111621690D01*
X82777023Y-111791922D01*
X82769500Y-111839421D01*
X82769500Y-112059865D01*
X82786742Y-112168729D01*
X82803985Y-112277595D01*
X82872103Y-112487246D01*
X82872104Y-112487249D01*
X82932524Y-112605826D01*
X82944034Y-112628417D01*
X82972187Y-112683668D01*
X83101752Y-112862001D01*
X83101756Y-112862006D01*
X83257636Y-113017886D01*
X83257641Y-113017890D01*
X83397254Y-113119325D01*
X83439920Y-113174655D01*
X83445899Y-113244268D01*
X83413293Y-113306063D01*
X83397254Y-113319961D01*
X83257641Y-113421395D01*
X83257636Y-113421399D01*
X83101756Y-113577279D01*
X83101752Y-113577284D01*
X82972187Y-113755617D01*
X82872104Y-113952036D01*
X82872103Y-113952039D01*
X82803985Y-114161690D01*
X82769500Y-114379421D01*
X82769500Y-114599864D01*
X82803985Y-114817595D01*
X82872103Y-115027246D01*
X82872104Y-115027249D01*
X82949604Y-115179348D01*
X82962500Y-115248017D01*
X82936224Y-115312757D01*
X82879118Y-115353015D01*
X82839119Y-115359643D01*
X73770000Y-115359643D01*
X73770000Y-125359643D01*
X115770000Y-125359643D01*
X115770000Y-115864143D01*
X115789685Y-115797104D01*
X115842489Y-115751349D01*
X115894000Y-115740143D01*
X119108779Y-115740143D01*
X119303183Y-115709352D01*
X119490383Y-115648527D01*
X119665762Y-115559167D01*
X119825003Y-115443471D01*
X121870998Y-113397475D01*
X121932317Y-113363993D01*
X122002009Y-113368977D01*
X122003471Y-113370000D01*
X123684314Y-113370000D01*
X123679920Y-113374394D01*
X123627259Y-113465606D01*
X123600000Y-113567339D01*
X123600000Y-113672661D01*
X123627259Y-113774394D01*
X123679920Y-113865606D01*
X123684314Y-113870000D01*
X122023391Y-113870000D01*
X122032009Y-113924413D01*
X122095244Y-114119029D01*
X122188140Y-114301349D01*
X122308417Y-114466894D01*
X122308417Y-114466895D01*
X122453104Y-114611582D01*
X122618652Y-114731861D01*
X122711628Y-114779234D01*
X122762425Y-114827208D01*
X122779220Y-114895029D01*
X122756683Y-114961164D01*
X122711630Y-115000203D01*
X122618388Y-115047713D01*
X122452786Y-115168028D01*
X122308028Y-115312786D01*
X122187715Y-115478386D01*
X122094781Y-115660776D01*
X122031522Y-115855465D01*
X121999500Y-116057648D01*
X121999500Y-116262351D01*
X122031522Y-116464534D01*
X122094781Y-116659223D01*
X122187715Y-116841613D01*
X122308028Y-117007213D01*
X122452786Y-117151971D01*
X122607749Y-117264556D01*
X122618390Y-117272287D01*
X122702315Y-117315049D01*
X122711080Y-117319515D01*
X122761876Y-117367490D01*
X122778671Y-117435311D01*
X122756134Y-117501446D01*
X122711080Y-117540485D01*
X122618386Y-117587715D01*
X122452786Y-117708028D01*
X122308028Y-117852786D01*
X122187715Y-118018386D01*
X122094781Y-118200776D01*
X122031522Y-118395465D01*
X121999500Y-118597648D01*
X121999500Y-118802351D01*
X122031522Y-119004534D01*
X122094781Y-119199223D01*
X122152196Y-119311905D01*
X122168189Y-119343293D01*
X122187715Y-119381613D01*
X122308028Y-119547213D01*
X122452786Y-119691971D01*
X122559531Y-119769524D01*
X122618390Y-119812287D01*
X122702319Y-119855051D01*
X122800776Y-119905218D01*
X122800778Y-119905218D01*
X122800781Y-119905220D01*
X122905137Y-119939127D01*
X122995465Y-119968477D01*
X123096557Y-119984488D01*
X123197648Y-120000500D01*
X123197649Y-120000500D01*
X124802351Y-120000500D01*
X124802352Y-120000500D01*
X125004534Y-119968477D01*
X125199219Y-119905220D01*
X125381610Y-119812287D01*
X125507275Y-119720987D01*
X125547213Y-119691971D01*
X125547215Y-119691968D01*
X125547219Y-119691966D01*
X125691966Y-119547219D01*
X125691968Y-119547215D01*
X125691971Y-119547213D01*
X125793247Y-119407816D01*
X125812287Y-119381610D01*
X125905220Y-119199219D01*
X125968477Y-119004534D01*
X126000500Y-118802352D01*
X126000500Y-118597648D01*
X125986144Y-118507007D01*
X125968477Y-118395465D01*
X125905218Y-118200776D01*
X125871503Y-118134607D01*
X125812287Y-118018390D01*
X125793435Y-117992442D01*
X125691971Y-117852786D01*
X125547219Y-117708034D01*
X125506994Y-117678809D01*
X125446445Y-117634818D01*
X125403780Y-117579489D01*
X125397801Y-117509875D01*
X125430406Y-117448080D01*
X125491245Y-117413723D01*
X125519331Y-117410500D01*
X129446454Y-117410500D01*
X129513493Y-117430185D01*
X129559248Y-117482989D01*
X129569192Y-117552147D01*
X129540167Y-117615703D01*
X129519339Y-117634818D01*
X129470540Y-117670272D01*
X129470535Y-117670276D01*
X129320276Y-117820535D01*
X129320272Y-117820540D01*
X129195379Y-117992442D01*
X129098904Y-118181782D01*
X129033242Y-118383870D01*
X129033242Y-118383873D01*
X129022769Y-118450000D01*
X130566988Y-118450000D01*
X130534075Y-118507007D01*
X130500000Y-118634174D01*
X130500000Y-118765826D01*
X130534075Y-118892993D01*
X130566988Y-118950000D01*
X129022769Y-118950000D01*
X129033242Y-119016126D01*
X129033242Y-119016129D01*
X129098904Y-119218217D01*
X129195379Y-119407557D01*
X129320272Y-119579459D01*
X129320276Y-119579464D01*
X129470535Y-119729723D01*
X129470540Y-119729727D01*
X129642444Y-119854622D01*
X129651495Y-119859234D01*
X129702292Y-119907208D01*
X129719087Y-119975029D01*
X129696550Y-120041164D01*
X129651499Y-120080202D01*
X129642182Y-120084949D01*
X129470213Y-120209890D01*
X129319890Y-120360213D01*
X129194951Y-120532179D01*
X129098444Y-120721585D01*
X129032753Y-120923760D01*
X129027167Y-120959029D01*
X128999500Y-121133713D01*
X128999500Y-121346287D01*
X129032754Y-121556243D01*
X129087637Y-121725156D01*
X129098444Y-121758414D01*
X129194951Y-121947820D01*
X129319890Y-122119786D01*
X129470213Y-122270109D01*
X129642179Y-122395048D01*
X129642181Y-122395049D01*
X129642184Y-122395051D01*
X129831588Y-122491557D01*
X130033757Y-122557246D01*
X130243713Y-122590500D01*
X130243714Y-122590500D01*
X131756286Y-122590500D01*
X131756287Y-122590500D01*
X131966243Y-122557246D01*
X132168412Y-122491557D01*
X132357816Y-122395051D01*
X132442441Y-122333568D01*
X132529786Y-122270109D01*
X132529788Y-122270106D01*
X132529792Y-122270104D01*
X132680104Y-122119792D01*
X132680106Y-122119788D01*
X132680109Y-122119786D01*
X132789086Y-121969789D01*
X132805051Y-121947816D01*
X132901557Y-121758412D01*
X132967246Y-121556243D01*
X133000500Y-121346287D01*
X133000500Y-121133713D01*
X132967246Y-120923757D01*
X132901557Y-120721588D01*
X132805051Y-120532184D01*
X132805049Y-120532181D01*
X132805048Y-120532179D01*
X132680109Y-120360213D01*
X132529786Y-120209890D01*
X132357817Y-120084949D01*
X132348504Y-120080204D01*
X132297707Y-120032230D01*
X132280912Y-119964409D01*
X132303449Y-119898274D01*
X132348507Y-119859232D01*
X132357558Y-119854620D01*
X132529459Y-119729727D01*
X132529464Y-119729723D01*
X132679723Y-119579464D01*
X132679727Y-119579459D01*
X132804620Y-119407557D01*
X132901095Y-119218217D01*
X132966757Y-119016129D01*
X132966757Y-119016126D01*
X132977231Y-118950000D01*
X131433012Y-118950000D01*
X131465925Y-118892993D01*
X131500000Y-118765826D01*
X131500000Y-118634174D01*
X131465925Y-118507007D01*
X131433012Y-118450000D01*
X132977231Y-118450000D01*
X132966757Y-118383873D01*
X132966757Y-118383870D01*
X132901095Y-118181782D01*
X132804620Y-117992442D01*
X132679727Y-117820540D01*
X132679723Y-117820535D01*
X132529464Y-117670276D01*
X132529459Y-117670272D01*
X132357555Y-117545377D01*
X132348500Y-117540763D01*
X132297706Y-117492788D01*
X132280912Y-117424966D01*
X132303451Y-117358832D01*
X132348508Y-117319793D01*
X132357816Y-117315051D01*
X132437007Y-117257515D01*
X132529786Y-117190109D01*
X132529788Y-117190106D01*
X132529792Y-117190104D01*
X132680104Y-117039792D01*
X132680106Y-117039788D01*
X132680109Y-117039786D01*
X132805048Y-116867820D01*
X132805047Y-116867820D01*
X132805051Y-116867816D01*
X132901557Y-116678412D01*
X132967246Y-116476243D01*
X133000500Y-116266287D01*
X133000500Y-116053713D01*
X132967246Y-115843757D01*
X132901557Y-115641588D01*
X132805051Y-115452184D01*
X132805049Y-115452181D01*
X132805048Y-115452179D01*
X132680109Y-115280213D01*
X132529786Y-115129890D01*
X132357817Y-115004949D01*
X132318436Y-114984883D01*
X132267641Y-114936908D01*
X132250846Y-114869087D01*
X132273384Y-114802953D01*
X132318439Y-114763913D01*
X132381349Y-114731859D01*
X132546894Y-114611582D01*
X132546895Y-114611582D01*
X132691582Y-114466895D01*
X132691582Y-114466894D01*
X132811859Y-114301349D01*
X132904755Y-114119029D01*
X132967990Y-113924413D01*
X132976609Y-113870000D01*
X131433012Y-113870000D01*
X131465925Y-113812993D01*
X131500000Y-113685826D01*
X131500000Y-113554174D01*
X131465925Y-113427007D01*
X131433012Y-113370000D01*
X132890164Y-113370000D01*
X132957203Y-113389685D01*
X132977845Y-113406319D01*
X139086171Y-119514645D01*
X139086172Y-119514646D01*
X139225354Y-119653828D01*
X139384595Y-119769524D01*
X139559975Y-119858884D01*
X139654201Y-119889500D01*
X139747173Y-119919709D01*
X139802718Y-119928506D01*
X139941578Y-119950500D01*
X139941583Y-119950500D01*
X140138416Y-119950500D01*
X150945603Y-119950500D01*
X151012642Y-119970185D01*
X151058397Y-120022989D01*
X151068341Y-120092147D01*
X151039316Y-120155703D01*
X151018488Y-120174819D01*
X150970207Y-120209896D01*
X150819890Y-120360213D01*
X150694951Y-120532179D01*
X150598444Y-120721585D01*
X150532753Y-120923760D01*
X150527167Y-120959029D01*
X150499500Y-121133713D01*
X150499500Y-121346287D01*
X150532754Y-121556243D01*
X150587637Y-121725156D01*
X150598444Y-121758414D01*
X150694951Y-121947820D01*
X150819890Y-122119786D01*
X150970213Y-122270109D01*
X151142179Y-122395048D01*
X151142181Y-122395049D01*
X151142184Y-122395051D01*
X151331588Y-122491557D01*
X151533757Y-122557246D01*
X151743713Y-122590500D01*
X151743714Y-122590500D01*
X153256286Y-122590500D01*
X153256287Y-122590500D01*
X153466243Y-122557246D01*
X153668412Y-122491557D01*
X153857816Y-122395051D01*
X153942441Y-122333568D01*
X154029786Y-122270109D01*
X154029788Y-122270106D01*
X154029792Y-122270104D01*
X154180104Y-122119792D01*
X154180106Y-122119788D01*
X154180109Y-122119786D01*
X154289086Y-121969789D01*
X154305051Y-121947816D01*
X154401557Y-121758412D01*
X154467246Y-121556243D01*
X154500500Y-121346287D01*
X154500500Y-121133713D01*
X154467246Y-120923757D01*
X154401557Y-120721588D01*
X154305051Y-120532184D01*
X154226886Y-120424598D01*
X154226885Y-120424595D01*
X154180109Y-120360214D01*
X154180105Y-120360209D01*
X154175674Y-120355778D01*
X161299500Y-120355778D01*
X161299500Y-120644221D01*
X161299501Y-120644238D01*
X161337149Y-120930206D01*
X161337150Y-120930211D01*
X161337151Y-120930217D01*
X161411809Y-121208844D01*
X161411814Y-121208860D01*
X161522191Y-121475336D01*
X161522199Y-121475352D01*
X161666420Y-121725148D01*
X161666431Y-121725164D01*
X161842024Y-121954002D01*
X161842030Y-121954009D01*
X162045990Y-122157969D01*
X162045996Y-122157974D01*
X162274844Y-122333575D01*
X162274851Y-122333579D01*
X162524647Y-122477800D01*
X162524663Y-122477808D01*
X162791139Y-122588185D01*
X162791145Y-122588186D01*
X162791155Y-122588191D01*
X163069783Y-122662849D01*
X163355772Y-122700500D01*
X163355779Y-122700500D01*
X163644221Y-122700500D01*
X163644228Y-122700500D01*
X163930217Y-122662849D01*
X164208845Y-122588191D01*
X164208857Y-122588185D01*
X164208860Y-122588185D01*
X164475336Y-122477808D01*
X164475339Y-122477806D01*
X164475345Y-122477804D01*
X164725156Y-122333575D01*
X164954004Y-122157974D01*
X165157974Y-121954004D01*
X165333575Y-121725156D01*
X165477804Y-121475345D01*
X165588191Y-121208845D01*
X165662849Y-120930217D01*
X165700500Y-120644228D01*
X165700500Y-120355772D01*
X165662849Y-120069783D01*
X165588191Y-119791155D01*
X165588186Y-119791145D01*
X165588185Y-119791139D01*
X165477808Y-119524663D01*
X165477800Y-119524647D01*
X165333579Y-119274851D01*
X165333575Y-119274844D01*
X165157974Y-119045996D01*
X165157969Y-119045990D01*
X164954009Y-118842030D01*
X164954002Y-118842024D01*
X164725164Y-118666431D01*
X164725162Y-118666429D01*
X164725156Y-118666425D01*
X164725151Y-118666422D01*
X164725148Y-118666420D01*
X164475352Y-118522199D01*
X164475336Y-118522191D01*
X164208860Y-118411814D01*
X164208848Y-118411810D01*
X164208845Y-118411809D01*
X163930217Y-118337151D01*
X163930211Y-118337150D01*
X163930206Y-118337149D01*
X163644238Y-118299501D01*
X163644233Y-118299500D01*
X163644228Y-118299500D01*
X163355772Y-118299500D01*
X163355766Y-118299500D01*
X163355761Y-118299501D01*
X163069793Y-118337149D01*
X163069786Y-118337150D01*
X163069783Y-118337151D01*
X162852152Y-118395465D01*
X162791155Y-118411809D01*
X162791139Y-118411814D01*
X162524663Y-118522191D01*
X162524647Y-118522199D01*
X162274851Y-118666420D01*
X162274835Y-118666431D01*
X162045997Y-118842024D01*
X162045990Y-118842030D01*
X161842030Y-119045990D01*
X161842024Y-119045997D01*
X161666431Y-119274835D01*
X161666420Y-119274851D01*
X161522199Y-119524647D01*
X161522191Y-119524663D01*
X161411814Y-119791139D01*
X161411809Y-119791155D01*
X161344820Y-120041164D01*
X161337152Y-120069780D01*
X161337149Y-120069793D01*
X161299501Y-120355761D01*
X161299500Y-120355778D01*
X154175674Y-120355778D01*
X154029786Y-120209890D01*
X153857820Y-120084951D01*
X153857115Y-120084591D01*
X153849054Y-120080485D01*
X153798259Y-120032512D01*
X153781463Y-119964692D01*
X153803999Y-119898556D01*
X153849054Y-119859515D01*
X153857816Y-119855051D01*
X153975535Y-119769524D01*
X154029786Y-119730109D01*
X154029788Y-119730106D01*
X154029792Y-119730104D01*
X154180104Y-119579792D01*
X154305051Y-119407816D01*
X154337929Y-119343286D01*
X154360727Y-119311908D01*
X155993829Y-117678808D01*
X156109524Y-117519568D01*
X156198884Y-117344189D01*
X156259709Y-117156989D01*
X156283431Y-117007213D01*
X156290500Y-116962584D01*
X156290500Y-110325993D01*
X156272586Y-110212899D01*
X156259709Y-110131590D01*
X156259707Y-110131585D01*
X156259707Y-110131582D01*
X156250210Y-110102354D01*
X156250209Y-110102352D01*
X156250209Y-110102351D01*
X156198884Y-109944390D01*
X156109524Y-109769011D01*
X155993829Y-109609771D01*
X154411197Y-108027139D01*
X154388393Y-107995753D01*
X154305051Y-107832184D01*
X154305049Y-107832181D01*
X154305048Y-107832179D01*
X154180109Y-107660213D01*
X154029786Y-107509890D01*
X153857820Y-107384951D01*
X153857115Y-107384591D01*
X153849054Y-107380485D01*
X153798259Y-107332512D01*
X153781463Y-107264692D01*
X153803999Y-107198556D01*
X153849054Y-107159515D01*
X153857816Y-107155051D01*
X153879789Y-107139086D01*
X154029786Y-107030109D01*
X154029788Y-107030106D01*
X154029792Y-107030104D01*
X154180104Y-106879792D01*
X154180106Y-106879788D01*
X154180109Y-106879786D01*
X154238313Y-106799672D01*
X154305051Y-106707816D01*
X154388394Y-106544242D01*
X154411193Y-106512863D01*
X155903828Y-105020230D01*
X156019523Y-104860990D01*
X156027697Y-104844949D01*
X156108884Y-104685609D01*
X156130565Y-104618882D01*
X156149945Y-104559237D01*
X156149945Y-104559236D01*
X156159599Y-104529524D01*
X156169709Y-104498411D01*
X156186504Y-104392369D01*
X156200500Y-104304006D01*
X156200500Y-89915993D01*
X156177487Y-89770699D01*
X156177487Y-89770698D01*
X156169709Y-89721591D01*
X156169709Y-89721589D01*
X156139240Y-89627816D01*
X156108884Y-89534391D01*
X156108882Y-89534388D01*
X156108882Y-89534386D01*
X156030113Y-89379793D01*
X156019524Y-89359011D01*
X155903828Y-89199770D01*
X155764646Y-89060588D01*
X154411197Y-87707139D01*
X154388393Y-87675753D01*
X154385207Y-87669500D01*
X154305051Y-87512184D01*
X154305049Y-87512181D01*
X154305048Y-87512179D01*
X154180109Y-87340213D01*
X154029786Y-87189890D01*
X153857820Y-87064951D01*
X153668414Y-86968444D01*
X153668413Y-86968443D01*
X153668412Y-86968443D01*
X153466243Y-86902754D01*
X153466241Y-86902753D01*
X153466240Y-86902753D01*
X153304957Y-86877208D01*
X153256287Y-86869500D01*
X153256286Y-86869500D01*
X152969336Y-86869500D01*
X152902297Y-86849815D01*
X152881655Y-86833181D01*
X144864291Y-78815817D01*
X144864289Y-78815815D01*
X144705048Y-78700119D01*
X144649734Y-78671935D01*
X144529673Y-78610760D01*
X144342469Y-78549933D01*
X144148065Y-78519143D01*
X144148060Y-78519143D01*
X120636459Y-78519143D01*
X120569420Y-78499458D01*
X120523665Y-78446654D01*
X120513721Y-78377496D01*
X120542746Y-78313940D01*
X120548778Y-78307462D01*
X120918054Y-77938186D01*
X122137778Y-76718461D01*
X122137782Y-76718459D01*
X122277139Y-76579102D01*
X122386632Y-76415234D01*
X122462051Y-76233155D01*
X122483115Y-76127259D01*
X122500500Y-76039863D01*
X122500500Y-75359879D01*
X122520185Y-75292840D01*
X122572989Y-75247085D01*
X122586182Y-75241948D01*
X122589992Y-75240709D01*
X122699219Y-75205220D01*
X122881610Y-75112287D01*
X123002877Y-75024181D01*
X123068683Y-75000702D01*
X123075762Y-75000500D01*
X129534218Y-75000500D01*
X129601257Y-75020185D01*
X129621899Y-75036819D01*
X130531092Y-75946012D01*
X130564577Y-76007335D01*
X130561342Y-76072011D01*
X130536447Y-76148630D01*
X130499500Y-76381902D01*
X130499500Y-76618097D01*
X130536446Y-76851368D01*
X130609433Y-77075996D01*
X130698146Y-77250104D01*
X130716657Y-77286433D01*
X130855483Y-77477510D01*
X131022490Y-77644517D01*
X131213567Y-77783343D01*
X131247240Y-77800500D01*
X131424003Y-77890566D01*
X131424005Y-77890566D01*
X131424008Y-77890568D01*
X131544412Y-77929689D01*
X131648631Y-77963553D01*
X131881903Y-78000500D01*
X131881908Y-78000500D01*
X133118097Y-78000500D01*
X133351368Y-77963553D01*
X133429439Y-77938186D01*
X133575992Y-77890568D01*
X133786433Y-77783343D01*
X133977510Y-77644517D01*
X134085208Y-77536819D01*
X134146531Y-77503334D01*
X134172889Y-77500500D01*
X150250217Y-77500500D01*
X150365787Y-77477511D01*
X150395720Y-77471557D01*
X150443510Y-77462051D01*
X150497448Y-77439709D01*
X150625588Y-77386632D01*
X150789456Y-77277139D01*
X150928813Y-77137782D01*
X150928813Y-77137780D01*
X150939021Y-77127573D01*
X150939022Y-77127570D01*
X155477139Y-72589456D01*
X155520241Y-72524949D01*
X155586632Y-72425588D01*
X155635018Y-72308772D01*
X155662051Y-72243510D01*
X155700500Y-72050215D01*
X155700500Y-71853134D01*
X155700500Y-69343961D01*
X155700501Y-69343940D01*
X155700501Y-69140743D01*
X155700500Y-69140741D01*
X155691002Y-69092993D01*
X155662052Y-68947451D01*
X155586632Y-68765372D01*
X155586631Y-68765371D01*
X155586628Y-68765365D01*
X155477140Y-68601505D01*
X155477137Y-68601501D01*
X155014566Y-68138932D01*
X155014563Y-68138928D01*
X155014563Y-68138929D01*
X155007496Y-68131862D01*
X155007496Y-68131861D01*
X154868139Y-67992504D01*
X154868138Y-67992503D01*
X154868137Y-67992502D01*
X154704277Y-67883014D01*
X154704268Y-67883009D01*
X154621040Y-67848535D01*
X154575522Y-67829681D01*
X154548857Y-67818636D01*
X154522194Y-67807592D01*
X154522190Y-67807591D01*
X154384942Y-67780291D01*
X154328900Y-67769143D01*
X154328898Y-67769143D01*
X154110200Y-67769143D01*
X154043161Y-67749458D01*
X154030634Y-67740149D01*
X153857820Y-67614594D01*
X153857115Y-67614234D01*
X153849054Y-67610128D01*
X153798259Y-67562155D01*
X153781463Y-67494335D01*
X153803999Y-67428199D01*
X153849054Y-67389158D01*
X153857816Y-67384694D01*
X153916676Y-67341930D01*
X154029786Y-67259752D01*
X154029788Y-67259749D01*
X154029792Y-67259747D01*
X154180104Y-67109435D01*
X154180106Y-67109431D01*
X154180109Y-67109429D01*
X154305048Y-66937463D01*
X154305047Y-66937463D01*
X154305051Y-66937459D01*
X154401557Y-66748055D01*
X154467246Y-66545886D01*
X154500500Y-66335930D01*
X154500500Y-66123356D01*
X154467246Y-65913400D01*
X154401557Y-65711231D01*
X154305051Y-65521827D01*
X154305049Y-65521824D01*
X154305048Y-65521822D01*
X154180109Y-65349856D01*
X154029786Y-65199533D01*
X153857820Y-65074594D01*
X153668414Y-64978087D01*
X153668413Y-64978086D01*
X153668412Y-64978086D01*
X153466243Y-64912397D01*
X153466241Y-64912396D01*
X153466240Y-64912396D01*
X153304957Y-64886851D01*
X153256287Y-64879143D01*
X151743713Y-64879143D01*
X151695042Y-64886851D01*
X151533760Y-64912396D01*
X151331585Y-64978087D01*
X151142179Y-65074594D01*
X150966266Y-65202402D01*
X150965635Y-65201534D01*
X150906581Y-65228002D01*
X150889800Y-65229143D01*
X117075762Y-65229143D01*
X117008723Y-65209458D01*
X117002877Y-65205461D01*
X117001682Y-65204593D01*
X116881610Y-65117356D01*
X116797681Y-65074592D01*
X116699223Y-65024424D01*
X116504534Y-64961165D01*
X116318799Y-64931748D01*
X116302352Y-64929143D01*
X114697648Y-64929143D01*
X114681201Y-64931748D01*
X114495465Y-64961165D01*
X114300776Y-65024424D01*
X114118386Y-65117358D01*
X113952786Y-65237671D01*
X113808028Y-65382429D01*
X113687715Y-65548029D01*
X113639899Y-65641873D01*
X113591924Y-65692669D01*
X113524103Y-65709464D01*
X113457968Y-65686926D01*
X113441733Y-65673259D01*
X113044291Y-65275817D01*
X113044289Y-65275815D01*
X112885048Y-65160119D01*
X112874970Y-65154984D01*
X112709673Y-65070760D01*
X112522470Y-65009934D01*
X112408569Y-64991893D01*
X112345435Y-64961963D01*
X112308504Y-64902651D01*
X112309502Y-64832789D01*
X112340285Y-64781741D01*
X114644517Y-62477510D01*
X114783343Y-62286434D01*
X114890568Y-62075992D01*
X114933236Y-61944674D01*
X114963553Y-61851368D01*
X114977968Y-61760354D01*
X115000500Y-61618097D01*
X115000500Y-49961902D01*
X114963553Y-49728631D01*
X114890566Y-49504003D01*
X114783342Y-49293566D01*
X114766355Y-49270185D01*
X114729682Y-49219709D01*
X114708391Y-49190404D01*
X114644521Y-49102493D01*
X110838337Y-45296309D01*
X110804852Y-45234986D01*
X110809836Y-45165294D01*
X110811457Y-45161175D01*
X110818398Y-45144419D01*
X110886270Y-44891116D01*
X110920500Y-44631120D01*
X110920500Y-44368880D01*
X110886270Y-44108884D01*
X110818398Y-43855581D01*
X110777654Y-43757216D01*
X110718046Y-43613309D01*
X110718041Y-43613299D01*
X110586924Y-43386196D01*
X110427281Y-43178148D01*
X110427274Y-43178140D01*
X110241860Y-42992726D01*
X110241851Y-42992718D01*
X110033803Y-42833075D01*
X109806700Y-42701958D01*
X109806690Y-42701953D01*
X109564428Y-42601605D01*
X109564421Y-42601603D01*
X109564419Y-42601602D01*
X109311116Y-42533730D01*
X109253339Y-42526123D01*
X109051127Y-42499500D01*
X109051120Y-42499500D01*
X106788880Y-42499500D01*
X106788872Y-42499500D01*
X106557772Y-42529926D01*
X106528884Y-42533730D01*
X106284881Y-42599110D01*
X106275581Y-42601602D01*
X106275571Y-42601605D01*
X106033309Y-42701953D01*
X106033299Y-42701958D01*
X105806196Y-42833075D01*
X105598148Y-42992718D01*
X105412718Y-43178148D01*
X105253075Y-43386196D01*
X105121958Y-43613299D01*
X105121953Y-43613309D01*
X105021605Y-43855571D01*
X105021602Y-43855581D01*
X104983114Y-43999223D01*
X104953730Y-44108885D01*
X104919500Y-44368872D01*
X104919500Y-44631127D01*
X104938277Y-44773743D01*
X104953730Y-44891116D01*
X105021602Y-45144418D01*
X105021605Y-45144428D01*
X105121953Y-45386690D01*
X105121958Y-45386700D01*
X105253075Y-45613803D01*
X105412718Y-45821851D01*
X105412726Y-45821860D01*
X105598140Y-46007274D01*
X105598148Y-46007281D01*
X105598149Y-46007282D01*
X105646554Y-46044424D01*
X105806196Y-46166924D01*
X106033299Y-46298041D01*
X106033309Y-46298046D01*
X106275571Y-46398394D01*
X106275581Y-46398398D01*
X106528884Y-46466270D01*
X106788880Y-46500500D01*
X107747111Y-46500500D01*
X107814150Y-46520185D01*
X107834792Y-46536819D01*
X111963181Y-50665208D01*
X111996666Y-50726531D01*
X111999500Y-50752889D01*
X111999500Y-60827111D01*
X111979815Y-60894150D01*
X111963181Y-60914792D01*
X108185149Y-64692824D01*
X108123826Y-64726309D01*
X108097468Y-64729143D01*
X103541903Y-64729143D01*
X103308631Y-64766089D01*
X103084003Y-64839076D01*
X102873566Y-64946300D01*
X102766040Y-65024423D01*
X102682490Y-65085126D01*
X102682488Y-65085128D01*
X102682487Y-65085128D01*
X102515485Y-65252130D01*
X102515485Y-65252131D01*
X102515483Y-65252133D01*
X102483676Y-65295912D01*
X102376657Y-65443209D01*
X102269433Y-65653646D01*
X102196446Y-65878274D01*
X102159500Y-66111545D01*
X102159500Y-66347740D01*
X102196446Y-66581011D01*
X102269433Y-66805639D01*
X102346557Y-66957002D01*
X102376657Y-67016076D01*
X102515483Y-67207153D01*
X102682490Y-67374160D01*
X102749905Y-67423140D01*
X102752190Y-67424800D01*
X102794856Y-67480130D01*
X102800835Y-67549743D01*
X102768229Y-67611538D01*
X102752191Y-67625436D01*
X102647636Y-67701399D01*
X102491756Y-67857279D01*
X102491752Y-67857284D01*
X102362187Y-68035617D01*
X102262104Y-68232036D01*
X102262103Y-68232039D01*
X102193985Y-68441690D01*
X102184596Y-68500970D01*
X102159500Y-68659421D01*
X102159500Y-68879865D01*
X102170205Y-68947451D01*
X102193985Y-69097595D01*
X102262103Y-69307246D01*
X102262104Y-69307249D01*
X102309364Y-69400000D01*
X102348834Y-69477463D01*
X102362187Y-69503668D01*
X102491752Y-69682001D01*
X102491756Y-69682006D01*
X102647636Y-69837886D01*
X102647641Y-69837890D01*
X102787680Y-69939634D01*
X102830346Y-69994963D01*
X102836325Y-70064577D01*
X102803720Y-70126372D01*
X102787681Y-70140270D01*
X102647959Y-70241785D01*
X102647958Y-70241785D01*
X102492142Y-70397601D01*
X102362613Y-70575882D01*
X102262567Y-70772232D01*
X102194473Y-70981804D01*
X102194473Y-70981807D01*
X102182145Y-71059643D01*
X103344314Y-71059643D01*
X103339920Y-71064037D01*
X103287259Y-71155249D01*
X103260000Y-71256982D01*
X103260000Y-71362304D01*
X103287259Y-71464037D01*
X103339920Y-71555249D01*
X103344314Y-71559643D01*
X102182145Y-71559643D01*
X102194473Y-71637478D01*
X102194473Y-71637481D01*
X102262567Y-71847053D01*
X102362613Y-72043403D01*
X102492142Y-72221684D01*
X102647958Y-72377500D01*
X102647964Y-72377505D01*
X102787680Y-72479015D01*
X102830346Y-72534345D01*
X102836325Y-72603958D01*
X102803719Y-72665753D01*
X102787681Y-72679651D01*
X102647636Y-72781399D01*
X102491756Y-72937279D01*
X102491752Y-72937284D01*
X102362187Y-73115617D01*
X102262104Y-73312036D01*
X102262103Y-73312039D01*
X102193985Y-73521690D01*
X102159500Y-73739421D01*
X102159500Y-73959864D01*
X102193985Y-74177595D01*
X102262103Y-74387246D01*
X102262104Y-74387249D01*
X102319157Y-74499219D01*
X102342262Y-74544565D01*
X102362187Y-74583668D01*
X102441081Y-74692258D01*
X102464561Y-74758065D01*
X102448735Y-74826118D01*
X102398629Y-74874813D01*
X102340763Y-74889143D01*
X101791975Y-74889143D01*
X101724936Y-74869458D01*
X101704294Y-74852824D01*
X97551006Y-70699536D01*
X97517521Y-70638213D01*
X97522505Y-70568521D01*
X97564377Y-70512588D01*
X97600365Y-70493925D01*
X97646235Y-70479022D01*
X97811096Y-70395021D01*
X97960787Y-70286264D01*
X98091621Y-70155430D01*
X98200378Y-70005739D01*
X98284379Y-69840878D01*
X98341555Y-69664907D01*
X98370500Y-69482157D01*
X98370500Y-69297129D01*
X98341555Y-69114379D01*
X98293288Y-68965826D01*
X98284380Y-68938410D01*
X98284379Y-68938407D01*
X98231269Y-68834174D01*
X98200378Y-68773547D01*
X98091621Y-68623856D01*
X97960787Y-68493022D01*
X97811096Y-68384265D01*
X97800255Y-68378741D01*
X97646235Y-68300263D01*
X97646232Y-68300262D01*
X97470265Y-68243088D01*
X97378889Y-68228615D01*
X97287514Y-68214143D01*
X97102486Y-68214143D01*
X97041569Y-68223791D01*
X96919734Y-68243088D01*
X96743767Y-68300262D01*
X96743764Y-68300264D01*
X96700795Y-68322158D01*
X96632125Y-68335054D01*
X96567385Y-68308777D01*
X96527128Y-68251671D01*
X96520500Y-68211673D01*
X96520500Y-67564301D01*
X96540185Y-67497262D01*
X96592989Y-67451507D01*
X96662147Y-67441563D01*
X96717385Y-67463983D01*
X96772224Y-67503825D01*
X96787184Y-67514694D01*
X96976588Y-67611200D01*
X97178757Y-67676889D01*
X97388713Y-67710143D01*
X97388714Y-67710143D01*
X97601286Y-67710143D01*
X97601287Y-67710143D01*
X97811243Y-67676889D01*
X98013412Y-67611200D01*
X98202816Y-67514694D01*
X98289786Y-67451507D01*
X98374786Y-67389752D01*
X98374788Y-67389749D01*
X98374792Y-67389747D01*
X98525104Y-67239435D01*
X98525106Y-67239431D01*
X98525109Y-67239429D01*
X98650048Y-67067463D01*
X98650047Y-67067463D01*
X98650051Y-67067459D01*
X98746557Y-66878055D01*
X98812246Y-66675886D01*
X98845500Y-66465930D01*
X98845500Y-66253356D01*
X98812246Y-66043400D01*
X98746557Y-65841231D01*
X98650051Y-65651827D01*
X98650049Y-65651824D01*
X98650048Y-65651822D01*
X98525109Y-65479856D01*
X98374786Y-65329533D01*
X98202820Y-65204594D01*
X98013414Y-65108087D01*
X98013413Y-65108086D01*
X98013412Y-65108086D01*
X97811243Y-65042397D01*
X97811241Y-65042396D01*
X97811240Y-65042396D01*
X97649957Y-65016851D01*
X97601287Y-65009143D01*
X97388713Y-65009143D01*
X97340042Y-65016851D01*
X97178760Y-65042396D01*
X96976585Y-65108087D01*
X96787181Y-65204593D01*
X96717384Y-65255303D01*
X96651578Y-65278782D01*
X96583524Y-65262956D01*
X96534830Y-65212850D01*
X96520500Y-65154984D01*
X96520500Y-65143143D01*
X96483553Y-64909872D01*
X96457322Y-64829143D01*
X96410568Y-64685249D01*
X96400199Y-64664899D01*
X96370720Y-64607041D01*
X96370720Y-64607042D01*
X96303343Y-64474807D01*
X96164517Y-64283731D01*
X91130785Y-59249999D01*
X104935654Y-59249999D01*
X104935655Y-59250000D01*
X107486988Y-59250000D01*
X107454075Y-59307007D01*
X107420000Y-59434174D01*
X107420000Y-59565826D01*
X107454075Y-59692993D01*
X107486988Y-59750000D01*
X104935655Y-59750000D01*
X104954221Y-59891016D01*
X105022075Y-60144255D01*
X105122404Y-60386471D01*
X105122409Y-60386482D01*
X105253496Y-60613528D01*
X105413092Y-60821519D01*
X105413098Y-60821526D01*
X105598473Y-61006901D01*
X105598480Y-61006907D01*
X105806471Y-61166503D01*
X106033517Y-61297590D01*
X106033528Y-61297595D01*
X106275744Y-61397924D01*
X106528979Y-61465777D01*
X106528990Y-61465779D01*
X106788905Y-61499999D01*
X106788920Y-61500000D01*
X107670000Y-61500000D01*
X107670000Y-59933012D01*
X107727007Y-59965925D01*
X107854174Y-60000000D01*
X107985826Y-60000000D01*
X108112993Y-59965925D01*
X108170000Y-59933012D01*
X108170000Y-61500000D01*
X109051080Y-61500000D01*
X109051094Y-61499999D01*
X109311009Y-61465779D01*
X109311020Y-61465777D01*
X109564255Y-61397924D01*
X109806471Y-61297595D01*
X109806482Y-61297590D01*
X110033528Y-61166503D01*
X110241519Y-61006907D01*
X110241526Y-61006901D01*
X110426901Y-60821526D01*
X110426907Y-60821519D01*
X110586503Y-60613528D01*
X110717590Y-60386482D01*
X110717595Y-60386471D01*
X110817924Y-60144255D01*
X110885778Y-59891016D01*
X110904345Y-59750000D01*
X108353012Y-59750000D01*
X108385925Y-59692993D01*
X108420000Y-59565826D01*
X108420000Y-59434174D01*
X108385925Y-59307007D01*
X108353012Y-59250000D01*
X110904345Y-59250000D01*
X110904345Y-59249999D01*
X110885778Y-59108983D01*
X110817924Y-58855744D01*
X110717595Y-58613528D01*
X110717590Y-58613517D01*
X110586503Y-58386471D01*
X110426907Y-58178480D01*
X110426901Y-58178473D01*
X110241526Y-57993098D01*
X110241519Y-57993092D01*
X110033528Y-57833496D01*
X109806482Y-57702409D01*
X109806471Y-57702404D01*
X109564255Y-57602075D01*
X109311020Y-57534222D01*
X109311009Y-57534220D01*
X109051094Y-57500000D01*
X108170000Y-57500000D01*
X108170000Y-59066988D01*
X108112993Y-59034075D01*
X107985826Y-59000000D01*
X107854174Y-59000000D01*
X107727007Y-59034075D01*
X107670000Y-59066988D01*
X107670000Y-57500000D01*
X106788905Y-57500000D01*
X106528990Y-57534220D01*
X106528979Y-57534222D01*
X106275744Y-57602075D01*
X106033528Y-57702404D01*
X106033517Y-57702409D01*
X105806471Y-57833496D01*
X105598480Y-57993092D01*
X105598473Y-57993098D01*
X105413098Y-58178473D01*
X105413092Y-58178480D01*
X105253496Y-58386471D01*
X105122409Y-58613517D01*
X105122404Y-58613528D01*
X105022075Y-58855744D01*
X104954221Y-59108983D01*
X104935654Y-59249999D01*
X91130785Y-59249999D01*
X90736269Y-58855483D01*
X90545193Y-58716657D01*
X90517632Y-58702614D01*
X90334755Y-58609433D01*
X90110127Y-58536446D01*
X89876856Y-58499500D01*
X89876851Y-58499500D01*
X79244500Y-58499500D01*
X79177461Y-58479815D01*
X79131706Y-58427011D01*
X79120500Y-58375500D01*
X79120500Y-57089033D01*
X79140185Y-57021994D01*
X79163962Y-56994748D01*
X79167210Y-56991972D01*
X79167219Y-56991966D01*
X79311966Y-56847219D01*
X79311968Y-56847215D01*
X79311971Y-56847213D01*
X79397264Y-56729815D01*
X79432287Y-56681610D01*
X79525220Y-56499219D01*
X79588477Y-56304534D01*
X79620500Y-56102352D01*
X79620500Y-55897648D01*
X79608992Y-55824991D01*
X79588477Y-55695465D01*
X79525218Y-55500776D01*
X79457183Y-55367252D01*
X79432287Y-55318390D01*
X79387778Y-55257128D01*
X79311971Y-55152786D01*
X79167215Y-55008030D01*
X79163954Y-55005244D01*
X79125770Y-54946731D01*
X79120500Y-54910966D01*
X79120500Y-52970047D01*
X79140185Y-52903008D01*
X79156819Y-52882366D01*
X79191966Y-52847219D01*
X79191968Y-52847215D01*
X79191971Y-52847213D01*
X79277264Y-52729815D01*
X79312287Y-52681610D01*
X79405220Y-52499219D01*
X79468477Y-52304534D01*
X79500500Y-52102352D01*
X79500500Y-51897648D01*
X79468477Y-51695465D01*
X79405218Y-51500776D01*
X79342260Y-51377216D01*
X79312287Y-51318390D01*
X79284124Y-51279626D01*
X79191971Y-51152786D01*
X79156819Y-51117634D01*
X79123334Y-51056311D01*
X79120500Y-51029953D01*
X79120500Y-48970047D01*
X79140185Y-48903008D01*
X79156819Y-48882366D01*
X79191966Y-48847219D01*
X79191968Y-48847215D01*
X79191971Y-48847213D01*
X79267124Y-48743772D01*
X79312287Y-48681610D01*
X79405220Y-48499219D01*
X79468477Y-48304534D01*
X79500500Y-48102352D01*
X79500500Y-47897648D01*
X79468477Y-47695466D01*
X79405220Y-47500781D01*
X79405218Y-47500778D01*
X79405218Y-47500776D01*
X79327524Y-47348295D01*
X79312287Y-47318390D01*
X79284124Y-47279626D01*
X79191971Y-47152786D01*
X79156819Y-47117634D01*
X79123334Y-47056311D01*
X79120500Y-47029953D01*
X79120500Y-44470047D01*
X79140185Y-44403008D01*
X79156819Y-44382366D01*
X79170313Y-44368872D01*
X79191966Y-44347219D01*
X79191968Y-44347215D01*
X79191971Y-44347213D01*
X79244732Y-44274590D01*
X79312287Y-44181610D01*
X79405220Y-43999219D01*
X79468477Y-43804534D01*
X79500500Y-43602352D01*
X79500500Y-43397648D01*
X79475693Y-43241027D01*
X79468477Y-43195465D01*
X79425012Y-43061694D01*
X79405220Y-43000781D01*
X79405218Y-43000778D01*
X79405218Y-43000776D01*
X79358695Y-42909471D01*
X79312287Y-42818390D01*
X79273293Y-42764719D01*
X79191971Y-42652786D01*
X79047213Y-42508028D01*
X78881613Y-42387715D01*
X78881612Y-42387714D01*
X78881610Y-42387713D01*
X78807349Y-42349875D01*
X78699223Y-42294781D01*
X78504534Y-42231522D01*
X78329995Y-42203878D01*
X78302352Y-42199500D01*
X78302351Y-42199500D01*
X78282531Y-42199500D01*
X78226236Y-42185985D01*
X78075994Y-42109433D01*
X78075993Y-42109432D01*
X78075992Y-42109432D01*
X77851368Y-42036447D01*
X77844034Y-42035285D01*
X77835970Y-42034008D01*
X77772836Y-42004077D01*
X77767690Y-41999216D01*
X75814648Y-40046174D01*
X75814646Y-40046172D01*
X75655405Y-39930476D01*
X75480030Y-39841117D01*
X75292826Y-39780290D01*
X75098422Y-39749500D01*
X75098417Y-39749500D01*
X66629083Y-39749500D01*
X66629078Y-39749500D01*
X66434673Y-39780290D01*
X66247469Y-39841117D01*
X66072094Y-39930476D01*
X65981241Y-39996485D01*
X65912854Y-40046172D01*
X65912852Y-40046174D01*
X65912851Y-40046174D01*
X65378345Y-40580681D01*
X65317022Y-40614166D01*
X65290664Y-40617000D01*
X65007648Y-40617000D01*
X64983329Y-40620851D01*
X64805465Y-40649022D01*
X64610776Y-40712281D01*
X64428386Y-40805215D01*
X64262786Y-40925528D01*
X64118028Y-41070286D01*
X63997715Y-41235886D01*
X63904781Y-41418276D01*
X63841522Y-41612965D01*
X63810500Y-41808834D01*
X63809500Y-41815148D01*
X63809500Y-42019852D01*
X63823688Y-42109432D01*
X63841523Y-42222035D01*
X63841524Y-42222042D01*
X63852130Y-42254683D01*
X63854125Y-42324524D01*
X63818044Y-42384357D01*
X63755343Y-42415184D01*
X63734199Y-42417000D01*
X60265801Y-42417000D01*
X60198762Y-42397315D01*
X60153007Y-42344511D01*
X60143063Y-42275353D01*
X60147870Y-42254683D01*
X60158475Y-42222042D01*
X60158475Y-42222038D01*
X60158477Y-42222034D01*
X60190500Y-42019852D01*
X60190500Y-41815148D01*
X60158477Y-41612966D01*
X60095220Y-41418281D01*
X60095218Y-41418278D01*
X60095218Y-41418276D01*
X60061503Y-41352107D01*
X60002287Y-41235890D01*
X59965181Y-41184817D01*
X59881971Y-41070286D01*
X59737213Y-40925528D01*
X59571613Y-40805215D01*
X59571612Y-40805214D01*
X59571610Y-40805213D01*
X59514653Y-40776191D01*
X59389223Y-40712281D01*
X59194534Y-40649022D01*
X59019995Y-40621378D01*
X58992352Y-40617000D01*
X57387648Y-40617000D01*
X57320254Y-40627674D01*
X57185464Y-40649023D01*
X57148816Y-40660931D01*
X57110498Y-40667000D01*
X50579502Y-40667000D01*
X50541184Y-40660931D01*
X50504535Y-40649023D01*
X50403443Y-40633011D01*
X50302352Y-40617000D01*
X48697648Y-40617000D01*
X48673329Y-40620851D01*
X48495465Y-40649022D01*
X48300776Y-40712281D01*
X48118386Y-40805215D01*
X47952786Y-40925528D01*
X47808032Y-41070282D01*
X47808028Y-41070287D01*
X47724818Y-41184817D01*
X47669488Y-41227483D01*
X47599875Y-41233462D01*
X47538080Y-41200856D01*
X47503723Y-41140018D01*
X47500500Y-41111932D01*
X47500500Y-31355778D01*
X52299500Y-31355778D01*
X52299500Y-31644221D01*
X52299501Y-31644238D01*
X52337149Y-31930206D01*
X52337150Y-31930211D01*
X52337151Y-31930217D01*
X52411809Y-32208844D01*
X52411814Y-32208860D01*
X52522191Y-32475336D01*
X52522199Y-32475352D01*
X52666420Y-32725148D01*
X52666431Y-32725164D01*
X52842024Y-32954002D01*
X52842030Y-32954009D01*
X53045990Y-33157969D01*
X53045996Y-33157974D01*
X53274844Y-33333575D01*
X53274851Y-33333579D01*
X53524647Y-33477800D01*
X53524663Y-33477808D01*
X53791139Y-33588185D01*
X53791145Y-33588186D01*
X53791155Y-33588191D01*
X54069783Y-33662849D01*
X54355772Y-33700500D01*
X54355779Y-33700500D01*
X54644221Y-33700500D01*
X54644228Y-33700500D01*
X54930217Y-33662849D01*
X55208845Y-33588191D01*
X55208857Y-33588185D01*
X55208860Y-33588185D01*
X55475336Y-33477808D01*
X55475339Y-33477806D01*
X55475345Y-33477804D01*
X55725156Y-33333575D01*
X55954004Y-33157974D01*
X56157974Y-32954004D01*
X56333575Y-32725156D01*
X56477804Y-32475345D01*
X56588191Y-32208845D01*
X56662849Y-31930217D01*
X56700500Y-31644228D01*
X56700500Y-31355778D01*
X161299500Y-31355778D01*
X161299500Y-31644221D01*
X161299501Y-31644238D01*
X161337149Y-31930206D01*
X161337150Y-31930211D01*
X161337151Y-31930217D01*
X161411809Y-32208844D01*
X161411814Y-32208860D01*
X161522191Y-32475336D01*
X161522199Y-32475352D01*
X161666420Y-32725148D01*
X161666431Y-32725164D01*
X161842024Y-32954002D01*
X161842030Y-32954009D01*
X162045990Y-33157969D01*
X162045996Y-33157974D01*
X162274844Y-33333575D01*
X162274851Y-33333579D01*
X162524647Y-33477800D01*
X162524663Y-33477808D01*
X162791139Y-33588185D01*
X162791145Y-33588186D01*
X162791155Y-33588191D01*
X163069783Y-33662849D01*
X163355772Y-33700500D01*
X163355779Y-33700500D01*
X163644221Y-33700500D01*
X163644228Y-33700500D01*
X163930217Y-33662849D01*
X164208845Y-33588191D01*
X164208857Y-33588185D01*
X164208860Y-33588185D01*
X164475336Y-33477808D01*
X164475339Y-33477806D01*
X164475345Y-33477804D01*
X164725156Y-33333575D01*
X164954004Y-33157974D01*
X165157974Y-32954004D01*
X165333575Y-32725156D01*
X165477804Y-32475345D01*
X165588191Y-32208845D01*
X165662849Y-31930217D01*
X165700500Y-31644228D01*
X165700500Y-31355772D01*
X165662849Y-31069783D01*
X165588191Y-30791155D01*
X165588186Y-30791145D01*
X165588185Y-30791139D01*
X165477808Y-30524663D01*
X165477800Y-30524647D01*
X165333579Y-30274851D01*
X165333575Y-30274844D01*
X165157974Y-30045996D01*
X165157969Y-30045990D01*
X164954009Y-29842030D01*
X164954002Y-29842024D01*
X164725164Y-29666431D01*
X164725162Y-29666429D01*
X164725156Y-29666425D01*
X164725151Y-29666422D01*
X164725148Y-29666420D01*
X164475352Y-29522199D01*
X164475336Y-29522191D01*
X164208860Y-29411814D01*
X164208848Y-29411810D01*
X164208845Y-29411809D01*
X163930217Y-29337151D01*
X163930211Y-29337150D01*
X163930206Y-29337149D01*
X163644238Y-29299501D01*
X163644233Y-29299500D01*
X163644228Y-29299500D01*
X163355772Y-29299500D01*
X163355766Y-29299500D01*
X163355761Y-29299501D01*
X163069793Y-29337149D01*
X163069786Y-29337150D01*
X163069783Y-29337151D01*
X162791155Y-29411809D01*
X162791139Y-29411814D01*
X162524663Y-29522191D01*
X162524647Y-29522199D01*
X162274851Y-29666420D01*
X162274835Y-29666431D01*
X162045997Y-29842024D01*
X162045990Y-29842030D01*
X161842030Y-30045990D01*
X161842024Y-30045997D01*
X161666431Y-30274835D01*
X161666420Y-30274851D01*
X161522199Y-30524647D01*
X161522191Y-30524663D01*
X161411814Y-30791139D01*
X161411809Y-30791155D01*
X161337152Y-31069780D01*
X161337149Y-31069793D01*
X161299501Y-31355761D01*
X161299500Y-31355778D01*
X56700500Y-31355778D01*
X56700500Y-31355772D01*
X56662849Y-31069783D01*
X56588191Y-30791155D01*
X56588186Y-30791145D01*
X56588185Y-30791139D01*
X56477808Y-30524663D01*
X56477800Y-30524647D01*
X56333579Y-30274851D01*
X56333575Y-30274844D01*
X56157974Y-30045996D01*
X56157969Y-30045990D01*
X55954009Y-29842030D01*
X55954002Y-29842024D01*
X55725164Y-29666431D01*
X55725162Y-29666429D01*
X55725156Y-29666425D01*
X55725151Y-29666422D01*
X55725148Y-29666420D01*
X55475352Y-29522199D01*
X55475336Y-29522191D01*
X55208860Y-29411814D01*
X55208848Y-29411810D01*
X55208845Y-29411809D01*
X54930217Y-29337151D01*
X54930211Y-29337150D01*
X54930206Y-29337149D01*
X54644238Y-29299501D01*
X54644233Y-29299500D01*
X54644228Y-29299500D01*
X54355772Y-29299500D01*
X54355766Y-29299500D01*
X54355761Y-29299501D01*
X54069793Y-29337149D01*
X54069786Y-29337150D01*
X54069783Y-29337151D01*
X53791155Y-29411809D01*
X53791139Y-29411814D01*
X53524663Y-29522191D01*
X53524647Y-29522199D01*
X53274851Y-29666420D01*
X53274835Y-29666431D01*
X53045997Y-29842024D01*
X53045990Y-29842030D01*
X52842030Y-30045990D01*
X52842024Y-30045997D01*
X52666431Y-30274835D01*
X52666420Y-30274851D01*
X52522199Y-30524647D01*
X52522191Y-30524663D01*
X52411814Y-30791139D01*
X52411809Y-30791155D01*
X52337152Y-31069780D01*
X52337149Y-31069793D01*
X52299501Y-31355761D01*
X52299500Y-31355778D01*
X47500500Y-31355778D01*
X47500500Y-25124500D01*
X47520185Y-25057461D01*
X47572989Y-25011706D01*
X47624500Y-25000500D01*
X171375500Y-25000500D01*
X171442539Y-25020185D01*
G37*
%TD.AperFunction*%
%TA.AperFunction,Conductor*%
G36*
X77464914Y-61494640D02*
G01*
X77481945Y-61497338D01*
X77501905Y-61500500D01*
X77501908Y-61500500D01*
X89085870Y-61500500D01*
X89152909Y-61520185D01*
X89173551Y-61536819D01*
X92469097Y-64832365D01*
X92502582Y-64893688D01*
X92497598Y-64963380D01*
X92455726Y-65019313D01*
X92390262Y-65043730D01*
X92362018Y-65042519D01*
X92188077Y-65014970D01*
X92151287Y-65009143D01*
X91938713Y-65009143D01*
X91890042Y-65016851D01*
X91728760Y-65042396D01*
X91526585Y-65108087D01*
X91337179Y-65204594D01*
X91165213Y-65329533D01*
X91014890Y-65479856D01*
X90889951Y-65651822D01*
X90793444Y-65841228D01*
X90727753Y-66043403D01*
X90710015Y-66155399D01*
X90694500Y-66253356D01*
X90694500Y-66465930D01*
X90727754Y-66675886D01*
X90784298Y-66849911D01*
X90793444Y-66878057D01*
X90889951Y-67067463D01*
X91014890Y-67239429D01*
X91165213Y-67389752D01*
X91337179Y-67514691D01*
X91337181Y-67514692D01*
X91337184Y-67514694D01*
X91526588Y-67611200D01*
X91728757Y-67676889D01*
X91938713Y-67710143D01*
X91938714Y-67710143D01*
X92151286Y-67710143D01*
X92151287Y-67710143D01*
X92361243Y-67676889D01*
X92563412Y-67611200D01*
X92752816Y-67514694D01*
X92839786Y-67451507D01*
X92924786Y-67389752D01*
X92924788Y-67389749D01*
X92924792Y-67389747D01*
X93075104Y-67239435D01*
X93075106Y-67239431D01*
X93075109Y-67239429D01*
X93200048Y-67067463D01*
X93200047Y-67067463D01*
X93200051Y-67067459D01*
X93285015Y-66900706D01*
X93332989Y-66849911D01*
X93400810Y-66833116D01*
X93466945Y-66855653D01*
X93510397Y-66910368D01*
X93519500Y-66957002D01*
X93519500Y-68624690D01*
X93499815Y-68691729D01*
X93447011Y-68737484D01*
X93377853Y-68747428D01*
X93314297Y-68718403D01*
X93295182Y-68697576D01*
X93270319Y-68663356D01*
X93241621Y-68623856D01*
X93110787Y-68493022D01*
X92961096Y-68384265D01*
X92950255Y-68378741D01*
X92796235Y-68300263D01*
X92796232Y-68300262D01*
X92620265Y-68243088D01*
X92528889Y-68228615D01*
X92437514Y-68214143D01*
X92252486Y-68214143D01*
X92191569Y-68223791D01*
X92069734Y-68243088D01*
X91893767Y-68300262D01*
X91893764Y-68300263D01*
X91728903Y-68384265D01*
X91661479Y-68433252D01*
X91579213Y-68493022D01*
X91579211Y-68493024D01*
X91579210Y-68493024D01*
X91448381Y-68623853D01*
X91448381Y-68623854D01*
X91448379Y-68623856D01*
X91419681Y-68663356D01*
X91339622Y-68773546D01*
X91255620Y-68938407D01*
X91255619Y-68938410D01*
X91198445Y-69114377D01*
X91169500Y-69297129D01*
X91169500Y-69482156D01*
X91198445Y-69664908D01*
X91255619Y-69840875D01*
X91255620Y-69840878D01*
X91320117Y-69967458D01*
X91339622Y-70005739D01*
X91448379Y-70155430D01*
X91579213Y-70286264D01*
X91728904Y-70395021D01*
X91799986Y-70431239D01*
X91893764Y-70479022D01*
X91893767Y-70479023D01*
X91981750Y-70507610D01*
X92069736Y-70536198D01*
X92252486Y-70565143D01*
X92252487Y-70565143D01*
X92437513Y-70565143D01*
X92437514Y-70565143D01*
X92620264Y-70536198D01*
X92796235Y-70479022D01*
X92961096Y-70395021D01*
X93110787Y-70286264D01*
X93241621Y-70155430D01*
X93295183Y-70081708D01*
X93350512Y-70039044D01*
X93420125Y-70033065D01*
X93481920Y-70065671D01*
X93516278Y-70126510D01*
X93519500Y-70154595D01*
X93519500Y-70408654D01*
X93556446Y-70641925D01*
X93629433Y-70866553D01*
X93702303Y-71009568D01*
X93736657Y-71076991D01*
X93875483Y-71268067D01*
X100141576Y-77534160D01*
X100332652Y-77672986D01*
X100543094Y-77780211D01*
X100767717Y-77853196D01*
X100855195Y-77867051D01*
X101000989Y-77890143D01*
X101000994Y-77890143D01*
X101237178Y-77890143D01*
X102340763Y-77890143D01*
X102407802Y-77909828D01*
X102453557Y-77962632D01*
X102463501Y-78031790D01*
X102441081Y-78087028D01*
X102362187Y-78195617D01*
X102262104Y-78392036D01*
X102262103Y-78392039D01*
X102193985Y-78601690D01*
X102159500Y-78819421D01*
X102159500Y-79039864D01*
X102193985Y-79257595D01*
X102262103Y-79467246D01*
X102262104Y-79467249D01*
X102362187Y-79663668D01*
X102491752Y-79842001D01*
X102491756Y-79842006D01*
X102647636Y-79997886D01*
X102647641Y-79997890D01*
X102787254Y-80099325D01*
X102829920Y-80154655D01*
X102835899Y-80224268D01*
X102803293Y-80286063D01*
X102787254Y-80299961D01*
X102647641Y-80401395D01*
X102647636Y-80401399D01*
X102491756Y-80557279D01*
X102491752Y-80557284D01*
X102362187Y-80735617D01*
X102262104Y-80932036D01*
X102262103Y-80932039D01*
X102193985Y-81141690D01*
X102159500Y-81359421D01*
X102159500Y-81579864D01*
X102193985Y-81797595D01*
X102262103Y-82007246D01*
X102262104Y-82007249D01*
X102362187Y-82203668D01*
X102491752Y-82382001D01*
X102491756Y-82382006D01*
X102647636Y-82537886D01*
X102647641Y-82537890D01*
X102787254Y-82639325D01*
X102829920Y-82694655D01*
X102835899Y-82764268D01*
X102803293Y-82826063D01*
X102787254Y-82839961D01*
X102647641Y-82941395D01*
X102647636Y-82941399D01*
X102491756Y-83097279D01*
X102491752Y-83097284D01*
X102362187Y-83275617D01*
X102262104Y-83472036D01*
X102262103Y-83472039D01*
X102193985Y-83681690D01*
X102159500Y-83899421D01*
X102159500Y-84119864D01*
X102193985Y-84337595D01*
X102262103Y-84547246D01*
X102262104Y-84547249D01*
X102362187Y-84743668D01*
X102491752Y-84922001D01*
X102491756Y-84922006D01*
X102647636Y-85077886D01*
X102647641Y-85077890D01*
X102787254Y-85179325D01*
X102829920Y-85234655D01*
X102835899Y-85304268D01*
X102803293Y-85366063D01*
X102787254Y-85379961D01*
X102647641Y-85481395D01*
X102647636Y-85481399D01*
X102491756Y-85637279D01*
X102491752Y-85637284D01*
X102362187Y-85815617D01*
X102262104Y-86012036D01*
X102262103Y-86012039D01*
X102193985Y-86221690D01*
X102159500Y-86439421D01*
X102159500Y-86659864D01*
X102193985Y-86877595D01*
X102262103Y-87087246D01*
X102262104Y-87087249D01*
X102362187Y-87283668D01*
X102491752Y-87462001D01*
X102491756Y-87462006D01*
X102647636Y-87617886D01*
X102647641Y-87617890D01*
X102787254Y-87719325D01*
X102829920Y-87774655D01*
X102835899Y-87844268D01*
X102803293Y-87906063D01*
X102787254Y-87919961D01*
X102647641Y-88021395D01*
X102647636Y-88021399D01*
X102491756Y-88177279D01*
X102491752Y-88177284D01*
X102362187Y-88355617D01*
X102262104Y-88552036D01*
X102262103Y-88552039D01*
X102193985Y-88761690D01*
X102179412Y-88853701D01*
X102159500Y-88979421D01*
X102159500Y-89199865D01*
X102176742Y-89308729D01*
X102193985Y-89417595D01*
X102262103Y-89627246D01*
X102262104Y-89627249D01*
X102362187Y-89823668D01*
X102491752Y-90002001D01*
X102491756Y-90002006D01*
X102647636Y-90157886D01*
X102647641Y-90157890D01*
X102787254Y-90259325D01*
X102829920Y-90314655D01*
X102835899Y-90384268D01*
X102803293Y-90446063D01*
X102787254Y-90459961D01*
X102647641Y-90561395D01*
X102647636Y-90561399D01*
X102491756Y-90717279D01*
X102491752Y-90717284D01*
X102362187Y-90895617D01*
X102262104Y-91092036D01*
X102262103Y-91092039D01*
X102193985Y-91301690D01*
X102159500Y-91519421D01*
X102159500Y-91739864D01*
X102193985Y-91957595D01*
X102262103Y-92167246D01*
X102262104Y-92167249D01*
X102314598Y-92270272D01*
X102341787Y-92323633D01*
X102362187Y-92363668D01*
X102491752Y-92542001D01*
X102491756Y-92542006D01*
X102647636Y-92697886D01*
X102647641Y-92697890D01*
X102787254Y-92799325D01*
X102829920Y-92854655D01*
X102835899Y-92924268D01*
X102803293Y-92986063D01*
X102787254Y-92999961D01*
X102647641Y-93101395D01*
X102647636Y-93101399D01*
X102491756Y-93257279D01*
X102491752Y-93257284D01*
X102362187Y-93435617D01*
X102262104Y-93632036D01*
X102262103Y-93632039D01*
X102193985Y-93841690D01*
X102159500Y-94059421D01*
X102159500Y-94279864D01*
X102193985Y-94497595D01*
X102262103Y-94707246D01*
X102262104Y-94707249D01*
X102362187Y-94903668D01*
X102491752Y-95082001D01*
X102491756Y-95082006D01*
X102647636Y-95237886D01*
X102647641Y-95237890D01*
X102787680Y-95339634D01*
X102830346Y-95394963D01*
X102836325Y-95464577D01*
X102803720Y-95526372D01*
X102787681Y-95540270D01*
X102647959Y-95641785D01*
X102647958Y-95641785D01*
X102492142Y-95797601D01*
X102362613Y-95975882D01*
X102262567Y-96172232D01*
X102194473Y-96381804D01*
X102194473Y-96381807D01*
X102182145Y-96459643D01*
X103344314Y-96459643D01*
X103339920Y-96464037D01*
X103287259Y-96555249D01*
X103260000Y-96656982D01*
X103260000Y-96762304D01*
X103287259Y-96864037D01*
X103339920Y-96955249D01*
X103344314Y-96959643D01*
X102182145Y-96959643D01*
X102194473Y-97037478D01*
X102194473Y-97037481D01*
X102262567Y-97247053D01*
X102362613Y-97443403D01*
X102492142Y-97621684D01*
X102647958Y-97777500D01*
X102647964Y-97777505D01*
X102787680Y-97879015D01*
X102830346Y-97934345D01*
X102836325Y-98003958D01*
X102803719Y-98065753D01*
X102787681Y-98079651D01*
X102647636Y-98181399D01*
X102491756Y-98337279D01*
X102491752Y-98337284D01*
X102362187Y-98515617D01*
X102262104Y-98712036D01*
X102262103Y-98712039D01*
X102193985Y-98921690D01*
X102193985Y-98921692D01*
X102159500Y-99139421D01*
X102159500Y-99359865D01*
X102161417Y-99371966D01*
X102193985Y-99577595D01*
X102262103Y-99787246D01*
X102262104Y-99787249D01*
X102362187Y-99983668D01*
X102491752Y-100162001D01*
X102491756Y-100162006D01*
X102647636Y-100317886D01*
X102647641Y-100317890D01*
X102787254Y-100419325D01*
X102829920Y-100474655D01*
X102835899Y-100544268D01*
X102803293Y-100606063D01*
X102787254Y-100619961D01*
X102647641Y-100721395D01*
X102647636Y-100721399D01*
X102491756Y-100877279D01*
X102491752Y-100877284D01*
X102362187Y-101055617D01*
X102262104Y-101252036D01*
X102262103Y-101252039D01*
X102193985Y-101461690D01*
X102159500Y-101679421D01*
X102159500Y-101899864D01*
X102193985Y-102117595D01*
X102262103Y-102327246D01*
X102262104Y-102327249D01*
X102362187Y-102523668D01*
X102491752Y-102702001D01*
X102491756Y-102702006D01*
X102647636Y-102857886D01*
X102647641Y-102857890D01*
X102787254Y-102959325D01*
X102829920Y-103014655D01*
X102835899Y-103084268D01*
X102803293Y-103146063D01*
X102787254Y-103159961D01*
X102647641Y-103261395D01*
X102647636Y-103261399D01*
X102491756Y-103417279D01*
X102491752Y-103417284D01*
X102362187Y-103595617D01*
X102262104Y-103792036D01*
X102262103Y-103792039D01*
X102193985Y-104001690D01*
X102193985Y-104001692D01*
X102159500Y-104219421D01*
X102159500Y-104439865D01*
X102173701Y-104529524D01*
X102193985Y-104657595D01*
X102262103Y-104867246D01*
X102262104Y-104867249D01*
X102362187Y-105063668D01*
X102491752Y-105242001D01*
X102491756Y-105242006D01*
X102647636Y-105397886D01*
X102647641Y-105397890D01*
X102787254Y-105499325D01*
X102829920Y-105554655D01*
X102835899Y-105624268D01*
X102803293Y-105686063D01*
X102787254Y-105699961D01*
X102647641Y-105801395D01*
X102647636Y-105801399D01*
X102491756Y-105957279D01*
X102491752Y-105957284D01*
X102362187Y-106135617D01*
X102262104Y-106332036D01*
X102262103Y-106332039D01*
X102193985Y-106541690D01*
X102159500Y-106759421D01*
X102159500Y-106979864D01*
X102193985Y-107197595D01*
X102262103Y-107407246D01*
X102262104Y-107407249D01*
X102314404Y-107509890D01*
X102346356Y-107572600D01*
X102362187Y-107603668D01*
X102491752Y-107782001D01*
X102491756Y-107782006D01*
X102647636Y-107937886D01*
X102647641Y-107937890D01*
X102787680Y-108039634D01*
X102830346Y-108094963D01*
X102836325Y-108164577D01*
X102803720Y-108226372D01*
X102787681Y-108240270D01*
X102647959Y-108341785D01*
X102647958Y-108341785D01*
X102492142Y-108497601D01*
X102362613Y-108675882D01*
X102262567Y-108872232D01*
X102194473Y-109081804D01*
X102194473Y-109081807D01*
X102182145Y-109159643D01*
X103344314Y-109159643D01*
X103339920Y-109164037D01*
X103287259Y-109255249D01*
X103260000Y-109356982D01*
X103260000Y-109462304D01*
X103287259Y-109564037D01*
X103339920Y-109655249D01*
X103344314Y-109659643D01*
X102182145Y-109659643D01*
X102194473Y-109737478D01*
X102194473Y-109737481D01*
X102262567Y-109947053D01*
X102362613Y-110143403D01*
X102492142Y-110321684D01*
X102647958Y-110477500D01*
X102647964Y-110477505D01*
X102787680Y-110579015D01*
X102830346Y-110634345D01*
X102836325Y-110703958D01*
X102803719Y-110765753D01*
X102787681Y-110779651D01*
X102647636Y-110881399D01*
X102491756Y-111037279D01*
X102491752Y-111037284D01*
X102362187Y-111215617D01*
X102262104Y-111412036D01*
X102262103Y-111412039D01*
X102193985Y-111621690D01*
X102167023Y-111791922D01*
X102159500Y-111839421D01*
X102159500Y-112059865D01*
X102176742Y-112168729D01*
X102193985Y-112277595D01*
X102262103Y-112487246D01*
X102262104Y-112487249D01*
X102322524Y-112605826D01*
X102334034Y-112628417D01*
X102362187Y-112683668D01*
X102491752Y-112862001D01*
X102491756Y-112862006D01*
X102647636Y-113017886D01*
X102647641Y-113017890D01*
X102787254Y-113119325D01*
X102829920Y-113174655D01*
X102835899Y-113244268D01*
X102803293Y-113306063D01*
X102787254Y-113319961D01*
X102647641Y-113421395D01*
X102647636Y-113421399D01*
X102491756Y-113577279D01*
X102491752Y-113577284D01*
X102362187Y-113755617D01*
X102262104Y-113952036D01*
X102262103Y-113952039D01*
X102193985Y-114161690D01*
X102159500Y-114379421D01*
X102159500Y-114599864D01*
X102193985Y-114817595D01*
X102262103Y-115027246D01*
X102262104Y-115027249D01*
X102339604Y-115179348D01*
X102352500Y-115248017D01*
X102326224Y-115312757D01*
X102269118Y-115353015D01*
X102229119Y-115359643D01*
X97518825Y-115359643D01*
X97451786Y-115339958D01*
X97406031Y-115287154D01*
X97396087Y-115217996D01*
X97425112Y-115154440D01*
X97442769Y-115137707D01*
X98969523Y-113952036D01*
X101870000Y-111699538D01*
X101870000Y-107359643D01*
X87670000Y-107359643D01*
X87670000Y-111699538D01*
X92097231Y-115137707D01*
X92138106Y-115194373D01*
X92141855Y-115264142D01*
X92107290Y-115324863D01*
X92045383Y-115357257D01*
X92021175Y-115359643D01*
X87310881Y-115359643D01*
X87243842Y-115339958D01*
X87198087Y-115287154D01*
X87188143Y-115217996D01*
X87200396Y-115179348D01*
X87277895Y-115027249D01*
X87277896Y-115027246D01*
X87291660Y-114984883D01*
X87346015Y-114817594D01*
X87380500Y-114599865D01*
X87380500Y-114379421D01*
X87346015Y-114161692D01*
X87299977Y-114020000D01*
X87277896Y-113952039D01*
X87277895Y-113952036D01*
X87229347Y-113856757D01*
X87177815Y-113755621D01*
X87161260Y-113732835D01*
X87048247Y-113577284D01*
X87048243Y-113577279D01*
X86892363Y-113421399D01*
X86892358Y-113421395D01*
X86752745Y-113319961D01*
X86710079Y-113264632D01*
X86704100Y-113195018D01*
X86736705Y-113133223D01*
X86752745Y-113119325D01*
X86892358Y-113017890D01*
X86892356Y-113017890D01*
X86892365Y-113017885D01*
X87048242Y-112862008D01*
X87177815Y-112683665D01*
X87277895Y-112487249D01*
X87346015Y-112277594D01*
X87380500Y-112059865D01*
X87380500Y-111839421D01*
X87346015Y-111621692D01*
X87309813Y-111510272D01*
X87277896Y-111412039D01*
X87277895Y-111412036D01*
X87214735Y-111288080D01*
X87177815Y-111215621D01*
X87133809Y-111155051D01*
X87048247Y-111037284D01*
X87048243Y-111037279D01*
X86892363Y-110881399D01*
X86892358Y-110881395D01*
X86752319Y-110779651D01*
X86709653Y-110724321D01*
X86703674Y-110654708D01*
X86736279Y-110592913D01*
X86752319Y-110579015D01*
X86892035Y-110477505D01*
X86892041Y-110477500D01*
X87047857Y-110321684D01*
X87177386Y-110143403D01*
X87277432Y-109947053D01*
X87345526Y-109737481D01*
X87345526Y-109737478D01*
X87357855Y-109659643D01*
X86195686Y-109659643D01*
X86200080Y-109655249D01*
X86252741Y-109564037D01*
X86280000Y-109462304D01*
X86280000Y-109356982D01*
X86252741Y-109255249D01*
X86200080Y-109164037D01*
X86195686Y-109159643D01*
X87357855Y-109159643D01*
X87345526Y-109081807D01*
X87345526Y-109081804D01*
X87277432Y-108872232D01*
X87177386Y-108675882D01*
X87047857Y-108497601D01*
X86892041Y-108341785D01*
X86752318Y-108240270D01*
X86709653Y-108184940D01*
X86703674Y-108115327D01*
X86736280Y-108053532D01*
X86752313Y-108039637D01*
X86892365Y-107937885D01*
X87048242Y-107782008D01*
X87177815Y-107603665D01*
X87277895Y-107407249D01*
X87346015Y-107197594D01*
X87380500Y-106979865D01*
X87380500Y-106759421D01*
X87346015Y-106541692D01*
X87309689Y-106429890D01*
X87277896Y-106332039D01*
X87277895Y-106332036D01*
X87217334Y-106213181D01*
X87177815Y-106135621D01*
X87158837Y-106109500D01*
X87048247Y-105957284D01*
X87048243Y-105957279D01*
X86892363Y-105801399D01*
X86892358Y-105801395D01*
X86752745Y-105699961D01*
X86710079Y-105644632D01*
X86704100Y-105575018D01*
X86736705Y-105513223D01*
X86752745Y-105499325D01*
X86892358Y-105397890D01*
X86892356Y-105397890D01*
X86892365Y-105397885D01*
X87048242Y-105242008D01*
X87177815Y-105063665D01*
X87277895Y-104867249D01*
X87346015Y-104657594D01*
X87380500Y-104439865D01*
X87380500Y-104219421D01*
X87346015Y-104001692D01*
X87277895Y-103792037D01*
X87277895Y-103792036D01*
X87243237Y-103724018D01*
X87177815Y-103595621D01*
X87161260Y-103572835D01*
X87048247Y-103417284D01*
X87048243Y-103417279D01*
X86892363Y-103261399D01*
X86892358Y-103261395D01*
X86752745Y-103159961D01*
X86710079Y-103104632D01*
X86704100Y-103035018D01*
X86736705Y-102973223D01*
X86752745Y-102959325D01*
X86892358Y-102857890D01*
X86892356Y-102857890D01*
X86892365Y-102857885D01*
X87048242Y-102702008D01*
X87177815Y-102523665D01*
X87277895Y-102327249D01*
X87346015Y-102117594D01*
X87380500Y-101899865D01*
X87380500Y-101679421D01*
X87346015Y-101461692D01*
X87277895Y-101252037D01*
X87277895Y-101252036D01*
X87243237Y-101184018D01*
X87177815Y-101055621D01*
X87156502Y-101026286D01*
X87048247Y-100877284D01*
X87048243Y-100877279D01*
X86892363Y-100721399D01*
X86892358Y-100721395D01*
X86752745Y-100619961D01*
X86710079Y-100564632D01*
X86704100Y-100495018D01*
X86736705Y-100433223D01*
X86752745Y-100419325D01*
X86892358Y-100317890D01*
X86892356Y-100317890D01*
X86892365Y-100317885D01*
X87048242Y-100162008D01*
X87177815Y-99983665D01*
X87277895Y-99787249D01*
X87346015Y-99577594D01*
X87380500Y-99359865D01*
X87380500Y-99139421D01*
X87346015Y-98921692D01*
X87277895Y-98712037D01*
X87277895Y-98712036D01*
X87243237Y-98644018D01*
X87177815Y-98515621D01*
X87152561Y-98480861D01*
X87048247Y-98337284D01*
X87048243Y-98337279D01*
X86892363Y-98181399D01*
X86892358Y-98181395D01*
X86752319Y-98079651D01*
X86709653Y-98024321D01*
X86703674Y-97954708D01*
X86736279Y-97892913D01*
X86752319Y-97879015D01*
X86892035Y-97777505D01*
X86892041Y-97777500D01*
X87047857Y-97621684D01*
X87177386Y-97443403D01*
X87277432Y-97247053D01*
X87345526Y-97037481D01*
X87345526Y-97037478D01*
X87357855Y-96959643D01*
X86195686Y-96959643D01*
X86200080Y-96955249D01*
X86252741Y-96864037D01*
X86280000Y-96762304D01*
X86280000Y-96656982D01*
X86252741Y-96555249D01*
X86200080Y-96464037D01*
X86195686Y-96459643D01*
X87357855Y-96459643D01*
X87345526Y-96381807D01*
X87345526Y-96381804D01*
X87277432Y-96172232D01*
X87177386Y-95975882D01*
X87047857Y-95797601D01*
X86892041Y-95641785D01*
X86752318Y-95540270D01*
X86735137Y-95517989D01*
X86715534Y-95497818D01*
X86714090Y-95490695D01*
X86709653Y-95484940D01*
X86707245Y-95456912D01*
X86701659Y-95429340D01*
X86704295Y-95422567D01*
X86703674Y-95415327D01*
X86710163Y-95403029D01*
X94053600Y-95403029D01*
X94053600Y-96716256D01*
X94060013Y-96786835D01*
X94060013Y-96786837D01*
X94060014Y-96786839D01*
X94110622Y-96949249D01*
X94198592Y-97094769D01*
X94198630Y-97094831D01*
X94318911Y-97215112D01*
X94318913Y-97215113D01*
X94318915Y-97215115D01*
X94464494Y-97303121D01*
X94626904Y-97353729D01*
X94697484Y-97360143D01*
X94697487Y-97360143D01*
X96010713Y-97360143D01*
X96010716Y-97360143D01*
X96081296Y-97353729D01*
X96243706Y-97303121D01*
X96389285Y-97215115D01*
X96509572Y-97094828D01*
X96597578Y-96949249D01*
X96624741Y-96862076D01*
X96663477Y-96803931D01*
X96727502Y-96775956D01*
X96796488Y-96787037D01*
X96843444Y-96826083D01*
X96902128Y-96906855D01*
X96902132Y-96906860D01*
X97046886Y-97051614D01*
X97158333Y-97132583D01*
X97212490Y-97171930D01*
X97328707Y-97231146D01*
X97394876Y-97264861D01*
X97394878Y-97264861D01*
X97394881Y-97264863D01*
X97486938Y-97294774D01*
X97589565Y-97328120D01*
X97690657Y-97344131D01*
X97791748Y-97360143D01*
X97791749Y-97360143D01*
X97996451Y-97360143D01*
X97996452Y-97360143D01*
X98198634Y-97328120D01*
X98393319Y-97264863D01*
X98575710Y-97171930D01*
X98698961Y-97082384D01*
X98741313Y-97051614D01*
X98741315Y-97051611D01*
X98741319Y-97051609D01*
X98886066Y-96906862D01*
X98886068Y-96906858D01*
X98886071Y-96906856D01*
X99006384Y-96741257D01*
X99006385Y-96741256D01*
X99006387Y-96741253D01*
X99053616Y-96648560D01*
X99101589Y-96597766D01*
X99169410Y-96580971D01*
X99235545Y-96603508D01*
X99274583Y-96648560D01*
X99278875Y-96656982D01*
X99321815Y-96741257D01*
X99442128Y-96906856D01*
X99586886Y-97051614D01*
X99698333Y-97132583D01*
X99752490Y-97171930D01*
X99868707Y-97231146D01*
X99934876Y-97264861D01*
X99934878Y-97264861D01*
X99934881Y-97264863D01*
X100026938Y-97294774D01*
X100129565Y-97328120D01*
X100230657Y-97344131D01*
X100331748Y-97360143D01*
X100331749Y-97360143D01*
X100536451Y-97360143D01*
X100536452Y-97360143D01*
X100738634Y-97328120D01*
X100933319Y-97264863D01*
X101115710Y-97171930D01*
X101238961Y-97082384D01*
X101281313Y-97051614D01*
X101281315Y-97051611D01*
X101281319Y-97051609D01*
X101426066Y-96906862D01*
X101426068Y-96906858D01*
X101426071Y-96906856D01*
X101508189Y-96793828D01*
X101546387Y-96741253D01*
X101639320Y-96558862D01*
X101702577Y-96364177D01*
X101734600Y-96161995D01*
X101734600Y-95957291D01*
X101711360Y-95810564D01*
X101702577Y-95755108D01*
X101664727Y-95638619D01*
X101639320Y-95560424D01*
X101639318Y-95560421D01*
X101639318Y-95560419D01*
X101590483Y-95464577D01*
X101546387Y-95378033D01*
X101518489Y-95339634D01*
X101426071Y-95212429D01*
X101281313Y-95067671D01*
X101115713Y-94947358D01*
X101115712Y-94947357D01*
X101115710Y-94947356D01*
X101029962Y-94903665D01*
X100933323Y-94854424D01*
X100738634Y-94791165D01*
X100564095Y-94763521D01*
X100536452Y-94759143D01*
X100331748Y-94759143D01*
X100307429Y-94762994D01*
X100129565Y-94791165D01*
X99934876Y-94854424D01*
X99752486Y-94947358D01*
X99586886Y-95067671D01*
X99442128Y-95212429D01*
X99321815Y-95378029D01*
X99274585Y-95470723D01*
X99226610Y-95521519D01*
X99158789Y-95538314D01*
X99092654Y-95515777D01*
X99053615Y-95470723D01*
X99046578Y-95456912D01*
X99006387Y-95378033D01*
X98978489Y-95339634D01*
X98886071Y-95212429D01*
X98741313Y-95067671D01*
X98575713Y-94947358D01*
X98575712Y-94947357D01*
X98575710Y-94947356D01*
X98489962Y-94903665D01*
X98393323Y-94854424D01*
X98198634Y-94791165D01*
X98024095Y-94763521D01*
X97996452Y-94759143D01*
X97791748Y-94759143D01*
X97767429Y-94762994D01*
X97589565Y-94791165D01*
X97394876Y-94854424D01*
X97212486Y-94947358D01*
X97046886Y-95067671D01*
X96902132Y-95212425D01*
X96843444Y-95293203D01*
X96788114Y-95335868D01*
X96718500Y-95341847D01*
X96656706Y-95309241D01*
X96624741Y-95257209D01*
X96597578Y-95170037D01*
X96509572Y-95024458D01*
X96509570Y-95024456D01*
X96509569Y-95024454D01*
X96389288Y-94904173D01*
X96243706Y-94816165D01*
X96223568Y-94809890D01*
X96081296Y-94765557D01*
X96081294Y-94765556D01*
X96081292Y-94765556D01*
X96031878Y-94761066D01*
X96010716Y-94759143D01*
X94697484Y-94759143D01*
X94678245Y-94760891D01*
X94626907Y-94765556D01*
X94464493Y-94816165D01*
X94318911Y-94904173D01*
X94198630Y-95024454D01*
X94110622Y-95170036D01*
X94060013Y-95332450D01*
X94053600Y-95403029D01*
X86710163Y-95403029D01*
X86716799Y-95390451D01*
X86727008Y-95364231D01*
X86734451Y-95356997D01*
X86736280Y-95353532D01*
X86752319Y-95339634D01*
X86777161Y-95321585D01*
X86892365Y-95237885D01*
X87048242Y-95082008D01*
X87177815Y-94903665D01*
X87277895Y-94707249D01*
X87346015Y-94497594D01*
X87380500Y-94279865D01*
X87380500Y-94059421D01*
X87346015Y-93841692D01*
X87277895Y-93632037D01*
X87277895Y-93632036D01*
X87236095Y-93550000D01*
X87177815Y-93435621D01*
X87127106Y-93365826D01*
X87048247Y-93257284D01*
X87048243Y-93257279D01*
X86892363Y-93101399D01*
X86892358Y-93101395D01*
X86752745Y-92999961D01*
X86710079Y-92944632D01*
X86704100Y-92875018D01*
X86736705Y-92813223D01*
X86752745Y-92799325D01*
X86892358Y-92697890D01*
X86892359Y-92697889D01*
X86892365Y-92697885D01*
X87048242Y-92542008D01*
X87177815Y-92363665D01*
X87277895Y-92167249D01*
X87346015Y-91957594D01*
X87380500Y-91739865D01*
X87380500Y-91519421D01*
X87346015Y-91301692D01*
X87294700Y-91143757D01*
X87277896Y-91092039D01*
X87277895Y-91092036D01*
X87222764Y-90983838D01*
X87177815Y-90895621D01*
X87093183Y-90779134D01*
X87048247Y-90717284D01*
X87048243Y-90717279D01*
X86892363Y-90561399D01*
X86892358Y-90561395D01*
X86752745Y-90459961D01*
X86710079Y-90404632D01*
X86704100Y-90335018D01*
X86736705Y-90273223D01*
X86752745Y-90259325D01*
X86887702Y-90161273D01*
X86892365Y-90157885D01*
X87048242Y-90002008D01*
X87177815Y-89823665D01*
X87277895Y-89627249D01*
X87346015Y-89417594D01*
X87380500Y-89199865D01*
X87380500Y-88979421D01*
X87346015Y-88761692D01*
X87277895Y-88552037D01*
X87277895Y-88552036D01*
X87229386Y-88456834D01*
X87177815Y-88355621D01*
X87073603Y-88212184D01*
X87048247Y-88177284D01*
X87048243Y-88177279D01*
X86892363Y-88021399D01*
X86892358Y-88021395D01*
X86752745Y-87919961D01*
X86710079Y-87864632D01*
X86704100Y-87795018D01*
X86736705Y-87733223D01*
X86752745Y-87719325D01*
X86892358Y-87617890D01*
X86892359Y-87617889D01*
X86892365Y-87617885D01*
X87048242Y-87462008D01*
X87177815Y-87283665D01*
X87277895Y-87087249D01*
X87346015Y-86877594D01*
X87380500Y-86659865D01*
X87380500Y-86439421D01*
X87346015Y-86221692D01*
X87277895Y-86012037D01*
X87277895Y-86012036D01*
X87243237Y-85944018D01*
X87177815Y-85815621D01*
X87073603Y-85672184D01*
X87048247Y-85637284D01*
X87048243Y-85637279D01*
X86892363Y-85481399D01*
X86892358Y-85481395D01*
X86752319Y-85379651D01*
X86709653Y-85324321D01*
X86703674Y-85254708D01*
X86736279Y-85192913D01*
X86752319Y-85179015D01*
X86892035Y-85077505D01*
X86892041Y-85077500D01*
X87047857Y-84921684D01*
X87177386Y-84743403D01*
X87277432Y-84547053D01*
X87345526Y-84337481D01*
X87345526Y-84337478D01*
X87357855Y-84259643D01*
X86195686Y-84259643D01*
X86200080Y-84255249D01*
X86252741Y-84164037D01*
X86280000Y-84062304D01*
X86280000Y-83956982D01*
X86252741Y-83855249D01*
X86200080Y-83764037D01*
X86195686Y-83759643D01*
X87357855Y-83759643D01*
X87345526Y-83681807D01*
X87345526Y-83681804D01*
X87277432Y-83472232D01*
X87177386Y-83275882D01*
X87047857Y-83097601D01*
X86892041Y-82941785D01*
X86752318Y-82840270D01*
X86709653Y-82784940D01*
X86703674Y-82715327D01*
X86736280Y-82653532D01*
X86752313Y-82639637D01*
X86892365Y-82537885D01*
X87048242Y-82382008D01*
X87177815Y-82203665D01*
X87277895Y-82007249D01*
X87346015Y-81797594D01*
X87380500Y-81579865D01*
X87380500Y-81359421D01*
X87346015Y-81141692D01*
X87294700Y-80983757D01*
X87277896Y-80932039D01*
X87277895Y-80932036D01*
X87243237Y-80864018D01*
X87177815Y-80735621D01*
X87153301Y-80701880D01*
X87048247Y-80557284D01*
X87048243Y-80557279D01*
X86892363Y-80401399D01*
X86892358Y-80401395D01*
X86752745Y-80299961D01*
X86710079Y-80244632D01*
X86704100Y-80175018D01*
X86736705Y-80113223D01*
X86752745Y-80099325D01*
X86892358Y-79997890D01*
X86892359Y-79997889D01*
X86892365Y-79997885D01*
X87048242Y-79842008D01*
X87177815Y-79663665D01*
X87277895Y-79467249D01*
X87346015Y-79257594D01*
X87380500Y-79039865D01*
X87380500Y-78819421D01*
X87346015Y-78601692D01*
X87311955Y-78496864D01*
X87277896Y-78392039D01*
X87277895Y-78392036D01*
X87205865Y-78250672D01*
X87177815Y-78195621D01*
X87058786Y-78031790D01*
X87048247Y-78017284D01*
X87048243Y-78017279D01*
X86892363Y-77861399D01*
X86892358Y-77861395D01*
X86752745Y-77759961D01*
X86710079Y-77704632D01*
X86704100Y-77635018D01*
X86736705Y-77573223D01*
X86752745Y-77559325D01*
X86892358Y-77457890D01*
X86892356Y-77457890D01*
X86892365Y-77457885D01*
X87048242Y-77302008D01*
X87177815Y-77123665D01*
X87277895Y-76927249D01*
X87346015Y-76717594D01*
X87380500Y-76499865D01*
X87380500Y-76279421D01*
X87346015Y-76061692D01*
X87287219Y-75880733D01*
X87277896Y-75852039D01*
X87277895Y-75852036D01*
X87242495Y-75782561D01*
X87177815Y-75655621D01*
X87110681Y-75563218D01*
X87048247Y-75477284D01*
X87048243Y-75477279D01*
X86892363Y-75321399D01*
X86892358Y-75321395D01*
X86752745Y-75219961D01*
X86710079Y-75164632D01*
X86704100Y-75095018D01*
X86736705Y-75033223D01*
X86752745Y-75019325D01*
X86892358Y-74917890D01*
X86892356Y-74917890D01*
X86892365Y-74917885D01*
X87048242Y-74762008D01*
X87177815Y-74583665D01*
X87277895Y-74387249D01*
X87346015Y-74177594D01*
X87380500Y-73959865D01*
X87380500Y-73739421D01*
X87346015Y-73521692D01*
X87289221Y-73346894D01*
X87277896Y-73312039D01*
X87277895Y-73312036D01*
X87232457Y-73222861D01*
X87177815Y-73115621D01*
X87126283Y-73044693D01*
X87048247Y-72937284D01*
X87048243Y-72937279D01*
X86892363Y-72781399D01*
X86892358Y-72781395D01*
X86752319Y-72679651D01*
X86709653Y-72624321D01*
X86703674Y-72554708D01*
X86736279Y-72492913D01*
X86752319Y-72479015D01*
X86892035Y-72377505D01*
X86892041Y-72377500D01*
X87047857Y-72221684D01*
X87177386Y-72043403D01*
X87277432Y-71847053D01*
X87345526Y-71637481D01*
X87345526Y-71637478D01*
X87357855Y-71559643D01*
X86195686Y-71559643D01*
X86200080Y-71555249D01*
X86252741Y-71464037D01*
X86280000Y-71362304D01*
X86280000Y-71256982D01*
X86252741Y-71155249D01*
X86200080Y-71064037D01*
X86195686Y-71059643D01*
X87357855Y-71059643D01*
X87345526Y-70981807D01*
X87345526Y-70981804D01*
X87277432Y-70772232D01*
X87177386Y-70575882D01*
X87047857Y-70397601D01*
X86892041Y-70241785D01*
X86752318Y-70140270D01*
X86709653Y-70084940D01*
X86703674Y-70015327D01*
X86736280Y-69953532D01*
X86752313Y-69939637D01*
X86892365Y-69837885D01*
X87048242Y-69682008D01*
X87177815Y-69503665D01*
X87277895Y-69307249D01*
X87346015Y-69097594D01*
X87380500Y-68879865D01*
X87380500Y-68659421D01*
X87346015Y-68441692D01*
X87300062Y-68300262D01*
X87277896Y-68232039D01*
X87277895Y-68232036D01*
X87230455Y-68138932D01*
X87177815Y-68035621D01*
X87098918Y-67927028D01*
X87048247Y-67857284D01*
X87048243Y-67857279D01*
X86892363Y-67701399D01*
X86892358Y-67701395D01*
X86752745Y-67599961D01*
X86710079Y-67544632D01*
X86704100Y-67475018D01*
X86736705Y-67413223D01*
X86752745Y-67399325D01*
X86892358Y-67297890D01*
X86892356Y-67297890D01*
X86892365Y-67297885D01*
X87048242Y-67142008D01*
X87177815Y-66963665D01*
X87277895Y-66767249D01*
X87346015Y-66557594D01*
X87380500Y-66339865D01*
X87380500Y-66119421D01*
X87346015Y-65901692D01*
X87290368Y-65730424D01*
X87277896Y-65692039D01*
X87277895Y-65692036D01*
X87230649Y-65599313D01*
X87177815Y-65495621D01*
X87161260Y-65472835D01*
X87048247Y-65317284D01*
X87048243Y-65317279D01*
X86892363Y-65161399D01*
X86892358Y-65161395D01*
X86714025Y-65031830D01*
X86714024Y-65031829D01*
X86714022Y-65031828D01*
X86635646Y-64991893D01*
X86517606Y-64931747D01*
X86517603Y-64931746D01*
X86307952Y-64863628D01*
X86152930Y-64839075D01*
X86090222Y-64829143D01*
X84059778Y-64829143D01*
X83997070Y-64839075D01*
X83842047Y-64863628D01*
X83632396Y-64931746D01*
X83632393Y-64931747D01*
X83565901Y-64965628D01*
X83509606Y-64979143D01*
X80683547Y-64979143D01*
X80616508Y-64959458D01*
X80595866Y-64942824D01*
X79837445Y-64184403D01*
X79803960Y-64123080D01*
X79802653Y-64077323D01*
X79807835Y-64044611D01*
X79810500Y-64027784D01*
X79810500Y-63823080D01*
X79778477Y-63620898D01*
X79715220Y-63426213D01*
X79715218Y-63426210D01*
X79715218Y-63426208D01*
X79669671Y-63336819D01*
X79622287Y-63243822D01*
X79594240Y-63205218D01*
X79501971Y-63078218D01*
X79357213Y-62933460D01*
X79191613Y-62813147D01*
X79191612Y-62813146D01*
X79191610Y-62813145D01*
X79134653Y-62784123D01*
X79009223Y-62720213D01*
X78814534Y-62656954D01*
X78639995Y-62629310D01*
X78612352Y-62624932D01*
X78612351Y-62624932D01*
X78329336Y-62624932D01*
X78262297Y-62605247D01*
X78241655Y-62588613D01*
X77357837Y-61704795D01*
X77324352Y-61643472D01*
X77329336Y-61573780D01*
X77371208Y-61517847D01*
X77436672Y-61493430D01*
X77464914Y-61494640D01*
G37*
%TD.AperFunction*%
%TA.AperFunction,Conductor*%
G36*
X129548558Y-112350185D02*
G01*
X129594313Y-112402989D01*
X129604257Y-112472147D01*
X129575232Y-112535703D01*
X129554405Y-112554818D01*
X129453105Y-112628417D01*
X129453104Y-112628417D01*
X129308417Y-112773104D01*
X129308417Y-112773105D01*
X129188140Y-112938650D01*
X129095244Y-113120970D01*
X129032009Y-113315586D01*
X129023391Y-113370000D01*
X130566988Y-113370000D01*
X130534075Y-113427007D01*
X130500000Y-113554174D01*
X130500000Y-113685826D01*
X130534075Y-113812993D01*
X130566988Y-113870000D01*
X129023391Y-113870000D01*
X129032009Y-113924413D01*
X129095244Y-114119029D01*
X129188140Y-114301349D01*
X129308417Y-114466894D01*
X129308417Y-114466895D01*
X129453104Y-114611582D01*
X129554405Y-114685182D01*
X129597070Y-114740512D01*
X129603049Y-114810126D01*
X129570443Y-114871920D01*
X129509604Y-114906278D01*
X129481519Y-114909500D01*
X125518481Y-114909500D01*
X125451442Y-114889815D01*
X125405687Y-114837011D01*
X125395743Y-114767853D01*
X125424768Y-114704297D01*
X125445595Y-114685182D01*
X125546894Y-114611582D01*
X125546895Y-114611582D01*
X125691582Y-114466895D01*
X125691582Y-114466894D01*
X125811859Y-114301349D01*
X125904755Y-114119029D01*
X125967990Y-113924413D01*
X125976609Y-113870000D01*
X124315686Y-113870000D01*
X124320080Y-113865606D01*
X124372741Y-113774394D01*
X124400000Y-113672661D01*
X124400000Y-113567339D01*
X124372741Y-113465606D01*
X124320080Y-113374394D01*
X124315686Y-113370000D01*
X125976609Y-113370000D01*
X125967990Y-113315586D01*
X125904755Y-113120970D01*
X125811859Y-112938650D01*
X125691582Y-112773105D01*
X125691582Y-112773104D01*
X125546895Y-112628417D01*
X125445595Y-112554818D01*
X125402930Y-112499488D01*
X125396951Y-112429874D01*
X125429557Y-112368080D01*
X125490396Y-112333722D01*
X125518481Y-112330500D01*
X129481519Y-112330500D01*
X129548558Y-112350185D01*
G37*
%TD.AperFunction*%
%TA.AperFunction,Conductor*%
G36*
X119748703Y-107770185D02*
G01*
X119794458Y-107822989D01*
X119804402Y-107892147D01*
X119775377Y-107955703D01*
X119769345Y-107962181D01*
X117068702Y-110662824D01*
X117007379Y-110696309D01*
X116981021Y-110699143D01*
X106358610Y-110699143D01*
X106291571Y-110679458D01*
X106245816Y-110626654D01*
X106235872Y-110557496D01*
X106264897Y-110493940D01*
X106278784Y-110481194D01*
X106278334Y-110480667D01*
X106282041Y-110477500D01*
X106437857Y-110321684D01*
X106567386Y-110143403D01*
X106667432Y-109947053D01*
X106735526Y-109737481D01*
X106735526Y-109737478D01*
X106747855Y-109659643D01*
X103975686Y-109659643D01*
X103980080Y-109655249D01*
X104032741Y-109564037D01*
X104060000Y-109462304D01*
X104060000Y-109356982D01*
X104032741Y-109255249D01*
X103980080Y-109164037D01*
X103975686Y-109159643D01*
X106747855Y-109159643D01*
X106735526Y-109081807D01*
X106735526Y-109081804D01*
X106667432Y-108872232D01*
X106567386Y-108675882D01*
X106437857Y-108497601D01*
X106282041Y-108341785D01*
X106142318Y-108240270D01*
X106099653Y-108184940D01*
X106093674Y-108115327D01*
X106126280Y-108053532D01*
X106142313Y-108039637D01*
X106282365Y-107937885D01*
X106433431Y-107786819D01*
X106494754Y-107753334D01*
X106521112Y-107750500D01*
X119681664Y-107750500D01*
X119748703Y-107770185D01*
G37*
%TD.AperFunction*%
%TA.AperFunction,Conductor*%
G36*
X83248429Y-95439828D02*
G01*
X83294184Y-95492632D01*
X83304128Y-95561790D01*
X83275103Y-95625346D01*
X83261215Y-95638091D01*
X83261666Y-95638619D01*
X83257958Y-95641785D01*
X83102142Y-95797601D01*
X82972613Y-95975882D01*
X82872567Y-96172232D01*
X82804473Y-96381804D01*
X82804473Y-96381807D01*
X82792145Y-96459643D01*
X85564314Y-96459643D01*
X85559920Y-96464037D01*
X85507259Y-96555249D01*
X85480000Y-96656982D01*
X85480000Y-96762304D01*
X85507259Y-96864037D01*
X85559920Y-96955249D01*
X85564314Y-96959643D01*
X82792145Y-96959643D01*
X82804473Y-97037478D01*
X82804473Y-97037481D01*
X82872567Y-97247053D01*
X82972613Y-97443403D01*
X83102142Y-97621684D01*
X83257958Y-97777500D01*
X83261666Y-97780667D01*
X83260149Y-97782442D01*
X83296942Y-97830156D01*
X83302920Y-97899770D01*
X83270313Y-97961564D01*
X83209474Y-97995921D01*
X83181390Y-97999143D01*
X80461907Y-97999143D01*
X80394868Y-97979458D01*
X80349113Y-97926654D01*
X80339169Y-97857496D01*
X80368194Y-97793940D01*
X80374226Y-97787462D01*
X81504707Y-96656982D01*
X82705227Y-95456462D01*
X82766550Y-95422977D01*
X82792908Y-95420143D01*
X83181390Y-95420143D01*
X83248429Y-95439828D01*
G37*
%TD.AperFunction*%
%TA.AperFunction,Conductor*%
G36*
X133534435Y-90359828D02*
G01*
X133580190Y-90412632D01*
X133590134Y-90481790D01*
X133561109Y-90545346D01*
X133540281Y-90564461D01*
X133452787Y-90628028D01*
X133452782Y-90628032D01*
X133308028Y-90772786D01*
X133187715Y-90938386D01*
X133094781Y-91120776D01*
X133031522Y-91315465D01*
X132999500Y-91517648D01*
X132999500Y-91722351D01*
X133031522Y-91924534D01*
X133094781Y-92119223D01*
X133140489Y-92208928D01*
X133171745Y-92270272D01*
X133187715Y-92301613D01*
X133308028Y-92467213D01*
X133308034Y-92467219D01*
X133452781Y-92611966D01*
X133618390Y-92732287D01*
X133681795Y-92764593D01*
X133732590Y-92812566D01*
X133749500Y-92875077D01*
X133749500Y-93350664D01*
X133729815Y-93417703D01*
X133713181Y-93438345D01*
X133005690Y-94145835D01*
X132944367Y-94179320D01*
X132874675Y-94174336D01*
X132818742Y-94132464D01*
X132794325Y-94067000D01*
X132807525Y-94001859D01*
X132901092Y-93818224D01*
X132901094Y-93818220D01*
X132966757Y-93616129D01*
X132966757Y-93616126D01*
X132977231Y-93550000D01*
X131433012Y-93550000D01*
X131465925Y-93492993D01*
X131500000Y-93365826D01*
X131500000Y-93234174D01*
X131465925Y-93107007D01*
X131433012Y-93050000D01*
X132977231Y-93050000D01*
X132966757Y-92983873D01*
X132966757Y-92983870D01*
X132901095Y-92781782D01*
X132804620Y-92592442D01*
X132679727Y-92420540D01*
X132679723Y-92420535D01*
X132529464Y-92270276D01*
X132529459Y-92270272D01*
X132357557Y-92145379D01*
X132168217Y-92048904D01*
X131966129Y-91983242D01*
X131756246Y-91950000D01*
X131250000Y-91950000D01*
X131250000Y-92866988D01*
X131192993Y-92834075D01*
X131065826Y-92800000D01*
X130934174Y-92800000D01*
X130807007Y-92834075D01*
X130750000Y-92866988D01*
X130750000Y-91950000D01*
X130243754Y-91950000D01*
X130033872Y-91983242D01*
X130033869Y-91983242D01*
X129831782Y-92048904D01*
X129642442Y-92145379D01*
X129470540Y-92270272D01*
X129470535Y-92270276D01*
X129320276Y-92420535D01*
X129320272Y-92420540D01*
X129195379Y-92592442D01*
X129098904Y-92781782D01*
X129033242Y-92983870D01*
X129033242Y-92983873D01*
X129022769Y-93050000D01*
X130566988Y-93050000D01*
X130534075Y-93107007D01*
X130500000Y-93234174D01*
X130500000Y-93365826D01*
X130534075Y-93492993D01*
X130566988Y-93550000D01*
X129022769Y-93550000D01*
X129033242Y-93616126D01*
X129033242Y-93616129D01*
X129098904Y-93818217D01*
X129195379Y-94007557D01*
X129320272Y-94179459D01*
X129320276Y-94179464D01*
X129470535Y-94329723D01*
X129470540Y-94329727D01*
X129642444Y-94454622D01*
X129651495Y-94459234D01*
X129702292Y-94507208D01*
X129719087Y-94575029D01*
X129696550Y-94641164D01*
X129651499Y-94680202D01*
X129642182Y-94684949D01*
X129470213Y-94809890D01*
X129319890Y-94960213D01*
X129194951Y-95132179D01*
X129098444Y-95321585D01*
X129032753Y-95523760D01*
X129014060Y-95641785D01*
X128999500Y-95733713D01*
X128999500Y-95946287D01*
X129004233Y-95976169D01*
X129025986Y-96113516D01*
X129032754Y-96156243D01*
X129096765Y-96353249D01*
X129098444Y-96358414D01*
X129194951Y-96547820D01*
X129319890Y-96719786D01*
X129470211Y-96870107D01*
X129527167Y-96911487D01*
X129569834Y-96966817D01*
X129575813Y-97036430D01*
X129543208Y-97098225D01*
X129482370Y-97132583D01*
X129473682Y-97134279D01*
X129344290Y-97154773D01*
X129330222Y-97157002D01*
X129330221Y-97157002D01*
X129309455Y-97160290D01*
X129122251Y-97221117D01*
X128946876Y-97310476D01*
X128876218Y-97361813D01*
X128787636Y-97426172D01*
X128787634Y-97426174D01*
X128787633Y-97426174D01*
X128250984Y-97962824D01*
X128189661Y-97996309D01*
X128163303Y-97999143D01*
X106358610Y-97999143D01*
X106291571Y-97979458D01*
X106245816Y-97926654D01*
X106235872Y-97857496D01*
X106264897Y-97793940D01*
X106278784Y-97781194D01*
X106278334Y-97780667D01*
X106282041Y-97777500D01*
X106437857Y-97621684D01*
X106567386Y-97443403D01*
X106667432Y-97247053D01*
X106735526Y-97037481D01*
X106735526Y-97037478D01*
X106747855Y-96959643D01*
X103975686Y-96959643D01*
X103980080Y-96955249D01*
X104032741Y-96864037D01*
X104060000Y-96762304D01*
X104060000Y-96656982D01*
X104032741Y-96555249D01*
X103980080Y-96464037D01*
X103975686Y-96459643D01*
X106747855Y-96459643D01*
X106735526Y-96381807D01*
X106735526Y-96381804D01*
X106667432Y-96172232D01*
X106567386Y-95975882D01*
X106437857Y-95797601D01*
X106282041Y-95641785D01*
X106278334Y-95638619D01*
X106279850Y-95636843D01*
X106243058Y-95589130D01*
X106237080Y-95519516D01*
X106269687Y-95457722D01*
X106330526Y-95423365D01*
X106358610Y-95420143D01*
X107558422Y-95420143D01*
X107752826Y-95389352D01*
X107787662Y-95378033D01*
X107940026Y-95328527D01*
X108115405Y-95239167D01*
X108274646Y-95123471D01*
X110441298Y-92956819D01*
X110502621Y-92923334D01*
X110528979Y-92920500D01*
X111302351Y-92920500D01*
X111302352Y-92920500D01*
X111504534Y-92888477D01*
X111699219Y-92825220D01*
X111881610Y-92732287D01*
X111974590Y-92664732D01*
X112047213Y-92611971D01*
X112047215Y-92611968D01*
X112047219Y-92611966D01*
X112191966Y-92467219D01*
X112191968Y-92467215D01*
X112191971Y-92467213D01*
X112250111Y-92387189D01*
X112312287Y-92301610D01*
X112405220Y-92119219D01*
X112468477Y-91924534D01*
X112500500Y-91722352D01*
X112500500Y-91517648D01*
X112484206Y-91414771D01*
X112468477Y-91315465D01*
X112405218Y-91120776D01*
X112371503Y-91054607D01*
X112312287Y-90938390D01*
X112281211Y-90895617D01*
X112191971Y-90772786D01*
X112047217Y-90628032D01*
X112047212Y-90628028D01*
X111959719Y-90564461D01*
X111917053Y-90509132D01*
X111911074Y-90439518D01*
X111943679Y-90377723D01*
X112004518Y-90343366D01*
X112032604Y-90340143D01*
X133467396Y-90340143D01*
X133534435Y-90359828D01*
G37*
%TD.AperFunction*%
%TA.AperFunction,Conductor*%
G36*
X83248429Y-82739828D02*
G01*
X83294184Y-82792632D01*
X83304128Y-82861790D01*
X83275103Y-82925346D01*
X83261215Y-82938091D01*
X83261666Y-82938619D01*
X83257958Y-82941785D01*
X83102142Y-83097601D01*
X82972613Y-83275882D01*
X82872567Y-83472232D01*
X82804473Y-83681804D01*
X82804473Y-83681807D01*
X82792145Y-83759643D01*
X85564314Y-83759643D01*
X85559920Y-83764037D01*
X85507259Y-83855249D01*
X85480000Y-83956982D01*
X85480000Y-84062304D01*
X85507259Y-84164037D01*
X85559920Y-84255249D01*
X85564314Y-84259643D01*
X82792145Y-84259643D01*
X82804473Y-84337478D01*
X82804473Y-84337481D01*
X82872567Y-84547053D01*
X82972613Y-84743403D01*
X83102142Y-84921684D01*
X83257958Y-85077500D01*
X83261666Y-85080667D01*
X83260149Y-85082442D01*
X83296942Y-85130156D01*
X83302920Y-85199770D01*
X83270313Y-85261564D01*
X83209474Y-85295921D01*
X83181390Y-85299143D01*
X78192556Y-85299143D01*
X77998153Y-85329933D01*
X77979567Y-85335972D01*
X77909726Y-85337964D01*
X77853573Y-85305720D01*
X77239790Y-84691937D01*
X77206305Y-84630614D01*
X77211289Y-84560922D01*
X77253161Y-84504989D01*
X77318625Y-84480572D01*
X77327471Y-84480256D01*
X78612351Y-84480256D01*
X78612352Y-84480256D01*
X78814534Y-84448233D01*
X79009219Y-84384976D01*
X79191610Y-84292043D01*
X79284590Y-84224488D01*
X79357213Y-84171727D01*
X79357215Y-84171724D01*
X79357219Y-84171722D01*
X79501966Y-84026975D01*
X79501968Y-84026971D01*
X79501971Y-84026969D01*
X79556002Y-83952600D01*
X79622287Y-83861366D01*
X79715220Y-83678975D01*
X79778477Y-83484290D01*
X79810500Y-83282108D01*
X79810500Y-83077404D01*
X79802653Y-83027863D01*
X79811607Y-82958570D01*
X79837442Y-82920786D01*
X80001769Y-82756459D01*
X80063091Y-82722977D01*
X80089449Y-82720143D01*
X83181390Y-82720143D01*
X83248429Y-82739828D01*
G37*
%TD.AperFunction*%
%TA.AperFunction,Conductor*%
G36*
X131319525Y-67249828D02*
G01*
X131365280Y-67302632D01*
X131375224Y-67371790D01*
X131352804Y-67427029D01*
X131217085Y-67613828D01*
X131109897Y-67824197D01*
X131036934Y-68048752D01*
X131000000Y-68281947D01*
X131000000Y-68650000D01*
X132066988Y-68650000D01*
X132034075Y-68707007D01*
X132000000Y-68834174D01*
X132000000Y-68965826D01*
X132034075Y-69092993D01*
X132066988Y-69150000D01*
X131000000Y-69150000D01*
X131000000Y-69518052D01*
X131036934Y-69751247D01*
X131109897Y-69975802D01*
X131217085Y-70186171D01*
X131355866Y-70377186D01*
X131522813Y-70544133D01*
X131713828Y-70682914D01*
X131924195Y-70790102D01*
X132148744Y-70863063D01*
X132148750Y-70863065D01*
X132250000Y-70879101D01*
X132250000Y-69333012D01*
X132307007Y-69365925D01*
X132434174Y-69400000D01*
X132565826Y-69400000D01*
X132692993Y-69365925D01*
X132750000Y-69333012D01*
X132750000Y-70879100D01*
X132851249Y-70863065D01*
X132851255Y-70863063D01*
X133075804Y-70790102D01*
X133286171Y-70682914D01*
X133477186Y-70544133D01*
X133644133Y-70377186D01*
X133782914Y-70186171D01*
X133890102Y-69975802D01*
X133963065Y-69751247D01*
X134000000Y-69518052D01*
X134000000Y-69150000D01*
X132933012Y-69150000D01*
X132965925Y-69092993D01*
X133000000Y-68965826D01*
X133000000Y-68834174D01*
X132965925Y-68707007D01*
X132933012Y-68650000D01*
X134000000Y-68650000D01*
X134000000Y-68281947D01*
X133963065Y-68048752D01*
X133890102Y-67824197D01*
X133782914Y-67613828D01*
X133647196Y-67427029D01*
X133623716Y-67361222D01*
X133639541Y-67293168D01*
X133689647Y-67244473D01*
X133747514Y-67230143D01*
X150889800Y-67230143D01*
X150956839Y-67249828D01*
X150969365Y-67259136D01*
X151142182Y-67384693D01*
X151150946Y-67389159D01*
X151201742Y-67437134D01*
X151218536Y-67504955D01*
X151195998Y-67571090D01*
X151150946Y-67610127D01*
X151142182Y-67614592D01*
X150970213Y-67739533D01*
X150819890Y-67889856D01*
X150694951Y-68061822D01*
X150598444Y-68251228D01*
X150598443Y-68251230D01*
X150598443Y-68251231D01*
X150588463Y-68281947D01*
X150532753Y-68453403D01*
X150499500Y-68663356D01*
X150499500Y-68875929D01*
X150527491Y-69052661D01*
X150532754Y-69085886D01*
X150584650Y-69245606D01*
X150598444Y-69288057D01*
X150694951Y-69477463D01*
X150819890Y-69649429D01*
X150970213Y-69799752D01*
X151142179Y-69924691D01*
X151142181Y-69924692D01*
X151142184Y-69924694D01*
X151151493Y-69929437D01*
X151202290Y-69977409D01*
X151219087Y-70045230D01*
X151196552Y-70111365D01*
X151151502Y-70150405D01*
X151142443Y-70155021D01*
X150970540Y-70279915D01*
X150970535Y-70279919D01*
X150820276Y-70430178D01*
X150820272Y-70430183D01*
X150695379Y-70602085D01*
X150598904Y-70791425D01*
X150533242Y-70993513D01*
X150533242Y-70993516D01*
X150522769Y-71059643D01*
X152066988Y-71059643D01*
X152034075Y-71116650D01*
X152000000Y-71243817D01*
X152000000Y-71375469D01*
X152034075Y-71502636D01*
X152066988Y-71559643D01*
X150522769Y-71559643D01*
X150533242Y-71625769D01*
X150533242Y-71625772D01*
X150598904Y-71827860D01*
X150695379Y-72017200D01*
X150820272Y-72189102D01*
X150820276Y-72189107D01*
X150970535Y-72339366D01*
X150970540Y-72339370D01*
X151142442Y-72464263D01*
X151331782Y-72560738D01*
X151533870Y-72626400D01*
X151743754Y-72659643D01*
X152277748Y-72659643D01*
X152344787Y-72679328D01*
X152390542Y-72732132D01*
X152400486Y-72801290D01*
X152371461Y-72864846D01*
X152365429Y-72871324D01*
X149773573Y-75463181D01*
X149712250Y-75496666D01*
X149685892Y-75499500D01*
X134172889Y-75499500D01*
X134105850Y-75479815D01*
X134085208Y-75463181D01*
X133977512Y-75355485D01*
X133977510Y-75355483D01*
X133786433Y-75216657D01*
X133753742Y-75200000D01*
X133575996Y-75109433D01*
X133351368Y-75036446D01*
X133118097Y-74999500D01*
X133118092Y-74999500D01*
X132465782Y-74999500D01*
X132398743Y-74979815D01*
X132378101Y-74963181D01*
X130781479Y-73366559D01*
X130781459Y-73366537D01*
X130637785Y-73222863D01*
X130637781Y-73222860D01*
X130473920Y-73113371D01*
X130473907Y-73113364D01*
X130308118Y-73044693D01*
X130291837Y-73037949D01*
X130291829Y-73037947D01*
X130195188Y-73018724D01*
X130098544Y-72999500D01*
X130098541Y-72999500D01*
X123075762Y-72999500D01*
X123008723Y-72979815D01*
X123002877Y-72975818D01*
X122881613Y-72887715D01*
X122881612Y-72887714D01*
X122881610Y-72887713D01*
X122823660Y-72858186D01*
X122699223Y-72794781D01*
X122504534Y-72731522D01*
X122329995Y-72703878D01*
X122302352Y-72699500D01*
X120697648Y-72699500D01*
X120673329Y-72703351D01*
X120495465Y-72731522D01*
X120300776Y-72794781D01*
X120118386Y-72887715D01*
X119952786Y-73008028D01*
X119808028Y-73152786D01*
X119687715Y-73318386D01*
X119594781Y-73500776D01*
X119531522Y-73695465D01*
X119499500Y-73897648D01*
X119499500Y-74102351D01*
X119531522Y-74304534D01*
X119594781Y-74499223D01*
X119687715Y-74681613D01*
X119808028Y-74847213D01*
X119952786Y-74991971D01*
X120094621Y-75095018D01*
X120118390Y-75112287D01*
X120300781Y-75205220D01*
X120408852Y-75240334D01*
X120413818Y-75241948D01*
X120471494Y-75281386D01*
X120498692Y-75345744D01*
X120499500Y-75359879D01*
X120499500Y-75475537D01*
X120479815Y-75542576D01*
X120463181Y-75563218D01*
X120145666Y-75880733D01*
X120084343Y-75914218D01*
X120014651Y-75909234D01*
X119958718Y-75867362D01*
X119947500Y-75849346D01*
X119931861Y-75818652D01*
X119811582Y-75653105D01*
X119811582Y-75653104D01*
X119666895Y-75508417D01*
X119501349Y-75388140D01*
X119319031Y-75295244D01*
X119124417Y-75232009D01*
X118922317Y-75200000D01*
X118370000Y-75200000D01*
X118370000Y-76184314D01*
X118365606Y-76179920D01*
X118274394Y-76127259D01*
X118172661Y-76100000D01*
X118067339Y-76100000D01*
X117965606Y-76127259D01*
X117874394Y-76179920D01*
X117870000Y-76184314D01*
X117870000Y-75200000D01*
X117317683Y-75200000D01*
X117115582Y-75232009D01*
X116920968Y-75295244D01*
X116738650Y-75388140D01*
X116573105Y-75508417D01*
X116573104Y-75508417D01*
X116428417Y-75653104D01*
X116428417Y-75653105D01*
X116308140Y-75818650D01*
X116259191Y-75914719D01*
X116211216Y-75965515D01*
X116143395Y-75982310D01*
X116077261Y-75959773D01*
X116061025Y-75946105D01*
X112806819Y-72691899D01*
X112773334Y-72630576D01*
X112770500Y-72604218D01*
X112770500Y-72239343D01*
X112778318Y-72196009D01*
X112778476Y-72195586D01*
X112789091Y-72167126D01*
X112795500Y-72107516D01*
X112795499Y-70511771D01*
X112789091Y-70452160D01*
X112781289Y-70431243D01*
X112738797Y-70317314D01*
X112738793Y-70317307D01*
X112652547Y-70202098D01*
X112652544Y-70202095D01*
X112537335Y-70115849D01*
X112537328Y-70115845D01*
X112402482Y-70065551D01*
X112402483Y-70065551D01*
X112342883Y-70059144D01*
X112342881Y-70059143D01*
X112342873Y-70059143D01*
X112342864Y-70059143D01*
X111197129Y-70059143D01*
X111197123Y-70059144D01*
X111137516Y-70065551D01*
X111002672Y-70115845D01*
X111002665Y-70115849D01*
X111001556Y-70116680D01*
X111000258Y-70117163D01*
X110994887Y-70120097D01*
X110994465Y-70119324D01*
X110936090Y-70141092D01*
X110879800Y-70131968D01*
X110799127Y-70098552D01*
X110799119Y-70098550D01*
X110601007Y-70059143D01*
X110601003Y-70059143D01*
X110398997Y-70059143D01*
X110398992Y-70059143D01*
X110200880Y-70098550D01*
X110200872Y-70098552D01*
X110014243Y-70175857D01*
X109933439Y-70229847D01*
X109866761Y-70250724D01*
X109799382Y-70232238D01*
X109795659Y-70229846D01*
X109715526Y-70176302D01*
X109715513Y-70176295D01*
X109528984Y-70099033D01*
X109528977Y-70099031D01*
X109480000Y-70089288D01*
X109480000Y-70943777D01*
X109477617Y-70967969D01*
X109474865Y-70981807D01*
X109474500Y-70983640D01*
X109474500Y-71023813D01*
X109460255Y-71009568D01*
X109374745Y-70960199D01*
X109279370Y-70934643D01*
X109180630Y-70934643D01*
X109085255Y-70960199D01*
X108999745Y-71009568D01*
X108980000Y-71029313D01*
X108980000Y-70089289D01*
X108979999Y-70089288D01*
X108931022Y-70099031D01*
X108931015Y-70099033D01*
X108744486Y-70176295D01*
X108744473Y-70176302D01*
X108576600Y-70288472D01*
X108576596Y-70288475D01*
X108433832Y-70431239D01*
X108433829Y-70431243D01*
X108321659Y-70599116D01*
X108321652Y-70599129D01*
X108244390Y-70785659D01*
X108244387Y-70785668D01*
X108205000Y-70983684D01*
X108205000Y-71059643D01*
X108949670Y-71059643D01*
X108929925Y-71079388D01*
X108880556Y-71164898D01*
X108855000Y-71260273D01*
X108855000Y-71359013D01*
X108880556Y-71454388D01*
X108929925Y-71539898D01*
X108949670Y-71559643D01*
X108205000Y-71559643D01*
X108205000Y-71635601D01*
X108244387Y-71833617D01*
X108244390Y-71833626D01*
X108321652Y-72020156D01*
X108321659Y-72020169D01*
X108433829Y-72188042D01*
X108433832Y-72188046D01*
X108576596Y-72330810D01*
X108576600Y-72330813D01*
X108744473Y-72442983D01*
X108744486Y-72442990D01*
X108931016Y-72520252D01*
X108931025Y-72520255D01*
X108980000Y-72529996D01*
X108980000Y-71589973D01*
X108999745Y-71609718D01*
X109085255Y-71659087D01*
X109180630Y-71684643D01*
X109279370Y-71684643D01*
X109374745Y-71659087D01*
X109460255Y-71609718D01*
X109474500Y-71595473D01*
X109474500Y-71635646D01*
X109474864Y-71637478D01*
X109477617Y-71651314D01*
X109480000Y-71675508D01*
X109480000Y-72546721D01*
X109493499Y-72566539D01*
X109499500Y-72604647D01*
X109499500Y-75140121D01*
X109479815Y-75207160D01*
X109427011Y-75252915D01*
X109413818Y-75258052D01*
X109300778Y-75294781D01*
X109118386Y-75387715D01*
X108952786Y-75508028D01*
X108808028Y-75652786D01*
X108687715Y-75818386D01*
X108594781Y-76000776D01*
X108531522Y-76195465D01*
X108499500Y-76397648D01*
X108499500Y-76602351D01*
X108531522Y-76804534D01*
X108594781Y-76999223D01*
X108658190Y-77123668D01*
X108665381Y-77137782D01*
X108687715Y-77181613D01*
X108808028Y-77347213D01*
X108952786Y-77491971D01*
X109102144Y-77600484D01*
X109118390Y-77612287D01*
X109234607Y-77671503D01*
X109300776Y-77705218D01*
X109300778Y-77705218D01*
X109300781Y-77705220D01*
X109376726Y-77729896D01*
X109495465Y-77768477D01*
X109569550Y-77780211D01*
X109697648Y-77800500D01*
X109697649Y-77800500D01*
X111302351Y-77800500D01*
X111302352Y-77800500D01*
X111504534Y-77768477D01*
X111699219Y-77705220D01*
X111881610Y-77612287D01*
X111985484Y-77536819D01*
X112047213Y-77491971D01*
X112047215Y-77491968D01*
X112047219Y-77491966D01*
X112191966Y-77347219D01*
X112191968Y-77347215D01*
X112191971Y-77347213D01*
X112262520Y-77250109D01*
X112312287Y-77181610D01*
X112405220Y-76999219D01*
X112468477Y-76804534D01*
X112500500Y-76602352D01*
X112500500Y-76397648D01*
X112481774Y-76279421D01*
X112468477Y-76195465D01*
X112432024Y-76083274D01*
X112405220Y-76000781D01*
X112405218Y-76000778D01*
X112405218Y-76000776D01*
X112358574Y-75909234D01*
X112312287Y-75818390D01*
X112286256Y-75782561D01*
X112191971Y-75652786D01*
X112047213Y-75508028D01*
X111881613Y-75387715D01*
X111881612Y-75387714D01*
X111881610Y-75387713D01*
X111699219Y-75294780D01*
X111586182Y-75258052D01*
X111528506Y-75218614D01*
X111501308Y-75154256D01*
X111500500Y-75140121D01*
X111500500Y-74514782D01*
X111520185Y-74447743D01*
X111572989Y-74401988D01*
X111642147Y-74392044D01*
X111705703Y-74421069D01*
X111712181Y-74427101D01*
X115592542Y-78307462D01*
X115626027Y-78368785D01*
X115621043Y-78438477D01*
X115579171Y-78494410D01*
X115513707Y-78518827D01*
X115504861Y-78519143D01*
X109395631Y-78519143D01*
X109328592Y-78499458D01*
X109307950Y-78482824D01*
X106672154Y-75847028D01*
X106649350Y-75815642D01*
X106567815Y-75655621D01*
X106500681Y-75563218D01*
X106438247Y-75477284D01*
X106438243Y-75477279D01*
X106282363Y-75321399D01*
X106282358Y-75321395D01*
X106142745Y-75219961D01*
X106100079Y-75164632D01*
X106094100Y-75095018D01*
X106126705Y-75033223D01*
X106142745Y-75019325D01*
X106282358Y-74917890D01*
X106282356Y-74917890D01*
X106282365Y-74917885D01*
X106438242Y-74762008D01*
X106567815Y-74583665D01*
X106667895Y-74387249D01*
X106736015Y-74177594D01*
X106770500Y-73959865D01*
X106770500Y-73739421D01*
X106736015Y-73521692D01*
X106679221Y-73346894D01*
X106667896Y-73312039D01*
X106667895Y-73312036D01*
X106622457Y-73222861D01*
X106567815Y-73115621D01*
X106516283Y-73044693D01*
X106438247Y-72937284D01*
X106438243Y-72937279D01*
X106282363Y-72781399D01*
X106282358Y-72781395D01*
X106142319Y-72679651D01*
X106099653Y-72624321D01*
X106093674Y-72554708D01*
X106126279Y-72492913D01*
X106142319Y-72479015D01*
X106282035Y-72377505D01*
X106282041Y-72377500D01*
X106437857Y-72221684D01*
X106567386Y-72043403D01*
X106667432Y-71847053D01*
X106735526Y-71637481D01*
X106735526Y-71637478D01*
X106747855Y-71559643D01*
X103975686Y-71559643D01*
X103980080Y-71555249D01*
X104032741Y-71464037D01*
X104060000Y-71362304D01*
X104060000Y-71256982D01*
X104032741Y-71155249D01*
X103980080Y-71064037D01*
X103975686Y-71059643D01*
X106747855Y-71059643D01*
X106737932Y-70996996D01*
X106737931Y-70996993D01*
X106735525Y-70981801D01*
X106667432Y-70772232D01*
X106567386Y-70575882D01*
X106437857Y-70397601D01*
X106282041Y-70241785D01*
X106142318Y-70140270D01*
X106099653Y-70084940D01*
X106093674Y-70015327D01*
X106126280Y-69953532D01*
X106142313Y-69939637D01*
X106282365Y-69837885D01*
X106438242Y-69682008D01*
X106567815Y-69503665D01*
X106667895Y-69307249D01*
X106736015Y-69097594D01*
X106770500Y-68879865D01*
X106770500Y-68659421D01*
X106736015Y-68441692D01*
X106690062Y-68300262D01*
X106667896Y-68232039D01*
X106667895Y-68232036D01*
X106620455Y-68138932D01*
X106567815Y-68035621D01*
X106536489Y-67992504D01*
X106488919Y-67927028D01*
X106465439Y-67861221D01*
X106481265Y-67793168D01*
X106531371Y-67744473D01*
X106589237Y-67730143D01*
X108888454Y-67730143D01*
X109121725Y-67693196D01*
X109346349Y-67620211D01*
X109556791Y-67512986D01*
X109567845Y-67504955D01*
X109569401Y-67503825D01*
X109635207Y-67480345D01*
X109642286Y-67480143D01*
X111660307Y-67480143D01*
X111727346Y-67499828D01*
X111747988Y-67516462D01*
X113185354Y-68953828D01*
X113344595Y-69069524D01*
X113519974Y-69158884D01*
X113634790Y-69196190D01*
X113654229Y-69202506D01*
X113707173Y-69219709D01*
X113901578Y-69250500D01*
X113901583Y-69250500D01*
X113901584Y-69250500D01*
X114098417Y-69250500D01*
X114925613Y-69250500D01*
X114992652Y-69270185D01*
X115038407Y-69322989D01*
X115048351Y-69392147D01*
X115019326Y-69455703D01*
X114998498Y-69474818D01*
X114952786Y-69508028D01*
X114808028Y-69652786D01*
X114687715Y-69818386D01*
X114594781Y-70000776D01*
X114531522Y-70195465D01*
X114499500Y-70397648D01*
X114499500Y-70602351D01*
X114531522Y-70804534D01*
X114594781Y-70999223D01*
X114654614Y-71116650D01*
X114674281Y-71155249D01*
X114687715Y-71181613D01*
X114808028Y-71347213D01*
X114873487Y-71412672D01*
X114906972Y-71473995D01*
X114901988Y-71543687D01*
X114873488Y-71588034D01*
X114808414Y-71653108D01*
X114688140Y-71818650D01*
X114595244Y-72000970D01*
X114532009Y-72195586D01*
X114523391Y-72250000D01*
X116184314Y-72250000D01*
X116179920Y-72254394D01*
X116127259Y-72345606D01*
X116100000Y-72447339D01*
X116100000Y-72552661D01*
X116127259Y-72654394D01*
X116179920Y-72745606D01*
X116184314Y-72750000D01*
X114523391Y-72750000D01*
X114532009Y-72804413D01*
X114595244Y-72999029D01*
X114688140Y-73181349D01*
X114808417Y-73346894D01*
X114808417Y-73346895D01*
X114953104Y-73491582D01*
X115118650Y-73611859D01*
X115300968Y-73704755D01*
X115495582Y-73767990D01*
X115697683Y-73800000D01*
X116250000Y-73800000D01*
X116250000Y-72815686D01*
X116254394Y-72820080D01*
X116345606Y-72872741D01*
X116447339Y-72900000D01*
X116552661Y-72900000D01*
X116654394Y-72872741D01*
X116745606Y-72820080D01*
X116750000Y-72815686D01*
X116750000Y-73800000D01*
X117302317Y-73800000D01*
X117504417Y-73767990D01*
X117699031Y-73704755D01*
X117881349Y-73611859D01*
X118046894Y-73491582D01*
X118046895Y-73491582D01*
X118191582Y-73346895D01*
X118191582Y-73346894D01*
X118311859Y-73181349D01*
X118404755Y-72999029D01*
X118467990Y-72804413D01*
X118476609Y-72750000D01*
X116815686Y-72750000D01*
X116820080Y-72745606D01*
X116872741Y-72654394D01*
X116900000Y-72552661D01*
X116900000Y-72447339D01*
X116872741Y-72345606D01*
X116820080Y-72254394D01*
X116815686Y-72250000D01*
X118476609Y-72250000D01*
X118467990Y-72195586D01*
X118404755Y-72000970D01*
X118311859Y-71818650D01*
X118191582Y-71653105D01*
X118191582Y-71653104D01*
X118126512Y-71588034D01*
X118093027Y-71526711D01*
X118098011Y-71457019D01*
X118126508Y-71412676D01*
X118191966Y-71347219D01*
X118312287Y-71181610D01*
X118405220Y-70999219D01*
X118468477Y-70804534D01*
X118500500Y-70602352D01*
X118500500Y-70397648D01*
X118483504Y-70290343D01*
X118468477Y-70195465D01*
X118426265Y-70065551D01*
X118405220Y-70000781D01*
X118405218Y-70000778D01*
X118405218Y-70000776D01*
X118366450Y-69924691D01*
X118312287Y-69818390D01*
X118293233Y-69792164D01*
X118191971Y-69652786D01*
X118047213Y-69508028D01*
X117881611Y-69387713D01*
X117818204Y-69355405D01*
X117807140Y-69344956D01*
X117793297Y-69338634D01*
X117782255Y-69321453D01*
X117767409Y-69307431D01*
X117763167Y-69291751D01*
X117755523Y-69279856D01*
X117750500Y-69244921D01*
X117750500Y-68901577D01*
X117735435Y-68806461D01*
X117726492Y-68750000D01*
X119523391Y-68750000D01*
X121184314Y-68750000D01*
X121179920Y-68754394D01*
X121127259Y-68845606D01*
X121100000Y-68947339D01*
X121100000Y-69052661D01*
X121127259Y-69154394D01*
X121179920Y-69245606D01*
X121184314Y-69250000D01*
X119523391Y-69250000D01*
X119532009Y-69304413D01*
X119595244Y-69499029D01*
X119688140Y-69681349D01*
X119808417Y-69846894D01*
X119808417Y-69846895D01*
X119953104Y-69991582D01*
X120118650Y-70111859D01*
X120300968Y-70204755D01*
X120495582Y-70267990D01*
X120697683Y-70300000D01*
X121250000Y-70300000D01*
X121250000Y-69315686D01*
X121254394Y-69320080D01*
X121345606Y-69372741D01*
X121447339Y-69400000D01*
X121552661Y-69400000D01*
X121654394Y-69372741D01*
X121745606Y-69320080D01*
X121750000Y-69315686D01*
X121750000Y-70300000D01*
X122302317Y-70300000D01*
X122504417Y-70267990D01*
X122699031Y-70204755D01*
X122881349Y-70111859D01*
X123046894Y-69991582D01*
X123046895Y-69991582D01*
X123191582Y-69846895D01*
X123191582Y-69846894D01*
X123311859Y-69681349D01*
X123404755Y-69499029D01*
X123467990Y-69304413D01*
X123476609Y-69250000D01*
X121815686Y-69250000D01*
X121820080Y-69245606D01*
X121872741Y-69154394D01*
X121900000Y-69052661D01*
X121900000Y-68947339D01*
X121872741Y-68845606D01*
X121820080Y-68754394D01*
X121815686Y-68750000D01*
X123476609Y-68750000D01*
X123467990Y-68695586D01*
X123404755Y-68500970D01*
X123311859Y-68318650D01*
X123191582Y-68153105D01*
X123191582Y-68153104D01*
X123046895Y-68008417D01*
X122881349Y-67888140D01*
X122699031Y-67795244D01*
X122504417Y-67732009D01*
X122302317Y-67700000D01*
X121750000Y-67700000D01*
X121750000Y-68684314D01*
X121745606Y-68679920D01*
X121654394Y-68627259D01*
X121552661Y-68600000D01*
X121447339Y-68600000D01*
X121345606Y-68627259D01*
X121254394Y-68679920D01*
X121250000Y-68684314D01*
X121250000Y-67700000D01*
X120697683Y-67700000D01*
X120495582Y-67732009D01*
X120300968Y-67795244D01*
X120118650Y-67888140D01*
X119953105Y-68008417D01*
X119953104Y-68008417D01*
X119808417Y-68153104D01*
X119808417Y-68153105D01*
X119688140Y-68318650D01*
X119595244Y-68500970D01*
X119532009Y-68695586D01*
X119523391Y-68750000D01*
X117726492Y-68750000D01*
X117719709Y-68707173D01*
X117685375Y-68601505D01*
X117658884Y-68519975D01*
X117658882Y-68519972D01*
X117658881Y-68519967D01*
X117569528Y-68344601D01*
X117569525Y-68344596D01*
X117568437Y-68343099D01*
X117568436Y-68343098D01*
X117558005Y-68328741D01*
X117453829Y-68185355D01*
X116822629Y-67554155D01*
X116789144Y-67492832D01*
X116794128Y-67423140D01*
X116836000Y-67367207D01*
X116854010Y-67355992D01*
X116881610Y-67341930D01*
X116881609Y-67341930D01*
X116881612Y-67341929D01*
X116970893Y-67277063D01*
X117002877Y-67253824D01*
X117068683Y-67230345D01*
X117075762Y-67230143D01*
X131252486Y-67230143D01*
X131319525Y-67249828D01*
G37*
%TD.AperFunction*%
%TA.AperFunction,Conductor*%
G36*
X78101949Y-69807016D02*
G01*
X78115405Y-69815528D01*
X78147941Y-69839167D01*
X78323321Y-69928527D01*
X78433714Y-69964396D01*
X78510519Y-69989352D01*
X78566064Y-69998149D01*
X78704924Y-70020143D01*
X78704929Y-70020143D01*
X78901762Y-70020143D01*
X83181390Y-70020143D01*
X83248429Y-70039828D01*
X83294184Y-70092632D01*
X83304128Y-70161790D01*
X83275103Y-70225346D01*
X83261215Y-70238091D01*
X83261666Y-70238619D01*
X83257958Y-70241785D01*
X83102142Y-70397601D01*
X82972613Y-70575882D01*
X82872567Y-70772232D01*
X82804473Y-70981804D01*
X82804473Y-70981807D01*
X82792145Y-71059643D01*
X85564314Y-71059643D01*
X85559920Y-71064037D01*
X85507259Y-71155249D01*
X85480000Y-71256982D01*
X85480000Y-71362304D01*
X85507259Y-71464037D01*
X85559920Y-71555249D01*
X85564314Y-71559643D01*
X82792145Y-71559643D01*
X82804473Y-71637478D01*
X82804473Y-71637481D01*
X82872567Y-71847053D01*
X82972613Y-72043403D01*
X83102142Y-72221684D01*
X83257958Y-72377500D01*
X83261666Y-72380667D01*
X83260149Y-72382442D01*
X83296942Y-72430156D01*
X83302920Y-72499770D01*
X83270313Y-72561564D01*
X83209474Y-72595921D01*
X83181390Y-72599143D01*
X80601818Y-72599143D01*
X80534779Y-72579458D01*
X80514137Y-72562824D01*
X80180918Y-72229605D01*
X79837444Y-71886132D01*
X79803960Y-71824810D01*
X79802653Y-71779053D01*
X79804329Y-71768477D01*
X79810500Y-71729514D01*
X79810500Y-71524810D01*
X79778477Y-71322628D01*
X79760749Y-71268068D01*
X79715218Y-71127938D01*
X79669671Y-71038549D01*
X79622287Y-70945552D01*
X79574008Y-70879101D01*
X79501971Y-70779948D01*
X79357213Y-70635190D01*
X79191613Y-70514877D01*
X79191612Y-70514876D01*
X79191610Y-70514875D01*
X79121243Y-70479021D01*
X79009223Y-70421943D01*
X78814534Y-70358684D01*
X78639995Y-70331040D01*
X78612352Y-70326662D01*
X78612351Y-70326662D01*
X78329336Y-70326662D01*
X78262297Y-70306977D01*
X78241655Y-70290343D01*
X77954841Y-70003529D01*
X77921356Y-69942206D01*
X77926340Y-69872514D01*
X77968212Y-69816581D01*
X78033676Y-69792164D01*
X78101949Y-69807016D01*
G37*
%TD.AperFunction*%
%TD*%
M02*
