%TF.GenerationSoftware,KiCad,Pcbnew,10.0.6-10.0.6~ubuntu24.04.1*%
%TF.CreationDate,2026-09-05T23:45:56-03:00*%
%TF.ProjectId,simut PCB,73696d75-7420-4504-9342-2e6b69636164,rev?*%
%TF.SameCoordinates,Original*%
%TF.FileFunction,Soldermask,Bot*%
%TF.FilePolarity,Negative*%
%FSLAX46Y46*%
G04 Gerber Fmt 4.6, Leading zero omitted, Abs format (unit mm)*
G04 Created by KiCad (PCBNEW 10.0.6-10.0.6~ubuntu24.04.1) date 2026-09-05 23:45:56*
%MOMM*%
%LPD*%
G01*
G04 APERTURE LIST*
G04 Aperture macros list*
%AMRoundRect*
0 Rectangle with rounded corners*
0 $1 Rounding radius*
0 $2 $3 $4 $5 $6 $7 $8 $9 X,Y pos of 4 corners*
0 Add a 4 corners polygon primitive as box body*
4,1,4,$2,$3,$4,$5,$6,$7,$8,$9,$2,$3,0*
0 Add four circle primitives for the rounded corners*
1,1,$1+$1,$2,$3*
1,1,$1+$1,$4,$5*
1,1,$1+$1,$6,$7*
1,1,$1+$1,$8,$9*
0 Add four rect primitives between the rounded corners*
20,1,$1+$1,$2,$3,$4,$5,0*
20,1,$1+$1,$4,$5,$6,$7,0*
20,1,$1+$1,$6,$7,$8,$9,0*
20,1,$1+$1,$8,$9,$2,$3,0*%
G04 Aperture macros list end*
%ADD10RoundRect,0.250000X-0.550000X0.550000X-0.550000X-0.550000X0.550000X-0.550000X0.550000X0.550000X0*%
%ADD11C,1.600000*%
%ADD12O,3.000000X1.600000*%
%ADD13R,1.500000X1.050000*%
%ADD14O,1.500000X1.050000*%
%ADD15RoundRect,0.200000X-0.600000X0.600000X-0.600000X-0.600000X0.600000X-0.600000X0.600000X0.600000X0*%
%ADD16O,1.800000X3.610000*%
%ADD17C,2.200000*%
%ADD18C,1.850000*%
%ADD19O,1.700000X3.000000*%
%ADD20O,1.600000X3.000000*%
%ADD21R,1.600000X1.600000*%
%ADD22O,3.000000X2.000000*%
%ADD23O,2.000000X3.000000*%
%ADD24O,5.000000X3.000000*%
%ADD25O,3.000000X1.700000*%
%ADD26O,2.700000X5.000000*%
G04 APERTURE END LIST*
D10*
%TO.C,RN3*%
X140490000Y-74840900D03*
D11*
X137950000Y-74840900D03*
X135410000Y-74840900D03*
X132870000Y-74840900D03*
X130330000Y-74840900D03*
X127790000Y-74840900D03*
X125250000Y-74840900D03*
X122710000Y-74840900D03*
X120170000Y-74840900D03*
X117630000Y-74840900D03*
X117630000Y-82460900D03*
X120170000Y-82460900D03*
X122710000Y-82460900D03*
X125250000Y-82460900D03*
X127790000Y-82460900D03*
X130330000Y-82460900D03*
X132870000Y-82460900D03*
X135410000Y-82460900D03*
X137950000Y-82460900D03*
X140490000Y-82460900D03*
%TD*%
D12*
%TO.C,100uF*%
X161670000Y-81340900D03*
X161670000Y-83340900D03*
%TD*%
D13*
%TO.C,BC337*%
X161670000Y-90110900D03*
D14*
X161670000Y-88840900D03*
X161670000Y-87570900D03*
%TD*%
D11*
%TO.C,A1*%
X114480000Y-104580000D03*
X114480000Y-102040000D03*
D15*
X114480000Y-99500000D03*
D16*
X96050000Y-108610900D03*
X98590000Y-108610900D03*
X101130000Y-108610900D03*
X103670000Y-108610900D03*
X106210000Y-108610900D03*
X108750000Y-108610900D03*
X111290000Y-108610900D03*
X113830000Y-108610900D03*
X116370000Y-108610900D03*
X118910000Y-108610900D03*
X121450000Y-108610900D03*
X123990000Y-108610900D03*
X126530000Y-108610900D03*
X129070000Y-108610900D03*
X131610000Y-108610900D03*
X134150000Y-108610900D03*
X136690000Y-108610900D03*
X139230000Y-108610900D03*
X141770000Y-108610900D03*
X144310000Y-108610900D03*
D17*
X144180000Y-101640900D03*
D18*
X141150000Y-101340900D03*
X141150000Y-96490900D03*
D17*
X144180000Y-96190900D03*
D16*
X96050000Y-89220900D03*
X98590000Y-89220900D03*
X101130000Y-89220900D03*
X103670000Y-89220900D03*
X106210000Y-89220900D03*
X108750000Y-89220900D03*
X111290000Y-89220900D03*
X113830000Y-89220900D03*
X116370000Y-89220900D03*
X118910000Y-89220900D03*
X121450000Y-89220900D03*
X123990000Y-89220900D03*
X126530000Y-89220900D03*
X129070000Y-89220900D03*
X131610000Y-89220900D03*
X134150000Y-89220900D03*
X136690000Y-89220900D03*
X139230000Y-89220900D03*
X141770000Y-89220900D03*
X144310000Y-89220900D03*
%TD*%
D19*
%TO.C,J4*%
X183130000Y-61340900D03*
X185670000Y-61340900D03*
X188210000Y-61340900D03*
%TD*%
D12*
%TO.C,R32*%
X135360000Y-113340900D03*
X142980000Y-113340900D03*
%TD*%
D19*
%TO.C,J6*%
X110100000Y-118000000D03*
X112640000Y-118000000D03*
X115180000Y-118000000D03*
D20*
X117720000Y-118000000D03*
D19*
X120260000Y-118000000D03*
X122800000Y-118000000D03*
X125340000Y-118000000D03*
X127880000Y-118000000D03*
X130420000Y-118000000D03*
X132960000Y-118000000D03*
X135500000Y-118000000D03*
X138040000Y-118000000D03*
%TD*%
%TO.C,J1*%
X106210000Y-71340900D03*
X108750000Y-71340900D03*
X111290000Y-71340900D03*
%TD*%
D21*
%TO.C,RN2*%
X172530000Y-75340900D03*
D11*
X169990000Y-75340900D03*
X167450000Y-75340900D03*
X164910000Y-75340900D03*
X162370000Y-75340900D03*
X159830000Y-75340900D03*
X157290000Y-75340900D03*
X154750000Y-75340900D03*
X152210000Y-75340900D03*
X149670000Y-75340900D03*
X147130000Y-75340900D03*
%TD*%
D21*
%TO.C,RN1*%
X143030000Y-85340900D03*
D11*
X140490000Y-85340900D03*
X137950000Y-85340900D03*
X135410000Y-85340900D03*
X132870000Y-85340900D03*
X130330000Y-85340900D03*
X127790000Y-85340900D03*
X125250000Y-85340900D03*
X122710000Y-85340900D03*
X120170000Y-85340900D03*
X117630000Y-85340900D03*
%TD*%
D22*
%TO.C,BZ1*%
X191170000Y-78340900D03*
D23*
X191170000Y-70740900D03*
%TD*%
D19*
%TO.C,J7*%
X138170000Y-126340900D03*
X135630000Y-126340900D03*
X133090000Y-126340900D03*
X130550000Y-126340900D03*
D20*
X128010000Y-126340900D03*
D19*
X125470000Y-126340900D03*
X122930000Y-126340900D03*
X120390000Y-126340900D03*
X117850000Y-126340900D03*
X115310000Y-126340900D03*
X112770000Y-126340900D03*
X110230000Y-126340900D03*
X107690000Y-126340900D03*
X105150000Y-126340900D03*
%TD*%
D20*
%TO.C,R31*%
X111290000Y-76340900D03*
X111290000Y-83960900D03*
%TD*%
%TO.C,J3*%
X169990000Y-71340900D03*
D19*
X167450000Y-71340900D03*
X164910000Y-71340900D03*
X162370000Y-71340900D03*
X159830000Y-71340900D03*
X157290000Y-71340900D03*
X154750000Y-71340900D03*
X152210000Y-71340900D03*
X149670000Y-71340900D03*
X147130000Y-71340900D03*
%TD*%
D12*
%TO.C,R34*%
X148550000Y-82340900D03*
X156170000Y-82340900D03*
%TD*%
D24*
%TO.C,U2*%
X179750000Y-119340900D03*
X179750000Y-114340900D03*
X150670000Y-124340900D03*
X150670000Y-109340900D03*
%TD*%
D12*
%TO.C,R35*%
X167170000Y-82340900D03*
X174790000Y-82340900D03*
%TD*%
D25*
%TO.C,J5*%
X201670000Y-77080900D03*
X201670000Y-74540900D03*
X201670000Y-72000900D03*
%TD*%
D12*
%TO.C,C2*%
X181170000Y-77040900D03*
X181170000Y-72040900D03*
%TD*%
D19*
%TO.C,J2*%
X140490000Y-71340900D03*
X137950000Y-71340900D03*
X135410000Y-71340900D03*
X132870000Y-71340900D03*
X130330000Y-71340900D03*
X127790000Y-71340900D03*
X125250000Y-71340900D03*
X122710000Y-71340900D03*
X120170000Y-71340900D03*
X117630000Y-71340900D03*
%TD*%
D12*
%TO.C,R33*%
X148550000Y-88840900D03*
X156170000Y-88840900D03*
%TD*%
D26*
%TO.C,J8*%
X186670000Y-123340900D03*
X190630000Y-123340900D03*
X194590000Y-123340900D03*
%TD*%
D12*
%TO.C,VO*%
X99500000Y-120000000D03*
X99500000Y-117460000D03*
X99500000Y-114920000D03*
%TD*%
M02*
