%TF.GenerationSoftware,KiCad,Pcbnew,10.0.6-10.0.6~ubuntu24.04.1*%
%TF.CreationDate,2026-09-02T23:41:57-03:00*%
%TF.ProjectId,simut PCB,73696d75-7420-4504-9342-2e6b69636164,rev?*%
%TF.SameCoordinates,Original*%
%TF.FileFunction,Soldermask,Top*%
%TF.FilePolarity,Negative*%
%FSLAX46Y46*%
G04 Gerber Fmt 4.6, Leading zero omitted, Abs format (unit mm)*
G04 Created by KiCad (PCBNEW 10.0.6-10.0.6~ubuntu24.04.1) date 2026-09-02 23:41:57*
%MOMM*%
%LPD*%
G01*
G04 APERTURE LIST*
G04 Aperture macros list*
%AMRoundRect*
0 Rectangle with rounded corners*
0 $1 Rounding radius*
0 $2 $3 $4 $5 $6 $7 $8 $9 X,Y pos of 4 corners*
0 Add a 4 corners polygon primitive as box body*
4,1,4,$2,$3,$4,$5,$6,$7,$8,$9,$2,$3,0*
0 Add four circle primitives for the rounded corners*
1,1,$1+$1,$2,$3*
1,1,$1+$1,$4,$5*
1,1,$1+$1,$6,$7*
1,1,$1+$1,$8,$9*
0 Add four rect primitives between the rounded corners*
20,1,$1+$1,$2,$3,$4,$5,0*
20,1,$1+$1,$4,$5,$6,$7,0*
20,1,$1+$1,$6,$7,$8,$9,0*
20,1,$1+$1,$8,$9,$2,$3,0*%
%AMFreePoly0*
4,1,37,0.800000,0.796148,0.878414,0.796148,1.032228,0.765552,1.177117,0.705537,1.307515,0.618408,1.418408,0.507515,1.505537,0.377117,1.565552,0.232228,1.596148,0.078414,1.596148,-0.078414,1.565552,-0.232228,1.505537,-0.377117,1.418408,-0.507515,1.307515,-0.618408,1.177117,-0.705537,1.032228,-0.765552,0.878414,-0.796148,0.800000,-0.796148,0.800000,-0.800000,-1.400000,-0.800000,
-1.403843,-0.796157,-1.439018,-0.796157,-1.511114,-0.766294,-1.566294,-0.711114,-1.596157,-0.639018,-1.596157,-0.603843,-1.600000,-0.600000,-1.600000,0.600000,-1.596157,0.603843,-1.596157,0.639018,-1.566294,0.711114,-1.511114,0.766294,-1.439018,0.796157,-1.403843,0.796157,-1.400000,0.800000,0.800000,0.800000,0.800000,0.796148,0.800000,0.796148,$1*%
%AMFreePoly1*
4,1,37,1.403843,0.796157,1.439018,0.796157,1.511114,0.766294,1.566294,0.711114,1.596157,0.639018,1.596157,0.603843,1.600000,0.600000,1.600000,-0.600000,1.596157,-0.603843,1.596157,-0.639018,1.566294,-0.711114,1.511114,-0.766294,1.439018,-0.796157,1.403843,-0.796157,1.400000,-0.800000,-0.800000,-0.800000,-0.800000,-0.796148,-0.878414,-0.796148,-1.032228,-0.765552,-1.177117,-0.705537,
-1.307515,-0.618408,-1.418408,-0.507515,-1.505537,-0.377117,-1.565552,-0.232228,-1.596148,-0.078414,-1.596148,0.078414,-1.565552,0.232228,-1.505537,0.377117,-1.418408,0.507515,-1.307515,0.618408,-1.177117,0.705537,-1.032228,0.765552,-0.878414,0.796148,-0.800000,0.796148,-0.800000,0.800000,1.400000,0.800000,1.403843,0.796157,1.403843,0.796157,$1*%
G04 Aperture macros list end*
%ADD10RoundRect,0.250000X-0.550000X0.550000X-0.550000X-0.550000X0.550000X-0.550000X0.550000X0.550000X0*%
%ADD11C,1.600000*%
%ADD12O,1.700000X3.000000*%
%ADD13R,1.600000X1.600000*%
%ADD14O,3.000000X2.000000*%
%ADD15O,2.000000X3.000000*%
%ADD16O,1.600000X3.000000*%
%ADD17R,1.500000X1.050000*%
%ADD18O,1.500000X1.050000*%
%ADD19O,3.000000X1.600000*%
%ADD20O,5.000000X3.000000*%
%ADD21O,3.000000X1.700000*%
%ADD22O,2.700000X5.000000*%
%ADD23O,1.800000X3.610000*%
%ADD24C,2.200000*%
%ADD25C,1.850000*%
%ADD26FreePoly0,270.000000*%
%ADD27RoundRect,0.800000X-0.000010X0.800000X-0.000010X-0.800000X0.000010X-0.800000X0.000010X0.800000X0*%
%ADD28FreePoly1,270.000000*%
%ADD29RoundRect,0.200000X-0.600000X0.600000X-0.600000X-0.600000X0.600000X-0.600000X0.600000X0.600000X0*%
G04 APERTURE END LIST*
D10*
%TO.C,RN3*%
X142320000Y-75500000D03*
D11*
X139780000Y-75500000D03*
X137240000Y-75500000D03*
X134700000Y-75500000D03*
X132160000Y-75500000D03*
X129620000Y-75500000D03*
X127080000Y-75500000D03*
X124540000Y-75500000D03*
X122000000Y-75500000D03*
X119460000Y-75500000D03*
X119460000Y-83120000D03*
X122000000Y-83120000D03*
X124540000Y-83120000D03*
X127080000Y-83120000D03*
X129620000Y-83120000D03*
X132160000Y-83120000D03*
X134700000Y-83120000D03*
X137240000Y-83120000D03*
X139780000Y-83120000D03*
X142320000Y-83120000D03*
%TD*%
D12*
%TO.C,J3*%
X108040000Y-72000000D03*
X110580000Y-72000000D03*
X113120000Y-72000000D03*
%TD*%
D13*
%TO.C,RN2*%
X174360000Y-76000000D03*
D11*
X171820000Y-76000000D03*
X169280000Y-76000000D03*
X166740000Y-76000000D03*
X164200000Y-76000000D03*
X161660000Y-76000000D03*
X159120000Y-76000000D03*
X156580000Y-76000000D03*
X154040000Y-76000000D03*
X151500000Y-76000000D03*
X148960000Y-76000000D03*
%TD*%
D13*
%TO.C,RN1*%
X144860000Y-86000000D03*
D11*
X142320000Y-86000000D03*
X139780000Y-86000000D03*
X137240000Y-86000000D03*
X134700000Y-86000000D03*
X132160000Y-86000000D03*
X129620000Y-86000000D03*
X127080000Y-86000000D03*
X124540000Y-86000000D03*
X122000000Y-86000000D03*
X119460000Y-86000000D03*
%TD*%
D14*
%TO.C,BZ1*%
X193000000Y-79000000D03*
D15*
X193000000Y-71400000D03*
%TD*%
D12*
%TO.C,J5*%
X140000000Y-127000000D03*
X137460000Y-127000000D03*
X134920000Y-127000000D03*
X132380000Y-127000000D03*
D16*
X129840000Y-127000000D03*
D12*
X127300000Y-127000000D03*
X124760000Y-127000000D03*
X122220000Y-127000000D03*
X119680000Y-127000000D03*
X117140000Y-127000000D03*
X114600000Y-127000000D03*
X112060000Y-127000000D03*
X109520000Y-127000000D03*
X106980000Y-127000000D03*
%TD*%
D16*
%TO.C,R31*%
X113120000Y-77000000D03*
X113120000Y-84620000D03*
%TD*%
D17*
%TO.C,Q1*%
X163500000Y-90770000D03*
D18*
X163500000Y-89500000D03*
X163500000Y-88230000D03*
%TD*%
D19*
%TO.C,C1*%
X163500000Y-82000000D03*
X163500000Y-84000000D03*
%TD*%
D16*
%TO.C,J2*%
X171820000Y-72000000D03*
D12*
X169280000Y-72000000D03*
X166740000Y-72000000D03*
X164200000Y-72000000D03*
X161660000Y-72000000D03*
X159120000Y-72000000D03*
X156580000Y-72000000D03*
X154040000Y-72000000D03*
X151500000Y-72000000D03*
X148960000Y-72000000D03*
%TD*%
%TO.C,J4*%
X139870000Y-118659100D03*
X137330000Y-118659100D03*
X134790000Y-118659100D03*
X132250000Y-118659100D03*
X129710000Y-118659100D03*
X127170000Y-118659100D03*
X124630000Y-118659100D03*
X122090000Y-118659100D03*
D16*
X119550000Y-118659100D03*
D12*
X117010000Y-118659100D03*
X114470000Y-118659100D03*
X111930000Y-118659100D03*
%TD*%
D19*
%TO.C,R34*%
X150380000Y-83000000D03*
X158000000Y-83000000D03*
%TD*%
D20*
%TO.C,U2*%
X181787500Y-121500000D03*
X181787500Y-116500000D03*
X152707500Y-126500000D03*
X152707500Y-111500000D03*
%TD*%
D19*
%TO.C,R35*%
X169000000Y-83000000D03*
X176620000Y-83000000D03*
%TD*%
D21*
%TO.C,J6*%
X203500000Y-77740000D03*
X203500000Y-75200000D03*
X203500000Y-72660000D03*
%TD*%
D19*
%TO.C,C2*%
X183000000Y-77700000D03*
X183000000Y-72700000D03*
%TD*%
D12*
%TO.C,J1*%
X142320000Y-72000000D03*
X139780000Y-72000000D03*
X137240000Y-72000000D03*
X134700000Y-72000000D03*
X132160000Y-72000000D03*
X129620000Y-72000000D03*
X127080000Y-72000000D03*
X124540000Y-72000000D03*
X122000000Y-72000000D03*
X119460000Y-72000000D03*
%TD*%
D19*
%TO.C,R33*%
X150380000Y-89500000D03*
X158000000Y-89500000D03*
%TD*%
D22*
%TO.C,J7*%
X188500000Y-124000000D03*
X192460000Y-124000000D03*
X196420000Y-124000000D03*
%TD*%
D19*
%TO.C,R32*%
X142000000Y-114000000D03*
X134380000Y-114000000D03*
%TD*%
%TO.C,VO*%
X101330000Y-120659100D03*
X101330000Y-118119100D03*
X101330000Y-115579100D03*
%TD*%
D23*
%TO.C,A1*%
X146140000Y-89880000D03*
X143600000Y-89880000D03*
X141060000Y-89880000D03*
X138520000Y-89880000D03*
X135980000Y-89880000D03*
X133440000Y-89880000D03*
X130900000Y-89880000D03*
X128360000Y-89880000D03*
X125820000Y-89880000D03*
X123280000Y-89880000D03*
X120740000Y-89880000D03*
X118200000Y-89880000D03*
X115660000Y-89880000D03*
X113120000Y-89880000D03*
X110580000Y-89880000D03*
X108040000Y-89880000D03*
X105500000Y-89880000D03*
X102960000Y-89880000D03*
X100420000Y-89880000D03*
X97880000Y-89880000D03*
D24*
X146010000Y-96850000D03*
D25*
X142980000Y-97150000D03*
X142980000Y-102000000D03*
D24*
X146010000Y-102300000D03*
D23*
X146140000Y-109270000D03*
X143600000Y-109270000D03*
X141060000Y-109270000D03*
X138520000Y-109270000D03*
X135980000Y-109270000D03*
X133440000Y-109270000D03*
X130900000Y-109270000D03*
X128360000Y-109270000D03*
X125820000Y-109270000D03*
X123280000Y-109270000D03*
X120740000Y-109270000D03*
X118200000Y-109270000D03*
X115660000Y-109270000D03*
X113120000Y-109270000D03*
X110580000Y-109270000D03*
X108040000Y-109270000D03*
X105500000Y-109270000D03*
X102960000Y-109270000D03*
X100420000Y-109270000D03*
X97880000Y-109270000D03*
D26*
X146140000Y-89885000D03*
D27*
X143600000Y-89885000D03*
D28*
X141060000Y-89885000D03*
D27*
X138520000Y-89885000D03*
X135980000Y-89885000D03*
X133440000Y-89885000D03*
X130900000Y-89885000D03*
D28*
X128360000Y-89885000D03*
D27*
X125820000Y-89885000D03*
X123280000Y-89885000D03*
X120740000Y-89885000D03*
X118200000Y-89885000D03*
D28*
X115660000Y-89885000D03*
D27*
X113120000Y-89885000D03*
X110580000Y-89885000D03*
X108040000Y-89885000D03*
X105500000Y-89885000D03*
D28*
X102960000Y-89885000D03*
D27*
X100420000Y-89885000D03*
X97880000Y-89885000D03*
X97880000Y-109265000D03*
X100420000Y-109265000D03*
D26*
X102960000Y-109265000D03*
D27*
X105500000Y-109265000D03*
X108040000Y-109265000D03*
X110580000Y-109265000D03*
X113120000Y-109265000D03*
D26*
X115660000Y-109265000D03*
D27*
X118200000Y-109265000D03*
X120740000Y-109265000D03*
X123280000Y-109265000D03*
X125820000Y-109265000D03*
D26*
X128360000Y-109265000D03*
D27*
X130900000Y-109265000D03*
X133440000Y-109265000D03*
X135980000Y-109265000D03*
X138520000Y-109265000D03*
D26*
X141060000Y-109265000D03*
D27*
X143600000Y-109265000D03*
X146140000Y-109265000D03*
D29*
X116310000Y-100159100D03*
D11*
X116310000Y-102699100D03*
X116310000Y-105239100D03*
%TD*%
M02*
