M48
; DRILL file KiCad 10.0.6-10.0.6~ubuntu24.04.1 date 2026-09-02T23:41:50
; FORMAT={-:-/ absolute / metric / decimal}
; #@! TF.CreationDate,2026-09-02T23:41:50-03:00
; #@! TF.GenerationSoftware,Kicad,Pcbnew,10.0.6-10.0.6~ubuntu24.04.1
; #@! TF.FileFunction,Plated,1,2,PTH
FMAT,2
METRIC
; #@! TA.AperFunction,Plated,PTH,ComponentDrill
T1C0.750
; #@! TA.AperFunction,Plated,PTH,ComponentDrill
T2C0.800
; #@! TA.AperFunction,Plated,PTH,ComponentDrill
T3C1.000
; #@! TA.AperFunction,Plated,PTH,ComponentDrill
T4C1.700
%
G90
G05
T1
X163.5Y-88.23
X163.5Y-89.5
X163.5Y-90.77
T2
X97.88Y-90.685
X97.88Y-108.465
X100.42Y-90.685
X100.42Y-108.465
X101.33Y-115.579
X101.33Y-118.119
X101.33Y-120.659
X102.96Y-90.685
X102.96Y-108.465
X105.5Y-90.685
X105.5Y-108.465
X108.04Y-90.685
X108.04Y-108.465
X110.58Y-90.685
X110.58Y-108.465
X113.12Y-77.0
X113.12Y-84.62
X113.12Y-90.685
X113.12Y-108.465
X115.66Y-90.685
X115.66Y-108.465
X118.2Y-90.685
X118.2Y-108.465
X119.46Y-75.5
X119.46Y-83.12
X119.46Y-86.0
X120.74Y-90.685
X120.74Y-108.465
X122.0Y-75.5
X122.0Y-83.12
X122.0Y-86.0
X123.28Y-90.685
X123.28Y-108.465
X124.54Y-75.5
X124.54Y-83.12
X124.54Y-86.0
X125.82Y-90.685
X125.82Y-108.465
X127.08Y-75.5
X127.08Y-83.12
X127.08Y-86.0
X128.36Y-90.685
X128.36Y-108.465
X129.62Y-75.5
X129.62Y-83.12
X129.62Y-86.0
X130.9Y-90.685
X130.9Y-108.465
X132.16Y-75.5
X132.16Y-83.12
X132.16Y-86.0
X133.44Y-90.685
X133.44Y-108.465
X134.38Y-114.0
X134.7Y-75.5
X134.7Y-83.12
X134.7Y-86.0
X135.98Y-90.685
X135.98Y-108.465
X137.24Y-75.5
X137.24Y-83.12
X137.24Y-86.0
X138.52Y-90.685
X138.52Y-108.465
X139.78Y-75.5
X139.78Y-83.12
X139.78Y-86.0
X141.06Y-90.685
X141.06Y-108.465
X142.0Y-114.0
X142.32Y-75.5
X142.32Y-83.12
X142.32Y-86.0
X143.6Y-90.685
X143.6Y-108.465
X144.86Y-86.0
X146.14Y-90.685
X146.14Y-108.465
X148.96Y-76.0
X150.38Y-83.0
X150.38Y-89.5
X151.5Y-76.0
X154.04Y-76.0
X156.58Y-76.0
X158.0Y-83.0
X158.0Y-89.5
X159.12Y-76.0
X161.66Y-76.0
X163.5Y-82.0
X163.5Y-84.0
X164.2Y-76.0
X166.74Y-76.0
X169.0Y-83.0
X169.28Y-76.0
X171.82Y-76.0
X174.36Y-76.0
X176.62Y-83.0
X183.0Y-72.7
X183.0Y-77.7
T3
X106.98Y-127.0
X108.04Y-72.0
X109.52Y-127.0
X110.58Y-72.0
X111.93Y-118.659
X112.06Y-127.0
X113.12Y-72.0
X114.47Y-118.659
X114.6Y-127.0
X116.31Y-100.159
X116.31Y-102.699
X116.31Y-105.239
X117.01Y-118.659
X117.14Y-127.0
X119.46Y-72.0
X119.55Y-118.659
X119.68Y-127.0
X122.0Y-72.0
X122.09Y-118.659
X122.22Y-127.0
X124.54Y-72.0
X124.63Y-118.659
X124.76Y-127.0
X127.08Y-72.0
X127.17Y-118.659
X127.3Y-127.0
X129.62Y-72.0
X129.71Y-118.659
X129.84Y-127.0
X132.16Y-72.0
X132.25Y-118.659
X132.38Y-127.0
X134.7Y-72.0
X134.79Y-118.659
X134.92Y-127.0
X137.24Y-72.0
X137.33Y-118.659
X137.46Y-127.0
X139.78Y-72.0
X139.87Y-118.659
X140.0Y-127.0
X142.32Y-72.0
X148.96Y-72.0
X151.5Y-72.0
X152.707Y-111.5
X152.707Y-126.5
X154.04Y-72.0
X156.58Y-72.0
X159.12Y-72.0
X161.66Y-72.0
X164.2Y-72.0
X166.74Y-72.0
X169.28Y-72.0
X171.82Y-72.0
X181.787Y-116.5
X181.787Y-121.5
X193.0Y-71.4
X193.0Y-79.0
X203.5Y-72.66
X203.5Y-75.2
X203.5Y-77.74
T4
X188.5Y-124.0
X192.46Y-124.0
X196.42Y-124.0
M30
