%TF.GenerationSoftware,KiCad,Pcbnew,10.0.6-10.0.6~ubuntu24.04.1*%
%TF.CreationDate,2026-09-04T00:25:58-03:00*%
%TF.ProjectId,simut PCB,73696d75-7420-4504-9342-2e6b69636164,rev?*%
%TF.SameCoordinates,Original*%
%TF.FileFunction,Soldermask,Bot*%
%TF.FilePolarity,Negative*%
%FSLAX46Y46*%
G04 Gerber Fmt 4.6, Leading zero omitted, Abs format (unit mm)*
G04 Created by KiCad (PCBNEW 10.0.6-10.0.6~ubuntu24.04.1) date 2026-09-04 00:25:58*
%MOMM*%
%LPD*%
G01*
G04 APERTURE LIST*
G04 Aperture macros list*
%AMRoundRect*
0 Rectangle with rounded corners*
0 $1 Rounding radius*
0 $2 $3 $4 $5 $6 $7 $8 $9 X,Y pos of 4 corners*
0 Add a 4 corners polygon primitive as box body*
4,1,4,$2,$3,$4,$5,$6,$7,$8,$9,$2,$3,0*
0 Add four circle primitives for the rounded corners*
1,1,$1+$1,$2,$3*
1,1,$1+$1,$4,$5*
1,1,$1+$1,$6,$7*
1,1,$1+$1,$8,$9*
0 Add four rect primitives between the rounded corners*
20,1,$1+$1,$2,$3,$4,$5,0*
20,1,$1+$1,$4,$5,$6,$7,0*
20,1,$1+$1,$6,$7,$8,$9,0*
20,1,$1+$1,$8,$9,$2,$3,0*%
G04 Aperture macros list end*
%ADD10O,1.700000X3.000000*%
%ADD11O,3.000000X1.600000*%
%ADD12O,1.600000X3.000000*%
%ADD13RoundRect,0.250000X-0.550000X0.550000X-0.550000X-0.550000X0.550000X-0.550000X0.550000X0.550000X0*%
%ADD14C,1.600000*%
%ADD15R,1.600000X1.600000*%
%ADD16O,3.000000X2.000000*%
%ADD17O,2.000000X3.000000*%
%ADD18R,1.500000X1.050000*%
%ADD19O,1.500000X1.050000*%
%ADD20O,5.000000X3.000000*%
%ADD21O,3.000000X1.700000*%
%ADD22O,2.700000X5.000000*%
%ADD23O,1.800000X3.610000*%
%ADD24C,2.200000*%
%ADD25C,1.850000*%
%ADD26RoundRect,0.200000X-0.600000X0.600000X-0.600000X-0.600000X0.600000X-0.600000X0.600000X0.600000X0*%
G04 APERTURE END LIST*
D10*
%TO.C,J4*%
X184960000Y-62000000D03*
X187500000Y-62000000D03*
X190040000Y-62000000D03*
%TD*%
D11*
%TO.C,R32*%
X137190000Y-114000000D03*
X144810000Y-114000000D03*
%TD*%
D10*
%TO.C,J6*%
X111930000Y-118659100D03*
X114470000Y-118659100D03*
X117010000Y-118659100D03*
D12*
X119550000Y-118659100D03*
D10*
X122090000Y-118659100D03*
X124630000Y-118659100D03*
X127170000Y-118659100D03*
X129710000Y-118659100D03*
X132250000Y-118659100D03*
X134790000Y-118659100D03*
X137330000Y-118659100D03*
X139870000Y-118659100D03*
%TD*%
D13*
%TO.C,RN3*%
X142320000Y-75500000D03*
D14*
X139780000Y-75500000D03*
X137240000Y-75500000D03*
X134700000Y-75500000D03*
X132160000Y-75500000D03*
X129620000Y-75500000D03*
X127080000Y-75500000D03*
X124540000Y-75500000D03*
X122000000Y-75500000D03*
X119460000Y-75500000D03*
X119460000Y-83120000D03*
X122000000Y-83120000D03*
X124540000Y-83120000D03*
X127080000Y-83120000D03*
X129620000Y-83120000D03*
X132160000Y-83120000D03*
X134700000Y-83120000D03*
X137240000Y-83120000D03*
X139780000Y-83120000D03*
X142320000Y-83120000D03*
%TD*%
D10*
%TO.C,J1*%
X108040000Y-72000000D03*
X110580000Y-72000000D03*
X113120000Y-72000000D03*
%TD*%
D15*
%TO.C,RN2*%
X174360000Y-76000000D03*
D14*
X171820000Y-76000000D03*
X169280000Y-76000000D03*
X166740000Y-76000000D03*
X164200000Y-76000000D03*
X161660000Y-76000000D03*
X159120000Y-76000000D03*
X156580000Y-76000000D03*
X154040000Y-76000000D03*
X151500000Y-76000000D03*
X148960000Y-76000000D03*
%TD*%
D15*
%TO.C,RN1*%
X144860000Y-86000000D03*
D14*
X142320000Y-86000000D03*
X139780000Y-86000000D03*
X137240000Y-86000000D03*
X134700000Y-86000000D03*
X132160000Y-86000000D03*
X129620000Y-86000000D03*
X127080000Y-86000000D03*
X124540000Y-86000000D03*
X122000000Y-86000000D03*
X119460000Y-86000000D03*
%TD*%
D16*
%TO.C,BZ1*%
X193000000Y-79000000D03*
D17*
X193000000Y-71400000D03*
%TD*%
D10*
%TO.C,J7*%
X140000000Y-127000000D03*
X137460000Y-127000000D03*
X134920000Y-127000000D03*
X132380000Y-127000000D03*
D12*
X129840000Y-127000000D03*
D10*
X127300000Y-127000000D03*
X124760000Y-127000000D03*
X122220000Y-127000000D03*
X119680000Y-127000000D03*
X117140000Y-127000000D03*
X114600000Y-127000000D03*
X112060000Y-127000000D03*
X109520000Y-127000000D03*
X106980000Y-127000000D03*
%TD*%
D12*
%TO.C,R31*%
X113120000Y-77000000D03*
X113120000Y-84620000D03*
%TD*%
D18*
%TO.C,Q1*%
X163500000Y-90770000D03*
D19*
X163500000Y-89500000D03*
X163500000Y-88230000D03*
%TD*%
D11*
%TO.C,C1*%
X163500000Y-82000000D03*
X163500000Y-84000000D03*
%TD*%
D12*
%TO.C,J3*%
X171820000Y-72000000D03*
D10*
X169280000Y-72000000D03*
X166740000Y-72000000D03*
X164200000Y-72000000D03*
X161660000Y-72000000D03*
X159120000Y-72000000D03*
X156580000Y-72000000D03*
X154040000Y-72000000D03*
X151500000Y-72000000D03*
X148960000Y-72000000D03*
%TD*%
D11*
%TO.C,R34*%
X150380000Y-83000000D03*
X158000000Y-83000000D03*
%TD*%
D20*
%TO.C,U2*%
X181580000Y-120000000D03*
X181580000Y-115000000D03*
X152500000Y-125000000D03*
X152500000Y-110000000D03*
%TD*%
D11*
%TO.C,R35*%
X169000000Y-83000000D03*
X176620000Y-83000000D03*
%TD*%
D21*
%TO.C,J5*%
X203500000Y-77740000D03*
X203500000Y-75200000D03*
X203500000Y-72660000D03*
%TD*%
D11*
%TO.C,C2*%
X183000000Y-77700000D03*
X183000000Y-72700000D03*
%TD*%
D10*
%TO.C,J2*%
X142320000Y-72000000D03*
X139780000Y-72000000D03*
X137240000Y-72000000D03*
X134700000Y-72000000D03*
X132160000Y-72000000D03*
X129620000Y-72000000D03*
X127080000Y-72000000D03*
X124540000Y-72000000D03*
X122000000Y-72000000D03*
X119460000Y-72000000D03*
%TD*%
D11*
%TO.C,R33*%
X150380000Y-89500000D03*
X158000000Y-89500000D03*
%TD*%
D22*
%TO.C,J8*%
X188500000Y-124000000D03*
X192460000Y-124000000D03*
X196420000Y-124000000D03*
%TD*%
D11*
%TO.C,VO*%
X101330000Y-120659100D03*
X101330000Y-118119100D03*
X101330000Y-115579100D03*
%TD*%
D23*
%TO.C,A1*%
X146140000Y-89880000D03*
X143600000Y-89880000D03*
X141060000Y-89880000D03*
X138520000Y-89880000D03*
X135980000Y-89880000D03*
X133440000Y-89880000D03*
X130900000Y-89880000D03*
X128360000Y-89880000D03*
X125820000Y-89880000D03*
X123280000Y-89880000D03*
X120740000Y-89880000D03*
X118200000Y-89880000D03*
X115660000Y-89880000D03*
X113120000Y-89880000D03*
X110580000Y-89880000D03*
X108040000Y-89880000D03*
X105500000Y-89880000D03*
X102960000Y-89880000D03*
X100420000Y-89880000D03*
X97880000Y-89880000D03*
D24*
X146010000Y-96850000D03*
D25*
X142980000Y-97150000D03*
X142980000Y-102000000D03*
D24*
X146010000Y-102300000D03*
D23*
X146140000Y-109270000D03*
X143600000Y-109270000D03*
X141060000Y-109270000D03*
X138520000Y-109270000D03*
X135980000Y-109270000D03*
X133440000Y-109270000D03*
X130900000Y-109270000D03*
X128360000Y-109270000D03*
X125820000Y-109270000D03*
X123280000Y-109270000D03*
X120740000Y-109270000D03*
X118200000Y-109270000D03*
X115660000Y-109270000D03*
X113120000Y-109270000D03*
X110580000Y-109270000D03*
X108040000Y-109270000D03*
X105500000Y-109270000D03*
X102960000Y-109270000D03*
X100420000Y-109270000D03*
X97880000Y-109270000D03*
D26*
X116310000Y-100159100D03*
D14*
X116310000Y-102699100D03*
X116310000Y-105239100D03*
%TD*%
M02*
