%TF.GenerationSoftware,KiCad,Pcbnew,10.0.6-10.0.6~ubuntu24.04.1*%
%TF.CreationDate,2026-09-02T06:54:57-03:00*%
%TF.ProjectId,simut PCB,73696d75-7420-4504-9342-2e6b69636164,rev?*%
%TF.SameCoordinates,Original*%
%TF.FileFunction,Legend,Top*%
%TF.FilePolarity,Positive*%
%FSLAX46Y46*%
G04 Gerber Fmt 4.6, Leading zero omitted, Abs format (unit mm)*
G04 Created by KiCad (PCBNEW 10.0.6-10.0.6~ubuntu24.04.1) date 2026-09-02 06:54:57*
%MOMM*%
%LPD*%
G01*
G04 APERTURE LIST*
%ADD10C,0.150000*%
%ADD11C,0.120000*%
G04 APERTURE END LIST*
D10*
X145104819Y-80000476D02*
X144628628Y-80333809D01*
X145104819Y-80571904D02*
X144104819Y-80571904D01*
X144104819Y-80571904D02*
X144104819Y-80190952D01*
X144104819Y-80190952D02*
X144152438Y-80095714D01*
X144152438Y-80095714D02*
X144200057Y-80048095D01*
X144200057Y-80048095D02*
X144295295Y-80000476D01*
X144295295Y-80000476D02*
X144438152Y-80000476D01*
X144438152Y-80000476D02*
X144533390Y-80048095D01*
X144533390Y-80048095D02*
X144581009Y-80095714D01*
X144581009Y-80095714D02*
X144628628Y-80190952D01*
X144628628Y-80190952D02*
X144628628Y-80571904D01*
X145104819Y-79571904D02*
X144104819Y-79571904D01*
X144104819Y-79571904D02*
X145104819Y-79000476D01*
X145104819Y-79000476D02*
X144104819Y-79000476D01*
X144104819Y-78619523D02*
X144104819Y-78000476D01*
X144104819Y-78000476D02*
X144485771Y-78333809D01*
X144485771Y-78333809D02*
X144485771Y-78190952D01*
X144485771Y-78190952D02*
X144533390Y-78095714D01*
X144533390Y-78095714D02*
X144581009Y-78048095D01*
X144581009Y-78048095D02*
X144676247Y-78000476D01*
X144676247Y-78000476D02*
X144914342Y-78000476D01*
X144914342Y-78000476D02*
X145009580Y-78048095D01*
X145009580Y-78048095D02*
X145057200Y-78095714D01*
X145057200Y-78095714D02*
X145104819Y-78190952D01*
X145104819Y-78190952D02*
X145104819Y-78476666D01*
X145104819Y-78476666D02*
X145057200Y-78571904D01*
X145057200Y-78571904D02*
X145009580Y-78619523D01*
X159699523Y-78764819D02*
X159366190Y-78288628D01*
X159128095Y-78764819D02*
X159128095Y-77764819D01*
X159128095Y-77764819D02*
X159509047Y-77764819D01*
X159509047Y-77764819D02*
X159604285Y-77812438D01*
X159604285Y-77812438D02*
X159651904Y-77860057D01*
X159651904Y-77860057D02*
X159699523Y-77955295D01*
X159699523Y-77955295D02*
X159699523Y-78098152D01*
X159699523Y-78098152D02*
X159651904Y-78193390D01*
X159651904Y-78193390D02*
X159604285Y-78241009D01*
X159604285Y-78241009D02*
X159509047Y-78288628D01*
X159509047Y-78288628D02*
X159128095Y-78288628D01*
X160128095Y-78764819D02*
X160128095Y-77764819D01*
X160128095Y-77764819D02*
X160699523Y-78764819D01*
X160699523Y-78764819D02*
X160699523Y-77764819D01*
X161128095Y-77860057D02*
X161175714Y-77812438D01*
X161175714Y-77812438D02*
X161270952Y-77764819D01*
X161270952Y-77764819D02*
X161509047Y-77764819D01*
X161509047Y-77764819D02*
X161604285Y-77812438D01*
X161604285Y-77812438D02*
X161651904Y-77860057D01*
X161651904Y-77860057D02*
X161699523Y-77955295D01*
X161699523Y-77955295D02*
X161699523Y-78050533D01*
X161699523Y-78050533D02*
X161651904Y-78193390D01*
X161651904Y-78193390D02*
X161080476Y-78764819D01*
X161080476Y-78764819D02*
X161699523Y-78764819D01*
X130199523Y-88764819D02*
X129866190Y-88288628D01*
X129628095Y-88764819D02*
X129628095Y-87764819D01*
X129628095Y-87764819D02*
X130009047Y-87764819D01*
X130009047Y-87764819D02*
X130104285Y-87812438D01*
X130104285Y-87812438D02*
X130151904Y-87860057D01*
X130151904Y-87860057D02*
X130199523Y-87955295D01*
X130199523Y-87955295D02*
X130199523Y-88098152D01*
X130199523Y-88098152D02*
X130151904Y-88193390D01*
X130151904Y-88193390D02*
X130104285Y-88241009D01*
X130104285Y-88241009D02*
X130009047Y-88288628D01*
X130009047Y-88288628D02*
X129628095Y-88288628D01*
X130628095Y-88764819D02*
X130628095Y-87764819D01*
X130628095Y-87764819D02*
X131199523Y-88764819D01*
X131199523Y-88764819D02*
X131199523Y-87764819D01*
X132199523Y-88764819D02*
X131628095Y-88764819D01*
X131913809Y-88764819D02*
X131913809Y-87764819D01*
X131913809Y-87764819D02*
X131818571Y-87907676D01*
X131818571Y-87907676D02*
X131723333Y-88002914D01*
X131723333Y-88002914D02*
X131628095Y-88050533D01*
X190533866Y-79390951D02*
X190533866Y-78629047D01*
X190914819Y-79009999D02*
X190152914Y-79009999D01*
X141834819Y-127333333D02*
X142549104Y-127333333D01*
X142549104Y-127333333D02*
X142691961Y-127380952D01*
X142691961Y-127380952D02*
X142787200Y-127476190D01*
X142787200Y-127476190D02*
X142834819Y-127619047D01*
X142834819Y-127619047D02*
X142834819Y-127714285D01*
X141834819Y-126380952D02*
X141834819Y-126857142D01*
X141834819Y-126857142D02*
X142311009Y-126904761D01*
X142311009Y-126904761D02*
X142263390Y-126857142D01*
X142263390Y-126857142D02*
X142215771Y-126761904D01*
X142215771Y-126761904D02*
X142215771Y-126523809D01*
X142215771Y-126523809D02*
X142263390Y-126428571D01*
X142263390Y-126428571D02*
X142311009Y-126380952D01*
X142311009Y-126380952D02*
X142406247Y-126333333D01*
X142406247Y-126333333D02*
X142644342Y-126333333D01*
X142644342Y-126333333D02*
X142739580Y-126380952D01*
X142739580Y-126380952D02*
X142787200Y-126428571D01*
X142787200Y-126428571D02*
X142834819Y-126523809D01*
X142834819Y-126523809D02*
X142834819Y-126761904D01*
X142834819Y-126761904D02*
X142787200Y-126857142D01*
X142787200Y-126857142D02*
X142739580Y-126904761D01*
X160490057Y-89595238D02*
X160442438Y-89690476D01*
X160442438Y-89690476D02*
X160347200Y-89785714D01*
X160347200Y-89785714D02*
X160204342Y-89928571D01*
X160204342Y-89928571D02*
X160156723Y-90023809D01*
X160156723Y-90023809D02*
X160156723Y-90119047D01*
X160394819Y-90071428D02*
X160347200Y-90166666D01*
X160347200Y-90166666D02*
X160251961Y-90261904D01*
X160251961Y-90261904D02*
X160061485Y-90309523D01*
X160061485Y-90309523D02*
X159728152Y-90309523D01*
X159728152Y-90309523D02*
X159537676Y-90261904D01*
X159537676Y-90261904D02*
X159442438Y-90166666D01*
X159442438Y-90166666D02*
X159394819Y-90071428D01*
X159394819Y-90071428D02*
X159394819Y-89880952D01*
X159394819Y-89880952D02*
X159442438Y-89785714D01*
X159442438Y-89785714D02*
X159537676Y-89690476D01*
X159537676Y-89690476D02*
X159728152Y-89642857D01*
X159728152Y-89642857D02*
X160061485Y-89642857D01*
X160061485Y-89642857D02*
X160251961Y-89690476D01*
X160251961Y-89690476D02*
X160347200Y-89785714D01*
X160347200Y-89785714D02*
X160394819Y-89880952D01*
X160394819Y-89880952D02*
X160394819Y-90071428D01*
X160394819Y-88690476D02*
X160394819Y-89261904D01*
X160394819Y-88976190D02*
X159394819Y-88976190D01*
X159394819Y-88976190D02*
X159537676Y-89071428D01*
X159537676Y-89071428D02*
X159632914Y-89166666D01*
X159632914Y-89166666D02*
X159680533Y-89261904D01*
X165829580Y-78376666D02*
X165877200Y-78424285D01*
X165877200Y-78424285D02*
X165924819Y-78567142D01*
X165924819Y-78567142D02*
X165924819Y-78662380D01*
X165924819Y-78662380D02*
X165877200Y-78805237D01*
X165877200Y-78805237D02*
X165781961Y-78900475D01*
X165781961Y-78900475D02*
X165686723Y-78948094D01*
X165686723Y-78948094D02*
X165496247Y-78995713D01*
X165496247Y-78995713D02*
X165353390Y-78995713D01*
X165353390Y-78995713D02*
X165162914Y-78948094D01*
X165162914Y-78948094D02*
X165067676Y-78900475D01*
X165067676Y-78900475D02*
X164972438Y-78805237D01*
X164972438Y-78805237D02*
X164924819Y-78662380D01*
X164924819Y-78662380D02*
X164924819Y-78567142D01*
X164924819Y-78567142D02*
X164972438Y-78424285D01*
X164972438Y-78424285D02*
X165020057Y-78376666D01*
X165924819Y-77424285D02*
X165924819Y-77995713D01*
X165924819Y-77709999D02*
X164924819Y-77709999D01*
X164924819Y-77709999D02*
X165067676Y-77805237D01*
X165067676Y-77805237D02*
X165162914Y-77900475D01*
X165162914Y-77900475D02*
X165210533Y-77995713D01*
X173654819Y-72333333D02*
X174369104Y-72333333D01*
X174369104Y-72333333D02*
X174511961Y-72380952D01*
X174511961Y-72380952D02*
X174607200Y-72476190D01*
X174607200Y-72476190D02*
X174654819Y-72619047D01*
X174654819Y-72619047D02*
X174654819Y-72714285D01*
X173750057Y-71904761D02*
X173702438Y-71857142D01*
X173702438Y-71857142D02*
X173654819Y-71761904D01*
X173654819Y-71761904D02*
X173654819Y-71523809D01*
X173654819Y-71523809D02*
X173702438Y-71428571D01*
X173702438Y-71428571D02*
X173750057Y-71380952D01*
X173750057Y-71380952D02*
X173845295Y-71333333D01*
X173845295Y-71333333D02*
X173940533Y-71333333D01*
X173940533Y-71333333D02*
X174083390Y-71380952D01*
X174083390Y-71380952D02*
X174654819Y-71952380D01*
X174654819Y-71952380D02*
X174654819Y-71333333D01*
X141704819Y-118992433D02*
X142419104Y-118992433D01*
X142419104Y-118992433D02*
X142561961Y-119040052D01*
X142561961Y-119040052D02*
X142657200Y-119135290D01*
X142657200Y-119135290D02*
X142704819Y-119278147D01*
X142704819Y-119278147D02*
X142704819Y-119373385D01*
X142038152Y-118087671D02*
X142704819Y-118087671D01*
X141657200Y-118325766D02*
X142371485Y-118563861D01*
X142371485Y-118563861D02*
X142371485Y-117944814D01*
X203166666Y-79574819D02*
X203166666Y-80289104D01*
X203166666Y-80289104D02*
X203119047Y-80431961D01*
X203119047Y-80431961D02*
X203023809Y-80527200D01*
X203023809Y-80527200D02*
X202880952Y-80574819D01*
X202880952Y-80574819D02*
X202785714Y-80574819D01*
X204071428Y-79574819D02*
X203880952Y-79574819D01*
X203880952Y-79574819D02*
X203785714Y-79622438D01*
X203785714Y-79622438D02*
X203738095Y-79670057D01*
X203738095Y-79670057D02*
X203642857Y-79812914D01*
X203642857Y-79812914D02*
X203595238Y-80003390D01*
X203595238Y-80003390D02*
X203595238Y-80384342D01*
X203595238Y-80384342D02*
X203642857Y-80479580D01*
X203642857Y-80479580D02*
X203690476Y-80527200D01*
X203690476Y-80527200D02*
X203785714Y-80574819D01*
X203785714Y-80574819D02*
X203976190Y-80574819D01*
X203976190Y-80574819D02*
X204071428Y-80527200D01*
X204071428Y-80527200D02*
X204119047Y-80479580D01*
X204119047Y-80479580D02*
X204166666Y-80384342D01*
X204166666Y-80384342D02*
X204166666Y-80146247D01*
X204166666Y-80146247D02*
X204119047Y-80051009D01*
X204119047Y-80051009D02*
X204071428Y-80003390D01*
X204071428Y-80003390D02*
X203976190Y-79955771D01*
X203976190Y-79955771D02*
X203785714Y-79955771D01*
X203785714Y-79955771D02*
X203690476Y-80003390D01*
X203690476Y-80003390D02*
X203642857Y-80051009D01*
X203642857Y-80051009D02*
X203595238Y-80146247D01*
X144154819Y-72333333D02*
X144869104Y-72333333D01*
X144869104Y-72333333D02*
X145011961Y-72380952D01*
X145011961Y-72380952D02*
X145107200Y-72476190D01*
X145107200Y-72476190D02*
X145154819Y-72619047D01*
X145154819Y-72619047D02*
X145154819Y-72714285D01*
X145154819Y-71333333D02*
X145154819Y-71904761D01*
X145154819Y-71619047D02*
X144154819Y-71619047D01*
X144154819Y-71619047D02*
X144297676Y-71714285D01*
X144297676Y-71714285D02*
X144392914Y-71809523D01*
X144392914Y-71809523D02*
X144440533Y-71904761D01*
X192126666Y-118554819D02*
X192126666Y-119269104D01*
X192126666Y-119269104D02*
X192079047Y-119411961D01*
X192079047Y-119411961D02*
X191983809Y-119507200D01*
X191983809Y-119507200D02*
X191840952Y-119554819D01*
X191840952Y-119554819D02*
X191745714Y-119554819D01*
X192507619Y-118554819D02*
X193174285Y-118554819D01*
X193174285Y-118554819D02*
X192745714Y-119554819D01*
X114954819Y-72333333D02*
X115669104Y-72333333D01*
X115669104Y-72333333D02*
X115811961Y-72380952D01*
X115811961Y-72380952D02*
X115907200Y-72476190D01*
X115907200Y-72476190D02*
X115954819Y-72619047D01*
X115954819Y-72619047D02*
X115954819Y-72714285D01*
X114954819Y-71952380D02*
X114954819Y-71333333D01*
X114954819Y-71333333D02*
X115335771Y-71666666D01*
X115335771Y-71666666D02*
X115335771Y-71523809D01*
X115335771Y-71523809D02*
X115383390Y-71428571D01*
X115383390Y-71428571D02*
X115431009Y-71380952D01*
X115431009Y-71380952D02*
X115526247Y-71333333D01*
X115526247Y-71333333D02*
X115764342Y-71333333D01*
X115764342Y-71333333D02*
X115859580Y-71380952D01*
X115859580Y-71380952D02*
X115907200Y-71428571D01*
X115907200Y-71428571D02*
X115954819Y-71523809D01*
X115954819Y-71523809D02*
X115954819Y-71809523D01*
X115954819Y-71809523D02*
X115907200Y-71904761D01*
X115907200Y-71904761D02*
X115859580Y-71952380D01*
X105444819Y-119254338D02*
X104968628Y-119587671D01*
X105444819Y-119825766D02*
X104444819Y-119825766D01*
X104444819Y-119825766D02*
X104444819Y-119444814D01*
X104444819Y-119444814D02*
X104492438Y-119349576D01*
X104492438Y-119349576D02*
X104540057Y-119301957D01*
X104540057Y-119301957D02*
X104635295Y-119254338D01*
X104635295Y-119254338D02*
X104778152Y-119254338D01*
X104778152Y-119254338D02*
X104873390Y-119301957D01*
X104873390Y-119301957D02*
X104921009Y-119349576D01*
X104921009Y-119349576D02*
X104968628Y-119444814D01*
X104968628Y-119444814D02*
X104968628Y-119825766D01*
X104444819Y-118968623D02*
X105444819Y-118635290D01*
X105444819Y-118635290D02*
X104444819Y-118301957D01*
X104540057Y-118016242D02*
X104492438Y-117968623D01*
X104492438Y-117968623D02*
X104444819Y-117873385D01*
X104444819Y-117873385D02*
X104444819Y-117635290D01*
X104444819Y-117635290D02*
X104492438Y-117540052D01*
X104492438Y-117540052D02*
X104540057Y-117492433D01*
X104540057Y-117492433D02*
X104635295Y-117444814D01*
X104635295Y-117444814D02*
X104730533Y-117444814D01*
X104730533Y-117444814D02*
X104873390Y-117492433D01*
X104873390Y-117492433D02*
X105444819Y-118063861D01*
X105444819Y-118063861D02*
X105444819Y-117444814D01*
X97075895Y-111611660D02*
X97075895Y-112087850D01*
X96790180Y-111516422D02*
X97790180Y-111849755D01*
X97790180Y-111849755D02*
X96790180Y-112183088D01*
X96790180Y-113040231D02*
X96790180Y-112468803D01*
X96790180Y-112754517D02*
X97790180Y-112754517D01*
X97790180Y-112754517D02*
X97647323Y-112659279D01*
X97647323Y-112659279D02*
X97552085Y-112564041D01*
X97552085Y-112564041D02*
X97504466Y-112468803D01*
%TO.C,RN3*%
D11*
X143650000Y-76660000D02*
X118130000Y-76660000D01*
X118130000Y-76660000D02*
X118130000Y-81960000D01*
X143650000Y-78310000D02*
X143650000Y-76660000D01*
X143650000Y-81960000D02*
X143650000Y-80310000D01*
X118130000Y-81960000D02*
X143650000Y-81960000D01*
X143650000Y-80310000D02*
G75*
G02*
X143650000Y-78310000I0J1000000D01*
G01*
%TO.C,RN2*%
X173090000Y-77310000D02*
X173090000Y-74690000D01*
X147610000Y-74690000D02*
X175710000Y-74690000D01*
X175710000Y-77310000D01*
X147610000Y-77310000D01*
X147610000Y-74690000D01*
%TO.C,RN1*%
X143590000Y-87310000D02*
X143590000Y-84690000D01*
X118110000Y-84690000D02*
X146210000Y-84690000D01*
X146210000Y-87310000D01*
X118110000Y-87310000D01*
X118110000Y-84690000D01*
%TO.C,BZ1*%
X200600000Y-75200000D02*
G75*
G02*
X185400000Y-75200000I-7600000J0D01*
G01*
X185400000Y-75200000D02*
G75*
G02*
X200600000Y-75200000I7600000J0D01*
G01*
%TO.C,J5*%
X105600000Y-125620000D02*
X105600000Y-128380000D01*
X138730000Y-125620000D02*
X105600000Y-125620000D01*
X138730000Y-125620000D02*
X138730000Y-128380000D01*
X138730000Y-128380000D02*
X105600000Y-128380000D01*
X140000000Y-125620000D02*
X141380000Y-125620000D01*
X141380000Y-125620000D02*
X141380000Y-127000000D01*
%TO.C,R31*%
X111750000Y-84080000D02*
X112080000Y-84080000D01*
X114490000Y-84080000D02*
X114160000Y-84080000D01*
X111750000Y-77540000D02*
X111750000Y-84080000D01*
X112080000Y-77540000D02*
X111750000Y-77540000D01*
X114160000Y-77540000D02*
X114490000Y-77540000D01*
X114490000Y-77540000D02*
X114490000Y-84080000D01*
%TO.C,Q1*%
X165350000Y-91300000D02*
X165350000Y-87700000D01*
X160900000Y-89500000D02*
G75*
G02*
X165338478Y-87661522I2600000J0D01*
G01*
X165338478Y-91338478D02*
G75*
G02*
X160899999Y-89500000I-1838478J1838478D01*
G01*
%TO.C,C1*%
X166120000Y-83000000D02*
G75*
G02*
X160880000Y-83000000I-2620000J0D01*
G01*
X160880000Y-83000000D02*
G75*
G02*
X166120000Y-83000000I2620000J0D01*
G01*
%TO.C,J2*%
X147580000Y-70620000D02*
X147580000Y-73380000D01*
X170550000Y-70620000D02*
X147580000Y-70620000D01*
X170550000Y-70620000D02*
X170550000Y-73380000D01*
X170550000Y-73380000D02*
X147580000Y-73380000D01*
X171820000Y-70620000D02*
X173200000Y-70620000D01*
X173200000Y-70620000D02*
X173200000Y-72000000D01*
%TO.C,J4*%
X110550000Y-117279100D02*
X110550000Y-120039100D01*
X138600000Y-117279100D02*
X110550000Y-117279100D01*
X138600000Y-117279100D02*
X138600000Y-120039100D01*
X138600000Y-120039100D02*
X110550000Y-120039100D01*
X139870000Y-117279100D02*
X141250000Y-117279100D01*
X141250000Y-117279100D02*
X141250000Y-118659100D01*
%TO.C,R34*%
X150920000Y-81630000D02*
X157460000Y-81630000D01*
X150920000Y-81960000D02*
X150920000Y-81630000D01*
X150920000Y-84040000D02*
X150920000Y-84370000D01*
X150920000Y-84370000D02*
X157460000Y-84370000D01*
X157460000Y-81630000D02*
X157460000Y-81960000D01*
X157460000Y-84370000D02*
X157460000Y-84040000D01*
%TO.C,U2*%
X148737500Y-107640000D02*
X185757500Y-107640000D01*
X148737500Y-130360000D02*
X148737500Y-107640000D01*
X185757500Y-107640000D02*
X185757500Y-121204000D01*
X185757500Y-121796000D02*
X185757500Y-130360000D01*
X185757500Y-130360000D02*
X148737500Y-130360000D01*
X185757500Y-121500000D02*
X186367500Y-121060000D01*
X186367500Y-121940000D01*
X185757500Y-121500000D01*
G36*
X186367500Y-121940000D02*
G01*
X185757500Y-121500000D01*
X186367500Y-121060000D01*
X186367500Y-121940000D01*
G37*
%TO.C,R35*%
X169540000Y-81630000D02*
X176080000Y-81630000D01*
X169540000Y-81960000D02*
X169540000Y-81630000D01*
X169540000Y-84040000D02*
X169540000Y-84370000D01*
X169540000Y-84370000D02*
X176080000Y-84370000D01*
X176080000Y-81630000D02*
X176080000Y-81960000D01*
X176080000Y-84370000D02*
X176080000Y-84040000D01*
%TO.C,J6*%
X204880000Y-79120000D02*
X203500000Y-79120000D01*
X204880000Y-77740000D02*
X204880000Y-79120000D01*
X204880000Y-76470000D02*
X204880000Y-71280000D01*
X204880000Y-76470000D02*
X202120000Y-76470000D01*
X204880000Y-71280000D02*
X202120000Y-71280000D01*
X202120000Y-76470000D02*
X202120000Y-71280000D01*
%TO.C,C2*%
X181630000Y-70080000D02*
X184370000Y-70080000D01*
X181630000Y-80320000D02*
X181630000Y-70080000D01*
X184370000Y-70080000D02*
X184370000Y-80320000D01*
X184370000Y-80320000D02*
X181630000Y-80320000D01*
%TO.C,J1*%
X118080000Y-70620000D02*
X118080000Y-73380000D01*
X141050000Y-70620000D02*
X118080000Y-70620000D01*
X141050000Y-70620000D02*
X141050000Y-73380000D01*
X141050000Y-73380000D02*
X118080000Y-73380000D01*
X142320000Y-70620000D02*
X143700000Y-70620000D01*
X143700000Y-70620000D02*
X143700000Y-72000000D01*
%TO.C,R33*%
X157460000Y-88130000D02*
X157460000Y-88460000D01*
X150920000Y-88130000D02*
X157460000Y-88130000D01*
X150920000Y-88460000D02*
X150920000Y-88130000D01*
X150920000Y-90540000D02*
X150920000Y-90870000D01*
X157460000Y-90870000D02*
X157460000Y-90540000D01*
X150920000Y-90870000D02*
X157460000Y-90870000D01*
%TO.C,J7*%
X197280000Y-120190000D02*
X197280000Y-121890000D01*
X187640000Y-120190000D02*
X197280000Y-120190000D01*
X198480000Y-121890000D02*
X198480000Y-128910000D01*
X197280000Y-121890000D02*
X198480000Y-121890000D01*
X187640000Y-121890000D02*
X187640000Y-120190000D01*
X186440000Y-121890000D02*
X187640000Y-121890000D01*
X185640000Y-123700000D02*
X186240000Y-124000000D01*
X186240000Y-124000000D02*
X185640000Y-124300000D01*
X185640000Y-124300000D02*
X185640000Y-123700000D01*
X198480000Y-128910000D02*
X186440000Y-128910000D01*
X186440000Y-128910000D02*
X186440000Y-121890000D01*
%TO.C,R32*%
X141460000Y-112130000D02*
X134920000Y-112130000D01*
X134920000Y-112130000D02*
X134920000Y-112460000D01*
X141460000Y-112460000D02*
X141460000Y-112130000D01*
X141460000Y-114540000D02*
X141460000Y-114870000D01*
X141460000Y-114870000D02*
X134920000Y-114870000D01*
X134920000Y-114870000D02*
X134920000Y-114540000D01*
%TO.C,J3*%
X106660000Y-70620000D02*
X106660000Y-73380000D01*
X111850000Y-70620000D02*
X106660000Y-70620000D01*
X111850000Y-70620000D02*
X111850000Y-73380000D01*
X111850000Y-73380000D02*
X106660000Y-73380000D01*
X113120000Y-70620000D02*
X114500000Y-70620000D01*
X114500000Y-70620000D02*
X114500000Y-72000000D01*
%TO.C,RV2*%
X98800000Y-113244100D02*
X103850000Y-113244100D01*
X98800000Y-122994100D02*
X98800000Y-113244100D01*
X103850000Y-113244100D02*
X103850000Y-122994100D01*
X103850000Y-122994100D02*
X98800000Y-122994100D01*
%TO.C,A1*%
X99360000Y-88965000D02*
X98940000Y-88965000D01*
X99360000Y-110185000D02*
X98940000Y-110185000D01*
X101900000Y-88965000D02*
X101480000Y-88965000D01*
X101900000Y-110185000D02*
X101480000Y-110185000D01*
X104440000Y-88965000D02*
X104020000Y-88965000D01*
X104440000Y-110185000D02*
X104020000Y-110185000D01*
X106980000Y-88965000D02*
X106560000Y-88965000D01*
X106980000Y-110185000D02*
X106560000Y-110185000D01*
X109520000Y-88965000D02*
X109100000Y-88965000D01*
X109520000Y-110185000D02*
X109100000Y-110185000D01*
X112060000Y-88965000D02*
X111640000Y-88965000D01*
X112060000Y-110185000D02*
X111640000Y-110185000D01*
X114600000Y-88965000D02*
X114180000Y-88965000D01*
X114600000Y-110185000D02*
X114180000Y-110185000D01*
X117140000Y-88965000D02*
X116720000Y-88965000D01*
X117140000Y-110185000D02*
X116720000Y-110185000D01*
X119680000Y-88965000D02*
X119260000Y-88965000D01*
X119680000Y-110185000D02*
X119260000Y-110185000D01*
X122220000Y-88965000D02*
X121800000Y-88965000D01*
X122220000Y-110185000D02*
X121800000Y-110185000D01*
X124760000Y-88965000D02*
X124340000Y-88965000D01*
X124760000Y-110185000D02*
X124340000Y-110185000D01*
X127300000Y-88965000D02*
X126880000Y-88965000D01*
X127300000Y-110185000D02*
X126880000Y-110185000D01*
X129840000Y-88965000D02*
X129420000Y-88965000D01*
X129840000Y-110185000D02*
X129420000Y-110185000D01*
X132380000Y-88965000D02*
X131960000Y-88965000D01*
X132380000Y-110185000D02*
X131960000Y-110185000D01*
X134920000Y-88965000D02*
X134500000Y-88965000D01*
X134920000Y-110185000D02*
X134500000Y-110185000D01*
X137460000Y-88965000D02*
X137040000Y-88965000D01*
X137460000Y-110185000D02*
X137040000Y-110185000D01*
X140000000Y-88965000D02*
X139580000Y-88965000D01*
X140000000Y-110185000D02*
X139580000Y-110185000D01*
X142540000Y-88965000D02*
X142120000Y-88965000D01*
X142540000Y-110185000D02*
X142120000Y-110185000D01*
X143100000Y-95675000D02*
X143100000Y-95971090D01*
X143100000Y-98328910D02*
X143100000Y-100821090D01*
X143100000Y-103178910D02*
X143100000Y-103475000D01*
X144316000Y-95675000D02*
X143100000Y-95675000D01*
X144316000Y-103475000D02*
X143100000Y-103475000D01*
X145080000Y-88965000D02*
X144660000Y-88965000D01*
X145080000Y-88965000D02*
X145080000Y-88485000D01*
X145080000Y-110185000D02*
X144660000Y-110185000D01*
X147200000Y-88995324D02*
X147200000Y-88485000D01*
X147620000Y-89575000D02*
X147620000Y-92065000D01*
X147620000Y-92065000D02*
X147620000Y-93412940D01*
X147620000Y-94337061D02*
X147620000Y-95340000D01*
X147620000Y-95340000D02*
X147620000Y-103810000D01*
X147620000Y-95675000D02*
X146704000Y-95675000D01*
X147620000Y-103475000D02*
X146704000Y-103475000D01*
X147620000Y-103810000D02*
X147620000Y-104812939D01*
X147620000Y-105737061D02*
X147620000Y-107085000D01*
X147620000Y-109575000D02*
X147620000Y-107085000D01*
X96520000Y-89211682D02*
G75*
G02*
X96820063Y-88995324I490008J-363328D01*
G01*
X96820063Y-110154676D02*
G75*
G02*
X96519978Y-109938335I189737J579476D01*
G01*
X147200000Y-88995324D02*
G75*
G02*
X147620000Y-89575000I-190051J-579692D01*
G01*
X147620000Y-109575000D02*
G75*
G02*
X147199937Y-110154676I-610000J0D01*
G01*
%TD*%
M02*
