%TF.GenerationSoftware,KiCad,Pcbnew,10.0.6-10.0.6~ubuntu24.04.1*%
%TF.CreationDate,2026-09-05T18:16:51-03:00*%
%TF.ProjectId,simut PCB,73696d75-7420-4504-9342-2e6b69636164,rev?*%
%TF.SameCoordinates,Original*%
%TF.FileFunction,Paste,Top*%
%TF.FilePolarity,Positive*%
%FSLAX46Y46*%
G04 Gerber Fmt 4.6, Leading zero omitted, Abs format (unit mm)*
G04 Created by KiCad (PCBNEW 10.0.6-10.0.6~ubuntu24.04.1) date 2026-09-05 18:16:51*
%MOMM*%
%LPD*%
G01*
G04 APERTURE LIST*
%ADD10O,2.200000X3.800000*%
G04 APERTURE END LIST*
D10*
%TO.C,A1*%
X144310000Y-89225900D03*
X141770000Y-89225900D03*
X139230000Y-89225900D03*
X136690000Y-89225900D03*
X134150000Y-89225900D03*
X131610000Y-89225900D03*
X129070000Y-89225900D03*
X126530000Y-89225900D03*
X123990000Y-89225900D03*
X121450000Y-89225900D03*
X118910000Y-89225900D03*
X116370000Y-89225900D03*
X113830000Y-89225900D03*
X111290000Y-89225900D03*
X108750000Y-89225900D03*
X106210000Y-89225900D03*
X103670000Y-89225900D03*
X101130000Y-89225900D03*
X98590000Y-89225900D03*
X96050000Y-89225900D03*
X144310000Y-108605900D03*
X141770000Y-108605900D03*
X139230000Y-108605900D03*
X136690000Y-108605900D03*
X134150000Y-108605900D03*
X131610000Y-108605900D03*
X129070000Y-108605900D03*
X126530000Y-108605900D03*
X123990000Y-108605900D03*
X121450000Y-108605900D03*
X118910000Y-108605900D03*
X116370000Y-108605900D03*
X113830000Y-108605900D03*
X111290000Y-108605900D03*
X108750000Y-108605900D03*
X106210000Y-108605900D03*
X103670000Y-108605900D03*
X101130000Y-108605900D03*
X98590000Y-108605900D03*
X96050000Y-108605900D03*
%TD*%
M02*
